<svg width="393" height="179" viewBox="0 0 393 179" fill="none" xmlns="http://www.w3.org/2000/svg">
<path d="M90.0756 10.0257C28.2705 17.1026 -22.1722 64.8718 -39.668 87.8718V321.41H540.64V0C493.657 32.6325 384.947 97.6616 325.973 96.718C252.255 95.5385 167.332 1.17952 90.0756 10.0257Z" fill="#5E82FF"/>
<path d="M42.8959 10.0257C-18.9092 17.1026 -69.3519 64.8718 -86.8477 87.8718V321.41H493.46V0C446.477 32.6325 337.768 97.6616 278.793 96.718C205.075 95.5385 120.152 1.17952 42.8959 10.0257Z" fill="#3A5DD7" fill-opacity="0.9"/>
<path d="M31.103 33.6155C-30.7022 40.6924 -81.1449 88.4617 -98.6406 111.462V345H481.667V23.5898C434.684 56.2223 325.975 121.251 267 120.308C193.282 119.128 108.359 24.7694 31.103 33.6155Z" fill="#14329A" fill-opacity="0.6"/>
</svg>
