<svg width="317" height="194" viewBox="0 0 317 194" fill="none" xmlns="http://www.w3.org/2000/svg">
<path fill-rule="evenodd" clip-rule="evenodd" d="M82.7188 99.6841C82.7188 99.6841 100.855 112.153 115.968 111.678C133.569 111.125 108.916 106.389 110.402 90.9883L82.7188 99.6841Z" fill="#28508B"/>
<path fill-rule="evenodd" clip-rule="evenodd" d="M31.9327 114.726C31.9327 114.726 29.4024 108.753 44.5135 98.6581C44.5135 98.6581 33.4997 62.0905 83.3576 48.0793C93.042 45.3578 102.202 44.4563 112.194 43.3303C112.459 43.301 125.672 35.946 130.072 34.5929C145.6 29.8146 165.333 28.9823 171.513 38.6862C174.579 43.5003 153.632 40.4672 158.851 57.0852C163.053 61.0653 175.555 69.4056 180.291 74.4866C202.965 98.8135 208.974 124.248 211.478 148.898C212.078 154.792 206.307 149.878 205.833 148.991C188.241 115.959 148.817 85.9756 75.3265 105.336C54.5836 110.801 35.1424 120.751 31.9327 114.726Z" fill="#28508B"/>
<path fill-rule="evenodd" clip-rule="evenodd" d="M200.736 140.478C198.674 137.391 196.401 134.37 193.906 131.455C172.671 106.642 135.371 89.5173 75.3232 105.336C54.9732 110.697 35.8795 120.373 32.1328 115.049C39.151 111.496 46.0512 108.088 53.0133 105.004C55.2474 104.015 60.7474 100.692 63.115 97.6216C67.2677 92.238 69.3156 91.2885 75.3664 89.0096C98.0782 80.4569 129.685 80.6855 157.172 92.8327C173.17 99.9014 187.237 111.894 195.059 125.713C197.746 130.461 199.697 135.424 200.736 140.478Z" fill="white"/>
<path fill-rule="evenodd" clip-rule="evenodd" d="M129.843 99.7116C124.76 99.2633 119.415 99.125 113.804 99.3259C108.801 94.8486 105.812 89.3535 104.082 83.2539C104.812 83.214 105.544 83.1823 106.279 83.1562L129.843 99.7116Z" fill="#C7C8C8"/>
<path fill-rule="evenodd" clip-rule="evenodd" d="M200.107 139.549C198.639 137.407 197.069 135.298 195.39 133.235C184.176 115.472 166.049 104.851 145.366 99.782C124.314 94.6229 100.616 95.2128 78.8459 99.8804C62.5347 103.378 47.3129 109.165 35.1038 116.535C34.6295 116.48 34.1967 116.386 33.8086 116.249C33.8436 116.127 33.9241 116.015 34.0421 115.943C46.4366 108.363 61.9717 102.416 78.6262 98.8455C100.538 94.1469 124.401 93.5554 145.614 98.7544C166.875 103.966 185.478 114.99 196.809 133.516C197.989 135.446 199.09 137.457 200.107 139.549Z" fill="#C7C8C8"/>
<path fill-rule="evenodd" clip-rule="evenodd" d="M200.737 140.479C200.447 140.044 200.153 139.613 199.855 139.182C197.226 133.129 193.812 127.651 189.86 122.757C182.194 113.264 172.506 105.955 162.614 100.869C144.811 91.7157 123.793 89.0153 102.969 90.8785C87.6129 92.2535 72.3659 96.11 58.5898 101.693C59.5711 100.994 60.5376 100.236 61.3854 99.4613C74.4023 94.5186 88.5925 91.1055 102.878 89.8273C123.887 87.9471 145.105 90.6784 163.098 99.9299C173.11 105.078 182.919 112.477 190.684 122.094C194.107 126.333 197.132 131.002 199.603 136.099C200.054 137.548 200.435 139.009 200.737 140.479Z" fill="#C7C8C8"/>
<path fill-rule="evenodd" clip-rule="evenodd" d="M183.219 187.471C189.409 186.184 207.324 180.511 208.93 152.309C208.978 151.47 216.726 181.638 250.81 183.637C250.81 183.637 247.667 152.792 212.857 145.041C209.617 144.319 205.593 127.236 203.798 126.055C190.073 117.026 206.949 136.122 201.523 145.773C200.299 147.953 183.669 149.755 183.219 187.471Z" fill="#28508B"/>
<path fill-rule="evenodd" clip-rule="evenodd" d="M108.397 89.3828C114.709 98.4407 127.987 107.036 141.351 108.981C151.489 110.457 149.534 107.688 143.931 102.89C134.572 94.8706 136.622 77.2267 135.831 76.6246C130.471 72.5517 117.682 75.0772 110.151 75.7118C97.5358 76.7776 101.622 79.6618 108.397 89.3828Z" fill="#28508B"/>
<path fill-rule="evenodd" clip-rule="evenodd" d="M68.9827 79.8191C68.9657 80.1112 68.7159 80.3333 68.423 80.3171C68.1325 80.3 67.9096 80.0494 67.9267 79.7581C68.0227 78.1171 68.5491 76.9577 69.2862 76.2328C69.7964 75.7299 70.4058 75.4362 71.0477 75.3362C71.6791 75.2369 72.3389 75.3272 72.9605 75.5908C73.9458 76.0074 74.8407 76.8625 75.3712 78.0829C75.4876 78.3498 75.3655 78.6614 75.0978 78.7785C74.8302 78.8957 74.5186 78.7728 74.403 78.506C73.9848 77.5451 73.2998 76.8804 72.5512 76.5623C72.1103 76.3751 71.6473 76.3109 71.2104 76.3792C70.7849 76.4467 70.3757 76.6452 70.0291 76.987C69.4652 77.5386 69.0617 78.4653 68.9827 79.8191Z" fill="white"/>
<path fill-rule="evenodd" clip-rule="evenodd" d="M33.11 115.085C32.8553 115.229 32.534 115.141 32.3891 114.887C32.2451 114.634 32.3346 114.311 32.5876 114.166C36.9144 111.713 41.2046 109.817 45.2149 108.047C55.6828 103.422 64.2199 99.6513 65.9773 89.1142C66.0262 88.8254 66.2987 88.6318 66.5859 88.679C66.8739 88.7278 67.0692 89.0003 67.0212 89.2884C65.1686 100.388 56.3963 104.264 45.6412 109.016C41.6472 110.78 37.3757 112.667 33.11 115.085Z" fill="#253758"/>
<path fill-rule="evenodd" clip-rule="evenodd" d="M183.888 176.487C184.648 174.113 185.412 172.088 186.223 170.271C188.227 165.77 190.488 162.565 193.578 158.571C199.718 150.633 205.931 144.458 205.949 144.438C206.148 144.226 206.482 144.215 206.694 144.413C206.829 144.539 206.883 144.72 206.853 144.888L206.856 144.889C205.13 154.666 202.466 162.819 198.506 170.611C195.582 176.366 192.075 181.537 188.022 186.061C187.28 186.344 186.573 186.582 185.916 186.781C190.469 181.998 194.368 176.421 197.561 170.135C201.228 162.918 203.818 155.214 205.552 146.25C203.397 148.625 198.908 153.406 194.413 159.218C191.37 163.151 189.144 166.303 187.186 170.702C185.87 173.658 184.668 177.185 183.414 181.895C183.53 179.988 183.688 178.185 183.888 176.487Z" fill="#466A9E"/>
<path fill-rule="evenodd" clip-rule="evenodd" d="M206.35 144.981C206.269 144.702 206.15 144.409 206.43 144.328C215.785 147.356 229.453 157.727 232.584 160.502C238.904 166.106 244.617 172.836 250.428 181.384C250.722 182.802 250.808 183.635 250.808 183.635C250.757 183.632 250.709 183.627 250.658 183.625C244.511 174.359 238.533 167.187 231.884 161.293C224.949 155.144 217.273 150.376 207.905 146.055C209.659 149.758 214.564 156.238 220.39 162.465C225.903 168.358 232.227 174.001 237.468 176.824C243.6 180.126 247.55 182.276 249.915 183.571C249.003 183.502 248.106 183.416 247.231 183.308C244.852 182.013 241.517 180.206 236.968 177.757C231.623 174.878 225.204 169.155 219.621 163.186C212.89 155.991 207.35 148.402 206.35 144.981Z" fill="#466A9E"/>
<path fill-rule="evenodd" clip-rule="evenodd" d="M205.337 129.805C199.876 108.831 191.374 89.3137 159.68 66.0225C159.272 64.9485 158.633 61.5997 159.714 61.8601C161.736 62.3458 165.033 65.3236 168.512 67.5488C185.829 78.6294 204.005 108.905 205.337 129.805Z" fill="#466A9E"/>
<path fill-rule="evenodd" clip-rule="evenodd" d="M127.535 37.8298C134.409 34.7292 151.542 29.933 161.92 35.3524C152.012 33.7805 140.268 35.7779 128.955 40.9085C125.872 42.4227 122.726 45.4574 121.429 43.7716C118.823 41.5643 126.256 38.4734 127.535 37.8298Z" fill="#466A9E"/>
<path fill-rule="evenodd" clip-rule="evenodd" d="M95.0941 101.163C96.8043 102.933 99.3517 104.442 102.125 105.681C107.879 108.249 114.552 109.628 116.915 109.784C112.943 108.27 106.585 105.235 102.426 100.173C102.853 100.127 103.276 100.083 103.7 100.039C109.873 107.065 120.415 109.859 120.795 109.959C121.036 110.015 121.212 110.236 121.201 110.492C121.189 110.784 120.944 111.011 120.652 111.001L117.063 110.85C114.816 110.757 107.738 109.343 101.696 106.644C98.5479 105.239 95.6653 103.477 93.8477 101.359C94.2642 101.292 94.6784 101.229 95.0941 101.163Z" fill="#466A9E"/>
<path fill-rule="evenodd" clip-rule="evenodd" d="M113.721 73.891C113.77 73.6029 114.043 73.4093 114.331 73.4589C114.619 73.5077 114.813 73.7811 114.764 74.0683C113.627 80.5845 115.478 86.2977 118.582 90.9776C123.098 97.785 130.246 102.407 134.77 104.147C142.478 107.111 145.399 107.404 145.408 107.404C145.698 107.435 145.908 107.697 145.875 107.988C145.844 108.278 145.583 108.487 145.292 108.456C145.282 108.456 142.239 108.15 134.393 105.132C129.724 103.336 122.351 98.571 117.7 91.5601C114.461 86.6784 112.532 80.709 113.721 73.891Z" fill="#466A9E"/>
<path fill-rule="evenodd" clip-rule="evenodd" d="M117.76 77.821C117.704 77.533 117.891 77.2555 118.178 77.1994C118.465 77.1433 118.743 77.3304 118.799 77.6176C119.991 83.6831 123.381 89.1196 127.776 93.7816C133.388 99.7307 140.638 104.415 147.076 107.528C147.338 107.654 147.448 107.971 147.322 108.235C147.195 108.497 146.879 108.607 146.617 108.481C140.082 105.319 132.718 100.561 127.007 94.5057C122.484 89.7111 118.994 84.1013 117.76 77.821Z" fill="#466A9E"/>
<path fill-rule="evenodd" clip-rule="evenodd" d="M75.2961 75.065C75.2033 74.8949 75.266 74.6793 75.4368 74.5866C75.6069 74.493 75.8216 74.5548 75.9152 74.7257C76.1634 75.1773 76.2293 75.5979 76.1674 75.9632C76.1129 76.2838 75.96 76.5563 75.7419 76.7654C75.5312 76.9688 75.2594 77.1112 74.9584 77.1771C74.5557 77.2666 74.0992 77.2194 73.6729 77.0038C73.4996 76.9151 73.4304 76.702 73.5191 76.5287C73.607 76.3554 73.8202 76.2854 73.9943 76.3741C74.2693 76.514 74.5573 76.5449 74.8071 76.4896C74.9804 76.4522 75.1358 76.3708 75.2537 76.2569C75.3652 76.1503 75.4433 76.0096 75.4718 75.8452C75.5076 75.6288 75.4604 75.3636 75.2961 75.065Z" fill="white"/>
<path fill-rule="evenodd" clip-rule="evenodd" d="M76.8327 76.8496C76.8701 76.6584 77.0548 76.5331 77.246 76.5697C77.4372 76.6055 77.5625 76.791 77.5267 76.9822C77.447 77.3923 77.2477 77.699 76.9784 77.9073C76.7074 78.1172 76.3706 78.2246 76.0175 78.2393C75.6831 78.2531 75.3308 78.1815 75.0151 78.035C74.5798 77.8333 74.2031 77.4891 74.0079 77.0262C73.933 76.8472 74.0168 76.6405 74.195 76.5648C74.3748 76.4892 74.5815 76.5738 74.6563 76.752C74.7775 77.0424 75.0233 77.2621 75.3105 77.3947C75.5277 77.4948 75.7661 77.5444 75.9906 77.5347C76.1989 77.5273 76.3942 77.4663 76.5447 77.35C76.6846 77.2418 76.7904 77.0758 76.8327 76.8496Z" fill="white"/>
<path fill-rule="evenodd" clip-rule="evenodd" d="M47.5288 77.3769C48.6915 74.2063 49.999 71.7305 51.8857 68.9284C55.6869 63.6326 59.8168 59.6663 65.6561 56.7047C66.1865 56.4427 66.6356 56.1238 67.1441 55.8334C67.3711 55.7064 68.6233 55.1011 68.7917 55.5356C68.7819 55.6177 67.8487 56.4224 67.7129 56.5615C67.258 57.0473 66.9009 57.4362 66.3614 57.8446C61.2902 61.7491 57.9943 65.2078 54.5169 70.6353C52.9182 73.2722 51.7759 75.6211 50.7231 78.5151C49.6865 81.6866 49.4571 86.8839 47.3669 86.3893C44.106 86.5723 47.0838 78.7909 47.5288 77.3769Z" fill="#466A9E"/>
<path d="M186.203 65.5996V50.4273L187.191 51.5077H182.571V49.5077H188.479V65.5996H186.203ZM191.746 65.5996V64.0364L198.297 57.7146C198.88 57.1629 199.309 56.6801 199.585 56.2663C199.876 55.8372 200.067 55.4464 200.159 55.0939C200.267 54.7261 200.32 54.3736 200.32 54.0364C200.32 53.2089 200.029 52.5575 199.447 52.0824C198.864 51.6073 198.014 51.3698 196.895 51.3698C196.037 51.3698 195.263 51.5154 194.573 51.8066C193.884 52.0824 193.286 52.5192 192.78 53.1169L191.217 51.7606C191.83 50.979 192.65 50.3813 193.677 49.9675C194.719 49.5384 195.861 49.3238 197.102 49.3238C198.221 49.3238 199.194 49.5077 200.022 49.8755C200.849 50.228 201.485 50.7414 201.93 51.4158C202.389 52.0901 202.619 52.887 202.619 53.8066C202.619 54.3276 202.55 54.841 202.412 55.3468C202.274 55.8525 202.014 56.3889 201.631 56.956C201.248 57.523 200.696 58.159 199.976 58.864L194.136 64.4962L193.585 63.5996H203.309V65.5996H191.746ZM211.751 65.7835C210.494 65.7835 209.368 65.4617 208.372 64.818C207.391 64.1743 206.609 63.2395 206.027 62.0134C205.46 60.7874 205.176 59.3008 205.176 57.5537C205.176 55.8065 205.46 54.32 206.027 53.0939C206.609 51.8679 207.391 50.933 208.372 50.2893C209.368 49.6457 210.494 49.3238 211.751 49.3238C212.993 49.3238 214.111 49.6457 215.107 50.2893C216.104 50.933 216.885 51.8679 217.452 53.0939C218.019 54.32 218.303 55.8065 218.303 57.5537C218.303 59.3008 218.019 60.7874 217.452 62.0134C216.885 63.2395 216.104 64.1743 215.107 64.818C214.111 65.4617 212.993 65.7835 211.751 65.7835ZM211.751 63.7375C212.594 63.7375 213.33 63.5077 213.958 63.0479C214.602 62.5881 215.1 61.8985 215.452 60.9789C215.82 60.0594 216.004 58.9176 216.004 57.5537C216.004 56.1897 215.82 55.0479 215.452 54.1284C215.1 53.2089 214.602 52.5192 213.958 52.0594C213.33 51.5997 212.594 51.3698 211.751 51.3698C210.908 51.3698 210.165 51.5997 209.521 52.0594C208.878 52.5192 208.372 53.2089 208.004 54.1284C207.652 55.0479 207.475 56.1897 207.475 57.5537C207.475 58.9176 207.652 60.0594 208.004 60.9789C208.372 61.8985 208.878 62.5881 209.521 63.0479C210.165 63.5077 210.908 63.7375 211.751 63.7375ZM227.084 65.7835C225.828 65.7835 224.701 65.4617 223.705 64.818C222.724 64.1743 221.943 63.2395 221.36 62.0134C220.793 60.7874 220.51 59.3008 220.51 57.5537C220.51 55.8065 220.793 54.32 221.36 53.0939C221.943 51.8679 222.724 50.933 223.705 50.2893C224.701 49.6457 225.828 49.3238 227.084 49.3238C228.326 49.3238 229.444 49.6457 230.441 50.2893C231.437 50.933 232.218 51.8679 232.785 53.0939C233.352 54.32 233.636 55.8065 233.636 57.5537C233.636 59.3008 233.352 60.7874 232.785 62.0134C232.218 63.2395 231.437 64.1743 230.441 64.818C229.444 65.4617 228.326 65.7835 227.084 65.7835ZM227.084 63.7375C227.927 63.7375 228.663 63.5077 229.291 63.0479C229.935 62.5881 230.433 61.8985 230.785 60.9789C231.153 60.0594 231.337 58.9176 231.337 57.5537C231.337 56.1897 231.153 55.0479 230.785 54.1284C230.433 53.2089 229.935 52.5192 229.291 52.0594C228.663 51.5997 227.927 51.3698 227.084 51.3698C226.241 51.3698 225.498 51.5997 224.854 52.0594C224.211 52.5192 223.705 53.2089 223.337 54.1284C222.985 55.0479 222.808 56.1897 222.808 57.5537C222.808 58.9176 222.985 60.0594 223.337 60.9789C223.705 61.8985 224.211 62.5881 224.854 63.0479C225.498 63.5077 226.241 63.7375 227.084 63.7375ZM242.417 65.7835C241.161 65.7835 240.034 65.4617 239.038 64.818C238.057 64.1743 237.276 63.2395 236.693 62.0134C236.126 60.7874 235.843 59.3008 235.843 57.5537C235.843 55.8065 236.126 54.32 236.693 53.0939C237.276 51.8679 238.057 50.933 239.038 50.2893C240.034 49.6457 241.161 49.3238 242.417 49.3238C243.659 49.3238 244.777 49.6457 245.774 50.2893C246.77 50.933 247.551 51.8679 248.118 53.0939C248.686 54.32 248.969 55.8065 248.969 57.5537C248.969 59.3008 248.686 60.7874 248.118 62.0134C247.551 63.2395 246.77 64.1743 245.774 64.818C244.777 65.4617 243.659 65.7835 242.417 65.7835ZM242.417 63.7375C243.26 63.7375 243.996 63.5077 244.624 63.0479C245.268 62.5881 245.766 61.8985 246.118 60.9789C246.486 60.0594 246.67 58.9176 246.67 57.5537C246.67 56.1897 246.486 55.0479 246.118 54.1284C245.766 53.2089 245.268 52.5192 244.624 52.0594C243.996 51.5997 243.26 51.3698 242.417 51.3698C241.574 51.3698 240.831 51.5997 240.187 52.0594C239.544 52.5192 239.038 53.2089 238.67 54.1284C238.318 55.0479 238.141 56.1897 238.141 57.5537C238.141 58.9176 238.318 60.0594 238.67 60.9789C239.038 61.8985 239.544 62.5881 240.187 63.0479C240.831 63.5077 241.574 63.7375 242.417 63.7375ZM255.954 62.5881V52.5192H257.885V62.5881H255.954ZM251.77 58.4732V56.6571H262.068V58.4732H251.77Z" fill="black"/>
<path d="M186.469 40.2324V32.1865H189.607C190.312 32.1865 190.913 32.2976 191.411 32.5198C191.909 32.742 192.292 33.0639 192.561 33.4853C192.829 33.9068 192.963 34.4087 192.963 34.9911C192.963 35.5734 192.829 36.0754 192.561 36.4968C192.292 36.9106 191.909 37.2286 191.411 37.4508C190.913 37.673 190.312 37.7842 189.607 37.7842H187.101L187.618 37.2554V40.2324H186.469ZM191.848 40.2324L189.802 37.3129H191.032L193.101 40.2324H191.848ZM187.618 37.3704L187.101 36.8071H189.572C190.308 36.8071 190.863 36.6501 191.239 36.3359C191.622 36.014 191.813 35.5658 191.813 34.9911C191.813 34.4164 191.622 33.9719 191.239 33.6577C190.863 33.3436 190.308 33.1865 189.572 33.1865H187.101L187.618 32.6118V37.3704ZM197.372 40.3014C196.72 40.3014 196.146 40.1673 195.647 39.8991C195.157 39.6309 194.774 39.2631 194.498 38.7956C194.23 38.3282 194.096 37.7918 194.096 37.1865C194.096 36.5811 194.226 36.0447 194.487 35.5773C194.755 35.1098 195.119 34.7459 195.578 34.4853C196.046 34.2171 196.571 34.083 197.153 34.083C197.743 34.083 198.264 34.2133 198.716 34.4738C199.169 34.7344 199.521 35.1022 199.774 35.5773C200.034 36.0447 200.165 36.5926 200.165 37.2209C200.165 37.2669 200.161 37.3206 200.153 37.3819C200.153 37.4432 200.149 37.5006 200.142 37.5543H194.958V36.7612H199.567L199.119 37.037C199.126 36.6462 199.046 36.2976 198.877 35.9911C198.709 35.6845 198.475 35.447 198.176 35.2784C197.885 35.1022 197.544 35.0141 197.153 35.0141C196.77 35.0141 196.429 35.1022 196.13 35.2784C195.831 35.447 195.598 35.6884 195.429 36.0026C195.26 36.3091 195.176 36.6616 195.176 37.06V37.2439C195.176 37.6501 195.268 38.014 195.452 38.3359C195.644 38.6501 195.908 38.8953 196.245 39.0715C196.582 39.2478 196.969 39.3359 197.406 39.3359C197.766 39.3359 198.092 39.2746 198.383 39.152C198.682 39.0294 198.942 38.8455 199.165 38.6002L199.774 39.3129C199.498 39.6347 199.153 39.8799 198.739 40.0485C198.333 40.2171 197.877 40.3014 197.372 40.3014ZM204.364 42.5313C203.804 42.5313 203.26 42.4508 202.731 42.2899C202.21 42.1366 201.785 41.9144 201.456 41.6232L201.984 40.7726C202.268 41.0179 202.616 41.2094 203.03 41.3474C203.444 41.493 203.877 41.5657 204.329 41.5657C205.049 41.5657 205.578 41.3972 205.915 41.06C206.252 40.7228 206.421 40.2094 206.421 39.5198V38.2324L206.536 37.0255L206.478 35.8072V34.1405H207.524V39.4048C207.524 40.4776 207.256 41.2669 206.72 41.7726C206.183 42.2784 205.398 42.5313 204.364 42.5313ZM204.226 39.9795C203.636 39.9795 203.107 39.8569 202.639 39.6117C202.18 39.3589 201.812 39.0102 201.536 38.5658C201.268 38.1213 201.134 37.6079 201.134 37.0255C201.134 36.4355 201.268 35.9221 201.536 35.4853C201.812 35.0409 202.18 34.696 202.639 34.4508C203.107 34.2056 203.636 34.083 204.226 34.083C204.747 34.083 205.222 34.1903 205.651 34.4049C206.08 34.6118 206.421 34.9336 206.674 35.3704C206.934 35.8072 207.065 36.3589 207.065 37.0255C207.065 37.6845 206.934 38.2324 206.674 38.6692C206.421 39.106 206.08 39.4355 205.651 39.6577C205.222 39.8723 204.747 39.9795 204.226 39.9795ZM204.352 39.014C204.758 39.014 205.118 38.9297 205.433 38.7612C205.747 38.5926 205.992 38.3589 206.168 38.06C206.352 37.7612 206.444 37.4163 206.444 37.0255C206.444 36.6347 206.352 36.2899 206.168 35.9911C205.992 35.6922 205.747 35.4623 205.433 35.3014C205.118 35.1328 204.758 35.0485 204.352 35.0485C203.946 35.0485 203.582 35.1328 203.26 35.3014C202.946 35.4623 202.697 35.6922 202.513 35.9911C202.337 36.2899 202.249 36.6347 202.249 37.0255C202.249 37.4163 202.337 37.7612 202.513 38.06C202.697 38.3589 202.946 38.5926 203.26 38.7612C203.582 38.9297 203.946 39.014 204.352 39.014ZM209.633 40.2324V34.1405H210.736V40.2324H209.633ZM210.185 32.9681C209.97 32.9681 209.79 32.8991 209.644 32.7612C209.506 32.6233 209.437 32.4547 209.437 32.2554C209.437 32.0486 209.506 31.8761 209.644 31.7382C209.79 31.6003 209.97 31.5313 210.185 31.5313C210.399 31.5313 210.575 31.6003 210.713 31.7382C210.859 31.8685 210.932 32.0332 210.932 32.2325C210.932 32.4394 210.863 32.6156 210.725 32.7612C210.587 32.8991 210.407 32.9681 210.185 32.9681ZM214.59 40.3014C214.085 40.3014 213.602 40.2324 213.142 40.0945C212.69 39.9566 212.334 39.788 212.073 39.5887L212.533 38.7152C212.793 38.8914 213.115 39.0409 213.498 39.1635C213.881 39.2861 214.272 39.3474 214.671 39.3474C215.184 39.3474 215.552 39.2746 215.774 39.129C216.004 38.9834 216.119 38.7803 216.119 38.5198C216.119 38.3282 216.05 38.1788 215.912 38.0715C215.774 37.9642 215.59 37.8838 215.36 37.8301C215.138 37.7765 214.889 37.7305 214.613 37.6922C214.337 37.6462 214.062 37.5926 213.786 37.5313C213.51 37.4623 213.257 37.3704 213.027 37.2554C212.797 37.1328 212.613 36.9681 212.475 36.7612C212.337 36.5466 212.268 36.2631 212.268 35.9106C212.268 35.5428 212.372 35.2209 212.579 34.9451C212.786 34.6692 213.077 34.4585 213.452 34.3129C213.835 34.1597 214.288 34.083 214.809 34.083C215.207 34.083 215.609 34.1328 216.016 34.2324C216.429 34.3244 216.766 34.4585 217.027 34.6347L216.556 35.5083C216.28 35.3244 215.993 35.198 215.694 35.129C215.395 35.06 215.096 35.0255 214.797 35.0255C214.314 35.0255 213.954 35.106 213.717 35.2669C213.479 35.4202 213.36 35.6194 213.36 35.8646C213.36 36.0715 213.429 36.2324 213.567 36.3474C213.713 36.4547 213.897 36.539 214.119 36.6003C214.349 36.6616 214.602 36.7152 214.878 36.7612C215.153 36.7995 215.429 36.8531 215.705 36.9221C215.981 36.9834 216.23 37.0715 216.452 37.1865C216.682 37.3014 216.866 37.4623 217.004 37.6692C217.15 37.8761 217.222 38.152 217.222 38.4968C217.222 38.8646 217.115 39.1826 216.901 39.4508C216.686 39.719 216.383 39.9297 215.993 40.083C215.602 40.2286 215.134 40.3014 214.59 40.3014ZM220.693 40.3014C220.08 40.3014 219.605 40.1366 219.268 39.8071C218.931 39.4776 218.762 39.0064 218.762 38.3933V32.8072H219.866V38.3474C219.866 38.6769 219.946 38.9297 220.107 39.106C220.276 39.2822 220.513 39.3704 220.82 39.3704C221.165 39.3704 221.452 39.2746 221.682 39.083L222.027 39.8761C221.858 40.0217 221.655 40.129 221.418 40.1979C221.188 40.2669 220.946 40.3014 220.693 40.3014ZM217.728 35.0485V34.1405H221.613V35.0485H217.728ZM223.361 40.2324V34.1405H224.418V35.7957L224.315 35.3819C224.483 34.9604 224.767 34.6386 225.165 34.4164C225.564 34.1941 226.054 34.083 226.637 34.083V35.152C226.591 35.1443 226.545 35.1405 226.499 35.1405C226.46 35.1405 226.422 35.1405 226.384 35.1405C225.794 35.1405 225.326 35.3167 224.981 35.6692C224.637 36.0217 224.464 36.5313 224.464 37.198V40.2324H223.361ZM231.329 40.2324V38.9451L231.272 38.7037V36.5083C231.272 36.0409 231.134 35.6807 230.858 35.4278C230.59 35.1673 230.184 35.037 229.64 35.037C229.279 35.037 228.927 35.0983 228.582 35.2209C228.237 35.3359 227.946 35.493 227.709 35.6922L227.249 34.8646C227.563 34.6118 227.938 34.4202 228.375 34.2899C228.82 34.152 229.283 34.083 229.766 34.083C230.601 34.083 231.245 34.2861 231.697 34.6922C232.149 35.0983 232.375 35.719 232.375 36.5543V40.2324H231.329ZM229.329 40.3014C228.877 40.3014 228.479 40.2248 228.134 40.0715C227.797 39.9182 227.536 39.7075 227.352 39.4393C227.168 39.1635 227.076 38.8531 227.076 38.5083C227.076 38.1788 227.153 37.8799 227.306 37.6117C227.467 37.3435 227.724 37.129 228.076 36.9681C228.437 36.8071 228.919 36.7267 229.525 36.7267H231.456V37.5198H229.571C229.019 37.5198 228.647 37.6117 228.456 37.7957C228.264 37.9796 228.168 38.2018 228.168 38.4623C228.168 38.7612 228.287 39.0025 228.525 39.1864C228.762 39.3627 229.092 39.4508 229.513 39.4508C229.927 39.4508 230.287 39.3589 230.594 39.175C230.908 38.991 231.134 38.7229 231.272 38.3704L231.49 39.129C231.345 39.4891 231.088 39.7765 230.72 39.991C230.352 40.1979 229.889 40.3014 229.329 40.3014ZM236.509 40.3014C235.896 40.3014 235.421 40.1366 235.084 39.8071C234.747 39.4776 234.578 39.0064 234.578 38.3933V32.8072H235.682V38.3474C235.682 38.6769 235.762 38.9297 235.923 39.106C236.092 39.2822 236.329 39.3704 236.636 39.3704C236.98 39.3704 237.268 39.2746 237.498 39.083L237.842 39.8761C237.674 40.0217 237.471 40.129 237.233 40.1979C237.003 40.2669 236.762 40.3014 236.509 40.3014ZM233.544 35.0485V34.1405H237.429V35.0485H233.544ZM239.177 40.2324V34.1405H240.28V40.2324H239.177ZM239.728 32.9681C239.514 32.9681 239.334 32.8991 239.188 32.7612C239.05 32.6233 238.981 32.4547 238.981 32.2554C238.981 32.0486 239.05 31.8761 239.188 31.7382C239.334 31.6003 239.514 31.5313 239.728 31.5313C239.943 31.5313 240.119 31.6003 240.257 31.7382C240.403 31.8685 240.475 32.0332 240.475 32.2325C240.475 32.4394 240.406 32.6156 240.268 32.7612C240.131 32.8991 239.95 32.9681 239.728 32.9681ZM244.996 40.3014C244.383 40.3014 243.839 40.1673 243.364 39.8991C242.889 39.6309 242.513 39.2631 242.237 38.7956C241.962 38.3206 241.824 37.7842 241.824 37.1865C241.824 36.5811 241.962 36.0447 242.237 35.5773C242.513 35.1098 242.889 34.7459 243.364 34.4853C243.839 34.2171 244.383 34.083 244.996 34.083C245.601 34.083 246.142 34.2171 246.617 34.4853C247.099 34.7459 247.475 35.1098 247.743 35.5773C248.019 36.037 248.157 36.5734 248.157 37.1865C248.157 37.7918 248.019 38.3282 247.743 38.7956C247.475 39.2631 247.099 39.6309 246.617 39.8991C246.142 40.1673 245.601 40.3014 244.996 40.3014ZM244.996 39.3359C245.387 39.3359 245.735 39.2478 246.042 39.0715C246.356 38.8953 246.601 38.6462 246.778 38.3244C246.954 37.9949 247.042 37.6156 247.042 37.1865C247.042 36.7497 246.954 36.3742 246.778 36.06C246.601 35.7382 246.356 35.4891 246.042 35.3129C245.735 35.1367 245.387 35.0485 244.996 35.0485C244.605 35.0485 244.257 35.1367 243.95 35.3129C243.644 35.4891 243.398 35.7382 243.214 36.06C243.03 36.3742 242.939 36.7497 242.939 37.1865C242.939 37.6156 243.03 37.9949 243.214 38.3244C243.398 38.6462 243.644 38.8953 243.95 39.0715C244.257 39.2478 244.605 39.3359 244.996 39.3359ZM252.936 34.083C253.434 34.083 253.871 34.1788 254.246 34.3704C254.629 34.5619 254.928 34.8531 255.143 35.2439C255.357 35.6347 255.465 36.129 255.465 36.7267V40.2324H254.361V36.8531C254.361 36.2631 254.215 35.8186 253.924 35.5198C253.641 35.2209 253.238 35.0715 252.717 35.0715C252.327 35.0715 251.986 35.1482 251.694 35.3014C251.403 35.4547 251.177 35.6807 251.016 35.9796C250.863 36.2784 250.786 36.6501 250.786 37.0945V40.2324H249.683V34.1405H250.74V35.7842L250.568 35.3474C250.767 34.9489 251.074 34.6386 251.488 34.4164C251.901 34.1941 252.384 34.083 252.936 34.083ZM259.254 40.3014C258.748 40.3014 258.265 40.2324 257.805 40.0945C257.353 39.9566 256.997 39.788 256.737 39.5887L257.196 38.7152C257.457 38.8914 257.779 39.0409 258.162 39.1635C258.545 39.2861 258.936 39.3474 259.334 39.3474C259.848 39.3474 260.215 39.2746 260.438 39.129C260.668 38.9834 260.782 38.7803 260.782 38.5198C260.782 38.3282 260.714 38.1788 260.576 38.0715C260.438 37.9642 260.254 37.8838 260.024 37.8301C259.802 37.7765 259.553 37.7305 259.277 37.6922C259.001 37.6462 258.725 37.5926 258.449 37.5313C258.173 37.4623 257.92 37.3704 257.691 37.2554C257.461 37.1328 257.277 36.9681 257.139 36.7612C257.001 36.5466 256.932 36.2631 256.932 35.9106C256.932 35.5428 257.035 35.2209 257.242 34.9451C257.449 34.6692 257.74 34.4585 258.116 34.3129C258.499 34.1597 258.951 34.083 259.472 34.083C259.871 34.083 260.273 34.1328 260.679 34.2324C261.093 34.3244 261.43 34.4585 261.691 34.6347L261.219 35.5083C260.943 35.3244 260.656 35.198 260.357 35.129C260.058 35.06 259.759 35.0255 259.461 35.0255C258.978 35.0255 258.618 35.106 258.38 35.2669C258.143 35.4202 258.024 35.6194 258.024 35.8646C258.024 36.0715 258.093 36.2324 258.231 36.3474C258.376 36.4547 258.56 36.539 258.782 36.6003C259.012 36.6616 259.265 36.7152 259.541 36.7612C259.817 36.7995 260.093 36.8531 260.369 36.9221C260.645 36.9834 260.894 37.0715 261.116 37.1865C261.346 37.3014 261.53 37.4623 261.668 37.6692C261.813 37.8761 261.886 38.152 261.886 38.4968C261.886 38.8646 261.779 39.1826 261.564 39.4508C261.35 39.719 261.047 39.9297 260.656 40.083C260.265 40.2286 259.798 40.3014 259.254 40.3014Z" fill="#003874"/>
<path d="M12.7145 36.3672V21.1948L13.703 22.2753H9.08234V20.2753H14.9904V36.3672H12.7145ZM18.2574 36.3672V34.804L24.8091 28.4822C25.3915 27.9304 25.8206 27.4477 26.0965 27.0339C26.3876 26.6048 26.5792 26.214 26.6712 25.8615C26.7784 25.4937 26.8321 25.1412 26.8321 24.804C26.8321 23.9764 26.5409 23.3251 25.9585 22.85C25.3762 22.3749 24.5256 22.1374 23.4068 22.1374C22.5486 22.1374 21.7746 22.283 21.085 22.5741C20.3953 22.85 19.7976 23.2868 19.2919 23.8845L17.7287 22.5282C18.3417 21.7466 19.1616 21.1489 20.1884 20.7351C21.2306 20.306 22.3723 20.0914 23.6137 20.0914C24.7325 20.0914 25.7057 20.2753 26.5332 20.6431C27.3608 20.9956 27.9968 21.509 28.4413 22.1833C28.901 22.8577 29.1309 23.6546 29.1309 24.5741C29.1309 25.0952 29.062 25.6086 28.924 26.1144C28.7861 26.6201 28.5256 27.1565 28.1424 27.7235C27.7593 28.2906 27.2076 28.9266 26.4873 29.6316L20.6482 35.2637L20.0965 34.3672H29.8206V36.3672H18.2574ZM38.2629 36.5511C37.0062 36.5511 35.8798 36.2293 34.8836 35.5856C33.9028 34.9419 33.1211 34.007 32.5388 32.781C31.9717 31.5549 31.6882 30.0684 31.6882 28.3212C31.6882 26.5741 31.9717 25.0875 32.5388 23.8615C33.1211 22.6354 33.9028 21.7006 34.8836 21.0569C35.8798 20.4132 37.0062 20.0914 38.2629 20.0914C39.5043 20.0914 40.623 20.4132 41.6192 21.0569C42.6154 21.7006 43.397 22.6354 43.964 23.8615C44.5311 25.0875 44.8146 26.5741 44.8146 28.3212C44.8146 30.0684 44.5311 31.5549 43.964 32.781C43.397 34.007 42.6154 34.9419 41.6192 35.5856C40.623 36.2293 39.5043 36.5511 38.2629 36.5511ZM38.2629 34.5051C39.1058 34.5051 39.8414 34.2752 40.4698 33.8155C41.1135 33.3557 41.6115 32.6661 41.964 31.7465C42.3318 30.827 42.5157 29.6852 42.5157 28.3212C42.5157 26.9573 42.3318 25.8155 41.964 24.896C41.6115 23.9764 41.1135 23.2868 40.4698 22.827C39.8414 22.3672 39.1058 22.1374 38.2629 22.1374C37.42 22.1374 36.6767 22.3672 36.033 22.827C35.3893 23.2868 34.8836 23.9764 34.5158 24.896C34.1633 25.8155 33.987 26.9573 33.987 28.3212C33.987 29.6852 34.1633 30.827 34.5158 31.7465C34.8836 32.6661 35.3893 33.3557 36.033 33.8155C36.6767 34.2752 37.42 34.5051 38.2629 34.5051ZM53.596 36.5511C52.3393 36.5511 51.2128 36.2293 50.2167 35.5856C49.2358 34.9419 48.4542 34.007 47.8719 32.781C47.3048 31.5549 47.0213 30.0684 47.0213 28.3212C47.0213 26.5741 47.3048 25.0875 47.8719 23.8615C48.4542 22.6354 49.2358 21.7006 50.2167 21.0569C51.2128 20.4132 52.3393 20.0914 53.596 20.0914C54.8373 20.0914 55.9561 20.4132 56.9523 21.0569C57.9484 21.7006 58.7301 22.6354 59.2971 23.8615C59.8641 25.0875 60.1477 26.5741 60.1477 28.3212C60.1477 30.0684 59.8641 31.5549 59.2971 32.781C58.7301 34.007 57.9484 34.9419 56.9523 35.5856C55.9561 36.2293 54.8373 36.5511 53.596 36.5511ZM53.596 34.5051C54.4389 34.5051 55.1745 34.2752 55.8029 33.8155C56.4465 33.3557 56.9446 32.6661 57.2971 31.7465C57.6649 30.827 57.8488 29.6852 57.8488 28.3212C57.8488 26.9573 57.6649 25.8155 57.2971 24.896C56.9446 23.9764 56.4465 23.2868 55.8029 22.827C55.1745 22.3672 54.4389 22.1374 53.596 22.1374C52.7531 22.1374 52.0098 22.3672 51.3661 22.827C50.7224 23.2868 50.2167 23.9764 49.8489 24.896C49.4964 25.8155 49.3201 26.9573 49.3201 28.3212C49.3201 29.6852 49.4964 30.827 49.8489 31.7465C50.2167 32.6661 50.7224 33.3557 51.3661 33.8155C52.0098 34.2752 52.7531 34.5051 53.596 34.5051ZM68.9291 36.5511C67.6724 36.5511 66.5459 36.2293 65.5498 35.5856C64.5689 34.9419 63.7873 34.007 63.2049 32.781C62.6379 31.5549 62.3544 30.0684 62.3544 28.3212C62.3544 26.5741 62.6379 25.0875 63.2049 23.8615C63.7873 22.6354 64.5689 21.7006 65.5498 21.0569C66.5459 20.4132 67.6724 20.0914 68.9291 20.0914C70.1704 20.0914 71.2892 20.4132 72.2854 21.0569C73.2815 21.7006 74.0631 22.6354 74.6302 23.8615C75.1972 25.0875 75.4808 26.5741 75.4808 28.3212C75.4808 30.0684 75.1972 31.5549 74.6302 32.781C74.0631 34.007 73.2815 34.9419 72.2854 35.5856C71.2892 36.2293 70.1704 36.5511 68.9291 36.5511ZM68.9291 34.5051C69.772 34.5051 70.5076 34.2752 71.1359 33.8155C71.7796 33.3557 72.2777 32.6661 72.6302 31.7465C72.998 30.827 73.1819 29.6852 73.1819 28.3212C73.1819 26.9573 72.998 25.8155 72.6302 24.896C72.2777 23.9764 71.7796 23.2868 71.1359 22.827C70.5076 22.3672 69.772 22.1374 68.9291 22.1374C68.0861 22.1374 67.3429 22.3672 66.6992 22.827C66.0555 23.2868 65.5498 23.9764 65.1819 24.896C64.8295 25.8155 64.6532 26.9573 64.6532 28.3212C64.6532 29.6852 64.8295 30.827 65.1819 31.7465C65.5498 32.6661 66.0555 33.3557 66.6992 33.8155C67.3429 34.2752 68.0861 34.5051 68.9291 34.5051ZM82.4653 33.3557V23.2868H84.3963V33.3557H82.4653ZM78.2814 29.2408V27.4247H88.5802V29.2408H78.2814Z" fill="black"/>
<path d="M12.9803 11V2.95406H16.1182C16.8232 2.95406 17.4248 3.06517 17.9228 3.28739C18.4209 3.50961 18.8041 3.83145 19.0723 4.2529C19.3405 4.67436 19.4746 5.17627 19.4746 5.75864C19.4746 6.34102 19.3405 6.84293 19.0723 7.26438C18.8041 7.67818 18.4209 7.99618 17.9228 8.2184C17.4248 8.44062 16.8232 8.55173 16.1182 8.55173H13.6125L14.1297 8.023V11H12.9803ZM18.3596 11L16.3136 8.08047H17.5435L19.6125 11H18.3596ZM14.1297 8.13794L13.6125 7.57473H16.0838C16.8194 7.57473 17.3749 7.41764 17.7504 7.10347C18.1336 6.78163 18.3251 6.33335 18.3251 5.75864C18.3251 5.18393 18.1336 4.73949 17.7504 4.42532C17.3749 4.11114 16.8194 3.95405 16.0838 3.95405H13.6125L14.1297 3.37934V8.13794ZM23.8833 11.069C23.232 11.069 22.6572 10.9349 22.1592 10.6667C21.6687 10.3985 21.2856 10.0307 21.0097 9.56322C20.7415 9.09579 20.6074 8.5594 20.6074 7.95404C20.6074 7.34868 20.7377 6.81228 20.9983 6.34485C21.2665 5.87742 21.6304 5.51343 22.0902 5.2529C22.5576 4.9847 23.0825 4.8506 23.6649 4.8506C24.2549 4.8506 24.776 4.98087 25.2281 5.2414C25.6802 5.50194 26.0327 5.86975 26.2856 6.34485C26.5461 6.81228 26.6764 7.36017 26.6764 7.98852C26.6764 8.0345 26.6726 8.08814 26.6649 8.14944C26.6649 8.21074 26.6611 8.26821 26.6534 8.32185H21.4695V7.52875H26.0787L25.6304 7.80461C25.6381 7.41381 25.5576 7.06515 25.389 6.75864C25.2205 6.45213 24.9867 6.21458 24.6879 6.046C24.3967 5.86975 24.0557 5.78163 23.6649 5.78163C23.2818 5.78163 22.9408 5.86975 22.6419 6.046C22.3431 6.21458 22.1094 6.45596 21.9408 6.77013C21.7722 7.07665 21.6879 7.42913 21.6879 7.8276V8.01151C21.6879 8.41764 21.7799 8.78162 21.9638 9.10346C22.1553 9.41763 22.4197 9.66284 22.7569 9.83909C23.094 10.0153 23.481 10.1035 23.9178 10.1035C24.2779 10.1035 24.6036 10.0421 24.8948 9.91954C25.1936 9.79694 25.4542 9.61303 25.6764 9.36782L26.2856 10.0805C26.0097 10.4023 25.6649 10.6475 25.2511 10.8161C24.845 10.9847 24.389 11.069 23.8833 11.069ZM30.8753 13.2988C30.3159 13.2988 29.7718 13.2184 29.2431 13.0575C28.722 12.9042 28.2967 12.682 27.9672 12.3908L28.496 11.5402C28.7795 11.7854 29.1282 11.977 29.5419 12.1149C29.9557 12.2605 30.3887 12.3333 30.8408 12.3333C31.5611 12.3333 32.0898 12.1647 32.427 11.8276C32.7642 11.4904 32.9327 10.977 32.9327 10.2874V9.00001L33.0477 7.79312L32.9902 6.57473V4.90807H34.0362V10.1724C34.0362 11.2452 33.768 12.0345 33.2316 12.5402C32.6952 13.046 31.9098 13.2988 30.8753 13.2988ZM30.7373 10.7471C30.1473 10.7471 29.6186 10.6245 29.1511 10.3793C28.6914 10.1264 28.3236 9.77778 28.0477 9.33334C27.7795 8.8889 27.6454 8.37549 27.6454 7.79312C27.6454 7.20308 27.7795 6.68967 28.0477 6.25289C28.3236 5.80845 28.6914 5.46363 29.1511 5.21842C29.6186 4.97321 30.1473 4.8506 30.7373 4.8506C31.2584 4.8506 31.7335 4.95788 32.1626 5.17244C32.5917 5.37934 32.9327 5.70117 33.1856 6.13795C33.4461 6.57473 33.5764 7.12645 33.5764 7.79312C33.5764 8.45212 33.4461 9.00001 33.1856 9.43679C32.9327 9.87357 32.5917 10.2031 32.1626 10.4253C31.7335 10.6398 31.2584 10.7471 30.7373 10.7471ZM30.8638 9.78161C31.2699 9.78161 31.6301 9.69732 31.9442 9.52874C32.2584 9.36016 32.5036 9.12645 32.6799 8.8276C32.8638 8.52875 32.9557 8.18392 32.9557 7.79312C32.9557 7.40231 32.8638 7.05749 32.6799 6.75864C32.5036 6.45979 32.2584 6.22991 31.9442 6.06899C31.6301 5.90041 31.2699 5.81611 30.8638 5.81611C30.4577 5.81611 30.0937 5.90041 29.7718 6.06899C29.4577 6.22991 29.2086 6.45979 29.0247 6.75864C28.8485 7.05749 28.7603 7.40231 28.7603 7.79312C28.7603 8.18392 28.8485 8.52875 29.0247 8.8276C29.2086 9.12645 29.4577 9.36016 29.7718 9.52874C30.0937 9.69732 30.4577 9.78161 30.8638 9.78161ZM36.1446 11V4.90807H37.248V11H36.1446ZM36.6963 3.73566C36.4817 3.73566 36.3016 3.6667 36.156 3.52877C36.0181 3.39084 35.9492 3.22226 35.9492 3.02302C35.9492 2.81613 36.0181 2.64372 36.156 2.50578C36.3016 2.36785 36.4817 2.29889 36.6963 2.29889C36.9108 2.29889 37.0871 2.36785 37.225 2.50578C37.3706 2.63605 37.4434 2.8008 37.4434 3.00004C37.4434 3.20693 37.3744 3.38318 37.2365 3.52877C37.0986 3.6667 36.9185 3.73566 36.6963 3.73566ZM41.102 11.069C40.5962 11.069 40.1135 11 39.6537 10.8621C39.2016 10.7241 38.8453 10.5556 38.5847 10.3563L39.0445 9.48277C39.305 9.65901 39.6269 9.80843 40.01 9.93104C40.3932 10.0536 40.784 10.1149 41.1824 10.1149C41.6958 10.1149 42.0637 10.0421 42.2859 9.89656C42.5158 9.75096 42.6307 9.5479 42.6307 9.28736C42.6307 9.09579 42.5617 8.94637 42.4238 8.83909C42.2859 8.73181 42.102 8.65135 41.8721 8.59771C41.6499 8.54407 41.4008 8.4981 41.125 8.45978C40.8491 8.4138 40.5732 8.36016 40.2974 8.29886C40.0215 8.2299 39.7686 8.13794 39.5388 8.023C39.3089 7.9004 39.125 7.73565 38.987 7.52875C38.8491 7.31419 38.7801 7.03067 38.7801 6.67818C38.7801 6.31037 38.8836 5.98853 39.0905 5.71267C39.2974 5.43681 39.5886 5.22608 39.964 5.08049C40.3472 4.92723 40.7993 4.8506 41.3204 4.8506C41.7188 4.8506 42.1211 4.90041 42.5273 5.00003C42.941 5.09198 43.2782 5.22608 43.5387 5.40232L43.0675 6.27588C42.7916 6.09198 42.5043 5.96554 42.2054 5.89657C41.9066 5.82761 41.6077 5.79313 41.3089 5.79313C40.8261 5.79313 40.466 5.87359 40.2284 6.0345C39.9909 6.18776 39.8721 6.38699 39.8721 6.6322C39.8721 6.8391 39.9411 7.00002 40.079 7.11496C40.2246 7.22224 40.4085 7.30653 40.6307 7.36783C40.8606 7.42913 41.1135 7.48277 41.3893 7.52875C41.6652 7.56706 41.941 7.6207 42.2169 7.68967C42.4928 7.75097 42.7418 7.83909 42.964 7.95404C43.1939 8.06898 43.3778 8.2299 43.5158 8.43679C43.6613 8.64369 43.7341 8.91955 43.7341 9.26438C43.7341 9.63219 43.6269 9.9502 43.4123 10.2184C43.1977 10.4866 42.8951 10.6973 42.5043 10.8506C42.1135 10.9962 41.646 11.069 41.102 11.069ZM47.2051 11.069C46.5921 11.069 46.117 10.9042 45.7798 10.5747C45.4427 10.2452 45.2741 9.77395 45.2741 9.16093V3.57475H46.3775V9.11495C46.3775 9.44445 46.458 9.69732 46.6189 9.87357C46.7875 10.0498 47.025 10.1379 47.3316 10.1379C47.6764 10.1379 47.9637 10.0421 48.1936 9.85058L48.5384 10.6437C48.3699 10.7893 48.1668 10.8966 47.9293 10.9655C47.6994 11.0345 47.458 11.069 47.2051 11.069ZM44.2396 5.81611V4.90807H48.1247V5.81611H44.2396ZM49.8725 11V4.90807H50.93V6.56324L50.8265 6.14945C50.9951 5.72799 51.2786 5.40615 51.6771 5.18393C52.0756 4.96171 52.566 4.8506 53.1483 4.8506V5.91956C53.1024 5.9119 53.0564 5.90807 53.0104 5.90807C52.9721 5.90807 52.9338 5.90807 52.8955 5.90807C52.3054 5.90807 51.838 6.08431 51.4932 6.4368C51.1484 6.78929 50.9759 7.29887 50.9759 7.96553V11H49.8725ZM57.8409 11V9.71265L57.7835 9.47127V7.27588C57.7835 6.80845 57.6455 6.4483 57.3697 6.19542C57.1015 5.93489 56.6954 5.80462 56.1513 5.80462C55.7911 5.80462 55.4387 5.86592 55.0938 5.98853C54.749 6.10347 54.4578 6.26056 54.2203 6.45979L53.7605 5.63221C54.0747 5.37934 54.4501 5.18777 54.8869 5.0575C55.3314 4.91957 55.795 4.8506 56.2777 4.8506C57.113 4.8506 57.7566 5.05367 58.2088 5.45979C58.6609 5.86592 58.8869 6.48661 58.8869 7.32186V11H57.8409ZM55.8409 11.069C55.3888 11.069 54.9904 10.9923 54.6456 10.8391C54.3084 10.6858 54.0479 10.4751 53.8639 10.2069C53.68 9.93104 53.5881 9.6207 53.5881 9.27587C53.5881 8.94637 53.6647 8.64752 53.818 8.37932C53.9789 8.11112 54.2356 7.89657 54.5881 7.73565C54.9482 7.57473 55.431 7.49427 56.0363 7.49427H57.9674V8.28737H56.0823C55.5306 8.28737 55.159 8.37932 54.9674 8.56323C54.7758 8.74714 54.68 8.96936 54.68 9.22989C54.68 9.52874 54.7988 9.77012 55.0364 9.95403C55.2739 10.1303 55.6034 10.2184 56.0249 10.2184C56.4386 10.2184 56.7988 10.1264 57.1053 9.94253C57.4195 9.75863 57.6455 9.49043 57.7835 9.13794L58.0019 9.89656C57.8563 10.2567 57.5996 10.5441 57.2317 10.7586C56.8639 10.9655 56.4003 11.069 55.8409 11.069ZM63.0209 11.069C62.4079 11.069 61.9328 10.9042 61.5956 10.5747C61.2584 10.2452 61.0898 9.77395 61.0898 9.16093V3.57475H62.1933V9.11495C62.1933 9.44445 62.2738 9.69732 62.4347 9.87357C62.6033 10.0498 62.8408 10.1379 63.1473 10.1379C63.4921 10.1379 63.7795 10.0421 64.0094 9.85058L64.3542 10.6437C64.1856 10.7893 63.9826 10.8966 63.745 10.9655C63.5151 11.0345 63.2737 11.069 63.0209 11.069ZM60.0554 5.81611V4.90807H63.9404V5.81611H60.0554ZM65.6882 11V4.90807H66.7917V11H65.6882ZM66.24 3.73566C66.0254 3.73566 65.8453 3.6667 65.6997 3.52877C65.5618 3.39084 65.4928 3.22226 65.4928 3.02302C65.4928 2.81613 65.5618 2.64372 65.6997 2.50578C65.8453 2.36785 66.0254 2.29889 66.24 2.29889C66.4545 2.29889 66.6308 2.36785 66.7687 2.50578C66.9143 2.63605 66.9871 2.8008 66.9871 3.00004C66.9871 3.20693 66.9181 3.38318 66.7802 3.52877C66.6423 3.6667 66.4622 3.73566 66.24 3.73566ZM71.5077 11.069C70.8947 11.069 70.3506 10.9349 69.8755 10.6667C69.4005 10.3985 69.025 10.0307 68.7491 9.56322C68.4733 9.08813 68.3353 8.55173 68.3353 7.95404C68.3353 7.34868 68.4733 6.81228 68.7491 6.34485C69.025 5.87742 69.4005 5.51343 69.8755 5.2529C70.3506 4.9847 70.8947 4.8506 71.5077 4.8506C72.1131 4.8506 72.6533 4.9847 73.1284 5.2529C73.6112 5.51343 73.9866 5.87742 74.2548 6.34485C74.5307 6.80462 74.6686 7.34101 74.6686 7.95404C74.6686 8.5594 74.5307 9.09579 74.2548 9.56322C73.9866 10.0307 73.6112 10.3985 73.1284 10.6667C72.6533 10.9349 72.1131 11.069 71.5077 11.069ZM71.5077 10.1035C71.8985 10.1035 72.2472 10.0153 72.5537 9.83909C72.8679 9.66284 73.1131 9.4138 73.2893 9.09196C73.4656 8.76246 73.5537 8.38315 73.5537 7.95404C73.5537 7.51726 73.4656 7.14178 73.2893 6.8276C73.1131 6.50577 72.8679 6.25673 72.5537 6.08048C72.2472 5.90424 71.8985 5.81611 71.5077 5.81611C71.1169 5.81611 70.7683 5.90424 70.4618 6.08048C70.1552 6.25673 69.91 6.50577 69.7261 6.8276C69.5422 7.14178 69.4503 7.51726 69.4503 7.95404C69.4503 8.38315 69.5422 8.76246 69.7261 9.09196C69.91 9.4138 70.1552 9.66284 70.4618 9.83909C70.7683 10.0153 71.1169 10.1035 71.5077 10.1035ZM79.4475 4.8506C79.9456 4.8506 80.3824 4.94639 80.7579 5.13796C81.141 5.32953 81.4399 5.62071 81.6544 6.01152C81.869 6.40232 81.9762 6.89657 81.9762 7.49427V11H80.8728V7.6207C80.8728 7.03067 80.7272 6.58623 80.436 6.28738C80.1525 5.98853 79.7502 5.8391 79.2291 5.8391C78.8383 5.8391 78.4973 5.91573 78.2062 6.06899C77.915 6.22224 77.6889 6.4483 77.528 6.74715C77.3747 7.04599 77.2981 7.41764 77.2981 7.86208V11H76.1947V4.90807H77.2521V6.55174L77.0797 6.11496C77.279 5.7165 77.5855 5.40615 77.9993 5.18393C78.413 4.96171 78.8958 4.8506 79.4475 4.8506ZM85.7655 11.069C85.2597 11.069 84.777 11 84.3172 10.8621C83.8651 10.7241 83.5088 10.5556 83.2482 10.3563L83.708 9.48277C83.9685 9.65901 84.2904 9.80843 84.6735 9.93104C85.0567 10.0536 85.4475 10.1149 85.8459 10.1149C86.3593 10.1149 86.7272 10.0421 86.9494 9.89656C87.1793 9.75096 87.2942 9.5479 87.2942 9.28736C87.2942 9.09579 87.2252 8.94637 87.0873 8.83909C86.9494 8.73181 86.7655 8.65135 86.5356 8.59771C86.3134 8.54407 86.0643 8.4981 85.7885 8.45978C85.5126 8.4138 85.2367 8.36016 84.9609 8.29886C84.685 8.2299 84.4321 8.13794 84.2023 8.023C83.9724 7.9004 83.7885 7.73565 83.6505 7.52875C83.5126 7.31419 83.4436 7.03067 83.4436 6.67818C83.4436 6.31037 83.5471 5.98853 83.754 5.71267C83.9609 5.43681 84.2521 5.22608 84.6275 5.08049C85.0107 4.92723 85.4628 4.8506 85.9839 4.8506C86.3823 4.8506 86.7846 4.90041 87.1908 5.00003C87.6045 5.09198 87.9417 5.22608 88.2022 5.40232L87.731 6.27588C87.4551 6.09198 87.1678 5.96554 86.8689 5.89657C86.5701 5.82761 86.2712 5.79313 85.9724 5.79313C85.4896 5.79313 85.1295 5.87359 84.8919 6.0345C84.6544 6.18776 84.5356 6.38699 84.5356 6.6322C84.5356 6.8391 84.6046 7.00002 84.7425 7.11496C84.8881 7.22224 85.072 7.30653 85.2942 7.36783C85.5241 7.42913 85.777 7.48277 86.0528 7.52875C86.3287 7.56706 86.6045 7.6207 86.8804 7.68967C87.1563 7.75097 87.4053 7.83909 87.6275 7.95404C87.8574 8.06898 88.0413 8.2299 88.1793 8.43679C88.3248 8.64369 88.3976 8.91955 88.3976 9.26438C88.3976 9.63219 88.2904 9.9502 88.0758 10.2184C87.8612 10.4866 87.5586 10.6973 87.1678 10.8506C86.777 10.9962 86.3095 11.069 85.7655 11.069Z" fill="#003874"/>
<path d="M49.2724 172.447V155.942L50.3477 157.118H45.3212V154.942H51.7481V172.447H49.2724ZM62.7294 172.647C61.3623 172.647 60.137 172.297 59.0533 171.597C57.9863 170.897 57.136 169.88 56.5025 168.546C55.8857 167.212 55.5772 165.595 55.5772 163.695C55.5772 161.794 55.8857 160.177 56.5025 158.843C57.136 157.509 57.9863 156.492 59.0533 155.792C60.137 155.092 61.3623 154.742 62.7294 154.742C64.0798 154.742 65.2969 155.092 66.3805 155.792C67.4642 156.492 68.3145 157.509 68.9313 158.843C69.5482 160.177 69.8566 161.794 69.8566 163.695C69.8566 165.595 69.5482 167.212 68.9313 168.546C68.3145 169.88 67.4642 170.897 66.3805 171.597C65.2969 172.297 64.0798 172.647 62.7294 172.647ZM62.7294 170.422C63.6464 170.422 64.4466 170.172 65.1301 169.671C65.8304 169.171 66.3722 168.421 66.7556 167.421C67.1558 166.42 67.3558 165.178 67.3558 163.695C67.3558 162.211 67.1558 160.969 66.7556 159.968C66.3722 158.968 65.8304 158.218 65.1301 157.718C64.4466 157.218 63.6464 156.968 62.7294 156.968C61.8125 156.968 61.0039 157.218 60.3037 157.718C59.6035 158.218 59.0533 158.968 58.6532 159.968C58.2697 160.969 58.078 162.211 58.078 163.695C58.078 165.178 58.2697 166.42 58.6532 167.421C59.0533 168.421 59.6035 169.171 60.3037 169.671C61.0039 170.172 61.8125 170.422 62.7294 170.422ZM79.4093 172.647C78.0422 172.647 76.8169 172.297 75.7332 171.597C74.6662 170.897 73.8159 169.88 73.1824 168.546C72.5656 167.212 72.2571 165.595 72.2571 163.695C72.2571 161.794 72.5656 160.177 73.1824 158.843C73.8159 157.509 74.6662 156.492 75.7332 155.792C76.8169 155.092 78.0422 154.742 79.4093 154.742C80.7597 154.742 81.9768 155.092 83.0604 155.792C84.1441 156.492 84.9944 157.509 85.6112 158.843C86.2281 160.177 86.5365 161.794 86.5365 163.695C86.5365 165.595 86.2281 167.212 85.6112 168.546C84.9944 169.88 84.1441 170.897 83.0604 171.597C81.9768 172.297 80.7597 172.647 79.4093 172.647ZM79.4093 170.422C80.3263 170.422 81.1265 170.172 81.8101 169.671C82.5103 169.171 83.0521 168.421 83.4356 167.421C83.8357 166.42 84.0357 165.178 84.0357 163.695C84.0357 162.211 83.8357 160.969 83.4356 159.968C83.0521 158.968 82.5103 158.218 81.8101 157.718C81.1265 157.218 80.3263 156.968 79.4093 156.968C78.4924 156.968 77.6838 157.218 76.9836 157.718C76.2834 158.218 75.7332 158.968 75.3331 159.968C74.9496 160.969 74.7579 162.211 74.7579 163.695C74.7579 165.178 74.9496 166.42 75.3331 167.421C75.7332 168.421 76.2834 169.171 76.9836 169.671C77.6838 170.172 78.4924 170.422 79.4093 170.422ZM94.1345 169.171V158.218H96.2352V169.171H94.1345ZM89.5831 164.695V162.719H100.787V164.695H89.5831Z" fill="black"/>
<path d="M62.0704 144.968C61.3951 144.968 60.7658 144.86 60.1823 144.643C59.6071 144.418 59.1069 144.101 58.6818 143.693C58.2567 143.285 57.9232 142.805 57.6815 142.255C57.4481 141.705 57.3314 141.101 57.3314 140.442C57.3314 139.783 57.4481 139.179 57.6815 138.629C57.9232 138.079 58.2567 137.599 58.6818 137.191C59.1153 136.783 59.6196 136.47 60.1948 136.253C60.77 136.028 61.3993 135.916 62.0829 135.916C62.8414 135.916 63.525 136.049 64.1335 136.316C64.7503 136.574 65.2672 136.958 65.684 137.466L64.3836 138.666C64.0835 138.325 63.75 138.07 63.3833 137.904C63.0165 137.729 62.6164 137.641 62.1829 137.641C61.7744 137.641 61.3993 137.708 61.0575 137.841C60.7158 137.975 60.4198 138.166 60.1698 138.416C59.9197 138.666 59.7238 138.962 59.5821 139.304C59.4487 139.646 59.382 140.025 59.382 140.442C59.382 140.859 59.4487 141.238 59.5821 141.58C59.7238 141.922 59.9197 142.218 60.1698 142.468C60.4198 142.718 60.7158 142.909 61.0575 143.043C61.3993 143.176 61.7744 143.243 62.1829 143.243C62.6164 143.243 63.0165 143.16 63.3833 142.993C63.75 142.818 64.0835 142.555 64.3836 142.205L65.684 143.405C65.2672 143.914 64.7503 144.302 64.1335 144.568C63.525 144.835 62.8373 144.968 62.0704 144.968ZM66.9143 144.818V138.091H68.8649V144.818H66.9143ZM67.8896 137.154C67.5312 137.154 67.2394 137.049 67.0143 136.841C66.7893 136.633 66.6767 136.374 66.6767 136.066C66.6767 135.757 66.7893 135.499 67.0143 135.29C67.2394 135.082 67.5312 134.978 67.8896 134.978C68.2481 134.978 68.5398 135.078 68.7649 135.278C68.9899 135.47 69.1025 135.72 69.1025 136.028C69.1025 136.353 68.9899 136.624 68.7649 136.841C68.5481 137.049 68.2564 137.154 67.8896 137.154ZM73.4261 144.918C72.6342 144.918 72.0173 144.718 71.5755 144.318C71.1337 143.91 70.9128 143.305 70.9128 142.505V136.603H72.8634V142.48C72.8634 142.764 72.9384 142.984 73.0885 143.143C73.2385 143.293 73.4427 143.368 73.7012 143.368C74.0096 143.368 74.2722 143.285 74.4889 143.118L75.0141 144.493C74.814 144.635 74.5723 144.743 74.2888 144.818C74.0138 144.885 73.7262 144.918 73.4261 144.918ZM69.875 139.742V138.241H74.5389V139.742H69.875ZM76.109 144.818V138.091H78.0596V144.818H76.109ZM77.0843 137.154C76.7259 137.154 76.4341 137.049 76.2091 136.841C75.984 136.633 75.8715 136.374 75.8715 136.066C75.8715 135.757 75.984 135.499 76.2091 135.29C76.4341 135.082 76.7259 134.978 77.0843 134.978C77.4428 134.978 77.7345 135.078 77.9596 135.278C78.1847 135.47 78.2972 135.72 78.2972 136.028C78.2972 136.353 78.1847 136.624 77.9596 136.841C77.7429 137.049 77.4511 137.154 77.0843 137.154ZM83.2085 144.918C82.4416 144.918 81.7664 144.768 81.1828 144.468C80.6077 144.168 80.1617 143.76 79.8449 143.243C79.5282 142.718 79.3698 142.122 79.3698 141.455C79.3698 140.78 79.524 140.184 79.8324 139.667C80.1492 139.142 80.5785 138.733 81.1203 138.441C81.6622 138.141 82.2748 137.991 82.9584 137.991C83.6169 137.991 84.2088 138.133 84.7339 138.416C85.2674 138.691 85.6884 139.092 85.9968 139.617C86.3052 140.134 86.4595 140.755 86.4595 141.48C86.4595 141.555 86.4553 141.642 86.447 141.742C86.4386 141.834 86.4303 141.922 86.4219 142.005H80.9578V140.867H85.3966L84.6464 141.205C84.6464 140.855 84.5755 140.55 84.4338 140.292C84.2921 140.034 84.0962 139.833 83.8462 139.692C83.5961 139.542 83.3043 139.467 82.9709 139.467C82.6375 139.467 82.3415 139.542 82.0831 139.692C81.833 139.833 81.6371 140.038 81.4954 140.304C81.3537 140.563 81.2829 140.871 81.2829 141.23V141.53C81.2829 141.897 81.3621 142.222 81.5204 142.505C81.6872 142.78 81.9164 142.993 82.2082 143.143C82.5082 143.285 82.8584 143.355 83.2585 143.355C83.6169 143.355 83.9295 143.301 84.1963 143.193C84.4714 143.084 84.7214 142.922 84.9465 142.705L85.9843 143.831C85.6759 144.181 85.2883 144.452 84.8215 144.643C84.3546 144.827 83.817 144.918 83.2085 144.918ZM90.0213 144.918C89.4461 144.918 88.8918 144.852 88.3583 144.718C87.8331 144.577 87.4163 144.402 87.1079 144.193L87.7581 142.793C88.0665 142.984 88.4291 143.143 88.8459 143.268C89.2711 143.385 89.6879 143.443 90.0963 143.443C90.5465 143.443 90.8632 143.389 91.0466 143.28C91.2383 143.172 91.3342 143.022 91.3342 142.83C91.3342 142.672 91.2592 142.555 91.1091 142.48C90.9674 142.397 90.7757 142.334 90.5339 142.293C90.2922 142.251 90.0255 142.209 89.7337 142.168C89.4503 142.126 89.1627 142.072 88.8709 142.005C88.5792 141.93 88.3124 141.822 88.0707 141.68C87.829 141.538 87.6331 141.346 87.483 141.105C87.3413 140.863 87.2704 140.55 87.2704 140.167C87.2704 139.742 87.3913 139.367 87.6331 139.042C87.8831 138.716 88.2416 138.462 88.7084 138.279C89.1752 138.087 89.7337 137.991 90.3839 137.991C90.8424 137.991 91.3092 138.041 91.7843 138.141C92.2595 138.241 92.6554 138.387 92.9722 138.579L92.322 139.967C91.9969 139.775 91.6676 139.646 91.3342 139.579C91.0091 139.504 90.6923 139.467 90.3839 139.467C89.9504 139.467 89.6337 139.525 89.4336 139.642C89.2335 139.758 89.1335 139.909 89.1335 140.092C89.1335 140.259 89.2044 140.384 89.3461 140.467C89.4961 140.55 89.692 140.617 89.9338 140.667C90.1755 140.717 90.4381 140.763 90.7215 140.805C91.0133 140.838 91.305 140.892 91.5968 140.967C91.8885 141.042 92.1511 141.151 92.3845 141.292C92.6263 141.426 92.8221 141.613 92.9722 141.855C93.1222 142.088 93.1973 142.397 93.1973 142.78C93.1973 143.197 93.0722 143.568 92.8221 143.893C92.5721 144.21 92.2095 144.46 91.7343 144.643C91.2675 144.827 90.6965 144.918 90.0213 144.918Z" fill="#003874"/>
<path d="M245.003 136.225V119.72L246.078 120.895H241.052V118.719H247.479V136.225H245.003ZM258.46 136.425C257.093 136.425 255.867 136.075 254.784 135.374C253.717 134.674 252.867 133.657 252.233 132.323C251.616 130.99 251.308 129.373 251.308 127.472C251.308 125.571 251.616 123.954 252.233 122.62C252.867 121.287 253.717 120.27 254.784 119.57C255.867 118.869 257.093 118.519 258.46 118.519C259.81 118.519 261.027 118.869 262.111 119.57C263.195 120.27 264.045 121.287 264.662 122.62C265.279 123.954 265.587 125.571 265.587 127.472C265.587 129.373 265.279 130.99 264.662 132.323C264.045 133.657 263.195 134.674 262.111 135.374C261.027 136.075 259.81 136.425 258.46 136.425ZM258.46 134.199C259.377 134.199 260.177 133.949 260.861 133.449C261.561 132.949 262.103 132.198 262.486 131.198C262.886 130.198 263.086 128.956 263.086 127.472C263.086 125.988 262.886 124.746 262.486 123.746C262.103 122.745 261.561 121.995 260.861 121.495C260.177 120.995 259.377 120.745 258.46 120.745C257.543 120.745 256.734 120.995 256.034 121.495C255.334 121.995 254.784 122.745 254.384 123.746C254 124.746 253.808 125.988 253.808 127.472C253.808 128.956 254 130.198 254.384 131.198C254.784 132.198 255.334 132.949 256.034 133.449C256.734 133.949 257.543 134.199 258.46 134.199ZM275.14 136.425C273.773 136.425 272.547 136.075 271.464 135.374C270.397 134.674 269.546 133.657 268.913 132.323C268.296 130.99 267.988 129.373 267.988 127.472C267.988 125.571 268.296 123.954 268.913 122.62C269.546 121.287 270.397 120.27 271.464 119.57C272.547 118.869 273.773 118.519 275.14 118.519C276.49 118.519 277.707 118.869 278.791 119.57C279.875 120.27 280.725 121.287 281.342 122.62C281.959 123.954 282.267 125.571 282.267 127.472C282.267 129.373 281.959 130.99 281.342 132.323C280.725 133.657 279.875 134.674 278.791 135.374C277.707 136.075 276.49 136.425 275.14 136.425ZM275.14 134.199C276.057 134.199 276.857 133.949 277.541 133.449C278.241 132.949 278.783 132.198 279.166 131.198C279.566 130.198 279.766 128.956 279.766 127.472C279.766 125.988 279.566 124.746 279.166 123.746C278.783 122.745 278.241 121.995 277.541 121.495C276.857 120.995 276.057 120.745 275.14 120.745C274.223 120.745 273.414 120.995 272.714 121.495C272.014 121.995 271.464 122.745 271.064 123.746C270.68 124.746 270.488 125.988 270.488 127.472C270.488 128.956 270.68 130.198 271.064 131.198C271.464 132.198 272.014 132.949 272.714 133.449C273.414 133.949 274.223 134.199 275.14 134.199ZM289.865 132.949V121.995H291.966V132.949H289.865ZM285.314 128.472V126.497H296.517V128.472H285.314Z" fill="black"/>
<path d="M257.801 108.746C257.126 108.746 256.496 108.637 255.913 108.421C255.338 108.196 254.837 107.879 254.412 107.47C253.987 107.062 253.654 106.583 253.412 106.032C253.179 105.482 253.062 104.878 253.062 104.219C253.062 103.561 253.179 102.956 253.412 102.406C253.654 101.856 253.987 101.377 254.412 100.968C254.846 100.56 255.35 100.247 255.925 100.031C256.5 99.8055 257.13 99.693 257.813 99.693C258.572 99.693 259.255 99.8264 259.864 100.093C260.481 100.352 260.998 100.735 261.414 101.243L260.114 102.444C259.814 102.102 259.481 101.848 259.114 101.681C258.747 101.506 258.347 101.419 257.913 101.419C257.505 101.419 257.13 101.485 256.788 101.619C256.446 101.752 256.15 101.944 255.9 102.194C255.65 102.444 255.454 102.74 255.313 103.082C255.179 103.423 255.112 103.803 255.112 104.219C255.112 104.636 255.179 105.015 255.313 105.357C255.454 105.699 255.65 105.995 255.9 106.245C256.15 106.495 256.446 106.687 256.788 106.82C257.13 106.954 257.505 107.02 257.913 107.02C258.347 107.02 258.747 106.937 259.114 106.77C259.481 106.595 259.814 106.333 260.114 105.982L261.414 107.183C260.998 107.691 260.481 108.079 259.864 108.346C259.255 108.612 258.568 108.746 257.801 108.746ZM262.645 108.596V101.869H264.595V108.596H262.645ZM263.62 100.931C263.262 100.931 262.97 100.827 262.745 100.618C262.52 100.41 262.407 100.151 262.407 99.843C262.407 99.5346 262.52 99.2762 262.745 99.0678C262.97 98.8594 263.262 98.7552 263.62 98.7552C263.979 98.7552 264.27 98.8552 264.495 99.0553C264.72 99.247 264.833 99.4971 264.833 99.8055C264.833 100.131 264.72 100.402 264.495 100.618C264.279 100.827 263.987 100.931 263.62 100.931ZM269.157 108.696C268.365 108.696 267.748 108.496 267.306 108.096C266.864 107.687 266.643 107.083 266.643 106.282V100.381H268.594V106.257C268.594 106.541 268.669 106.762 268.819 106.92C268.969 107.07 269.173 107.145 269.432 107.145C269.74 107.145 270.003 107.062 270.219 106.895L270.745 108.271C270.544 108.412 270.303 108.521 270.019 108.596C269.744 108.662 269.457 108.696 269.157 108.696ZM265.605 103.519V102.019H270.269V103.519H265.605ZM271.839 108.596V101.869H273.79V108.596H271.839ZM272.815 100.931C272.456 100.931 272.165 100.827 271.94 100.618C271.714 100.41 271.602 100.151 271.602 99.843C271.602 99.5346 271.714 99.2762 271.94 99.0678C272.165 98.8594 272.456 98.7552 272.815 98.7552C273.173 98.7552 273.465 98.8552 273.69 99.0553C273.915 99.247 274.028 99.4971 274.028 99.8055C274.028 100.131 273.915 100.402 273.69 100.618C273.473 100.827 273.182 100.931 272.815 100.931ZM278.939 108.696C278.172 108.696 277.497 108.546 276.913 108.246C276.338 107.946 275.892 107.537 275.575 107.02C275.259 106.495 275.1 105.899 275.1 105.232C275.1 104.557 275.254 103.961 275.563 103.444C275.88 102.919 276.309 102.511 276.851 102.219C277.393 101.919 278.005 101.769 278.689 101.769C279.347 101.769 279.939 101.91 280.464 102.194C280.998 102.469 281.419 102.869 281.727 103.394C282.036 103.911 282.19 104.532 282.19 105.257C282.19 105.332 282.186 105.42 282.177 105.52C282.169 105.611 282.161 105.699 282.152 105.782H276.688V104.644H281.127L280.377 104.982C280.377 104.632 280.306 104.328 280.164 104.069C280.023 103.811 279.827 103.611 279.577 103.469C279.327 103.319 279.035 103.244 278.701 103.244C278.368 103.244 278.072 103.319 277.814 103.469C277.564 103.611 277.368 103.815 277.226 104.082C277.084 104.34 277.013 104.649 277.013 105.007V105.307C277.013 105.674 277.093 105.999 277.251 106.282C277.418 106.558 277.647 106.77 277.939 106.92C278.239 107.062 278.589 107.133 278.989 107.133C279.347 107.133 279.66 107.079 279.927 106.97C280.202 106.862 280.452 106.699 280.677 106.483L281.715 107.608C281.406 107.958 281.019 108.229 280.552 108.421C280.085 108.604 279.547 108.696 278.939 108.696ZM285.752 108.696C285.177 108.696 284.622 108.629 284.089 108.496C283.564 108.354 283.147 108.179 282.838 107.971L283.489 106.57C283.797 106.762 284.16 106.92 284.576 107.045C285.002 107.162 285.418 107.22 285.827 107.22C286.277 107.22 286.594 107.166 286.777 107.058C286.969 106.949 287.065 106.799 287.065 106.608C287.065 106.449 286.99 106.333 286.84 106.257C286.698 106.174 286.506 106.112 286.264 106.07C286.023 106.028 285.756 105.987 285.464 105.945C285.181 105.903 284.893 105.849 284.601 105.782C284.31 105.707 284.043 105.599 283.801 105.457C283.559 105.316 283.364 105.124 283.213 104.882C283.072 104.64 283.001 104.328 283.001 103.944C283.001 103.519 283.122 103.144 283.364 102.819C283.614 102.494 283.972 102.24 284.439 102.056C284.906 101.864 285.464 101.769 286.114 101.769C286.573 101.769 287.04 101.819 287.515 101.919C287.99 102.019 288.386 102.165 288.703 102.356L288.052 103.744C287.727 103.552 287.398 103.423 287.065 103.357C286.74 103.282 286.423 103.244 286.114 103.244C285.681 103.244 285.364 103.302 285.164 103.419C284.964 103.536 284.864 103.686 284.864 103.869C284.864 104.036 284.935 104.161 285.077 104.244C285.227 104.328 285.422 104.394 285.664 104.444C285.906 104.494 286.169 104.54 286.452 104.582C286.744 104.615 287.035 104.67 287.327 104.745C287.619 104.82 287.882 104.928 288.115 105.07C288.357 105.203 288.553 105.391 288.703 105.632C288.853 105.866 288.928 106.174 288.928 106.558C288.928 106.974 288.803 107.345 288.553 107.67C288.303 107.987 287.94 108.237 287.465 108.421C286.998 108.604 286.427 108.696 285.752 108.696Z" fill="#003874"/>
<path fill-rule="evenodd" clip-rule="evenodd" d="M73.7853 181.582C54.0646 187.783 46.7748 179.038 34.3839 171.864C21.9174 164.645 19.8412 175.791 25.7399 179.516C31.6392 183.241 27.1361 189.073 13.4506 181.612C6.0757 177.592 4.16986 176.967 1.60499 179.552C-2.66555 183.855 2.02696 188.658 10.4746 191.441C25.764 196.479 56.2113 191.75 73.7853 181.582Z" fill="#5595D1"/>
<path fill-rule="evenodd" clip-rule="evenodd" d="M244.579 75.5123C265.138 73.3532 268.345 62.4287 276.857 50.9158C285.421 39.332 291.762 48.7309 287.833 54.496C283.903 60.2609 290.356 63.8188 299.941 51.5278C305.107 44.9046 306.606 43.5724 309.988 44.9233C315.619 47.1711 313.225 53.445 306.583 59.3606C294.562 70.067 264.748 77.8466 244.579 75.5123Z" fill="#5595D1"/>
<path fill-rule="evenodd" clip-rule="evenodd" d="M33.5063 172.63C37.3619 174.617 38.2694 176.436 47.9633 181.374C47.9162 181.364 39.7151 179.318 32.2493 175.21C30.1058 174.188 27.3789 173.746 28.1205 172.054C28.6283 169.86 31.7257 171.814 33.5063 172.63Z" fill="#7DBFEE"/>
<path fill-rule="evenodd" clip-rule="evenodd" d="M277.797 54.2667C274.986 57.5705 274.838 59.5977 267.747 67.8486C267.787 67.8213 274.596 62.8129 279.941 56.1757C281.535 54.4166 283.889 52.9707 282.561 51.6883C281.257 49.8514 279.134 52.8354 277.797 54.2667Z" fill="#7DBFEE"/>
<path fill-rule="evenodd" clip-rule="evenodd" d="M38.706 170.16C31.1315 165.158 29.1475 165.076 24.1309 162.799C18.0746 160.051 22.1233 153.031 28.0544 156.023C35.477 159.767 38.706 170.16 38.706 170.16Z" fill="#5A9DD8"/>
<path fill-rule="evenodd" clip-rule="evenodd" d="M28.6068 157.24C30.4993 158.289 34.2735 161.573 36.3274 165.758C32.2875 161.085 29.5282 160.046 27.6433 159.013C26.1645 158.232 25.0461 158.18 25.482 157.043C25.8252 155.552 27.3682 156.614 28.6068 157.24Z" fill="#8CC3EB"/>
<path fill-rule="evenodd" clip-rule="evenodd" d="M273.898 24.1123C282.075 5.6562 292.356 -4.15778 295.393 1.68307C298.431 7.52456 273.898 24.1123 273.898 24.1123Z" fill="#5A9DD8"/>
<path fill-rule="evenodd" clip-rule="evenodd" d="M289.026 3.02609C287.334 4.35427 284.146 8.16916 282.789 12.5998C286.019 7.37797 288.564 5.92458 290.25 4.61419C291.579 3.61455 292.669 3.38832 292.062 2.34166C291.49 0.933397 290.144 2.2171 289.026 3.02609Z" fill="#8CC3EB"/>
</svg>
