<svg width="139" height="100" viewBox="0 0 139 100" fill="none" xmlns="http://www.w3.org/2000/svg">
<path d="M10.2583 58.1906L6.68359 67.5254L6.9652 67.6332L10.5399 58.2985L10.2583 58.1906Z" fill="white"/>
<path d="M67.0751 62.9801L77.768 70.1548L77.6006 70.4054L66.9074 63.2305L67.0751 62.9801Z" fill="white"/>
<path d="M67.5788 66.2127L56.0391 76.0308L56.2347 76.2607L67.7744 66.4427L67.5788 66.2127Z" fill="white"/>
<path fill-rule="evenodd" clip-rule="evenodd" d="M45.328 26.6919L47.755 26.464L46.0277 15.7488L45.0317 15.8423L45.328 26.6919Z" fill="#A88674"/>
<path fill-rule="evenodd" clip-rule="evenodd" d="M46.5483 26.5776L47.7546 26.4643L46.0273 15.7491L45.5362 15.7953L46.5483 26.5776Z" fill="#95705C"/>
<path d="M47.3225 21.5579L44.8438 21.7905L50.26 79.5056L52.7388 79.273L47.3225 21.5579Z" fill="#A88674"/>
<path d="M47.3298 21.5538L46.0977 21.6694L51.8465 82.9284L53.0786 82.8127L47.3298 21.5538Z" fill="#95705C"/>
<path fill-rule="evenodd" clip-rule="evenodd" d="M43.0676 21.7476L49.0752 21.1837L48.5963 26.5463L44.5362 26.9273L43.0676 21.7476Z" fill="#855E4A"/>
<path fill-rule="evenodd" clip-rule="evenodd" d="M46.0729 21.4655L49.0765 21.1837L48.5975 26.5463L46.5676 26.7367L46.0729 21.4655Z" fill="#644332"/>
<path fill-rule="evenodd" clip-rule="evenodd" d="M44.4633 26.7734L48.6447 26.381C48.7324 26.3727 48.8109 26.4378 48.8191 26.5255L48.8191 26.5257C48.8274 26.6134 48.7625 26.6918 48.6746 26.6999L44.4932 27.0923C44.4055 27.1005 44.3271 27.0357 44.3188 26.948L44.3188 26.9478C44.3107 26.86 44.3756 26.7816 44.4633 26.7734Z" fill="#644332"/>
<path fill-rule="evenodd" clip-rule="evenodd" d="M46.5513 26.5773L48.6034 26.3848C48.7124 26.3744 48.8081 26.4379 48.8163 26.5259C48.8246 26.6138 48.7422 26.6936 48.6333 26.7039L46.5812 26.8966L46.5513 26.5773Z" fill="#513426"/>
<path fill-rule="evenodd" clip-rule="evenodd" d="M43.0836 21.5858L48.1007 21.1149C48.2149 21.1043 48.3153 21.1671 48.3236 21.2549L48.3236 21.2551C48.3318 21.3428 48.245 21.4234 48.1308 21.434L43.1137 21.9047C42.9995 21.9153 42.8993 21.8524 42.891 21.7647C42.8826 21.6768 42.9692 21.5964 43.0836 21.5858Z" fill="#644332"/>
<path fill-rule="evenodd" clip-rule="evenodd" d="M46.0572 21.3068L49.0282 21.0279C49.1372 21.0177 49.2329 21.0812 49.2411 21.1686C49.2493 21.2565 49.167 21.3366 49.0583 21.3468L46.0871 21.6257L46.0572 21.3068Z" fill="#513426"/>
<path d="M28.7017 32.3141C28.2322 32.316 27.8507 31.9365 27.8489 31.4672C27.847 30.9978 28.2264 30.6162 28.6958 30.6145L65.3135 30.5414C65.7827 30.5397 66.1646 30.9189 66.166 31.3881C66.1678 31.8574 65.7884 32.2391 65.3191 32.2408L28.7017 32.3141Z" fill="#855E4A"/>
<path fill-rule="evenodd" clip-rule="evenodd" d="M57.4884 30.5577C62.61 35.5506 67.5296 53.0372 66.9914 63.1056C53.039 59.1141 42.277 63.4326 36.5725 65.4296C40.3044 56.1099 39.607 38.166 35.4357 30.6018L57.4884 30.5577Z" fill="#4E4E4E"/>
<path fill-rule="evenodd" clip-rule="evenodd" d="M58.8847 32.2248C58.8919 32.2927 58.9 32.3595 58.9062 32.4274C59.7317 41.2212 53.2716 49.0191 44.4777 49.8444C42.5886 50.0216 40.7461 49.8618 39.0083 49.4159C38.9828 42.1127 37.7395 34.7767 35.4375 30.6021L57.4901 30.5579C57.9584 31.014 58.4243 31.5755 58.8847 32.2248Z" fill="#666666"/>
<path d="M74.8832 10.2154L72.0742 10.479L78.1608 75.3365L80.9698 75.0729L74.8832 10.2154Z" fill="#A88674"/>
<path d="M74.8848 10.2171L73.4883 10.3481L79.6612 76.126L81.0577 75.9949L74.8848 10.2171Z" fill="#95705C"/>
<path fill-rule="evenodd" clip-rule="evenodd" d="M72.6189 16.2888L75.428 16.025L73.4285 3.62229L72.2759 3.73052L72.6189 16.2888Z" fill="#A88674"/>
<path fill-rule="evenodd" clip-rule="evenodd" d="M74.0316 16.1562L75.4282 16.0251L73.4288 3.62236L72.8606 3.67565L74.0316 16.1562Z" fill="#95705C"/>
<path fill-rule="evenodd" clip-rule="evenodd" d="M69.9487 10.5105L76.972 9.85139L76.4121 16.1203L71.6653 16.5659L69.9487 10.5105Z" fill="#855E4A"/>
<path fill-rule="evenodd" clip-rule="evenodd" d="M73.4607 10.1808L76.9724 9.85123L76.4126 16.1202L74.039 16.3431L73.4607 10.1808Z" fill="#644332"/>
<path fill-rule="evenodd" clip-rule="evenodd" d="M71.5772 16.3862L76.4651 15.9276C76.5677 15.918 76.6594 15.994 76.669 16.0966C76.6787 16.1992 76.6027 16.2911 76.5001 16.3007L71.6119 16.7595C71.5095 16.7692 71.4176 16.693 71.4078 16.5904C71.3983 16.4877 71.4745 16.3961 71.5772 16.3862Z" fill="#644332"/>
<path fill-rule="evenodd" clip-rule="evenodd" d="M74.0247 16.1567L76.4236 15.9316C76.551 15.9197 76.6631 15.9938 76.6727 16.0962C76.6823 16.1989 76.5862 16.2926 76.4588 16.3045L74.0597 16.5298L74.0247 16.1567Z" fill="#513426"/>
<path fill-rule="evenodd" clip-rule="evenodd" d="M69.9679 10.3206L75.8329 9.77025C75.9667 9.75776 76.0837 9.83139 76.0933 9.93383C76.1029 10.0363 76.0015 10.1307 75.8678 10.1433L70.0027 10.6937C69.869 10.7064 69.7518 10.6326 69.742 10.5299C69.7326 10.4271 69.8339 10.3331 69.9679 10.3206Z" fill="#644332"/>
<path fill-rule="evenodd" clip-rule="evenodd" d="M73.445 9.99437L76.9183 9.66847C77.0458 9.65651 77.1577 9.73061 77.1673 9.83305C77.177 9.9357 77.0808 10.0296 76.9532 10.0416L73.4797 10.3675L73.445 9.99437Z" fill="#513426"/>
<path d="M60.2803 21.9986C59.7036 21.9619 59.2661 21.4643 59.3027 20.8878C59.3395 20.3112 59.8372 19.8733 60.4138 19.9101L90.6577 21.8815C91.2343 21.9183 91.6718 22.4156 91.6352 22.9923C91.5984 23.5689 91.1006 24.0066 90.5243 23.97L60.2803 21.9986Z" fill="#855E4A"/>
<path d="M55.5695 42.3091C54.9917 42.3154 54.5178 41.8522 54.5115 41.2746C54.5049 40.6966 54.9685 40.2231 55.5461 40.2166L97.1685 39.8048C97.7463 39.7983 98.22 40.2618 98.2265 40.8392C98.2331 41.4172 97.7697 41.8909 97.1919 41.8972L55.5695 42.3091Z" fill="#855E4A"/>
<path fill-rule="evenodd" clip-rule="evenodd" d="M81.9353 21.3131C85.4785 24.7671 89.8001 31.6583 89.428 38.6229C79.7762 35.8619 72.3083 37.8916 68.3621 39.2733C70.9433 32.8265 69.4556 25.5235 66.5703 20.291L81.9353 21.3131Z" fill="#4E4E4E"/>
<path fill-rule="evenodd" clip-rule="evenodd" d="M83.0116 22.4443C80.8467 27.8056 75.8412 31.8028 69.6906 32.3882C69.7448 28.016 68.4562 23.7112 66.5703 20.291L81.9353 21.3131C82.288 21.657 82.6487 22.0355 83.0116 22.4443Z" fill="#666666"/>
<path fill-rule="evenodd" clip-rule="evenodd" d="M90.4904 39.8699C94.0332 43.3237 98.1049 57.3918 97.7326 64.3566C88.0808 61.5952 71.6192 64.9398 67.6732 66.3214C70.2546 59.8742 68.9165 45.3445 66.0312 40.1118L90.4904 39.8699Z" fill="#4E4E4E"/>
<path fill-rule="evenodd" clip-rule="evenodd" d="M15.6889 33.5513L17.8291 33.3506L16.3057 23.9024L15.4278 23.9847L15.6889 33.5513Z" fill="#A88674"/>
<path fill-rule="evenodd" clip-rule="evenodd" d="M16.7642 33.4505L17.8282 33.3508L16.3048 23.9026L15.872 23.9433L16.7642 33.4505Z" fill="#95705C"/>
<path d="M17.5061 29.3885L15.2773 29.5977L19.4503 74.064L21.679 73.8548L17.5061 29.3885Z" fill="#A88674"/>
<path d="M17.5062 29.3887L16.3984 29.4927L20.5714 73.959L21.6792 73.8551L17.5062 29.3887Z" fill="#95705C"/>
<path fill-rule="evenodd" clip-rule="evenodd" d="M14.0336 29.6621L18.7467 29.2199L18.3707 33.4264L15.1858 33.7255L14.0336 29.6621Z" fill="#855E4A"/>
<path fill-rule="evenodd" clip-rule="evenodd" d="M16.3879 29.4408L18.7444 29.2198L18.3685 33.4263L16.776 33.5759L16.3879 29.4408Z" fill="#644332"/>
<path fill-rule="evenodd" clip-rule="evenodd" d="M15.1236 33.6046L18.4036 33.2968C18.4725 33.2903 18.534 33.3413 18.5404 33.4102C18.5469 33.479 18.4959 33.5408 18.427 33.5472L15.1471 33.8551C15.0782 33.8615 15.0167 33.8106 15.0103 33.7417C15.0038 33.6728 15.0547 33.6111 15.1236 33.6046Z" fill="#644332"/>
<path fill-rule="evenodd" clip-rule="evenodd" d="M16.7652 33.4506L18.3747 33.2996C18.4605 33.2915 18.5356 33.3413 18.542 33.4102C18.5485 33.4789 18.484 33.5419 18.3984 33.5498L16.7888 33.7008L16.7652 33.4506Z" fill="#513426"/>
<path fill-rule="evenodd" clip-rule="evenodd" d="M14.0419 29.5348L17.9774 29.1654C18.067 29.1569 18.1458 29.2063 18.1523 29.275L18.1523 29.2752C18.1587 29.3441 18.0905 29.4073 18.001 29.4157L14.0655 29.785C13.9756 29.7934 13.8971 29.7439 13.8906 29.6753L13.8906 29.6751C13.8842 29.6062 13.952 29.5432 14.0419 29.5348Z" fill="#644332"/>
<path fill-rule="evenodd" clip-rule="evenodd" d="M16.3761 29.3156L18.7069 29.0968C18.7921 29.0889 18.8674 29.1385 18.8738 29.2072C18.8804 29.2761 18.8158 29.3391 18.7304 29.3469L16.3996 29.5659L16.3761 29.3156Z" fill="#513426"/>
<path d="M2.4002 39.5446C2.04069 39.5757 1.72404 39.309 1.69296 38.9493C1.66229 38.5899 1.92878 38.2731 2.28829 38.2422L31.9294 35.7714C32.2887 35.7406 32.6054 36.0071 32.6365 36.3666C32.6675 36.7261 32.4008 37.0427 32.0411 37.0738L2.4002 39.5446Z" fill="#855E4A"/>
<path d="M33.0579 58.1897L34.6357 64.3788L34.3426 64.4523L32.7648 58.2634L33.0579 58.1897Z" fill="white"/>
<path fill-rule="evenodd" clip-rule="evenodd" d="M25.7529 36.2856C28.6557 39.1155 33.7707 54.4956 33.4656 60.2024C25.5577 57.9398 11.6829 61.8625 8.44996 62.9945C10.5647 57.7121 9.52608 42.1225 7.16183 37.8349L25.7529 36.2856Z" fill="#4E4E4E"/>
<path fill-rule="evenodd" clip-rule="evenodd" d="M25.9223 36.463C26.0308 37.0051 26.1122 37.5574 26.165 38.1201C26.9903 46.9141 20.5306 54.7118 11.7365 55.537C11.0056 55.6055 10.2814 55.623 9.56759 55.5935C9.77744 48.9987 8.78046 40.7698 7.16241 37.8353L25.7534 36.2858C25.809 36.3398 25.8655 36.4001 25.9223 36.463Z" fill="#666666"/>
<path fill-rule="evenodd" clip-rule="evenodd" d="M28.8009 57.6939C26.6196 57.8106 26.167 56.646 26.4102 56.1819C26.6287 55.7646 26.8661 55.8369 27.2417 55.5754C27.7272 55.2374 27.7622 54.6392 28.6837 54.5899C29.6054 54.5406 29.5768 55.1155 30.0954 55.3998C30.4965 55.6198 30.8605 55.4808 31.1225 55.8723C31.4138 56.3078 30.9823 57.5771 28.8009 57.6939Z" fill="#CBCBCB"/>
<path fill-rule="evenodd" clip-rule="evenodd" d="M29.2836 71.8171L27.36 71.92L27.3538 71.8046C27.3422 71.5886 27.5135 71.4351 27.7254 71.3912L29.2441 71.0758L29.2838 71.8171L29.2836 71.8171Z" fill="#4E4E4E"/>
<path fill-rule="evenodd" clip-rule="evenodd" d="M28.9454 70.5063C28.7993 70.5141 28.6861 70.6399 28.6939 70.786L28.715 71.181C28.7229 71.3271 28.8486 71.4401 28.9948 71.4323L28.995 71.4323C29.1411 71.4245 29.2541 71.2987 29.2463 71.1526L29.2251 70.7576C29.2173 70.6117 29.0915 70.4985 28.9454 70.5063Z" fill="#EEC8BD"/>
<path fill-rule="evenodd" clip-rule="evenodd" d="M29.8639 71.7857L31.7875 71.6828L31.7813 71.5674C31.7697 71.3514 31.5829 71.217 31.3679 71.196L29.8242 71.0444L29.8639 71.7857Z" fill="#4E4E4E"/>
<path fill-rule="evenodd" clip-rule="evenodd" d="M30.0583 70.4463C30.2044 70.4384 30.3304 70.5514 30.3382 70.6976L30.3594 71.0925C30.3672 71.2386 30.2542 71.3644 30.108 71.3722C29.9619 71.3801 29.8361 71.2671 29.8283 71.1209L29.8072 70.726C29.7992 70.5801 29.9122 70.4541 30.0583 70.4463Z" fill="#EEC8BD"/>
<path fill-rule="evenodd" clip-rule="evenodd" d="M27.9922 63.5303L28.2483 63.5166L28.9412 63.4795L29.318 63.4593L29.8755 63.4295L30.2671 63.4085L30.4594 70.9545L29.7212 70.994L29.3948 64.8928L29.0179 64.9129L29.3444 71.0141L28.6062 71.0536L27.9922 63.5303Z" fill="#D77880"/>
<path fill-rule="evenodd" clip-rule="evenodd" d="M27.9894 63.5303L30.2642 63.4085L30.3242 59.3438L27.4961 59.4951L27.9894 63.5303Z" fill="white"/>
<path fill-rule="evenodd" clip-rule="evenodd" d="M30.1748 59.3518L30.3242 64.2513L29.172 64.313L29.045 61.9398L29.4548 59.3903L30.1748 59.3518Z" fill="white"/>
<path fill-rule="evenodd" clip-rule="evenodd" d="M27.6484 59.4868L28.023 64.3743L29.175 64.3127L29.048 61.9395L28.3685 59.4483L27.6484 59.4868Z" fill="white"/>
<path d="M30.2876 63.3235L27.9844 63.4468L28.0021 63.7772L30.3052 63.654L30.2876 63.3235Z" fill="#4E4E4E"/>
<path d="M28.3504 59.449C28.7052 60.8296 29.1645 62.5937 30.3922 63.7338L30.1637 63.9814C28.8554 62.7665 28.384 60.932 28.0175 59.5052L28.0078 59.4675L28.3504 59.4491L28.3504 59.449Z" fill="#4E4E4E"/>
<path fill-rule="evenodd" clip-rule="evenodd" d="M27.4357 59.5096L25.4627 59.9497C25.0592 60.04 25.1368 60.5319 25.5486 60.4933L27.5815 60.3025C28.111 60.2528 27.9477 59.3948 27.4357 59.5096Z" fill="white"/>
<path fill-rule="evenodd" clip-rule="evenodd" d="M30.7118 59.6029L31.3647 61.516C31.4983 61.9073 31.038 62.0974 30.8564 61.726L29.9594 59.8919C29.7255 59.414 30.5428 59.1062 30.7118 59.6029Z" fill="white"/>
<path fill-rule="evenodd" clip-rule="evenodd" d="M31.247 62.7053L31.5909 62.6695L31.9495 64.0678L31.6057 64.1037L31.247 62.7053Z" fill="#EEC8BD"/>
<path fill-rule="evenodd" clip-rule="evenodd" d="M31.26 63.1649L30.8803 61.75C30.7732 61.3508 31.3046 61.2081 31.4116 61.6074L31.7914 63.0222L31.26 63.1649Z" fill="white"/>
<path fill-rule="evenodd" clip-rule="evenodd" d="M28.4141 58.0581L29.2641 58.0126L29.3382 59.3963L28.9761 60.5956L28.4881 59.4418L28.4141 58.0581Z" fill="#E1B6A9"/>
<path fill-rule="evenodd" clip-rule="evenodd" d="M28.6953 55.3998C30.6307 55.2962 30.5155 58.6402 28.8734 58.7281C27.2313 58.816 26.7601 55.5033 28.6953 55.3998Z" fill="#EEC8BD"/>
<path d="M27.5078 57.4331C27.4664 57.4363 27.43 57.4055 27.4266 57.3641C27.4234 57.3226 27.4542 57.2862 27.4956 57.2828L27.5021 57.2823L27.5023 57.2823C28.1196 57.2329 28.7456 57.1826 29.7997 56.4283C29.8336 56.4042 29.8807 56.412 29.9048 56.4458C29.9289 56.4796 29.9212 56.5268 29.8874 56.5509C28.7996 57.3294 28.1526 57.3814 27.5147 57.4325L27.5143 57.4325L27.5078 57.4331Z" fill="#4E4E4E"/>
<path fill-rule="evenodd" clip-rule="evenodd" d="M29.2803 57.4475C29.3255 57.4451 29.3576 57.3498 29.3514 57.2355C29.3453 57.1211 29.3033 57.0298 29.2581 57.0322C29.2128 57.0346 29.1808 57.1299 29.1869 57.2443C29.193 57.3586 29.2348 57.4499 29.2803 57.4475Z" fill="#4E4E4E"/>
<path fill-rule="evenodd" clip-rule="evenodd" d="M29.6659 55.6962C29.6192 56.1356 29.2939 56.613 28.8238 56.9374C28.9385 56.7319 28.9486 56.6881 29.0669 56.2976C28.787 56.7794 28.4969 57.109 28.0517 57.2819C28.2332 57.1172 28.2572 56.9675 28.3809 56.6325C28.0232 57.1738 27.8122 57.2953 27.3913 57.3145C27.0535 55.6772 28.6612 54.86 29.6659 55.6962Z" fill="#A76E33"/>
<path fill-rule="evenodd" clip-rule="evenodd" d="M28.9727 55.4756C29.0504 56.7072 29.7557 57.1145 30.2097 57.2012C30.2418 56.4304 29.8243 55.4028 28.9727 55.4756Z" fill="#A76E33"/>
<path fill-rule="evenodd" clip-rule="evenodd" d="M27.3837 57.1389C27.4598 57.1149 27.5632 57.2278 27.6143 57.391C27.6657 57.5543 27.6456 57.706 27.5693 57.7298C27.4932 57.7538 27.3899 57.6409 27.3385 57.4776C27.2873 57.3144 27.3076 57.1627 27.3837 57.1389Z" fill="#EEC8BD"/>
<path fill-rule="evenodd" clip-rule="evenodd" d="M30.1545 56.9905C30.0762 56.9748 29.9855 57.0981 29.9519 57.2659C29.9184 57.4336 29.9546 57.5823 30.033 57.5979C30.1112 57.6136 30.2019 57.4903 30.2354 57.3225C30.2689 57.1547 30.2327 57.0061 30.1545 56.9905Z" fill="#EEC8BD"/>
<path fill-rule="evenodd" clip-rule="evenodd" d="M29.349 57.9286C29.0686 58.0557 28.6457 58.0744 28.3164 57.9839C28.4723 58.3679 29.2286 58.3694 29.349 57.9286Z" fill="#B8887B"/>
<path fill-rule="evenodd" clip-rule="evenodd" d="M29.0767 58.3081C28.9456 58.37 28.7624 58.378 28.6289 58.332C28.6884 58.455 29.0159 58.4513 29.0767 58.3081Z" fill="#E1B6A9"/>
<path fill-rule="evenodd" clip-rule="evenodd" d="M28.8397 57.8453C29.0025 57.7922 28.9458 57.5398 28.8598 57.2609C29.0268 57.567 29.0852 57.858 28.8397 57.8453Z" fill="#E1B6A9"/>
<path fill-rule="evenodd" clip-rule="evenodd" d="M28.1761 57.6554C28.3076 57.6077 28.4349 57.6258 28.4603 57.6957C28.4858 57.7656 28.3997 57.8612 28.268 57.9089C28.1364 57.9566 28.0093 57.9385 27.9838 57.8686C27.9583 57.7983 28.0446 57.7029 28.1761 57.6554Z" fill="#EBBAB0"/>
<path fill-rule="evenodd" clip-rule="evenodd" d="M29.3949 57.5902C29.2591 57.5568 29.1344 57.5883 29.1166 57.6606C29.0987 57.7328 29.1945 57.8186 29.3305 57.852C29.4665 57.8854 29.591 57.8539 29.6088 57.7817C29.6266 57.7091 29.5309 57.6234 29.3949 57.5902Z" fill="#EBBAB0"/>
<path fill-rule="evenodd" clip-rule="evenodd" d="M27.5195 59.4939C27.7111 60.1312 27.7997 61.0058 27.6869 61.5187L27.8914 64.1207L28.7816 64.0731L28.6322 61.281L28.2119 59.4566L27.5195 59.4937L27.5195 59.4939Z" fill="#D77880"/>
<path fill-rule="evenodd" clip-rule="evenodd" d="M30.3346 59.3429C30.2122 59.997 30.2175 60.8761 30.3843 61.3741L30.4587 63.983L29.5683 64.0307L29.4189 61.2385L29.6421 59.3798L30.3346 59.3427L30.3346 59.3429Z" fill="#D77880"/>
<path fill-rule="evenodd" clip-rule="evenodd" d="M28.6167 57.136C28.6707 57.3212 28.5642 57.515 28.379 57.569C28.1937 57.6229 27.9999 57.5164 27.946 57.3312L28.6167 57.136Z" fill="#4E4E4E"/>
<path fill-rule="evenodd" clip-rule="evenodd" d="M27.3638 56.6247C27.5822 56.1543 29.6292 55.8881 30.1224 56.4905C29.933 54.6678 27.2834 54.9051 27.3638 56.6247Z" fill="#CBCBCB"/>
<path fill-rule="evenodd" clip-rule="evenodd" d="M24.4505 59.6352L24.6263 59.3374L23.5857 58.5098L23.4099 58.8076L24.4505 59.6352Z" fill="#EEC8BD"/>
<path fill-rule="evenodd" clip-rule="evenodd" d="M23.5866 58.7475C23.4936 58.9063 23.1727 58.851 22.9278 58.6302C22.7052 58.4295 22.8887 58.4359 22.8876 58.3116C22.8866 58.2009 22.9788 58.1409 23.0143 58.126C23.0761 58.1002 23.0043 57.8993 23.2522 58.0615C23.512 58.2316 23.7049 58.5458 23.5866 58.7475Z" fill="#EEC8BD"/>
<path fill-rule="evenodd" clip-rule="evenodd" d="M24.131 59.5197L25.2498 60.4459C25.5683 60.7095 25.9192 60.2858 25.6008 60.0222L24.4819 59.0958L24.131 59.5197Z" fill="white"/>
<path d="M24.519 59.0534L24.0859 59.5713L24.3181 59.7654L24.7511 59.2474L24.519 59.0534Z" fill="white"/>
<path d="M24.7096 59.2937L24.3555 59.7173L24.4076 59.7609L24.7618 59.3374L24.7096 59.2937Z" fill="#E5E5E5"/>
<path d="M31.7685 62.7094L31.1172 62.8877L31.1971 63.1795L31.8484 63.0012L31.7685 62.7094Z" fill="white"/>
<path d="M31.6887 62.6619L31.1562 62.8076L31.1742 62.8732L31.7067 62.7274L31.6887 62.6619Z" fill="#E5E5E5"/>
<path fill-rule="evenodd" clip-rule="evenodd" d="M29.1756 57.9892C29.169 58.0693 29.0236 58.1404 28.842 58.1501C28.6567 58.16 28.5023 58.1026 28.4922 58.021C28.719 58.0548 28.9674 58.0441 29.1756 57.9892Z" fill="white"/>
<path fill-rule="evenodd" clip-rule="evenodd" d="M22.8239 58.4535C22.8398 58.418 22.9443 58.4303 23.0573 58.4813C23.1704 58.5319 23.2489 58.6019 23.2331 58.6375C23.2172 58.6731 23.1127 58.6605 22.9996 58.6097C22.8866 58.5589 22.8078 58.4889 22.8239 58.4535Z" fill="#EEC8BD"/>
<path fill-rule="evenodd" clip-rule="evenodd" d="M22.9023 58.3181C22.9194 58.2799 23.0318 58.2932 23.1534 58.3479C23.2749 58.4026 23.3597 58.4778 23.3424 58.516C23.3253 58.5542 23.2126 58.5407 23.0911 58.486C22.9697 58.4315 22.8852 58.3563 22.9023 58.3181Z" fill="#EEC8BD"/>
<path fill-rule="evenodd" clip-rule="evenodd" d="M22.9729 58.1633C22.9916 58.1221 23.1132 58.1365 23.2448 58.1957C23.3765 58.255 23.4681 58.3364 23.4496 58.3776C23.4311 58.4189 23.3093 58.4045 23.1776 58.3452C23.046 58.2863 22.9544 58.2048 22.9729 58.1633Z" fill="#EEC8BD"/>
<path fill-rule="evenodd" clip-rule="evenodd" d="M23.0736 58.0334C23.0884 58.0002 23.1862 58.0118 23.2917 58.0592C23.3973 58.1067 23.4709 58.172 23.4559 58.2052C23.4409 58.2384 23.3433 58.2266 23.2378 58.1794C23.1322 58.1319 23.0588 58.0666 23.0736 58.0334Z" fill="#EEC8BD"/>
<path fill-rule="evenodd" clip-rule="evenodd" d="M23.6021 58.5632C23.5268 58.5907 23.371 57.9453 23.4464 57.9178C23.5217 57.8902 23.6774 58.5357 23.6021 58.5632Z" fill="#EEC8BD"/>
<path d="M29.1017 63.2474L29.3037 63.2366C29.3454 63.2343 29.3811 63.2664 29.3833 63.3081L29.3834 63.3101L29.4078 63.7657C29.41 63.8074 29.3778 63.8431 29.3363 63.8453L29.3343 63.8454L29.1343 63.8561L29.1262 63.705L29.2526 63.6982L29.2362 63.3918L29.1098 63.3985L29.1017 63.2474ZM28.8998 63.2582L28.9018 63.2581L29.1017 63.2474L29.1098 63.3985L28.9835 63.4053L28.9999 63.7117L29.1262 63.705L29.1343 63.8561L28.9324 63.8669C28.8906 63.8692 28.855 63.8371 28.8528 63.7954L28.8526 63.7934L28.8283 63.3378C28.826 63.2963 28.8583 63.2604 28.8998 63.2582Z" fill="#F5D86E"/>
<path fill-rule="evenodd" clip-rule="evenodd" d="M31.6859 63.8271C31.5108 63.8828 31.4104 64.233 31.5198 64.5451C31.629 64.8572 31.7191 64.8792 31.774 64.8167C31.8448 64.736 31.6696 64.4104 31.7952 64.3512C31.8725 64.3148 31.9025 64.483 31.8602 64.6655C31.7888 64.9725 31.6695 64.9689 31.7206 65.0655C31.7803 65.1793 31.9837 65.1826 32.103 64.7699C32.2226 64.357 32.0619 63.7072 31.6859 63.8271Z" fill="#EEC8BD"/>
<path fill-rule="evenodd" clip-rule="evenodd" d="M24.1946 67.217L34.8906 66.2133L36.1822 79.9777L20.8617 84.8693L24.1946 67.217Z" fill="#644332"/>
<path fill-rule="evenodd" clip-rule="evenodd" d="M26.6025 76.5279L30.0199 76.2074L29.5805 71.5247C29.4924 70.585 28.6513 69.8884 27.7114 69.9763C26.7717 70.0645 26.075 70.9056 26.1632 71.8453L26.6025 76.5279Z" fill="#543627"/>
<path fill-rule="evenodd" clip-rule="evenodd" d="M31.2041 76.096L34.6214 75.7753L34.1821 71.0926C34.0939 70.1527 33.2528 69.4561 32.3129 69.5442C31.3732 69.6324 30.6766 70.4733 30.7647 71.4132L31.2041 76.096Z" fill="#543627"/>
<path fill-rule="evenodd" clip-rule="evenodd" d="M39.9554 82.342L38.0319 82.4449L38.0257 82.3295C38.0141 82.1135 38.1854 81.96 38.3971 81.9161L39.9158 81.6007L39.9554 82.342Z" fill="#4E4E4E"/>
<path fill-rule="evenodd" clip-rule="evenodd" d="M39.6212 81.0312C39.4751 81.039 39.3619 81.1648 39.3697 81.3109L39.3908 81.7059C39.3986 81.852 39.5244 81.965 39.6705 81.9572C39.8167 81.9494 39.9297 81.8236 39.9219 81.6775L39.9007 81.2825C39.8933 81.1364 39.7675 81.0234 39.6212 81.0312Z" fill="#EEC8BD"/>
<path fill-rule="evenodd" clip-rule="evenodd" d="M40.5397 82.3111L42.4633 82.2082L42.4571 82.0927C42.4455 81.8768 42.2586 81.7424 42.0437 81.7214L40.5 81.5698L40.5397 82.3111Z" fill="#4E4E4E"/>
<path fill-rule="evenodd" clip-rule="evenodd" d="M40.7343 80.9716C40.8804 80.9638 41.0062 81.0768 41.014 81.2229L41.0351 81.6179C41.043 81.764 40.93 81.8898 40.7838 81.8976C40.6377 81.9054 40.5119 81.7924 40.5041 81.6463L40.483 81.2514C40.4751 81.1052 40.5881 80.9795 40.7343 80.9716Z" fill="#EEC8BD"/>
<path fill-rule="evenodd" clip-rule="evenodd" d="M38.6641 74.0552L38.9201 74.0415L39.6133 74.0044L39.9899 73.9842L40.5473 73.9544L40.9389 73.9334L41.1313 81.4794L40.3931 81.5189L40.0666 75.4177L39.69 75.4378L40.0165 81.539L39.2781 81.5785L38.6641 74.0552Z" fill="#6DAB95"/>
<path fill-rule="evenodd" clip-rule="evenodd" d="M38.6612 74.0555L40.9361 73.9337L40.9961 69.8692L38.168 70.0205L38.6612 74.0555Z" fill="white"/>
<path fill-rule="evenodd" clip-rule="evenodd" d="M40.8506 69.8771L41 74.7767L39.8478 74.8384L39.7208 72.4651L40.1306 69.9157L40.8506 69.8771Z" fill="white"/>
<path fill-rule="evenodd" clip-rule="evenodd" d="M38.3203 70.0122L38.6947 74.8997L39.8467 74.8381L39.7197 72.4649L39.0402 69.9737L38.3203 70.0122Z" fill="white"/>
<path d="M40.9633 73.8484L38.6602 73.9717L38.6778 74.3021L40.981 74.1789L40.9633 73.8484Z" fill="#4E4E4E"/>
<path d="M39.0262 69.9743C39.381 71.355 39.8403 73.1191 41.068 74.2592L40.8394 74.5065C39.5312 73.2917 39.0598 71.4572 38.6933 70.0304L38.6836 69.9927L39.0262 69.9743Z" fill="#4E4E4E"/>
<path fill-rule="evenodd" clip-rule="evenodd" d="M38.1114 70.035L36.1384 70.4751C35.735 70.5652 35.8126 71.0573 36.2243 71.0187L38.2572 70.8279C38.7868 70.7782 38.6235 69.9202 38.1114 70.035Z" fill="white"/>
<path fill-rule="evenodd" clip-rule="evenodd" d="M41.3838 70.1283L42.0367 72.0414C42.1703 72.4327 41.7098 72.623 41.5282 72.2515L40.6312 70.4173C40.3975 69.9393 41.2148 69.6316 41.3838 70.1283Z" fill="white"/>
<path fill-rule="evenodd" clip-rule="evenodd" d="M41.9228 73.2299L42.2667 73.194L42.6253 74.5924L42.2815 74.6282L41.9228 73.2299Z" fill="#EEC8BD"/>
<path fill-rule="evenodd" clip-rule="evenodd" d="M41.9358 73.6893L41.5561 72.2744C41.4489 71.8752 41.9804 71.7326 42.0876 72.1318L42.4674 73.5466L41.9358 73.6893Z" fill="white"/>
<path fill-rule="evenodd" clip-rule="evenodd" d="M39.0859 68.5835L39.936 68.538L40.0101 69.9219L39.648 71.1212L39.16 69.9674L39.0859 68.5835Z" fill="#E1B6A9"/>
<path fill-rule="evenodd" clip-rule="evenodd" d="M39.3711 65.9242C41.3063 65.8206 41.1913 69.1646 39.5492 69.2525C37.9071 69.3406 37.4359 66.0277 39.3711 65.9242Z" fill="#EEC8BD"/>
<path fill-rule="evenodd" clip-rule="evenodd" d="M39.9522 67.9726C39.9974 67.9702 40.0294 67.8749 40.0233 67.7604C40.0172 67.646 39.9752 67.5547 39.9299 67.5571C39.8847 67.5595 39.8526 67.6548 39.8588 67.7692C39.8649 67.8837 39.9067 67.9751 39.9522 67.9726Z" fill="#4E4E4E"/>
<path fill-rule="evenodd" clip-rule="evenodd" d="M40.3379 66.2217C40.2463 67.0827 38.5898 67.8159 38.0631 67.8398C37.7257 66.2027 39.3332 65.3853 40.3379 66.2217Z" fill="#A76E33"/>
<path fill-rule="evenodd" clip-rule="evenodd" d="M39.6485 66.0005C39.7262 67.2321 40.4315 67.6394 40.8856 67.7263C40.9176 66.9555 40.5 65.9279 39.6485 66.0005Z" fill="#A76E33"/>
<path fill-rule="evenodd" clip-rule="evenodd" d="M38.0594 67.6643C38.1355 67.6403 38.2389 67.7531 38.29 67.9164C38.3414 68.0797 38.3211 68.2314 38.245 68.2552C38.1689 68.2792 38.0655 68.1663 38.0142 68.003C37.9632 67.8397 37.9833 67.6881 38.0594 67.6643Z" fill="#EEC8BD"/>
<path fill-rule="evenodd" clip-rule="evenodd" d="M40.8263 67.5159C40.7481 67.5002 40.6574 67.6234 40.6238 67.7912C40.5903 67.959 40.6265 68.1077 40.7049 68.1232C40.7831 68.139 40.8738 68.0157 40.9073 67.8479C40.9409 67.6801 40.9046 67.5315 40.8263 67.5159Z" fill="#EEC8BD"/>
<path fill-rule="evenodd" clip-rule="evenodd" d="M40.0248 68.454C39.7444 68.5811 39.3215 68.5997 38.9922 68.5093C39.1482 68.8933 39.9046 68.8948 40.0248 68.454Z" fill="#B8887B"/>
<path fill-rule="evenodd" clip-rule="evenodd" d="M39.7525 68.8335C39.6214 68.8954 39.4382 68.9034 39.3047 68.8574C39.3642 68.9804 39.6916 68.9767 39.7525 68.8335Z" fill="#E1B6A9"/>
<path fill-rule="evenodd" clip-rule="evenodd" d="M39.5155 68.3707C39.6783 68.3176 39.6213 68.0652 39.5356 67.7863C39.7025 68.0924 39.7611 68.3834 39.5155 68.3707Z" fill="#E1B6A9"/>
<path fill-rule="evenodd" clip-rule="evenodd" d="M38.8519 68.1803C38.9836 68.1326 39.1107 68.1507 39.1361 68.2206C39.1616 68.2905 39.0755 68.3861 38.9438 68.4338C38.8121 68.4815 38.685 68.4634 38.6596 68.3935C38.6341 68.3234 38.7202 68.228 38.8519 68.1803Z" fill="#EBBAB0"/>
<path fill-rule="evenodd" clip-rule="evenodd" d="M40.0706 68.1151C39.9348 68.0817 39.8102 68.1132 39.7923 68.1855C39.7745 68.2577 39.8703 68.3435 40.0063 68.3769C40.1423 68.4103 40.2667 68.3788 40.2846 68.3066C40.3022 68.2342 40.2065 68.1485 40.0706 68.1151Z" fill="#EBBAB0"/>
<path fill-rule="evenodd" clip-rule="evenodd" d="M38.1914 70.0188C38.3829 70.6561 38.4715 71.5307 38.3586 72.0436L38.5631 74.6457L39.4533 74.598L39.3039 71.8059L38.8835 69.9815L38.1914 70.0186L38.1914 70.0188Z" fill="#6DAB95"/>
<path fill-rule="evenodd" clip-rule="evenodd" d="M41.0102 69.8678C40.8878 70.5219 40.893 71.401 41.0601 71.899L41.1344 74.508L40.2441 74.5556L40.0946 71.7635L40.3179 69.9047L41.0102 69.8676L41.0102 69.8678Z" fill="#6DAB95"/>
<path fill-rule="evenodd" clip-rule="evenodd" d="M35.1304 70.1586L35.3062 69.8608L34.2654 69.0332L34.0896 69.3308L35.1304 70.1586Z" fill="#EEC8BD"/>
<path fill-rule="evenodd" clip-rule="evenodd" d="M34.2663 69.271C34.1733 69.4297 33.8524 69.3744 33.6074 69.1536C33.3849 68.953 33.5684 68.9593 33.5673 68.835C33.5663 68.7243 33.6582 68.6644 33.6938 68.6494C33.7555 68.6236 33.6838 68.4228 33.9317 68.585C34.1915 68.7552 34.3844 69.0694 34.2663 69.271Z" fill="#EEC8BD"/>
<path fill-rule="evenodd" clip-rule="evenodd" d="M34.8068 70.0439L35.9256 70.9701C36.2441 71.2338 36.595 70.81 36.2765 70.5464L35.1577 69.6202L34.8068 70.0439Z" fill="white"/>
<path d="M35.1986 69.5754L34.7656 70.0933L34.9977 70.2873L35.4307 69.7694L35.1986 69.5754Z" fill="white"/>
<path d="M35.3892 69.8173L35.0352 70.2407L35.0873 70.2843L35.4413 69.8609L35.3892 69.8173Z" fill="#E5E5E5"/>
<path d="M42.4482 73.2313L41.7969 73.4097L41.8768 73.7015L42.5281 73.5231L42.4482 73.2313Z" fill="white"/>
<path d="M42.3723 73.1848L41.8398 73.3306L41.8578 73.3962L42.3903 73.2503L42.3723 73.1848Z" fill="#E5E5E5"/>
<path fill-rule="evenodd" clip-rule="evenodd" d="M39.8514 68.5141C39.8448 68.5942 39.6996 68.6653 39.5177 68.675C39.3323 68.6849 39.1781 68.6275 39.168 68.5459C39.3948 68.5799 39.6431 68.569 39.8514 68.5141Z" fill="white"/>
<path fill-rule="evenodd" clip-rule="evenodd" d="M34.274 69.0881C34.1987 69.1156 34.0429 68.4702 34.1182 68.4427C34.1935 68.4151 34.3493 69.0606 34.274 69.0881Z" fill="#EEC8BD"/>
<path d="M39.7775 73.7727L39.9795 73.7619C40.0212 73.7597 40.0569 73.7918 40.0591 73.8335L40.0592 73.8355L40.0836 74.2911C40.0858 74.3328 40.0538 74.3685 40.012 74.3707L40.0101 74.3708L39.8101 74.3815L39.802 74.2304L39.9284 74.2236L39.912 73.9171L39.7856 73.9239L39.7775 73.7727ZM39.5756 73.7836L39.5775 73.7834L39.7775 73.7727L39.7856 73.9239L39.6592 73.9307L39.6756 74.2371L39.802 74.2304L39.8101 74.3815L39.6082 74.3923C39.5664 74.3946 39.5308 74.3623 39.5285 74.3208L39.5284 74.3188L39.504 73.8632C39.5018 73.8215 39.534 73.7858 39.5756 73.7836Z" fill="#F5D86E"/>
<path fill-rule="evenodd" clip-rule="evenodd" d="M42.3578 74.3524C42.1826 74.4082 42.0822 74.7583 42.1916 75.0704C42.3008 75.3826 42.391 75.4046 42.4458 75.3421C42.5167 75.2613 42.3414 74.9358 42.4671 74.8766C42.5444 74.8401 42.5743 75.0083 42.5318 75.1909C42.4605 75.4979 42.3411 75.4942 42.3923 75.5909C42.452 75.7047 42.6554 75.7082 42.7747 75.2953C42.8944 74.8825 42.7338 74.2327 42.3578 74.3524Z" fill="#EEC8BD"/>
<path fill-rule="evenodd" clip-rule="evenodd" d="M39.1162 68.0171C39.1615 68.0146 39.1935 67.9194 39.1874 67.8048C39.1813 67.6905 39.1393 67.5991 39.094 67.6016C39.0487 67.604 39.0167 67.6993 39.0228 67.8136C39.029 67.9282 39.0708 68.0195 39.1162 68.0171Z" fill="#4E4E4E"/>
<path d="M36.8793 65.3212L25.4891 79.8437L25.2519 79.6576L36.7281 65.0256C36.6766 65.1618 36.6247 65.2968 36.5716 65.4294L36.8793 65.3212Z" fill="white"/>
<path d="M87.2152 65.3609C87.4882 65.265 87.7877 65.4081 87.8836 65.6813C87.9795 65.9543 87.8361 66.2537 87.5632 66.3498C79.3299 69.2704 65.2684 71.693 50.9754 73.3444C33.9476 75.3115 16.5761 76.1866 8.34225 75.5064C8.05343 75.4834 7.83792 75.2307 7.86074 74.942C7.88356 74.6534 8.13653 74.4377 8.42516 74.4607C16.6101 75.137 33.8994 74.2647 50.857 72.3055C65.0754 70.6626 79.0521 68.2568 87.2152 65.3609Z" fill="#855E4A"/>
<path d="M87.2015 65.8729C87.1742 65.5844 87.3864 65.3282 87.6751 65.3011C87.9636 65.2741 88.2197 65.4862 88.2468 65.7749L88.409 67.504C88.436 67.7925 88.2239 68.0486 87.9354 68.0757C87.6467 68.1028 87.3909 67.8908 87.3637 67.6021L87.2015 65.8729Z" fill="#644332"/>
<path fill-rule="evenodd" clip-rule="evenodd" d="M92.1803 73.816L94.1039 73.7131L94.0977 73.5976C94.0861 73.3817 93.8993 73.2473 93.6843 73.2262L92.1406 73.0747L92.1803 73.816Z" fill="#4E4E4E"/>
<path fill-rule="evenodd" clip-rule="evenodd" d="M92.3749 72.4765C92.521 72.4687 92.647 72.5817 92.6548 72.7278L92.676 73.1228C92.6838 73.2689 92.5708 73.3947 92.4247 73.4025L92.4245 73.4025C92.2783 73.4103 92.1525 73.2973 92.1447 73.1512L92.1236 72.7562C92.1158 72.6101 92.2288 72.4843 92.3749 72.4765Z" fill="#EEC8BD"/>
<path fill-rule="evenodd" clip-rule="evenodd" d="M91.6 73.8478L89.6764 73.9508L89.6702 73.8353C89.6587 73.6194 89.8301 73.4658 90.0418 73.4219L91.5605 73.1065L91.6002 73.8478L91.6 73.8478Z" fill="#4E4E4E"/>
<path fill-rule="evenodd" clip-rule="evenodd" d="M91.2657 72.5366C91.1196 72.5444 91.0064 72.6702 91.0142 72.8163L91.0353 73.2112C91.0432 73.3574 91.1689 73.4704 91.3151 73.4626C91.4612 73.4548 91.5742 73.329 91.5664 73.1828L91.5453 72.7879C91.5376 72.6417 91.4119 72.5287 91.2657 72.5366Z" fill="#EEC8BD"/>
<path fill-rule="evenodd" clip-rule="evenodd" d="M92.5837 65.4388L92.3276 65.4525L91.6345 65.4896L91.2578 65.5098L90.7006 65.5396L90.3086 65.5605L90.9228 73.0839L91.661 73.0444L91.3345 66.9432L91.7112 66.923L92.0376 73.0242L92.776 72.9847L92.5837 65.4388Z" fill="#F5D86E"/>
<path fill-rule="evenodd" clip-rule="evenodd" d="M89.5537 61.7445L88.7336 63.8206C88.5818 64.2051 89.0157 64.4592 89.2106 64.0947L90.2626 62.1282C90.5137 61.659 89.7853 61.2736 89.5537 61.7445Z" fill="#CBCBCB"/>
<path fill-rule="evenodd" clip-rule="evenodd" d="M92.5845 65.4386L90.3095 65.5604L89.8164 61.5254L92.6444 61.3741L92.5845 65.4386Z" fill="#CBCBCB"/>
<path fill-rule="evenodd" clip-rule="evenodd" d="M89.9648 61.5181L90.3394 66.4054L91.4914 66.3437L91.3644 63.9707L90.6849 61.4795L89.9648 61.5181Z" fill="#CBCBCB"/>
<path fill-rule="evenodd" clip-rule="evenodd" d="M92.495 61.3825L92.6443 66.2819L91.4923 66.3435L91.3653 63.9705L91.7751 61.4211L92.495 61.3825Z" fill="#CBCBCB"/>
<path d="M92.5805 65.3562L90.2773 65.4795L90.295 65.8099L92.5982 65.6867L92.5805 65.3562Z" fill="#4E4E4E"/>
<path d="M91.7917 61.4199C91.5863 62.8306 91.3179 64.6336 90.2188 65.8982L90.4725 66.1197C91.6437 64.7722 91.9166 62.8979 92.1287 61.4401L92.1343 61.4016L91.7917 61.4199Z" fill="#4E4E4E"/>
<path fill-rule="evenodd" clip-rule="evenodd" d="M92.9744 61.5623L94.0114 63.5391C94.2034 63.9054 93.799 64.2042 93.5663 63.8625L92.3106 62.0196C92.0108 61.58 92.6938 61.1189 92.9744 61.5623Z" fill="#CBCBCB"/>
<path fill-rule="evenodd" clip-rule="evenodd" d="M91.5805 60.0439L90.7305 60.0894L90.8045 61.473L91.2925 62.6269L91.6546 61.4276L91.5805 60.0439Z" fill="#E1B6A9"/>
<path fill-rule="evenodd" clip-rule="evenodd" d="M91.0158 57.43C89.0804 57.5336 89.5515 60.8462 91.1939 60.7584C92.836 60.6705 92.951 57.3265 91.0158 57.43Z" fill="#EEC8BD"/>
<path fill-rule="evenodd" clip-rule="evenodd" d="M90.6514 59.5291C90.6966 59.5266 90.7287 59.4314 90.7225 59.317C90.7164 59.2027 90.6744 59.1113 90.6291 59.1138C90.5839 59.1162 90.5519 59.2115 90.558 59.3258C90.5641 59.4402 90.6059 59.5315 90.6514 59.5291Z" fill="#4E4E4E"/>
<path fill-rule="evenodd" clip-rule="evenodd" d="M90.0829 57.8291C90.2659 58.6753 91.9912 59.2276 92.5175 59.1951C92.6782 57.5314 90.9927 56.8902 90.0829 57.8291Z" fill="#A76E33"/>
<path fill-rule="evenodd" clip-rule="evenodd" d="M90.7445 57.5356C90.7986 58.7683 90.1409 59.2487 89.6986 59.3836C89.5845 58.6204 89.89 57.5541 90.7445 57.5356Z" fill="#A76E33"/>
<path fill-rule="evenodd" clip-rule="evenodd" d="M92.506 59.0193C92.4277 59.0036 92.337 59.1269 92.3036 59.2947C92.2699 59.4623 92.3061 59.6111 92.3845 59.6267C92.4627 59.6424 92.5534 59.5191 92.5871 59.3513C92.6206 59.1835 92.5842 59.0349 92.506 59.0193Z" fill="#EEC8BD"/>
<path fill-rule="evenodd" clip-rule="evenodd" d="M89.739 59.1672C89.8151 59.1432 89.9185 59.2561 89.9699 59.4193C90.021 59.5824 90.0009 59.7343 89.9248 59.7581C89.8487 59.7821 89.7454 59.6692 89.694 59.5059C89.6428 59.3427 89.6629 59.191 89.739 59.1672Z" fill="#EEC8BD"/>
<path fill-rule="evenodd" clip-rule="evenodd" d="M90.6367 60.0146C90.9291 60.111 91.3514 60.0847 91.6693 59.9594C91.5553 60.358 90.8035 60.4403 90.6367 60.0146Z" fill="#B8887B"/>
<path fill-rule="evenodd" clip-rule="evenodd" d="M90.9492 60.3633C91.0862 60.4108 91.2691 60.3991 91.3972 60.3393C91.351 60.4681 91.025 60.4992 90.9492 60.3633Z" fill="#E1B6A9"/>
<path fill-rule="evenodd" clip-rule="evenodd" d="M91.1303 59.8775C90.9628 59.8421 90.9925 59.5849 91.048 59.2986C90.9147 59.6208 90.8877 59.9164 91.1303 59.8775Z" fill="#E1B6A9"/>
<path fill-rule="evenodd" clip-rule="evenodd" d="M91.7699 59.6175C91.6339 59.5842 91.5094 59.6157 91.4916 59.6879C91.4737 59.7601 91.5695 59.846 91.7055 59.8794C91.8415 59.9127 91.966 59.8812 91.9838 59.809C92.0017 59.7368 91.9057 59.6509 91.7699 59.6175Z" fill="#EBBAB0"/>
<path fill-rule="evenodd" clip-rule="evenodd" d="M90.555 59.6828C90.6865 59.6351 90.8138 59.6531 90.8392 59.723C90.8647 59.7929 90.7786 59.8885 90.6469 59.9362C90.5155 59.9839 90.3882 59.9659 90.3627 59.896C90.3373 59.8261 90.4233 59.7305 90.555 59.6828Z" fill="#EBBAB0"/>
<path fill-rule="evenodd" clip-rule="evenodd" d="M92.6194 61.3756C92.497 62.0297 92.5022 62.9088 92.6693 63.4068L92.7436 66.0158L91.8534 66.0634L91.704 63.2713L91.9272 61.4125L92.6194 61.3754L92.6194 61.3756Z" fill="#F5D86E"/>
<path fill-rule="evenodd" clip-rule="evenodd" d="M89.8047 61.5266C89.9962 62.1639 90.0848 63.0385 89.9718 63.5515L90.1764 66.1535L91.0668 66.1058L90.9173 63.3137L90.497 61.4893L89.8047 61.5264L89.8047 61.5266Z" fill="#F5D86E"/>
<path fill-rule="evenodd" clip-rule="evenodd" d="M90.8127 60.0563C90.8278 60.1354 90.9798 60.1906 91.1617 60.1809C91.3471 60.171 91.4943 60.0972 91.4957 60.0152C91.2738 60.0731 91.0257 60.0887 90.8127 60.0563Z" fill="white"/>
<path d="M91.6474 65.2663L91.6455 65.2664L91.4455 65.2771L91.4536 65.4283L91.5799 65.4215L91.5963 65.728L91.47 65.7347L91.4781 65.8859L91.68 65.8751C91.7217 65.8729 91.7538 65.8372 91.7515 65.7955L91.7514 65.7935L91.7271 65.3379C91.7248 65.2961 91.6892 65.2641 91.6474 65.2663ZM91.4455 65.2771L91.2435 65.2879C91.2018 65.2902 91.1698 65.3258 91.172 65.3676L91.1721 65.3695L91.1965 65.8252C91.1987 65.8669 91.2344 65.8989 91.2761 65.8967L91.2781 65.8966L91.4781 65.8859L91.47 65.7347L91.3436 65.7415L91.3272 65.4351L91.4536 65.4283L91.4455 65.2771Z" fill="#F5D86E"/>
<path fill-rule="evenodd" clip-rule="evenodd" d="M91.4912 59.4837C91.5365 59.4812 91.5685 59.386 91.5624 59.2716C91.5563 59.1572 91.5143 59.0659 91.469 59.0684C91.4237 59.0708 91.3917 59.166 91.3978 59.2804C91.4039 59.3948 91.4458 59.4861 91.4912 59.4837Z" fill="#4E4E4E"/>
<path fill-rule="evenodd" clip-rule="evenodd" d="M89.7069 58.5358C90.6679 58.8493 91.9507 58.8134 92.5519 58.8238C92.6943 57.3495 90.2326 56.4196 89.7069 58.5358Z" fill="#6DAB95"/>
<path fill-rule="evenodd" clip-rule="evenodd" d="M88.9528 59.0035C89.1089 59.0907 89.3062 59.093 89.4692 58.9925C89.6322 58.8918 89.7184 58.7145 89.71 58.5357C89.5539 58.4483 89.3566 58.446 89.1936 58.5467C89.0309 58.6472 88.9446 58.825 88.9528 59.0035Z" fill="#6DAB95"/>
<path fill-rule="evenodd" clip-rule="evenodd" d="M88.9723 58.036C88.9564 58.2141 89.035 58.395 89.1935 58.5026C89.3518 58.6102 89.5492 58.6164 89.7089 58.5356C89.7248 58.3575 89.6462 58.1766 89.4877 58.069C89.3292 57.9614 89.1318 57.9554 88.9723 58.036Z" fill="#6DAB95"/>
<path fill-rule="evenodd" clip-rule="evenodd" d="M93.8222 64.4479C93.8994 64.4696 93.6495 65.0847 93.5723 65.0631C93.4951 65.0414 93.7451 64.4264 93.8222 64.4479Z" fill="#EEC8BD"/>
<path d="M87.8143 66.3425C87.5258 66.3696 87.2696 66.1574 87.2426 65.8689C87.2155 65.5804 87.4276 65.3243 87.7161 65.2972L97.7332 64.3572C98.0217 64.3301 98.2779 64.5421 98.305 64.8308C98.332 65.1193 98.1199 65.3754 97.8314 65.4025L87.8143 66.3425Z" fill="#644332"/>
<path fill-rule="evenodd" clip-rule="evenodd" d="M87.554 67.5839L98.2501 66.58L99.5417 80.3443L84.221 85.2358L87.554 67.5839Z" fill="#644332"/>
<path fill-rule="evenodd" clip-rule="evenodd" d="M7.22806 76.6884L6.49513 68.8785L24.1965 67.2172L25.3727 79.7506L7.22806 76.6884Z" fill="#855E4A"/>
<path d="M96.0726 74.536C96.0455 74.2472 96.2576 73.9913 96.5463 73.9642C96.8349 73.9371 97.0908 74.1491 97.1181 74.4378L97.5146 78.6633C97.5419 78.9518 97.3295 79.2078 97.041 79.2349C96.7525 79.2619 96.4966 79.05 96.4693 78.7615L96.0726 74.536Z" fill="#855E4A"/>
<path fill-rule="evenodd" clip-rule="evenodd" d="M7.22932 76.688C8.41602 82.9075 11.6841 93.432 18.2211 98.8476C27.0565 99.5259 74.714 94.501 93.2471 92.1589C105.066 82.3351 114.566 70.6409 121.232 54.9428L118.767 55.2573C112.688 68.3573 96.5084 79.5339 89.2876 80.4726L87.5562 67.5835C69.4843 73.9681 22.4071 77.9276 7.22932 76.688Z" fill="#855E4A"/>
<path d="M114.795 67.5344C112.605 68.3477 110.104 69.1615 107.355 69.9666C107.947 69.4325 108.534 68.8835 109.112 68.3202C111.55 67.5712 113.751 66.8187 115.667 66.0711C115.38 66.5632 115.089 67.0508 114.795 67.5344ZM88.4953 74.5744C62.2406 80.0281 28.0838 83.954 8.65488 82.4345C8.54717 82.0805 8.4448 81.7304 8.34661 81.3845C27.4688 82.9975 61.9778 78.9703 88.3495 73.4896L88.4953 74.5744Z" fill="#9B7866"/>
<path d="M108.297 76.8756C83.6279 84.9369 34.3949 91.2016 10.6735 87.9679C10.5148 87.602 10.3615 87.2355 10.2135 86.869C33.65 90.4152 85.4894 83.5553 109.469 75.3609C109.083 75.8706 108.692 76.3759 108.297 76.8756Z" fill="#9B7866"/>
<path d="M99.404 85.9353L99.2099 84.4904C81.2289 92.5224 34.1861 96.3033 14.1749 94.3588C13.9177 93.9905 13.6684 93.6144 13.4264 93.2319C33.1709 95.4051 81.7604 91.4404 99.4149 83.2462L100.058 82.9477L100.153 83.6529L100.331 84.977C100.024 85.2985 99.7152 85.6181 99.404 85.9353Z" fill="#9B7866"/>
<path fill-rule="evenodd" clip-rule="evenodd" d="M83.4357 93.3356C87.187 92.9039 90.5304 92.5029 93.2451 92.16C105.064 82.3361 114.564 70.642 121.23 54.9439C121.614 54.0245 118.916 54.4195 118.765 55.2584C115.327 67.1039 98.047 83.9113 83.4357 93.3356Z" fill="#644332"/>
<path d="M22.1342 86.3556L17.1719 86.8213L17.754 93.0241L22.7163 92.5585L22.1342 86.3556Z" fill="#644332"/>
<path d="M35.3138 85.7745L30.3516 86.2402L30.9337 92.4431L35.8959 91.9774L35.3138 85.7745Z" fill="#644332"/>
<path d="M49.7591 84.6798L44.7969 85.1455L45.379 91.3483L50.3413 90.8827L49.7591 84.6798Z" fill="#644332"/>
<path d="M64.0365 83.2091L59.0742 83.6748L59.6563 89.8777L64.6186 89.412L64.0365 83.2091Z" fill="#644332"/>
<path d="M79.7943 80.8131L74.832 81.2788L75.4141 87.4817L80.3764 87.016L79.7943 80.8131Z" fill="#644332"/>
<path fill-rule="evenodd" clip-rule="evenodd" d="M17.1757 86.8201L22.1381 86.3544L20.7585 91.5596L15.7962 92.0254L17.1757 86.8201Z" fill="#644332"/>
<path fill-rule="evenodd" clip-rule="evenodd" d="M17.3263 86.8061L21.9876 86.3687L20.6231 91.4714L15.962 91.909L17.3263 86.8061Z" fill="#AD8C7D"/>
<path fill-rule="evenodd" clip-rule="evenodd" d="M30.3945 86.2293L35.3566 85.7636L33.9771 90.9688L29.015 91.4346L30.3945 86.2293Z" fill="#644332"/>
<path fill-rule="evenodd" clip-rule="evenodd" d="M30.5492 86.2141L35.2104 85.7769L33.8459 90.8798L29.1847 91.3172L30.5492 86.2141Z" fill="#AD8C7D"/>
<path fill-rule="evenodd" clip-rule="evenodd" d="M44.7932 85.1456L49.7553 84.6799L49.6035 90.5017L44.6412 90.9673L44.7932 85.1456Z" fill="#644332"/>
<path fill-rule="evenodd" clip-rule="evenodd" d="M44.9438 85.1311L49.605 84.6937L49.4682 90.4126L44.807 90.8502L44.9438 85.1311Z" fill="#9B7866"/>
<path fill-rule="evenodd" clip-rule="evenodd" d="M59.0664 83.6749L64.0287 83.2094L62.6492 88.4146L57.6868 88.8804L59.0664 83.6749Z" fill="#644332"/>
<path fill-rule="evenodd" clip-rule="evenodd" d="M59.2249 83.6609L63.886 83.2237L62.5215 88.3266L57.8604 88.764L59.2249 83.6609Z" fill="#AD8C7D"/>
<path fill-rule="evenodd" clip-rule="evenodd" d="M74.8268 81.279L79.7891 80.8132L79.6626 86.5738L74.7005 87.0393L74.8268 81.279Z" fill="#644332"/>
<path fill-rule="evenodd" clip-rule="evenodd" d="M74.9852 81.2645L79.6464 80.8271L79.5352 86.4852L74.8741 86.9226L74.9852 81.2645Z" fill="#9B7866"/>
<path d="M100.841 85.2451C98.0482 85.8306 95.2043 86.3974 92.3326 86.9403C92.9347 86.4644 93.5355 85.9806 94.1347 85.4897C96.8668 84.9583 99.568 84.4068 102.218 83.8391C101.764 84.3124 101.305 84.7808 100.841 85.2451Z" fill="#855E4A"/>
<path d="M108.837 76.186C106.426 77.1299 103.974 78.0643 101.499 78.9828C102.152 78.3602 102.797 77.7328 103.43 77.101C105.683 76.2491 107.911 75.386 110.103 74.5164C109.686 75.0792 109.264 75.6357 108.837 76.186Z" fill="#855E4A"/>
<path d="M114.795 67.5331C113.442 68.0495 112.08 68.5626 110.711 69.0706C111.152 68.5233 111.582 67.9772 111.997 67.4325C113.237 66.9659 114.47 66.4958 115.694 66.0228C115.398 66.5309 115.098 67.034 114.795 67.5331Z" fill="#855E4A"/>
<path d="M97.2601 64.929C97.233 64.6405 97.4449 64.3844 97.7336 64.3573C98.0222 64.3302 98.2783 64.5422 98.3054 64.8309L98.4677 66.5599C98.4948 66.8484 98.2826 67.1046 97.9941 67.1317C97.7056 67.1587 97.4495 66.9466 97.4226 66.6581L97.2601 64.929Z" fill="#644332"/>
<path d="M78.2093 68.5633C78.1822 68.2748 78.3944 68.0188 78.6829 67.9916C78.9714 67.9647 79.2275 68.1766 79.2546 68.4651L79.4167 70.1942C79.4438 70.4827 79.2317 70.7389 78.943 70.766C78.6545 70.7928 78.3983 70.5807 78.3713 70.2924L78.2093 68.5633Z" fill="#855E4A"/>
<path d="M68.1898 70.606C68.1627 70.3173 68.3746 70.0611 68.6635 70.034C68.9521 70.0071 69.208 70.2191 69.2351 70.5078L69.3972 72.2369C69.4243 72.5254 69.2124 72.7815 68.9239 72.8088C68.6351 72.8357 68.3792 72.6235 68.3521 72.335L68.1898 70.606Z" fill="#855E4A"/>
<path d="M58.1273 72.1598C58.1002 71.8713 58.3123 71.6153 58.601 71.5882C58.8895 71.5612 59.1455 71.7731 59.1728 72.0618L59.3351 73.7909C59.3622 74.0794 59.1498 74.3353 58.8613 74.3624C58.5728 74.3895 58.3169 74.1775 58.2898 73.8888L58.1273 72.1598Z" fill="#855E4A"/>
<path d="M47.9984 73.0252C47.9713 72.7367 48.1832 72.4806 48.4719 72.4535C48.7604 72.4264 49.0166 72.6386 49.0437 72.9273L49.2058 74.6562C49.2331 74.9446 49.021 75.201 48.7324 75.2281C48.4439 75.2551 48.1878 75.043 48.1607 74.7543L47.9984 73.0252Z" fill="#855E4A"/>
<path d="M37.928 74.5045C37.901 74.216 38.1129 73.9603 38.4014 73.933C38.6901 73.9059 38.9461 74.1179 38.9731 74.4064L39.093 75.6846C39.1201 75.9731 38.9079 76.2291 38.6194 76.2562C38.3309 76.2832 38.075 76.0713 38.0479 75.7828L37.928 74.5045Z" fill="#855E4A"/>
<path d="M27.7835 75.2026C27.7564 74.9139 27.9686 74.6578 28.2571 74.6307C28.5456 74.6037 28.8017 74.8158 28.8288 75.1045L29.0293 77.2408C29.0564 77.5293 28.8443 77.7855 28.5557 77.8124C28.267 77.8394 28.0111 77.6275 27.984 77.339L27.7835 75.2026Z" fill="#855E4A"/>
<path d="M6.31476 67.1507C6.28769 66.8622 6.49983 66.606 6.78834 66.579C7.07684 66.5519 7.33297 66.7638 7.35986 67.0526L7.56037 69.1887C7.58744 69.4772 7.3755 69.7333 7.087 69.7606C6.7983 69.7877 6.54234 69.5753 6.51527 69.2868L6.31476 67.1507Z" fill="#855E4A"/>
<path fill-rule="evenodd" clip-rule="evenodd" d="M9.58319 78.1251L13.0005 77.8044L12.561 73.1217C12.4728 72.1818 11.632 71.4853 10.6919 71.5735C9.75214 71.6617 9.05529 72.5026 9.14365 73.4425L9.58319 78.1251Z" fill="#644332"/>
<path fill-rule="evenodd" clip-rule="evenodd" d="M14.6572 77.6492L18.0745 77.3285L17.6352 72.6458C17.547 71.7059 16.706 71.0093 15.7661 71.0974C14.8263 71.1856 14.1297 72.0265 14.2179 72.9664L14.6572 77.6492Z" fill="#644332"/>
<path fill-rule="evenodd" clip-rule="evenodd" d="M19.7314 77.1732L23.1488 76.8524L22.7094 72.1698C22.6213 71.2299 21.7802 70.5332 20.8403 70.6214C19.9004 70.7095 19.2037 71.5504 19.2921 72.4903L19.7314 77.1732Z" fill="#644332"/>
<path d="M14.6624 66.368C14.6353 66.0795 14.8475 65.8235 15.136 65.7963C15.4243 65.7692 15.6804 65.9813 15.7075 66.27L15.908 68.4062C15.9351 68.6945 15.723 68.9508 15.4345 68.9779C15.146 69.005 14.8898 68.7926 14.8627 68.5041L14.6624 66.368Z" fill="#855E4A"/>
<path fill-rule="evenodd" clip-rule="evenodd" d="M95.2454 74.4223L140.941 46.0943L140.376 45.2513L94.4246 69.8546C92.6175 70.8219 93.7576 75.3444 95.2454 74.4223Z" fill="#9B7866"/>
<path d="M88.8485 77.2187C93.7024 76.1674 109.123 67.4605 119.038 57.2119" stroke="#855E4A" stroke-width="0.472741" stroke-miterlimit="22.9256"/>
<path fill-rule="evenodd" clip-rule="evenodd" d="M117.56 62.6623C118.568 60.7601 119.526 58.7937 120.437 56.7595L117.891 56.9983C116.777 59.0711 115.424 61.0846 113.912 63.0046L117.56 62.6623Z" fill="#855E4A"/>
<path fill-rule="evenodd" clip-rule="evenodd" d="M93.5122 72.0017L140.658 45.6799L140.374 45.2537L94.475 69.7731C93.7823 70.1526 93.4906 71.0927 93.5122 72.0017Z" fill="#AD8C7D"/>
<path fill-rule="evenodd" clip-rule="evenodd" d="M117.561 62.6623C118.569 60.7602 120.32 56.9775 121.23 54.9433L118.186 56.9707C117.464 58.8549 116.434 60.8422 115.157 62.888L117.561 62.6623Z" fill="#644332"/>
<path fill-rule="evenodd" clip-rule="evenodd" d="M120.899 55.6786C122.095 55.0383 120.463 58.7875 119.097 59.6346C117.986 60.3233 119.715 56.3124 120.899 55.6786Z" fill="#9B7866"/>
<path fill-rule="evenodd" clip-rule="evenodd" d="M121.17 56.5323C121.401 55.8478 121.376 55.3984 120.897 55.655C120.428 55.9059 119.874 56.6865 119.445 57.4949L121.17 56.5323Z" fill="#AD8C7D"/>
<path d="M103.784 69.7537C103.756 69.4652 103.968 69.2091 104.257 69.182C104.545 69.1549 104.801 69.3671 104.828 69.6558L105.225 73.8815C105.252 74.1699 105.04 74.4258 104.751 74.4531C104.463 74.4801 104.207 74.268 104.18 73.9797L103.784 69.7537Z" fill="#855E4A"/>
<path fill-rule="evenodd" clip-rule="evenodd" d="M91.1398 40.5861C89.7902 47.3348 84.1538 52.6903 76.9499 53.3663C74.0703 53.6364 71.2975 53.1254 68.8415 52.0072C68.4239 47.1859 67.4025 42.5987 66.0312 40.1118L90.4904 39.8699C90.6977 40.0724 90.9151 40.3131 91.1398 40.5861Z" fill="#666666"/>
<path d="M72.7148 17.3306L139.866 46.7579" stroke="white" stroke-width="0.189108" stroke-miterlimit="22.9256" stroke-linecap="round" stroke-linejoin="round"/>
<path d="M68.2804 39.1448C68.3515 39.1015 68.4446 39.1242 68.4879 39.1952C68.5311 39.2663 68.5085 39.3594 68.4374 39.4027L63.6039 42.3589C63.5328 42.4022 63.4397 42.3795 63.3964 42.3085C63.3532 42.2374 63.3758 42.1443 63.4469 42.101L68.2804 39.1448Z" fill="white"/>
<path d="M89.3537 38.7543C89.2812 38.713 89.256 38.6209 89.2971 38.5485C89.3384 38.476 89.4305 38.4508 89.5029 38.4919L95.3017 41.7849C95.3742 41.8262 95.3994 41.9184 95.3583 41.9908C95.317 42.0632 95.2249 42.0885 95.1525 42.0474L89.3537 38.7543Z" fill="white"/>
<path d="M24.0262 64.9616C24.3147 64.9345 24.5708 65.1466 24.5979 65.4352C24.625 65.7237 24.4128 65.9796 24.1243 66.0067L7.04803 67.6093C6.75952 67.6363 6.50338 67.4242 6.47651 67.1357C6.44943 66.8472 6.66138 66.591 6.94988 66.564L24.0262 64.9616Z" fill="#855E4A"/>
<path fill-rule="evenodd" clip-rule="evenodd" d="M33.4996 68.9783C33.5155 68.9429 33.62 68.9553 33.733 69.0059C33.8461 69.0567 33.9246 69.1265 33.9088 69.1621C33.8929 69.1977 33.7882 69.1851 33.6754 69.1343C33.5623 69.0837 33.4838 69.0137 33.4996 68.9783Z" fill="#EEC8BD"/>
<path fill-rule="evenodd" clip-rule="evenodd" d="M33.578 68.8435C33.5951 68.8053 33.7076 68.8186 33.8293 68.8733C33.9509 68.928 34.0356 69.0032 34.0185 69.0414C34.0012 69.0796 33.889 69.0661 33.7672 69.0116C33.6455 68.9569 33.5609 68.8817 33.578 68.8435Z" fill="#EEC8BD"/>
<path fill-rule="evenodd" clip-rule="evenodd" d="M33.6526 68.6892C33.6713 68.6479 33.7931 68.6625 33.9245 68.7216C34.0562 68.7809 34.148 68.8622 34.1293 68.9035C34.1108 68.9447 33.989 68.9303 33.8573 68.871C33.7257 68.8122 33.6341 68.7306 33.6526 68.6892Z" fill="#EEC8BD"/>
<path fill-rule="evenodd" clip-rule="evenodd" d="M33.7494 68.5587C33.7642 68.5256 33.8619 68.5373 33.9675 68.5848C34.0731 68.6322 34.1467 68.6976 34.1317 68.7307C34.1167 68.7639 34.0191 68.7521 33.9135 68.7047C33.808 68.6573 33.7346 68.5919 33.7494 68.5587Z" fill="#EEC8BD"/>
<path fill-rule="evenodd" clip-rule="evenodd" d="M93.9404 63.7225L93.6237 63.8618L93.805 64.5019L94.1219 64.3625L93.9404 63.7225Z" fill="#EEC8BD"/>
<path fill-rule="evenodd" clip-rule="evenodd" d="M93.9427 64.3087C94.1107 64.2341 94.3389 64.466 94.409 64.7879C94.4727 65.0806 94.3275 64.9685 94.256 65.0699C94.1922 65.1603 94.0825 65.1555 94.0449 65.1469C93.9796 65.1318 93.9209 65.3366 93.8144 65.0606C93.7027 64.7709 93.7292 64.4036 93.9427 64.3087Z" fill="#EEC8BD"/>
<path d="M94.0835 63.595L93.4297 63.7632L93.5051 64.0562L94.1589 63.888L94.0835 63.595Z" fill="#CBCBCB"/>
<path d="M94.0113 63.5373L93.4766 63.6748L93.4935 63.7407L94.0282 63.6032L94.0113 63.5373Z" fill="#7F7F7F"/>
<path fill-rule="evenodd" clip-rule="evenodd" d="M89.0168 64.7037C88.9424 64.7334 89.2563 65.3184 89.3309 65.2888C89.4053 65.2589 89.0912 64.6739 89.0168 64.7037Z" fill="#EEC8BD"/>
<path fill-rule="evenodd" clip-rule="evenodd" d="M88.8226 63.9946L89.1523 64.0993L89.0402 64.7551L88.7105 64.6504L88.8226 63.9946Z" fill="#EEC8BD"/>
<path fill-rule="evenodd" clip-rule="evenodd" d="M88.8835 64.578C88.7085 64.5216 88.5064 64.7768 88.4708 65.1042C88.4389 65.402 88.5713 65.2748 88.6532 65.3682C88.7263 65.4513 88.8349 65.4346 88.8711 65.4221C88.9344 65.4001 89.0148 65.5974 89.0912 65.3115C89.1713 65.0119 89.1057 64.6493 88.8835 64.578Z" fill="#EEC8BD"/>
<path d="M88.6609 63.8779L88.6172 64.1772L89.2852 64.2747L89.3289 63.9753L88.6609 63.8779Z" fill="#CBCBCB"/>
<path d="M88.7286 63.8204L88.7188 63.8877L89.2651 63.9673L89.2749 63.9L88.7286 63.8204Z" fill="#7F7F7F"/>
<path d="M23.5101 65.5372C23.483 65.2487 23.6951 64.9926 23.9836 64.9657C24.2722 64.9386 24.5283 65.1506 24.5552 65.4393L24.7175 67.1684C24.7446 67.4569 24.5325 67.713 24.244 67.7401C23.9554 67.7672 23.6993 67.5548 23.6722 67.2663L23.5101 65.5372Z" fill="#644332"/>
<path d="M24.1268 66.0069C23.8383 66.0339 23.5821 65.822 23.5551 65.5335C23.528 65.2448 23.7401 64.9888 24.0286 64.9618L34.0455 64.0218C34.3342 63.9947 34.5902 64.2067 34.6173 64.4954C34.6443 64.7839 34.4324 65.04 34.1435 65.0671L24.1268 66.0069Z" fill="#644332"/>
<path d="M33.5726 64.5926C33.5455 64.3039 33.7576 64.0479 34.0461 64.0209C34.3349 63.9938 34.5908 64.2057 34.6179 64.4944L34.78 66.2235C34.8073 66.512 34.5952 66.7682 34.3065 66.7953C34.0179 66.8223 33.7618 66.61 33.7347 66.3217L33.5726 64.5926Z" fill="#644332"/>
<path fill-rule="evenodd" clip-rule="evenodd" d="M40.7887 66.8846C39.8666 67.2986 38.5874 67.4 37.9908 67.4745C37.692 66.0238 40.0404 64.8365 40.7887 66.8846Z" fill="#D77880"/>
<path fill-rule="evenodd" clip-rule="evenodd" d="M41.5883 67.2689C41.4424 67.3723 41.2465 67.3956 41.0737 67.3131C40.9009 67.2303 40.7962 67.063 40.7855 66.8846C40.9311 66.781 41.1273 66.7577 41.3001 66.8404C41.4727 66.923 41.5774 67.0905 41.5883 67.2689Z" fill="#D77880"/>
<path fill-rule="evenodd" clip-rule="evenodd" d="M41.4653 66.3087C41.4999 66.4841 41.4411 66.6724 41.2951 66.7962C41.149 66.9199 40.9536 66.9472 40.7862 66.8841C40.7514 66.7087 40.8102 66.5202 40.9563 66.3965C41.1023 66.2726 41.298 66.2456 41.4653 66.3087Z" fill="#D77880"/>
</svg>
