<svg width="1512" height="441" viewBox="0 0 1512 441" fill="none" xmlns="http://www.w3.org/2000/svg">
<path d="M1511.51 0H0V440.637H1511.51V0Z" fill="white"/>
<path d="M1511.51 440.638V199.65C1508.05 202.664 1505.9 205.134 1503.35 209.03C1490.45 193.078 1474.04 187.272 1461.84 185.213C1441.23 181.731 1426.12 192.877 1423.66 204.936C1421.2 216.995 1426.03 226.154 1434.72 231.78C1442.49 236.812 1453.84 232.175 1456.5 223.918C1459.71 213.948 1451.57 203.759 1441.3 206.38C1443.15 200.939 1449.93 198.922 1457.12 199.728C1466.7 200.803 1487.1 217.127 1491.58 242.395C1494.1 256.62 1495.11 275.497 1490.42 295.28C1486.1 289.391 1480.93 285.239 1475.68 282.826C1457.76 274.586 1445.2 281.516 1440.23 290.769C1435.26 300.015 1437.6 308.623 1442.12 314.372C1446.96 320.519 1457.61 319.216 1461.81 313.117C1466.88 305.75 1462.75 295.514 1453.73 295.219C1456.57 291.223 1462.59 291.183 1468.26 293.542C1475.8 296.683 1483.11 308.935 1478.07 324.451C1477.72 325.518 1477.36 326.638 1476.98 327.787C1468.67 341.211 1456.63 354.108 1439.51 365.288C1444.05 319.11 1424.76 291.544 1404.66 282.3C1379.79 270.861 1362.35 280.48 1355.45 293.322C1348.55 306.163 1351.79 318.109 1358.07 326.088C1364.79 334.622 1379.58 332.815 1385.41 324.349C1392.44 314.118 1386.7 299.913 1374.19 299.505C1378.13 293.953 1386.5 293.901 1394.36 297.176C1404.84 301.535 1414.97 318.542 1407.97 340.078C1403.23 354.642 1397.03 375.372 1375.79 390.555C1343.86 395.336 1306.8 389.281 1293.18 380.367C1276.95 369.757 1266.41 359.625 1257.46 332.153C1250.84 311.838 1238.84 298.651 1226.19 292.829C1201.31 281.392 1183.87 291.012 1176.97 303.851C1170.08 316.69 1173.32 328.636 1179.59 336.615C1186.31 345.155 1201.1 343.345 1206.93 334.878C1213.97 324.649 1208.23 310.443 1195.71 310.031C1199.65 304.482 1208.02 304.429 1215.88 307.702C1226.36 312.067 1236.49 329.069 1229.5 350.611C1223.28 369.726 1214.41 398.439 1172.47 412.776C1187.6 349.504 1164.22 312.477 1139.72 301.207C1113.41 289.114 1094.98 299.285 1087.68 312.861C1080.39 326.433 1083.81 339.065 1090.45 347.502C1097.56 356.53 1113.19 354.612 1119.35 345.663C1126.8 334.847 1120.72 319.828 1107.49 319.397C1111.66 313.527 1120.51 313.47 1128.82 316.932C1139.9 321.545 1149.63 339.641 1143.22 362.295C1137.19 383.586 1126.19 397.312 1109.09 404.503C1091.35 411.962 1067.64 405.635 1060.46 399.002C1048.38 387.834 1047.48 374.228 1052.21 367.656C1055.76 362.726 1060.9 359.647 1065.47 361.576C1057.96 366.487 1059.94 377.321 1068.2 380.969C1075.04 383.985 1084.8 379.591 1085.61 371.863C1086.38 364.636 1083.74 356.115 1074.55 350.821C1065.36 345.522 1050.96 346.12 1040.15 362.382C1035.72 369.045 1033.24 378.51 1034.56 389.687C1031.52 387.291 1028.32 384.831 1024.95 382.29C1008.79 370.136 988.111 357.27 965.107 345.004C964.655 340.108 964.599 335.539 964.511 331.492C964.101 312.34 976.507 300.917 986.091 299.845C993.279 299.035 1000.06 301.053 1001.91 306.495C991.635 303.873 983.493 314.062 986.701 324.034C989.363 332.289 1000.93 337.248 1008.49 331.895C1015.54 326.891 1021.1 317.952 1018.65 305.891C1016.18 293.831 1004.37 281.9 981.361 285.327C965.174 287.739 946.074 301.574 936.367 330.579C929.631 327.398 922.786 324.31 915.875 321.328C896.181 307.965 891.013 294.297 890.753 282.324C890.427 267.011 900.344 257.876 908.002 257.02C913.753 256.376 919.178 257.986 920.654 262.338C912.441 260.244 905.93 268.387 908.5 276.36C910.622 282.961 919.876 286.926 925.914 282.646C931.56 278.646 936.002 271.498 934.039 261.857C932.071 252.212 922.628 242.673 904.226 245.413C887.632 247.886 863.552 261.779 859.723 300.273C857.353 299.525 854.982 298.792 852.622 298.091C845.086 295.841 838.228 293.385 831.993 290.769C826.6 284.081 824.867 277.521 824.738 271.517C824.482 259.742 832.109 252.719 838 252.058C842.425 251.564 846.591 252.8 847.731 256.147C841.411 254.536 836.404 260.8 838.382 266.931C840.012 272.004 847.124 275.054 851.77 271.765C856.111 268.686 859.53 263.191 858.019 255.777C856.507 248.361 849.242 241.027 835.093 243.133C824.145 244.763 811.041 254.906 805.83 276.601C796.022 269.73 789.822 261.633 785.292 254.421C776.995 241.218 767.015 220.858 750.802 206.352C734.228 191.524 718.5 187.272 706.299 185.213C685.69 181.731 670.576 192.877 668.117 204.936C665.659 216.995 670.487 226.154 679.177 231.78C686.949 236.812 698.297 232.175 700.959 223.918C704.17 213.948 696.024 203.759 685.755 206.38C687.6 200.939 694.383 198.922 701.572 199.728C711.156 200.803 731.555 217.127 736.033 242.395C738.557 256.62 739.566 275.497 734.872 295.28C730.559 289.391 725.386 285.239 720.141 282.826C702.217 274.586 689.659 281.516 684.684 290.769C679.716 300.015 682.052 308.623 686.577 314.372C691.416 320.519 702.069 319.216 706.268 313.117C711.336 305.75 707.202 295.514 698.183 295.219C701.025 291.223 707.051 291.183 712.714 293.542C720.261 296.683 727.568 308.935 722.523 324.451C722.178 325.518 721.813 326.638 721.435 327.787C713.127 341.211 701.083 354.108 683.963 365.288C688.511 319.11 669.215 291.544 649.119 282.3C624.244 270.861 606.806 280.48 599.904 293.322C593.004 306.163 596.245 318.109 602.529 326.088C609.248 334.622 624.032 332.815 629.865 324.349C636.899 314.118 631.16 299.913 618.64 299.505C622.589 293.953 630.954 293.901 638.817 297.176C649.293 301.535 659.429 318.542 652.43 340.078C647.692 354.642 641.489 375.372 620.245 390.555C588.31 395.336 551.255 389.281 537.629 380.367C521.41 369.757 510.869 359.625 501.916 332.153C495.295 311.838 483.299 298.651 470.644 292.829C445.764 281.392 428.327 291.012 421.43 303.851C414.529 316.69 417.771 328.636 424.049 336.615C430.773 345.155 445.554 343.345 451.384 334.878C458.425 324.649 452.682 310.443 440.16 310.031C444.109 304.482 452.478 304.429 460.337 307.702C470.813 312.067 480.951 329.069 473.955 350.611C467.733 369.726 458.867 398.439 416.933 412.776C432.053 349.504 408.676 312.477 384.173 301.207C357.866 289.114 339.43 299.285 332.138 312.861C324.843 326.433 328.268 339.065 334.909 347.502C342.014 356.53 357.645 354.612 363.808 345.663C371.251 334.847 365.179 319.828 351.942 319.397C356.118 313.527 364.962 313.47 373.279 316.932C384.352 321.545 394.088 339.641 387.674 362.295C381.646 383.586 370.641 397.312 353.54 404.503C335.802 411.962 312.093 405.635 304.917 399.002C292.833 387.834 291.934 374.228 296.666 367.656C300.215 362.726 305.358 359.647 309.923 361.576C302.411 366.487 304.393 377.321 312.654 380.969C319.498 383.985 329.251 379.591 330.068 371.863C330.831 364.636 328.198 356.115 319.009 350.821C309.816 345.522 295.42 346.12 284.605 362.382C280.178 369.045 277.702 378.51 279.012 389.687C275.975 387.291 272.778 384.831 269.402 382.29C253.24 370.136 232.566 357.27 209.56 345.004C209.112 340.108 209.055 335.539 208.968 331.492C208.557 312.34 220.961 300.917 230.546 299.845C237.734 299.035 244.517 301.053 246.363 306.495C236.091 303.873 227.948 314.062 231.157 324.034C233.818 332.289 245.389 337.248 252.943 331.895C259.998 326.891 265.558 317.952 263.103 305.891C260.64 293.831 248.83 281.9 225.815 285.327C209.629 287.739 190.528 301.574 180.824 330.579C174.088 327.398 167.241 324.31 160.33 321.328C140.634 307.965 135.467 294.297 135.21 282.324C134.881 267.011 144.799 257.876 152.46 257.02C158.21 256.376 163.633 257.986 165.11 262.338C156.897 260.244 150.385 268.387 152.954 276.36C155.078 282.961 164.33 286.926 170.37 282.646C176.013 278.646 180.459 271.498 178.495 261.857C176.527 252.212 167.083 242.673 148.68 245.413C132.089 247.886 108.007 261.779 104.18 300.273C101.808 299.525 99.4387 298.792 97.0779 298.091C89.5422 295.841 82.6824 293.385 76.4495 290.769C71.0554 284.081 69.3206 277.521 69.1889 271.517C68.9365 259.742 76.5633 252.719 82.4545 252.058C86.878 251.564 91.0474 252.8 92.1862 256.147C85.8665 254.536 80.859 260.8 82.835 266.931C84.4698 272.004 91.5805 275.054 96.2249 271.765C100.566 268.686 103.985 263.191 102.475 255.777C100.962 248.361 93.6994 241.027 79.5492 243.133C68.6017 244.763 55.4957 254.906 50.2866 276.601C27.3778 260.557 19.7694 242.361 19.5126 229.632C19.169 212.492 32.4853 203.072 45.0459 202.617C52.5947 202.342 59.2346 205.932 59.2346 213.887C52.4782 211.9 44.1053 218.61 46.7554 226.831C48.9497 233.641 57.6513 236.42 63.8818 232.009C69.7071 227.884 74.7776 219.856 72.7508 209.91C70.7222 199.965 61.9365 184.714 41.6639 184.714C24.0975 184.714 13.8985 188.118 0 199.65V440.638H1511.51Z" fill="#3664AF"/>
<path d="M130.192 195.324C130.192 201.182 125.353 205.932 119.38 205.932C113.408 205.932 108.564 201.182 108.564 195.324C108.564 189.465 113.408 184.717 119.38 184.717C125.353 184.717 130.192 189.465 130.192 195.324Z" fill="#3664AF"/>
<path d="M274.809 213.887C274.809 219.748 269.97 224.497 264.001 224.497C258.025 224.497 253.186 219.748 253.186 213.887C253.186 208.028 258.025 203.279 264.001 203.279C269.97 203.279 274.809 208.028 274.809 213.887Z" fill="#3664AF"/>
<path d="M657.309 256.984C657.309 262.842 652.464 267.592 646.493 267.592C640.52 267.592 635.681 262.842 635.681 256.984C635.681 251.125 640.52 246.377 646.493 246.377C652.464 246.377 657.309 251.125 657.309 256.984Z" fill="#3664AF"/>
<path d="M596.027 240.632C596.027 244.831 592.554 248.24 588.274 248.24C583.99 248.24 580.519 244.831 580.519 240.632C580.519 236.429 583.99 233.023 588.274 233.023C592.554 233.023 596.027 236.429 596.027 240.632Z" fill="#3664AF"/>
<path d="M562.844 311.558C562.844 315.757 559.37 319.167 555.088 319.167C550.805 319.167 547.335 315.757 547.335 311.558C547.335 307.354 550.805 303.949 555.088 303.949C559.37 303.949 562.844 307.354 562.844 311.558Z" fill="#3664AF"/>
<path d="M150.787 225.16C150.787 229.362 147.312 232.77 143.03 232.77C138.748 232.77 135.279 229.362 135.279 225.16C135.279 220.956 138.748 217.551 143.03 217.551C147.312 217.551 150.787 220.956 150.787 225.16Z" fill="#3664AF"/>
<path d="M239.316 196.65C239.316 200.852 235.843 204.259 231.563 204.259C227.278 204.259 223.804 200.852 223.804 196.65C223.804 192.448 227.278 189.043 231.563 189.043C235.843 189.043 239.316 192.448 239.316 196.65Z" fill="#3664AF"/>
<path d="M6.66016 430.026C25.424 403.808 50.5638 387.831 76.7179 380.716C102.871 373.603 136.156 377.263 162.509 392.064C137.967 383.282 107.694 379.729 79.6836 386.834C55.3257 393.014 30.2228 407.161 6.66016 430.026Z" fill="white"/>
<path d="M721.307 201.057C743.807 221.846 749.312 246.073 746.848 279.527C745.457 298.401 739.793 315.089 732.17 328.926C733.104 322.204 733.409 311.163 729.14 301.933C724.844 292.653 716.818 285.288 703.74 287.765C716.563 287.525 719.451 291.322 724.844 299.344C730.188 307.3 730.169 331.867 721.868 344.595C714.671 353.832 706.82 360.998 699.541 365.718C726.91 352.127 750.19 313.029 751.24 279.858C752.259 247.672 747.526 221.512 721.307 201.057Z" fill="white"/>
<path d="M488.022 404.836C503.576 397.012 524.955 389.75 540.495 392.734C556.249 395.76 570.183 398.106 588.082 398.468C567.123 400.836 548.637 397.682 540.218 396.921C522.317 395.305 507.195 398.106 488.022 404.836Z" fill="white"/>
<path d="M481.012 405.002C489.119 400.027 500.285 390.816 507.111 388.095C515.221 384.863 528.399 383.62 540.818 389.338C530.934 382.873 516.489 379.143 506.861 383.124C499.727 386.068 493.935 394.56 481.012 405.002Z" fill="white"/>
<path d="M646.237 288.643C661.447 296.101 676.397 318.229 678.425 340.108C680.451 361.988 672.086 386.6 654.348 405.248C638.691 421.71 606.2 432.101 583.645 437.819C619.377 425.139 637.116 414.2 650.547 401.023C660.691 391.072 675.495 362.206 674.117 340.356C672.597 316.239 661.447 299.581 646.237 288.643Z" fill="white"/>
<path d="M661.363 340.855C656.295 363.731 648.012 385.11 618.111 404.008C588.207 422.904 567.426 426.88 543.098 433.343C573.508 429.866 601.247 421.457 622.671 406.991C646.237 391.078 660.347 370.939 661.363 340.855Z" fill="white"/>
<path d="M125.968 264.775C119.633 274.97 113.553 293.367 120.141 316.489C126.731 339.612 143.541 357.164 172.852 369.947C202.501 382.873 223.537 388.841 235.953 400.776C215.933 388.096 184.635 380.148 170.57 373.176C146.497 361.244 123.78 345.306 117.605 318.976C111.778 294.112 116.847 275.717 125.968 264.775Z" fill="white"/>
<path d="M668.762 195.926C656.427 197.818 648.282 205.774 646.771 213.478C646.374 215.421 646.188 217.255 646.188 218.988C646.227 227.055 650.055 232.999 656.519 237.242C658.207 238.332 660.107 238.834 662.1 238.839C666.977 238.885 672.074 235.588 673.583 231.307C669.345 227.537 666.296 222.661 665.056 216.942C664.926 216.934 664.802 216.898 664.67 216.898C663.886 216.898 663.058 216.998 662.198 217.219L656.762 218.625C656.762 218.625 656.29 216.562 657.727 213.39C659.165 210.224 661.997 207.886 664.802 206.507C664.902 205.791 664.986 205.079 665.133 204.349C665.75 201.396 666.996 198.554 668.762 195.926Z" fill="#3664AF"/>
<path d="M596.598 294.131C584.263 296.023 576.119 303.979 574.607 311.683C574.21 313.626 574.024 315.46 574.024 317.193C574.063 325.26 577.891 331.204 584.356 335.447C586.043 336.537 587.943 337.04 589.937 337.044C594.813 337.09 599.91 333.793 601.42 329.512C597.181 325.741 594.132 320.866 592.892 315.147C592.763 315.139 592.638 315.103 592.507 315.103C591.722 315.103 590.895 315.203 590.035 315.424L584.598 316.83C584.598 316.83 584.126 314.767 585.564 311.596C587.001 308.429 589.833 306.091 592.638 304.712C592.738 303.996 592.822 303.284 592.97 302.554C593.586 299.601 594.833 296.759 596.598 294.131Z" fill="#3664AF"/>
<path d="M635.085 194.693C619.605 194.673 609.163 203.838 607.429 212.668C607.033 214.612 606.85 216.448 606.85 218.179C606.89 226.243 610.712 232.192 617.18 236.436C618.866 237.524 620.769 238.023 622.756 238.024C627.768 238.076 633.034 234.608 634.39 230.167C634.773 228.959 634.956 227.756 634.956 226.586C634.933 220.792 630.59 216.095 625.329 216.084C624.544 216.089 623.716 216.191 622.856 216.411L617.422 217.818L619.199 212.58C620.256 209.412 622.652 207.069 625.458 205.695C628.282 204.304 631.532 203.724 634.903 203.719C636.003 203.719 637.125 203.783 638.245 203.908C640.684 204.221 643.369 205.179 646.163 206.677C648.121 203.568 650.785 200.741 654.08 198.408C649.859 196.9 645.797 195.925 642.116 195.298C639.67 194.883 637.327 194.693 635.085 194.693Z" fill="#3664AF"/>
<path d="M320.061 295.387C304.581 295.366 294.139 304.532 292.405 313.361C292.009 315.306 291.826 317.142 291.826 318.872C291.866 326.936 295.689 332.885 302.156 337.129C303.843 338.217 305.745 338.716 307.732 338.718C312.744 338.769 318.01 335.301 319.366 330.861C319.749 329.653 319.932 328.449 319.932 327.28C319.909 321.485 315.566 316.789 310.305 316.778C309.52 316.782 308.692 316.884 307.832 317.104L302.398 318.511L304.176 313.274C305.232 310.106 307.628 307.763 310.434 306.388C313.258 304.998 316.508 304.417 319.879 304.413C320.979 304.413 322.101 304.477 323.221 304.601C325.661 304.915 328.345 305.872 331.14 307.37C333.097 304.262 335.761 301.434 339.056 299.101C334.836 297.593 330.773 296.619 327.092 295.991C324.646 295.577 322.303 295.387 320.061 295.387Z" fill="#3664AF"/>
<path d="M8.22739 301.121C7.37178 316.569 4.40781 330.56 0 343.178V352.63C5.45278 335.933 8.18005 318.503 8.22739 301.121Z" fill="white"/>
<path d="M6.58804 271.613C5.039 281.802 2.77987 291.443 0 300.566V311.031C3.48996 299.157 5.8385 286.064 6.58804 271.613Z" fill="white"/>
<path d="M620.158 390.566C617.145 391.015 614.089 391.368 611.012 391.632C599.894 398.437 584.602 405.61 563.132 413.967C537.34 424.019 505.369 433.99 470.79 440.638H489.976C517.729 434.238 543.268 425.99 564.626 417.664C594.426 406.024 610.392 397.631 620.158 390.566Z" fill="white"/>
<path d="M81.1289 434.062C145.238 411.237 186.127 423.213 219.148 440.639H243.493C207.243 420.776 155.334 401.675 81.1289 434.062Z" fill="white"/>
<path d="M463.541 412.793C487.517 393.475 495.065 374.148 494.567 351.794C494.524 345.189 492.371 329.523 487.176 321.297C490.77 330.502 492.52 343.191 492.52 351.191C492.449 369.371 483.873 395.272 450.012 414.32C446.101 414.812 442.144 415.355 438.167 415.933C468.846 399.281 476.718 380.492 482.024 360.869C483.843 354.135 485.445 340.108 483.119 330.414C483.67 340.234 482.35 351.819 479.895 359.705C474.61 376.473 463.418 399.841 425.718 417.876C397.132 422.679 367.816 429.977 341.905 440.638H367.123C435.451 415.057 509.703 411.431 549.18 410.471C533.046 408.956 502.332 408.625 463.541 412.793Z" fill="white"/>
<path d="M14.2085 215.795C9.22563 229.969 9.90066 247.701 21.8977 268.257C32.7935 286.927 56.024 309.861 80.8587 320.632C57.5442 304.887 36.1723 287.068 24.4294 266.763C13.8877 248.531 10.2391 235.103 14.2085 215.795Z" fill="white"/>
<path d="M364.689 412.46C345.049 423.168 320.549 424.519 293.476 420.536C282.945 407.948 280.015 398.844 279.012 389.688L275.551 386.291C275.745 395.828 277.989 405.478 288.248 419.709C284.855 419.133 281.414 418.457 277.952 417.735C265.313 402.263 251.221 391.624 236.995 383.637C224.68 373.055 215.451 360.086 213.398 347.04L209.56 345.005C211.443 356.932 215.015 366.96 222.826 376.479C216.255 373.485 209.761 370.907 203.455 368.534C196.618 350.977 193.525 332.037 205.877 304.059C197.14 316.448 188.72 339.191 197.84 366.449C190.86 363.882 184.212 361.482 178.029 358.959C177.042 351.382 177.656 339.484 180.824 330.579L177.421 328.816C173.655 337.353 172.153 348.962 172.517 356.596C166.714 353.99 161.421 351.171 156.887 347.815C127.318 325.938 124.004 294.897 129.009 276.542C121.498 297.351 127.318 331.257 156.887 353.134C168.163 361.482 183.426 366.322 199.882 372.223C222.736 380.417 248.141 390.844 269.064 415.749C256.317 412.715 243.191 408.86 229.87 404.504C218.896 400.914 206.192 398.165 192.48 396.42C176.414 380.471 145.189 366.141 116.033 353.067C107.177 335.954 103.125 318.062 104.18 300.274L99.5475 298.867C98.8067 309.369 99.2424 319.873 101.594 331.329C92.1214 324.088 86.8028 319.514 80.0148 310.193C70.6434 297.323 61.2614 281.68 65.6569 260.298C57.7163 277.705 64.9039 298.297 78.3273 315.661C88.5367 328.875 96.6729 334.199 103.419 338.662C104.461 342.223 105.744 345.725 107.291 349.142C93.1216 342.783 79.8903 336.718 69.7071 330.91C26.1198 306.047 6.58804 271.613 6.52668 237.428C4.68308 264.284 15.5457 294.316 42.6361 319.106C35.6939 354.139 18.9674 376.134 0 394.548V409.274C19.8255 389.321 38.6823 361.809 44.1351 320.449C51.1053 326.641 59.0935 332.498 68.1869 337.873C100.331 356.861 145.607 372.126 174.377 394.756C126.933 391.99 71.7111 401 33.2182 428.372C90.9984 394.06 178.172 393.564 229.87 410.471C281.567 427.379 330.476 437.075 364.689 418.427C388.926 405.216 395.102 381.633 397.127 362.736C395.102 381.633 388.926 399.249 364.689 412.46Z" fill="white"/>
<path d="M873.455 208.936C873.455 214.793 868.616 219.543 862.641 219.543C856.672 219.543 851.826 214.793 851.826 208.936C851.826 203.078 856.672 198.328 862.641 198.328C868.616 198.328 873.455 203.078 873.455 208.936Z" fill="#3664AF"/>
<path d="M425.52 280.436C425.52 286.295 420.679 291.045 414.707 291.045C408.734 291.045 403.892 286.295 403.892 280.436C403.892 274.578 408.734 269.828 414.707 269.828C420.679 269.828 425.52 274.578 425.52 280.436Z" fill="#3664AF"/>
<path d="M334.446 280.436C334.446 286.295 329.605 291.045 323.633 291.045C317.661 291.045 312.818 286.295 312.818 280.436C312.818 274.578 317.661 269.828 323.633 269.828C329.605 269.828 334.446 274.578 334.446 280.436Z" fill="#3664AF"/>
<path d="M1015.49 248.807C1015.49 254.666 1010.64 259.416 1004.68 259.416C998.701 259.416 993.862 254.666 993.862 248.807C993.862 242.946 998.701 238.199 1004.68 238.199C1010.64 238.199 1015.49 242.946 1015.49 248.807Z" fill="#3664AF"/>
<path d="M1258.19 225.561C1258.19 231.421 1253.35 236.171 1247.39 236.171C1241.41 236.171 1236.57 231.421 1236.57 225.561C1236.57 219.701 1241.41 214.953 1247.39 214.953C1253.35 214.953 1258.19 219.701 1258.19 225.561Z" fill="#3664AF"/>
<path d="M1412.85 256.984C1412.85 262.842 1408.01 267.592 1402.04 267.592C1396.07 267.592 1391.22 262.842 1391.22 256.984C1391.22 251.125 1396.07 246.377 1402.04 246.377C1408.01 246.377 1412.85 251.125 1412.85 256.984Z" fill="#3664AF"/>
<path d="M1351.57 240.632C1351.57 244.831 1348.1 248.24 1343.82 248.24C1339.53 248.24 1336.06 244.831 1336.06 240.632C1336.06 236.429 1339.53 233.023 1343.82 233.023C1348.1 233.023 1351.57 236.429 1351.57 240.632Z" fill="#3664AF"/>
<path d="M1245.85 258.115C1245.85 262.315 1242.37 265.722 1238.09 265.722C1233.81 265.722 1230.34 262.315 1230.34 258.115C1230.34 253.911 1233.81 250.506 1238.09 250.506C1242.37 250.506 1245.85 253.911 1245.85 258.115Z" fill="#3664AF"/>
<path d="M1338.16 329.253C1338.16 333.452 1334.69 336.862 1330.4 336.862C1326.12 336.862 1322.65 333.452 1322.65 329.253C1322.65 325.05 1326.12 321.645 1330.4 321.645C1334.69 321.645 1338.16 325.05 1338.16 329.253Z" fill="#3664AF"/>
<path d="M906.333 225.16C906.333 229.362 902.858 232.77 898.573 232.77C894.291 232.77 890.823 229.362 890.823 225.16C890.823 220.956 894.291 217.551 898.573 217.551C902.858 217.551 906.333 220.956 906.333 225.16Z" fill="#3664AF"/>
<path d="M1177.39 253.831C1177.39 258.034 1173.92 261.44 1169.64 261.44C1165.36 261.44 1161.89 258.034 1161.89 253.831C1161.89 249.628 1165.36 246.223 1169.64 246.223C1173.92 246.223 1177.39 249.628 1177.39 253.831Z" fill="#3664AF"/>
<path d="M980.059 213.924C980.059 218.124 976.588 221.533 972.306 221.533C968.021 221.533 964.546 218.124 964.546 213.924C964.546 209.721 968.021 206.316 972.306 206.316C976.588 206.316 980.059 209.721 980.059 213.924Z" fill="#3664AF"/>
<path d="M452.199 238.867C452.199 243.069 448.728 246.476 444.447 246.476C440.162 246.476 436.688 243.069 436.688 238.867C436.688 234.665 440.162 231.26 444.447 231.26C448.728 231.26 452.199 234.665 452.199 238.867Z" fill="#3664AF"/>
<path d="M260.758 248.844C260.758 253.046 257.287 256.453 253.007 256.453C248.721 256.453 245.247 253.046 245.247 248.844C245.247 244.642 248.721 241.236 253.007 241.236C257.287 241.236 260.758 244.642 260.758 248.844Z" fill="#3664AF"/>
<path d="M762.204 430.026C780.968 403.808 806.11 387.831 832.263 380.716C858.415 373.603 891.7 377.263 918.052 392.064C893.509 383.282 863.24 379.729 835.226 386.834C810.869 393.014 785.769 407.161 762.204 430.026Z" fill="white"/>
<path d="M1476.85 201.057C1499.35 221.846 1504.86 246.073 1502.39 279.527C1501 298.401 1495.34 315.089 1487.71 328.926C1488.65 322.204 1488.95 311.163 1484.68 301.933C1480.39 292.653 1472.36 285.288 1459.28 287.765C1472.11 287.525 1474.99 291.322 1480.39 299.344C1485.73 307.3 1485.71 331.867 1477.41 344.595C1470.22 353.832 1462.36 360.998 1455.09 365.718C1482.45 352.127 1505.73 313.029 1506.78 279.858C1507.8 247.672 1503.07 221.512 1476.85 201.057Z" fill="white"/>
<path d="M1243.57 404.836C1259.12 397.012 1280.5 389.75 1296.04 392.734C1311.8 395.76 1325.73 398.106 1343.63 398.468C1322.67 400.836 1304.18 397.682 1295.76 396.921C1277.86 395.305 1262.74 398.106 1243.57 404.836Z" fill="white"/>
<path d="M1236.56 405.002C1244.66 400.027 1255.83 390.816 1262.66 388.095C1270.77 384.863 1283.94 383.62 1296.36 389.338C1286.48 382.873 1272.03 379.143 1262.4 383.124C1255.27 386.068 1249.48 394.56 1236.56 405.002Z" fill="white"/>
<path d="M1401.78 288.643C1416.99 296.101 1431.94 318.229 1433.97 340.108C1436 361.988 1427.63 386.6 1409.89 405.248C1394.23 421.71 1361.74 432.101 1339.19 437.819C1374.92 425.139 1392.66 414.2 1406.09 401.023C1416.23 391.072 1431.04 362.206 1429.66 340.356C1428.14 316.239 1416.99 299.581 1401.78 288.643Z" fill="white"/>
<path d="M1416.91 340.855C1411.84 363.731 1403.56 385.11 1373.66 404.008C1343.75 422.904 1322.97 426.88 1298.65 433.343C1329.05 429.866 1356.79 421.457 1378.21 406.991C1401.78 391.078 1415.89 370.939 1416.91 340.855Z" fill="white"/>
<path d="M881.513 264.775C875.177 274.97 869.096 293.367 875.685 316.489C882.274 339.612 899.085 357.164 928.397 369.947C958.045 382.873 979.081 388.841 991.498 400.776C971.475 388.096 940.182 380.148 926.114 373.176C902.041 361.244 879.322 345.306 873.15 318.976C867.322 294.112 872.392 275.717 881.513 264.775Z" fill="white"/>
<path d="M1424.31 195.926C1411.97 197.818 1403.83 205.774 1402.32 213.478C1401.92 215.421 1401.73 217.255 1401.73 218.988C1401.77 227.055 1405.6 232.999 1412.06 237.242C1413.75 238.332 1415.65 238.834 1417.65 238.839C1422.52 238.885 1427.62 235.588 1429.13 231.307C1424.89 227.537 1421.84 222.661 1420.6 216.942C1420.47 216.934 1420.35 216.898 1420.22 216.898C1419.43 216.898 1418.6 216.998 1417.74 217.219L1412.31 218.625C1412.31 218.625 1411.83 216.562 1413.27 213.39C1414.71 210.224 1417.54 207.886 1420.35 206.507C1420.45 205.791 1420.53 205.079 1420.68 204.349C1421.29 201.396 1422.54 198.554 1424.31 195.926Z" fill="#3664AF"/>
<path d="M1390.63 194.693C1375.15 194.673 1364.71 203.838 1362.97 212.668C1362.57 214.612 1362.39 216.448 1362.39 218.179C1362.43 226.243 1366.26 232.192 1372.72 236.436C1374.41 237.524 1376.31 238.023 1378.3 238.024C1383.31 238.076 1388.58 234.608 1389.93 230.167C1390.32 228.959 1390.5 227.756 1390.5 226.586C1390.48 220.792 1386.14 216.095 1380.87 216.084C1380.09 216.089 1379.26 216.191 1378.4 216.411L1372.97 217.818L1374.75 212.58C1375.8 209.412 1378.2 207.069 1381 205.695C1383.83 204.304 1387.08 203.724 1390.45 203.719C1391.55 203.719 1392.67 203.783 1393.79 203.908C1396.23 204.221 1398.91 205.179 1401.71 206.677C1403.67 203.568 1406.33 200.741 1409.62 198.408C1405.4 196.9 1401.34 195.925 1397.66 195.298C1395.21 194.883 1392.87 194.693 1390.63 194.693Z" fill="#3664AF"/>
<path d="M755.972 409.274C776.396 388.721 795.408 360.191 800.177 316.716L798.971 315.01C792.565 352.469 775.673 375.419 755.972 394.547C753.105 397.328 750.195 400.033 747.252 402.687C729.183 418.987 713.436 430.938 695.468 440.638H719.126C728.302 434.005 737.431 426.436 747.252 417.575C750.156 414.959 753.071 412.191 755.972 409.274Z" fill="white"/>
<path d="M755.972 352.63C761.426 335.933 763.726 318.503 763.772 301.121C762.916 316.569 760.381 330.56 755.972 343.178C745.695 372.587 727.552 394.483 709.745 409.649C694.886 422.304 682.113 432.297 668.972 440.638H687.492C696.361 433.977 705.264 426.586 714.092 418.403C734.238 399.735 748.025 376.968 755.972 352.63Z" fill="white"/>
<path d="M755.972 311.031C759.462 299.157 761.385 286.064 762.132 271.613C760.584 281.802 758.75 291.443 755.972 300.566C744.89 336.942 725.172 364.707 705.521 382.451C696.716 390.385 688.488 397.265 680.303 403.36C684.982 389.154 685.853 376.46 686.919 363.301C685.951 363.969 684.965 364.632 683.963 365.289C681.655 379.628 679.751 393.378 672.77 408.75C652.783 422.446 632.033 431.883 602.641 440.638H615.941C654.209 427.886 678.174 412.562 708.267 385.379C726.784 368.685 746.035 344.819 755.972 311.031Z" fill="white"/>
<path d="M1469.64 418.403C1489.78 399.735 1503.57 376.968 1511.51 352.63V343.178C1501.24 372.587 1483.1 394.483 1465.29 409.649C1450.43 422.304 1437.66 432.297 1424.52 440.638H1443.04C1451.91 433.977 1460.81 426.586 1469.64 418.403Z" fill="white"/>
<path d="M1511.51 409.274V394.547C1508.65 397.327 1505.74 400.033 1502.8 402.686C1484.73 418.987 1468.98 430.937 1451.01 440.638H1474.67C1483.84 434.005 1492.98 426.435 1502.8 417.574C1505.7 414.959 1508.62 412.191 1511.51 409.274Z" fill="white"/>
<path d="M1375.7 390.566C1372.69 391.015 1369.63 391.368 1366.55 391.632C1355.44 398.437 1340.14 405.61 1318.68 413.967C1292.88 424.019 1260.91 433.99 1226.34 440.638H1245.52C1273.28 434.238 1298.81 425.99 1320.17 417.664C1349.97 406.024 1365.94 397.631 1375.7 390.566Z" fill="white"/>
<path d="M836.674 434.062C900.782 411.237 941.673 423.213 974.691 440.639H999.037C962.789 420.776 910.878 401.675 836.674 434.062Z" fill="white"/>
<path d="M1511.51 311.029V300.564C1500.43 336.941 1480.72 364.705 1461.07 382.449C1452.26 390.383 1444.03 397.264 1435.85 403.358C1440.53 389.153 1441.4 376.458 1442.46 363.299C1441.49 363.968 1440.51 364.63 1439.51 365.287C1437.2 379.627 1435.29 393.377 1428.31 408.749C1408.33 422.444 1387.58 431.881 1358.18 440.637H1371.49C1409.75 427.884 1433.72 412.56 1463.81 385.378C1482.33 368.683 1501.58 344.818 1511.51 311.029Z" fill="white"/>
<path d="M1219.08 412.793C1243.06 393.475 1250.61 374.148 1250.11 351.794C1250.07 345.189 1247.92 329.523 1242.72 321.297C1246.31 330.502 1248.07 343.191 1248.07 351.191C1248 369.371 1239.42 395.272 1205.56 414.32C1201.65 414.812 1197.69 415.355 1193.71 415.933C1224.39 399.281 1232.26 380.492 1237.57 360.869C1239.39 354.135 1240.99 340.108 1238.66 330.414C1239.22 340.234 1237.89 351.819 1235.44 359.705C1230.15 376.473 1218.96 399.841 1181.26 417.876C1152.68 422.679 1123.36 429.977 1097.45 440.638H1122.67C1190.99 415.057 1265.25 411.431 1304.73 410.471C1288.59 408.956 1257.88 408.625 1219.08 412.793Z" fill="white"/>
<path d="M1120.23 412.459C1100.59 423.167 1076.1 424.518 1049.02 420.535C1038.49 407.947 1035.56 398.843 1034.56 389.687L1031.09 386.29C1031.29 395.827 1033.54 405.478 1043.79 419.708C1040.4 419.132 1036.96 418.456 1033.5 417.734C1020.86 402.262 1006.77 391.623 992.539 383.636C980.224 373.054 970.995 360.085 968.943 347.039L965.107 345.004C966.987 356.931 970.56 366.959 978.369 376.478C971.801 373.484 965.304 370.906 958.999 368.533C952.161 350.976 949.068 332.036 961.422 304.058C952.683 316.447 944.264 339.19 953.385 366.448C946.403 363.881 939.758 361.481 933.572 358.958C932.587 351.381 933.201 339.483 936.367 330.578L932.966 328.815C929.199 337.353 927.695 348.961 928.06 356.595C922.26 353.989 916.961 351.171 912.431 347.814C882.863 325.937 879.546 294.896 884.553 276.541C877.042 297.35 882.863 331.256 912.431 353.134C923.708 361.481 938.969 366.321 955.426 372.222C978.282 380.417 1003.69 390.844 1024.61 415.748C1011.86 412.715 998.736 408.859 985.414 404.503C974.438 400.913 961.737 398.164 948.023 396.419C931.959 380.47 900.733 366.14 871.575 353.066C862.721 335.953 858.671 318.061 859.723 300.273L855.091 298.866C854.351 309.368 854.786 319.872 857.139 331.329C847.664 324.087 842.348 319.513 835.559 310.192C826.186 297.322 816.806 281.679 821.199 260.297C813.26 277.704 820.449 298.296 833.872 315.66C844.08 328.874 852.215 334.198 858.966 338.661C860.007 342.222 861.287 345.724 862.833 349.142C848.667 342.782 835.433 336.717 825.253 330.909C781.662 306.046 777.146 281.06 762.278 246.555C772.265 279.19 777.865 310.771 823.731 337.872C855.876 356.86 901.15 372.125 929.922 394.755C882.481 391.989 827.255 400.999 788.763 428.372C846.542 394.059 933.716 393.563 985.414 410.471C1037.11 427.378 1086.02 437.074 1120.23 418.426C1144.47 405.216 1150.65 381.633 1152.67 362.735C1150.65 381.633 1144.47 399.248 1120.23 412.459Z" fill="white"/>
</svg>
