<svg width="1512" height="441" viewBox="0 0 1512 441" fill="none" xmlns="http://www.w3.org/2000/svg">
<path d="M1511.51 0H0V440.637H1511.51V0Z" fill="white"/>
<path d="M1511.51 440.637V199.649C1508.05 202.663 1505.9 205.133 1503.35 209.029C1490.45 193.077 1474.04 187.271 1461.84 185.212C1441.23 181.73 1426.12 192.876 1423.66 204.935C1421.2 216.994 1426.03 226.153 1434.72 231.779C1442.49 236.811 1453.84 232.174 1456.5 223.917C1459.71 213.947 1451.57 203.758 1441.3 206.379C1443.15 200.938 1449.93 198.921 1457.12 199.727C1466.7 200.802 1487.1 217.126 1491.58 242.394C1494.1 256.619 1495.11 275.496 1490.42 295.279C1486.1 289.39 1480.93 285.238 1475.68 282.825C1457.76 274.585 1445.2 281.515 1440.23 290.768C1435.26 300.014 1437.6 308.622 1442.12 314.371C1446.96 320.518 1457.61 319.215 1461.81 313.116C1466.88 305.749 1462.75 295.513 1453.73 295.218C1456.57 291.222 1462.59 291.182 1468.26 293.541C1475.8 296.682 1483.11 308.934 1478.07 324.45C1477.72 325.517 1477.36 326.638 1476.98 327.786C1468.67 341.21 1456.63 354.107 1439.51 365.287C1444.05 319.109 1424.76 291.543 1404.66 282.299C1379.79 270.86 1362.35 280.479 1355.45 293.321C1348.55 306.162 1351.79 318.108 1358.07 326.087C1364.79 334.621 1379.58 332.814 1385.41 324.348C1392.44 314.117 1386.7 299.912 1374.19 299.504C1378.13 293.952 1386.5 293.9 1394.36 297.175C1404.84 301.534 1414.97 318.541 1407.97 340.077C1403.23 354.641 1397.03 375.371 1375.79 390.554C1343.86 395.335 1306.8 389.28 1293.18 380.366C1276.95 369.757 1266.41 359.624 1257.46 332.152C1250.84 311.837 1238.84 298.65 1226.19 292.828C1201.31 281.391 1183.87 291.011 1176.97 303.85C1170.08 316.689 1173.32 328.635 1179.59 336.614C1186.31 345.154 1201.1 343.344 1206.93 334.877C1213.97 324.648 1208.23 310.442 1195.71 310.03C1199.65 304.481 1208.02 304.428 1215.88 307.701C1226.36 312.066 1236.49 329.068 1229.5 350.61C1223.28 369.725 1214.41 398.438 1172.47 412.775C1187.6 349.503 1164.22 312.476 1139.72 301.206C1113.41 289.113 1094.98 299.284 1087.68 312.86C1080.39 326.432 1083.81 339.064 1090.45 347.501C1097.56 356.529 1113.19 354.611 1119.35 345.662C1126.8 334.846 1120.72 319.827 1107.49 319.396C1111.66 313.526 1120.51 313.469 1128.82 316.931C1139.9 321.544 1149.63 339.64 1143.22 362.294C1137.19 383.585 1126.19 397.311 1109.09 404.502C1091.35 411.961 1067.64 405.634 1060.46 399.001C1048.38 387.833 1047.48 374.227 1052.21 367.655C1055.76 362.725 1060.9 359.646 1065.47 361.575C1057.96 366.486 1059.94 377.32 1068.2 380.968C1075.04 383.984 1084.8 379.59 1085.61 371.862C1086.38 364.635 1083.74 356.114 1074.55 350.82C1065.36 345.521 1050.96 346.119 1040.15 362.382C1035.72 369.044 1033.24 378.509 1034.56 389.686C1031.52 387.29 1028.32 384.83 1024.95 382.289C1008.79 370.135 988.111 357.269 965.107 345.003C964.655 340.107 964.599 335.538 964.511 331.491C964.101 312.339 976.507 300.916 986.091 299.844C993.279 299.034 1000.06 301.052 1001.91 306.494C991.635 303.872 983.493 314.061 986.701 324.033C989.363 332.288 1000.93 337.247 1008.49 331.894C1015.54 326.89 1021.1 317.951 1018.65 305.89C1016.18 293.83 1004.37 281.899 981.361 285.326C965.174 287.738 946.074 301.573 936.367 330.578C929.631 327.397 922.786 324.309 915.875 321.327C896.181 307.965 891.013 294.296 890.753 282.323C890.427 267.01 900.344 257.875 908.002 257.019C913.753 256.375 919.178 257.985 920.654 262.337C912.441 260.243 905.93 268.386 908.5 276.359C910.622 282.96 919.876 286.925 925.914 282.645C931.56 278.645 936.002 271.497 934.039 261.856C932.071 252.211 922.628 242.672 904.226 245.412C887.632 247.885 863.552 261.778 859.723 300.272C857.353 299.524 854.982 298.791 852.622 298.09C845.086 295.84 838.228 293.384 831.993 290.768C826.6 284.08 824.867 277.52 824.738 271.516C824.482 259.741 832.109 252.718 838 252.057C842.425 251.563 846.591 252.799 847.731 256.146C841.411 254.535 836.404 260.799 838.382 266.93C840.012 272.003 847.124 275.053 851.77 271.764C856.111 268.685 859.53 263.19 858.019 255.776C856.507 248.36 849.242 241.026 835.093 243.132C824.145 244.762 811.041 254.905 805.83 276.6C796.022 269.729 789.822 261.632 785.292 254.42C776.995 241.217 767.015 220.857 750.802 206.351C734.228 191.523 718.5 187.271 706.299 185.212C685.69 181.73 670.576 192.876 668.117 204.935C665.659 216.994 670.487 226.153 679.177 231.779C686.949 236.811 698.297 232.174 700.959 223.917C704.17 213.947 696.024 203.758 685.755 206.379C687.6 200.938 694.383 198.921 701.572 199.727C711.156 200.802 731.555 217.126 736.033 242.394C738.557 256.619 739.566 275.496 734.872 295.279C730.559 289.39 725.386 285.238 720.141 282.825C702.217 274.585 689.659 281.515 684.684 290.768C679.716 300.014 682.052 308.622 686.577 314.371C691.416 320.518 702.069 319.215 706.268 313.116C711.336 305.749 707.202 295.513 698.183 295.218C701.025 291.222 707.051 291.182 712.714 293.541C720.261 296.682 727.568 308.934 722.523 324.45C722.178 325.517 721.813 326.638 721.435 327.786C713.127 341.21 701.083 354.107 683.963 365.287C688.511 319.109 669.215 291.543 649.119 282.299C624.244 270.86 606.806 280.479 599.904 293.321C593.004 306.162 596.245 318.108 602.529 326.087C609.248 334.621 624.032 332.814 629.865 324.348C636.899 314.117 631.16 299.912 618.64 299.504C622.589 293.952 630.954 293.9 638.817 297.175C649.293 301.534 659.429 318.541 652.43 340.077C647.692 354.641 641.489 375.371 620.245 390.554C588.31 395.335 551.255 389.28 537.629 380.366C521.41 369.757 510.869 359.624 501.916 332.152C495.295 311.837 483.299 298.65 470.644 292.828C445.764 281.391 428.327 291.011 421.43 303.85C414.529 316.689 417.771 328.635 424.049 336.614C430.773 345.154 445.554 343.344 451.384 334.877C458.425 324.648 452.682 310.442 440.16 310.03C444.109 304.481 452.478 304.428 460.337 307.701C470.813 312.066 480.951 329.068 473.955 350.61C467.733 369.725 458.867 398.438 416.933 412.775C432.053 349.503 408.676 312.476 384.173 301.206C357.866 289.113 339.43 299.284 332.138 312.86C324.843 326.432 328.268 339.064 334.909 347.501C342.014 356.529 357.645 354.611 363.808 345.662C371.251 334.846 365.179 319.827 351.942 319.396C356.118 313.526 364.962 313.469 373.279 316.931C384.352 321.544 394.088 339.64 387.674 362.294C381.646 383.585 370.641 397.311 353.54 404.502C335.802 411.961 312.093 405.634 304.917 399.001C292.833 387.833 291.934 374.227 296.666 367.655C300.215 362.725 305.358 359.646 309.923 361.575C302.411 366.486 304.393 377.32 312.654 380.968C319.498 383.984 329.251 379.59 330.068 371.862C330.831 364.635 328.198 356.114 319.009 350.82C309.816 345.521 295.42 346.119 284.605 362.382C280.178 369.044 277.702 378.509 279.012 389.686C275.975 387.29 272.778 384.83 269.402 382.289C253.24 370.135 232.566 357.269 209.56 345.003C209.112 340.107 209.055 335.538 208.968 331.491C208.557 312.339 220.961 300.916 230.546 299.844C237.734 299.034 244.517 301.052 246.363 306.494C236.091 303.872 227.948 314.061 231.157 324.033C233.818 332.288 245.389 337.247 252.943 331.894C259.998 326.89 265.558 317.951 263.103 305.89C260.64 293.83 248.83 281.899 225.815 285.326C209.629 287.738 190.528 301.573 180.824 330.578C174.088 327.397 167.241 324.309 160.33 321.327C140.634 307.965 135.467 294.296 135.21 282.323C134.881 267.01 144.799 257.875 152.46 257.019C158.21 256.375 163.633 257.985 165.11 262.337C156.897 260.243 150.385 268.386 152.954 276.359C155.078 282.96 164.33 286.925 170.37 282.645C176.013 278.645 180.459 271.497 178.495 261.856C176.527 252.211 167.083 242.672 148.68 245.412C132.089 247.885 108.007 261.778 104.18 300.272C101.808 299.524 99.4387 298.791 97.0779 298.09C89.5422 295.84 82.6824 293.384 76.4495 290.768C71.0554 284.08 69.3206 277.52 69.1889 271.516C68.9365 259.741 76.5633 252.718 82.4545 252.057C86.878 251.563 91.0474 252.799 92.1862 256.146C85.8665 254.535 80.859 260.799 82.835 266.93C84.4698 272.003 91.5805 275.053 96.2249 271.764C100.566 268.685 103.985 263.19 102.475 255.776C100.962 248.36 93.6994 241.026 79.5492 243.132C68.6017 244.762 55.4957 254.905 50.2866 276.6C27.3778 260.556 19.7694 242.36 19.5126 229.631C19.169 212.491 32.4853 203.071 45.0459 202.616C52.5947 202.341 59.2346 205.932 59.2346 213.886C52.4782 211.899 44.1053 218.609 46.7554 226.83C48.9497 233.64 57.6513 236.419 63.8818 232.008C69.7071 227.883 74.7776 219.855 72.7508 209.909C70.7222 199.964 61.9365 184.713 41.6639 184.713C24.0975 184.713 13.8985 188.117 0 199.649V440.637H1511.51Z" fill="#3664AF"/>
<path d="M130.192 195.324C130.192 201.182 125.353 205.932 119.38 205.932C113.408 205.932 108.564 201.182 108.564 195.324C108.564 189.465 113.408 184.717 119.38 184.717C125.353 184.717 130.192 189.465 130.192 195.324Z" fill="#3664AF"/>
<path d="M274.809 213.886C274.809 219.747 269.97 224.497 264.001 224.497C258.025 224.497 253.186 219.747 253.186 213.886C253.186 208.027 258.025 203.278 264.001 203.278C269.97 203.278 274.809 208.027 274.809 213.886Z" fill="#3664AF"/>
<path d="M657.309 256.982C657.309 262.84 652.464 267.59 646.493 267.59C640.52 267.59 635.681 262.84 635.681 256.982C635.681 251.123 640.52 246.375 646.493 246.375C652.464 246.375 657.309 251.123 657.309 256.982Z" fill="#3664AF"/>
<path d="M596.027 240.63C596.027 244.829 592.553 248.238 588.273 248.238C583.99 248.238 580.519 244.829 580.519 240.63C580.519 236.427 583.99 233.021 588.273 233.021C592.553 233.021 596.027 236.427 596.027 240.63Z" fill="#3664AF"/>
<path d="M562.844 311.558C562.844 315.757 559.37 319.167 555.088 319.167C550.805 319.167 547.335 315.757 547.335 311.558C547.335 307.354 550.805 303.949 555.088 303.949C559.37 303.949 562.844 307.354 562.844 311.558Z" fill="#3664AF"/>
<path d="M150.787 225.159C150.787 229.361 147.312 232.769 143.03 232.769C138.748 232.769 135.279 229.361 135.279 225.159C135.279 220.955 138.748 217.55 143.03 217.55C147.312 217.55 150.787 220.955 150.787 225.159Z" fill="#3664AF"/>
<path d="M239.316 196.648C239.316 200.851 235.843 204.257 231.563 204.257C227.278 204.257 223.804 200.851 223.804 196.648C223.804 192.446 227.278 189.041 231.563 189.041C235.843 189.041 239.316 192.446 239.316 196.648Z" fill="#3664AF"/>
<path d="M6.66016 430.025C25.424 403.807 50.5638 387.83 76.7179 380.715C102.871 373.602 136.156 377.262 162.509 392.064C137.967 383.281 107.694 379.728 79.6836 386.833C55.3257 393.013 30.2228 407.16 6.66016 430.025Z" fill="white"/>
<path d="M721.307 201.055C743.807 221.845 749.312 246.071 746.848 279.525C745.457 298.399 739.793 315.087 732.17 328.924C733.104 322.202 733.409 311.161 729.14 301.931C724.844 292.651 716.818 285.286 703.74 287.763C716.563 287.523 719.451 291.32 724.844 299.342C730.188 307.298 730.169 331.865 721.868 344.593C714.671 353.83 706.82 360.996 699.541 365.716C726.91 352.125 750.19 313.027 751.24 279.856C752.259 247.67 747.526 221.51 721.307 201.055Z" fill="white"/>
<path d="M488.022 404.835C503.577 397.011 524.955 389.749 540.496 392.733C556.25 395.759 570.183 398.105 588.083 398.467C567.124 400.835 548.638 397.681 540.218 396.92C522.317 395.304 507.196 398.105 488.022 404.835Z" fill="white"/>
<path d="M481.012 405C489.119 400.025 500.285 390.814 507.111 388.093C515.221 384.861 528.399 383.618 540.818 389.336C530.934 382.871 516.489 379.141 506.861 383.122C499.727 386.066 493.935 394.558 481.012 405Z" fill="white"/>
<path d="M646.237 288.642C661.446 296.1 676.397 318.228 678.425 340.107C680.451 361.987 672.086 386.599 654.347 405.247C638.69 421.709 606.199 432.1 583.645 437.818C619.377 425.138 637.116 414.199 650.546 401.022C660.69 391.072 675.495 362.205 674.117 340.355C672.597 316.238 661.446 299.58 646.237 288.642Z" fill="white"/>
<path d="M661.363 340.854C656.295 363.73 648.012 385.109 618.11 404.007C588.207 422.903 567.426 426.879 543.098 433.342C573.508 429.865 601.246 421.456 622.671 406.99C646.237 391.077 660.346 370.938 661.363 340.854Z" fill="white"/>
<path d="M125.968 264.773C119.633 274.968 113.553 293.365 120.141 316.487C126.731 339.61 143.541 357.162 172.852 369.945C202.501 382.871 223.537 388.839 235.953 400.774C215.933 388.094 184.635 380.146 170.57 373.174C146.497 361.242 123.78 345.304 117.605 318.974C111.778 294.11 116.847 275.715 125.968 264.773Z" fill="white"/>
<path d="M668.761 195.925C656.426 197.817 648.282 205.773 646.77 213.477C646.373 215.42 646.188 217.254 646.188 218.987C646.226 227.054 650.054 232.998 656.519 237.241C658.207 238.331 660.106 238.833 662.1 238.838C666.976 238.884 672.073 235.587 673.583 231.306C669.344 227.536 666.295 222.66 665.056 216.941C664.926 216.933 664.802 216.897 664.67 216.897C663.885 216.897 663.058 216.997 662.198 217.218L656.762 218.624C656.762 218.624 656.289 216.561 657.727 213.389C659.165 210.223 661.996 207.885 664.802 206.506C664.902 205.79 664.986 205.078 665.133 204.348C665.749 201.395 666.996 198.553 668.761 195.925Z" fill="#3664AF"/>
<path d="M596.598 294.129C584.263 296.021 576.119 303.977 574.607 311.681C574.21 313.624 574.024 315.458 574.024 317.191C574.063 325.258 577.891 331.202 584.356 335.445C586.043 336.535 587.943 337.038 589.937 337.042C594.813 337.088 599.91 333.791 601.42 329.51C597.181 325.74 594.132 320.864 592.892 315.145C592.763 315.137 592.638 315.101 592.507 315.101C591.722 315.101 590.895 315.201 590.035 315.422L584.598 316.828C584.598 316.828 584.126 314.765 585.564 311.594C587.001 308.427 589.833 306.089 592.638 304.71C592.738 303.994 592.822 303.282 592.97 302.552C593.586 299.599 594.833 296.757 596.598 294.129Z" fill="#3664AF"/>
<path d="M635.085 194.693C619.605 194.673 609.162 203.838 607.428 212.668C607.033 214.612 606.85 216.448 606.85 218.179C606.89 226.243 610.712 232.192 617.179 236.436C618.866 237.524 620.768 238.023 622.755 238.024C627.767 238.076 633.033 234.608 634.39 230.167C634.773 228.959 634.955 227.756 634.955 226.586C634.932 220.792 630.589 216.095 625.329 216.084C624.544 216.089 623.715 216.191 622.855 216.411L617.421 217.818L619.199 212.58C620.255 209.412 622.651 207.069 625.457 205.695C628.281 204.304 631.532 203.724 634.903 203.719C636.003 203.719 637.125 203.783 638.244 203.908C640.684 204.221 643.368 205.179 646.163 206.677C648.121 203.568 650.785 200.741 654.079 198.408C649.859 196.9 645.797 195.925 642.115 195.298C639.67 194.883 637.326 194.693 635.085 194.693Z" fill="#3664AF"/>
<path d="M320.061 295.386C304.581 295.365 294.139 304.531 292.405 313.36C292.009 315.305 291.826 317.141 291.826 318.871C291.866 326.935 295.689 332.884 302.156 337.129C303.843 338.216 305.745 338.715 307.732 338.717C312.744 338.768 318.01 335.3 319.366 330.86C319.749 329.652 319.932 328.448 319.932 327.279C319.909 321.484 315.566 316.788 310.305 316.777C309.52 316.781 308.692 316.883 307.832 317.103L302.398 318.51L304.176 313.273C305.232 310.105 307.628 307.762 310.434 306.387C313.258 304.997 316.508 304.416 319.879 304.412C320.979 304.412 322.101 304.476 323.221 304.6C325.661 304.914 328.345 305.871 331.14 307.369C333.097 304.261 335.761 301.433 339.056 299.1C334.836 297.592 330.773 296.618 327.092 295.99C324.646 295.576 322.303 295.386 320.061 295.386Z" fill="#3664AF"/>
<path d="M8.22739 301.12C7.37178 316.568 4.40781 330.559 0 343.177V352.629C5.45278 335.932 8.18005 318.502 8.22739 301.12Z" fill="white"/>
<path d="M6.58804 271.612C5.039 281.801 2.77987 291.442 0 300.565V311.03C3.48996 299.156 5.8385 286.063 6.58804 271.612Z" fill="white"/>
<path d="M620.158 390.565C617.145 391.014 614.089 391.367 611.012 391.631C599.894 398.436 584.602 405.609 563.132 413.966C537.34 424.018 505.369 433.989 470.79 440.637H489.976C517.729 434.237 543.268 425.989 564.626 417.663C594.426 406.023 610.392 397.63 620.158 390.565Z" fill="white"/>
<path d="M81.1289 434.06C145.238 411.235 186.127 423.211 219.148 440.637H243.493C207.243 420.774 155.334 401.673 81.1289 434.06Z" fill="white"/>
<path d="M463.541 412.792C487.517 393.474 495.065 374.147 494.567 351.793C494.524 345.188 492.371 329.522 487.176 321.296C490.77 330.501 492.52 343.19 492.52 351.19C492.449 369.37 483.873 395.271 450.012 414.319C446.101 414.811 442.144 415.354 438.167 415.932C468.846 399.28 476.718 380.491 482.024 360.868C483.843 354.134 485.445 340.107 483.119 330.413C483.67 340.233 482.35 351.818 479.895 359.704C474.61 376.472 463.418 399.84 425.718 417.875C397.132 422.678 367.816 429.976 341.905 440.637H367.123C435.451 415.056 509.703 411.43 549.18 410.47C533.046 408.955 502.332 408.624 463.541 412.792Z" fill="white"/>
<path d="M14.2085 215.794C9.22563 229.968 9.90066 247.7 21.8977 268.256C32.7935 286.926 56.024 309.86 80.8587 320.631C57.5442 304.886 36.1723 287.067 24.4294 266.762C13.8877 248.53 10.2391 235.102 14.2085 215.794Z" fill="white"/>
<path d="M364.689 412.458C345.049 423.166 320.549 424.517 293.476 420.534C282.945 407.946 280.015 398.842 279.012 389.686L275.551 386.289C275.745 395.826 277.989 405.477 288.248 419.707C284.855 419.131 281.414 418.455 277.952 417.733C265.313 402.261 251.221 391.622 236.995 383.635C224.68 373.053 215.451 360.084 213.398 347.038L209.56 345.003C211.443 356.93 215.015 366.958 222.826 376.477C216.255 373.483 209.761 370.905 203.455 368.532C196.618 350.975 193.525 332.035 205.877 304.057C197.14 316.446 188.72 339.189 197.84 366.447C190.86 363.88 184.212 361.48 178.029 358.957C177.042 351.38 177.656 339.482 180.824 330.577L177.421 328.814C173.655 337.351 172.153 348.96 172.517 356.594C166.714 353.988 161.421 351.169 156.887 347.813C127.318 325.936 124.004 294.895 129.009 276.54C121.498 297.349 127.318 331.255 156.887 353.132C168.163 361.48 183.426 366.32 199.882 372.221C222.736 380.415 248.141 390.842 269.064 415.747C256.317 412.713 243.191 408.858 229.87 404.502C218.896 400.912 206.192 398.163 192.48 396.418C176.414 380.469 145.189 366.139 116.033 353.065C107.177 335.952 103.125 318.06 104.18 300.272L99.5475 298.865C98.8067 309.367 99.2424 319.871 101.594 331.327C92.1214 324.086 86.8028 319.512 80.0148 310.191C70.6434 297.321 61.2614 281.678 65.6569 260.296C57.7163 277.703 64.9039 298.295 78.3273 315.659C88.5367 328.873 96.6729 334.197 103.419 338.66C104.461 342.221 105.744 345.723 107.291 349.14C93.1216 342.781 79.8903 336.716 69.7071 330.908C26.1198 306.045 6.58804 271.611 6.52668 237.426C4.68308 264.282 15.5457 294.314 42.6361 319.104C35.6939 354.137 18.9674 376.132 0 394.546V409.272C19.8255 389.319 38.6823 361.807 44.1351 320.447C51.1053 326.639 59.0935 332.496 68.1869 337.871C100.331 356.859 145.607 372.124 174.377 394.754C126.933 391.988 71.7111 400.998 33.2182 428.37C90.9984 394.058 178.172 393.562 229.87 410.47C281.567 427.377 330.476 437.073 364.689 418.425C388.926 405.214 395.102 381.632 397.127 362.734C395.102 381.632 388.926 399.247 364.689 412.458Z" fill="white"/>
<path d="M873.455 208.935C873.455 214.792 868.616 219.542 862.641 219.542C856.672 219.542 851.826 214.792 851.826 208.935C851.826 203.077 856.672 198.327 862.641 198.327C868.616 198.327 873.455 203.077 873.455 208.935Z" fill="#3664AF"/>
<path d="M425.52 280.436C425.52 286.295 420.679 291.045 414.707 291.045C408.734 291.045 403.892 286.295 403.892 280.436C403.892 274.578 408.734 269.828 414.707 269.828C420.679 269.828 425.52 274.578 425.52 280.436Z" fill="#3664AF"/>
<path d="M334.446 280.436C334.446 286.295 329.605 291.045 323.633 291.045C317.661 291.045 312.818 286.295 312.818 280.436C312.818 274.578 317.661 269.828 323.633 269.828C329.605 269.828 334.446 274.578 334.446 280.436Z" fill="#3664AF"/>
<path d="M1015.49 248.806C1015.49 254.665 1010.64 259.415 1004.68 259.415C998.7 259.415 993.861 254.665 993.861 248.806C993.861 242.945 998.7 238.198 1004.68 238.198C1010.64 238.198 1015.49 242.945 1015.49 248.806Z" fill="#3664AF"/>
<path d="M1258.19 225.561C1258.19 231.421 1253.35 236.171 1247.39 236.171C1241.41 236.171 1236.57 231.421 1236.57 225.561C1236.57 219.701 1241.41 214.953 1247.39 214.953C1253.35 214.953 1258.19 219.701 1258.19 225.561Z" fill="#3664AF"/>
<path d="M1412.85 256.982C1412.85 262.84 1408.01 267.59 1402.04 267.59C1396.07 267.59 1391.22 262.84 1391.22 256.982C1391.22 251.123 1396.07 246.375 1402.04 246.375C1408.01 246.375 1412.85 251.123 1412.85 256.982Z" fill="#3664AF"/>
<path d="M1351.57 240.63C1351.57 244.829 1348.1 248.238 1343.82 248.238C1339.53 248.238 1336.06 244.829 1336.06 240.63C1336.06 236.427 1339.53 233.021 1343.82 233.021C1348.1 233.021 1351.57 236.427 1351.57 240.63Z" fill="#3664AF"/>
<path d="M1245.85 258.114C1245.85 262.314 1242.37 265.721 1238.09 265.721C1233.81 265.721 1230.34 262.314 1230.34 258.114C1230.34 253.91 1233.81 250.505 1238.09 250.505C1242.37 250.505 1245.85 253.91 1245.85 258.114Z" fill="#3664AF"/>
<path d="M1338.16 329.253C1338.16 333.452 1334.69 336.862 1330.4 336.862C1326.12 336.862 1322.65 333.452 1322.65 329.253C1322.65 325.05 1326.12 321.645 1330.4 321.645C1334.69 321.645 1338.16 325.05 1338.16 329.253Z" fill="#3664AF"/>
<path d="M906.333 225.159C906.333 229.361 902.858 232.769 898.573 232.769C894.291 232.769 890.823 229.361 890.823 225.159C890.823 220.955 894.291 217.55 898.573 217.55C902.858 217.55 906.333 220.955 906.333 225.159Z" fill="#3664AF"/>
<path d="M1177.39 253.83C1177.39 258.033 1173.92 261.439 1169.64 261.439C1165.36 261.439 1161.89 258.033 1161.89 253.83C1161.89 249.627 1165.36 246.222 1169.64 246.222C1173.92 246.222 1177.39 249.627 1177.39 253.83Z" fill="#3664AF"/>
<path d="M980.059 213.924C980.059 218.124 976.588 221.533 972.306 221.533C968.021 221.533 964.546 218.124 964.546 213.924C964.546 209.721 968.021 206.316 972.306 206.316C976.588 206.316 980.059 209.721 980.059 213.924Z" fill="#3664AF"/>
<path d="M452.199 238.865C452.199 243.067 448.728 246.474 444.447 246.474C440.162 246.474 436.688 243.067 436.688 238.865C436.688 234.663 440.162 231.258 444.447 231.258C448.728 231.258 452.199 234.663 452.199 238.865Z" fill="#3664AF"/>
<path d="M260.758 248.842C260.758 253.044 257.287 256.451 253.007 256.451C248.721 256.451 245.247 253.044 245.247 248.842C245.247 244.64 248.721 241.234 253.007 241.234C257.287 241.234 260.758 244.64 260.758 248.842Z" fill="#3664AF"/>
<path d="M762.204 430.025C780.968 403.807 806.11 387.83 832.263 380.715C858.415 373.602 891.7 377.262 918.052 392.064C893.509 383.281 863.24 379.728 835.226 386.833C810.869 393.013 785.769 407.16 762.204 430.025Z" fill="white"/>
<path d="M1476.85 201.055C1499.35 221.845 1504.86 246.071 1502.39 279.525C1501 298.399 1495.34 315.087 1487.71 328.924C1488.65 322.202 1488.95 311.161 1484.68 301.931C1480.39 292.651 1472.36 285.286 1459.28 287.763C1472.11 287.523 1474.99 291.32 1480.39 299.342C1485.73 307.298 1485.71 331.865 1477.41 344.593C1470.22 353.83 1462.36 360.996 1455.09 365.716C1482.45 352.125 1505.73 313.027 1506.78 279.856C1507.8 247.67 1503.07 221.51 1476.85 201.055Z" fill="white"/>
<path d="M1243.57 404.835C1259.12 397.011 1280.5 389.749 1296.04 392.733C1311.8 395.759 1325.73 398.105 1343.63 398.467C1322.67 400.835 1304.18 397.681 1295.76 396.92C1277.86 395.304 1262.74 398.105 1243.57 404.835Z" fill="white"/>
<path d="M1236.56 405C1244.66 400.025 1255.83 390.814 1262.66 388.093C1270.77 384.861 1283.94 383.618 1296.36 389.336C1286.48 382.871 1272.03 379.141 1262.4 383.122C1255.27 386.066 1249.48 394.558 1236.56 405Z" fill="white"/>
<path d="M1401.78 288.642C1416.99 296.1 1431.94 318.228 1433.97 340.107C1436 361.987 1427.63 386.599 1409.89 405.247C1394.23 421.709 1361.74 432.1 1339.19 437.818C1374.92 425.138 1392.66 414.199 1406.09 401.022C1416.23 391.072 1431.04 362.205 1429.66 340.355C1428.14 316.238 1416.99 299.58 1401.78 288.642Z" fill="white"/>
<path d="M1416.91 340.854C1411.84 363.73 1403.56 385.109 1373.66 404.007C1343.75 422.903 1322.97 426.879 1298.65 433.342C1329.05 429.865 1356.79 421.456 1378.21 406.99C1401.78 391.077 1415.89 370.938 1416.91 340.854Z" fill="white"/>
<path d="M881.514 264.773C875.177 274.968 869.097 293.365 875.686 316.487C882.275 339.61 899.085 357.162 928.397 369.945C958.045 382.871 979.082 388.839 991.498 400.774C971.476 388.094 940.183 380.146 926.114 373.174C902.041 361.242 879.322 345.304 873.15 318.974C867.322 294.11 872.393 275.715 881.514 264.773Z" fill="white"/>
<path d="M1424.31 195.925C1411.97 197.817 1403.83 205.773 1402.32 213.477C1401.92 215.42 1401.73 217.254 1401.73 218.987C1401.77 227.054 1405.6 232.998 1412.06 237.241C1413.75 238.331 1415.65 238.833 1417.65 238.838C1422.52 238.884 1427.62 235.587 1429.13 231.306C1424.89 227.536 1421.84 222.66 1420.6 216.941C1420.47 216.933 1420.35 216.897 1420.22 216.897C1419.43 216.897 1418.6 216.997 1417.74 217.218L1412.31 218.624C1412.31 218.624 1411.83 216.561 1413.27 213.389C1414.71 210.223 1417.54 207.885 1420.35 206.506C1420.45 205.79 1420.53 205.078 1420.68 204.348C1421.29 201.395 1422.54 198.553 1424.31 195.925Z" fill="#3664AF"/>
<path d="M1390.63 194.693C1375.15 194.673 1364.71 203.838 1362.97 212.668C1362.57 214.612 1362.39 216.448 1362.39 218.179C1362.43 226.243 1366.26 232.192 1372.72 236.436C1374.41 237.524 1376.31 238.023 1378.3 238.024C1383.31 238.076 1388.58 234.608 1389.93 230.167C1390.32 228.959 1390.5 227.756 1390.5 226.586C1390.48 220.792 1386.14 216.095 1380.87 216.084C1380.09 216.089 1379.26 216.191 1378.4 216.411L1372.97 217.818L1374.75 212.58C1375.8 209.412 1378.2 207.069 1381 205.695C1383.83 204.304 1387.08 203.724 1390.45 203.719C1391.55 203.719 1392.67 203.783 1393.79 203.908C1396.23 204.221 1398.91 205.179 1401.71 206.677C1403.67 203.568 1406.33 200.741 1409.62 198.408C1405.4 196.9 1401.34 195.925 1397.66 195.298C1395.21 194.883 1392.87 194.693 1390.63 194.693Z" fill="#3664AF"/>
<path d="M755.972 409.273C776.395 388.72 795.408 360.19 800.177 316.715L798.971 315.009C792.564 352.468 775.673 375.418 755.972 394.546C753.104 397.327 750.195 400.032 747.252 402.686C729.183 418.986 713.436 430.937 695.468 440.637H719.126C728.301 434.004 737.43 426.435 747.252 417.574C750.156 414.958 753.071 412.19 755.972 409.273Z" fill="white"/>
<path d="M755.972 352.629C761.425 335.932 763.726 318.502 763.771 301.12C762.916 316.568 760.38 330.559 755.972 343.177C745.695 372.586 727.552 394.482 709.745 409.648C694.886 422.303 682.113 432.296 668.972 440.637H687.491C696.361 433.976 705.263 426.585 714.091 418.402C734.238 399.734 748.025 376.967 755.972 352.629Z" fill="white"/>
<path d="M755.972 311.03C759.462 299.156 761.385 286.063 762.132 271.612C760.584 281.801 758.75 291.442 755.972 300.565C744.89 336.941 725.171 364.706 705.52 382.45C696.715 390.384 688.488 397.264 680.302 403.359C684.981 389.153 685.853 376.459 686.918 363.3C685.951 363.968 684.965 364.631 683.963 365.288C681.654 379.627 679.75 393.378 672.769 408.749C652.783 422.445 632.032 431.882 602.641 440.637H615.94C654.209 427.885 678.173 412.561 708.267 385.378C726.783 368.684 746.035 344.818 755.972 311.03Z" fill="white"/>
<path d="M1469.64 418.402C1489.78 399.734 1503.57 376.967 1511.52 352.629V343.177C1501.24 372.586 1483.1 394.482 1465.29 409.648C1450.43 422.303 1437.66 432.296 1424.52 440.637H1443.04C1451.91 433.976 1460.81 426.585 1469.64 418.402Z" fill="white"/>
<path d="M1511.51 409.273V394.546C1508.65 397.326 1505.74 400.032 1502.8 402.685C1484.73 418.986 1468.98 430.936 1451.01 440.637H1474.67C1483.84 434.004 1492.98 426.434 1502.8 417.573C1505.7 414.958 1508.62 412.19 1511.51 409.273Z" fill="white"/>
<path d="M1375.7 390.565C1372.69 391.014 1369.63 391.367 1366.55 391.631C1355.44 398.436 1340.14 405.609 1318.68 413.966C1292.88 424.018 1260.91 433.989 1226.34 440.637H1245.52C1273.28 434.237 1298.81 425.989 1320.17 417.663C1349.97 406.023 1365.94 397.63 1375.7 390.565Z" fill="white"/>
<path d="M836.674 434.06C900.782 411.235 941.672 423.211 974.69 440.637H999.037C962.789 420.774 910.877 401.673 836.674 434.06Z" fill="white"/>
<path d="M1511.51 311.029V300.564C1500.43 336.941 1480.72 364.705 1461.07 382.449C1452.26 390.383 1444.03 397.264 1435.85 403.358C1440.53 389.153 1441.4 376.458 1442.46 363.299C1441.49 363.968 1440.51 364.63 1439.51 365.287C1437.2 379.627 1435.29 393.377 1428.31 408.749C1408.33 422.444 1387.58 431.881 1358.18 440.637H1371.49C1409.75 427.884 1433.72 412.56 1463.81 385.378C1482.33 368.683 1501.58 344.818 1511.51 311.029Z" fill="white"/>
<path d="M1219.08 412.792C1243.06 393.474 1250.61 374.147 1250.11 351.793C1250.07 345.188 1247.92 329.522 1242.72 321.296C1246.31 330.501 1248.07 343.19 1248.07 351.19C1248 369.37 1239.42 395.271 1205.56 414.319C1201.65 414.811 1197.69 415.354 1193.71 415.932C1224.39 399.28 1232.26 380.491 1237.57 360.868C1239.39 354.134 1240.99 340.107 1238.66 330.413C1239.22 340.233 1237.89 351.818 1235.44 359.704C1230.15 376.472 1218.96 399.84 1181.26 417.875C1152.68 422.678 1123.36 429.976 1097.45 440.637H1122.67C1190.99 415.056 1265.25 411.43 1304.73 410.47C1288.59 408.955 1257.88 408.624 1219.08 412.792Z" fill="white"/>
<path d="M1120.23 412.458C1100.59 423.166 1076.1 424.517 1049.02 420.534C1038.49 407.946 1035.56 398.842 1034.56 389.686L1031.1 386.289C1031.29 395.826 1033.54 405.477 1043.79 419.707C1040.4 419.131 1036.96 418.455 1033.5 417.733C1020.86 402.261 1006.77 391.622 992.54 383.635C980.225 373.053 970.995 360.084 968.944 347.038L965.108 345.003C966.987 356.93 970.56 366.958 978.37 376.477C971.802 373.483 965.304 370.905 958.999 368.532C952.161 350.975 949.068 332.035 961.422 304.057C952.684 316.446 944.264 339.189 953.385 366.447C946.403 363.88 939.758 361.48 933.573 358.957C932.587 351.38 933.201 339.482 936.368 330.577L932.966 328.814C929.2 337.352 927.696 348.96 928.06 356.594C922.26 353.988 916.962 351.17 912.431 347.813C882.864 325.936 879.546 294.895 884.554 276.54C877.043 297.349 882.864 331.255 912.431 353.133C923.709 361.48 938.969 366.32 955.426 372.221C978.282 380.416 1003.69 390.843 1024.61 415.747C1011.86 412.714 998.736 408.858 985.415 404.502C974.439 400.912 961.738 398.163 948.023 396.418C931.96 380.469 900.733 366.139 871.576 353.065C862.722 335.952 858.671 318.06 859.724 300.272L855.091 298.865C854.351 309.367 854.786 319.871 857.139 331.328C847.664 324.086 842.348 319.512 835.559 310.191C826.186 297.321 816.806 281.678 821.2 260.296C813.261 277.703 820.45 298.295 833.873 315.659C844.081 328.873 852.216 334.198 858.966 338.66C860.008 342.221 861.288 345.723 862.834 349.141C848.667 342.781 835.433 336.716 825.253 330.908C781.663 306.045 777.146 281.06 762.278 246.554C772.265 279.189 777.865 310.77 823.732 337.871C855.877 356.859 901.151 372.124 929.922 394.754C882.481 391.988 827.256 400.998 788.764 428.371C846.542 394.058 933.717 393.562 985.415 410.47C1037.11 427.377 1086.02 437.073 1120.23 418.425C1144.47 405.215 1150.65 381.632 1152.67 362.734C1150.65 381.632 1144.47 399.247 1120.23 412.458Z" fill="white"/>
</svg>
