<svg width="239" height="21" viewBox="0 0 239 21" fill="none" xmlns="http://www.w3.org/2000/svg">
<path d="M0.944563 2.171H4.66318V20H0.944563V2.171ZM7.00642 20H3.2878V16.6889H6.87907C7.66015 16.6889 8.39878 16.587 9.09496 16.3833C9.79114 16.1625 10.4024 15.8229 10.9288 15.3645C11.4552 14.906 11.8627 14.3287 12.1514 13.6325C12.457 12.9193 12.6098 12.0703 12.6098 11.0855C12.6098 10.1007 12.457 9.26015 12.1514 8.56397C11.8627 7.85081 11.4552 7.265 10.9288 6.80654C10.4024 6.34808 9.79114 6.01697 9.09496 5.81321C8.39878 5.59247 7.66015 5.4821 6.87907 5.4821H3.2878V2.171H7.00642C8.87422 2.171 10.5043 2.53607 11.8967 3.26621C13.306 3.99635 14.4012 5.03213 15.1823 6.37355C15.9634 7.69799 16.3539 9.26864 16.3539 11.0855C16.3539 12.9024 15.9634 14.4815 15.1823 15.8229C14.4012 17.1474 13.306 18.1746 11.8967 18.9048C10.5043 19.6349 8.87422 20 7.00642 20ZM18.8454 14.1419C18.8454 12.9193 19.1256 11.8496 19.6859 10.9327C20.2632 10.0158 21.0358 9.3026 22.0037 8.7932C22.9885 8.2838 24.1007 8.0291 25.3402 8.0291C26.5798 8.0291 27.6835 8.2838 28.6513 8.7932C29.6362 9.3026 30.4088 10.0158 30.9691 10.9327C31.5464 11.8496 31.8351 12.9193 31.8351 14.1419C31.8351 15.3475 31.5464 16.4172 30.9691 17.3511C30.4088 18.268 29.6362 18.9812 28.6513 19.4906C27.6835 20 26.5798 20.2547 25.3402 20.2547C24.1007 20.2547 22.9885 20 22.0037 19.4906C21.0358 18.9812 20.2632 18.268 19.6859 17.3511C19.1256 16.4172 18.8454 15.3475 18.8454 14.1419ZM22.2074 14.1419C22.2074 14.8041 22.3433 15.3899 22.615 15.8993C22.9036 16.3917 23.2857 16.7823 23.7611 17.071C24.2365 17.3426 24.7629 17.4785 25.3402 17.4785C25.9176 17.4785 26.4439 17.3426 26.9194 17.071C27.3948 16.7823 27.7684 16.3917 28.0401 15.8993C28.3287 15.3899 28.4731 14.8041 28.4731 14.1419C28.4731 13.4797 28.3287 12.8939 28.0401 12.3845C27.7684 11.8751 27.3948 11.4845 26.9194 11.2128C26.4439 10.9412 25.9176 10.8053 25.3402 10.8053C24.7629 10.8053 24.2365 10.9412 23.7611 11.2128C23.2857 11.4845 22.9036 11.8751 22.615 12.3845C22.3433 12.8939 22.2074 13.4797 22.2074 14.1419ZM32.9691 8.2838H36.484L39.0564 14.7786L42.3675 7.39235L45.806 14.8041L48.4039 8.2838H51.8933L46.1626 20.7896L42.393 13.3269L38.7253 20.7896L32.9691 8.2838ZM61.784 12.8684C61.784 12.0873 61.6312 11.493 61.3256 11.0855C61.0199 10.678 60.5275 10.4742 59.8483 10.4742C59.3899 10.4742 58.9823 10.5761 58.6258 10.7799C58.2692 10.9666 57.9975 11.2383 57.8107 11.5949C57.6239 11.9515 57.5305 12.376 57.5305 12.8684V20H54.2194V8.2838H57.5305V10.0667C57.8871 9.40448 58.3541 8.90357 58.9314 8.56397C59.5257 8.20739 60.2389 8.0291 61.0709 8.0291C62.4632 8.0291 63.499 8.42813 64.1782 9.22619C64.8574 10.0073 65.197 11.1025 65.197 12.5118V20H61.784V12.8684ZM69.2109 0.1334H72.522V20H69.2109V0.1334ZM75.7519 14.1419C75.7519 12.9193 76.0321 11.8496 76.5925 10.9327C77.1698 10.0158 77.9424 9.3026 78.9102 8.7932C79.8951 8.2838 81.0073 8.0291 82.2468 8.0291C83.4863 8.0291 84.59 8.2838 85.5579 8.7932C86.5427 9.3026 87.3153 10.0158 87.8757 10.9327C88.453 11.8496 88.7416 12.9193 88.7416 14.1419C88.7416 15.3475 88.453 16.4172 87.8757 17.3511C87.3153 18.268 86.5427 18.9812 85.5579 19.4906C84.59 20 83.4863 20.2547 82.2468 20.2547C81.0073 20.2547 79.8951 20 78.9102 19.4906C77.9424 18.9812 77.1698 18.268 76.5925 17.3511C76.0321 16.4172 75.7519 15.3475 75.7519 14.1419ZM79.114 14.1419C79.114 14.8041 79.2498 15.3899 79.5215 15.8993C79.8102 16.3917 80.1922 16.7823 80.6677 17.071C81.1431 17.3426 81.6695 17.4785 82.2468 17.4785C82.8241 17.4785 83.3505 17.3426 83.8259 17.071C84.3014 16.7823 84.6749 16.3917 84.9466 15.8993C85.2353 15.3899 85.3796 14.8041 85.3796 14.1419C85.3796 13.4797 85.2353 12.8939 84.9466 12.3845C84.6749 11.8751 84.3014 11.4845 83.8259 11.2128C83.3505 10.9412 82.8241 10.8053 82.2468 10.8053C81.6695 10.8053 81.1431 10.9412 80.6677 11.2128C80.1922 11.4845 79.8102 11.8751 79.5215 12.3845C79.2498 12.8939 79.114 13.4797 79.114 14.1419ZM94.3239 16.3578C94.3239 16.6974 94.4088 16.9945 94.5786 17.2492C94.7484 17.487 94.9777 17.6737 95.2663 17.8096C95.572 17.9284 95.9031 17.9879 96.2597 17.9879C96.7691 17.9879 97.2275 17.886 97.635 17.6822C98.0426 17.4615 98.3737 17.1559 98.6284 16.7653C98.8831 16.3578 99.0104 15.8739 99.0104 15.3135L99.4179 16.8417C99.4179 17.5888 99.2057 18.2171 98.7812 18.7265C98.3737 19.2359 97.8388 19.6179 97.1766 19.8726C96.5313 20.1274 95.8521 20.2547 95.139 20.2547C94.4088 20.2547 93.7296 20.1104 93.1014 19.8217C92.4731 19.5331 91.9637 19.117 91.5732 18.5737C91.1996 18.0133 91.0128 17.3341 91.0128 16.5361C91.0128 15.3984 91.4119 14.4985 92.2099 13.8363C93.008 13.174 94.1372 12.8429 95.5974 12.8429C96.3446 12.8429 96.9983 12.9193 97.5586 13.0722C98.136 13.225 98.6199 13.4118 99.0104 13.6325C99.401 13.8532 99.6811 14.0655 99.8509 14.2692V15.7974C99.3925 15.4579 98.8746 15.2032 98.2973 15.0333C97.7369 14.8635 97.1426 14.7786 96.5144 14.7786C96.005 14.7786 95.589 14.8466 95.2663 14.9824C94.9437 15.1013 94.706 15.2796 94.5532 15.5173C94.4004 15.738 94.3239 16.0182 94.3239 16.3578ZM93.0504 11.5949L91.8279 9.35354C92.4392 9.03092 93.1863 8.72528 94.0692 8.43662C94.9522 8.13098 95.937 7.97816 97.0238 7.97816C98.0256 7.97816 98.917 8.12249 99.6981 8.41115C100.479 8.69981 101.09 9.12431 101.532 9.68465C101.973 10.228 102.194 10.8987 102.194 11.6968V20H99.0104V12.3845C99.0104 12.0618 98.9595 11.7902 98.8576 11.5694C98.7557 11.3317 98.5944 11.1364 98.3737 10.9836C98.1699 10.8308 97.9237 10.7204 97.635 10.6525C97.3464 10.5846 97.0238 10.5506 96.6672 10.5506C96.1238 10.5506 95.6059 10.6101 95.1135 10.7289C94.6211 10.8478 94.1966 10.9921 93.84 11.1619C93.4834 11.3317 93.2202 11.476 93.0504 11.5949ZM114.865 0.1334H118.176V20H114.865V0.1334ZM105.237 14.1419C105.237 12.8344 105.501 11.7307 106.027 10.8308C106.553 9.91388 107.25 9.2177 108.116 8.74226C108.982 8.26682 109.898 8.0291 110.866 8.0291C111.851 8.0291 112.717 8.27531 113.464 8.76773C114.228 9.26015 114.823 9.96482 115.247 10.8817C115.689 11.7817 115.909 12.8684 115.909 14.1419C115.909 15.3984 115.689 16.4851 115.247 17.4021C114.823 18.319 114.228 19.0237 113.464 19.5161C112.717 20.0085 111.851 20.2547 110.866 20.2547C109.898 20.2547 108.982 20.017 108.116 19.5415C107.25 19.0661 106.553 18.3699 106.027 17.453C105.501 16.5361 105.237 15.4324 105.237 14.1419ZM108.65 14.1419C108.65 14.8381 108.795 15.4409 109.083 15.9503C109.372 16.4597 109.763 16.8502 110.255 17.1219C110.747 17.3936 111.274 17.5294 111.834 17.5294C112.327 17.5294 112.802 17.4021 113.26 17.1474C113.736 16.8757 114.118 16.4851 114.407 15.9757C114.712 15.4663 114.865 14.8551 114.865 14.1419C114.865 13.4287 114.712 12.8175 114.407 12.3081C114.118 11.7987 113.736 11.4166 113.26 11.1619C112.802 10.8902 112.327 10.7544 111.834 10.7544C111.274 10.7544 110.747 10.8902 110.255 11.1619C109.763 11.4336 109.372 11.8241 109.083 12.3335C108.795 12.8429 108.65 13.4457 108.65 14.1419ZM133.544 10.9581V9.3026H136.422C136.948 9.3026 137.407 9.2177 137.797 9.0479C138.188 8.8781 138.485 8.63189 138.689 8.30927C138.91 7.98665 139.02 7.6046 139.02 7.16312C139.02 6.48392 138.782 5.96603 138.307 5.60945C137.848 5.25287 137.22 5.07458 136.422 5.07458H134.461V17.0964H136.804C137.415 17.0964 137.967 17.0115 138.46 16.8417C138.952 16.6549 139.334 16.3663 139.606 15.9757C139.894 15.5852 140.039 15.0843 140.039 14.473C140.039 14.0315 139.954 13.658 139.784 13.3523C139.631 13.0297 139.402 12.7665 139.096 12.5628C138.808 12.342 138.468 12.1892 138.078 12.1043C137.687 12.0024 137.263 11.9515 136.804 11.9515H133.544V9.96482H137.135C138.001 9.96482 138.825 10.0582 139.606 10.245C140.404 10.4318 141.117 10.7289 141.745 11.1364C142.374 11.527 142.866 12.0364 143.223 12.6646C143.596 13.2929 143.783 14.0485 143.783 14.9315C143.783 16.1031 143.503 17.0625 142.942 17.8096C142.399 18.5567 141.626 19.1085 140.625 19.4651C139.623 19.8217 138.46 20 137.135 20H130.819V2.171H136.753C137.942 2.171 138.986 2.3408 139.886 2.6804C140.786 3.00302 141.491 3.49544 142 4.15766C142.509 4.81988 142.764 5.66039 142.764 6.67919C142.764 7.57913 142.509 8.35172 142 8.99696C141.491 9.6422 140.786 10.1346 139.886 10.4742C138.986 10.7968 137.942 10.9581 136.753 10.9581H133.544ZM150.58 8.2838V20H147.345V8.2838H150.58ZM154.018 11.7222C153.798 11.5185 153.568 11.3657 153.331 11.2638C153.11 11.1449 152.83 11.0855 152.49 11.0855C152.083 11.0855 151.734 11.1959 151.446 11.4166C151.157 11.6374 150.936 11.9515 150.784 12.359C150.648 12.7495 150.58 13.225 150.58 13.7853L149.663 12.8684C149.663 11.9345 149.841 11.111 150.198 10.3978C150.554 9.66767 151.021 9.09035 151.599 8.66585C152.176 8.22437 152.77 8.00363 153.382 8.00363C153.806 8.00363 154.205 8.08004 154.579 8.23286C154.969 8.38568 155.283 8.61491 155.521 8.92055L154.018 11.7222ZM156.871 14.1419C156.871 12.9193 157.151 11.8496 157.711 10.9327C158.289 10.0158 159.061 9.3026 160.029 8.7932C161.014 8.2838 162.126 8.0291 163.366 8.0291C164.605 8.0291 165.709 8.2838 166.677 8.7932C167.662 9.3026 168.434 10.0158 168.995 10.9327C169.572 11.8496 169.861 12.9193 169.861 14.1419C169.861 15.3475 169.572 16.4172 168.995 17.3511C168.434 18.268 167.662 18.9812 166.677 19.4906C165.709 20 164.605 20.2547 163.366 20.2547C162.126 20.2547 161.014 20 160.029 19.4906C159.061 18.9812 158.289 18.268 157.711 17.3511C157.151 16.4172 156.871 15.3475 156.871 14.1419ZM160.233 14.1419C160.233 14.8041 160.369 15.3899 160.64 15.8993C160.929 16.3917 161.311 16.7823 161.787 17.071C162.262 17.3426 162.788 17.4785 163.366 17.4785C163.943 17.4785 164.469 17.3426 164.945 17.071C165.42 16.7823 165.794 16.3917 166.066 15.8993C166.354 15.3899 166.499 14.8041 166.499 14.1419C166.499 13.4797 166.354 12.8939 166.066 12.3845C165.794 11.8751 165.42 11.4845 164.945 11.2128C164.469 10.9412 163.943 10.8053 163.366 10.8053C162.788 10.8053 162.262 10.9412 161.787 11.2128C161.311 11.4845 160.929 11.8751 160.64 12.3845C160.369 12.8939 160.233 13.4797 160.233 14.1419ZM175.596 14.1419C175.596 14.8211 175.749 15.4154 176.054 15.9248C176.36 16.4342 176.767 16.8332 177.277 17.1219C177.803 17.4106 178.38 17.5549 179.009 17.5549C179.518 17.5549 180.011 17.4785 180.486 17.3256C180.961 17.1559 181.386 16.9351 181.759 16.6634C182.15 16.3748 182.447 16.0437 182.651 15.6701V19.0576C182.243 19.4312 181.709 19.7283 181.046 19.9491C180.401 20.1528 179.645 20.2547 178.779 20.2547C177.54 20.2547 176.419 20 175.417 19.4906C174.433 18.9812 173.652 18.268 173.074 17.3511C172.514 16.4172 172.234 15.3475 172.234 14.1419C172.234 12.9193 172.514 11.8496 173.074 10.9327C173.652 10.0158 174.433 9.3026 175.417 8.7932C176.419 8.2838 177.54 8.0291 178.779 8.0291C179.645 8.0291 180.401 8.13947 181.046 8.36021C181.709 8.56397 182.243 8.84414 182.651 9.20072V12.5882C182.447 12.2147 182.142 11.892 181.734 11.6204C181.343 11.3317 180.91 11.111 180.435 10.9581C179.96 10.8053 179.484 10.7289 179.009 10.7289C178.38 10.7289 177.803 10.8817 177.277 11.1874C176.767 11.476 176.36 11.8751 176.054 12.3845C175.749 12.8939 175.596 13.4797 175.596 14.1419ZM189.636 0.1334V20H186.325V0.1334H189.636ZM193.89 12.8684C193.89 12.0873 193.737 11.493 193.431 11.0855C193.143 10.678 192.65 10.4742 191.954 10.4742C191.496 10.4742 191.088 10.5761 190.731 10.7799C190.375 10.9666 190.103 11.2383 189.916 11.5949C189.73 11.9515 189.636 12.376 189.636 12.8684H188.974C188.974 11.9345 189.127 11.094 189.433 10.3469C189.755 9.59975 190.231 9.00545 190.859 8.56397C191.487 8.12249 192.26 7.90175 193.177 7.90175C194.094 7.90175 194.849 8.07155 195.443 8.41115C196.038 8.75075 196.479 9.26015 196.768 9.93935C197.057 10.6016 197.201 11.4166 197.201 12.3845V20H193.89V12.8684ZM204.63 15.4154C204.63 16.1795 204.783 16.7738 205.089 17.1983C205.394 17.6058 205.887 17.8096 206.566 17.8096C207.041 17.8096 207.449 17.7162 207.788 17.5294C208.145 17.3256 208.417 17.0455 208.603 16.6889C208.807 16.3323 208.909 15.9078 208.909 15.4154V8.2838H212.195V20H208.909V18.2171C208.536 18.8793 208.06 19.3887 207.483 19.7453C206.905 20.0849 206.201 20.2547 205.369 20.2547C203.976 20.2547 202.932 19.8557 202.236 19.0576C201.557 18.2595 201.217 17.1643 201.217 15.772V8.2838H204.63V15.4154ZM219.443 8.2838V20H216.209V8.2838H219.443ZM222.882 11.7222C222.661 11.5185 222.432 11.3657 222.194 11.2638C221.973 11.1449 221.693 11.0855 221.354 11.0855C220.946 11.0855 220.598 11.1959 220.309 11.4166C220.021 11.6374 219.8 11.9515 219.647 12.359C219.511 12.7495 219.443 13.225 219.443 13.7853L218.526 12.8684C218.526 11.9345 218.705 11.111 219.061 10.3978C219.418 9.66767 219.885 9.09035 220.462 8.66585C221.039 8.22437 221.634 8.00363 222.245 8.00363C222.67 8.00363 223.069 8.08004 223.442 8.23286C223.833 8.38568 224.147 8.61491 224.385 8.92055L222.882 11.7222ZM232.051 20.2547C230.777 20.2547 229.665 20 228.714 19.4906C227.764 18.9812 227.025 18.2765 226.499 17.3766C225.989 16.4597 225.734 15.3814 225.734 14.1419C225.734 12.8854 225.989 11.8071 226.499 10.9072C227.025 9.99029 227.764 9.28562 228.714 8.7932C229.665 8.2838 230.786 8.0291 232.076 8.0291C233.367 8.0291 234.462 8.26682 235.362 8.74226C236.279 9.20072 236.975 9.87992 237.451 10.7799C237.926 11.6628 238.164 12.7326 238.164 13.9891C238.164 14.1419 238.155 14.3032 238.138 14.473C238.138 14.6428 238.13 14.7786 238.113 14.8805H227.619V12.8429H235.235L234.343 14.0145C234.411 13.9127 234.471 13.7768 234.522 13.607C234.59 13.4202 234.623 13.2674 234.623 13.1486C234.623 12.5712 234.513 12.0788 234.292 11.6713C234.089 11.2638 233.791 10.9412 233.401 10.7035C233.01 10.4657 232.552 10.3469 232.026 10.3469C231.38 10.3469 230.837 10.4912 230.395 10.7799C229.971 11.0515 229.64 11.4675 229.402 12.0279C229.181 12.5712 229.063 13.2504 229.046 14.0655C229.046 14.8466 229.156 15.5088 229.377 16.0522C229.614 16.5955 229.962 17.0115 230.421 17.3002C230.879 17.5888 231.431 17.7332 232.076 17.7332C232.807 17.7332 233.426 17.5973 233.936 17.3256C234.462 17.037 234.895 16.6125 235.235 16.0522L238.113 16.9436C237.502 18.0473 236.687 18.8793 235.668 19.4397C234.666 19.983 233.46 20.2547 232.051 20.2547Z" fill="#3664AF"/>
</svg>
