<svg width="38" height="38" viewBox="0 0 38 38" fill="none" xmlns="http://www.w3.org/2000/svg">
<g clip-path="url(#clip0_847_379)">
<path d="M31.6892 0.871094H5.97582C2.93273 0.871094 0.46582 3.338 0.46582 6.38109V32.0944C0.46582 35.1375 2.93273 37.6044 5.97582 37.6044H31.6892C34.7322 37.6044 37.1992 35.1375 37.1992 32.0944V6.38109C37.1992 3.338 34.7322 0.871094 31.6892 0.871094Z" fill="#3B5998"/>
<path d="M21.0566 33.5866V12.1349C21.0566 10.6283 21.4871 9.62383 23.5677 9.62383H26.294V5.10391C25.7918 5.03216 24.2134 4.88867 22.348 4.88867C18.4738 4.88867 15.8193 7.25625 15.8193 11.6327V33.5866M26.0788 15.3634H11.3711V20.529H25.4331" fill="white"/>
</g>
<defs>
<clipPath id="clip0_847_379">
<rect width="36.7333" height="36.7333" fill="white" transform="translate(0.466797 0.871094)"/>
</clipPath>
</defs>
</svg>
