<svg width="39" height="39" viewBox="0 0 39 39" fill="none" xmlns="http://www.w3.org/2000/svg">
<g clip-path="url(#clip0_847_382)">
<path d="M32.5002 0.871094H5.9002C2.75217 0.871094 0.200195 3.42307 0.200195 6.57109V33.1711C0.200195 36.3191 2.75217 38.8711 5.9002 38.8711H32.5002C35.6482 38.8711 38.2002 36.3191 38.2002 33.1711V6.57109C38.2002 3.42307 35.6482 0.871094 32.5002 0.871094Z" fill="#0077B5"/>
<path d="M10.7393 13.8594C12.2559 13.8594 13.4854 12.6299 13.4854 11.1133C13.4854 9.59666 12.2559 8.36719 10.7393 8.36719C9.22263 8.36719 7.99316 9.59666 7.99316 11.1133C7.99316 12.6299 9.22263 13.8594 10.7393 13.8594Z" fill="white"/>
<path d="M18.3096 15.2695V29.9648V15.2695ZM10.7393 15.2695V29.9648V15.2695Z" fill="white"/>
<path d="M18.3096 15.2695V29.9648M10.7393 15.2695V29.9648" stroke="white" stroke-width="4.55565"/>
<path d="M20.6846 21.8008C20.6846 20.3164 21.6494 18.832 23.3564 18.832C25.1377 18.832 25.8057 20.168 25.8057 22.1719V29.9648H30.7041V21.5781C30.7041 17.0508 28.3291 14.9727 25.0635 14.9727C22.54 14.9727 21.2783 16.3828 20.6846 17.3477" fill="white"/>
</g>
<defs>
<clipPath id="clip0_847_382">
<rect width="38" height="38" fill="white" transform="translate(0.200195 0.871094)"/>
</clipPath>
</defs>
</svg>
