<svg width="430" height="508" viewBox="0 0 430 508" fill="none" xmlns="http://www.w3.org/2000/svg">
<path d="M1085.34 0H-656V507.637H1085.34V0Z" fill="white"/>
<path d="M1085.34 507.637V230.006C1081.35 233.478 1078.87 236.324 1075.94 240.812C1061.08 222.435 1042.17 215.746 1028.12 213.374C1004.38 209.363 986.963 222.203 984.131 236.096C981.299 249.988 986.862 260.54 996.872 267.021C1005.83 272.819 1018.9 267.477 1021.97 257.964C1025.67 246.478 1016.28 234.74 1004.45 237.759C1006.58 231.492 1014.39 229.167 1022.67 230.096C1033.72 231.334 1057.22 250.14 1062.38 279.251C1065.28 295.638 1066.45 317.385 1061.04 340.177C1056.07 333.393 1050.11 328.61 1044.07 325.829C1023.42 316.337 1008.95 324.32 1003.22 334.98C997.495 345.631 1000.19 355.549 1005.4 362.172C1010.98 369.253 1023.24 367.753 1028.08 360.726C1033.92 352.239 1029.16 340.447 1018.77 340.107C1022.05 335.502 1028.98 335.457 1035.51 338.174C1044.2 341.794 1052.63 355.908 1046.81 373.783C1046.41 375.013 1045.99 376.303 1045.56 377.627C1035.99 393.092 1022.11 407.95 1002.39 420.83C1007.63 367.63 985.4 335.873 962.247 325.224C933.589 312.045 913.499 323.127 905.549 337.921C897.598 352.714 901.331 366.476 908.57 375.669C916.311 385.501 933.347 383.419 940.061 373.666C948.169 361.879 941.556 345.514 927.133 345.044C931.682 338.648 941.317 338.588 950.374 342.361C962.445 347.383 974.124 366.976 966.057 391.787C960.599 408.565 953.457 432.447 928.98 449.939C892.193 455.447 849.505 448.471 833.806 438.201C815.118 425.979 802.974 414.306 792.661 382.656C785.033 359.253 771.213 344.06 756.634 337.354C727.971 324.177 707.881 335.26 699.935 350.051C691.989 364.842 695.722 378.605 702.953 387.797C710.697 397.635 727.729 395.551 734.443 385.796C742.555 374.011 735.942 357.646 721.516 357.17C726.06 350.778 735.708 350.717 744.757 354.488C756.828 359.517 768.507 379.104 760.447 403.921C753.281 425.943 743.064 459.021 694.752 475.538C712.176 402.646 685.242 359.989 657.016 347.005C626.709 333.073 605.472 344.791 597.066 360.431C588.663 376.067 592.61 390.619 600.261 400.339C608.446 410.739 626.455 408.53 633.553 398.221C642.129 385.76 635.132 368.458 619.882 367.961C624.694 361.198 634.882 361.133 644.464 365.121C657.222 370.435 668.437 391.282 661.048 417.381C654.104 441.91 641.427 457.723 621.724 466.008C601.287 474.6 573.974 467.311 565.705 459.67C551.787 446.804 550.749 431.129 556.203 423.558C560.291 417.878 566.214 414.331 571.473 416.553C562.82 422.211 565.103 434.692 574.62 438.895C582.506 442.37 593.741 437.308 594.682 428.405C595.563 420.078 592.529 410.262 581.941 404.163C571.352 398.058 554.765 398.747 542.31 417.482C537.208 425.158 534.352 436.062 535.863 448.939C532.364 446.179 528.68 443.344 524.793 440.417C506.174 426.414 482.355 411.593 455.854 397.461C455.333 391.821 455.268 386.557 455.167 381.895C454.695 359.831 468.988 346.671 480.028 345.436C488.31 344.503 496.123 346.828 498.252 353.097C486.415 350.077 477.035 361.814 480.731 373.303C483.797 382.813 497.129 388.526 505.831 382.359C513.959 376.595 520.362 366.296 517.534 352.401C514.698 338.507 501.092 324.763 474.579 328.711C455.931 331.489 433.926 347.428 422.744 380.843C414.984 377.178 407.098 373.621 399.136 370.186C376.448 354.791 370.493 339.044 370.194 325.251C369.819 307.609 381.243 297.086 390.066 296.099C396.691 295.358 402.941 297.212 404.642 302.225C395.18 299.814 387.679 309.194 390.64 318.379C393.084 325.985 403.745 330.553 410.702 325.621C417.206 321.013 422.324 312.779 420.062 301.672C417.795 290.56 406.916 279.571 385.715 282.727C366.599 285.576 338.858 301.582 334.446 345.93C331.715 345.067 328.984 344.223 326.266 343.415C317.584 340.823 309.682 337.994 302.499 334.98C296.286 327.275 294.29 319.717 294.141 312.801C293.846 299.235 302.633 291.144 309.42 290.383C314.518 289.813 319.317 291.238 320.63 295.094C313.35 293.237 307.581 300.454 309.86 307.517C311.738 313.361 319.931 316.875 325.284 313.086C330.285 309.539 334.224 303.209 332.483 294.667C330.742 286.124 322.371 277.674 306.07 280.1C293.458 281.979 278.362 293.664 272.359 318.658C261.059 310.742 253.917 301.414 248.697 293.105C239.139 277.895 227.642 254.439 208.963 237.727C189.869 220.645 171.749 215.746 157.694 213.374C133.951 209.363 116.538 222.203 113.706 236.096C110.874 249.988 116.436 260.54 126.448 267.021C135.401 272.819 148.475 267.477 151.541 257.964C155.24 246.478 145.856 234.74 134.026 237.759C136.151 231.492 143.966 229.167 152.248 230.096C163.289 231.334 186.789 250.14 191.948 279.251C194.856 295.638 196.018 317.385 190.611 340.177C185.642 333.393 179.682 328.61 173.641 325.829C152.991 316.337 138.524 324.32 132.792 334.98C127.068 345.631 129.759 355.549 134.973 362.172C140.548 369.253 152.821 367.753 157.657 360.726C163.497 352.239 158.734 340.447 148.344 340.107C151.618 335.502 158.56 335.457 165.083 338.174C173.778 341.794 182.196 355.908 176.385 373.783C175.987 375.013 175.567 376.303 175.13 377.627C165.56 393.092 151.685 407.95 131.961 420.83C137.201 367.63 114.971 335.873 91.8196 325.224C63.1623 312.045 43.0725 323.127 35.121 337.921C27.1719 352.714 30.9055 366.476 38.1448 375.669C45.8862 385.501 62.918 383.419 69.6371 373.666C77.741 361.879 71.1299 345.514 56.7058 345.044C61.2546 338.648 70.8916 338.588 79.9507 342.361C92.0197 347.383 103.697 366.976 95.6333 391.787C90.1755 408.565 83.029 432.447 58.5549 449.939C21.7645 455.447 -20.9252 448.471 -36.6237 438.201C-55.3078 425.979 -67.4525 414.306 -77.7661 382.656C-85.3943 359.253 -99.2144 344.06 -113.793 337.354C-142.456 324.177 -162.545 335.26 -170.491 350.051C-178.441 364.842 -174.706 378.605 -167.474 387.797C-159.727 397.635 -142.699 395.551 -135.982 385.796C-127.871 374.011 -134.487 357.646 -148.912 357.17C-144.363 350.778 -134.721 350.717 -125.668 354.488C-113.599 359.517 -101.919 379.104 -109.979 403.921C-117.147 425.943 -127.362 459.021 -175.672 475.538C-158.252 402.646 -185.183 359.989 -213.413 347.005C-243.719 333.073 -264.958 344.791 -273.36 360.431C-281.764 376.067 -277.818 390.619 -270.168 400.339C-261.982 410.739 -243.974 408.53 -236.875 398.221C-228.299 385.76 -235.294 368.458 -250.544 367.961C-245.733 361.198 -235.545 361.133 -225.963 365.121C-213.207 370.435 -201.99 391.282 -209.379 417.381C-216.324 441.91 -229.002 457.723 -248.703 466.008C-269.139 474.6 -296.453 467.311 -304.72 459.67C-318.641 446.804 -319.677 431.129 -314.225 423.558C-310.137 417.878 -304.212 414.331 -298.952 416.553C-307.607 422.211 -305.323 434.692 -295.806 438.895C-287.922 442.37 -276.686 437.308 -275.745 428.405C-274.865 420.078 -277.899 410.262 -288.485 404.163C-299.075 398.058 -315.661 398.747 -328.12 417.482C-333.22 425.158 -336.073 436.062 -334.564 448.939C-338.063 446.179 -341.746 443.344 -345.634 440.417C-364.255 426.414 -388.071 411.593 -414.575 397.461C-415.092 391.821 -415.157 386.557 -415.258 381.895C-415.732 359.831 -401.441 346.671 -390.399 345.436C-382.118 344.503 -374.304 346.828 -372.177 353.097C-384.01 350.077 -393.392 361.814 -389.695 373.303C-386.629 382.813 -373.299 388.526 -364.597 382.359C-356.469 376.595 -350.063 366.296 -352.892 352.401C-355.73 338.507 -369.335 324.763 -395.849 328.711C-414.497 331.489 -436.501 347.428 -447.682 380.843C-455.441 377.178 -463.33 373.621 -471.291 370.186C-493.983 354.791 -499.934 339.044 -500.231 325.251C-500.61 307.609 -489.184 297.086 -480.358 296.099C-473.734 295.358 -467.487 297.212 -465.785 302.225C-475.246 299.814 -482.749 309.194 -479.789 318.379C-477.342 325.985 -466.683 330.553 -459.725 325.621C-453.224 321.013 -448.102 312.779 -450.365 301.672C-452.631 290.56 -463.512 279.571 -484.712 282.727C-503.827 285.576 -531.57 301.582 -535.979 345.93C-538.711 345.067 -541.441 344.223 -544.161 343.415C-552.843 340.823 -560.746 337.994 -567.926 334.98C-574.14 327.275 -576.139 319.717 -576.291 312.801C-576.582 299.235 -567.795 291.144 -561.008 290.383C-555.912 289.813 -551.109 291.238 -549.797 295.094C-557.077 293.237 -562.846 300.454 -560.57 307.517C-558.686 313.361 -550.495 316.875 -545.144 313.086C-540.142 309.539 -536.204 303.209 -537.944 294.667C-539.686 286.124 -548.053 277.674 -564.355 280.1C-576.967 281.979 -592.066 293.664 -598.067 318.658C-624.459 300.174 -633.225 279.211 -633.52 264.546C-633.916 244.8 -618.575 233.948 -604.105 233.424C-595.408 233.108 -587.759 237.244 -587.759 246.407C-595.542 244.119 -605.188 251.849 -602.135 261.319C-599.607 269.165 -589.583 272.367 -582.405 267.285C-575.694 262.533 -569.852 253.284 -572.187 241.826C-574.524 230.369 -584.646 212.799 -608.001 212.799C-628.238 212.799 -639.988 216.72 -656 230.006V507.637H1085.34Z" fill="#3664AF"/>
<path d="M101.253 296.057C101.253 302.806 95.6723 308.278 88.7935 308.278C81.9118 308.278 76.3369 302.806 76.3369 296.057C76.3369 289.307 81.9118 283.837 88.7935 283.837C95.6723 283.837 101.253 289.307 101.253 296.057Z" fill="#3664AF"/>
<path d="M30.6541 277.219C30.6541 282.056 26.6526 285.983 21.722 285.983C16.7873 285.983 12.7881 282.056 12.7881 277.219C12.7881 272.376 16.7873 268.453 21.722 268.453C26.6526 268.453 30.6541 272.376 30.6541 277.219Z" fill="#3664AF"/>
<path d="M174.983 231.625C200.905 255.576 207.247 283.486 204.408 322.027C202.805 343.771 196.281 362.996 187.498 378.937C188.574 371.193 188.926 358.473 184.008 347.84C179.058 337.149 169.812 328.663 154.746 331.518C169.518 331.241 172.845 335.616 179.059 344.857C185.215 354.023 185.193 382.325 175.63 396.989C167.339 407.63 158.294 415.886 149.908 421.323C181.439 405.666 208.258 360.623 209.468 322.409C210.643 285.328 205.189 255.191 174.983 231.625Z" fill="white"/>
<path d="M-93.7734 466.391C-75.8538 457.378 -51.2252 449.012 -33.3217 452.45C-15.1719 455.935 0.880104 458.638 21.5012 459.055C-2.64462 461.783 -23.9415 458.15 -33.6409 457.273C-54.2641 455.411 -71.6848 458.638 -93.7734 466.391Z" fill="white"/>
<path d="M88.4991 332.53C106.022 341.123 123.245 366.615 125.581 391.821C127.915 417.028 118.278 445.383 97.843 466.866C79.8053 485.831 42.3736 497.802 16.3896 504.39C57.5551 489.781 77.9915 477.179 93.464 461.998C105.15 450.535 122.206 417.28 120.619 392.106C118.867 364.323 106.022 345.132 88.4991 332.53Z" fill="white"/>
<path d="M105.925 392.682C100.087 419.035 90.5444 443.666 56.096 465.436C21.6457 487.205 -2.29512 491.786 -30.3223 499.232C4.71193 495.226 36.6677 485.539 61.3499 468.873C88.4994 450.541 104.754 427.34 105.925 392.682Z" fill="white"/>
<path d="M114.449 225.716C100.238 227.896 90.8552 237.061 89.114 245.937C88.6565 248.175 88.4424 250.289 88.4424 252.284C88.4868 261.578 92.8972 268.426 100.345 273.314C102.289 274.57 104.477 275.149 106.774 275.154C112.392 275.207 118.264 271.409 120.003 266.477C115.12 262.133 111.608 256.516 110.18 249.927C110.03 249.918 109.887 249.877 109.735 249.877C108.831 249.877 107.878 249.992 106.887 250.247L100.625 251.867C100.625 251.867 100.08 249.49 101.736 245.836C103.393 242.188 106.655 239.495 109.887 237.906C110.002 237.081 110.099 236.26 110.269 235.42C110.978 232.018 112.415 228.744 114.449 225.716Z" fill="#3664AF"/>
<path d="M31.3127 338.853C17.1017 341.033 7.71942 350.198 5.97826 359.074C5.52073 361.312 5.30664 363.425 5.30664 365.421C5.35111 374.715 9.76152 381.563 17.2089 386.451C19.153 387.707 21.3415 388.286 23.6382 388.291C29.2566 388.343 35.1283 384.545 36.8676 379.614C31.9843 375.27 28.4718 369.653 27.0436 363.064C26.8943 363.055 26.7508 363.013 26.5994 363.013C25.6955 363.013 24.7421 363.129 23.7512 363.384L17.4885 365.003C17.4885 365.003 16.9441 362.626 18.6005 358.973C20.2568 355.325 23.5189 352.631 26.7507 351.042C26.8659 350.218 26.9629 349.397 27.1326 348.557C27.8426 345.154 29.2787 341.88 31.3127 338.853Z" fill="#3664AF"/>
<path d="M75.6514 224.297C57.8178 224.273 45.7873 234.832 43.7895 245.005C43.334 247.245 43.123 249.36 43.123 251.354C43.1694 260.644 47.5727 267.497 55.0232 272.387C56.9663 273.64 59.1579 274.214 61.4474 274.216C67.2215 274.276 73.2883 270.281 74.8505 265.165C75.2919 263.773 75.502 262.386 75.502 261.039C75.4758 254.363 70.4724 248.953 64.4118 248.94C63.5077 248.946 62.5533 249.063 61.5626 249.316L55.302 250.938L57.3502 244.903C58.5672 241.254 61.3272 238.555 64.5601 236.971C67.8133 235.369 71.5581 234.7 75.4415 234.695C76.709 234.695 78.0017 234.769 79.2913 234.912C82.102 235.274 85.1944 236.376 88.4141 238.103C90.6694 234.521 93.7387 231.264 97.534 228.576C92.6721 226.839 87.9919 225.716 83.7511 224.993C80.9334 224.516 78.234 224.297 75.6514 224.297Z" fill="#3664AF"/>
<path d="M58.4533 449.951C54.9822 450.468 51.4625 450.875 47.9175 451.179C35.1084 459.019 17.4908 467.282 -7.24286 476.91C-36.9566 488.491 -73.7896 499.977 -113.626 507.637H-91.5233C-59.5503 500.263 -30.1274 490.761 -5.52197 481.169C28.8092 467.759 47.2024 458.09 58.4533 449.951Z" fill="white"/>
<path d="M350.266 240.704C350.266 247.452 344.691 252.924 337.808 252.924C330.932 252.924 325.349 247.452 325.349 240.704C325.349 233.956 330.932 228.483 337.808 228.483C344.691 228.483 350.266 233.956 350.266 240.704Z" fill="#3664AF"/>
<path d="M388.143 259.395C388.143 264.236 384.139 268.162 379.202 268.162C374.27 268.162 370.274 264.236 370.274 259.395C370.274 254.552 374.27 250.629 379.202 250.629C384.139 250.629 388.143 254.552 388.143 259.395Z" fill="#3664AF"/>
<path d="M222.1 495.411C243.716 465.207 272.682 446.801 302.811 438.604C332.939 430.41 371.285 434.626 401.644 451.678C373.37 441.56 338.498 437.467 306.224 445.653C278.164 452.772 249.247 469.07 222.1 495.411Z" fill="white"/>
<path d="M359.549 305.032C352.249 316.777 345.244 337.971 352.835 364.609C360.426 391.248 379.793 411.469 413.562 426.195C447.718 441.087 471.953 447.962 486.258 461.712C463.19 447.103 427.139 437.947 410.932 429.915C383.198 416.169 357.024 397.808 349.914 367.474C343.2 338.83 349.042 317.638 359.549 305.032Z" fill="white"/>
<path d="M214.92 471.504C238.448 447.826 260.352 414.957 265.846 364.871L264.457 362.906C257.076 406.061 237.616 432.501 214.92 454.538C211.616 457.741 208.264 460.858 204.873 463.915C184.057 482.694 165.916 496.461 145.216 507.637H172.471C183.042 499.996 193.559 491.275 204.873 481.067C208.219 478.053 211.577 474.864 214.92 471.504Z" fill="white"/>
<path d="M214.919 406.247C221.202 387.01 223.852 366.93 223.905 346.905C222.919 364.703 219.998 380.821 214.919 395.357C203.079 429.238 182.177 454.463 161.663 471.935C144.545 486.514 129.83 498.026 114.69 507.636H136.026C146.244 499.962 156.5 491.448 166.671 482.02C189.88 460.513 205.764 434.285 214.919 406.247Z" fill="white"/>
<path d="M214.92 358.322C218.94 344.643 221.156 329.559 222.017 312.911C220.233 324.649 218.12 335.756 214.92 346.266C202.153 388.173 179.436 420.16 156.797 440.602C146.653 449.742 137.175 457.669 127.745 464.69C133.135 448.325 134.139 433.7 135.367 418.54C134.252 419.31 133.116 420.073 131.962 420.83C129.302 437.35 127.109 453.191 119.066 470.9C96.0406 486.678 72.135 497.55 38.2744 507.637H53.5963C97.6838 492.945 125.292 475.291 159.961 443.975C181.293 424.742 203.472 397.248 214.92 358.322Z" fill="white"/>
<path d="M307.893 500.061C381.748 473.765 428.856 487.562 466.895 507.637H494.943C453.184 484.755 393.379 462.749 307.893 500.061Z" fill="white"/>
<path d="M634.567 475.173C611.94 487.509 583.718 489.066 552.527 484.478C540.396 469.976 537.018 459.487 535.863 448.939L531.876 445.025C532.102 456.013 534.687 467.131 546.504 483.525C542.597 482.861 538.63 482.082 534.643 481.251C520.079 463.426 503.848 451.17 487.458 441.968C473.27 429.777 462.637 414.836 460.274 399.806L455.855 397.461C458.02 411.202 462.136 422.756 471.133 433.721C463.567 430.272 456.081 427.302 448.817 424.569C440.94 404.342 437.377 382.522 451.609 350.29C441.542 364.562 431.842 390.764 442.35 422.166C434.306 419.209 426.651 416.445 419.525 413.538C418.389 404.808 419.096 391.102 422.744 380.843L418.826 378.811C414.487 388.647 412.754 402.021 413.174 410.815C406.492 407.813 400.388 404.566 395.169 400.699C361.105 375.495 357.284 339.735 363.052 318.589C354.399 342.562 361.105 381.624 395.169 406.827C408.161 416.445 425.742 422.02 444.701 428.819C471.032 438.259 500.301 450.271 524.402 478.962C509.717 475.468 494.596 471.026 479.249 466.008C466.605 461.872 451.973 458.704 436.173 456.694C417.666 438.32 381.692 421.812 348.101 406.75C337.901 387.034 333.235 366.422 334.447 345.93L329.11 344.308C328.258 356.407 328.759 368.508 331.469 381.707C320.554 373.364 314.429 368.095 306.608 357.356C295.81 342.529 285.003 324.508 290.065 299.875C280.919 319.929 289.201 343.652 304.665 363.656C316.425 378.879 325.797 385.013 333.574 390.155C334.774 394.256 336.248 398.291 338.03 402.228C321.709 394.902 306.463 387.915 294.735 381.224C244.516 352.58 239.313 323.795 222.185 284.043C233.69 321.641 240.141 358.023 292.982 389.245C330.015 411.121 382.173 428.707 415.319 454.778C360.665 451.591 297.042 461.971 252.697 493.506C319.261 453.975 419.69 453.404 479.249 472.883C538.804 492.361 595.155 503.531 634.567 482.048C662.491 466.829 669.604 439.66 671.939 417.889C669.604 439.66 662.491 459.954 634.567 475.173Z" fill="white"/>
</svg>
