<svg width="253" height="114" viewBox="0 0 253 114" fill="none" xmlns="http://www.w3.org/2000/svg">
<path d="M211.132 63.2074L168.696 65.4672C167.617 65.5247 166.783 66.4208 166.834 67.4689C166.885 68.517 167.801 69.32 168.881 69.2625L211.316 67.0027C212.395 66.9453 213.229 66.0491 213.178 65.001C213.127 63.9529 212.211 63.15 211.132 63.2074Z" fill="#D18102"/>
<path d="M218.544 44.28C218.351 40.2481 214.886 37.1599 210.803 37.381C206.719 37.6021 203.566 41.0486 203.759 45.0806C203.913 48.3242 206.649 60.5746 209.841 65.1155C207.098 69.9778 205.543 82.4605 205.697 85.7041C205.89 89.736 209.355 92.8243 213.439 92.6032C217.522 92.3821 220.675 88.9355 220.483 84.9035C220.328 81.6599 217.593 69.4095 214.401 64.8686C217.144 60.0064 218.699 47.5237 218.544 44.28Z" fill="#FFD806"/>
<path d="M197.511 56.4575L193.352 56.6832C192.653 56.7212 192.113 57.3131 192.146 58.0053L192.907 73.9991C192.94 74.6913 193.534 75.2216 194.233 75.1836L198.392 74.9579C199.091 74.92 199.632 74.3281 199.599 73.6359L198.837 57.6421C198.804 56.9499 198.21 56.4196 197.511 56.4575Z" fill="#FFD806"/>
<path d="M193.101 50.5993L186.213 50.9732C185.056 51.036 184.161 52.0157 184.216 53.1615L185.476 79.6327C185.531 80.7785 186.514 81.6564 187.671 81.5935L194.559 81.2197C195.717 81.1569 196.611 80.1771 196.557 79.0314L195.296 52.5602C195.242 51.4144 194.259 50.5365 193.101 50.5993Z" fill="#F9A510"/>
<path d="M95.4684 12.2793L88.6352 12.4338L89.1653 30.3965C89.2406 32.9497 87.2061 35.0757 84.6317 35.1339L77.5305 35.2944L77.7305 42.0713L84.8316 41.9108C91.1768 41.7674 96.184 36.5301 95.9985 30.242L95.4684 12.2793Z" fill="#F9A510"/>
<path d="M83.7831 11.4694C83.8273 12.3144 84.5379 12.9687 85.3693 12.9302L98.339 12.3291C99.1704 12.2905 99.8091 11.5736 99.7648 10.7286C99.7205 9.88367 99.01 9.22931 98.1786 9.26785L85.2089 9.86899C84.3775 9.90752 83.7388 10.6244 83.7831 11.4694Z" fill="#FFD806"/>
<path d="M126.579 43.8126L63.6006 47.2263L63.7716 46.1087L64.9941 38.426L65.236 36.8943L66.1571 31.0955C66.5574 28.5837 68.6852 26.6809 71.2502 26.5419L116.983 24.0631C119.557 23.9235 121.855 25.5864 122.487 28.0422L126.57 43.8132L126.579 43.8126Z" fill="#FFD806"/>
<path d="M163.472 35.8175L34.7931 42.7971C16.7884 43.7737 2.87931 59.004 3.7278 76.8132C4.57629 94.6225 19.8612 108.269 37.8658 107.293L166.545 100.313C178.705 99.6535 188.097 89.3692 187.524 77.341L186.527 56.4058C185.954 44.3776 175.632 35.1626 163.472 35.8221L163.472 35.8175Z" fill="#FFD806"/>
<g style="mix-blend-mode:screen" opacity="0.5">
<path d="M184.015 47.3189C179.631 43.5995 173.665 41.4718 167.203 41.82L32.0395 49.102C21.6303 49.6628 12.5153 54.4467 6.55775 61.5421C11.4544 51.015 22.0981 43.4131 34.7708 42.7304L163.339 35.8037C172.278 35.3221 180.225 40.0787 184.02 47.3186L184.015 47.3189Z" fill="#FFD806"/>
</g>
<g style="mix-blend-mode:multiply">
<path d="M187.541 79.6305C187.027 90.6001 178.019 99.6575 166.556 100.282L37.9553 107.292C28.9561 107.783 20.6398 104.671 14.4742 99.2485C9.54771 94.9154 5.9913 89.104 4.54688 82.4756C6.33035 85.4926 8.61843 88.1892 11.3066 90.4736C17.672 95.8856 26.2595 98.9825 35.5583 98.4756L168.463 91.2308C176.797 90.7766 183.878 86.1562 187.541 79.6305Z" fill="#FFD806"/>
</g>
<path d="M43.1392 38.3081L38.8767 38.5374C37.055 38.6354 35.6477 40.1635 35.7336 41.9504L38.8912 107.674C38.9771 109.461 40.5235 110.831 42.3453 110.733L46.6078 110.503C48.4296 110.405 49.8368 108.877 49.7509 107.09L46.5933 41.3663C46.5074 39.5793 44.961 38.2102 43.1392 38.3081Z" fill="#F9A510"/>
<path d="M152.272 32.7603L148.01 32.9896C146.188 33.0876 144.781 34.6156 144.866 36.4026L148.024 102.127C148.11 103.913 149.656 105.283 151.478 105.185L155.741 104.955C157.562 104.857 158.97 103.329 158.884 101.542L155.726 35.8185C155.64 34.0315 154.094 32.6623 152.272 32.7603Z" fill="#F9A510"/>
<path d="M96.2635 91.1518C107.547 90.5191 116.277 80.953 115.763 69.7852C115.248 58.6175 105.683 50.0772 94.3997 50.7099C83.116 51.3426 74.386 60.9087 74.9007 72.0765C75.4153 83.2442 84.9798 91.7845 96.2635 91.1518Z" fill="#D7E1F4"/>
<path d="M96.0855 87.3124C105.227 86.7998 112.3 79.0498 111.883 70.0023C111.466 60.9548 103.717 54.0359 94.5755 54.5485C85.4341 55.061 78.3615 62.811 78.7784 71.8585C79.1954 80.9061 86.944 87.825 96.0855 87.3124Z" fill="#99B6FF"/>
<g style="mix-blend-mode:multiply">
<path d="M111.886 70.0297C112.303 79.0679 105.238 86.8068 96.1036 87.3189C88.9017 87.7226 82.5684 83.509 80.0084 77.2801C83.1898 81.3153 88.2609 83.7864 93.8544 83.4728C102.984 82.9611 110.054 75.2172 109.637 66.1838C109.549 64.2807 109.136 62.4717 108.451 60.8058C110.464 63.3584 111.725 66.5307 111.886 70.0297Z" fill="#99B6FF"/>
</g>
<path d="M95.2029 58.2405C95.2125 58.4481 94.9836 58.6692 94.5918 58.8851C94.396 58.9954 94.157 59.1034 93.8797 59.2088C93.7435 59.2638 93.5924 59.3053 93.4425 59.3752C93.2927 59.4451 93.1333 59.5156 92.9692 59.5863C92.6411 59.7324 92.2733 59.8476 91.8986 60.02C91.5294 60.2063 91.1356 60.3797 90.7279 60.5634C90.3418 60.798 89.9209 61.0061 89.5113 61.2514C89.3118 61.3855 89.1078 61.5247 88.8986 61.6547C88.7964 61.722 88.6895 61.7895 88.5826 61.8569L88.2826 62.0914C88.0792 62.2447 87.8806 62.3978 87.6817 62.5461C87.4981 62.7125 87.3144 62.8789 87.1351 63.0356C87.0432 63.1165 86.9508 63.1879 86.8639 63.2732C86.7817 63.3582 86.6995 63.4432 86.6171 63.5235C86.4526 63.6889 86.2878 63.8495 86.1278 64.0099C85.5175 64.6733 84.9772 65.2997 84.5343 65.8591C83.6336 66.9693 83.061 67.7252 82.6546 67.625C82.2535 67.5339 82.1225 66.4578 82.6434 64.8911C82.8941 64.1059 83.3364 63.2201 83.9543 62.3055C84.1112 62.0791 84.2925 61.8608 84.4733 61.633C84.5637 61.5192 84.6589 61.405 84.7493 61.2911C84.8494 61.1814 84.9546 61.0762 85.0643 60.966C85.2839 60.7502 85.5036 60.5345 85.7278 60.3138C85.9719 60.1109 86.226 59.9168 86.4799 59.7181C86.6094 59.621 86.7388 59.5238 86.8635 59.427C86.9982 59.339 87.138 59.2602 87.2729 59.1769C87.5478 59.0196 87.8132 58.8628 88.0786 58.706C88.6257 58.4341 89.1806 58.2279 89.6971 58.0192C90.2355 57.8708 90.7464 57.7475 91.2247 57.645C91.7037 57.5567 92.1626 57.5499 92.5727 57.5222C92.7778 57.5107 92.9738 57.5092 93.1555 57.5084C93.3375 57.5124 93.516 57.545 93.6747 57.5645C93.9974 57.6126 94.2773 57.6679 94.5005 57.7358C94.9515 57.8714 95.194 58.0471 95.1986 58.2502L95.2029 58.2405Z" fill="#C7DAFF"/>
<path d="M94.3435 51.333C93.7457 51.3674 93.2792 51.8722 93.3059 52.4669C93.3326 53.0615 93.8418 53.5101 94.4397 53.4757C95.0375 53.4413 95.504 52.9365 95.4773 52.3419C95.4506 51.7472 94.9462 51.2983 94.3435 51.333Z" fill="#ADC0E0"/>
<path d="M96.2263 88.3906C95.6285 88.425 95.162 88.9298 95.1887 89.5245C95.2154 90.1192 95.7247 90.5678 96.3225 90.5334C96.9204 90.4989 97.3866 89.9894 97.3601 89.3995C97.3337 88.8095 96.829 88.3559 96.2263 88.3906Z" fill="#ADC0E0"/>
<path d="M76.7537 70.8027C76.1558 70.8371 75.6896 71.3466 75.7161 71.9366C75.7425 72.5265 76.252 72.9799 76.8498 72.9454C77.4477 72.911 77.9139 72.4015 77.8874 71.8116C77.861 71.2216 77.3515 70.7683 76.7537 70.8027Z" fill="#ADC0E0"/>
<path d="M113.812 68.918C113.214 68.9524 112.748 69.4619 112.775 70.0518C112.801 70.6418 113.311 71.0951 113.908 71.0607C114.506 71.0262 114.973 70.5167 114.946 69.9268C114.92 69.3368 114.41 68.8835 113.812 68.918Z" fill="#ADC0E0"/>
<path d="M80.7631 57.784C80.3563 58.2285 80.3866 58.9034 80.8311 59.2989C81.2756 59.6945 81.9596 59.6551 82.3664 59.2106C82.7732 58.766 82.7429 58.0911 82.2984 57.6956C81.8539 57.3 81.1699 57.3394 80.7631 57.784Z" fill="#ADC0E0"/>
<path d="M108.294 82.656C107.888 83.1006 107.918 83.7755 108.362 84.171C108.807 84.5666 109.491 84.5272 109.898 84.0826C110.304 83.6381 110.274 82.9632 109.83 82.5676C109.385 82.1721 108.701 82.2115 108.294 82.656Z" fill="#ADC0E0"/>
<path d="M82.0951 83.989C81.6883 84.4336 81.7186 85.1085 82.1631 85.5041C82.6076 85.8996 83.2916 85.8602 83.6984 85.4157C84.1052 84.9711 84.0749 84.2962 83.6304 83.9006C83.1859 83.5051 82.5019 83.5445 82.0951 83.989Z" fill="#ADC0E0"/>
<path d="M106.966 56.4519C106.559 56.8965 106.59 57.5714 107.034 57.9669C107.479 58.3625 108.163 58.3231 108.57 57.8785C108.976 57.434 108.946 56.7591 108.502 56.3635C108.057 55.968 107.373 56.0074 106.966 56.4519Z" fill="#ADC0E0"/>
<path d="M42.5924 71.4294C41.2893 71.5013 40.2833 72.6054 40.3438 73.8973C40.4043 75.1891 41.5081 76.1767 42.8112 76.1048C44.1144 76.0328 45.1203 74.9288 45.0599 73.6369C44.9994 72.345 43.8955 71.3574 42.5924 71.4294Z" fill="#FFE471"/>
<path d="M41.7839 55.8294C43.087 55.7574 44.093 54.6534 44.0325 53.3615C43.972 52.0696 42.8682 51.0821 41.5651 51.154C40.2619 51.2259 39.256 52.33 39.3165 53.6219C39.3769 54.9137 40.4808 55.9013 41.7839 55.8294Z" fill="#FFE471"/>
<path d="M43.608 91.3835C42.3049 91.4554 41.2989 92.5595 41.3594 93.8514C41.4199 95.1432 42.5237 96.1308 43.8269 96.0589C45.13 95.9869 46.1359 94.8829 46.0755 93.591C46.015 92.2991 44.9112 91.3115 43.608 91.3835Z" fill="#FFE471"/>
<path d="M151.725 65.8815C150.422 65.9535 149.416 67.0575 149.477 68.3494C149.537 69.6413 150.641 70.6289 151.944 70.5569C153.247 70.485 154.253 69.3809 154.193 68.089C154.132 66.7972 153.028 65.8096 151.725 65.8815Z" fill="#FFE471"/>
<path d="M150.917 50.2815C152.22 50.2096 153.226 49.1055 153.165 47.8137C153.105 46.5218 152.001 45.5342 150.698 45.6062C149.395 45.6781 148.389 46.7821 148.449 48.074C148.51 49.3659 149.614 50.3535 150.917 50.2815Z" fill="#FFE471"/>
<path d="M152.741 85.8356C151.438 85.9076 150.432 87.0116 150.492 88.3035C150.553 89.5954 151.657 90.583 152.96 90.511C154.263 90.4391 155.269 89.335 155.208 88.0431C155.148 86.7513 154.044 85.7637 152.741 85.8356Z" fill="#FFE471"/>
<g style="mix-blend-mode:screen">
<path d="M230.024 71.5441C234.766 71.2859 238.429 67.2599 238.206 62.5518C237.982 57.8437 233.957 54.2363 229.215 54.4945C224.473 54.7526 220.81 58.7786 221.034 63.4867C221.257 68.1948 225.282 71.8022 230.024 71.5441Z" fill="#E3EDFF"/>
</g>
<g style="mix-blend-mode:screen">
<path d="M248.344 49.7672C249.363 46.9194 247.895 43.7996 245.066 42.7988C242.236 41.7981 239.117 43.2955 238.098 46.1433C237.08 48.9911 238.547 52.111 241.377 53.1118C244.206 54.1125 247.325 52.6151 248.344 49.7672Z" fill="#E3EDFF"/>
</g>
<g style="mix-blend-mode:screen">
<path d="M232.834 41.3727C234.465 41.2839 235.729 39.8999 235.652 38.2754C235.575 36.651 234.191 35.411 232.555 35.5001C230.919 35.5892 229.66 36.973 229.737 38.5975C229.814 40.2219 231.198 41.4618 232.834 41.3727Z" fill="#E3EDFF"/>
</g>
<g style="mix-blend-mode:screen">
<path d="M244.294 26.8995C246.702 26.7684 248.562 24.7242 248.448 22.3335C248.335 19.9428 246.291 18.111 243.883 18.2421C241.475 18.3732 239.615 20.4175 239.729 22.8082C239.842 25.1989 241.886 27.0306 244.294 26.8995Z" fill="#E3EDFF"/>
</g>
<g style="mix-blend-mode:screen">
<path d="M240.078 15.7187C241.761 15.6271 243.061 14.1978 242.982 12.5265C242.903 10.8551 241.474 9.57447 239.79 9.6661C238.107 9.75774 236.807 11.1869 236.886 12.8583C236.965 14.5297 238.394 15.8103 240.078 15.7187Z" fill="#E3EDFF"/>
</g>
</svg>
