<svg width="393" height="203" viewBox="0 0 393 203" fill="none" xmlns="http://www.w3.org/2000/svg">
<path opacity="0.05" d="M-264.345 4.60177C-253.949 2.50209 -243.443 1.1496 -232.875 0.576569L-228.908 0.407492C-227.586 0.357599 -226.266 0.283255 -224.94 0.291303L-220.964 0.269939C-219.639 0.269314 -218.316 0.244131 -216.987 0.301462L-213.005 0.42802C-211.678 0.476678 -210.353 0.500748 -209.024 0.609323L-205.039 0.885752C-203.712 0.982139 -202.377 1.06199 -201.072 1.21142L-197.14 1.61763L-196.157 1.72278L-195.18 1.8495L-193.226 2.10309L-191.272 2.35845C-190.621 2.44297 -189.97 2.52751 -189.325 2.63374L-185.445 3.24037C-184.149 3.43288 -182.867 3.67431 -181.583 3.90673L-177.735 4.61486L-173.913 5.40289L-172.003 5.79966L-170.108 6.23292L-166.318 7.10666C-165.061 7.41011 -163.811 7.73549 -162.558 8.04991C-160.044 8.66405 -157.572 9.37163 -155.087 10.05L-154.157 10.3078L-153.234 10.5803L-151.387 11.1254L-149.541 11.6705C-148.926 11.8516 -148.31 12.0327 -147.702 12.2285C-145.265 13.0008 -142.811 13.7471 -140.402 14.5694L-136.776 15.7834L-133.18 17.0475L-131.383 17.6796L-129.599 18.3341L-126.036 19.6468C-124.851 20.0887 -123.678 20.5475 -122.499 20.9987C-121.324 21.4538 -120.138 21.8975 -118.975 22.3677C-116.64 23.3004 -114.298 24.2217 -111.991 25.1867L-108.521 26.6237L-105.077 28.0875L-103.355 28.8213L-101.647 29.5667L-98.231 31.0592C-93.7018 33.0739 -89.1945 35.1097 -84.7505 37.1878C-80.2889 39.2557 -75.8922 41.3624 -71.506 43.4683C-67.1401 45.581 -62.7892 47.7021 -58.4903 49.8239L-33.0201 62.4362C-28.8251 64.51 -24.6729 66.536 -20.5256 68.5483C-16.3931 70.5371 -12.2665 72.5175 -8.17572 74.4196C-4.07558 76.3421 -0.00771775 78.1824 4.05286 79.9951L7.08964 81.3262L8.60803 81.9917L10.121 82.6365L13.1469 83.9278L16.162 85.1776C32.2323 91.824 48.0132 97.2061 63.4769 100.612C67.336 101.429 71.1875 102.197 75.0033 102.751L76.436 102.971L77.153 103.082L77.8658 103.17L80.7186 103.53L81.4316 103.622L82.1416 103.691L83.5616 103.83L84.9817 103.97C85.4556 104.017 85.9296 104.067 86.3992 104.092C88.2801 104.21 90.1728 104.381 92.0415 104.422L93.4473 104.477C93.9147 104.49 94.3878 104.527 94.8524 104.521L97.6494 104.539C98.1157 104.538 98.5849 104.558 99.0476 104.543L100.439 104.507L103.223 104.437L105.99 104.274L107.376 104.197L108.752 104.067L111.508 103.817L114.248 103.471L115.618 103.301C115.847 103.277 116.075 103.24 116.301 103.2L116.982 103.088L119.708 102.646C123.319 102.003 126.941 101.189 130.604 100.214C134.266 99.2272 137.961 98.0557 141.683 96.7547C142.615 96.4169 143.545 96.1023 144.481 95.7501L147.292 94.6863C149.173 93.9388 151.054 93.2018 152.95 92.3912C160.52 89.2188 168.223 85.4862 176.059 81.4635C183.906 77.4151 191.887 73.0643 200.075 68.5941L206.247 65.2304L212.508 61.8489C216.713 59.5968 220.958 57.3431 225.291 55.1335C229.62 52.9224 234.013 50.7486 238.475 48.6432L241.839 47.0941C242.961 46.5836 244.078 46.0506 245.207 45.5659L248.587 44.0845L250.277 43.3455L251.974 42.6377C270.064 35.0394 288.502 29.0097 307.166 24.6541C325.827 20.2847 344.695 17.4866 363.645 16.362C382.592 15.2218 401.612 15.6657 420.566 17.7917L424.119 18.1954C425.304 18.3388 426.486 18.5053 427.67 18.6593C428.853 18.8204 430.037 18.9657 431.22 19.1392L434.766 19.6777C437.134 20.0123 439.483 20.4632 441.836 20.8731L445.364 21.4997L447.127 21.8148C447.716 21.9133 448.298 22.0512 448.884 22.1658L455.896 23.6204L457.648 23.9859C458.232 24.1077 458.809 24.2548 459.391 24.3892L462.874 25.2085L466.356 26.0297L468.096 26.4403L469.826 26.8889L476.741 28.6995L478.468 29.1518L480.186 29.642L483.62 30.6226L487.052 31.6032L488.767 32.0972L490.473 32.6202L497.292 34.7178C497.859 34.894 498.429 35.0629 498.994 35.2464L500.688 35.8004L504.074 36.9085C508.599 38.3563 513.073 39.9337 517.559 41.4749C518.683 41.8546 519.794 42.262 520.909 42.6619L524.252 43.8655C526.479 44.6692 528.713 45.4599 530.923 46.2968L537.567 48.7761C539.781 49.6056 541.977 50.4631 544.182 51.3056C548.597 52.9833 552.966 54.7248 557.352 56.4402C566.089 59.9074 574.799 63.4139 583.443 66.9205C600.755 73.9405 617.893 80.8688 635.006 87.2991L641.418 89.658L644.624 90.8374L647.827 91.9711L654.236 94.2365L660.64 96.3981C661.708 96.756 662.776 97.1262 663.844 97.4734L667.046 98.4941C669.18 99.1711 671.317 99.8673 673.451 100.528L679.856 102.439L681.459 102.918C681.993 103.077 682.526 103.238 683.061 103.382L686.264 104.265C694.809 106.696 703.353 108.693 711.906 110.513L718.32 111.76L719.923 112.073C720.458 112.179 720.992 112.252 721.527 112.344L724.733 112.868L727.941 113.394L729.545 113.657C730.08 113.737 730.613 113.797 731.148 113.87L737.56 114.706L739.164 114.916L740.765 115.067L743.969 115.372L747.175 115.679L748.778 115.829L750.38 115.924L756.793 116.307L757.596 116.355L758.398 116.376L760.002 116.416L763.213 116.498L766.426 116.581L769.638 116.557L772.851 116.532L774.459 116.521L775.262 116.515L776.065 116.485L782.493 116.226L784.101 116.161L785.706 116.048L788.919 115.815L792.134 115.584L792.937 115.527C793.206 115.505 793.473 115.472 793.741 115.447L795.345 115.28L801.768 114.617L808.182 113.762L809.786 113.548L810.589 113.441C810.856 113.405 811.123 113.355 811.389 113.314L814.591 112.791L817.794 112.267L819.396 112.005C819.929 111.91 820.461 111.802 820.994 111.701L827.386 110.47C828.454 110.278 829.513 110.02 830.576 109.792L833.764 109.088L836.955 108.383L840.134 107.597C851.856 104.751 863.505 101.25 875.075 97.2274L877.551 130.05C867.339 134.382 856.999 138.321 846.525 141.773L843.22 142.876L839.896 143.897L836.569 144.918C835.458 145.253 834.353 145.616 833.236 145.912L826.538 147.773L824.862 148.233L823.178 148.652L819.808 149.488L816.436 150.323C816.155 150.391 815.875 150.467 815.592 150.529L814.745 150.713L813.049 151.083L806.265 152.555L799.443 153.829L797.737 154.147C797.453 154.198 797.168 154.255 796.884 154.303L796.027 154.437L792.598 154.968L789.167 155.5L787.45 155.762L785.727 155.974L778.833 156.819L777.971 156.921L777.105 156.999L775.375 157.155L771.912 157.464L768.448 157.773L764.974 157.968L761.497 158.163L759.759 158.259L758.89 158.307L758.019 158.327L751.044 158.481L749.298 158.518L747.554 158.5L744.063 158.453L740.57 158.405L738.823 158.38L737.08 158.296L730.103 157.957C729.521 157.927 728.94 157.906 728.358 157.867L726.618 157.727L723.136 157.442L719.653 157.157C719.074 157.105 718.491 157.072 717.913 157.004L716.177 156.809L709.231 156.027C699.99 154.824 690.759 153.418 681.611 151.578L678.174 150.916C677.599 150.811 677.03 150.686 676.46 150.563L674.749 150.196L667.904 148.723C665.629 148.207 663.361 147.66 661.088 147.128L657.679 146.326C656.545 146.051 655.418 145.757 654.287 145.473L647.501 143.752L640.746 141.936L637.369 141.025L634.006 140.074L627.281 138.168C609.402 132.968 591.697 127.321 574.178 121.719C565.406 118.912 556.692 116.15 547.991 113.439C543.651 112.111 539.303 110.751 534.976 109.474C532.812 108.831 530.644 108.169 528.484 107.542L522.005 105.675C519.844 105.039 517.691 104.461 515.537 103.865L512.306 102.974C511.229 102.678 510.151 102.374 509.077 102.102C504.779 100.989 500.478 99.8318 496.194 98.8218L492.979 98.039L491.371 97.6475C490.835 97.5182 490.302 97.4046 489.766 97.2841L483.351 95.8478L481.748 95.4878L480.148 95.1611L476.949 94.5129L473.752 93.8646L472.154 93.5395L470.558 93.2548L464.18 92.1141L462.586 91.8311L460.996 91.5884L457.816 91.1013L454.638 90.6139C454.108 90.5353 453.578 90.4444 453.05 90.3763L451.465 90.1791L445.13 89.3846C444.603 89.3235 444.075 89.2396 443.549 89.196L441.97 89.046L438.815 88.7459C436.712 88.5522 434.607 88.3163 432.512 88.1944L429.368 87.9728C428.32 87.9048 427.271 87.8634 426.223 87.8061C425.175 87.7558 424.128 87.6913 423.08 87.6516L419.937 87.5518C403.177 87.0378 386.461 88.0273 369.928 90.3923C353.392 92.7416 337.046 96.5577 321.017 101.701C304.984 106.831 289.286 113.393 274.043 121.228L272.612 121.956L271.191 122.714L268.349 124.229C267.399 124.724 266.464 125.267 265.521 125.784L262.699 127.352C258.942 129.49 255.166 131.727 251.365 134.043C247.566 136.355 243.729 138.774 239.864 141.229L234.039 144.959L228.144 148.762C220.249 153.866 212.149 159.101 203.782 164.245C195.395 169.378 186.742 174.436 177.676 179.096C175.421 180.272 173.117 181.399 170.815 182.523L167.325 184.169C166.16 184.715 164.972 185.233 163.795 185.764C159.063 187.854 154.238 189.827 149.299 191.6C144.357 193.363 139.307 194.951 134.183 196.312L130.342 197.273L129.381 197.51C129.061 197.591 128.741 197.669 128.419 197.734L126.491 198.148C125.204 198.419 123.918 198.701 122.631 198.96L118.76 199.65L116.824 199.99L114.886 200.271L111.006 200.821C109.712 200.976 108.42 201.11 107.125 201.254L105.183 201.464C104.536 201.534 103.89 201.569 103.242 201.626L99.3606 201.922C98.7122 201.979 98.0682 201.991 97.4223 202.028L95.4839 202.116C92.896 202.262 90.322 202.264 87.7406 202.308C87.0943 202.323 86.4526 202.312 85.8096 202.303L83.8808 202.275L81.9518 202.246L80.9877 202.228L80.0272 202.188L76.1848 202.023L75.224 201.98L74.2681 201.915L72.3548 201.782C67.2455 201.454 62.1867 200.881 57.1478 200.226L53.3835 199.68C52.7575 199.585 52.1261 199.504 51.5032 199.398L49.6323 199.084L45.8923 198.449L42.1758 197.742L40.3172 197.385L38.4719 196.997L34.7797 196.216L31.114 195.373L29.2804 194.949C28.6703 194.806 28.0657 194.649 27.4591 194.499L23.8184 193.59C22.607 193.281 21.4071 192.952 20.2013 192.632C17.7841 192.001 15.4023 191.305 13.0076 190.628C12.4074 190.46 11.8131 190.284 11.2199 190.105L9.43927 189.572C8.25406 189.213 7.0581 188.868 5.88234 188.496C3.52691 187.752 1.15845 187.025 -1.17478 186.248L-4.68414 185.093L-8.17108 183.909L-9.91463 183.315L-11.6462 182.707L-15.1082 181.49C-19.7009 179.841 -24.276 178.168 -28.7923 176.446C-33.3245 174.735 -37.7976 172.981 -42.2603 171.226C-46.7028 169.462 -51.1341 167.69 -55.5139 165.913L-81.4701 155.354C-85.7434 153.623 -89.9757 151.934 -94.1977 150.261C-98.4063 148.611 -102.604 146.968 -106.763 145.406C-110.931 143.821 -115.062 142.318 -119.181 140.842L-122.26 139.766L-123.798 139.227L-125.33 138.708L-128.393 137.67L-131.443 136.671C-133.478 135.994 -135.497 135.375 -137.517 134.74C-138.529 134.415 -139.532 134.129 -140.538 133.826C-141.543 133.529 -142.55 133.219 -143.552 132.932L-146.553 132.083L-148.052 131.66L-149.545 131.263L-152.528 130.468L-155.495 129.728C-157.476 129.216 -159.437 128.795 -161.403 128.332C-161.895 128.213 -162.383 128.114 -162.872 128.01L-164.337 127.701L-165.803 127.392L-166.535 127.236L-167.263 127.096C-169.204 126.733 -171.151 126.334 -173.074 126.031C-174.039 125.871 -175.004 125.697 -175.965 125.546L-178.838 125.128L-180.274 124.916L-181.701 124.743L-184.551 124.392L-187.384 124.111C-188.328 124.019 -189.272 123.914 -190.206 123.86L-193.015 123.653C-193.484 123.612 -193.948 123.593 -194.412 123.573L-195.806 123.509L-197.198 123.442L-197.894 123.409L-198.585 123.395L-201.35 123.342C-202.277 123.307 -203.174 123.341 -204.08 123.353L-206.79 123.391C-207.692 123.384 -208.597 123.456 -209.501 123.5L-212.209 123.64C-213.111 123.667 -214.014 123.772 -214.916 123.851L-217.62 124.092C-218.521 124.152 -219.421 124.292 -220.321 124.403L-223.019 124.744C-230.207 125.749 -237.35 127.286 -244.403 129.334C-252.708 131.747 -260.887 134.868 -268.863 138.657L-278.721 7.98988C-273.954 6.69881 -269.159 5.56275 -264.34 4.58893L-264.345 4.60177Z" fill="white"/>
</svg>
