<svg width="359" height="369" viewBox="0 0 359 369" fill="none" xmlns="http://www.w3.org/2000/svg">
<path d="M353.95 341.56C351.73 334.74 350.75 328.58 350.7 321.49C350.68 318.69 350.85 315.89 350.72 313.11C351.4 311.46 352.12 309.85 351.58 308.26C351.36 307.61 350.65 306.82 349.76 306.82C345.98 306.82 342.1 307.27 338.3 306.82C341.86 303.64 348.74 302.81 350.61 298.83C351.25 297.45 350.74 295.49 350.55 294.13C349.82 289.04 349.62 283.83 349.33 278.69C348.49 263.39 350.02 248.1 348.73 232.83C348.08 225.06 348.33 217.14 348.29 209.34C348.24 200.3 350.44 191.24 349.96 182.32C349.76 178.57 352.47 172.6 348.55 169.91C346.52 168.52 342.89 168.2 339.51 167.83C340.29 167.56 341.02 167.32 341.55 167.15C342.34 166.9 349.13 166.24 349.74 165.46C352.74 161.62 350.99 155.48 351 151.08C351.02 142.87 350.75 134.62 350.39 126.42C350.1 119.88 349.44 110.1 353.15 104.32C353.6 103.62 352.71 102.78 352.12 102.42C347.94 99.8901 341.79 100.68 336.48 99.9001C341.36 96.9501 348.98 95.9301 354.11 95.1301C354.49 95.0701 354.86 94.8901 355 94.5601C356.99 89.7901 354.84 82.7701 355.07 77.6501C355.45 69.3301 354.98 62.7301 352.56 54.7501C350.61 48.3201 356.1 40.0501 352.84 33.8701C351.59 31.4901 348.69 31.0701 345.57 30.9801C347.81 30.6901 350.07 30.4701 352.32 30.3101C352.67 30.2801 353.02 30.0701 353.14 29.7801C355.63 23.6601 350.87 17.0101 353.39 10.4501C354.07 8.6701 356.21 6.0401 353.68 4.5101C351.38 3.1201 347.64 3.3901 345.06 4.1001C338.69 5.8501 332.2 6.1901 325.65 6.2701C320.88 5.9101 316.18 5.4801 311.76 5.2401C306.18 4.9401 300.65 4.8501 295.07 4.8501C292.57 4.8501 290.4 4.0601 288.18 5.0301C287.61 5.2801 287.52 5.7601 287.58 6.2601C288.36 12.4001 287.27 18.6601 287 24.8001C287.22 19.7401 285.07 14.7801 283.6 9.9701C282.31 5.7301 283.73 -2.0699 275.92 0.480099C261.19 5.2701 244 2.0801 228.61 3.4301C224.06 3.8301 214.53 2.7801 210.57 4.4601C210 4.7001 209.4 5.5801 209.4 6.0701C209.4 9.3201 210.02 12.2601 209.09 15.3001C207.31 10.5301 206.74 4.7401 201.62 2.0801C201.18 1.8501 200.5 1.6701 200.01 1.9101C193.84 4.9201 189.09 3.1901 182.68 3.3301C176.18 3.4701 169.64 3.8001 163.19 4.5901C152.43 5.9101 142.25 6.0601 131.39 4.9501C130.9 4.9001 130.29 5.1501 130.32 5.6501C130.47 8.4801 130.19 12.2201 129.21 15.5101C127.63 11.6201 125.27 7.6601 121.57 5.8901C119.24 6.3901 116.72 6.2301 114.36 6.0801C112.54 5.9601 110.72 5.9201 108.9 5.9201C102.06 6.7501 94.9795 6.8401 88.0895 6.9901C87.7495 6.9901 87.4095 7.0101 87.0695 7.0201C84.9295 7.1901 82.7795 7.3901 80.6395 7.6301C74.7695 8.3101 68.9195 9.2101 63.0495 9.8601C59.7795 10.2201 56.1595 10.0501 52.9695 10.8201C50.4195 11.4301 48.0595 12.5101 45.5895 13.3501C43.3795 14.1001 41.0995 14.6801 38.7495 14.4001C36.3495 14.1101 34.0495 13.4101 31.6795 12.9401C28.9995 12.4101 26.2395 12.2501 23.5395 11.8701C20.5495 11.4601 17.5595 10.9901 14.5495 10.7601C9.64953 10.3701 4.86953 11.3001 0.0195312 11.4401C0.0395312 11.7301 0.149531 12.0501 0.359531 12.3401C7.33953 22.4001 3.88953 36.0401 5.74953 47.2901C6.50953 51.9001 13.3195 50.9501 21.6395 51.2501C16.5695 52.0501 11.5595 52.1901 9.11953 53.6001C8.58953 59.3001 9.47953 64.8801 10.2095 70.5601C11.9295 83.8501 10.6595 97.4201 11.4595 110.78C11.8395 117.2 13.4195 123.73 12.9495 130.17C12.6995 133.62 11.4295 136.58 12.0495 140.11C12.5095 142.72 13.2395 145.39 13.1695 148.06C12.8495 161.35 13.7195 174.64 13.3295 187.92C13.1395 194.39 13.2395 200.95 12.8195 207.41C12.4495 213.16 11.0695 218.94 11.5995 224.72C11.9395 224.9 12.3195 225.03 12.7195 225.09C15.0995 225.4 17.4295 225.82 19.7595 226.26C18.6495 226.51 17.5395 226.78 16.4995 227.13C12.6395 227.67 10.1595 229.21 12.0695 234.25C12.1295 234.83 12.1795 235.29 12.2095 235.38C12.2195 239.76 10.2195 244.63 8.51953 248.6C6.11953 254.19 7.26953 260.09 8.13953 265.89C10.3495 280.69 7.57953 295.37 9.11953 310.11C9.20953 310.95 10.3195 311.68 11.2195 311.78C13.6295 312.06 17.1195 312.28 20.5495 312.7C18.9795 313.25 17.3295 314.02 15.6795 314.81C14.9095 315.07 14.1995 315.41 13.5395 315.81C11.3595 316.81 9.22953 317.65 7.35953 317.76C6.19953 317.83 5.90953 319.04 6.36953 319.78C12.0795 329.05 8.15953 339.72 8.55953 349.7C8.62953 351.47 7.96953 354.45 7.86953 357.29C7.29953 359.56 6.74953 361.84 6.28953 364.12C10.8095 364.47 15.3395 365.21 19.8095 364.64C22.7395 364.27 25.6395 363.55 28.5895 363.4C31.3695 363.26 33.9495 363.91 36.6995 364.11C36.9895 364.13 37.2695 364.13 37.5495 364.14C37.8295 364.1 38.1095 364.06 38.3895 364.02C39.0095 364.02 39.6295 364.02 40.2495 364.01C42.0995 363.82 43.9395 363.46 45.8195 363.28C48.5895 363.01 51.3795 363.11 54.1495 363.35C55.0795 363.43 56.0095 363.52 56.9395 363.62C59.1895 363.7 61.4395 363.9 63.6995 364.28C64.2495 364.32 64.7995 364.36 65.3595 364.39C65.4895 364.34 65.6095 364.28 65.6995 364.2C67.6795 362.24 67.3195 360.06 67.8795 357.56C68.0395 356.84 68.1695 356.11 68.2895 355.39C68.1695 358.53 68.3695 361.53 70.9895 363.27C72.6695 364.39 74.8095 363.9 76.7395 363.64C82.2395 362.9 87.3595 362.04 92.9595 361.59C101.39 360.91 109.74 361.37 118.09 361.76C133.55 362.75 149.05 363.49 164.54 363.57C174.94 363.62 185.04 362.91 195.47 363.5C199.05 363.7 202.62 363.84 206.18 364.04C207.02 364.12 207.87 364.17 208.73 364.2C209.44 364.25 210.16 364.29 210.88 364.35C212.26 364.46 213.44 364.19 214.54 363.8C215.27 363.64 215.98 363.45 216.64 363.18C216.81 363.11 217.05 362.94 217.32 362.73C218.66 362.26 220.02 362 221.67 362.5C222.27 363.03 222.9 363.54 223.52 364.01C224.3 364.6 225.77 364.83 225.98 363.69C226.23 362.38 226.39 361.05 226.53 359.71C226.97 357.28 227.26 354.72 227.64 352.2C228 354.54 228.62 356.79 229.92 358.72C229.9 359.38 229.93 360.05 230.01 360.76C230.12 361.68 231.27 362.37 232.24 362.53C239.92 363.8 248.8 362.98 256.57 362.67C266.97 362.26 278.85 359.79 288.8 362.97C289.3 363.13 290.25 363.2 290.6 362.73C292.35 360.4 293.6 357.54 294.5 354.52C294.95 355.59 295.54 356.63 296.04 357.68C296.67 358.99 296.77 360.02 297.74 361.13C297.8 361.55 297.88 361.98 297.97 362.41C298.27 363.83 300.21 365.32 301.97 365.04C303.17 364.85 304.36 364.7 305.56 364.56C313.99 365.3 322.5 365.17 330.94 366.04C336.97 366.66 351.83 363.39 356.65 367.92C357.11 368.36 358.59 368.58 358.57 367.67C358.31 358.29 356.89 350.53 353.96 341.49L353.95 341.56Z" fill="#4C2D04"/>
<path d="M352.838 362.22C351.958 361.5 350.988 360.96 349.968 360.54C349.778 360.7 349.558 360.77 349.288 360.72C342.678 359.43 335.568 359.24 328.808 359.11C322.548 358.99 316.488 358.9 310.428 359.25C309.768 359.49 309.128 359.76 308.508 360.07C307.278 360.67 305.888 361.53 304.468 361.23C304.128 361.16 303.818 360.9 303.558 360.69C302.718 360.02 302.138 360.99 301.618 361.61C301.458 361.81 301.078 361.76 300.968 361.53C298.458 356.26 296.548 350.75 294.838 345.17C291.838 349.27 291.368 355.01 289.038 359.46C288.938 359.65 288.648 359.73 288.468 359.61C288.038 359.31 287.688 358.97 287.388 358.6C284.978 358.45 274.948 357.86 274.568 357.87C265.668 358.33 256.778 358.32 247.878 358.77C245.988 358.87 244.098 358.94 242.198 359C242.178 359 242.168 359.02 242.158 359.02C239.968 359.57 234.118 361.54 232.638 358.73C232.118 357.74 232.018 356.59 231.658 355.53C231.168 354.08 230.688 352.64 230.218 351.18C229.278 348.29 228.318 345.41 227.248 342.56C225.918 344.87 225.368 347.98 224.648 350.44C224.408 351.26 224.178 352.07 223.938 352.89C223.848 354.2 223.758 355.51 223.628 356.82C223.358 357.7 222.948 358.4 222.318 358.63C221.158 357.12 219.758 355.92 217.368 356.21C216.678 356.29 216.168 356.61 215.738 357.01C214.788 357.12 213.788 357.47 213.068 357.83C208.848 359.92 206.058 358.85 201.938 358.45C195.448 357.83 188.478 358.14 181.928 358.26C167.668 358.52 153.628 359.42 139.308 359.18C128.438 359 117.338 358.75 106.418 359.28C100.438 358.89 94.4081 358.72 88.2281 359.04C84.5181 359.23 81.0081 359.27 77.3281 359.88C75.6281 360.16 74.5481 360.31 73.8381 360.25C73.3281 360.5 72.8281 360.77 72.3381 361.06C72.1181 361.19 71.7881 361.07 71.7281 360.81C70.8781 357.17 72.3281 353.4 70.2481 350.04C69.2881 348.48 68.0981 347.11 66.8381 345.8C67.5381 350.27 64.6781 354.9 64.3881 359.25C64.2781 360.91 62.4481 361.26 60.4281 361.16C60.4881 360.9 60.1181 360.47 59.7981 360.45C57.1781 360.27 54.6481 360.27 52.1481 360.36C48.7281 360.29 45.2881 360.41 41.8981 360.53C36.0981 360.73 29.9881 359.65 24.2581 360.22C22.0881 360.43 19.9081 360.65 17.7381 360.87C10.8281 361.56 12.6281 361.34 13.0981 357.33C13.2181 356.25 13.2381 355.16 13.2081 354.07C13.8681 350.63 14.4281 347.15 14.7381 343.51C15.0881 339.4 15.1081 334.46 14.2881 330.39C13.8081 327.99 14.1381 324.77 13.9581 322.25C13.9181 321.71 14.7181 320.91 15.7981 320.05C17.5081 319.42 19.1181 318.7 20.1181 318.38C22.9181 317.48 25.7181 316.75 28.5581 316.08C29.4281 315.94 30.2581 315.75 31.0181 315.51C31.5981 315.38 32.1881 315.24 32.7681 315.12C33.6081 314.93 34.5381 314.79 35.4581 314.63C32.7381 313.08 29.5681 312.18 26.6881 311.19C24.6081 310.47 22.5681 309.52 20.3981 309.1C17.4881 308.54 14.5681 308.5 11.6181 308.5C11.3081 308.5 11.0981 308.15 11.2581 307.88C12.3281 306.1 11.9281 304.06 12.4281 302.18C12.5381 289.28 14.3481 276.45 12.8581 263.41C11.7681 253.87 15.7981 245.45 16.0381 235.99C16.0581 235.01 16.1781 234.21 16.3481 233.54C20.3581 228.44 26.2881 231.1 32.6281 228.58C30.5781 227.07 28.6981 225.32 26.4581 224.13C24.4881 223.09 22.3781 222.48 20.2181 222.04C20.0581 222.04 19.8881 222.02 19.7281 222.01C19.6481 221.97 19.5681 221.93 19.4881 221.89C18.1481 221.64 16.7881 221.44 15.4381 221.24C15.2181 221.21 15.0881 220.93 15.1481 220.73C15.7381 218.71 15.8481 216.58 15.8981 214.46C15.8681 212.64 15.8681 210.82 15.8981 209C16.5881 202.05 16.8081 195.33 16.8281 188.2C16.8681 173.7 15.6281 159.39 16.2281 144.84C16.8581 129.58 16.1181 113.93 15.4281 98.67C14.9681 88.3 14.4081 77.88 12.2081 67.75C12.2781 62.59 12.5781 57.08 13.6381 56.59C16.1881 55.42 19.5581 55.06 22.9981 54.74C23.0581 54.72 23.1081 54.7 23.1681 54.68C25.3181 53.79 27.3981 52.73 29.4081 51.56C27.4881 51.03 25.5381 50.62 23.6181 50.19C19.2381 49.21 14.8781 47.34 10.3681 47.21C10.2381 47.21 10.0681 47.14 10.0081 47C9.81813 46.57 9.77813 46.46 9.74813 46.06C8.23812 44.71 8.43813 42.23 8.24813 39.76C7.54813 30.59 8.78813 21.58 4.07812 13.32C9.96812 13.54 15.6981 14.24 21.6781 14.22C27.0981 15.23 32.4581 16.53 38.0481 17.5C46.5681 18.99 58.3381 14.72 66.4281 12.62C76.7181 9.95998 87.7481 10.7 98.3681 10.11C103.548 9.81998 108.398 9.41998 113.498 8.46998C116.608 7.88998 118.998 8.23998 120.848 9.19998C121.058 9.24998 121.268 9.34998 121.428 9.52998C121.438 9.53998 121.448 9.55998 121.458 9.56998C123.318 10.76 124.578 12.62 125.438 14.77C126.678 16.54 127.858 18.35 129.028 20.16C129.068 20.19 129.108 20.2 129.148 20.23C129.818 20.81 130.448 21.43 131.088 22.04C132.628 19.67 132.698 16.71 133.968 14.15C134.598 12.87 133.308 7.36998 134.188 7.43998C143.348 8.24998 152.558 9.08998 161.708 8.05998C167.008 7.46998 172.378 7.54998 177.698 7.40998C183.198 7.25998 189.708 8.79998 195.098 7.38998C199.198 6.31998 203.698 3.07998 203.398 9.26998C203.278 11.82 207.018 16.08 208.228 18.14C208.568 18.72 209.758 19.38 210.268 18.57C211.838 16.1 212.168 14.58 212.168 11.69C212.168 6.31998 214.838 7.23998 219.718 6.54998C225.238 5.76998 231.558 5.88998 237.168 5.69998C242.678 5.50998 248.238 6.52998 253.658 6.21998C256.058 6.07998 278.958 4.47998 278.888 3.72998C279.358 8.65998 282.378 13.7 283.948 18.35C285.078 21.69 285.348 24.97 286.748 28.24C286.918 28.65 287.898 29 287.998 28.37C289.048 21.82 290.908 15.01 291.108 8.41998C291.108 8.04998 294.608 8.01998 298.128 8.06998C306.388 8.94998 315.088 9.17998 323.108 9.42998C332.238 9.70998 340.618 9.63998 349.108 6.86998C349.618 7.16998 349.808 7.65998 349.428 8.44998C347.008 13.47 347.558 17.66 349.068 22.84C351.278 30.4 341.468 28.37 335.368 29.76C335.078 29.83 334.878 29.94 334.728 30.06C335.758 30.33 336.768 30.65 337.768 31C339.758 31.43 341.728 31.89 343.538 32.61C345.498 32.55 349.168 33.31 349.878 35.42C350.168 36.28 349.888 36.84 349.098 37.27C346.848 38.51 349.408 39.84 349.778 41.15C350.338 43.18 349.458 45.43 349.388 47.48C349.308 49.87 349.598 52.2 349.778 54.57C349.978 57.17 350.258 59.76 350.588 62.35C351.238 64.22 351.758 66.14 351.898 68.18C351.998 69.67 351.528 85.86 351.678 90.91C351.858 91.43 352.038 91.94 352.248 92.45C352.338 92.66 352.158 92.91 351.958 92.96C349.368 93.66 346.718 93.72 344.098 94.21C341.468 94.7 339.188 95.8 336.808 96.98C335.218 97.77 333.718 98.64 332.168 99.5C331.798 99.71 331.418 99.92 331.018 100.11C335.038 102.12 340.058 102.07 344.238 103.91C346.648 104.24 348.458 104.48 348.458 104.48C344.588 111.93 346.198 122.26 346.458 130.25C346.738 138.76 346.968 147.34 347.048 155.92C347.268 156.68 347.468 157.45 347.608 158.24C347.848 159.59 347.208 160.91 347.608 162.19C347.688 162.46 347.898 162.92 347.708 163.19C347.388 163.65 346.798 163.77 346.288 163.93C344.628 164.46 342.948 164.96 341.278 165.46C338.298 166.36 335.628 167.71 332.918 169.11C333.258 169.43 333.658 169.68 333.988 169.77C338.168 171.02 341.958 171.86 346.348 172.01C344.548 171.95 343.138 190.83 342.788 192.57C339.928 206.89 343.868 222.57 343.948 237.01C343.988 243.79 344.188 250.44 343.708 257.23C343.218 264.06 345.408 270.75 345.628 277.56C345.728 280.65 348.838 296.41 345.208 298.28C340.948 300.47 334.938 302.4 333.418 306.77C333.268 307.2 333.358 307.62 333.578 307.99C338.308 309.07 343.418 308.99 348.128 308.48C348.388 308.45 348.608 308.77 348.528 309C347.728 311.3 345.968 313.19 347.558 315.62C348.418 316.94 348.798 318.29 348.748 319.88C348.668 322.3 348.228 324.66 348.388 327.09C348.538 329.49 348.738 331.88 349.008 334.27C349.578 339.44 350.278 344.63 351.248 349.74C352.028 353.8 353.258 357.79 353.518 361.93C353.548 362.33 353.068 362.43 352.808 362.22H352.838Z" fill="#C49969"/>
</svg>
