<svg width="1250" height="87" viewBox="0 0 1250 87" fill="none" xmlns="http://www.w3.org/2000/svg">
<g filter="url(#filter0_d_847_370)">
<path d="M73.9571 46.104L87.0131 7.8H106.309L77.2211 78.936L55.5251 38.424L33.9251 78.936L4.83713 7.8H24.0371L37.2851 46.104L55.5251 4.44L73.9571 46.104ZM122.375 75.96C117.255 75.96 112.807 75.032 109.031 73.176C105.319 71.256 102.439 68.568 100.391 65.112C98.3429 61.656 97.3189 57.592 97.3189 52.92C97.3189 48.184 98.3109 44.088 100.295 40.632C102.279 37.176 105.127 34.52 108.839 32.664C112.615 30.808 117.063 29.88 122.183 29.88C127.303 29.88 131.623 30.776 135.143 32.568C138.663 34.296 141.351 36.824 143.207 40.152C145.063 43.48 145.991 47.512 145.991 52.248C145.991 52.952 145.991 53.656 145.991 54.36C145.991 55 145.927 55.544 145.799 55.992H105.479V47.928H132.743L129.287 52.344C129.607 51.896 129.863 51.352 130.055 50.712C130.311 50.008 130.439 49.432 130.439 48.984C130.439 47.064 130.087 45.4 129.383 43.992C128.679 42.584 127.687 41.496 126.407 40.728C125.127 39.96 123.623 39.576 121.895 39.576C119.719 39.576 117.895 40.056 116.423 41.016C114.951 41.976 113.831 43.448 113.063 45.432C112.359 47.352 111.975 49.784 111.911 52.728C111.911 55.416 112.295 57.72 113.063 59.64C113.831 61.56 114.983 63.032 116.519 64.056C118.055 65.016 119.943 65.496 122.183 65.496C124.743 65.496 126.919 65.016 128.711 64.056C130.567 63.096 132.039 61.656 133.127 59.736L146.087 62.904C143.783 67.256 140.647 70.52 136.679 72.696C132.775 74.872 128.007 75.96 122.375 75.96ZM164.542 0.119997V75H150.046V0.119997H164.542ZM200.638 52.92C200.638 57.848 199.614 62.04 197.566 65.496C195.582 68.888 192.99 71.48 189.79 73.272C186.654 75.064 183.262 75.96 179.614 75.96C175.966 75.96 172.702 75.032 169.822 73.176C166.942 71.32 164.67 68.664 163.006 65.208C161.342 61.752 160.51 57.656 160.51 52.92C160.51 48.12 161.342 44.024 163.006 40.632C164.67 37.176 166.942 34.52 169.822 32.664C172.702 30.808 175.966 29.88 179.614 29.88C183.262 29.88 186.654 30.776 189.79 32.568C192.99 34.36 195.582 36.952 197.566 40.344C199.614 43.736 200.638 47.928 200.638 52.92ZM185.374 52.92C185.374 50.616 184.894 48.632 183.934 46.968C182.974 45.24 181.694 43.928 180.094 43.032C178.494 42.072 176.734 41.592 174.814 41.592C173.15 41.592 171.518 42.04 169.918 42.936C168.382 43.832 167.102 45.144 166.078 46.872C165.054 48.536 164.542 50.552 164.542 52.92C164.542 55.288 165.054 57.336 166.078 59.064C167.102 60.728 168.382 62.008 169.918 62.904C171.518 63.8 173.15 64.248 174.814 64.248C176.734 64.248 178.494 63.8 180.094 62.904C181.694 61.944 182.974 60.632 183.934 58.968C184.894 57.24 185.374 55.224 185.374 52.92ZM206.992 58.968C209.232 60.824 211.248 62.296 213.04 63.384C214.896 64.408 216.528 65.144 217.936 65.592C219.344 65.976 220.56 66.168 221.584 66.168C223.056 66.168 224.144 65.848 224.848 65.208C225.552 64.568 225.904 63.736 225.904 62.712C225.904 61.752 225.616 60.952 225.04 60.312C224.464 59.608 223.472 58.936 222.064 58.296C220.72 57.656 218.864 56.984 216.496 56.28C214.384 55.512 212.368 54.616 210.448 53.592C208.592 52.504 207.056 51.064 205.84 49.272C204.624 47.48 204.016 45.176 204.016 42.36C204.016 39.672 204.72 37.4 206.128 35.544C207.6 33.688 209.552 32.28 211.984 31.32C214.48 30.36 217.328 29.88 220.528 29.88C223.088 29.88 225.456 30.168 227.632 30.744C229.872 31.32 231.952 32.088 233.872 33.048C235.856 34.008 237.712 35.128 239.44 36.408L234.256 45.816C232.4 44.088 230.288 42.68 227.92 41.592C225.552 40.44 223.376 39.864 221.392 39.864C220.048 39.864 219.024 40.12 218.32 40.632C217.68 41.144 217.36 41.816 217.36 42.648C217.36 43.608 217.744 44.408 218.512 45.048C219.344 45.688 220.496 46.296 221.968 46.872C223.504 47.384 225.36 48.056 227.536 48.888C229.84 49.72 231.952 50.68 233.872 51.768C235.856 52.856 237.424 54.232 238.576 55.896C239.792 57.56 240.4 59.768 240.4 62.52C240.4 67.256 238.928 70.84 235.984 73.272C233.104 75.64 229.04 76.824 223.792 76.824C220.592 76.824 217.616 76.44 214.864 75.672C212.176 74.968 209.68 74.008 207.376 72.792C205.072 71.512 202.928 70.104 200.944 68.568L206.992 58.968ZM242.709 14.232C242.709 11.928 243.541 10.072 245.205 8.664C246.869 7.192 248.853 6.456 251.157 6.456C253.525 6.456 255.509 7.192 257.109 8.664C258.773 10.072 259.605 11.928 259.605 14.232C259.605 16.536 258.773 18.424 257.109 19.896C255.509 21.368 253.525 22.104 251.157 22.104C248.853 22.104 246.869 21.368 245.205 19.896C243.541 18.424 242.709 16.536 242.709 14.232ZM244.149 30.84H258.165V75H244.149V30.84ZM260.121 30.84H289.689V42.84H260.121V30.84ZM267.897 15.48H281.817V75H267.897V15.48ZM313.531 75.96C308.411 75.96 303.963 75.032 300.187 73.176C296.475 71.256 293.595 68.568 291.547 65.112C289.499 61.656 288.475 57.592 288.475 52.92C288.475 48.184 289.467 44.088 291.451 40.632C293.435 37.176 296.283 34.52 299.995 32.664C303.771 30.808 308.219 29.88 313.339 29.88C318.459 29.88 322.779 30.776 326.299 32.568C329.819 34.296 332.507 36.824 334.363 40.152C336.219 43.48 337.147 47.512 337.147 52.248C337.147 52.952 337.147 53.656 337.147 54.36C337.147 55 337.083 55.544 336.955 55.992H296.635V47.928H323.899L320.443 52.344C320.763 51.896 321.019 51.352 321.211 50.712C321.467 50.008 321.595 49.432 321.595 48.984C321.595 47.064 321.243 45.4 320.539 43.992C319.835 42.584 318.843 41.496 317.563 40.728C316.283 39.96 314.779 39.576 313.051 39.576C310.875 39.576 309.051 40.056 307.579 41.016C306.107 41.976 304.987 43.448 304.219 45.432C303.515 47.352 303.131 49.784 303.067 52.728C303.067 55.416 303.451 57.72 304.219 59.64C304.987 61.56 306.139 63.032 307.675 64.056C309.211 65.016 311.099 65.496 313.339 65.496C315.899 65.496 318.075 65.016 319.867 64.056C321.723 63.096 323.195 61.656 324.283 59.736L337.243 62.904C334.939 67.256 331.803 70.52 327.835 72.696C323.931 74.872 319.163 75.96 313.531 75.96ZM364.416 14.232C364.416 11.928 365.248 10.072 366.912 8.664C368.576 7.192 370.56 6.456 372.864 6.456C375.232 6.456 377.216 7.192 378.816 8.664C380.48 10.072 381.312 11.928 381.312 14.232C381.312 16.536 380.48 18.424 378.816 19.896C377.216 21.368 375.232 22.104 372.864 22.104C370.56 22.104 368.576 21.368 366.912 19.896C365.248 18.424 364.416 16.536 364.416 14.232ZM365.856 30.84H379.872V75H365.856V30.84ZM389.411 58.968C391.651 60.824 393.667 62.296 395.459 63.384C397.315 64.408 398.947 65.144 400.355 65.592C401.763 65.976 402.979 66.168 404.003 66.168C405.475 66.168 406.563 65.848 407.267 65.208C407.971 64.568 408.323 63.736 408.323 62.712C408.323 61.752 408.035 60.952 407.459 60.312C406.883 59.608 405.891 58.936 404.483 58.296C403.139 57.656 401.283 56.984 398.915 56.28C396.803 55.512 394.787 54.616 392.867 53.592C391.011 52.504 389.475 51.064 388.259 49.272C387.043 47.48 386.435 45.176 386.435 42.36C386.435 39.672 387.139 37.4 388.547 35.544C390.019 33.688 391.971 32.28 394.403 31.32C396.899 30.36 399.747 29.88 402.947 29.88C405.507 29.88 407.875 30.168 410.051 30.744C412.291 31.32 414.371 32.088 416.291 33.048C418.275 34.008 420.131 35.128 421.859 36.408L416.675 45.816C414.819 44.088 412.707 42.68 410.339 41.592C407.971 40.44 405.795 39.864 403.811 39.864C402.467 39.864 401.443 40.12 400.739 40.632C400.099 41.144 399.779 41.816 399.779 42.648C399.779 43.608 400.163 44.408 400.931 45.048C401.763 45.688 402.915 46.296 404.387 46.872C405.923 47.384 407.779 48.056 409.955 48.888C412.259 49.72 414.371 50.68 416.291 51.768C418.275 52.856 419.843 54.232 420.995 55.896C422.211 57.56 422.819 59.768 422.819 62.52C422.819 67.256 421.347 70.84 418.403 73.272C415.523 75.64 411.459 76.824 406.211 76.824C403.011 76.824 400.035 76.44 397.283 75.672C394.595 74.968 392.099 74.008 389.795 72.792C387.491 71.512 385.347 70.104 383.363 68.568L389.411 58.968ZM465.141 57.72C465.141 60.28 465.621 62.296 466.581 63.768C467.541 65.176 469.205 65.88 471.573 65.88C473.173 65.88 474.517 65.56 475.605 64.92C476.757 64.28 477.653 63.352 478.293 62.136C478.933 60.92 479.253 59.448 479.253 57.72V30.84H493.749V75H479.253V68.376C477.909 70.744 476.149 72.632 473.973 74.04C471.797 75.384 469.077 76.056 465.813 76.056C460.309 76.056 456.277 74.584 453.717 71.64C451.221 68.632 449.973 64.504 449.973 59.256V30.84H465.141V57.72ZM529.096 48.12C529.096 45.496 528.584 43.48 527.56 42.072C526.6 40.664 524.968 39.96 522.664 39.96C521.128 39.96 519.784 40.28 518.632 40.92C517.48 41.56 516.584 42.488 515.944 43.704C515.304 44.92 514.984 46.392 514.984 48.12V75H500.392V30.84H514.984V37.464C516.264 35.032 517.992 33.144 520.168 31.8C522.408 30.456 525.16 29.784 528.424 29.784C533.928 29.784 537.928 31.256 540.424 34.2C542.92 37.144 544.168 41.272 544.168 46.584V75H529.096V48.12ZM584.315 0.119997H598.811V75H584.315V0.119997ZM548.219 52.92C548.219 47.928 549.211 43.736 551.195 40.344C553.243 36.952 555.867 34.36 559.067 32.568C562.267 30.776 565.659 29.88 569.243 29.88C572.955 29.88 576.219 30.808 579.035 32.664C581.915 34.52 584.187 37.176 585.851 40.632C587.515 44.024 588.347 48.12 588.347 52.92C588.347 57.656 587.515 61.752 585.851 65.208C584.187 68.664 581.915 71.32 579.035 73.176C576.219 75.032 572.955 75.96 569.243 75.96C565.659 75.96 562.267 75.064 559.067 73.272C555.867 71.48 553.243 68.888 551.195 65.496C549.211 62.04 548.219 57.848 548.219 52.92ZM563.483 52.92C563.483 55.224 563.963 57.24 564.923 58.968C565.883 60.632 567.163 61.944 568.763 62.904C570.363 63.8 572.123 64.248 574.043 64.248C575.707 64.248 577.307 63.8 578.843 62.904C580.443 62.008 581.755 60.728 582.779 59.064C583.803 57.336 584.315 55.288 584.315 52.92C584.315 50.552 583.803 48.536 582.779 46.872C581.755 45.144 580.443 43.832 578.843 42.936C577.307 42.04 575.707 41.592 574.043 41.592C572.123 41.592 570.363 42.072 568.763 43.032C567.163 43.928 565.883 45.24 564.923 46.968C563.963 48.632 563.483 50.616 563.483 52.92ZM627.725 75.96C622.605 75.96 618.157 75.032 614.381 73.176C610.669 71.256 607.789 68.568 605.741 65.112C603.693 61.656 602.669 57.592 602.669 52.92C602.669 48.184 603.661 44.088 605.645 40.632C607.629 37.176 610.477 34.52 614.189 32.664C617.965 30.808 622.413 29.88 627.533 29.88C632.653 29.88 636.973 30.776 640.493 32.568C644.013 34.296 646.701 36.824 648.557 40.152C650.413 43.48 651.341 47.512 651.341 52.248C651.341 52.952 651.341 53.656 651.341 54.36C651.341 55 651.277 55.544 651.149 55.992H610.829V47.928H638.093L634.637 52.344C634.957 51.896 635.213 51.352 635.405 50.712C635.661 50.008 635.789 49.432 635.789 48.984C635.789 47.064 635.437 45.4 634.733 43.992C634.029 42.584 633.037 41.496 631.757 40.728C630.477 39.96 628.973 39.576 627.245 39.576C625.069 39.576 623.245 40.056 621.773 41.016C620.301 41.976 619.181 43.448 618.413 45.432C617.709 47.352 617.325 49.784 617.261 52.728C617.261 55.416 617.645 57.72 618.413 59.64C619.181 61.56 620.333 63.032 621.869 64.056C623.405 65.016 625.293 65.496 627.533 65.496C630.093 65.496 632.269 65.016 634.061 64.056C635.917 63.096 637.389 61.656 638.477 59.736L651.437 62.904C649.133 67.256 645.997 70.52 642.029 72.696C638.125 74.872 633.357 75.96 627.725 75.96ZM669.796 30.84V75H655.492V30.84H669.796ZM682.564 45.816C681.796 45.048 680.964 44.44 680.068 43.992C679.236 43.544 678.18 43.32 676.9 43.32C675.492 43.32 674.244 43.704 673.156 44.472C672.068 45.24 671.236 46.36 670.66 47.832C670.084 49.304 669.796 51.096 669.796 53.208L666.34 48.12C666.34 44.6 667.012 41.464 668.356 38.712C669.764 35.96 671.588 33.784 673.828 32.184C676.068 30.584 678.404 29.784 680.836 29.784C682.436 29.784 683.972 30.104 685.444 30.744C686.916 31.384 688.036 32.28 688.804 33.432L682.564 45.816ZM1227.03 7.8H1244.99L1241.91 52.824H1230.2L1227.03 7.8ZM1227.03 69.048C1227.03 66.616 1227.87 64.632 1229.53 63.096C1231.26 61.56 1233.43 60.792 1236.06 60.792C1238.68 60.792 1240.83 61.56 1242.49 63.096C1244.22 64.632 1245.08 66.616 1245.08 69.048C1245.08 71.48 1244.22 73.464 1242.49 75C1240.83 76.536 1238.68 77.304 1236.06 77.304C1233.43 77.304 1231.26 76.536 1229.53 75C1227.87 73.464 1227.03 71.48 1227.03 69.048Z" fill="black"/>
<path d="M726.334 52.92C726.334 55.288 726.846 57.336 727.87 59.064C728.894 60.728 730.302 62.04 732.094 63C733.95 63.96 735.934 64.44 738.046 64.44C739.838 64.44 741.534 64.184 743.134 63.672C744.798 63.096 746.302 62.328 747.646 61.368C749.054 60.408 750.206 59.224 751.102 57.816V71.928C749.566 73.144 747.646 74.136 745.342 74.904C743.038 75.608 740.222 75.96 736.894 75.96C732.03 75.96 727.646 75 723.742 73.08C719.902 71.16 716.862 68.472 714.622 65.016C712.446 61.56 711.358 57.528 711.358 52.92C711.358 48.248 712.446 44.216 714.622 40.824C716.862 37.368 719.902 34.68 723.742 32.76C727.646 30.84 732.03 29.88 736.894 29.88C740.222 29.88 743.038 30.264 745.342 31.032C747.646 31.736 749.566 32.632 751.102 33.72V47.928C750.206 46.52 749.022 45.336 747.55 44.376C746.142 43.416 744.606 42.68 742.942 42.168C741.278 41.656 739.646 41.4 738.046 41.4C735.934 41.4 733.95 41.912 732.094 42.936C730.302 43.96 728.894 45.336 727.87 47.064C726.846 48.792 726.334 50.744 726.334 52.92ZM754.188 52.92C754.188 48.248 755.276 44.184 757.452 40.728C759.628 37.272 762.636 34.584 766.476 32.664C770.316 30.744 774.636 29.784 779.436 29.784C784.236 29.784 788.524 30.744 792.3 32.664C796.14 34.584 799.148 37.272 801.324 40.728C803.564 44.184 804.684 48.248 804.684 52.92C804.684 57.528 803.564 61.56 801.324 65.016C799.148 68.472 796.14 71.16 792.3 73.08C788.524 75 784.236 75.96 779.436 75.96C774.636 75.96 770.316 75 766.476 73.08C762.636 71.16 759.628 68.472 757.452 65.016C755.276 61.56 754.188 57.528 754.188 52.92ZM769.068 52.92C769.068 55.224 769.548 57.208 770.508 58.872C771.468 60.472 772.716 61.72 774.252 62.616C775.788 63.512 777.516 63.96 779.436 63.96C781.292 63.96 782.988 63.512 784.524 62.616C786.124 61.72 787.372 60.472 788.268 58.872C789.228 57.208 789.708 55.224 789.708 52.92C789.708 50.616 789.228 48.632 788.268 46.968C787.372 45.304 786.124 44.024 784.524 43.128C782.988 42.232 781.292 41.784 779.436 41.784C777.516 41.784 775.788 42.232 774.252 43.128C772.716 44.024 771.468 45.304 770.508 46.968C769.548 48.632 769.068 50.616 769.068 52.92ZM837.309 48.12C837.309 45.496 836.797 43.48 835.773 42.072C834.813 40.664 833.181 39.96 830.877 39.96C829.341 39.96 827.997 40.28 826.845 40.92C825.693 41.56 824.797 42.488 824.157 43.704C823.517 44.92 823.197 46.392 823.197 48.12V75H808.605V30.84H823.197V37.464C824.477 35.032 826.205 33.144 828.381 31.8C830.621 30.456 833.373 29.784 836.637 29.784C842.141 29.784 846.141 31.256 848.637 34.2C851.133 37.144 852.381 41.272 852.381 46.584V75H837.309V48.12ZM861.423 58.968C863.663 60.824 865.679 62.296 867.471 63.384C869.327 64.408 870.959 65.144 872.367 65.592C873.775 65.976 874.991 66.168 876.015 66.168C877.487 66.168 878.575 65.848 879.279 65.208C879.983 64.568 880.335 63.736 880.335 62.712C880.335 61.752 880.047 60.952 879.471 60.312C878.895 59.608 877.903 58.936 876.495 58.296C875.151 57.656 873.295 56.984 870.927 56.28C868.815 55.512 866.799 54.616 864.879 53.592C863.023 52.504 861.487 51.064 860.271 49.272C859.055 47.48 858.447 45.176 858.447 42.36C858.447 39.672 859.151 37.4 860.559 35.544C862.031 33.688 863.983 32.28 866.415 31.32C868.911 30.36 871.759 29.88 874.959 29.88C877.519 29.88 879.887 30.168 882.063 30.744C884.303 31.32 886.383 32.088 888.303 33.048C890.287 34.008 892.143 35.128 893.871 36.408L888.687 45.816C886.831 44.088 884.719 42.68 882.351 41.592C879.983 40.44 877.807 39.864 875.823 39.864C874.479 39.864 873.455 40.12 872.751 40.632C872.111 41.144 871.791 41.816 871.791 42.648C871.791 43.608 872.175 44.408 872.943 45.048C873.775 45.688 874.927 46.296 876.399 46.872C877.935 47.384 879.791 48.056 881.967 48.888C884.271 49.72 886.383 50.68 888.303 51.768C890.287 52.856 891.855 54.232 893.007 55.896C894.223 57.56 894.831 59.768 894.831 62.52C894.831 67.256 893.359 70.84 890.415 73.272C887.535 75.64 883.471 76.824 878.223 76.824C875.023 76.824 872.047 76.44 869.295 75.672C866.607 74.968 864.111 74.008 861.807 72.792C859.503 71.512 857.359 70.104 855.375 68.568L861.423 58.968ZM892.821 30.84H922.389V42.84H892.821V30.84ZM900.597 15.48H914.517V75H900.597V15.48ZM938.071 30.84V75H923.767V30.84H938.071ZM950.839 45.816C950.071 45.048 949.239 44.44 948.343 43.992C947.511 43.544 946.455 43.32 945.175 43.32C943.767 43.32 942.519 43.704 941.431 44.472C940.343 45.24 939.511 46.36 938.935 47.832C938.359 49.304 938.071 51.096 938.071 53.208L934.615 48.12C934.615 44.6 935.287 41.464 936.631 38.712C938.039 35.96 939.863 33.784 942.103 32.184C944.343 30.584 946.679 29.784 949.111 29.784C950.711 29.784 952.247 30.104 953.719 30.744C955.191 31.384 956.311 32.28 957.079 33.432L950.839 45.816ZM973.604 57.72C973.604 60.28 974.084 62.296 975.044 63.768C976.004 65.176 977.668 65.88 980.036 65.88C981.636 65.88 982.98 65.56 984.068 64.92C985.22 64.28 986.116 63.352 986.756 62.136C987.396 60.92 987.716 59.448 987.716 57.72V30.84H1002.21V75H987.716V68.376C986.372 70.744 984.612 72.632 982.436 74.04C980.26 75.384 977.54 76.056 974.276 76.056C968.772 76.056 964.74 74.584 962.18 71.64C959.684 68.632 958.436 64.504 958.436 59.256V30.84H973.604V57.72ZM1021.05 52.92C1021.05 55.288 1021.56 57.336 1022.58 59.064C1023.61 60.728 1025.01 62.04 1026.81 63C1028.66 63.96 1030.65 64.44 1032.76 64.44C1034.55 64.44 1036.25 64.184 1037.85 63.672C1039.51 63.096 1041.01 62.328 1042.36 61.368C1043.77 60.408 1044.92 59.224 1045.81 57.816V71.928C1044.28 73.144 1042.36 74.136 1040.05 74.904C1037.75 75.608 1034.93 75.96 1031.61 75.96C1026.74 75.96 1022.36 75 1018.45 73.08C1014.61 71.16 1011.57 68.472 1009.33 65.016C1007.16 61.56 1006.07 57.528 1006.07 52.92C1006.07 48.248 1007.16 44.216 1009.33 40.824C1011.57 37.368 1014.61 34.68 1018.45 32.76C1022.36 30.84 1026.74 29.88 1031.61 29.88C1034.93 29.88 1037.75 30.264 1040.05 31.032C1042.36 31.736 1044.28 32.632 1045.81 33.72V47.928C1044.92 46.52 1043.73 45.336 1042.26 44.376C1040.85 43.416 1039.32 42.68 1037.65 42.168C1035.99 41.656 1034.36 41.4 1032.76 41.4C1030.65 41.4 1028.66 41.912 1026.81 42.936C1025.01 43.96 1023.61 45.336 1022.58 47.064C1021.56 48.792 1021.05 50.744 1021.05 52.92ZM1046.31 30.84H1075.88V42.84H1046.31V30.84ZM1054.08 15.48H1068V75H1054.08V15.48ZM1076.39 14.232C1076.39 11.928 1077.22 10.072 1078.89 8.664C1080.55 7.192 1082.53 6.456 1084.84 6.456C1087.21 6.456 1089.19 7.192 1090.79 8.664C1092.45 10.072 1093.29 11.928 1093.29 14.232C1093.29 16.536 1092.45 18.424 1090.79 19.896C1089.19 21.368 1087.21 22.104 1084.84 22.104C1082.53 22.104 1080.55 21.368 1078.89 19.896C1077.22 18.424 1076.39 16.536 1076.39 14.232ZM1077.83 30.84H1091.85V75H1077.83V30.84ZM1096.39 52.92C1096.39 48.248 1097.48 44.184 1099.66 40.728C1101.83 37.272 1104.84 34.584 1108.68 32.664C1112.52 30.744 1116.84 29.784 1121.64 29.784C1126.44 29.784 1130.73 30.744 1134.51 32.664C1138.35 34.584 1141.35 37.272 1143.53 40.728C1145.77 44.184 1146.89 48.248 1146.89 52.92C1146.89 57.528 1145.77 61.56 1143.53 65.016C1141.35 68.472 1138.35 71.16 1134.51 73.08C1130.73 75 1126.44 75.96 1121.64 75.96C1116.84 75.96 1112.52 75 1108.68 73.08C1104.84 71.16 1101.83 68.472 1099.66 65.016C1097.48 61.56 1096.39 57.528 1096.39 52.92ZM1111.27 52.92C1111.27 55.224 1111.75 57.208 1112.71 58.872C1113.67 60.472 1114.92 61.72 1116.46 62.616C1117.99 63.512 1119.72 63.96 1121.64 63.96C1123.5 63.96 1125.19 63.512 1126.73 62.616C1128.33 61.72 1129.58 60.472 1130.47 58.872C1131.43 57.208 1131.91 55.224 1131.91 52.92C1131.91 50.616 1131.43 48.632 1130.47 46.968C1129.58 45.304 1128.33 44.024 1126.73 43.128C1125.19 42.232 1123.5 41.784 1121.64 41.784C1119.72 41.784 1117.99 42.232 1116.46 43.128C1114.92 44.024 1113.67 45.304 1112.71 46.968C1111.75 48.632 1111.27 50.616 1111.27 52.92ZM1179.51 48.12C1179.51 45.496 1179 43.48 1177.98 42.072C1177.02 40.664 1175.39 39.96 1173.08 39.96C1171.55 39.96 1170.2 40.28 1169.05 40.92C1167.9 41.56 1167 42.488 1166.36 43.704C1165.72 44.92 1165.4 46.392 1165.4 48.12V75H1150.81V30.84H1165.4V37.464C1166.68 35.032 1168.41 33.144 1170.59 31.8C1172.83 30.456 1175.58 29.784 1178.84 29.784C1184.35 29.784 1188.35 31.256 1190.84 34.2C1193.34 37.144 1194.59 41.272 1194.59 46.584V75H1179.51V48.12Z" fill="#3664AF"/>
</g>
<defs>
<filter id="filter0_d_847_370" x="0.836914" y="0.120117" width="1248.25" height="86.8159" filterUnits="userSpaceOnUse" color-interpolation-filters="sRGB">
<feFlood flood-opacity="0" result="BackgroundImageFix"/>
<feColorMatrix in="SourceAlpha" type="matrix" values="0 0 0 0 0 0 0 0 0 0 0 0 0 0 0 0 0 0 127 0" result="hardAlpha"/>
<feOffset dy="4"/>
<feGaussianBlur stdDeviation="2"/>
<feComposite in2="hardAlpha" operator="out"/>
<feColorMatrix type="matrix" values="0 0 0 0 0 0 0 0 0 0 0 0 0 0 0 0 0 0 0.25 0"/>
<feBlend mode="normal" in2="BackgroundImageFix" result="effect1_dropShadow_847_370"/>
<feBlend mode="normal" in="SourceGraphic" in2="effect1_dropShadow_847_370" result="shape"/>
</filter>
</defs>
</svg>
