<svg width="36" height="36" viewBox="0 0 36 36" fill="none" xmlns="http://www.w3.org/2000/svg">
<g clip-path="url(#clip0_847_375)">
<path d="M8.99342 35.4789C6.8842 35.383 5.73842 35.032 4.97632 34.7347C3.96651 34.3416 3.24657 33.8736 2.48869 33.1167C1.7308 32.3599 1.26174 31.64 0.870671 30.6302C0.57342 29.8681 0.222411 28.7223 0.12649 26.6131C0.0210816 24.3331 0 23.649 0 17.8726C0 12.0962 0.0231898 11.4132 0.125436 9.13112C0.221357 7.0219 0.574474 5.87822 0.869617 5.11401C1.26279 4.1042 1.73186 3.38427 2.48763 2.62533C3.24446 1.8685 3.9644 1.39838 4.97526 1.00731C5.73736 0.710061 6.88315 0.359052 8.99237 0.263131C11.2734 0.158777 11.9586 0.137695 17.7328 0.137695C23.5092 0.137695 24.1922 0.160885 26.4743 0.263131C28.5835 0.359052 29.7272 0.71217 30.4914 1.00731C31.5012 1.39838 32.2212 1.8685 32.979 2.62533C33.7369 3.38216 34.2039 4.10315 34.597 5.11296C34.8943 5.87506 35.2453 7.02084 35.3412 9.13006C35.4456 11.4121 35.4667 12.0952 35.4667 17.8716C35.4667 23.6458 35.4456 24.331 35.3412 26.6131C35.2453 28.7223 34.8922 29.8681 34.597 30.6302C34.2039 31.64 33.7359 32.3599 32.979 33.1167C32.2222 33.8736 31.5012 34.3416 30.4914 34.7347C29.7293 35.032 28.5835 35.383 26.4743 35.4789C24.1943 35.5833 23.5092 35.6044 17.7328 35.6044C11.9586 35.6044 11.2734 35.5843 8.99342 35.4789Z" fill="url(#paint0_radial_847_375)"/>
<path d="M8.99342 35.4789C6.8842 35.383 5.73842 35.032 4.97632 34.7347C3.96651 34.3416 3.24657 33.8736 2.48869 33.1167C1.7308 32.3599 1.26174 31.64 0.870671 30.6302C0.57342 29.8681 0.222411 28.7223 0.12649 26.6131C0.0210816 24.3331 0 23.649 0 17.8726C0 12.0962 0.0231898 11.4132 0.125436 9.13112C0.221357 7.0219 0.574474 5.87822 0.869617 5.11401C1.26279 4.1042 1.73186 3.38427 2.48763 2.62533C3.24446 1.8685 3.9644 1.39838 4.97526 1.00731C5.73736 0.710061 6.88315 0.359052 8.99237 0.263131C11.2734 0.158777 11.9586 0.137695 17.7328 0.137695C23.5092 0.137695 24.1922 0.160885 26.4743 0.263131C28.5835 0.359052 29.7272 0.71217 30.4914 1.00731C31.5012 1.39838 32.2212 1.8685 32.979 2.62533C33.7369 3.38216 34.2039 4.10315 34.597 5.11296C34.8943 5.87506 35.2453 7.02084 35.3412 9.13006C35.4456 11.4121 35.4667 12.0952 35.4667 17.8716C35.4667 23.6458 35.4456 24.331 35.3412 26.6131C35.2453 28.7223 34.8922 29.8681 34.597 30.6302C34.2039 31.64 33.7359 32.3599 32.979 33.1167C32.2222 33.8736 31.5012 34.3416 30.4914 34.7347C29.7293 35.032 28.5835 35.383 26.4743 35.4789C24.1943 35.5833 23.5092 35.6044 17.7328 35.6044C11.9586 35.6044 11.2734 35.5843 8.99342 35.4789Z" fill="url(#paint1_radial_847_375)"/>
<path d="M13.3785 17.9465C13.3785 15.521 15.3442 13.5542 17.7698 13.5542C20.1953 13.5542 22.1621 15.521 22.1621 17.9465C22.1621 20.3721 20.1953 22.3389 17.7698 22.3389C15.3442 22.3389 13.3785 20.3721 13.3785 17.9465ZM11.004 17.9465C11.004 21.6832 14.033 24.7122 17.7698 24.7122C21.5065 24.7122 24.5355 21.6832 24.5355 17.9465C24.5355 14.2098 21.5065 11.1808 17.7698 11.1808C14.033 11.1808 11.0041 14.2096 11.0041 17.9465M23.2223 10.9125C23.2222 11.2253 23.3148 11.531 23.4884 11.7911C23.6621 12.0511 23.9089 12.2539 24.1978 12.3737C24.4867 12.4935 24.8045 12.5249 25.1113 12.464C25.418 12.4031 25.6998 12.2527 25.921 12.0316C26.1422 11.8106 26.2929 11.5289 26.3541 11.2222C26.4152 10.9156 26.384 10.5976 26.2644 10.3087C26.1449 10.0197 25.9423 9.7727 25.6824 9.59886C25.4224 9.42502 25.1168 9.33217 24.8041 9.33204H24.8034C24.3843 9.33224 23.9823 9.4988 23.6859 9.79514C23.3894 10.0915 23.2227 10.4934 23.2223 10.9125ZM12.4467 28.6716C11.162 28.6131 10.4638 28.3991 9.99982 28.2183C9.38465 27.9788 8.94573 27.6936 8.48426 27.2328C8.02278 26.7719 7.73713 26.3334 7.49869 25.7183C7.31781 25.2545 7.10383 24.556 7.04544 23.2714C6.98156 21.8826 6.96881 21.4654 6.96881 17.9467C6.96881 14.4281 6.98261 14.0121 7.04544 12.622C7.10394 11.3374 7.3195 10.6404 7.49869 10.1752C7.73818 9.56004 8.02341 9.12112 8.48426 8.65965C8.9451 8.19817 9.3836 7.91251 9.99982 7.67408C10.4636 7.4932 11.162 7.27922 12.4467 7.22082C13.8355 7.15695 14.2527 7.14419 17.7698 7.14419C21.2868 7.14419 21.7044 7.15779 23.0945 7.22104C24.3791 7.27954 25.0761 7.4951 25.5413 7.67429C26.1565 7.91272 26.5954 8.19901 27.0569 8.65986C27.5183 9.1207 27.8029 9.56025 28.0424 10.1754C28.2233 10.6392 28.4373 11.3376 28.4957 12.6223C28.5595 14.0123 28.5723 14.4283 28.5723 17.9469C28.5723 21.4656 28.5595 21.8816 28.4957 23.2716C28.4372 24.5562 28.2221 25.2545 28.0424 25.7185C27.8029 26.3336 27.5177 26.7726 27.0569 27.233C26.596 27.6934 26.1565 27.9791 25.5413 28.2185C25.0775 28.3994 24.3791 28.6134 23.0945 28.6718C21.7056 28.7357 21.2884 28.7484 17.7698 28.7484C14.2511 28.7484 13.8351 28.7357 12.4467 28.6718M12.3376 4.8503C10.9349 4.91418 9.97642 5.13659 9.13937 5.4623C8.27302 5.79866 7.53864 6.24991 6.80532 6.98208C6.07199 7.71424 5.6219 8.44872 5.28554 9.31613C4.95983 10.1537 4.73742 11.1116 4.67354 12.5143C4.60861 13.9192 4.59375 14.3683 4.59375 17.9465C4.59375 21.5247 4.60861 21.9739 4.67354 23.3787C4.73742 24.7815 4.95983 25.7393 5.28554 26.5769C5.6219 27.4433 6.0721 28.1791 6.80532 28.911C7.53854 29.6428 8.27197 30.0934 9.13937 30.4307C9.978 30.7565 10.9349 30.9789 12.3376 31.0427C13.7432 31.1066 14.1916 31.1225 17.7698 31.1225C21.3479 31.1225 21.7971 31.1077 23.202 31.0427C24.6047 30.9789 25.5626 30.7565 26.4002 30.4307C27.2665 30.0934 28.0009 29.6431 28.7342 28.911C29.4675 28.1788 29.9167 27.4433 30.254 26.5769C30.5797 25.7393 30.8032 24.7814 30.866 23.3787C30.9299 21.9728 30.9447 21.5247 30.9447 17.9465C30.9447 14.3683 30.9299 13.9192 30.866 12.5143C30.8021 11.1115 30.5797 10.1532 30.254 9.31613C29.9167 8.44978 29.4664 7.7154 28.7342 6.98208C28.002 6.24875 27.2665 5.79866 26.4012 5.4623C25.5626 5.13659 24.6046 4.91313 23.203 4.8503C21.7979 4.78611 21.349 4.77051 17.7713 4.77051C14.1937 4.77051 13.7437 4.78537 12.3381 4.8503" fill="white"/>
</g>
<defs>
<radialGradient id="paint0_radial_847_375" cx="0" cy="0" r="1" gradientUnits="userSpaceOnUse" gradientTransform="translate(2.29537 34.8274) scale(45.0295)">
<stop offset="0.09" stop-color="#FA8F21"/>
<stop offset="0.78" stop-color="#D82D7E"/>
</radialGradient>
<radialGradient id="paint1_radial_847_375" cx="0" cy="0" r="1" gradientUnits="userSpaceOnUse" gradientTransform="translate(24.5665 33.6886) scale(39.6264)">
<stop offset="0.64" stop-color="#8C3AAA" stop-opacity="0"/>
<stop offset="1" stop-color="#8C3AAA"/>
</radialGradient>
<clipPath id="clip0_847_375">
<rect width="35.4667" height="35.4667" fill="white" transform="translate(0 0.137695)"/>
</clipPath>
</defs>
</svg>
