<svg width="225" height="80" viewBox="0 0 225 80" fill="none" xmlns="http://www.w3.org/2000/svg">
<path d="M81.5465 52.8454C81.2421 53.1805 80.7622 53.5275 80.1066 53.8866C79.451 54.2217 78.6901 54.5328 77.8239 54.8201C76.981 55.1073 76.1147 55.3347 75.225 55.5022C74.3354 55.6937 73.4925 55.7895 72.6965 55.7895C70.5893 55.7895 68.6929 55.4783 67.0072 54.856C65.3214 54.2097 63.8816 53.3241 62.6875 52.1991C61.4935 51.0502 60.5804 49.6978 59.9482 48.142C59.3161 46.5862 59 44.8867 59 43.0437C59 40.6261 59.3512 38.5318 60.0536 36.7605C60.7794 34.9653 61.751 33.4813 62.9685 32.3084C64.2093 31.1117 65.6258 30.226 67.2179 29.6516C68.8334 29.0771 70.5191 28.7899 72.275 28.7899C73.9373 28.7899 75.4592 28.9814 76.8405 29.3643C78.2219 29.7234 79.3925 30.1782 80.3524 30.7287L78.7018 35.5757C78.2804 35.3363 77.7185 35.097 77.0161 34.8576C76.3137 34.6183 75.5996 34.4268 74.8738 34.2832C74.1481 34.1156 73.5042 34.0318 72.9423 34.0318C71.5375 34.0318 70.2967 34.2113 69.2197 34.5704C68.1427 34.9294 67.2296 35.468 66.4804 36.186C65.7546 36.9041 65.2044 37.8017 64.8298 38.8788C64.4552 39.932 64.2679 41.1647 64.2679 42.5769C64.2679 43.8216 64.4786 44.9466 64.9 45.9519C65.3214 46.9332 65.9068 47.771 66.656 48.4651C67.4286 49.1593 68.33 49.6858 69.3601 50.0449C70.4137 50.4039 71.5727 50.5834 72.8369 50.5834C73.5627 50.5834 74.23 50.5356 74.8387 50.4398C75.4475 50.3201 75.9625 50.1406 76.384 49.9013V46.7058H71.9238V41.6793H81.5465V52.8454Z" fill="#3664AF"/>
<path d="M80.9045 55.5022L92.564 28.0359H92.845L104.505 55.5022H98.6045L91.1592 36.186L94.8468 33.601L85.9265 55.5022H80.9045ZM88.8765 45.9519H96.6378L98.4289 50.3321H87.2961L88.8765 45.9519Z" fill="#3664AF"/>
<path d="M104.761 55.5022V28H104.796L119.159 48.8242L116.982 48.3215L131.311 28H131.381V55.5022H126.289V39.7405L126.605 42.4333L117.86 55.1432H117.79L108.799 42.4333L109.677 39.9559V55.5022H104.761Z" fill="#3664AF"/>
<path d="M142.136 29.0771C144.828 29.0771 146.971 29.6396 148.563 30.7646C150.155 31.8656 150.951 33.5172 150.951 35.7193C150.951 37.3469 150.553 38.7113 149.757 39.8123C148.984 40.8894 147.919 41.7033 146.561 42.2538C145.226 42.7804 143.693 43.0437 141.96 43.0437L141.152 40.2432C143.283 40.2432 145.168 40.5424 146.807 41.1408C148.469 41.7392 149.78 42.6008 150.74 43.7258C151.7 44.8269 152.18 46.1553 152.18 47.7111C152.18 49.1473 151.922 50.368 151.407 51.3733C150.916 52.3547 150.237 53.1565 149.37 53.7789C148.527 54.3773 147.568 54.8201 146.491 55.1073C145.414 55.3706 144.301 55.5022 143.154 55.5022H134.55V29.0771H142.136ZM142.733 39.8841C143.74 39.8841 144.477 39.573 144.945 38.9506C145.437 38.3283 145.683 37.6222 145.683 36.8323C145.683 35.9228 145.378 35.2406 144.77 34.7858C144.184 34.331 143.388 34.1036 142.382 34.1036H139.642V39.8841H142.733ZM142.908 50.6552C143.658 50.6552 144.337 50.5595 144.945 50.368C145.554 50.1526 146.034 49.8295 146.385 49.3986C146.736 48.9438 146.912 48.3813 146.912 47.7111C146.912 46.9452 146.701 46.3707 146.28 45.9878C145.858 45.5809 145.308 45.3056 144.629 45.162C143.974 44.9944 143.283 44.9107 142.557 44.9107H139.642V50.6552H142.908Z" fill="#3664AF"/>
<path d="M153.776 29.0771H158.869V55.5022H153.776V29.0771Z" fill="#3664AF"/>
<path d="M160.272 29.0771H177.691V34.1036H171.405V55.5022H166.313V34.1036H160.272V29.0771Z" fill="#3664AF"/>
<path d="M176.622 42.3256C176.622 40.5065 176.961 38.7831 177.64 37.1554C178.319 35.5278 179.256 34.0917 180.45 32.847C181.667 31.5784 183.072 30.5851 184.664 29.867C186.256 29.1489 187.965 28.7899 189.791 28.7899C191.594 28.7899 193.292 29.1489 194.884 29.867C196.476 30.5851 197.88 31.5784 199.098 32.847C200.339 34.0917 201.299 35.5278 201.978 37.1554C202.68 38.7831 203.031 40.5065 203.031 42.3256C203.031 44.1926 202.68 45.9399 201.978 47.5675C201.299 49.1952 200.339 50.6313 199.098 51.876C197.88 53.0967 196.476 54.0541 194.884 54.7483C193.292 55.4424 191.594 55.7895 189.791 55.7895C187.965 55.7895 186.256 55.4424 184.664 54.7483C183.072 54.0541 181.667 53.0967 180.45 51.876C179.256 50.6313 178.319 49.1952 177.64 47.5675C176.961 45.9399 176.622 44.1926 176.622 42.3256ZM181.89 42.3256C181.89 43.4984 182.089 44.5995 182.487 45.6287C182.908 46.634 183.482 47.5316 184.207 48.3215C184.957 49.0875 185.811 49.6858 186.771 50.1167C187.754 50.5475 188.82 50.763 189.967 50.763C191.067 50.763 192.086 50.5475 193.022 50.1167C193.982 49.6858 194.813 49.0875 195.516 48.3215C196.218 47.5316 196.768 46.634 197.166 45.6287C197.564 44.5995 197.763 43.4984 197.763 42.3256C197.763 41.1288 197.553 40.0158 197.131 38.9865C196.733 37.9573 196.171 37.0597 195.446 36.2938C194.743 35.5039 193.912 34.8935 192.952 34.4627C191.992 34.0318 190.95 33.8164 189.826 33.8164C188.703 33.8164 187.661 34.0318 186.701 34.4627C185.741 34.8935 184.898 35.5039 184.172 36.2938C183.446 37.0597 182.885 37.9573 182.487 38.9865C182.089 40.0158 181.89 41.1288 181.89 42.3256Z" fill="#3664AF"/>
<path d="M212.428 29.0771C214.043 29.0771 215.483 29.2925 216.747 29.7234C218.012 30.1303 219.065 30.7287 219.908 31.5186C220.774 32.2845 221.43 33.218 221.875 34.3191C222.32 35.3962 222.542 36.6169 222.542 37.9812C222.542 39.0583 222.378 40.1355 222.05 41.2126C221.746 42.2897 221.231 43.271 220.505 44.1567C219.803 45.0423 218.866 45.7604 217.696 46.3109C216.525 46.8375 215.073 47.1008 213.341 47.1008H209.689V55.5022H204.596V29.0771H212.428ZM213.306 42.0743C214.078 42.0743 214.722 41.9426 215.237 41.6793C215.752 41.416 216.15 41.0809 216.431 40.674C216.736 40.2671 216.946 39.8482 217.064 39.4174C217.204 38.9626 217.274 38.5437 217.274 38.1608C217.274 37.8735 217.227 37.5145 217.134 37.0836C217.064 36.6289 216.9 36.1741 216.642 35.7193C216.385 35.2645 215.987 34.8815 215.448 34.5704C214.933 34.2592 214.231 34.1036 213.341 34.1036H209.689V42.0743H213.306ZM218.082 45.3056L224.474 55.5022H218.539L212.006 45.4492L218.082 45.3056Z" fill="#3664AF"/>
<g clip-path="url(#clip0_847_388)">
<path d="M43.9072 39.3269L42.4873 40.6897L43.8896 39.3052L43.9072 39.3269Z" fill="#084B82"/>
<path d="M45.4602 39.9976V40.001L45.4512 39.9976H45.4602Z" fill="#084B82"/>
<path d="M48.7976 42.6443L48.802 42.6487L43.8896 47.4987L42.4873 48.8832L40.8513 50.4593L37.8968 47.4596L31.8643 41.3469H17.6253L13.3611 37.1368H33.5752V37.1586L33.637 37.1064L40.913 44.4816L43.7617 41.6691L35.0922 21.7115H10.0273L10.1552 21.533L10.9931 20.3967L13.0127 17.6364L13.123 17.5189L13.1406 17.5015H43.0429L39.6254 21.4677L48.8196 42.6313L48.7976 42.6443Z" fill="#3664AF"/>
<path d="M37.5091 66.9741V72.93L0 35.8971L2.46944 32.3793L5.92225 27.4552L8.77975 23.3844L8.88558 23.2625L8.90322 23.2451H14.0494L11.1301 27.4552H11.1081L5.5342 35.4051L37.5091 66.9741Z" fill="#3664AF"/>
<path d="M8.88954 23.2625L8.7793 23.3844L8.87631 23.2451L8.88954 23.2625Z" fill="#123456"/>
<path d="M45.4598 62.8591V79.9998H0V79.9955L4.25979 75.7897L12.2326 67.9225L15.2488 70.8961L10.2923 75.7897H41.1912V64.605L21.4489 45.1133H27.4814L45.4598 62.8591Z" fill="#3664AF"/>
<path d="M24.7735 68.2277V74.1836L4.77539 54.4437L4.78421 54.435V44.8394H4.82831L9.04841 49.0015V52.7022L24.7735 68.2277Z" fill="#3664AF"/>
<path d="M31.5781 27.5723H34.7752V31.1597L31.5781 27.5723Z" fill="#01D1FF"/>
<path d="M36.3448 14.572H15.3413L8.24609 0L17.0435 4.48435V10.0876H22.2955V5.49878H29.3246V10.0876H34.5765V4.48435L43.3739 0L36.2787 14.572H15.2752H36.3448Z" fill="#01D1FF"/>
</g>
<defs>
<clipPath id="clip0_847_388">
<rect width="48.82" height="80" fill="white"/>
</clipPath>
</defs>
</svg>
