<svg width="924" height="100" viewBox="0 0 924 100" fill="none" xmlns="http://www.w3.org/2000/svg">
<path d="M3.68656 23C4.2999 24.0667 4.95323 25.0133 5.64656 25.84C6.36656 26.64 7.15323 27.2667 8.00656 27.72C8.8599 28.1467 9.8199 28.36 10.8866 28.36C12.1666 28.36 13.2066 28.0133 14.0066 27.32C14.8066 26.6267 15.2066 25.7333 15.2066 24.64C15.2066 23.6 14.9532 22.7733 14.4466 22.16C13.9399 21.52 13.2332 20.9867 12.3266 20.56C11.4466 20.1067 10.4199 19.6667 9.24656 19.24C8.55323 19 7.7799 18.68 6.92656 18.28C6.07323 17.8533 5.2599 17.3333 4.48656 16.72C3.71323 16.08 3.07323 15.3067 2.56656 14.4C2.0599 13.4667 1.80656 12.3467 1.80656 11.04C1.80656 9.54666 2.19323 8.24 2.96656 7.12C3.7399 5.97333 4.7799 5.09333 6.08656 4.48C7.4199 3.84 8.92656 3.52 10.6066 3.52C12.2599 3.52 13.6999 3.81333 14.9266 4.4C16.1532 4.98666 17.1799 5.73333 18.0066 6.64C18.8599 7.54667 19.5266 8.49333 20.0066 9.48L16.1666 11.64C15.8199 10.9467 15.3799 10.3067 14.8466 9.72C14.3132 9.10666 13.6866 8.62666 12.9666 8.28C12.2732 7.90666 11.4599 7.72 10.5266 7.72C9.2199 7.72 8.2599 8.02666 7.64656 8.64C7.03323 9.22667 6.72656 9.92 6.72656 10.72C6.72656 11.44 6.9399 12.0933 7.36656 12.68C7.8199 13.24 8.51323 13.7733 9.44656 14.28C10.3799 14.7867 11.5932 15.3067 13.0866 15.84C13.9132 16.1333 14.7399 16.5067 15.5666 16.96C16.4199 17.4133 17.1932 17.9867 17.8866 18.68C18.5799 19.3467 19.1266 20.1333 19.5266 21.04C19.9532 21.9467 20.1666 23.0133 20.1666 24.24C20.1666 25.5467 19.9132 26.72 19.4066 27.76C18.8999 28.8 18.2066 29.68 17.3266 30.4C16.4466 31.0933 15.4466 31.6267 14.3266 32C13.2332 32.4 12.0866 32.6 10.8866 32.6C9.23323 32.6 7.6999 32.28 6.28656 31.64C4.8999 30.9733 3.68656 30.0933 2.64656 29C1.60656 27.9067 0.779896 26.72 0.166563 25.44L3.68656 23ZM30.6506 32.4C28.784 32.4 27.1306 32 25.6906 31.2C24.2773 30.4 23.184 29.28 22.4106 27.84C21.6373 26.4 21.2506 24.72 21.2506 22.8C21.2506 20.8533 21.6373 19.16 22.4106 17.72C23.2106 16.28 24.3306 15.1733 25.7706 14.4C27.2106 13.6 28.904 13.2 30.8506 13.2C32.7973 13.2 34.4506 13.5733 35.8106 14.32C37.1706 15.0667 38.2106 16.1467 38.9306 17.56C39.6773 18.9467 40.0506 20.6267 40.0506 22.6C40.0506 22.8133 40.0373 23.04 40.0106 23.28C40.0106 23.52 39.9973 23.6933 39.9706 23.8H23.8106V20.84H36.2906L34.9706 22.68C35.0506 22.52 35.1306 22.3067 35.2106 22.04C35.3173 21.7467 35.3706 21.5067 35.3706 21.32C35.3706 20.3333 35.1706 19.48 34.7706 18.76C34.3973 18.04 33.864 17.48 33.1706 17.08C32.504 16.68 31.7173 16.48 30.8106 16.48C29.7173 16.48 28.784 16.72 28.0106 17.2C27.2373 17.68 26.6506 18.3733 26.2506 19.28C25.8506 20.1867 25.6373 21.3067 25.6106 22.64C25.6106 23.9733 25.8106 25.1067 26.2106 26.04C26.6106 26.9467 27.1973 27.64 27.9706 28.12C28.7706 28.6 29.7306 28.84 30.8506 28.84C32.024 28.84 33.0506 28.6 33.9306 28.12C34.8106 27.64 35.544 26.9067 36.1306 25.92L39.8506 27.44C38.8906 29.0933 37.6506 30.3333 36.1306 31.16C34.6106 31.9867 32.784 32.4 30.6506 32.4ZM45.0541 22.8C45.0541 23.9733 45.3074 25 45.8141 25.88C46.3207 26.7333 47.0007 27.4133 47.8541 27.92C48.7341 28.4267 49.7074 28.68 50.7741 28.68C51.6541 28.68 52.4941 28.5467 53.2941 28.28C54.0941 28.0133 54.8007 27.64 55.4141 27.16C56.0274 26.68 56.4807 26.1467 56.7741 25.56V30.32C56.1341 30.96 55.2674 31.4667 54.1741 31.84C53.0807 32.2133 51.8807 32.4 50.5741 32.4C48.6807 32.4 46.9741 32 45.4541 31.2C43.9607 30.3733 42.7741 29.24 41.8941 27.8C41.0407 26.3333 40.6141 24.6667 40.6141 22.8C40.6141 20.9067 41.0407 19.24 41.8941 17.8C42.7741 16.36 43.9607 15.24 45.4541 14.44C46.9741 13.6133 48.6807 13.2 50.5741 13.2C51.8807 13.2 53.0807 13.3867 54.1741 13.76C55.2674 14.1333 56.1341 14.64 56.7741 15.28V20.04C56.4807 19.4267 56.0141 18.8933 55.3741 18.44C54.7607 17.96 54.0541 17.5867 53.2541 17.32C52.4541 17.0533 51.6274 16.92 50.7741 16.92C49.7074 16.92 48.7341 17.1733 47.8541 17.68C47.0007 18.1867 46.3207 18.88 45.8141 19.76C45.3074 20.64 45.0541 21.6533 45.0541 22.8ZM63.9891 24.8C63.9891 26.1067 64.2691 27.12 64.8291 27.84C65.3891 28.56 66.2424 28.92 67.3891 28.92C68.2157 28.92 68.9357 28.76 69.5491 28.44C70.1624 28.0933 70.6424 27.6133 70.9891 27C71.3357 26.36 71.5091 25.6267 71.5091 24.8V13.6H75.8291V32H71.5091V29.16C70.9224 30.2267 70.1624 31.04 69.2291 31.6C68.3224 32.1333 67.2291 32.4 65.9491 32.4C63.8957 32.4 62.3091 31.76 61.1891 30.48C60.0957 29.2 59.5491 27.4667 59.5491 25.28V13.6H63.9891V24.8ZM83.6259 13.6V32H79.3459V13.6H83.6259ZM89.1059 18.2C88.7059 17.88 88.3326 17.64 87.9859 17.48C87.6393 17.32 87.1993 17.24 86.6659 17.24C85.9459 17.24 85.3593 17.4267 84.9059 17.8C84.4526 18.1733 84.1193 18.6933 83.9059 19.36C83.7193 20 83.6259 20.76 83.6259 21.64L82.1859 20.8C82.1859 19.3333 82.4526 18.04 82.9859 16.92C83.5459 15.7733 84.2526 14.8667 85.1059 14.2C85.9859 13.5333 86.8926 13.2 87.8259 13.2C88.4926 13.2 89.1193 13.3067 89.7059 13.52C90.2926 13.7067 90.7859 14.0533 91.1859 14.56L89.1059 18.2ZM99.5647 32.4C97.698 32.4 96.0447 32 94.6047 31.2C93.1914 30.4 92.098 29.28 91.3247 27.84C90.5514 26.4 90.1647 24.72 90.1647 22.8C90.1647 20.8533 90.5514 19.16 91.3247 17.72C92.1247 16.28 93.2447 15.1733 94.6847 14.4C96.1247 13.6 97.818 13.2 99.7647 13.2C101.711 13.2 103.365 13.5733 104.725 14.32C106.085 15.0667 107.125 16.1467 107.845 17.56C108.591 18.9467 108.965 20.6267 108.965 22.6C108.965 22.8133 108.951 23.04 108.925 23.28C108.925 23.52 108.911 23.6933 108.885 23.8H92.7247V20.84H105.205L103.885 22.68C103.965 22.52 104.045 22.3067 104.125 22.04C104.231 21.7467 104.285 21.5067 104.285 21.32C104.285 20.3333 104.085 19.48 103.685 18.76C103.311 18.04 102.778 17.48 102.085 17.08C101.418 16.68 100.631 16.48 99.7247 16.48C98.6314 16.48 97.698 16.72 96.9247 17.2C96.1514 17.68 95.5647 18.3733 95.1647 19.28C94.7647 20.1867 94.5514 21.3067 94.5247 22.64C94.5247 23.9733 94.7247 25.1067 95.1247 26.04C95.5247 26.9467 96.1114 27.64 96.8847 28.12C97.6847 28.6 98.6447 28.84 99.7647 28.84C100.938 28.84 101.965 28.6 102.845 28.12C103.725 27.64 104.458 26.9067 105.045 25.92L108.765 27.44C107.805 29.0933 106.565 30.3333 105.045 31.16C103.525 31.9867 101.698 32.4 99.5647 32.4ZM137.36 13.6L125.36 40.8H120.76L125.56 29.84L118.16 13.6H123.12L129 28.16L126.96 28.04L132.72 13.6H137.36ZM135.962 22.8C135.962 20.9067 136.388 19.24 137.242 17.8C138.122 16.36 139.308 15.24 140.802 14.44C142.295 13.6133 143.988 13.2 145.882 13.2C147.775 13.2 149.455 13.6133 150.922 14.44C152.415 15.24 153.602 16.36 154.482 17.8C155.362 19.24 155.802 20.9067 155.802 22.8C155.802 24.6667 155.362 26.3333 154.482 27.8C153.602 29.24 152.415 30.3733 150.922 31.2C149.455 32 147.775 32.4 145.882 32.4C143.988 32.4 142.295 32 140.802 31.2C139.308 30.3733 138.122 29.24 137.242 27.8C136.388 26.3333 135.962 24.6667 135.962 22.8ZM140.402 22.8C140.402 23.9467 140.642 24.96 141.122 25.84C141.602 26.6933 142.255 27.3733 143.082 27.88C143.908 28.36 144.842 28.6 145.882 28.6C146.895 28.6 147.815 28.36 148.642 27.88C149.495 27.3733 150.162 26.6933 150.642 25.84C151.122 24.96 151.362 23.9467 151.362 22.8C151.362 21.6533 151.122 20.64 150.642 19.76C150.162 18.88 149.495 18.2 148.642 17.72C147.815 17.24 146.895 17 145.882 17C144.842 17 143.908 17.24 143.082 17.72C142.255 18.2 141.602 18.88 141.122 19.76C140.642 20.64 140.402 21.6533 140.402 22.8ZM162.341 24.8C162.341 26.1067 162.621 27.12 163.181 27.84C163.741 28.56 164.594 28.92 165.741 28.92C166.567 28.92 167.287 28.76 167.901 28.44C168.514 28.0933 168.994 27.6133 169.341 27C169.687 26.36 169.861 25.6267 169.861 24.8V13.6H174.181V32H169.861V29.16C169.274 30.2267 168.514 31.04 167.581 31.6C166.674 32.1333 165.581 32.4 164.301 32.4C162.247 32.4 160.661 31.76 159.541 30.48C158.447 29.2 157.901 27.4667 157.901 25.28V13.6H162.341V24.8ZM181.978 13.6V32H177.698V13.6H181.978ZM187.458 18.2C187.058 17.88 186.684 17.64 186.338 17.48C185.991 17.32 185.551 17.24 185.018 17.24C184.298 17.24 183.711 17.4267 183.258 17.8C182.804 18.1733 182.471 18.6933 182.258 19.36C182.071 20 181.978 20.76 181.978 21.64L180.538 20.8C180.538 19.3333 180.804 18.04 181.338 16.92C181.898 15.7733 182.604 14.8667 183.458 14.2C184.338 13.5333 185.244 13.2 186.178 13.2C186.844 13.2 187.471 13.3067 188.058 13.52C188.644 13.7067 189.138 14.0533 189.538 14.56L187.458 18.2ZM201.334 25.96C201.921 26.6 202.508 27.16 203.094 27.64C203.708 28.0933 204.321 28.44 204.934 28.68C205.548 28.8933 206.161 29 206.774 29C207.548 29 208.148 28.8267 208.574 28.48C209.028 28.1333 209.254 27.6533 209.254 27.04C209.254 26.5067 209.081 26.0533 208.734 25.68C208.388 25.28 207.908 24.9467 207.294 24.68C206.681 24.3867 205.961 24.0933 205.134 23.8C204.308 23.48 203.481 23.1067 202.654 22.68C201.854 22.2267 201.188 21.64 200.654 20.92C200.148 20.2 199.894 19.2933 199.894 18.2C199.894 17.08 200.174 16.1467 200.734 15.4C201.321 14.6533 202.094 14.1067 203.054 13.76C204.041 13.3867 205.094 13.2 206.214 13.2C207.228 13.2 208.174 13.3467 209.054 13.64C209.961 13.9333 210.774 14.32 211.494 14.8C212.214 15.28 212.828 15.8267 213.334 16.44L210.934 19C210.321 18.28 209.588 17.6933 208.734 17.24C207.881 16.7867 207.001 16.56 206.094 16.56C205.481 16.56 204.974 16.6933 204.574 16.96C204.174 17.2267 203.974 17.6133 203.974 18.12C203.974 18.5467 204.148 18.9333 204.494 19.28C204.868 19.6 205.348 19.8933 205.934 20.16C206.548 20.4267 207.228 20.7067 207.974 21C208.988 21.4 209.921 21.84 210.774 22.32C211.628 22.8 212.308 23.3867 212.814 24.08C213.348 24.7733 213.614 25.68 213.614 26.8C213.614 28.5333 213.014 29.9333 211.814 31C210.641 32.04 209.041 32.56 207.014 32.56C205.761 32.56 204.601 32.3733 203.534 32C202.494 31.6 201.574 31.0933 200.774 30.48C200.001 29.84 199.348 29.1733 198.814 28.48L201.334 25.96ZM219.648 40.8H215.288V13.6H219.648V40.8ZM234.888 22.8C234.888 24.8267 234.474 26.5733 233.648 28.04C232.821 29.48 231.728 30.5867 230.368 31.36C229.008 32.1067 227.528 32.48 225.928 32.48C224.354 32.48 222.981 32.0933 221.808 31.32C220.661 30.52 219.768 29.4 219.128 27.96C218.514 26.4933 218.208 24.7733 218.208 22.8C218.208 20.8 218.514 19.08 219.128 17.64C219.768 16.2 220.661 15.0933 221.808 14.32C222.981 13.52 224.354 13.12 225.928 13.12C227.528 13.12 229.008 13.5067 230.368 14.28C231.728 15.0267 232.821 16.12 233.648 17.56C234.474 19 234.888 20.7467 234.888 22.8ZM230.408 22.8C230.408 21.5733 230.154 20.5333 229.648 19.68C229.141 18.8 228.461 18.1467 227.608 17.72C226.781 17.2667 225.861 17.04 224.848 17.04C224.021 17.04 223.208 17.2667 222.408 17.72C221.608 18.1467 220.941 18.7867 220.408 19.64C219.901 20.4933 219.648 21.5467 219.648 22.8C219.648 24.0533 219.901 25.1067 220.408 25.96C220.941 26.8133 221.608 27.4667 222.408 27.92C223.208 28.3467 224.021 28.56 224.848 28.56C225.861 28.56 226.781 28.3467 227.608 27.92C228.461 27.4667 229.141 26.8133 229.648 25.96C230.154 25.08 230.408 24.0267 230.408 22.8ZM235.602 22.8C235.602 20.9067 236.029 19.24 236.882 17.8C237.762 16.36 238.949 15.24 240.442 14.44C241.936 13.6133 243.629 13.2 245.522 13.2C247.416 13.2 249.096 13.6133 250.562 14.44C252.056 15.24 253.242 16.36 254.122 17.8C255.002 19.24 255.442 20.9067 255.442 22.8C255.442 24.6667 255.002 26.3333 254.122 27.8C253.242 29.24 252.056 30.3733 250.562 31.2C249.096 32 247.416 32.4 245.522 32.4C243.629 32.4 241.936 32 240.442 31.2C238.949 30.3733 237.762 29.24 236.882 27.8C236.029 26.3333 235.602 24.6667 235.602 22.8ZM240.042 22.8C240.042 23.9467 240.282 24.96 240.762 25.84C241.242 26.6933 241.896 27.3733 242.722 27.88C243.549 28.36 244.482 28.6 245.522 28.6C246.536 28.6 247.456 28.36 248.282 27.88C249.136 27.3733 249.802 26.6933 250.282 25.84C250.762 24.96 251.002 23.9467 251.002 22.8C251.002 21.6533 250.762 20.64 250.282 19.76C249.802 18.88 249.136 18.2 248.282 17.72C247.456 17.24 246.536 17 245.522 17C244.482 17 243.549 17.24 242.722 17.72C241.896 18.2 241.242 18.88 240.762 19.76C240.282 20.64 240.042 21.6533 240.042 22.8ZM254.981 13.6H265.421V17.4H254.981V13.6ZM258.061 7.2H262.341V32H258.061V7.2ZM279.113 26.28C279.113 26.8933 279.259 27.4267 279.553 27.88C279.846 28.3067 280.246 28.6267 280.753 28.84C281.286 29.0533 281.886 29.16 282.553 29.16C283.406 29.16 284.179 28.9867 284.873 28.64C285.593 28.2933 286.166 27.7867 286.593 27.12C287.046 26.4267 287.273 25.6267 287.273 24.72L287.913 27.12C287.913 28.2933 287.566 29.28 286.873 30.08C286.206 30.8533 285.353 31.44 284.313 31.84C283.299 32.2133 282.259 32.4 281.193 32.4C280.046 32.4 278.979 32.1733 277.993 31.72C277.006 31.2667 276.219 30.6 275.633 29.72C275.046 28.84 274.753 27.7733 274.753 26.52C274.753 24.7333 275.379 23.32 276.633 22.28C277.886 21.2133 279.659 20.68 281.953 20.68C283.179 20.68 284.233 20.8133 285.113 21.08C286.019 21.3467 286.766 21.6667 287.353 22.04C287.939 22.3867 288.353 22.7067 288.593 23V25.2C287.766 24.6133 286.886 24.1867 285.953 23.92C285.019 23.6533 284.033 23.52 282.993 23.52C282.086 23.52 281.353 23.64 280.793 23.88C280.233 24.0933 279.806 24.4 279.513 24.8C279.246 25.2 279.113 25.6933 279.113 26.28ZM277.753 18.4L275.993 15.36C276.819 14.8533 277.886 14.36 279.193 13.88C280.526 13.4 282.046 13.16 283.753 13.16C285.273 13.16 286.606 13.3867 287.753 13.84C288.926 14.2933 289.846 14.9467 290.513 15.8C291.179 16.6267 291.513 17.6533 291.513 18.88V32H287.273V19.72C287.273 19.1333 287.166 18.6533 286.953 18.28C286.766 17.9067 286.499 17.6 286.153 17.36C285.806 17.12 285.393 16.9467 284.913 16.84C284.433 16.7333 283.913 16.68 283.353 16.68C282.499 16.68 281.686 16.7867 280.913 17C280.166 17.1867 279.513 17.4267 278.953 17.72C278.419 17.9867 278.019 18.2133 277.753 18.4ZM306.389 20.8C306.389 19.44 306.109 18.4133 305.549 17.72C304.989 17.0267 304.122 16.68 302.949 16.68C302.149 16.68 301.442 16.8533 300.829 17.2C300.216 17.52 299.736 18 299.389 18.64C299.042 19.2533 298.869 19.9733 298.869 20.8V32H294.549V13.6H298.869V16.44C299.456 15.3467 300.202 14.5333 301.109 14C302.042 13.4667 303.149 13.2 304.429 13.2C306.509 13.2 308.096 13.84 309.189 15.12C310.282 16.3733 310.829 18.1067 310.829 20.32V32H306.389V20.8ZM328.186 0.799999H332.546V32H328.186V0.799999ZM312.946 22.8C312.946 20.7733 313.359 19.0533 314.186 17.64C315.013 16.2 316.106 15.1067 317.466 14.36C318.853 13.5867 320.333 13.2 321.906 13.2C323.453 13.2 324.799 13.5867 325.946 14.36C327.119 15.1333 328.039 16.24 328.706 17.68C329.399 19.0933 329.746 20.8 329.746 22.8C329.746 24.7733 329.399 26.48 328.706 27.92C328.039 29.36 327.119 30.4667 325.946 31.24C324.799 32.0133 323.453 32.4 321.906 32.4C320.333 32.4 318.853 32.0267 317.466 31.28C316.106 30.5067 315.013 29.4 314.186 27.96C313.359 26.52 312.946 24.8 312.946 22.8ZM317.426 22.8C317.426 24.0267 317.679 25.08 318.186 25.96C318.693 26.84 319.359 27.5067 320.186 27.96C321.039 28.4133 321.959 28.64 322.946 28.64C323.773 28.64 324.586 28.4133 325.386 27.96C326.213 27.5067 326.879 26.8533 327.386 26C327.919 25.12 328.186 24.0533 328.186 22.8C328.186 21.5467 327.919 20.4933 327.386 19.64C326.879 18.76 326.213 18.0933 325.386 17.64C324.586 17.1867 323.773 16.96 322.946 16.96C321.959 16.96 321.039 17.1867 320.186 17.64C319.359 18.0933 318.693 18.76 318.186 19.64C317.679 20.52 317.426 21.5733 317.426 22.8ZM350.093 0.799999V32H345.733V0.799999H350.093ZM365.333 22.8C365.333 24.8 364.919 26.52 364.093 27.96C363.266 29.4 362.173 30.5067 360.813 31.28C359.453 32.0267 357.973 32.4 356.373 32.4C354.853 32.4 353.493 32.0133 352.293 31.24C351.119 30.4667 350.199 29.36 349.533 27.92C348.866 26.48 348.533 24.7733 348.533 22.8C348.533 20.8 348.866 19.0933 349.533 17.68C350.199 16.24 351.119 15.1333 352.293 14.36C353.493 13.5867 354.853 13.2 356.373 13.2C357.973 13.2 359.453 13.5867 360.813 14.36C362.173 15.1067 363.266 16.2 364.093 17.64C364.919 19.0533 365.333 20.7733 365.333 22.8ZM360.853 22.8C360.853 21.5733 360.599 20.52 360.093 19.64C359.586 18.76 358.906 18.0933 358.053 17.64C357.226 17.1867 356.306 16.96 355.293 16.96C354.466 16.96 353.653 17.1867 352.853 17.64C352.053 18.0933 351.386 18.76 350.853 19.64C350.346 20.4933 350.093 21.5467 350.093 22.8C350.093 24.0533 350.346 25.12 350.853 26C351.386 26.8533 352.053 27.5067 352.853 27.96C353.653 28.4133 354.466 28.64 355.293 28.64C356.306 28.64 357.226 28.4133 358.053 27.96C358.906 27.5067 359.586 26.84 360.093 25.96C360.599 25.08 360.853 24.0267 360.853 22.8ZM375.448 32.4C373.581 32.4 371.928 32 370.488 31.2C369.074 30.4 367.981 29.28 367.208 27.84C366.434 26.4 366.048 24.72 366.048 22.8C366.048 20.8533 366.434 19.16 367.208 17.72C368.008 16.28 369.128 15.1733 370.567 14.4C372.008 13.6 373.701 13.2 375.648 13.2C377.594 13.2 379.248 13.5733 380.608 14.32C381.968 15.0667 383.008 16.1467 383.728 17.56C384.474 18.9467 384.848 20.6267 384.848 22.6C384.848 22.8133 384.834 23.04 384.808 23.28C384.808 23.52 384.794 23.6933 384.768 23.8H368.608V20.84H381.088L379.768 22.68C379.848 22.52 379.928 22.3067 380.008 22.04C380.114 21.7467 380.168 21.5067 380.168 21.32C380.168 20.3333 379.968 19.48 379.568 18.76C379.194 18.04 378.661 17.48 377.968 17.08C377.301 16.68 376.514 16.48 375.608 16.48C374.514 16.48 373.581 16.72 372.808 17.2C372.034 17.68 371.448 18.3733 371.048 19.28C370.648 20.1867 370.434 21.3067 370.408 22.64C370.408 23.9733 370.608 25.1067 371.008 26.04C371.408 26.9467 371.994 27.64 372.768 28.12C373.568 28.6 374.528 28.84 375.648 28.84C376.821 28.84 377.848 28.6 378.728 28.12C379.608 27.64 380.341 26.9067 380.928 25.92L384.648 27.44C383.688 29.0933 382.448 30.3333 380.928 31.16C379.408 31.9867 377.581 32.4 375.448 32.4ZM394.403 13.6H404.843V17.4H394.403V13.6ZM397.483 7.2H401.763V32H397.483V7.2ZM410.143 0.799999V32H405.823V0.799999H410.143ZM417.663 20.8C417.663 19.44 417.383 18.4133 416.823 17.72C416.289 17.0267 415.423 16.68 414.223 16.68C413.423 16.68 412.716 16.8533 412.103 17.2C411.489 17.5467 411.009 18.0267 410.663 18.64C410.316 19.2533 410.143 19.9733 410.143 20.8H409.103C409.103 19.3333 409.369 18.0267 409.903 16.88C410.436 15.7333 411.183 14.8133 412.143 14.12C413.129 13.4267 414.316 13.08 415.703 13.08C417.063 13.08 418.209 13.3467 419.143 13.88C420.103 14.4133 420.823 15.2133 421.303 16.28C421.783 17.32 422.023 18.6267 422.023 20.2V32H417.663V20.8ZM433.502 32.4C431.636 32.4 429.982 32 428.542 31.2C427.129 30.4 426.036 29.28 425.262 27.84C424.489 26.4 424.102 24.72 424.102 22.8C424.102 20.8533 424.489 19.16 425.262 17.72C426.062 16.28 427.182 15.1733 428.622 14.4C430.062 13.6 431.756 13.2 433.702 13.2C435.649 13.2 437.302 13.5733 438.662 14.32C440.022 15.0667 441.062 16.1467 441.782 17.56C442.529 18.9467 442.902 20.6267 442.902 22.6C442.902 22.8133 442.889 23.04 442.862 23.28C442.862 23.52 442.849 23.6933 442.822 23.8H426.662V20.84H439.142L437.822 22.68C437.902 22.52 437.982 22.3067 438.062 22.04C438.169 21.7467 438.222 21.5067 438.222 21.32C438.222 20.3333 438.022 19.48 437.622 18.76C437.249 18.04 436.716 17.48 436.022 17.08C435.356 16.68 434.569 16.48 433.662 16.48C432.569 16.48 431.636 16.72 430.862 17.2C430.089 17.68 429.502 18.3733 429.102 19.28C428.702 20.1867 428.489 21.3067 428.462 22.64C428.462 23.9733 428.662 25.1067 429.062 26.04C429.462 26.9467 430.049 27.64 430.822 28.12C431.622 28.6 432.582 28.84 433.702 28.84C434.876 28.84 435.902 28.6 436.782 28.12C437.662 27.64 438.396 26.9067 438.982 25.92L442.702 27.44C441.742 29.0933 440.502 30.3333 438.982 31.16C437.462 31.9867 435.636 32.4 433.502 32.4ZM453.498 13.6H464.058V17.4H453.498V13.6ZM463.578 5.44C463.311 5.01333 463.004 4.73333 462.658 4.6C462.338 4.46666 462.004 4.4 461.658 4.4C461.258 4.4 460.911 4.50666 460.618 4.72C460.351 4.93333 460.138 5.28 459.978 5.76C459.818 6.24 459.738 6.86667 459.738 7.64V32H455.498V6.8C455.498 5.36 455.724 4.17333 456.178 3.24C456.658 2.28 457.338 1.56 458.218 1.08C459.098 0.573331 460.178 0.319998 461.458 0.319998C462.178 0.319998 462.804 0.413332 463.338 0.599999C463.871 0.786665 464.324 1.01333 464.698 1.28C465.098 1.54667 465.404 1.81333 465.618 2.08L463.578 5.44ZM465.202 6.28C465.202 5.53333 465.468 4.90667 466.002 4.4C466.562 3.89333 467.202 3.64 467.922 3.64C468.695 3.64 469.335 3.89333 469.842 4.4C470.375 4.90667 470.642 5.53333 470.642 6.28C470.642 7 470.375 7.62666 469.842 8.16C469.335 8.66667 468.695 8.92 467.922 8.92C467.202 8.92 466.562 8.66667 466.002 8.16C465.468 7.62666 465.202 7 465.202 6.28ZM465.802 13.6H470.042V32H465.802V13.6ZM478.267 13.6V32H473.987V13.6H478.267ZM483.747 18.2C483.347 17.88 482.973 17.64 482.627 17.48C482.28 17.32 481.84 17.24 481.307 17.24C480.587 17.24 480 17.4267 479.547 17.8C479.093 18.1733 478.76 18.6933 478.547 19.36C478.36 20 478.267 20.76 478.267 21.64L476.827 20.8C476.827 19.3333 477.093 18.04 477.627 16.92C478.187 15.7733 478.893 14.8667 479.747 14.2C480.627 13.5333 481.533 13.2 482.467 13.2C483.133 13.2 483.76 13.3067 484.347 13.52C484.933 13.7067 485.427 14.0533 485.827 14.56L483.747 18.2ZM487.631 25.96C488.218 26.6 488.805 27.16 489.391 27.64C490.005 28.0933 490.618 28.44 491.231 28.68C491.845 28.8933 492.458 29 493.071 29C493.845 29 494.445 28.8267 494.871 28.48C495.325 28.1333 495.551 27.6533 495.551 27.04C495.551 26.5067 495.378 26.0533 495.031 25.68C494.685 25.28 494.205 24.9467 493.591 24.68C492.978 24.3867 492.258 24.0933 491.431 23.8C490.605 23.48 489.778 23.1067 488.951 22.68C488.151 22.2267 487.485 21.64 486.951 20.92C486.445 20.2 486.191 19.2933 486.191 18.2C486.191 17.08 486.471 16.1467 487.031 15.4C487.618 14.6533 488.391 14.1067 489.351 13.76C490.338 13.3867 491.391 13.2 492.511 13.2C493.525 13.2 494.471 13.3467 495.351 13.64C496.258 13.9333 497.071 14.32 497.791 14.8C498.511 15.28 499.125 15.8267 499.631 16.44L497.231 19C496.618 18.28 495.885 17.6933 495.031 17.24C494.178 16.7867 493.298 16.56 492.391 16.56C491.778 16.56 491.271 16.6933 490.871 16.96C490.471 17.2267 490.271 17.6133 490.271 18.12C490.271 18.5467 490.445 18.9333 490.791 19.28C491.165 19.6 491.645 19.8933 492.231 20.16C492.845 20.4267 493.525 20.7067 494.271 21C495.285 21.4 496.218 21.84 497.071 22.32C497.925 22.8 498.605 23.3867 499.111 24.08C499.645 24.7733 499.911 25.68 499.911 26.8C499.911 28.5333 499.311 29.9333 498.111 31C496.938 32.04 495.338 32.56 493.311 32.56C492.058 32.56 490.898 32.3733 489.831 32C488.791 31.6 487.871 31.0933 487.071 30.48C486.298 29.84 485.645 29.1733 485.111 28.48L487.631 25.96ZM499.184 13.6H509.624V17.4H499.184V13.6ZM502.264 7.2H506.544V32H502.264V7.2ZM518.036 13.6H528.476V17.4H518.036V13.6ZM521.116 7.2H525.396V32H521.116V7.2ZM528.055 22.8C528.055 20.9067 528.482 19.24 529.335 17.8C530.215 16.36 531.402 15.24 532.895 14.44C534.389 13.6133 536.082 13.2 537.975 13.2C539.869 13.2 541.549 13.6133 543.015 14.44C544.509 15.24 545.695 16.36 546.575 17.8C547.455 19.24 547.895 20.9067 547.895 22.8C547.895 24.6667 547.455 26.3333 546.575 27.8C545.695 29.24 544.509 30.3733 543.015 31.2C541.549 32 539.869 32.4 537.975 32.4C536.082 32.4 534.389 32 532.895 31.2C531.402 30.3733 530.215 29.24 529.335 27.8C528.482 26.3333 528.055 24.6667 528.055 22.8ZM532.495 22.8C532.495 23.9467 532.735 24.96 533.215 25.84C533.695 26.6933 534.349 27.3733 535.175 27.88C536.002 28.36 536.935 28.6 537.975 28.6C538.989 28.6 539.909 28.36 540.735 27.88C541.589 27.3733 542.255 26.6933 542.735 25.84C543.215 24.96 543.455 23.9467 543.455 22.8C543.455 21.6533 543.215 20.64 542.735 19.76C542.255 18.88 541.589 18.2 540.735 17.72C539.909 17.24 538.989 17 537.975 17C536.935 17 536.002 17.24 535.175 17.72C534.349 18.2 533.695 18.88 533.215 19.76C532.735 20.64 532.495 21.6533 532.495 22.8ZM567.987 32.4C566.12 32.4 564.467 32 563.027 31.2C561.613 30.4 560.52 29.28 559.747 27.84C558.973 26.4 558.587 24.72 558.587 22.8C558.587 20.8533 558.973 19.16 559.747 17.72C560.547 16.28 561.667 15.1733 563.107 14.4C564.547 13.6 566.24 13.2 568.187 13.2C570.133 13.2 571.787 13.5733 573.147 14.32C574.507 15.0667 575.547 16.1467 576.267 17.56C577.013 18.9467 577.387 20.6267 577.387 22.6C577.387 22.8133 577.373 23.04 577.347 23.28C577.347 23.52 577.333 23.6933 577.307 23.8H561.147V20.84H573.627L572.307 22.68C572.387 22.52 572.467 22.3067 572.547 22.04C572.653 21.7467 572.707 21.5067 572.707 21.32C572.707 20.3333 572.507 19.48 572.107 18.76C571.733 18.04 571.2 17.48 570.507 17.08C569.84 16.68 569.053 16.48 568.147 16.48C567.053 16.48 566.12 16.72 565.347 17.2C564.573 17.68 563.987 18.3733 563.587 19.28C563.187 20.1867 562.973 21.3067 562.947 22.64C562.947 23.9733 563.147 25.1067 563.547 26.04C563.947 26.9467 564.533 27.64 565.307 28.12C566.107 28.6 567.067 28.84 568.187 28.84C569.36 28.84 570.387 28.6 571.267 28.12C572.147 27.64 572.88 26.9067 573.467 25.92L577.187 27.44C576.227 29.0933 574.987 30.3333 573.467 31.16C571.947 31.9867 570.12 32.4 567.987 32.4ZM589.524 13.6H594.364L587.764 22.52L594.764 32H589.924L585.484 25.68L581.124 32H576.164L583.204 22.52L576.564 13.6H581.524L585.484 19.36L589.524 13.6ZM599.718 40.8H595.358V13.6H599.718V40.8ZM614.958 22.8C614.958 24.8267 614.544 26.5733 613.718 28.04C612.891 29.48 611.798 30.5867 610.438 31.36C609.078 32.1067 607.598 32.48 605.998 32.48C604.424 32.48 603.051 32.0933 601.878 31.32C600.731 30.52 599.838 29.4 599.198 27.96C598.584 26.4933 598.278 24.7733 598.278 22.8C598.278 20.8 598.584 19.08 599.198 17.64C599.838 16.2 600.731 15.0933 601.878 14.32C603.051 13.52 604.424 13.12 605.998 13.12C607.598 13.12 609.078 13.5067 610.438 14.28C611.798 15.0267 612.891 16.12 613.718 17.56C614.544 19 614.958 20.7467 614.958 22.8ZM610.478 22.8C610.478 21.5733 610.224 20.5333 609.718 19.68C609.211 18.8 608.531 18.1467 607.678 17.72C606.851 17.2667 605.931 17.04 604.918 17.04C604.091 17.04 603.278 17.2667 602.478 17.72C601.678 18.1467 601.011 18.7867 600.478 19.64C599.971 20.4933 599.718 21.5467 599.718 22.8C599.718 24.0533 599.971 25.1067 600.478 25.96C601.011 26.8133 601.678 27.4667 602.478 27.92C603.278 28.3467 604.091 28.56 604.918 28.56C605.931 28.56 606.851 28.3467 607.678 27.92C608.531 27.4667 609.211 26.8133 609.718 25.96C610.224 25.08 610.478 24.0267 610.478 22.8ZM625.073 32.4C623.206 32.4 621.553 32 620.113 31.2C618.699 30.4 617.606 29.28 616.833 27.84C616.059 26.4 615.673 24.72 615.673 22.8C615.673 20.8533 616.059 19.16 616.833 17.72C617.633 16.28 618.753 15.1733 620.192 14.4C621.633 13.6 623.326 13.2 625.273 13.2C627.219 13.2 628.873 13.5733 630.233 14.32C631.593 15.0667 632.633 16.1467 633.353 17.56C634.099 18.9467 634.473 20.6267 634.473 22.6C634.473 22.8133 634.459 23.04 634.433 23.28C634.433 23.52 634.419 23.6933 634.393 23.8H618.233V20.84H630.713L629.393 22.68C629.473 22.52 629.553 22.3067 629.633 22.04C629.739 21.7467 629.793 21.5067 629.793 21.32C629.793 20.3333 629.593 19.48 629.193 18.76C628.819 18.04 628.286 17.48 627.593 17.08C626.926 16.68 626.139 16.48 625.233 16.48C624.139 16.48 623.206 16.72 622.433 17.2C621.659 17.68 621.073 18.3733 620.673 19.28C620.273 20.1867 620.059 21.3067 620.033 22.64C620.033 23.9733 620.233 25.1067 620.633 26.04C621.033 26.9467 621.619 27.64 622.393 28.12C623.193 28.6 624.153 28.84 625.273 28.84C626.446 28.84 627.473 28.6 628.353 28.12C629.233 27.64 629.966 26.9067 630.553 25.92L634.273 27.44C633.313 29.0933 632.073 30.3333 630.553 31.16C629.033 31.9867 627.206 32.4 625.073 32.4ZM640.876 13.6V32H636.596V13.6H640.876ZM646.356 18.2C645.956 17.88 645.583 17.64 645.236 17.48C644.889 17.32 644.449 17.24 643.916 17.24C643.196 17.24 642.609 17.4267 642.156 17.8C641.703 18.1733 641.369 18.6933 641.156 19.36C640.969 20 640.876 20.76 640.876 21.64L639.436 20.8C639.436 19.3333 639.703 18.04 640.236 16.92C640.796 15.7733 641.503 14.8667 642.356 14.2C643.236 13.5333 644.143 13.2 645.076 13.2C645.743 13.2 646.369 13.3067 646.956 13.52C647.543 13.7067 648.036 14.0533 648.436 14.56L646.356 18.2ZM649.241 6.28C649.241 5.53333 649.507 4.90667 650.041 4.4C650.601 3.89333 651.241 3.64 651.961 3.64C652.734 3.64 653.374 3.89333 653.881 4.4C654.414 4.90667 654.681 5.53333 654.681 6.28C654.681 7 654.414 7.62666 653.881 8.16C653.374 8.66667 652.734 8.92 651.961 8.92C651.241 8.92 650.601 8.66667 650.041 8.16C649.507 7.62666 649.241 7 649.241 6.28ZM649.841 13.6H654.081V32H649.841V13.6ZM666.026 32.4C664.159 32.4 662.506 32 661.066 31.2C659.652 30.4 658.559 29.28 657.786 27.84C657.012 26.4 656.626 24.72 656.626 22.8C656.626 20.8533 657.012 19.16 657.786 17.72C658.586 16.28 659.706 15.1733 661.146 14.4C662.586 13.6 664.279 13.2 666.226 13.2C668.172 13.2 669.826 13.5733 671.186 14.32C672.546 15.0667 673.586 16.1467 674.306 17.56C675.052 18.9467 675.426 20.6267 675.426 22.6C675.426 22.8133 675.412 23.04 675.386 23.28C675.386 23.52 675.372 23.6933 675.346 23.8H659.186V20.84H671.666L670.346 22.68C670.426 22.52 670.506 22.3067 670.586 22.04C670.692 21.7467 670.746 21.5067 670.746 21.32C670.746 20.3333 670.546 19.48 670.146 18.76C669.772 18.04 669.239 17.48 668.546 17.08C667.879 16.68 667.092 16.48 666.186 16.48C665.092 16.48 664.159 16.72 663.386 17.2C662.612 17.68 662.026 18.3733 661.626 19.28C661.226 20.1867 661.012 21.3067 660.986 22.64C660.986 23.9733 661.186 25.1067 661.586 26.04C661.986 26.9467 662.572 27.64 663.346 28.12C664.146 28.6 665.106 28.84 666.226 28.84C667.399 28.84 668.426 28.6 669.306 28.12C670.186 27.64 670.919 26.9067 671.506 25.92L675.226 27.44C674.266 29.0933 673.026 30.3333 671.506 31.16C669.986 31.9867 668.159 32.4 666.026 32.4ZM689.389 20.8C689.389 19.44 689.109 18.4133 688.549 17.72C687.989 17.0267 687.122 16.68 685.949 16.68C685.149 16.68 684.442 16.8533 683.829 17.2C683.216 17.52 682.736 18 682.389 18.64C682.042 19.2533 681.869 19.9733 681.869 20.8V32H677.549V13.6H681.869V16.44C682.456 15.3467 683.202 14.5333 684.109 14C685.042 13.4667 686.149 13.2 687.429 13.2C689.509 13.2 691.096 13.84 692.189 15.12C693.282 16.3733 693.829 18.1067 693.829 20.32V32H689.389V20.8ZM700.226 22.8C700.226 23.9733 700.479 25 700.986 25.88C701.493 26.7333 702.173 27.4133 703.026 27.92C703.906 28.4267 704.879 28.68 705.946 28.68C706.826 28.68 707.666 28.5467 708.466 28.28C709.266 28.0133 709.973 27.64 710.586 27.16C711.199 26.68 711.653 26.1467 711.946 25.56V30.32C711.306 30.96 710.439 31.4667 709.346 31.84C708.253 32.2133 707.053 32.4 705.746 32.4C703.853 32.4 702.146 32 700.626 31.2C699.133 30.3733 697.946 29.24 697.066 27.8C696.213 26.3333 695.786 24.6667 695.786 22.8C695.786 20.9067 696.213 19.24 697.066 17.8C697.946 16.36 699.133 15.24 700.626 14.44C702.146 13.6133 703.853 13.2 705.746 13.2C707.053 13.2 708.253 13.3867 709.346 13.76C710.439 14.1333 711.306 14.64 711.946 15.28V20.04C711.653 19.4267 711.186 18.8933 710.546 18.44C709.933 17.96 709.226 17.5867 708.426 17.32C707.626 17.0533 706.799 16.92 705.946 16.92C704.879 16.92 703.906 17.1733 703.026 17.68C702.173 18.1867 701.493 18.88 700.986 19.76C700.479 20.64 700.226 21.6533 700.226 22.8ZM722.721 32.4C720.854 32.4 719.201 32 717.761 31.2C716.348 30.4 715.254 29.28 714.481 27.84C713.708 26.4 713.321 24.72 713.321 22.8C713.321 20.8533 713.708 19.16 714.481 17.72C715.281 16.28 716.401 15.1733 717.841 14.4C719.281 13.6 720.974 13.2 722.921 13.2C724.868 13.2 726.521 13.5733 727.881 14.32C729.241 15.0667 730.281 16.1467 731.001 17.56C731.748 18.9467 732.121 20.6267 732.121 22.6C732.121 22.8133 732.108 23.04 732.081 23.28C732.081 23.52 732.068 23.6933 732.041 23.8H715.881V20.84H728.361L727.041 22.68C727.121 22.52 727.201 22.3067 727.281 22.04C727.388 21.7467 727.441 21.5067 727.441 21.32C727.441 20.3333 727.241 19.48 726.841 18.76C726.468 18.04 725.934 17.48 725.241 17.08C724.574 16.68 723.788 16.48 722.881 16.48C721.788 16.48 720.854 16.72 720.081 17.2C719.308 17.68 718.721 18.3733 718.321 19.28C717.921 20.1867 717.708 21.3067 717.681 22.64C717.681 23.9733 717.881 25.1067 718.281 26.04C718.681 26.9467 719.268 27.64 720.041 28.12C720.841 28.6 721.801 28.84 722.921 28.84C724.094 28.84 725.121 28.6 726.001 28.12C726.881 27.64 727.614 26.9067 728.201 25.92L731.921 27.44C730.961 29.0933 729.721 30.3333 728.201 31.16C726.681 31.9867 724.854 32.4 722.721 32.4ZM742.837 22.8C742.837 20.9067 743.263 19.24 744.117 17.8C744.997 16.36 746.183 15.24 747.677 14.44C749.17 13.6133 750.863 13.2 752.757 13.2C754.65 13.2 756.33 13.6133 757.797 14.44C759.29 15.24 760.477 16.36 761.357 17.8C762.237 19.24 762.677 20.9067 762.677 22.8C762.677 24.6667 762.237 26.3333 761.357 27.8C760.477 29.24 759.29 30.3733 757.797 31.2C756.33 32 754.65 32.4 752.757 32.4C750.863 32.4 749.17 32 747.677 31.2C746.183 30.3733 744.997 29.24 744.117 27.8C743.263 26.3333 742.837 24.6667 742.837 22.8ZM747.277 22.8C747.277 23.9467 747.517 24.96 747.997 25.84C748.477 26.6933 749.13 27.3733 749.957 27.88C750.783 28.36 751.717 28.6 752.757 28.6C753.77 28.6 754.69 28.36 755.517 27.88C756.37 27.3733 757.037 26.6933 757.517 25.84C757.997 24.96 758.237 23.9467 758.237 22.8C758.237 21.6533 757.997 20.64 757.517 19.76C757.037 18.88 756.37 18.2 755.517 17.72C754.69 17.24 753.77 17 752.757 17C751.717 17 750.783 17.24 749.957 17.72C749.13 18.2 748.477 18.88 747.997 19.76C747.517 20.64 747.277 21.6533 747.277 22.8ZM769.216 24.8C769.216 26.1067 769.496 27.12 770.056 27.84C770.616 28.56 771.469 28.92 772.616 28.92C773.442 28.92 774.162 28.76 774.776 28.44C775.389 28.0933 775.869 27.6133 776.216 27C776.562 26.36 776.736 25.6267 776.736 24.8V13.6H781.056V32H776.736V29.16C776.149 30.2267 775.389 31.04 774.456 31.6C773.549 32.1333 772.456 32.4 771.176 32.4C769.122 32.4 767.536 31.76 766.416 30.48C765.322 29.2 764.776 27.4667 764.776 25.28V13.6H769.216V24.8ZM788.853 13.6V32H784.573V13.6H788.853ZM794.333 18.2C793.933 17.88 793.559 17.64 793.213 17.48C792.866 17.32 792.426 17.24 791.893 17.24C791.173 17.24 790.586 17.4267 790.133 17.8C789.679 18.1733 789.346 18.6933 789.133 19.36C788.946 20 788.853 20.76 788.853 21.64L787.413 20.8C787.413 19.3333 787.679 18.04 788.213 16.92C788.773 15.7733 789.479 14.8667 790.333 14.2C791.213 13.5333 792.119 13.2 793.053 13.2C793.719 13.2 794.346 13.3067 794.933 13.52C795.519 13.7067 796.013 14.0533 796.413 14.56L794.333 18.2ZM815.369 32.4C813.503 32.4 811.849 32 810.409 31.2C808.996 30.4 807.903 29.28 807.129 27.84C806.356 26.4 805.969 24.72 805.969 22.8C805.969 20.8533 806.356 19.16 807.129 17.72C807.929 16.28 809.049 15.1733 810.489 14.4C811.929 13.6 813.623 13.2 815.569 13.2C817.516 13.2 819.169 13.5733 820.529 14.32C821.889 15.0667 822.929 16.1467 823.649 17.56C824.396 18.9467 824.769 20.6267 824.769 22.6C824.769 22.8133 824.756 23.04 824.729 23.28C824.729 23.52 824.716 23.6933 824.689 23.8H808.529V20.84H821.009L819.689 22.68C819.769 22.52 819.849 22.3067 819.929 22.04C820.036 21.7467 820.089 21.5067 820.089 21.32C820.089 20.3333 819.889 19.48 819.489 18.76C819.116 18.04 818.583 17.48 817.889 17.08C817.223 16.68 816.436 16.48 815.529 16.48C814.436 16.48 813.503 16.72 812.729 17.2C811.956 17.68 811.369 18.3733 810.969 19.28C810.569 20.1867 810.356 21.3067 810.329 22.64C810.329 23.9733 810.529 25.1067 810.929 26.04C811.329 26.9467 811.916 27.64 812.689 28.12C813.489 28.6 814.449 28.84 815.569 28.84C816.743 28.84 817.769 28.6 818.649 28.12C819.529 27.64 820.263 26.9067 820.849 25.92L824.569 27.44C823.609 29.0933 822.369 30.3333 820.849 31.16C819.329 31.9867 817.503 32.4 815.369 32.4ZM836.907 13.6H841.747L835.147 22.52L842.147 32H837.307L832.867 25.68L828.507 32H823.547L830.587 22.52L823.947 13.6H828.907L832.867 19.36L836.907 13.6ZM845.195 22.8C845.195 23.9733 845.448 25 845.955 25.88C846.461 26.7333 847.141 27.4133 847.995 27.92C848.875 28.4267 849.848 28.68 850.915 28.68C851.795 28.68 852.635 28.5467 853.435 28.28C854.235 28.0133 854.941 27.64 855.555 27.16C856.168 26.68 856.621 26.1467 856.915 25.56V30.32C856.275 30.96 855.408 31.4667 854.315 31.84C853.221 32.2133 852.021 32.4 850.715 32.4C848.821 32.4 847.115 32 845.595 31.2C844.101 30.3733 842.915 29.24 842.035 27.8C841.181 26.3333 840.755 24.6667 840.755 22.8C840.755 20.9067 841.181 19.24 842.035 17.8C842.915 16.36 844.101 15.24 845.595 14.44C847.115 13.6133 848.821 13.2 850.715 13.2C852.021 13.2 853.221 13.3867 854.315 13.76C855.408 14.1333 856.275 14.64 856.915 15.28V20.04C856.621 19.4267 856.155 18.8933 855.515 18.44C854.901 17.96 854.195 17.5867 853.395 17.32C852.595 17.0533 851.768 16.92 850.915 16.92C849.848 16.92 848.875 17.1733 847.995 17.68C847.141 18.1867 846.461 18.88 845.955 19.76C845.448 20.64 845.195 21.6533 845.195 22.8ZM859.53 6.28C859.53 5.53333 859.796 4.90667 860.33 4.4C860.89 3.89333 861.53 3.64 862.25 3.64C863.023 3.64 863.663 3.89333 864.17 4.4C864.703 4.90667 864.97 5.53333 864.97 6.28C864.97 7 864.703 7.62666 864.17 8.16C863.663 8.66667 863.023 8.92 862.25 8.92C861.53 8.92 860.89 8.66667 860.33 8.16C859.796 7.62666 859.53 7 859.53 6.28ZM860.13 13.6H864.37V32H860.13V13.6ZM865.755 13.6H876.195V17.4H865.755V13.6ZM868.835 7.2H873.115V32H868.835V7.2ZM877.014 6.28C877.014 5.53333 877.281 4.90667 877.814 4.4C878.374 3.89333 879.014 3.64 879.734 3.64C880.507 3.64 881.147 3.89333 881.654 4.4C882.187 4.90667 882.454 5.53333 882.454 6.28C882.454 7 882.187 7.62666 881.654 8.16C881.147 8.66667 880.507 8.92 879.734 8.92C879.014 8.92 878.374 8.66667 877.814 8.16C877.281 7.62666 877.014 7 877.014 6.28ZM877.614 13.6H881.854V32H877.614V13.6ZM897.639 20.8C897.639 19.44 897.359 18.4133 896.799 17.72C896.239 17.0267 895.372 16.68 894.199 16.68C893.399 16.68 892.692 16.8533 892.079 17.2C891.466 17.52 890.986 18 890.639 18.64C890.292 19.2533 890.119 19.9733 890.119 20.8V32H885.799V13.6H890.119V16.44C890.706 15.3467 891.452 14.5333 892.359 14C893.292 13.4667 894.399 13.2 895.679 13.2C897.759 13.2 899.346 13.84 900.439 15.12C901.532 16.3733 902.079 18.1067 902.079 20.32V32H897.639V20.8ZM904.556 33.24H908.836C908.863 34.0667 909.089 34.8133 909.516 35.48C909.969 36.1467 910.583 36.6667 911.356 37.04C912.129 37.4133 913.023 37.6 914.036 37.6C914.943 37.6 915.809 37.3867 916.636 36.96C917.463 36.5333 918.129 35.88 918.636 35C919.169 34.12 919.436 32.9867 919.436 31.6V13.6H923.676V31.6C923.676 33.8133 923.223 35.64 922.316 37.08C921.436 38.52 920.276 39.5867 918.836 40.28C917.396 41 915.836 41.36 914.156 41.36C912.156 41.36 910.449 41.0133 909.036 40.32C907.623 39.6533 906.529 38.7067 905.756 37.48C905.009 36.2533 904.609 34.84 904.556 33.24ZM904.196 22.72C904.196 20.6667 904.609 18.9467 905.436 17.56C906.263 16.1467 907.356 15.0667 908.716 14.32C910.103 13.5733 911.583 13.2 913.156 13.2C914.703 13.2 916.049 13.5867 917.196 14.36C918.369 15.1067 919.289 16.1867 919.956 17.6C920.649 19.0133 920.996 20.72 920.996 22.72C920.996 24.6933 920.649 26.3867 919.956 27.8C919.289 29.2133 918.369 30.3067 917.196 31.08C916.049 31.8267 914.703 32.2 913.156 32.2C911.583 32.2 910.103 31.8267 908.716 31.08C907.356 30.3333 906.263 29.2533 905.436 27.84C904.609 26.4267 904.196 24.72 904.196 22.72ZM908.676 22.72C908.676 23.9467 908.929 24.9867 909.436 25.84C909.943 26.6933 910.609 27.3467 911.436 27.8C912.289 28.2267 913.209 28.44 914.196 28.44C915.023 28.44 915.836 28.2267 916.636 27.8C917.463 27.3733 918.129 26.7333 918.636 25.88C919.169 25 919.436 23.9467 919.436 22.72C919.436 21.76 919.276 20.9333 918.956 20.24C918.663 19.52 918.263 18.92 917.756 18.44C917.249 17.9333 916.676 17.56 916.036 17.32C915.423 17.08 914.809 16.96 914.196 16.96C913.209 16.96 912.289 17.1867 911.436 17.64C910.609 18.0667 909.943 18.7067 909.436 19.56C908.929 20.4133 908.676 21.4667 908.676 22.72ZM63.3328 71.6H73.7728V75.4H63.3328V71.6ZM66.4128 65.2H70.6928V90H66.4128V65.2ZM79.0722 58.8V90H74.7522V58.8H79.0722ZM86.5922 78.8C86.5922 77.44 86.3122 76.4133 85.7522 75.72C85.2189 75.0267 84.3522 74.68 83.1522 74.68C82.3522 74.68 81.6455 74.8533 81.0322 75.2C80.4189 75.5467 79.9389 76.0267 79.5922 76.64C79.2455 77.2533 79.0722 77.9733 79.0722 78.8H78.0322C78.0322 77.3333 78.2989 76.0267 78.8322 74.88C79.3655 73.7333 80.1122 72.8133 81.0722 72.12C82.0589 71.4267 83.2455 71.08 84.6322 71.08C85.9922 71.08 87.1389 71.3467 88.0722 71.88C89.0322 72.4133 89.7522 73.2133 90.2322 74.28C90.7122 75.32 90.9522 76.6267 90.9522 78.2V90H86.5922V78.8ZM94.2719 64.28C94.2719 63.5333 94.5385 62.9067 95.0719 62.4C95.6319 61.8933 96.2719 61.64 96.9919 61.64C97.7652 61.64 98.4052 61.8933 98.9119 62.4C99.4452 62.9067 99.7119 63.5333 99.7119 64.28C99.7119 65 99.4452 65.6267 98.9119 66.16C98.4052 66.6667 97.7652 66.92 96.9919 66.92C96.2719 66.92 95.6319 66.6667 95.0719 66.16C94.5385 65.6267 94.2719 65 94.2719 64.28ZM94.8719 71.6H99.1119V90H94.8719V71.6ZM114.897 78.8C114.897 77.44 114.617 76.4133 114.057 75.72C113.497 75.0267 112.63 74.68 111.457 74.68C110.657 74.68 109.95 74.8533 109.337 75.2C108.724 75.52 108.244 76 107.897 76.64C107.55 77.2533 107.377 77.9733 107.377 78.8V90H103.057V71.6H107.377V74.44C107.964 73.3467 108.71 72.5333 109.617 72C110.55 71.4667 111.657 71.2 112.937 71.2C115.017 71.2 116.604 71.84 117.697 73.12C118.79 74.3733 119.337 76.1067 119.337 78.32V90H114.897V78.8ZM121.814 91.24H126.094C126.12 92.0667 126.347 92.8133 126.774 93.48C127.227 94.1467 127.84 94.6667 128.614 95.04C129.387 95.4133 130.28 95.6 131.294 95.6C132.2 95.6 133.067 95.3867 133.894 94.96C134.72 94.5333 135.387 93.88 135.894 93C136.427 92.12 136.694 90.9867 136.694 89.6V71.6H140.934V89.6C140.934 91.8133 140.48 93.64 139.574 95.08C138.694 96.52 137.534 97.5867 136.094 98.28C134.654 99 133.094 99.36 131.414 99.36C129.414 99.36 127.707 99.0133 126.294 98.32C124.88 97.6533 123.787 96.7067 123.014 95.48C122.267 94.2533 121.867 92.84 121.814 91.24ZM121.454 80.72C121.454 78.6667 121.867 76.9467 122.694 75.56C123.52 74.1467 124.614 73.0667 125.974 72.32C127.36 71.5733 128.84 71.2 130.414 71.2C131.96 71.2 133.307 71.5867 134.454 72.36C135.627 73.1067 136.547 74.1867 137.214 75.6C137.907 77.0133 138.254 78.72 138.254 80.72C138.254 82.6933 137.907 84.3867 137.214 85.8C136.547 87.2133 135.627 88.3067 134.454 89.08C133.307 89.8267 131.96 90.2 130.414 90.2C128.84 90.2 127.36 89.8267 125.974 89.08C124.614 88.3333 123.52 87.2533 122.694 85.84C121.867 84.4267 121.454 82.72 121.454 80.72ZM125.934 80.72C125.934 81.9467 126.187 82.9867 126.694 83.84C127.2 84.6933 127.867 85.3467 128.694 85.8C129.547 86.2267 130.467 86.44 131.454 86.44C132.28 86.44 133.094 86.2267 133.894 85.8C134.72 85.3733 135.387 84.7333 135.894 83.88C136.427 83 136.694 81.9467 136.694 80.72C136.694 79.76 136.534 78.9333 136.214 78.24C135.92 77.52 135.52 76.92 135.014 76.44C134.507 75.9333 133.934 75.56 133.294 75.32C132.68 75.08 132.067 74.96 131.454 74.96C130.467 74.96 129.547 75.1867 128.694 75.64C127.867 76.0667 127.2 76.7067 126.694 77.56C126.187 78.4133 125.934 79.4667 125.934 80.72ZM145.131 83.96C145.718 84.6 146.305 85.16 146.891 85.64C147.505 86.0933 148.118 86.44 148.731 86.68C149.345 86.8933 149.958 87 150.571 87C151.345 87 151.945 86.8267 152.371 86.48C152.825 86.1333 153.051 85.6533 153.051 85.04C153.051 84.5067 152.878 84.0533 152.531 83.68C152.185 83.28 151.705 82.9467 151.091 82.68C150.478 82.3867 149.758 82.0933 148.931 81.8C148.105 81.48 147.278 81.1067 146.451 80.68C145.651 80.2267 144.985 79.64 144.451 78.92C143.945 78.2 143.691 77.2933 143.691 76.2C143.691 75.08 143.971 74.1467 144.531 73.4C145.118 72.6533 145.891 72.1067 146.851 71.76C147.838 71.3867 148.891 71.2 150.011 71.2C151.025 71.2 151.971 71.3467 152.851 71.64C153.758 71.9333 154.571 72.32 155.291 72.8C156.011 73.28 156.625 73.8267 157.131 74.44L154.731 77C154.118 76.28 153.385 75.6933 152.531 75.24C151.678 74.7867 150.798 74.56 149.891 74.56C149.278 74.56 148.771 74.6933 148.371 74.96C147.971 75.2267 147.771 75.6133 147.771 76.12C147.771 76.5467 147.945 76.9333 148.291 77.28C148.665 77.6 149.145 77.8933 149.731 78.16C150.345 78.4267 151.025 78.7067 151.771 79C152.785 79.4 153.718 79.84 154.571 80.32C155.425 80.8 156.105 81.3867 156.611 82.08C157.145 82.7733 157.411 83.68 157.411 84.8C157.411 86.5333 156.811 87.9333 155.611 89C154.438 90.04 152.838 90.56 150.811 90.56C149.558 90.56 148.398 90.3733 147.331 90C146.291 89.6 145.371 89.0933 144.571 88.48C143.798 87.84 143.145 87.1733 142.611 86.48L145.131 83.96ZM173.437 58.8V90H169.077V58.8H173.437ZM188.677 80.8C188.677 82.8 188.263 84.52 187.437 85.96C186.61 87.4 185.517 88.5067 184.157 89.28C182.797 90.0267 181.317 90.4 179.717 90.4C178.197 90.4 176.837 90.0133 175.637 89.24C174.463 88.4667 173.543 87.36 172.877 85.92C172.21 84.48 171.877 82.7733 171.877 80.8C171.877 78.8 172.21 77.0933 172.877 75.68C173.543 74.24 174.463 73.1333 175.637 72.36C176.837 71.5867 178.197 71.2 179.717 71.2C181.317 71.2 182.797 71.5867 184.157 72.36C185.517 73.1067 186.61 74.2 187.437 75.64C188.263 77.0533 188.677 78.7733 188.677 80.8ZM184.197 80.8C184.197 79.5733 183.943 78.52 183.437 77.64C182.93 76.76 182.25 76.0933 181.397 75.64C180.57 75.1867 179.65 74.96 178.637 74.96C177.81 74.96 176.997 75.1867 176.197 75.64C175.397 76.0933 174.73 76.76 174.197 77.64C173.69 78.4933 173.437 79.5467 173.437 80.8C173.437 82.0533 173.69 83.12 174.197 84C174.73 84.8533 175.397 85.5067 176.197 85.96C176.997 86.4133 177.81 86.64 178.637 86.64C179.65 86.64 180.57 86.4133 181.397 85.96C182.25 85.5067 182.93 84.84 183.437 83.96C183.943 83.08 184.197 82.0267 184.197 80.8ZM206.485 71.6L194.485 98.8H189.885L194.685 87.84L187.285 71.6H192.245L198.125 86.16L196.085 86.04L201.845 71.6H206.485ZM452.192 71.6H462.632V75.4H452.192V71.6ZM455.272 65.2H459.552V90H455.272V65.2ZM467.932 58.8V90H463.612V58.8H467.932ZM475.452 78.8C475.452 77.44 475.172 76.4133 474.612 75.72C474.078 75.0267 473.212 74.68 472.012 74.68C471.212 74.68 470.505 74.8533 469.892 75.2C469.278 75.5467 468.798 76.0267 468.452 76.64C468.105 77.2533 467.932 77.9733 467.932 78.8H466.892C466.892 77.3333 467.158 76.0267 467.692 74.88C468.225 73.7333 468.972 72.8133 469.932 72.12C470.918 71.4267 472.105 71.08 473.492 71.08C474.852 71.08 475.998 71.3467 476.932 71.88C477.892 72.4133 478.612 73.2133 479.092 74.28C479.572 75.32 479.812 76.6267 479.812 78.2V90H475.452V78.8ZM487.571 71.6V90H483.291V71.6H487.571ZM493.051 76.2C492.651 75.88 492.278 75.64 491.931 75.48C491.585 75.32 491.145 75.24 490.611 75.24C489.891 75.24 489.305 75.4267 488.851 75.8C488.398 76.1733 488.065 76.6933 487.851 77.36C487.665 78 487.571 78.76 487.571 79.64L486.131 78.8C486.131 77.3333 486.398 76.04 486.931 74.92C487.491 73.7733 488.198 72.8667 489.051 72.2C489.931 71.5333 490.838 71.2 491.771 71.2C492.438 71.2 493.065 71.3067 493.651 71.52C494.238 71.7067 494.731 72.0533 495.131 72.56L493.051 76.2ZM494.11 80.8C494.11 78.9067 494.537 77.24 495.39 75.8C496.27 74.36 497.457 73.24 498.95 72.44C500.443 71.6133 502.137 71.2 504.03 71.2C505.923 71.2 507.603 71.6133 509.07 72.44C510.563 73.24 511.75 74.36 512.63 75.8C513.51 77.24 513.95 78.9067 513.95 80.8C513.95 82.6667 513.51 84.3333 512.63 85.8C511.75 87.24 510.563 88.3733 509.07 89.2C507.603 90 505.923 90.4 504.03 90.4C502.137 90.4 500.443 90 498.95 89.2C497.457 88.3733 496.27 87.24 495.39 85.8C494.537 84.3333 494.11 82.6667 494.11 80.8ZM498.55 80.8C498.55 81.9467 498.79 82.96 499.27 83.84C499.75 84.6933 500.403 85.3733 501.23 85.88C502.057 86.36 502.99 86.6 504.03 86.6C505.043 86.6 505.963 86.36 506.79 85.88C507.643 85.3733 508.31 84.6933 508.79 83.84C509.27 82.96 509.51 81.9467 509.51 80.8C509.51 79.6533 509.27 78.64 508.79 77.76C508.31 76.88 507.643 76.2 506.79 75.72C505.963 75.24 505.043 75 504.03 75C502.99 75 502.057 75.24 501.23 75.72C500.403 76.2 499.75 76.88 499.27 77.76C498.79 78.64 498.55 79.6533 498.55 80.8ZM520.489 82.8C520.489 84.1067 520.769 85.12 521.329 85.84C521.889 86.56 522.742 86.92 523.889 86.92C524.716 86.92 525.436 86.76 526.049 86.44C526.662 86.0933 527.142 85.6133 527.489 85C527.836 84.36 528.009 83.6267 528.009 82.8V71.6H532.329V90H528.009V87.16C527.422 88.2267 526.662 89.04 525.729 89.6C524.822 90.1333 523.729 90.4 522.449 90.4C520.396 90.4 518.809 89.76 517.689 88.48C516.596 87.2 516.049 85.4667 516.049 83.28V71.6H520.489V82.8ZM534.806 91.24H539.086C539.113 92.0667 539.339 92.8133 539.766 93.48C540.219 94.1467 540.833 94.6667 541.606 95.04C542.379 95.4133 543.273 95.6 544.286 95.6C545.193 95.6 546.059 95.3867 546.886 94.96C547.713 94.5333 548.379 93.88 548.886 93C549.419 92.12 549.686 90.9867 549.686 89.6V71.6H553.926V89.6C553.926 91.8133 553.473 93.64 552.566 95.08C551.686 96.52 550.526 97.5867 549.086 98.28C547.646 99 546.086 99.36 544.406 99.36C542.406 99.36 540.699 99.0133 539.286 98.32C537.873 97.6533 536.779 96.7067 536.006 95.48C535.259 94.2533 534.859 92.84 534.806 91.24ZM534.446 80.72C534.446 78.6667 534.859 76.9467 535.686 75.56C536.513 74.1467 537.606 73.0667 538.966 72.32C540.353 71.5733 541.833 71.2 543.406 71.2C544.953 71.2 546.299 71.5867 547.446 72.36C548.619 73.1067 549.539 74.1867 550.206 75.6C550.899 77.0133 551.246 78.72 551.246 80.72C551.246 82.6933 550.899 84.3867 550.206 85.8C549.539 87.2133 548.619 88.3067 547.446 89.08C546.299 89.8267 544.953 90.2 543.406 90.2C541.833 90.2 540.353 89.8267 538.966 89.08C537.606 88.3333 536.513 87.2533 535.686 85.84C534.859 84.4267 534.446 82.72 534.446 80.72ZM538.926 80.72C538.926 81.9467 539.179 82.9867 539.686 83.84C540.193 84.6933 540.859 85.3467 541.686 85.8C542.539 86.2267 543.459 86.44 544.446 86.44C545.273 86.44 546.086 86.2267 546.886 85.8C547.713 85.3733 548.379 84.7333 548.886 83.88C549.419 83 549.686 81.9467 549.686 80.72C549.686 79.76 549.526 78.9333 549.206 78.24C548.913 77.52 548.513 76.92 548.006 76.44C547.499 75.9333 546.926 75.56 546.286 75.32C545.673 75.08 545.059 74.96 544.446 74.96C543.459 74.96 542.539 75.1867 541.686 75.64C540.859 76.0667 540.193 76.7067 539.686 77.56C539.179 78.4133 538.926 79.4667 538.926 80.72ZM561.603 58.8V90H557.283V58.8H561.603ZM569.123 78.8C569.123 77.44 568.843 76.4133 568.283 75.72C567.75 75.0267 566.883 74.68 565.683 74.68C564.883 74.68 564.177 74.8533 563.563 75.2C562.95 75.5467 562.47 76.0267 562.123 76.64C561.777 77.2533 561.603 77.9733 561.603 78.8H560.563C560.563 77.3333 560.83 76.0267 561.363 74.88C561.897 73.7333 562.643 72.8133 563.603 72.12C564.59 71.4267 565.777 71.08 567.163 71.08C568.523 71.08 569.67 71.3467 570.603 71.88C571.563 72.4133 572.283 73.2133 572.763 74.28C573.243 75.32 573.483 76.6267 573.483 78.2V90H569.123V78.8ZM584.395 71.6H594.835V75.4H584.395V71.6ZM587.475 65.2H591.755V90H587.475V65.2ZM600.135 58.8V90H595.815V58.8H600.135ZM607.655 78.8C607.655 77.44 607.375 76.4133 606.815 75.72C606.281 75.0267 605.415 74.68 604.215 74.68C603.415 74.68 602.708 74.8533 602.095 75.2C601.481 75.5467 601.001 76.0267 600.655 76.64C600.308 77.2533 600.135 77.9733 600.135 78.8H599.095C599.095 77.3333 599.361 76.0267 599.895 74.88C600.428 73.7333 601.175 72.8133 602.135 72.12C603.121 71.4267 604.308 71.08 605.695 71.08C607.055 71.08 608.201 71.3467 609.135 71.88C610.095 72.4133 610.815 73.2133 611.295 74.28C611.775 75.32 612.015 76.6267 612.015 78.2V90H607.655V78.8ZM623.494 90.4C621.628 90.4 619.974 90 618.534 89.2C617.121 88.4 616.028 87.28 615.254 85.84C614.481 84.4 614.094 82.72 614.094 80.8C614.094 78.8533 614.481 77.16 615.254 75.72C616.054 74.28 617.174 73.1733 618.614 72.4C620.054 71.6 621.748 71.2 623.694 71.2C625.641 71.2 627.294 71.5733 628.654 72.32C630.014 73.0667 631.054 74.1467 631.774 75.56C632.521 76.9467 632.894 78.6267 632.894 80.6C632.894 80.8133 632.881 81.04 632.854 81.28C632.854 81.52 632.841 81.6933 632.814 81.8H616.654V78.84H629.134L627.814 80.68C627.894 80.52 627.974 80.3067 628.054 80.04C628.161 79.7467 628.214 79.5067 628.214 79.32C628.214 78.3333 628.014 77.48 627.614 76.76C627.241 76.04 626.708 75.48 626.014 75.08C625.348 74.68 624.561 74.48 623.654 74.48C622.561 74.48 621.628 74.72 620.854 75.2C620.081 75.68 619.494 76.3733 619.094 77.28C618.694 78.1867 618.481 79.3067 618.454 80.64C618.454 81.9733 618.654 83.1067 619.054 84.04C619.454 84.9467 620.041 85.64 620.814 86.12C621.614 86.6 622.574 86.84 623.694 86.84C624.868 86.84 625.894 86.6 626.774 86.12C627.654 85.64 628.388 84.9067 628.974 83.92L632.694 85.44C631.734 87.0933 630.494 88.3333 628.974 89.16C627.454 89.9867 625.628 90.4 623.494 90.4ZM643.49 71.6H654.05V75.4H643.49V71.6ZM653.57 63.44C653.303 63.0133 652.997 62.7333 652.65 62.6C652.33 62.4667 651.997 62.4 651.65 62.4C651.25 62.4 650.903 62.5067 650.61 62.72C650.343 62.9333 650.13 63.28 649.97 63.76C649.81 64.24 649.73 64.8667 649.73 65.64V90H645.49V64.8C645.49 63.36 645.717 62.1733 646.17 61.24C646.65 60.28 647.33 59.56 648.21 59.08C649.09 58.5733 650.17 58.32 651.45 58.32C652.17 58.32 652.797 58.4133 653.33 58.6C653.863 58.7867 654.317 59.0133 654.69 59.28C655.09 59.5467 655.397 59.8133 655.61 60.08L653.57 63.44ZM653.954 80.8C653.954 78.9067 654.38 77.24 655.234 75.8C656.114 74.36 657.3 73.24 658.794 72.44C660.287 71.6133 661.98 71.2 663.874 71.2C665.767 71.2 667.447 71.6133 668.914 72.44C670.407 73.24 671.594 74.36 672.474 75.8C673.354 77.24 673.794 78.9067 673.794 80.8C673.794 82.6667 673.354 84.3333 672.474 85.8C671.594 87.24 670.407 88.3733 668.914 89.2C667.447 90 665.767 90.4 663.874 90.4C661.98 90.4 660.287 90 658.794 89.2C657.3 88.3733 656.114 87.24 655.234 85.8C654.38 84.3333 653.954 82.6667 653.954 80.8ZM658.394 80.8C658.394 81.9467 658.634 82.96 659.114 83.84C659.594 84.6933 660.247 85.3733 661.074 85.88C661.9 86.36 662.834 86.6 663.874 86.6C664.887 86.6 665.807 86.36 666.634 85.88C667.487 85.3733 668.154 84.6933 668.634 83.84C669.114 82.96 669.354 81.9467 669.354 80.8C669.354 79.6533 669.114 78.64 668.634 77.76C668.154 76.88 667.487 76.2 666.634 75.72C665.807 75.24 664.887 75 663.874 75C662.834 75 661.9 75.24 661.074 75.72C660.247 76.2 659.594 76.88 659.114 77.76C658.634 78.64 658.394 79.6533 658.394 80.8ZM675.893 58.8H680.213V90H675.893V58.8ZM683.737 58.8H688.057V90H683.737V58.8ZM690.18 80.8C690.18 78.9067 690.607 77.24 691.46 75.8C692.34 74.36 693.527 73.24 695.02 72.44C696.514 71.6133 698.207 71.2 700.1 71.2C701.994 71.2 703.674 71.6133 705.14 72.44C706.634 73.24 707.82 74.36 708.7 75.8C709.58 77.24 710.02 78.9067 710.02 80.8C710.02 82.6667 709.58 84.3333 708.7 85.8C707.82 87.24 706.634 88.3733 705.14 89.2C703.674 90 701.994 90.4 700.1 90.4C698.207 90.4 696.514 90 695.02 89.2C693.527 88.3733 692.34 87.24 691.46 85.8C690.607 84.3333 690.18 82.6667 690.18 80.8ZM694.62 80.8C694.62 81.9467 694.86 82.96 695.34 83.84C695.82 84.6933 696.474 85.3733 697.3 85.88C698.127 86.36 699.06 86.6 700.1 86.6C701.114 86.6 702.034 86.36 702.86 85.88C703.714 85.3733 704.38 84.6933 704.86 83.84C705.34 82.96 705.58 81.9467 705.58 80.8C705.58 79.6533 705.34 78.64 704.86 77.76C704.38 76.88 703.714 76.2 702.86 75.72C702.034 75.24 701.114 75 700.1 75C699.06 75 698.127 75.24 697.3 75.72C696.474 76.2 695.82 76.88 695.34 77.76C694.86 78.64 694.62 79.6533 694.62 80.8ZM708.773 71.6H713.453L717.773 82.56L722.853 70.2L728.253 82.6L732.573 71.6H737.253L728.653 91.32L722.893 78.88L717.373 91.32L708.773 71.6ZM737.85 64.28C737.85 63.5333 738.117 62.9067 738.65 62.4C739.21 61.8933 739.85 61.64 740.57 61.64C741.343 61.64 741.983 61.8933 742.49 62.4C743.023 62.9067 743.29 63.5333 743.29 64.28C743.29 65 743.023 65.6267 742.49 66.16C741.983 66.6667 741.343 66.92 740.57 66.92C739.85 66.92 739.21 66.6667 738.65 66.16C738.117 65.6267 737.85 65 737.85 64.28ZM738.45 71.6H742.69V90H738.45V71.6ZM758.475 78.8C758.475 77.44 758.195 76.4133 757.635 75.72C757.075 75.0267 756.208 74.68 755.035 74.68C754.235 74.68 753.528 74.8533 752.915 75.2C752.302 75.52 751.822 76 751.475 76.64C751.128 77.2533 750.955 77.9733 750.955 78.8V90H746.635V71.6H750.955V74.44C751.542 73.3467 752.288 72.5333 753.195 72C754.128 71.4667 755.235 71.2 756.515 71.2C758.595 71.2 760.182 71.84 761.275 73.12C762.368 74.3733 762.915 76.1067 762.915 78.32V90H758.475V78.8ZM765.392 91.24H769.672C769.699 92.0667 769.925 92.8133 770.352 93.48C770.805 94.1467 771.419 94.6667 772.192 95.04C772.965 95.4133 773.859 95.6 774.872 95.6C775.779 95.6 776.645 95.3867 777.472 94.96C778.299 94.5333 778.965 93.88 779.472 93C780.005 92.12 780.272 90.9867 780.272 89.6V71.6H784.512V89.6C784.512 91.8133 784.059 93.64 783.152 95.08C782.272 96.52 781.112 97.5867 779.672 98.28C778.232 99 776.672 99.36 774.992 99.36C772.992 99.36 771.285 99.0133 769.872 98.32C768.459 97.6533 767.365 96.7067 766.592 95.48C765.845 94.2533 765.445 92.84 765.392 91.24ZM765.032 80.72C765.032 78.6667 765.445 76.9467 766.272 75.56C767.099 74.1467 768.192 73.0667 769.552 72.32C770.939 71.5733 772.419 71.2 773.992 71.2C775.539 71.2 776.885 71.5867 778.032 72.36C779.205 73.1067 780.125 74.1867 780.792 75.6C781.485 77.0133 781.832 78.72 781.832 80.72C781.832 82.6933 781.485 84.3867 780.792 85.8C780.125 87.2133 779.205 88.3067 778.032 89.08C776.885 89.8267 775.539 90.2 773.992 90.2C772.419 90.2 770.939 89.8267 769.552 89.08C768.192 88.3333 767.099 87.2533 766.272 85.84C765.445 84.4267 765.032 82.72 765.032 80.72ZM769.512 80.72C769.512 81.9467 769.765 82.9867 770.272 83.84C770.779 84.6933 771.445 85.3467 772.272 85.8C773.125 86.2267 774.045 86.44 775.032 86.44C775.859 86.44 776.672 86.2267 777.472 85.8C778.299 85.3733 778.965 84.7333 779.472 83.88C780.005 83 780.272 81.9467 780.272 80.72C780.272 79.76 780.112 78.9333 779.792 78.24C779.499 77.52 779.099 76.92 778.592 76.44C778.085 75.9333 777.512 75.56 776.872 75.32C776.259 75.08 775.645 74.96 775.032 74.96C774.045 74.96 773.125 75.1867 772.272 75.64C771.445 76.0667 770.779 76.7067 770.272 77.56C769.765 78.4133 769.512 79.4667 769.512 80.72ZM797.862 58.8H802.182V90H797.862V58.8ZM805.545 64.28C805.545 63.5333 805.812 62.9067 806.345 62.4C806.905 61.8933 807.545 61.64 808.265 61.64C809.039 61.64 809.679 61.8933 810.185 62.4C810.719 62.9067 810.985 63.5333 810.985 64.28C810.985 65 810.719 65.6267 810.185 66.16C809.679 66.6667 809.039 66.92 808.265 66.92C807.545 66.92 806.905 66.6667 806.345 66.16C805.812 65.6267 805.545 65 805.545 64.28ZM806.145 71.6H810.385V90H806.145V71.6ZM826.17 78.8C826.17 77.44 825.89 76.4133 825.33 75.72C824.77 75.0267 823.904 74.68 822.73 74.68C821.93 74.68 821.224 74.8533 820.61 75.2C819.997 75.52 819.517 76 819.17 76.64C818.824 77.2533 818.65 77.9733 818.65 78.8V90H814.33V71.6H818.65V74.44C819.237 73.3467 819.984 72.5333 820.89 72C821.824 71.4667 822.93 71.2 824.21 71.2C826.29 71.2 827.877 71.84 828.97 73.12C830.064 74.3733 830.61 76.1067 830.61 78.32V90H826.17V78.8ZM833.967 58.8H838.207V90H833.967V58.8ZM844.967 71.6H850.247L842.327 79.2L851.047 90H845.807L837.007 79.2L844.967 71.6ZM852.812 62H858.212L857.212 81.52H853.812L852.812 62ZM852.692 88.04C852.692 87.2667 852.959 86.6267 853.492 86.12C854.052 85.6133 854.732 85.36 855.532 85.36C856.332 85.36 856.999 85.6133 857.532 86.12C858.065 86.6267 858.332 87.2667 858.332 88.04C858.332 88.8133 858.065 89.4667 857.532 90C856.999 90.5067 856.332 90.76 855.532 90.76C854.732 90.76 854.052 90.5067 853.492 90C852.959 89.4667 852.692 88.8133 852.692 88.04Z" fill="black"/>
<path d="M221.265 98.8H216.905V71.6H221.265V98.8ZM236.505 80.8C236.505 82.8267 236.091 84.5733 235.265 86.04C234.438 87.48 233.345 88.5867 231.985 89.36C230.625 90.1067 229.145 90.48 227.545 90.48C225.971 90.48 224.598 90.0933 223.425 89.32C222.278 88.52 221.385 87.4 220.745 85.96C220.131 84.4933 219.825 82.7733 219.825 80.8C219.825 78.8 220.131 77.08 220.745 75.64C221.385 74.2 222.278 73.0933 223.425 72.32C224.598 71.52 225.971 71.12 227.545 71.12C229.145 71.12 230.625 71.5067 231.985 72.28C233.345 73.0267 234.438 74.12 235.265 75.56C236.091 77 236.505 78.7467 236.505 80.8ZM232.025 80.8C232.025 79.5733 231.771 78.5333 231.265 77.68C230.758 76.8 230.078 76.1467 229.225 75.72C228.398 75.2667 227.478 75.04 226.465 75.04C225.638 75.04 224.825 75.2667 224.025 75.72C223.225 76.1467 222.558 76.7867 222.025 77.64C221.518 78.4933 221.265 79.5467 221.265 80.8C221.265 82.0533 221.518 83.1067 222.025 83.96C222.558 84.8133 223.225 85.4667 224.025 85.92C224.825 86.3467 225.638 86.56 226.465 86.56C227.478 86.56 228.398 86.3467 229.225 85.92C230.078 85.4667 230.758 84.8133 231.265 83.96C231.771 83.08 232.025 82.0267 232.025 80.8ZM242.899 71.6V90H238.619V71.6H242.899ZM248.379 76.2C247.979 75.88 247.606 75.64 247.259 75.48C246.913 75.32 246.473 75.24 245.939 75.24C245.219 75.24 244.633 75.4267 244.179 75.8C243.726 76.1733 243.393 76.6933 243.179 77.36C242.993 78 242.899 78.76 242.899 79.64L241.459 78.8C241.459 77.3333 241.726 76.04 242.259 74.92C242.819 73.7733 243.526 72.8667 244.379 72.2C245.259 71.5333 246.166 71.2 247.099 71.2C247.766 71.2 248.393 71.3067 248.979 71.52C249.566 71.7067 250.059 72.0533 250.459 72.56L248.379 76.2ZM258.838 90.4C256.971 90.4 255.318 90 253.878 89.2C252.465 88.4 251.371 87.28 250.598 85.84C249.825 84.4 249.438 82.72 249.438 80.8C249.438 78.8533 249.825 77.16 250.598 75.72C251.398 74.28 252.518 73.1733 253.958 72.4C255.398 71.6 257.091 71.2 259.038 71.2C260.985 71.2 262.638 71.5733 263.998 72.32C265.358 73.0667 266.398 74.1467 267.118 75.56C267.865 76.9467 268.238 78.6267 268.238 80.6C268.238 80.8133 268.225 81.04 268.198 81.28C268.198 81.52 268.185 81.6933 268.158 81.8H251.998V78.84H264.478L263.158 80.68C263.238 80.52 263.318 80.3067 263.398 80.04C263.505 79.7467 263.558 79.5067 263.558 79.32C263.558 78.3333 263.358 77.48 262.958 76.76C262.585 76.04 262.051 75.48 261.358 75.08C260.691 74.68 259.905 74.48 258.998 74.48C257.905 74.48 256.971 74.72 256.198 75.2C255.425 75.68 254.838 76.3733 254.438 77.28C254.038 78.1867 253.825 79.3067 253.798 80.64C253.798 81.9733 253.998 83.1067 254.398 84.04C254.798 84.9467 255.385 85.64 256.158 86.12C256.958 86.6 257.918 86.84 259.038 86.84C260.211 86.84 261.238 86.6 262.118 86.12C262.998 85.64 263.731 84.9067 264.318 83.92L268.038 85.44C267.078 87.0933 265.838 88.3333 264.318 89.16C262.798 89.9867 260.971 90.4 258.838 90.4ZM267.802 82.44V78.56H276.002V82.44H267.802ZM281.235 71.6V90H276.955V71.6H281.235ZM286.715 76.2C286.315 75.88 285.942 75.64 285.595 75.48C285.249 75.32 284.809 75.24 284.275 75.24C283.555 75.24 282.969 75.4267 282.515 75.8C282.062 76.1733 281.729 76.6933 281.515 77.36C281.329 78 281.235 78.76 281.235 79.64L279.795 78.8C279.795 77.3333 280.062 76.04 280.595 74.92C281.155 73.7733 281.862 72.8667 282.715 72.2C283.595 71.5333 284.502 71.2 285.435 71.2C286.102 71.2 286.729 71.3067 287.315 71.52C287.902 71.7067 288.395 72.0533 288.795 72.56L286.715 76.2ZM297.174 90.4C295.307 90.4 293.654 90 292.214 89.2C290.801 88.4 289.707 87.28 288.934 85.84C288.161 84.4 287.774 82.72 287.774 80.8C287.774 78.8533 288.161 77.16 288.934 75.72C289.734 74.28 290.854 73.1733 292.294 72.4C293.734 71.6 295.427 71.2 297.374 71.2C299.321 71.2 300.974 71.5733 302.334 72.32C303.694 73.0667 304.734 74.1467 305.454 75.56C306.201 76.9467 306.574 78.6267 306.574 80.6C306.574 80.8133 306.561 81.04 306.534 81.28C306.534 81.52 306.521 81.6933 306.494 81.8H290.334V78.84H302.814L301.494 80.68C301.574 80.52 301.654 80.3067 301.734 80.04C301.841 79.7467 301.894 79.5067 301.894 79.32C301.894 78.3333 301.694 77.48 301.294 76.76C300.921 76.04 300.387 75.48 299.694 75.08C299.027 74.68 298.241 74.48 297.334 74.48C296.241 74.48 295.307 74.72 294.534 75.2C293.761 75.68 293.174 76.3733 292.774 77.28C292.374 78.1867 292.161 79.3067 292.134 80.64C292.134 81.9733 292.334 83.1067 292.734 84.04C293.134 84.9467 293.721 85.64 294.494 86.12C295.294 86.6 296.254 86.84 297.374 86.84C298.547 86.84 299.574 86.6 300.454 86.12C301.334 85.64 302.067 84.9067 302.654 83.92L306.374 85.44C305.414 87.0933 304.174 88.3333 302.654 89.16C301.134 89.9867 299.307 90.4 297.174 90.4ZM307.658 91.24H311.938C311.964 92.0667 312.191 92.8133 312.618 93.48C313.071 94.1467 313.684 94.6667 314.458 95.04C315.231 95.4133 316.124 95.6 317.138 95.6C318.044 95.6 318.911 95.3867 319.738 94.96C320.564 94.5333 321.231 93.88 321.738 93C322.271 92.12 322.538 90.9867 322.538 89.6V71.6H326.778V89.6C326.778 91.8133 326.324 93.64 325.418 95.08C324.538 96.52 323.378 97.5867 321.938 98.28C320.498 99 318.938 99.36 317.258 99.36C315.258 99.36 313.551 99.0133 312.138 98.32C310.724 97.6533 309.631 96.7067 308.858 95.48C308.111 94.2533 307.711 92.84 307.658 91.24ZM307.298 80.72C307.298 78.6667 307.711 76.9467 308.538 75.56C309.364 74.1467 310.458 73.0667 311.817 72.32C313.204 71.5733 314.684 71.2 316.258 71.2C317.804 71.2 319.151 71.5867 320.298 72.36C321.471 73.1067 322.391 74.1867 323.058 75.6C323.751 77.0133 324.098 78.72 324.098 80.72C324.098 82.6933 323.751 84.3867 323.058 85.8C322.391 87.2133 321.471 88.3067 320.298 89.08C319.151 89.8267 317.804 90.2 316.258 90.2C314.684 90.2 313.204 89.8267 311.817 89.08C310.458 88.3333 309.364 87.2533 308.538 85.84C307.711 84.4267 307.298 82.72 307.298 80.72ZM311.778 80.72C311.778 81.9467 312.031 82.9867 312.538 83.84C313.044 84.6933 313.711 85.3467 314.538 85.8C315.391 86.2267 316.311 86.44 317.298 86.44C318.124 86.44 318.938 86.2267 319.738 85.8C320.564 85.3733 321.231 84.7333 321.738 83.88C322.271 83 322.538 81.9467 322.538 80.72C322.538 79.76 322.378 78.9333 322.058 78.24C321.764 77.52 321.364 76.92 320.858 76.44C320.351 75.9333 319.778 75.56 319.138 75.32C318.524 75.08 317.911 74.96 317.298 74.96C316.311 74.96 315.391 75.1867 314.538 75.64C313.711 76.0667 313.044 76.7067 312.538 77.56C312.031 78.4133 311.778 79.4667 311.778 80.72ZM329.975 64.28C329.975 63.5333 330.242 62.9067 330.775 62.4C331.335 61.8933 331.975 61.64 332.695 61.64C333.468 61.64 334.108 61.8933 334.615 62.4C335.148 62.9067 335.415 63.5333 335.415 64.28C335.415 65 335.148 65.6267 334.615 66.16C334.108 66.6667 333.468 66.92 332.695 66.92C331.975 66.92 331.335 66.6667 330.775 66.16C330.242 65.6267 329.975 65 329.975 64.28ZM330.575 71.6H334.815V90H330.575V71.6ZM339.6 83.96C340.187 84.6 340.773 85.16 341.36 85.64C341.973 86.0933 342.587 86.44 343.2 86.68C343.813 86.8933 344.427 87 345.04 87C345.813 87 346.413 86.8267 346.84 86.48C347.293 86.1333 347.52 85.6533 347.52 85.04C347.52 84.5067 347.347 84.0533 347 83.68C346.653 83.28 346.173 82.9467 345.56 82.68C344.947 82.3867 344.227 82.0933 343.4 81.8C342.573 81.48 341.747 81.1067 340.92 80.68C340.12 80.2267 339.453 79.64 338.92 78.92C338.413 78.2 338.16 77.2933 338.16 76.2C338.16 75.08 338.44 74.1467 339 73.4C339.587 72.6533 340.36 72.1067 341.32 71.76C342.307 71.3867 343.36 71.2 344.48 71.2C345.493 71.2 346.44 71.3467 347.32 71.64C348.227 71.9333 349.04 72.32 349.76 72.8C350.48 73.28 351.093 73.8267 351.6 74.44L349.2 77C348.587 76.28 347.853 75.6933 347 75.24C346.147 74.7867 345.267 74.56 344.36 74.56C343.747 74.56 343.24 74.6933 342.84 74.96C342.44 75.2267 342.24 75.6133 342.24 76.12C342.24 76.5467 342.413 76.9333 342.76 77.28C343.133 77.6 343.613 77.8933 344.2 78.16C344.813 78.4267 345.493 78.7067 346.24 79C347.253 79.4 348.187 79.84 349.04 80.32C349.893 80.8 350.573 81.3867 351.08 82.08C351.613 82.7733 351.88 83.68 351.88 84.8C351.88 86.5333 351.28 87.9333 350.08 89C348.907 90.04 347.307 90.56 345.28 90.56C344.027 90.56 342.867 90.3733 341.8 90C340.76 89.6 339.84 89.0933 339.04 88.48C338.267 87.84 337.613 87.1733 337.08 86.48L339.6 83.96ZM351.153 71.6H361.593V75.4H351.153V71.6ZM354.233 65.2H358.513V90H354.233V65.2ZM370.573 90.4C368.706 90.4 367.053 90 365.613 89.2C364.199 88.4 363.106 87.28 362.333 85.84C361.559 84.4 361.173 82.72 361.173 80.8C361.173 78.8533 361.559 77.16 362.333 75.72C363.133 74.28 364.253 73.1733 365.692 72.4C367.133 71.6 368.826 71.2 370.773 71.2C372.719 71.2 374.373 71.5733 375.733 72.32C377.093 73.0667 378.133 74.1467 378.853 75.56C379.599 76.9467 379.973 78.6267 379.973 80.6C379.973 80.8133 379.959 81.04 379.933 81.28C379.933 81.52 379.919 81.6933 379.893 81.8H363.733V78.84H376.213L374.893 80.68C374.973 80.52 375.053 80.3067 375.133 80.04C375.239 79.7467 375.293 79.5067 375.293 79.32C375.293 78.3333 375.093 77.48 374.693 76.76C374.319 76.04 373.786 75.48 373.093 75.08C372.426 74.68 371.639 74.48 370.733 74.48C369.639 74.48 368.706 74.72 367.933 75.2C367.159 75.68 366.573 76.3733 366.173 77.28C365.773 78.1867 365.559 79.3067 365.533 80.64C365.533 81.9733 365.733 83.1067 366.133 84.04C366.533 84.9467 367.119 85.64 367.893 86.12C368.693 86.6 369.653 86.84 370.773 86.84C371.946 86.84 372.973 86.6 373.853 86.12C374.733 85.64 375.466 84.9067 376.053 83.92L379.773 85.44C378.813 87.0933 377.573 88.3333 376.053 89.16C374.533 89.9867 372.706 90.4 370.573 90.4ZM386.376 71.6V90H382.096V71.6H386.376ZM391.856 76.2C391.456 75.88 391.083 75.64 390.736 75.48C390.389 75.32 389.949 75.24 389.416 75.24C388.696 75.24 388.109 75.4267 387.656 75.8C387.203 76.1733 386.869 76.6933 386.656 77.36C386.469 78 386.376 78.76 386.376 79.64L384.936 78.8C384.936 77.3333 385.203 76.04 385.736 74.92C386.296 73.7733 387.003 72.8667 387.856 72.2C388.736 71.5333 389.643 71.2 390.576 71.2C391.243 71.2 391.869 71.3067 392.456 71.52C393.043 71.7067 393.536 72.0533 393.936 72.56L391.856 76.2ZM394.741 64.28C394.741 63.5333 395.007 62.9067 395.541 62.4C396.101 61.8933 396.741 61.64 397.461 61.64C398.234 61.64 398.874 61.8933 399.381 62.4C399.914 62.9067 400.181 63.5333 400.181 64.28C400.181 65 399.914 65.6267 399.381 66.16C398.874 66.6667 398.234 66.92 397.461 66.92C396.741 66.92 396.101 66.6667 395.541 66.16C395.007 65.6267 394.741 65 394.741 64.28ZM395.341 71.6H399.581V90H395.341V71.6ZM415.366 78.8C415.366 77.44 415.086 76.4133 414.526 75.72C413.966 75.0267 413.099 74.68 411.926 74.68C411.126 74.68 410.419 74.8533 409.806 75.2C409.192 75.52 408.712 76 408.366 76.64C408.019 77.2533 407.846 77.9733 407.846 78.8V90H403.526V71.6H407.846V74.44C408.432 73.3467 409.179 72.5333 410.086 72C411.019 71.4667 412.126 71.2 413.406 71.2C415.486 71.2 417.072 71.84 418.166 73.12C419.259 74.3733 419.806 76.1067 419.806 78.32V90H415.366V78.8ZM422.283 91.24H426.563C426.589 92.0667 426.816 92.8133 427.243 93.48C427.696 94.1467 428.309 94.6667 429.083 95.04C429.856 95.4133 430.749 95.6 431.763 95.6C432.669 95.6 433.536 95.3867 434.363 94.96C435.189 94.5333 435.856 93.88 436.363 93C436.896 92.12 437.163 90.9867 437.163 89.6V71.6H441.403V89.6C441.403 91.8133 440.949 93.64 440.043 95.08C439.163 96.52 438.003 97.5867 436.563 98.28C435.123 99 433.563 99.36 431.883 99.36C429.883 99.36 428.176 99.0133 426.763 98.32C425.349 97.6533 424.256 96.7067 423.483 95.48C422.736 94.2533 422.336 92.84 422.283 91.24ZM421.923 80.72C421.923 78.6667 422.336 76.9467 423.163 75.56C423.989 74.1467 425.083 73.0667 426.442 72.32C427.829 71.5733 429.309 71.2 430.883 71.2C432.429 71.2 433.776 71.5867 434.923 72.36C436.096 73.1067 437.016 74.1867 437.683 75.6C438.376 77.0133 438.723 78.72 438.723 80.72C438.723 82.6933 438.376 84.3867 437.683 85.8C437.016 87.2133 436.096 88.3067 434.923 89.08C433.776 89.8267 432.429 90.2 430.883 90.2C429.309 90.2 427.829 89.8267 426.442 89.08C425.083 88.3333 423.989 87.2533 423.163 85.84C422.336 84.4267 421.923 82.72 421.923 80.72ZM426.403 80.72C426.403 81.9467 426.656 82.9867 427.163 83.84C427.669 84.6933 428.336 85.3467 429.163 85.8C430.016 86.2267 430.936 86.44 431.923 86.44C432.749 86.44 433.563 86.2267 434.363 85.8C435.189 85.3733 435.856 84.7333 436.363 83.88C436.896 83 437.163 81.9467 437.163 80.72C437.163 79.76 437.003 78.9333 436.683 78.24C436.389 77.52 435.989 76.92 435.483 76.44C434.976 75.9333 434.403 75.56 433.763 75.32C433.149 75.08 432.536 74.96 431.923 74.96C430.936 74.96 430.016 75.1867 429.163 75.64C428.336 76.0667 427.669 76.7067 427.163 77.56C426.656 78.4133 426.403 79.4667 426.403 80.72Z" fill="#3664AF"/>
</svg>
