<svg width="16" height="16" viewBox="0 0 16 16" fill="none" xmlns="http://www.w3.org/2000/svg">
<path d="M2.85485 1.02699L8.00152 6.17366L13.1215 1.05366C13.2346 0.933282 13.3709 0.836985 13.5221 0.770542C13.6733 0.704099 13.8364 0.668878 14.0015 0.666992C14.3551 0.666992 14.6943 0.807468 14.9443 1.05752C15.1944 1.30756 15.3349 1.6467 15.3349 2.00033C15.338 2.16379 15.3076 2.32618 15.2457 2.4775C15.1838 2.62883 15.0916 2.76591 14.9748 2.88033L9.78818 8.00033L14.9748 13.187C15.1946 13.402 15.3235 13.6931 15.3349 14.0003C15.3349 14.3539 15.1944 14.6931 14.9443 14.9431C14.6943 15.1932 14.3551 15.3337 14.0015 15.3337C13.8316 15.3407 13.6621 15.3123 13.5037 15.2504C13.3453 15.1884 13.2015 15.0942 13.0815 14.9737L8.00152 9.82699L2.86819 14.9603C2.75553 15.0767 2.62094 15.1696 2.47219 15.2337C2.32344 15.2977 2.16347 15.3317 2.00152 15.3337C1.6479 15.3337 1.30876 15.1932 1.05871 14.9431C0.808661 14.6931 0.668186 14.3539 0.668186 14.0003C0.665077 13.8369 0.695406 13.6745 0.757312 13.5232C0.819218 13.3718 0.911395 13.2347 1.02819 13.1203L6.21485 8.00033L1.02819 2.81366C0.808432 2.59867 0.679572 2.30754 0.668186 2.00033C0.668186 1.6467 0.808661 1.30756 1.05871 1.05752C1.30876 0.807468 1.6479 0.666992 2.00152 0.666992C2.32152 0.670992 2.62819 0.800325 2.85485 1.02699Z" fill="black"/>
</svg>
