<svg width="87" height="58" viewBox="0 0 87 58" fill="none" xmlns="http://www.w3.org/2000/svg">
<path d="M33.4375 48.1795C34.4197 51.1243 42.2759 55.7074 45.2212 55.053C49.1493 54.0708 44.5668 47.524 40.9659 47.8517L33.4375 48.1795Z" fill="#96D4DF"/>
<path d="M31.7525 48.6435C33.6125 53.9113 41.9344 59.7629 47.466 57.2777C50.967 55.704 49.7845 50.9499 48.0371 48.6104C46.1185 46.0424 40.7431 42.4492 38.6414 46.8441C39.2296 46.5065 39.8184 46.1693 40.4066 45.8316C38.083 46.0325 35.7595 46.2333 33.4354 46.4342C31.2272 46.6251 31.1522 49.9264 33.4354 49.9247C35.7589 49.9231 38.0825 49.9219 40.4066 49.9203C39.8184 49.5832 39.2296 49.2455 38.6414 48.9078C39.5463 50.5405 41.1283 50.5962 42.4387 51.6909C42.9971 52.1572 43.3619 52.6775 43.7007 53.311C43.4799 52.8982 45.2065 52.2604 44.1608 52.2742C42.4294 52.2962 40.5153 51.249 39.0337 50.4643C37.5456 49.6764 35.6845 48.915 34.9429 47.2983C34.118 45.5006 31.097 46.7862 31.7525 48.6435Z" fill="#96D4DF"/>
<path d="M47.924 13.8195C47.7358 10.7345 45.1679 8.66698 42.3025 8.11355C36.6297 7.01772 30.889 11.1483 28.3243 15.9261C28.1516 16.2478 28.1632 16.5535 28.2796 16.8046C27.4354 17.9925 27.1513 19.7218 28.4066 20.8088C30.3196 22.4658 32.5476 22.7235 35.0041 22.7229C36.3588 22.7229 37.4877 22.5988 38.7998 23.0259C40.32 23.5219 41.6348 24.0019 43.2604 23.8C44.4511 23.6527 45.6733 23.0645 45.9492 21.7529C46.5236 19.0205 48.1011 16.7141 47.924 13.8195Z" fill="#96D4DF"/>
<path d="M55.7849 23.2621C55.6812 21.5637 54.2681 20.426 52.6911 20.1214C49.5686 19.5183 46.4097 21.7916 44.9977 24.4214C44.9028 24.598 44.9089 24.7668 44.9729 24.9048C44.5088 25.5586 44.3521 26.5104 45.0429 27.1085C46.0957 28.0206 47.3223 28.1619 48.6742 28.1619C49.4196 28.1619 50.0409 28.0935 50.7632 28.3291C51.6002 28.6022 52.3236 28.8665 53.2181 28.755C53.8736 28.6739 54.5456 28.35 54.6979 27.6283C55.0146 26.1247 55.882 24.8545 55.7849 23.2621Z" fill="#96D4DF"/>
<mask id="mask0_1037_1304" style="mask-type:luminance" maskUnits="userSpaceOnUse" x="3" y="15" width="84" height="37">
<path d="M83.8315 31.861C84.2426 31.5415 84.6454 31.211 85.0333 30.8612C88.3428 27.8822 87.3932 22.9857 82.7671 22.4339C78.8478 21.9666 75.1702 24.3773 71.8861 26.1076C66.4544 28.9692 59.7415 30.1042 53.9809 27.449C50.369 25.7832 48.8031 22.8439 46.3134 19.9945C38.8446 11.4475 25.4458 15.3833 17.1813 20.7284C11.6073 24.3326 8.09576 28.1807 5.12113 34.0036C3.64789 34.2701 2.47923 35.9806 3.43932 37.4742C9.39188 46.7369 22.347 50.5276 32.732 51.0187C38.4048 51.2868 44.4628 50.7897 49.714 48.5302C54.184 46.6078 58.0663 41.9723 63.0168 40.8081C68.2405 39.5793 74.6113 42.3111 79.8802 42.7365C84.6227 43.1195 88.4443 38.7908 86.0016 34.2193C85.5503 33.3762 84.775 32.5656 83.8315 31.861Z" fill="white"/>
</mask>
<g mask="url(#mask0_1037_1304)">
<path d="M83.8315 31.861C84.2426 31.5415 84.6454 31.211 85.0333 30.8612C88.3428 27.8822 87.3932 22.9857 82.7671 22.4339C78.8478 21.9666 75.1702 24.3773 71.8861 26.1076C66.4544 28.9692 59.7415 30.1042 53.9809 27.449C50.369 25.7832 48.8031 22.8439 46.3134 19.9945C38.8446 11.4475 25.4458 15.3833 17.1813 20.7284C11.6073 24.3326 8.09576 28.1807 5.12113 34.0036C3.64789 34.2701 2.47923 35.9806 3.43932 37.4742C9.39188 46.7369 22.347 50.5276 32.732 51.0187C38.4048 51.2868 44.4628 50.7897 49.714 48.5302C54.184 46.6078 58.0663 41.9723 63.0168 40.8081C68.2405 39.5793 74.6113 42.3111 79.8802 42.7365C84.6227 43.1195 88.4443 38.7908 86.0016 34.2193C85.5503 33.3762 84.775 32.5656 83.8315 31.861Z" fill="#1CBBD5"/>
</g>
<mask id="mask1_1037_1304" style="mask-type:luminance" maskUnits="userSpaceOnUse" x="3" y="15" width="84" height="37">
<path d="M83.8315 31.861C84.2426 31.5415 84.6454 31.211 85.0333 30.8612C88.3428 27.8822 87.3932 22.9857 82.7671 22.4339C78.8478 21.9666 75.1702 24.3773 71.8861 26.1076C66.4544 28.9692 59.7415 30.1042 53.9809 27.449C50.369 25.7832 48.8031 22.8439 46.3134 19.9945C38.8446 11.4475 25.4458 15.3833 17.1813 20.7284C11.6073 24.3326 8.09576 28.1807 5.12113 34.0036C3.64789 34.2701 2.47923 35.9806 3.43932 37.4742C9.39188 46.7369 22.347 50.5276 32.732 51.0187C38.4048 51.2868 44.4628 50.7897 49.714 48.5302C54.184 46.6078 58.0663 41.9723 63.0168 40.8081C68.2405 39.5793 74.6113 42.3111 79.8802 42.7365C84.6227 43.1195 88.4443 38.7908 86.0016 34.2193C85.5503 33.3762 84.775 32.5656 83.8315 31.861Z" fill="white"/>
</mask>
<g mask="url(#mask1_1037_1304)">
<path d="M19.5251 37.702C22.5566 37.702 25.0853 35.1726 25.0853 32.1417C25.0853 29.1108 22.5566 26.582 19.5251 26.582C16.4942 26.582 13.9648 29.1108 13.9648 32.1417C13.9648 35.1726 16.4942 37.702 19.5251 37.702Z" fill="#FCFCFF"/>
<path d="M18.2173 36.313C22.7518 36.313 22.7518 29.2822 18.2173 29.2822C13.6828 29.2822 13.6828 36.313 18.2173 36.313Z" fill="#021E4B"/>
</g>
<mask id="mask2_1037_1304" style="mask-type:luminance" maskUnits="userSpaceOnUse" x="3" y="15" width="84" height="37">
<path d="M83.8315 31.861C84.2426 31.5415 84.6454 31.211 85.0333 30.8612C88.3428 27.8822 87.3932 22.9857 82.7671 22.4339C78.8478 21.9666 75.1702 24.3773 71.8861 26.1076C66.4544 28.9692 59.7415 30.1042 53.9809 27.449C50.369 25.7832 48.8031 22.8439 46.3134 19.9945C38.8446 11.4475 25.4458 15.3833 17.1813 20.7284C11.6073 24.3326 8.09576 28.1807 5.12113 34.0036C3.64789 34.2701 2.47923 35.9806 3.43932 37.4742C9.39188 46.7369 22.347 50.5276 32.732 51.0187C38.4048 51.2868 44.4628 50.7897 49.714 48.5302C54.184 46.6078 58.0663 41.9723 63.0168 40.8081C68.2405 39.5793 74.6113 42.3111 79.8802 42.7365C84.6227 43.1195 88.4443 38.7908 86.0016 34.2193C85.5503 33.3762 84.775 32.5656 83.8315 31.861Z" fill="white"/>
</mask>
<g mask="url(#mask2_1037_1304)">
<path d="M4.3763 30.5054C4.24994 38.089 13.3642 40.998 19.692 40.2398C19.9369 40.2106 20.0495 39.8061 19.756 39.7653C14.0158 38.9603 4.9507 38.1872 4.89387 30.5059C4.89166 30.171 4.38237 30.1716 4.3763 30.5054Z" fill="#021E4B"/>
</g>
<mask id="mask3_1037_1304" style="mask-type:luminance" maskUnits="userSpaceOnUse" x="3" y="15" width="84" height="37">
<path d="M83.8315 31.861C84.2426 31.5415 84.6454 31.211 85.0333 30.8612C88.3428 27.8822 87.3932 22.9857 82.7671 22.4339C78.8478 21.9666 75.1702 24.3773 71.8861 26.1076C66.4544 28.9692 59.7415 30.1042 53.9809 27.449C50.369 25.7832 48.8031 22.8439 46.3134 19.9945C38.8446 11.4475 25.4458 15.3833 17.1813 20.7284C11.6073 24.3326 8.09576 28.1807 5.12113 34.0036C3.64789 34.2701 2.47923 35.9806 3.43932 37.4742C9.39188 46.7369 22.347 50.5276 32.732 51.0187C38.4048 51.2868 44.4628 50.7897 49.714 48.5302C54.184 46.6078 58.0663 41.9723 63.0168 40.8081C68.2405 39.5793 74.6113 42.3111 79.8802 42.7365C84.6227 43.1195 88.4443 38.7908 86.0016 34.2193C85.5503 33.3762 84.775 32.5656 83.8315 31.861Z" fill="white"/>
</mask>
<g mask="url(#mask3_1037_1304)">
<path d="M24.982 11.1343C27.9919 10.4727 30.1869 16.3238 30.8121 18.5121C31.6745 21.532 31.8406 25.5351 29.3041 27.7913C28.7131 28.3166 28.9051 29.3165 29.549 29.695C32.9094 31.6703 34.1536 38.9781 30.0909 40.7995C29.1291 41.2304 29.1749 42.8333 30.0909 43.2792C32.6357 44.5173 32.5551 48.8758 32.1915 51.2545C31.8935 53.2067 30.4882 54.473 28.6905 55.1848C27.2437 55.7576 25.7644 55.1688 24.3414 55.6875C23.7543 55.9016 23.4519 56.5212 23.7681 57.0967C26.2814 61.6726 33.7999 56.3276 34.8593 53.0417C36.0186 49.4458 35.5463 42.542 31.541 40.7989C31.541 41.6255 31.541 42.452 31.541 43.2786C37.2496 40.421 35.7891 30.4432 30.7734 27.6004C30.8551 28.235 30.9368 28.8695 31.0184 29.5041C34.3975 26.4014 33.998 21.2754 32.7808 17.2557C32.1523 15.181 31.035 13.3458 29.6787 11.6734C28.179 9.82495 26.7631 9.61528 24.8142 10.7332C24.5919 10.8617 24.7447 11.1867 24.982 11.1343Z" fill="#0A4681"/>
</g>
<mask id="mask4_1037_1304" style="mask-type:luminance" maskUnits="userSpaceOnUse" x="3" y="15" width="84" height="37">
<path d="M83.8315 31.861C84.2426 31.5415 84.6454 31.211 85.0333 30.8612C88.3428 27.8822 87.3932 22.9857 82.7671 22.4339C78.8478 21.9666 75.1702 24.3773 71.8861 26.1076C66.4544 28.9692 59.7415 30.1042 53.9809 27.449C50.369 25.7832 48.8031 22.8439 46.3134 19.9945C38.8446 11.4475 25.4458 15.3833 17.1813 20.7284C11.6073 24.3326 8.09576 28.1807 5.12113 34.0036C3.64789 34.2701 2.47923 35.9806 3.43932 37.4742C9.39188 46.7369 22.347 50.5276 32.732 51.0187C38.4048 51.2868 44.4628 50.7897 49.714 48.5302C54.184 46.6078 58.0663 41.9723 63.0168 40.8081C68.2405 39.5793 74.6113 42.3111 79.8802 42.7365C84.6227 43.1195 88.4443 38.7908 86.0016 34.2193C85.5503 33.3762 84.775 32.5656 83.8315 31.861Z" fill="white"/>
</mask>
<g mask="url(#mask4_1037_1304)">
<path d="M34.146 11.1343C37.156 10.4727 39.351 16.3232 39.9761 18.5121C40.8385 21.532 41.0046 25.5351 38.4681 27.7913C37.8772 28.3166 38.0692 29.3165 38.7131 29.695C42.0734 31.6703 43.3177 38.9781 39.2549 40.7995C38.2932 41.2304 38.339 42.8333 39.2549 43.2792C41.7997 44.5173 41.7192 48.8758 41.3556 51.2545C41.057 53.2067 39.6522 54.473 37.8545 55.1848C36.4083 55.7576 34.9285 55.1688 33.5054 55.6875C32.9183 55.9016 32.616 56.5212 32.9321 57.0967C35.4449 61.6726 42.964 56.3276 44.0234 53.0417C45.1832 49.4458 44.7104 42.542 40.705 40.7989C40.705 41.6255 40.705 42.452 40.705 43.2786C46.4137 40.421 44.9531 30.4432 39.9375 27.6004C40.0192 28.235 40.1008 28.8695 40.1825 29.5041C43.5616 26.4014 43.1621 21.2754 41.9449 17.2557C41.3164 15.181 40.1996 13.3458 38.8428 11.6734C37.343 9.82495 35.9272 9.61528 33.9783 10.7332C33.7554 10.8617 33.9082 11.1867 34.146 11.1343Z" fill="#0A4681"/>
</g>
<mask id="mask5_1037_1304" style="mask-type:luminance" maskUnits="userSpaceOnUse" x="3" y="15" width="84" height="37">
<path d="M83.8315 31.861C84.2426 31.5415 84.6454 31.211 85.0333 30.8612C88.3428 27.8822 87.3932 22.9857 82.7671 22.4339C78.8478 21.9666 75.1702 24.3773 71.8861 26.1076C66.4544 28.9692 59.7415 30.1042 53.9809 27.449C50.369 25.7832 48.8031 22.8439 46.3134 19.9945C38.8446 11.4475 25.4458 15.3833 17.1813 20.7284C11.6073 24.3326 8.09576 28.1807 5.12113 34.0036C3.64789 34.2701 2.47923 35.9806 3.43932 37.4742C9.39188 46.7369 22.347 50.5276 32.732 51.0187C38.4048 51.2868 44.4628 50.7897 49.714 48.5302C54.184 46.6078 58.0663 41.9723 63.0168 40.8081C68.2405 39.5793 74.6113 42.3111 79.8802 42.7365C84.6227 43.1195 88.4443 38.7908 86.0016 34.2193C85.5503 33.3762 84.775 32.5656 83.8315 31.861Z" fill="white"/>
</mask>
<g mask="url(#mask5_1037_1304)">
<path d="M44.2391 16.6617C47.4156 16.2402 49.5913 21.2718 50.2987 23.7322C51.08 26.4502 51.0038 29.7234 48.6626 31.6187C48.0916 32.0811 48.288 33.0997 48.8955 33.4247C51.8823 35.0248 53.7114 41.5888 49.7695 43.1928C48.8243 43.5774 48.2378 45.1328 49.4451 45.6758C51.9992 46.8246 51.9899 50.7863 51.5087 53.1259C51.1644 54.801 49.5135 55.7534 48.0259 56.2837C46.5753 56.8012 45.0877 56.2462 43.6691 56.7621C43.1405 56.9552 42.7868 57.5715 43.125 58.1007C45.7371 62.1871 52.9698 57.6979 54.123 54.3618C55.3949 50.6831 54.448 44.7703 50.4918 43.1933C50.5999 44.021 50.7086 44.8487 50.8162 45.6763C56.4173 43.11 54.9722 33.9715 50.0564 31.4388C50.1342 32.0408 50.2115 32.6434 50.2893 33.2448C53.6446 30.4385 53.2727 25.6198 51.9391 21.871C51.2781 20.0138 50.1552 18.4131 48.8436 16.9608C47.3566 15.3132 45.9418 15.2547 44.1348 16.2744C43.9665 16.3693 44.0266 16.6898 44.2391 16.6617Z" fill="#0A4681"/>
</g>
<path d="M72.5722 31.9959C73.8777 30.932 75.3327 30.0977 76.8153 29.3082C78.2113 28.5649 79.7204 27.9916 80.8792 26.8825C81.2185 26.5581 80.8565 26.0968 80.4593 26.1614C78.8723 26.4191 77.4543 27.2594 76.0555 28.0082C74.4648 28.8601 72.9408 29.8197 71.5552 30.9784C70.8407 31.5771 71.8626 32.5747 72.5722 31.9959Z" fill="#0A4681"/>
<path d="M72.7361 33.8346C73.811 33.4522 75.0166 33.5289 76.1351 33.2133C77.5134 32.8243 78.8062 32.3167 80.2486 32.1909C80.312 32.1853 80.3137 32.0915 80.2486 32.091C79.0998 32.0833 78.0751 32.3558 76.9859 32.7101C75.5783 33.1686 74.0549 33.1587 72.7041 33.7193C72.6346 33.7474 72.6622 33.8611 72.7361 33.8346Z" fill="#0A4681"/>
<path d="M72.9099 37.2171C74.669 37.6679 76.4043 38.2522 78.1535 38.7504C79.6206 39.1687 81.1121 39.5936 82.5423 38.9259C82.9914 38.7162 82.9473 38.0171 82.5423 37.7942C81.0608 36.9793 79.1042 36.9257 77.4637 36.5185C75.8967 36.1301 74.5084 35.9403 72.9105 36.2305C72.4001 36.3232 72.4415 37.0968 72.9099 37.2171Z" fill="#0A4681"/>
<path d="M3.95719 25.1791C7.20218 25.1791 7.20218 20.1475 3.95719 20.1475C0.712188 20.1475 0.712188 25.1791 3.95719 25.1791Z" fill="#57BBC9"/>
<path d="M10.7092 14.9146C13.0818 14.9146 13.0818 11.2354 10.7092 11.2354C8.33653 11.2354 8.33653 14.9146 10.7092 14.9146Z" fill="#57BBC9"/>
<path d="M2.53845 8.59616C5.92304 8.59616 5.92304 3.34766 2.53845 3.34766C-0.846149 3.34766 -0.846149 8.59616 2.53845 8.59616Z" fill="#57BBC9"/>
<path d="M10.3495 1.70874C10.3997 1.66626 10.4499 1.62322 10.5001 1.58073C10.8218 1.3076 10.8218 0.694026 10.5001 0.420896C10.4499 0.378409 10.3997 0.335374 10.3495 0.292887C10.0714 0.056175 9.74197 -0.0652177 9.37559 0.0357574C8.94631 0.153838 8.64062 0.555527 8.64062 1.00081C8.64062 1.35395 8.83209 1.68667 9.13612 1.8649C9.54885 2.10658 10.0035 2.00284 10.3495 1.70874Z" fill="#57BBC9"/>
</svg>
