<svg width="81" height="60" viewBox="0 0 81 60" fill="none" xmlns="http://www.w3.org/2000/svg">
<mask id="mask0_1037_1507" style="mask-type:luminance" maskUnits="userSpaceOnUse" x="0" y="31" width="15" height="19">
<path d="M1.73759 32.4811C4.61646 30.3967 13.4791 35.5363 14.4343 38.5459C15.685 42.4857 10.0735 47.1206 7.13627 48.6621C5.15188 49.7029 2.40137 50.066 0.920014 47.8064C-0.53532 45.5866 0.208825 41.1195 0.0700569 38.5644C-0.0415363 36.4979 -0.137516 33.8376 1.73759 32.4811ZM3.88907 35.678C3.75898 35.6884 3.7052 35.615 3.88907 35.678V35.678Z" fill="white"/>
</mask>
<g mask="url(#mask0_1037_1507)">
<path d="M1.73759 32.4811C4.61646 30.3967 13.4791 35.5363 14.4343 38.5459C15.685 42.4857 10.0735 47.1206 7.13627 48.6621C5.15188 49.7029 2.40137 50.066 0.920014 47.8064C-0.53532 45.5866 0.208825 41.1195 0.0700569 38.5644C-0.0415363 36.4979 -0.137516 33.8376 1.73759 32.4811ZM3.88907 35.678C3.75898 35.6884 3.7052 35.615 3.88907 35.678V35.678Z" fill="#5686A1"/>
</g>
<mask id="mask1_1037_1507" style="mask-type:luminance" maskUnits="userSpaceOnUse" x="0" y="31" width="15" height="19">
<path d="M1.73759 32.4811C4.61646 30.3967 13.4791 35.5363 14.4343 38.5459C15.685 42.4857 10.0735 47.1206 7.13627 48.6621C5.15188 49.7029 2.40137 50.066 0.920014 47.8064C-0.53532 45.5866 0.208825 41.1195 0.0700569 38.5644C-0.0415363 36.4979 -0.137516 33.8376 1.73759 32.4811ZM3.88907 35.678C3.75898 35.6884 3.7052 35.615 3.88907 35.678V35.678Z" fill="white"/>
</mask>
<g mask="url(#mask1_1037_1507)">
<path d="M10.8676 38.3273C7.11971 36.7725 3.49959 36.3811 -0.482492 35.8815C-0.982059 35.819 -0.995358 35.1431 -0.482492 35.0946C3.4568 34.7193 7.57419 36.1521 11.1064 37.7618C11.4244 37.9058 11.1914 38.4614 10.8676 38.3273Z" fill="#0A4681"/>
</g>
<mask id="mask2_1037_1507" style="mask-type:luminance" maskUnits="userSpaceOnUse" x="0" y="31" width="15" height="19">
<path d="M1.73759 32.4811C4.61646 30.3967 13.4791 35.5363 14.4343 38.5459C15.685 42.4857 10.0735 47.1206 7.13627 48.6621C5.15188 49.7029 2.40137 50.066 0.920014 47.8064C-0.53532 45.5866 0.208825 41.1195 0.0700569 38.5644C-0.0415363 36.4979 -0.137516 33.8376 1.73759 32.4811ZM3.88907 35.678C3.75898 35.6884 3.7052 35.615 3.88907 35.678V35.678Z" fill="white"/>
</mask>
<g mask="url(#mask2_1037_1507)">
<path d="M12.4428 41.4231C10.422 40.8801 8.25199 41.2583 6.18145 41.2693C3.88136 41.2814 1.45639 41.149 -0.791082 40.6494C-1.22416 40.5529 -1.23977 39.8463 -0.791082 39.7613C1.51074 39.3248 3.85997 39.6856 6.18145 39.8353C8.38035 39.9776 10.5764 39.7972 12.714 40.439C13.3436 40.6275 13.0806 41.5948 12.4428 41.4231Z" fill="#0A4681"/>
</g>
<mask id="mask3_1037_1507" style="mask-type:luminance" maskUnits="userSpaceOnUse" x="0" y="31" width="15" height="19">
<path d="M1.73759 32.4811C4.61646 30.3967 13.4791 35.5363 14.4343 38.5459C15.685 42.4857 10.0735 47.1206 7.13627 48.6621C5.15188 49.7029 2.40137 50.066 0.920014 47.8064C-0.53532 45.5866 0.208825 41.1195 0.0700569 38.5644C-0.0415363 36.4979 -0.137516 33.8376 1.73759 32.4811ZM3.88907 35.678C3.75898 35.6884 3.7052 35.615 3.88907 35.678V35.678Z" fill="white"/>
</mask>
<g mask="url(#mask3_1037_1507)">
<path d="M12.6974 42.8808C8.45863 45.8025 1.65956 48.3813 -3.5194 47.056C-4.02359 46.9271 -4.00798 46.1922 -3.5194 46.0546C-1.09211 45.3717 1.55143 45.4689 4.03885 44.9849C6.80324 44.4472 9.71449 43.3312 12.1146 41.8834C12.7605 41.4937 13.3034 42.4639 12.6974 42.8808Z" fill="#0A4681"/>
</g>
<mask id="mask4_1037_1507" style="mask-type:luminance" maskUnits="userSpaceOnUse" x="13" y="4" width="42" height="31">
<path d="M50.0404 16.9886C49.6912 16.123 47.6316 15.8177 46.8852 15.6073C45.2951 15.1592 43.7351 14.8215 42.1723 14.2786C38.4677 12.9909 33.8646 11.8125 30.7857 13.8524C28.4827 15.3777 26.9135 18.7579 25.7317 21.169C24.1387 24.4208 23.7334 27.668 22.9621 30.7874C21.601 36.2849 13.7392 34.799 13.4564 29.5009C13.202 24.7313 16.2624 19.2569 18.64 15.3274C20.991 11.4442 24.3075 6.94928 28.8146 5.46388C31.8213 4.47342 34.8002 4.5775 37.8832 5.06203C41.0922 5.56622 43.6299 7.31413 46.529 8.48441C50.1139 9.93165 54.7707 12.4555 54.0555 16.9886C53.6952 19.2679 50.71 18.6498 50.0404 16.9886Z" fill="white"/>
</mask>
<g mask="url(#mask4_1037_1507)">
<path d="M50.0404 16.9886C49.6912 16.123 47.6316 15.8177 46.8852 15.6073C45.2951 15.1592 43.7351 14.8215 42.1723 14.2786C38.4677 12.9909 33.8646 11.8125 30.7857 13.8524C28.4827 15.3777 26.9135 18.7579 25.7317 21.169C24.1387 24.4208 23.7334 27.668 22.9621 30.7874C21.601 36.2849 13.7392 34.799 13.4564 29.5009C13.202 24.7313 16.2624 19.2569 18.64 15.3274C20.991 11.4442 24.3075 6.94928 28.8146 5.46388C31.8213 4.47342 34.8002 4.5775 37.8832 5.06203C41.0922 5.56622 43.6299 7.31413 46.529 8.48441C50.1139 9.93165 54.7707 12.4555 54.0555 16.9886C53.6952 19.2679 50.71 18.6498 50.0404 16.9886Z" fill="#5686A1"/>
</g>
<mask id="mask5_1037_1507" style="mask-type:luminance" maskUnits="userSpaceOnUse" x="13" y="4" width="42" height="31">
<path d="M50.0404 16.9886C49.6912 16.123 47.6316 15.8177 46.8852 15.6073C45.2951 15.1592 43.7351 14.8215 42.1723 14.2786C38.4677 12.9909 33.8646 11.8125 30.7857 13.8524C28.4827 15.3777 26.9135 18.7579 25.7317 21.169C24.1387 24.4208 23.7334 27.668 22.9621 30.7874C21.601 36.2849 13.7392 34.799 13.4564 29.5009C13.202 24.7313 16.2624 19.2569 18.64 15.3274C20.991 11.4442 24.3075 6.94928 28.8146 5.46388C31.8213 4.47342 34.8002 4.5775 37.8832 5.06203C41.0922 5.56622 43.6299 7.31413 46.529 8.48441C50.1139 9.93165 54.7707 12.4555 54.0555 16.9886C53.6952 19.2679 50.71 18.6498 50.0404 16.9886Z" fill="white"/>
</mask>
<g mask="url(#mask5_1037_1507)">
<path d="M47.7105 13.2887C47.1901 11.3963 45.0895 10.3792 43.5272 9.44598C41.3641 8.1537 39.1091 7.1008 36.7292 6.26819C34.3361 5.43095 31.8776 4.8724 29.3479 4.68449C27.0484 4.51392 24.6685 4.85564 22.3956 4.50814C21.8035 4.41794 21.8053 3.41186 22.3956 3.31877C24.9495 2.9175 27.8053 3.15341 30.3679 3.42806C33.1733 3.7293 35.8961 4.58619 38.5066 5.62811C40.7813 6.53589 42.8507 7.75822 44.8981 9.08808C46.3927 10.0589 48.0944 11.2361 48.5801 13.0476C48.731 13.6119 47.8648 13.849 47.7105 13.2887Z" fill="#0A4681"/>
</g>
<mask id="mask6_1037_1507" style="mask-type:luminance" maskUnits="userSpaceOnUse" x="13" y="4" width="42" height="31">
<path d="M50.0404 16.9886C49.6912 16.123 47.6316 15.8177 46.8852 15.6073C45.2951 15.1592 43.7351 14.8215 42.1723 14.2786C38.4677 12.9909 33.8646 11.8125 30.7857 13.8524C28.4827 15.3777 26.9135 18.7579 25.7317 21.169C24.1387 24.4208 23.7334 27.668 22.9621 30.7874C21.601 36.2849 13.7392 34.799 13.4564 29.5009C13.202 24.7313 16.2624 19.2569 18.64 15.3274C20.991 11.4442 24.3075 6.94928 28.8146 5.46388C31.8213 4.47342 34.8002 4.5775 37.8832 5.06203C41.0922 5.56622 43.6299 7.31413 46.529 8.48441C50.1139 9.93165 54.7707 12.4555 54.0555 16.9886C53.6952 19.2679 50.71 18.6498 50.0404 16.9886Z" fill="white"/>
</mask>
<g mask="url(#mask6_1037_1507)">
<path d="M42.3153 14.1001C39.3891 10.9581 34.8143 9.07667 30.8542 7.68263C28.5472 6.87026 26.2737 6.27528 23.8308 6.03996C21.7111 5.83643 19.3555 5.65315 17.2751 6.12438C16.7426 6.24522 16.187 5.52247 16.6917 5.12236C18.2136 3.91565 20.9375 4.45106 22.7421 4.55167C25.5128 4.70605 28.1205 5.31663 30.7363 6.21573C33.0231 7.00208 35.2572 7.95265 37.3671 9.13739C39.3804 10.2684 41.5388 11.5924 43.0907 13.3241C43.5608 13.8486 42.7999 14.6205 42.3153 14.1001Z" fill="#0A4681"/>
</g>
<mask id="mask7_1037_1507" style="mask-type:luminance" maskUnits="userSpaceOnUse" x="13" y="4" width="42" height="31">
<path d="M50.0404 16.9886C49.6912 16.123 47.6316 15.8177 46.8852 15.6073C45.2951 15.1592 43.7351 14.8215 42.1723 14.2786C38.4677 12.9909 33.8646 11.8125 30.7857 13.8524C28.4827 15.3777 26.9135 18.7579 25.7317 21.169C24.1387 24.4208 23.7334 27.668 22.9621 30.7874C21.601 36.2849 13.7392 34.799 13.4564 29.5009C13.202 24.7313 16.2624 19.2569 18.64 15.3274C20.991 11.4442 24.3075 6.94928 28.8146 5.46388C31.8213 4.47342 34.8002 4.5775 37.8832 5.06203C41.0922 5.56622 43.6299 7.31413 46.529 8.48441C50.1139 9.93165 54.7707 12.4555 54.0555 16.9886C53.6952 19.2679 50.71 18.6498 50.0404 16.9886Z" fill="white"/>
</mask>
<g mask="url(#mask7_1037_1507)">
<path d="M36.2238 16.5945C29.4872 11.7266 20.4337 7.91396 12.0665 10.328C11.0524 10.6205 10.6233 9.04608 11.6329 8.75294C20.4487 6.19324 29.8642 10.2493 36.8338 15.5514C37.4398 16.0128 36.8616 17.0553 36.2238 16.5945Z" fill="#0A4681"/>
</g>
<mask id="mask8_1037_1507" style="mask-type:luminance" maskUnits="userSpaceOnUse" x="13" y="4" width="42" height="31">
<path d="M50.0404 16.9886C49.6912 16.123 47.6316 15.8177 46.8852 15.6073C45.2951 15.1592 43.7351 14.8215 42.1723 14.2786C38.4677 12.9909 33.8646 11.8125 30.7857 13.8524C28.4827 15.3777 26.9135 18.7579 25.7317 21.169C24.1387 24.4208 23.7334 27.668 22.9621 30.7874C21.601 36.2849 13.7392 34.799 13.4564 29.5009C13.202 24.7313 16.2624 19.2569 18.64 15.3274C20.991 11.4442 24.3075 6.94928 28.8146 5.46388C31.8213 4.47342 34.8002 4.5775 37.8832 5.06203C41.0922 5.56622 43.6299 7.31413 46.529 8.48441C50.1139 9.93165 54.7707 12.4555 54.0555 16.9886C53.6952 19.2679 50.71 18.6498 50.0404 16.9886Z" fill="white"/>
</mask>
<g mask="url(#mask8_1037_1507)">
<path d="M31.9969 19.0098C28.5959 18.5895 25.4725 17.2428 21.9946 17.1844C20.2415 17.1549 18.5728 17.4799 16.9347 18.0853C15.5233 18.6068 14.2733 19.6273 12.7913 19.924C11.7858 20.1258 11.3956 18.7225 12.3692 18.3906C13.7986 17.902 15.077 17.0289 16.4924 16.479C18.0773 15.8632 19.7714 15.6239 21.462 15.5903C25.2498 15.5146 28.5196 17.2238 32.1507 17.8737C32.7896 17.9876 32.6439 19.0896 31.9969 19.0098Z" fill="#0A4681"/>
</g>
<mask id="mask9_1037_1507" style="mask-type:luminance" maskUnits="userSpaceOnUse" x="14" y="40" width="42" height="20">
<path d="M54.8743 52.9995C50.5915 60.2323 39.3652 59.9223 32.192 58.7688C25.9052 57.7575 17.6485 53.4684 15.2935 47.2545C13.0489 41.332 21.9439 38.2444 25.0893 43.125C25.8323 44.2779 27.146 45.1978 28.869 46.2236C30.9754 47.4765 32.695 48.2692 34.9153 48.8891C38.0052 49.7523 41.1217 49.7743 44.3042 49.798C47.4305 49.82 50.3464 49.1146 53.4745 49.5604C54.998 49.7772 55.571 51.8223 54.8743 52.9995Z" fill="white"/>
</mask>
<g mask="url(#mask9_1037_1507)">
<path d="M54.8743 52.9995C50.5915 60.2323 39.3652 59.9223 32.192 58.7688C25.9052 57.7575 17.6485 53.4684 15.2935 47.2545C13.0489 41.332 21.9439 38.2444 25.0893 43.125C25.8323 44.2779 27.146 45.1978 28.869 46.2236C30.9754 47.4765 32.695 48.2692 34.9153 48.8891C38.0052 49.7523 41.1217 49.7743 44.3042 49.798C47.4305 49.82 50.3464 49.1146 53.4745 49.5604C54.998 49.7772 55.571 51.8223 54.8743 52.9995Z" fill="#5686A1"/>
</g>
<mask id="mask10_1037_1507" style="mask-type:luminance" maskUnits="userSpaceOnUse" x="14" y="40" width="42" height="20">
<path d="M54.8743 52.9995C50.5915 60.2323 39.3652 59.9223 32.192 58.7688C25.9052 57.7575 17.6485 53.4684 15.2935 47.2545C13.0489 41.332 21.9439 38.2444 25.0893 43.125C25.8323 44.2779 27.146 45.1978 28.869 46.2236C30.9754 47.4765 32.695 48.2692 34.9153 48.8891C38.0052 49.7523 41.1217 49.7743 44.3042 49.798C47.4305 49.82 50.3464 49.1146 53.4745 49.5604C54.998 49.7772 55.571 51.8223 54.8743 52.9995Z" fill="white"/>
</mask>
<g mask="url(#mask10_1037_1507)">
<path d="M47.3063 49.6414C46.8045 53.7548 42.4755 55.8872 39.2184 57.6241C34.5055 60.1381 27.8169 62.836 22.4633 60.8452C22.1303 60.7215 22.1615 60.1988 22.55 60.2023C25.3399 60.2237 27.8955 60.3624 30.6605 59.7762C33.2393 59.2292 35.8186 58.2462 38.1667 57.0586C41.2861 55.4818 46.2621 53.6229 46.7883 49.642C46.8305 49.3159 47.3468 49.3084 47.3063 49.6414Z" fill="#0A4681"/>
</g>
<mask id="mask11_1037_1507" style="mask-type:luminance" maskUnits="userSpaceOnUse" x="14" y="40" width="42" height="20">
<path d="M54.8743 52.9995C50.5915 60.2323 39.3652 59.9223 32.192 58.7688C25.9052 57.7575 17.6485 53.4684 15.2935 47.2545C13.0489 41.332 21.9439 38.2444 25.0893 43.125C25.8323 44.2779 27.146 45.1978 28.869 46.2236C30.9754 47.4765 32.695 48.2692 34.9153 48.8891C38.0052 49.7523 41.1217 49.7743 44.3042 49.798C47.4305 49.82 50.3464 49.1146 53.4745 49.5604C54.998 49.7772 55.571 51.8223 54.8743 52.9995Z" fill="white"/>
</mask>
<g mask="url(#mask11_1037_1507)">
<path d="M43.7499 48.1006C42.6687 52.4613 37.4845 54.4498 33.6886 55.7513C30.7502 56.758 27.7285 57.3847 24.6502 57.771C21.2729 58.1936 17.625 58.4249 14.2957 57.5831C13.9153 57.4865 14.0246 56.9592 14.3836 56.9314C17.2827 56.7094 20.1946 56.8615 23.0971 56.6417C26.3033 56.4001 29.4695 55.7779 32.5525 54.8736C36.2321 53.7941 41.998 52.1428 43.0861 47.9173C43.1966 47.4871 43.8575 47.6698 43.7499 48.1006Z" fill="#0A4681"/>
</g>
<mask id="mask12_1037_1507" style="mask-type:luminance" maskUnits="userSpaceOnUse" x="14" y="40" width="42" height="20">
<path d="M54.8743 52.9995C50.5915 60.2323 39.3652 59.9223 32.192 58.7688C25.9052 57.7575 17.6485 53.4684 15.2935 47.2545C13.0489 41.332 21.9439 38.2444 25.0893 43.125C25.8323 44.2779 27.146 45.1978 28.869 46.2236C30.9754 47.4765 32.695 48.2692 34.9153 48.8891C38.0052 49.7523 41.1217 49.7743 44.3042 49.798C47.4305 49.82 50.3464 49.1146 53.4745 49.5604C54.998 49.7772 55.571 51.8223 54.8743 52.9995Z" fill="white"/>
</mask>
<g mask="url(#mask12_1037_1507)">
<path d="M34.7118 47.9256C34.4336 49.4711 32.8314 50.4558 31.5386 51.1074C29.7907 51.9892 27.8629 52.5171 25.9832 53.034C23.2593 53.7828 20.4354 54.0597 17.6166 54.0499C14.6435 54.0395 11.2373 53.7492 8.57183 52.3297C8.24861 52.1574 8.38101 51.5798 8.76494 51.6162C11.394 51.8689 13.9595 52.498 16.6077 52.657C19.5172 52.8316 22.4521 52.5749 25.2963 51.9528C26.7395 51.6371 28.1815 51.241 29.5848 50.7819C31.0991 50.287 33.6074 49.5255 33.9896 47.7267C34.0908 47.2508 34.7962 47.4567 34.7118 47.9256Z" fill="#0A4681"/>
</g>
<mask id="mask13_1037_1507" style="mask-type:luminance" maskUnits="userSpaceOnUse" x="9" y="10" width="63" height="47">
<path d="M10.0993 42.7255C8.77756 37.3066 12.9689 29.9241 15.1846 25.7605C18.0808 20.3196 22.4694 15.546 28.5307 12.9903C38.9869 8.58151 52.6562 10.1906 61.8212 16.4682C66.5272 19.6917 70.8105 24.9614 71.139 30.7648C71.3107 33.8119 70.1959 37.1881 68.1202 39.4511C66.81 40.8793 63.5535 41.99 61.7322 40.951C61.1343 44.6243 69.1979 45.9224 69.2373 45.5263C68.6475 51.5038 61.0112 55.2517 55.8981 56.278C46.914 58.0808 40.2028 54.3329 31.9079 51.7628C26.337 50.0363 18.012 50.2785 13.2158 47.095C11.4772 45.9397 10.5162 44.43 10.0993 42.7255Z" fill="white"/>
</mask>
<g mask="url(#mask13_1037_1507)">
<path d="M10.0993 42.7255C8.77756 37.3066 12.9689 29.9241 15.1846 25.7605C18.0808 20.3196 22.4694 15.546 28.5307 12.9903C38.9869 8.58151 52.6562 10.1906 61.8212 16.4682C66.5272 19.6917 70.8105 24.9614 71.139 30.7648C71.3107 33.8119 70.1959 37.1881 68.1202 39.4511C66.81 40.8793 63.5535 41.99 61.7322 40.951C61.1343 44.6243 69.1979 45.9224 69.2373 45.5263C68.6475 51.5038 61.0112 55.2517 55.8981 56.278C46.914 58.0808 40.2028 54.3329 31.9079 51.7628C26.337 50.0363 18.012 50.2785 13.2158 47.095C11.4772 45.9397 10.5162 44.43 10.0993 42.7255Z" fill="#FBD54B"/>
</g>
<mask id="mask14_1037_1507" style="mask-type:luminance" maskUnits="userSpaceOnUse" x="9" y="10" width="63" height="47">
<path d="M10.0993 42.7255C8.77756 37.3066 12.9689 29.9241 15.1846 25.7605C18.0808 20.3196 22.4694 15.546 28.5307 12.9903C38.9869 8.58151 52.6562 10.1906 61.8212 16.4682C66.5272 19.6917 70.8105 24.9614 71.139 30.7648C71.3107 33.8119 70.1959 37.1881 68.1202 39.4511C66.81 40.8793 63.5535 41.99 61.7322 40.951C61.1343 44.6243 69.1979 45.9224 69.2373 45.5263C68.6475 51.5038 61.0112 55.2517 55.8981 56.278C46.914 58.0808 40.2028 54.3329 31.9079 51.7628C26.337 50.0363 18.012 50.2785 13.2158 47.095C11.4772 45.9397 10.5162 44.43 10.0993 42.7255Z" fill="white"/>
</mask>
<g mask="url(#mask14_1037_1507)">
<path d="M58.9033 31.8948C55.4028 28.9379 49.8914 27.6895 45.4282 28.3921C41.6613 28.9847 38.1874 29.9081 34.5673 28.2423C31.3687 26.7702 28.9044 23.7173 26.3175 21.4265C22.5436 18.0845 17.6202 17.9786 13.2947 20.3065C11.0501 21.5149 9.21893 18.3157 11.3138 16.9171C15.0703 14.4082 20.0342 14.628 24.2279 15.7393C28.155 16.78 31.2386 21.2709 34.1735 23.7983C38.4817 27.5068 43.615 24.8396 48.6419 24.9263C53.0033 25.0015 57.4138 27.3328 60.428 30.3707C61.4219 31.3715 59.951 32.7795 58.9033 31.8948Z" fill="#F5A13C"/>
</g>
<mask id="mask15_1037_1507" style="mask-type:luminance" maskUnits="userSpaceOnUse" x="9" y="10" width="63" height="47">
<path d="M10.0993 42.7255C8.77756 37.3066 12.9689 29.9241 15.1846 25.7605C18.0808 20.3196 22.4694 15.546 28.5307 12.9903C38.9869 8.58151 52.6562 10.1906 61.8212 16.4682C66.5272 19.6917 70.8105 24.9614 71.139 30.7648C71.3107 33.8119 70.1959 37.1881 68.1202 39.4511C66.81 40.8793 63.5535 41.99 61.7322 40.951C61.1343 44.6243 69.1979 45.9224 69.2373 45.5263C68.6475 51.5038 61.0112 55.2517 55.8981 56.278C46.914 58.0808 40.2028 54.3329 31.9079 51.7628C26.337 50.0363 18.012 50.2785 13.2158 47.095C11.4772 45.9397 10.5162 44.43 10.0993 42.7255Z" fill="white"/>
</mask>
<g mask="url(#mask15_1037_1507)">
<path d="M59.1244 32.771C57.1695 34.7149 53.7946 33.625 51.269 34.2547C48.3502 34.982 45.9403 36.9508 43.5494 38.6652C41.5893 40.0702 39.469 41.1532 37.0683 41.5169C34.245 41.9442 31.4632 40.9965 28.7364 40.3836C26.0466 39.7788 23.2487 39.3804 21.1227 41.4677C19.373 43.1862 18.6277 45.3995 16.2126 46.4004C12.9822 47.7395 4.57568 46.564 5.50023 41.6476C5.58927 41.1734 6.04142 40.7895 6.48491 40.6629C8.4398 40.1043 10.2912 41.6296 12.3045 41.6481C13.3088 41.6574 14.1814 41.9239 14.9787 41.1931C15.7795 40.4582 16.4109 39.4874 17.0961 38.6496C20.5624 34.4114 25.9923 35.004 30.7399 36.1778C33.2603 36.8011 35.4725 37.5735 38.0518 36.808C40.419 36.1049 42.5352 34.2697 44.6185 33.0017C46.7052 31.7308 49.2458 30.6733 51.6882 30.4264C54.0068 30.1922 57.3973 29.8459 59.125 31.6765C59.4135 31.9823 59.4303 32.4674 59.1244 32.771Z" fill="#F5A13C"/>
</g>
<mask id="mask16_1037_1507" style="mask-type:luminance" maskUnits="userSpaceOnUse" x="9" y="10" width="63" height="47">
<path d="M10.0993 42.7255C8.77756 37.3066 12.9689 29.9241 15.1846 25.7605C18.0808 20.3196 22.4694 15.546 28.5307 12.9903C38.9869 8.58151 52.6562 10.1906 61.8212 16.4682C66.5272 19.6917 70.8105 24.9614 71.139 30.7648C71.3107 33.8119 70.1959 37.1881 68.1202 39.4511C66.81 40.8793 63.5535 41.99 61.7322 40.951C61.1343 44.6243 69.1979 45.9224 69.2373 45.5263C68.6475 51.5038 61.0112 55.2517 55.8981 56.278C46.914 58.0808 40.2028 54.3329 31.9079 51.7628C26.337 50.0363 18.012 50.2785 13.2158 47.095C11.4772 45.9397 10.5162 44.43 10.0993 42.7255Z" fill="white"/>
</mask>
<g mask="url(#mask16_1037_1507)">
<path d="M58.3293 31.8401C59.0451 35.4152 58.1935 38.1761 55.0417 40.1645C51.9425 42.1206 47.9928 41.976 45 44.168C42.9989 45.6337 41.5187 46.8983 41.3591 49.4389C41.2209 51.6424 40.7693 53.6106 39.2146 55.2221C36.6728 57.8546 32.3553 60.4253 28.6884 60.7907C26.7167 60.9873 25.8928 57.8679 27.6702 57.0324C30.8642 55.532 34.0801 54.412 36.6022 51.7991C37.558 50.8086 36.9376 47.7696 37.2382 46.4513C37.6528 44.6311 39.1058 43.3446 40.4611 42.1437C42.9804 39.9119 45.5649 38.689 48.7844 37.7904C52.1565 36.8491 55.0105 36.1992 55.5054 32.2229C55.6893 30.7491 57.983 30.109 58.3293 31.8401Z" fill="#F5A13C"/>
</g>
<mask id="mask17_1037_1507" style="mask-type:luminance" maskUnits="userSpaceOnUse" x="9" y="10" width="63" height="47">
<path d="M10.0993 42.7255C8.77756 37.3066 12.9689 29.9241 15.1846 25.7605C18.0808 20.3196 22.4694 15.546 28.5307 12.9903C38.9869 8.58151 52.6562 10.1906 61.8212 16.4682C66.5272 19.6917 70.8105 24.9614 71.139 30.7648C71.3107 33.8119 70.1959 37.1881 68.1202 39.4511C66.81 40.8793 63.5535 41.99 61.7322 40.951C61.1343 44.6243 69.1979 45.9224 69.2373 45.5263C68.6475 51.5038 61.0112 55.2517 55.8981 56.278C46.914 58.0808 40.2028 54.3329 31.9079 51.7628C26.337 50.0363 18.012 50.2785 13.2158 47.095C11.4772 45.9397 10.5162 44.43 10.0993 42.7255Z" fill="white"/>
</mask>
<g mask="url(#mask17_1037_1507)">
<path d="M58.1264 30.0859C56.4797 26.6213 53.8067 23.7465 50.7624 21.432C47.8454 19.2146 44.4901 18.4502 40.9804 17.7222C37.4713 16.9943 35.5471 15.4377 33.1261 12.8989C31.1949 10.8734 27.4927 8.29405 27.9882 5.2157C28.0489 4.83987 28.4762 4.40101 28.8567 4.34666C32.0703 3.89046 34.2449 7.75228 36.1374 9.88758C37.6731 11.621 38.9157 12.9642 41.184 13.6881C42.9567 14.2536 44.7914 14.5872 46.5618 15.1729C53.1487 17.3516 57.8125 22.8717 60.2496 29.1909C60.7226 30.419 58.689 31.2683 58.1264 30.0859Z" fill="#F5A13C"/>
</g>
<mask id="mask18_1037_1507" style="mask-type:luminance" maskUnits="userSpaceOnUse" x="9" y="10" width="63" height="47">
<path d="M10.0993 42.7255C8.77756 37.3066 12.9689 29.9241 15.1846 25.7605C18.0808 20.3196 22.4694 15.546 28.5307 12.9903C38.9869 8.58151 52.6562 10.1906 61.8212 16.4682C66.5272 19.6917 70.8105 24.9614 71.139 30.7648C71.3107 33.8119 70.1959 37.1881 68.1202 39.4511C66.81 40.8793 63.5535 41.99 61.7322 40.951C61.1343 44.6243 69.1979 45.9224 69.2373 45.5263C68.6475 51.5038 61.0112 55.2517 55.8981 56.278C46.914 58.0808 40.2028 54.3329 31.9079 51.7628C26.337 50.0363 18.012 50.2785 13.2158 47.095C11.4772 45.9397 10.5162 44.43 10.0993 42.7255Z" fill="white"/>
</mask>
<g mask="url(#mask18_1037_1507)">
<path d="M58.9514 36.198C55.7747 36.198 53.1248 33.5475 53.1248 30.3715C53.1248 27.1954 55.7747 24.5449 58.9514 24.5449C62.1274 24.5449 64.7773 27.1948 64.7773 30.3715C64.7773 33.5475 62.1274 36.198 58.9514 36.198Z" fill="#FCFCFF"/>
<path d="M60.3225 34.7405C55.5709 34.7405 55.5709 27.373 60.3225 27.373C65.0748 27.373 65.0748 34.7405 60.3225 34.7405Z" fill="#021E4B"/>
</g>
<path d="M71.3606 20.6866C68.1799 20.6866 68.1799 15.7539 71.3606 15.7539C74.5413 15.7539 74.5413 20.6866 71.3606 20.6866Z" fill="#57BBC9"/>
<path d="M77.6819 13.4639C73.2581 13.4639 73.2581 6.60352 77.6819 6.60352C82.1057 6.60352 82.1063 13.4639 77.6819 13.4639Z" fill="#57BBC9"/>
<path d="M65.769 2.94825C63.8679 2.94825 63.8679 0 65.769 0C67.6707 0 67.6707 2.94825 65.769 2.94825Z" fill="#57BBC9"/>
</svg>
