<svg width="193" height="178" viewBox="0 0 193 178" fill="none" xmlns="http://www.w3.org/2000/svg">
<path d="M105.644 139.545C105.673 139.618 105.702 139.698 105.738 139.771C108.206 145.755 108.301 153.151 107.704 159.863C107.114 166.531 105.84 172.522 105.52 175.769C105.025 181.025 117.204 172.828 124.032 156.718C125.67 152.86 127.002 148.536 127.774 143.84C129.878 131.079 125.83 114.219 121.535 101.101C117.633 89.235 113.52 80.4265 113.52 80.4265C104.384 71.0356 107.158 92.1614 106.146 103.328C105.141 114.423 100.876 127.657 105.651 139.538L105.644 139.545Z" fill="#4E5E8F"/>
<path d="M105.52 175.77C105.025 181.026 117.204 172.829 124.032 156.719C125.67 152.86 127.002 148.536 127.774 143.841C129.878 131.079 125.83 114.22 121.535 101.102C119.635 102.419 117.175 105.484 119.941 111.795C124.032 121.143 124.418 131.436 120.254 135.68C116.083 139.932 115.566 139.524 114.751 146.658C114.634 147.685 114.445 148.74 114.183 149.796C113.171 153.996 111.06 158.095 107.711 159.856C107.122 166.524 105.848 172.516 105.527 175.762L105.52 175.77Z" fill="#E1E8FF"/>
<g style="mix-blend-mode:multiply" opacity="0.13">
<path d="M105.729 139.771C108.197 145.755 108.292 153.151 107.695 159.863C107.105 166.531 105.831 172.522 105.511 175.769C105.016 181.025 117.195 172.828 124.023 156.718C120.391 155.08 117.079 152.597 114.174 149.802C110.745 146.512 107.862 142.792 105.642 139.545C105.671 139.618 105.7 139.698 105.737 139.771H105.729Z" fill="#808080"/>
</g>
<path d="M-134.973 40.0388C-131.537 44.6032 -114.277 54.54 -107.194 55.1151C-100.11 55.6829 -88.3681 51.4024 -87.3271 56.2362H-87.3199C-86.6283 59.4465 -75.9125 81.5332 -55.2236 100.708C-46.6917 108.607 -36.4783 116.01 -24.5614 121.397C-21.3292 122.86 -17.9732 124.171 -14.4862 125.306C26.0255 138.497 63.8728 138.825 92.2273 131.239C98.9829 129.427 105.207 127.17 110.791 124.535C143.025 109.291 174.401 87.721 191.29 41.6258C192.76 37.6073 193.19 33.6399 192.928 30.1747C192.571 25.3701 190.897 21.5046 188.837 19.7138C185.306 16.6417 173.993 18.8475 167.485 18.1341C132.826 14.2758 103.664 17.1659 79.5315 25.9816C43.3003 39.2162 24.9117 64.5933 -18.2644 66.6971C-65.0584 68.9757 -73.8305 53.8702 -78.2057 43.3729C-82.588 32.8682 -78.0237 20.6092 -83.9858 8.99802C-89.9551 -2.60586 -96.5942 0.378826 -95.0218 4.30988C-93.4348 8.23365 -95.5823 14.7199 -96.6088 19.8594C-97.6425 25.0061 -95.8881 32.6935 -95.8881 32.6935C-95.8881 32.6935 -96.1939 32.5334 -96.7253 32.264C-99.4625 30.9464 -108.176 27.2774 -112.879 31.3177C-118.492 36.1514 -131.559 33.1958 -134.289 31.5506C-137.004 29.9054 -138.402 35.4962 -134.973 40.0461V40.0388Z" fill="#4E5E8F"/>
<g style="mix-blend-mode:screen" opacity="0.55">
<path d="M192.927 33.1517C192.57 28.3471 190.896 24.4816 188.828 22.6907C185.297 19.6187 173.985 21.8244 167.477 21.111C132.818 17.2528 103.655 20.1428 79.5231 28.9586C43.2919 42.1931 24.9033 67.5702 -18.2727 69.6741C-65.0668 71.9526 -73.8389 56.8472 -78.214 46.3498C-82.5964 35.8452 -78.032 23.5861 -83.9941 11.975C-88.5294 3.15923 -93.4432 2.76613 -94.8555 4.80445C-94.9064 4.63702 -94.9574 4.4623 -95.0229 4.29487C-96.6026 0.363819 -89.9562 -2.62815 -83.9868 8.98301C-78.0247 20.6015 -82.5891 32.8532 -78.2067 43.3579C-73.8316 53.8552 -65.0595 68.9607 -18.2655 66.6821C24.9106 64.5783 43.3065 39.2012 79.5304 25.9666C103.663 17.1509 132.825 14.2608 167.484 18.1191C173.992 18.8398 185.305 16.634 188.835 19.6988C190.896 21.4896 192.57 25.3624 192.934 30.1597C193.014 31.2517 193.021 32.4019 192.956 33.5812C192.948 33.4356 192.948 33.29 192.934 33.1444L192.927 33.1517Z" fill="#4E5E8F"/>
</g>
<path d="M-61.7971 85.137C-51.1032 94.8773 -13.8092 108.279 -9.18654 109.058C13.5553 112.502 40.4175 114.038 66.7774 106.299C126.02 88.9079 152.438 39.8717 171.176 30.7648C183.864 24.5988 185.473 27.1758 192.928 30.1678C193.19 33.6402 192.76 37.6004 191.29 41.6188C174.401 87.714 143.025 109.291 110.791 124.528C81.7518 138.25 35.6784 141.642 -14.4862 125.307C-17.9659 124.171 -21.3219 122.853 -24.5541 121.39C-24.5541 121.39 -24.5541 121.39 -24.5613 121.39C-24.6997 121.332 -24.8234 121.259 -24.9617 121.201C-27.6407 119.978 -30.2322 118.646 -32.7437 117.233C-33.0204 117.08 -33.2897 116.928 -33.5664 116.767C-34.7675 116.076 -35.9541 115.37 -37.1116 114.649C-37.2936 114.533 -37.4683 114.416 -37.6503 114.3C-38.6767 113.644 -39.6886 112.982 -40.6859 112.305C-40.9407 112.13 -41.1955 111.963 -41.443 111.788C-42.535 111.031 -43.6051 110.267 -44.6534 109.488C-44.9009 109.306 -45.1338 109.124 -45.3813 108.942C-46.3204 108.236 -47.2377 107.522 -48.1476 106.794C-48.3151 106.663 -48.4898 106.532 -48.6499 106.394C-49.6691 105.571 -50.6592 104.741 -51.6346 103.904C-51.8676 103.708 -52.1005 103.504 -52.3262 103.3C-53.309 102.441 -54.2845 101.575 -55.2235 100.701C-75.9125 81.5263 -86.6282 59.4396 -87.3198 56.2365C-86.8685 56.8262 -72.4037 75.4768 -61.7971 85.1225V85.137Z" fill="#E1E8FF"/>
<g style="mix-blend-mode:multiply">
<g style="mix-blend-mode:multiply" opacity="0.13">
<path d="M63.9736 114.829C64.0319 114.829 64.0901 114.829 64.1556 114.829C113.388 108.437 171.044 41.7113 171.619 41.0343C171.932 40.6703 171.888 40.1316 171.524 39.8186C171.16 39.5056 170.622 39.5492 170.309 39.9132C169.733 40.5829 112.508 106.814 63.9299 113.118C63.4568 113.176 63.1219 113.613 63.1874 114.086C63.2384 114.494 63.5732 114.8 63.9736 114.836V114.829Z" fill="#808080"/>
</g>
</g>
<g style="mix-blend-mode:multiply" opacity="0.13">
<path d="M65.6325 127.686C65.6762 127.686 65.7199 127.686 65.7708 127.686C99.9054 125.014 130.138 100.904 149.495 81.1395C170.417 59.7735 183.484 38.757 183.615 38.5458C183.863 38.1382 183.739 37.614 183.331 37.3592C182.931 37.1045 182.399 37.2355 182.144 37.6359C182.013 37.847 169.034 58.7252 148.236 79.9529C129.097 99.4917 99.2284 123.333 65.6325 125.961C65.1593 125.997 64.8026 126.412 64.839 126.885C64.8754 127.315 65.2103 127.642 65.6252 127.679L65.6325 127.686Z" fill="#808080"/>
</g>
<g style="mix-blend-mode:multiply" opacity="0.13">
<path d="M100.641 123.814C100.736 123.821 100.831 123.814 100.925 123.792C148.374 111.759 179.277 58.6314 179.583 58.1C179.816 57.685 179.677 57.1609 179.262 56.9207C178.847 56.6804 178.323 56.826 178.083 57.241C177.777 57.7724 147.231 110.274 100.496 122.118C100.037 122.234 99.7531 122.7 99.8696 123.166C99.9642 123.53 100.277 123.785 100.634 123.814H100.641Z" fill="#808080"/>
</g>
<path d="M108.721 57.3289C108.466 60.4592 110.803 63.2037 113.933 63.4512C117.063 63.706 119.808 61.3692 120.055 58.2389C120.31 55.1086 117.973 52.3642 114.843 52.1167C111.713 51.8619 108.968 54.1987 108.721 57.3289Z" fill="white"/>
<path d="M111.052 57.5187C110.906 59.3605 112.275 60.9766 114.116 61.1222C115.958 61.2678 117.574 59.8992 117.72 58.0574C117.865 56.2157 116.497 54.5996 114.655 54.454C112.813 54.3084 111.197 55.677 111.052 57.5187Z" fill="#1C2124"/>
<path d="M114.276 57.1546C114.225 57.7588 114.676 58.2829 115.273 58.3266C115.87 58.3776 116.402 57.9262 116.445 57.3293C116.496 56.7323 116.045 56.2009 115.448 56.1572C114.851 56.1063 114.32 56.5576 114.276 57.1546Z" fill="white"/>
<g style="mix-blend-mode:multiply" opacity="0.13">
<path d="M-134.974 40.0384C-131.538 44.6027 -114.277 54.5396 -107.194 55.1147C-100.111 55.6825 -88.3688 51.402 -87.3278 56.2357H-87.3206C-86.629 59.4461 -75.9133 81.5328 -55.2243 100.708C-46.6924 108.606 -36.479 116.01 -24.5621 121.397C-21.3299 122.86 -17.9739 124.17 -14.4869 125.306C26.0247 138.497 63.872 138.824 92.2266 131.239C46.2769 128.735 -17.2168 103.7 -46.0227 87.6114C-69.6381 74.4132 -86.8474 49.6767 -96.726 32.2563C-99.4632 30.9387 -108.177 27.2697 -112.88 31.31C-118.492 36.1437 -131.559 33.1881 -134.289 31.5429C-137.005 29.8977 -138.402 35.4885 -134.974 40.0384Z" fill="#808080"/>
</g>
<path d="M49.8161 161.327C52.6115 159.499 55.3851 157.374 58.0567 154.913C68.8016 145.013 76.9258 127.192 82.2254 112.509C87.0009 99.2379 89.4688 88.5294 89.4688 88.5294C87.8599 73.8098 75.6446 94.5497 66.9744 103.78C61.7548 109.349 54.9192 114.78 49.4521 121.303C45.8414 125.598 42.8276 130.359 41.2624 135.957C39.2969 142.996 34.2302 149.65 29.0325 155.212C23.8712 160.737 18.5642 165.185 16.0236 167.864C11.6048 172.53 31.18 173.527 49.8088 161.327H49.8161Z" fill="#4E5E8F"/>
<path d="M58.0579 154.905C68.8028 145.005 76.9269 127.184 82.2266 112.501C79.6204 112.362 75.2963 113.374 73.3671 120.916C70.5062 132.09 63.6924 141.518 57.0242 142.406C50.3559 143.294 50.1812 142.573 44.4885 148.346C40.3827 152.51 34.2969 156.15 29.0409 155.204C23.8796 160.729 18.5727 165.177 16.032 167.856C10.9435 173.221 37.6019 173.738 58.0579 154.898V154.905Z" fill="#E1E8FF"/>
<g style="mix-blend-mode:multiply" opacity="0.13">
<path d="M49.8164 161.327C48.1785 159.871 46.8463 157.803 46.0455 154.942C43.6359 146.294 46.3221 132.433 49.4524 121.303C45.8417 125.598 42.8279 130.359 41.2627 135.957C39.2972 142.996 34.2305 149.65 29.0328 155.212C23.8715 160.737 18.5645 165.185 16.0239 167.864C11.6051 172.53 31.1803 173.527 49.8091 161.327H49.8164Z" fill="#808080"/>
</g>
</svg>
