<svg width="138" height="39" viewBox="0 0 138 39" fill="none" xmlns="http://www.w3.org/2000/svg">
<g clip-path="url(#clip0_1132_2180)">
<path d="M5.69506 17.764C7.22986 17.764 8.71861 17.8862 10.18 17.7376C12.9207 17.4604 15.3445 17.8366 16.9681 20.6058C17.1698 20.9502 17.5097 21.5454 18.0359 20.9865C18.4174 20.5816 19.0226 20.2362 18.7211 19.4705C17.57 16.5428 16.4189 13.613 15.2382 10.7019C14.9411 9.97243 14.2515 10.2464 13.7166 10.2431C10.5516 10.2222 7.38553 10.2321 4.04297 10.2321C4.48148 8.80182 5.02085 8.06468 6.44163 8.09879C10.3882 8.19121 14.3261 8.1307 18.7584 8.1307C16.7587 9.62257 17.3847 11.0033 18.0414 12.4952C18.9875 14.6483 19.7417 16.896 20.6834 19.0557C21.134 20.0866 21.0814 20.739 20.2866 21.5784C17.6402 24.3685 17.4976 24.5699 15.1724 21.5234C13.369 19.1602 11.1721 19.9644 9.08915 19.949C7.55436 19.9391 6.47452 19.4639 5.66875 18.1194C5.64793 18.0842 5.67533 18.0116 5.69506 17.764Z" fill="white"/>
<path d="M0 38.3947C1.56111 36.8258 3.14633 35.2789 4.67235 33.6748C5.22049 33.1027 5.57569 33.1027 6.10629 33.6748C6.6051 34.2128 6.79695 34.6507 6.11835 35.1392C5.59104 35.5187 5.04838 35.8752 4.5123 36.2394C4.63946 36.444 4.76736 36.6479 4.89599 36.8511C9.2888 36.8511 13.6827 36.839 18.0766 36.8632C18.8681 36.8632 18.844 36.3978 18.9065 35.8048C19.2014 32.9355 18.7464 30.5238 16.3456 28.5347C14.0543 26.6412 12.1216 24.278 9.85009 21.9335C11.4211 21.5759 12.5349 21.5792 13.6202 22.8037C15.7031 25.1505 17.9374 27.3387 20.1058 29.5975C20.5597 30.0694 20.9828 30.5117 20.9631 31.3083C20.905 33.4548 20.9269 35.6046 20.9543 37.7532C20.9642 38.4893 20.7932 38.8974 19.9852 38.8952C13.3922 38.8776 6.79987 38.8744 0.208293 38.8854L0 38.3947Z" fill="white"/>
<path d="M6.05868 11.177C5.03366 12.7426 4.17856 14.2048 3.16998 15.5382C2.41793 16.5284 2.40258 17.1291 3.33552 18.083C7.52332 22.3518 11.5719 26.7746 15.7652 31.0345C16.9042 32.1941 17.2934 33.3604 16.9437 34.9215C16.3593 34.9281 16.1445 34.4243 15.8397 34.1041C10.7968 28.8231 5.79229 23.5026 0.71102 18.2612C-0.150657 17.3734 -0.174775 16.7881 0.534519 15.8595C1.3909 14.7668 2.16065 13.6084 2.83671 12.395C3.55478 11.0549 4.50744 10.6467 6.05868 11.177Z" fill="white"/>
<path d="M19.1088 0.389174C18.3589 2.1627 17.6496 3.77449 16.9973 5.40828C16.6345 6.32035 16.0863 6.6955 15.0613 6.6636C12.5607 6.58438 10.0568 6.6405 7.55396 6.6306C7.01898 6.6306 6.37436 6.78242 6.0685 6.18281C5.14982 4.38729 4.23442 2.58627 3.41879 0.742334C3.10196 0.0261043 3.63804 -0.185135 4.18618 0.163628C5.46664 0.975575 7.53094 1.1098 7.08914 3.49614C6.92141 4.4038 7.6592 4.4159 8.29505 4.3917C8.87388 4.36969 9.65444 4.56663 9.58976 3.58965C9.51521 2.44764 9.99757 2.05927 11.095 2.15939C12.0345 2.24301 13.1286 1.91185 13.0485 3.52474C12.9981 4.54243 13.8422 4.38949 14.5044 4.39499C15.1337 4.39499 15.4669 4.20467 15.5667 3.47083C15.8583 1.30564 16.5468 0.720334 19.1088 0.389174Z" fill="#E5A908"/>
<path d="M3.62306 22.4229C4.45952 23.3272 5.50756 23.9334 5.31681 25.5034C5.23021 26.2218 5.76409 26.5717 6.13244 26.9942C7.64422 28.7314 9.17024 30.4543 10.6864 32.1882C12.0403 33.7362 12.0381 33.7395 11.832 36.1764C10.6897 35.3876 9.92997 34.2203 9.03211 33.2411C7.9457 32.0573 6.99851 30.681 5.81781 29.6424C3.73597 27.8171 2.87101 25.5826 3.62306 22.4229Z" fill="white"/>
<path d="M15.7606 14.5776C15.0623 14.2475 14.6961 13.8195 14.4922 13.221C15.6838 13.1539 15.6838 13.1539 15.7606 14.5776Z" fill="#E5A908"/>
<path fill-rule="evenodd" clip-rule="evenodd" d="M75.8681 10.312C75.8681 10.312 75.8521 10.1109 75.2893 10.0456C75.2893 10.0456 75.0663 8.87734 73.4881 9.21437C73.1926 9.28633 72.9036 9.38259 72.6239 9.50213C72.616 9.50213 72.1448 9.49412 72.0041 9.52076C71.5063 9.61535 70.9501 9.87912 70.9183 10.2361C70.9037 10.4133 71.4386 10.0256 71.5328 10.5598C71.4744 10.7303 71.2501 11.1433 71.1917 11.3511C70.9169 12.3515 71.1174 13.1415 71.4041 13.8582C71.4718 14.03 71.5594 13.8102 71.5594 13.7796C71.57 12.6126 72.2231 11.2126 74.534 10.6797C75.1871 10.5278 75.8667 10.5278 75.8681 10.312Z" fill="white"/>
<path d="M69.4052 14.3735C72.6891 15.1981 75.8138 13.8407 78.9185 12.8309C80.5379 12.3061 82.1427 11.945 83.8431 12.1449C85.4745 12.338 87.0288 12.9135 88.6137 13.3438C90.0965 13.7441 91.6258 13.9444 93.1613 13.9393C94.4621 13.9393 95.7338 13.9872 97.0293 13.7794C98.6633 13.5129 100.244 12.9801 101.865 12.6511C103.527 12.3039 105.247 12.3495 106.889 12.7843C110.315 13.6901 113.588 15.715 117.221 14.7239C117.256 14.7145 117.241 14.6653 117.209 14.6693C113.783 15.1195 110.659 13.0907 107.49 12.0703C106.03 11.5987 104.548 11.3603 103.017 11.5374C101.507 11.7093 100.044 12.1635 98.5677 12.5379C95.6913 13.2679 92.5109 13.3504 89.6278 12.5845C88.0695 12.1702 86.5748 11.5348 85.0165 11.1191C83.5618 10.7152 82.0409 10.6096 80.5446 10.8088C77.0164 11.2817 73.5267 13.5609 69.907 12.6351C68.8344 12.35 68.3314 14.1031 69.4052 14.3735Z" fill="white"/>
<path d="M25.5136 12.6496C25.5136 12.9027 25.5136 13.2851 25.5321 13.7953C25.5507 14.3055 25.552 14.6878 25.552 14.9409C25.552 14.9848 25.5414 15.0115 25.5228 15.0221C25.4953 15.0287 25.4674 15.0332 25.4392 15.0355C25.2532 15.0548 25.0661 15.0633 24.8791 15.0608C24.6792 15.067 24.4791 15.0585 24.2804 15.0355C24.218 15.0222 24.1875 14.9889 24.1875 14.9356C24.1875 14.9689 24.1968 14.7797 24.2167 14.3668C24.2556 13.4955 24.2747 12.9232 24.2738 12.6496C24.2738 12.4192 24.2671 12.0728 24.2512 11.6119C24.2353 11.151 24.23 10.8127 24.23 10.5755C24.23 10.5289 24.2539 10.5049 24.303 10.5049C24.3521 10.5049 24.4702 10.5049 24.6043 10.5142C24.7384 10.5236 24.8379 10.5249 24.9056 10.5249C24.9733 10.5249 25.0702 10.5249 25.199 10.5142C25.3277 10.5036 25.4273 10.5049 25.4936 10.5049C25.56 10.5049 25.5866 10.5289 25.5866 10.5755C25.5866 10.806 25.5746 11.1523 25.5494 11.6119C25.5242 12.0715 25.5136 12.4192 25.5136 12.6496Z" fill="#E5A908"/>
<path d="M27.7479 12.6496C27.7479 12.9027 27.7479 13.2851 27.7665 13.7953C27.7851 14.3055 27.7864 14.6878 27.7864 14.9409C27.7864 14.9848 27.7758 15.0115 27.7572 15.0221C27.7297 15.0287 27.7018 15.0332 27.6736 15.0355C27.4875 15.0548 27.3005 15.0633 27.1134 15.0608C26.9135 15.067 26.7135 15.0585 26.5148 15.0355C26.4524 15.0222 26.4219 14.9889 26.4219 14.9356C26.4219 14.9689 26.4312 14.7797 26.4511 14.3668C26.4891 13.4955 26.5082 12.9232 26.5082 12.6496C26.5082 12.4196 26.5011 12.0737 26.4869 11.6119C26.471 11.1523 26.4644 10.8127 26.4644 10.5755C26.4644 10.5289 26.4882 10.5049 26.5374 10.5049C26.5865 10.5049 26.7046 10.5049 26.8387 10.5142C26.9727 10.5236 27.0723 10.5249 27.14 10.5249C27.2077 10.5249 27.3046 10.5249 27.4333 10.5142C27.5621 10.5036 27.6616 10.5049 27.728 10.5049C27.7944 10.5049 27.8209 10.5289 27.8209 10.5755C27.8209 10.806 27.809 11.1523 27.7851 11.6119C27.7612 12.0715 27.7479 12.4192 27.7479 12.6496Z" fill="#E5A908"/>
<path d="M31.8043 11.4935C31.8043 11.5362 31.7817 11.5575 31.7339 11.5575C31.6529 11.5575 31.3357 11.5415 30.7663 11.5095C30.753 12.0548 30.7463 12.4349 30.7463 12.6498C30.7463 12.9029 30.7565 13.2848 30.7769 13.7954C30.7972 14.3061 30.8074 14.6879 30.8074 14.941C30.8074 14.9823 30.7981 15.009 30.7782 15.0197C30.7488 15.0283 30.7185 15.0337 30.6879 15.0357C30.5001 15.0557 30.3113 15.0641 30.1225 15.061C29.9279 15.0653 29.7332 15.0569 29.5398 15.0357C29.5273 15.0351 29.515 15.0321 29.5037 15.0268C29.4923 15.0215 29.4822 15.014 29.4738 15.0047C29.4654 14.9954 29.4589 14.9845 29.4547 14.9727C29.4506 14.9608 29.4488 14.9483 29.4495 14.9357C29.4495 14.6809 29.4601 14.2999 29.4813 13.7928C29.5026 13.2857 29.5136 12.9047 29.5145 12.6498C29.5145 12.482 29.5052 12.1063 29.488 11.5255C29.0592 11.5681 28.7168 11.5908 28.4619 11.5908C28.4274 11.5908 28.4102 11.5788 28.4102 11.5575C28.4201 11.474 28.4352 11.3913 28.4553 11.3097C28.4898 11.1592 28.5097 11.0673 28.5137 11.0353C28.5203 10.9341 28.527 10.8328 28.5363 10.7316C28.5509 10.5704 28.5761 10.4891 28.6132 10.4891H28.6584C29.1703 10.5424 29.6849 10.5651 30.1995 10.557C30.3919 10.557 30.749 10.5371 31.268 10.4958L31.6888 10.4638C31.7138 10.4613 31.7392 10.464 31.7631 10.4718C31.7697 10.4718 31.7737 10.4984 31.7764 10.5344C31.7764 10.593 31.7764 10.6676 31.7698 10.7769C31.7631 10.8861 31.7631 10.9713 31.7631 11.0193C31.7651 11.0987 31.7722 11.1779 31.7844 11.2564C31.7956 11.335 31.8023 11.4142 31.8043 11.4935Z" fill="#E5A908"/>
<path d="M38.1747 15.0038C38.1747 15.0184 38.1535 15.0291 38.1097 15.0358C37.9053 15.0527 37.7001 15.0589 37.4951 15.0544C37.215 15.0544 37.0239 15.0477 36.923 15.0358C36.8955 15.0335 36.8683 15.0281 36.842 15.0198C36.8216 15.0026 36.8064 14.9799 36.7982 14.9545C36.765 14.8706 36.7186 14.7453 36.6562 14.5802C36.573 14.3643 36.4403 14.0469 36.258 13.6277C36.2305 13.5829 36.1911 13.5466 36.1442 13.5231C36.0973 13.4996 36.0447 13.4897 35.9925 13.4945C36.0562 13.4945 35.946 13.5012 35.6607 13.5012C35.6288 13.5012 35.6129 13.5558 35.6129 13.665C35.6129 13.8115 35.6261 14.03 35.6527 14.3204C35.6792 14.6108 35.6938 14.8293 35.6938 14.9758C35.6938 15.0131 35.6832 15.0344 35.6646 15.0411H35.5744C35.4483 15.0491 35.2505 15.0531 34.9824 15.0531C34.7977 15.0582 34.6128 15.052 34.4289 15.0344C34.3665 15.0211 34.3359 14.9878 34.3359 14.9345C34.3359 14.6974 34.347 14.3399 34.3691 13.8622C34.3912 13.3844 34.4027 13.026 34.4036 12.7871C34.4036 11.8759 34.3833 11.1655 34.3426 10.6557V10.6105C34.3426 10.5745 34.3744 10.5492 34.4448 10.5358C34.5151 10.5225 34.843 10.5105 35.427 10.4972C35.8244 10.4892 36.1407 10.4852 36.3761 10.4852C36.7991 10.4672 37.2171 10.5833 37.5708 10.8169C37.7419 10.9383 37.8796 11.1011 37.9713 11.2902C38.063 11.4793 38.1055 11.6886 38.0951 11.8986C38.1067 12.1562 38.0614 12.4133 37.9623 12.6512C37.843 12.8715 37.6716 13.0591 37.4632 13.1974C37.4141 13.2321 37.3889 13.264 37.3889 13.2933C37.3889 13.2933 37.5216 13.5598 37.7871 14.1046C38.0526 14.6494 38.1747 14.9478 38.1747 15.0038ZM36.8234 12.1064C36.8234 11.84 36.7376 11.6584 36.5659 11.5616C36.3708 11.4714 36.1564 11.4316 35.9421 11.4457C35.7376 11.4457 35.6301 11.4763 35.6169 11.5389C35.598 11.7493 35.5913 11.9606 35.5969 12.1717C35.5969 12.2205 35.5969 12.2938 35.5969 12.3915C35.5969 12.4874 35.5969 12.5607 35.5969 12.6073C35.5969 12.618 35.6315 12.6286 35.7005 12.6393C35.8367 12.6594 35.9743 12.6692 36.112 12.6686C36.5951 12.6686 36.8234 12.4821 36.8234 12.1064Z" fill="#E5A908"/>
<path d="M43.2772 12.7749C43.2945 13.4006 43.0645 14.0078 42.6374 14.464C42.421 14.6833 42.1634 14.8572 41.8794 14.9756C41.5955 15.0941 41.2909 15.1548 40.9834 15.1542C40.6759 15.1536 40.3716 15.0917 40.0882 14.972C39.8047 14.8524 39.5478 14.6775 39.3322 14.4574C38.9195 13.9935 38.6914 13.3934 38.6914 12.7716C38.6914 12.1497 38.9195 11.5496 39.3322 11.0858C39.5463 10.864 39.8026 10.6877 40.086 10.5672C40.3693 10.4468 40.6738 10.3848 40.9815 10.3848C41.2892 10.3848 41.5937 10.4468 41.877 10.5672C42.1604 10.6877 42.4167 10.864 42.6308 11.0858C43.0598 11.5412 43.2921 12.1483 43.2772 12.7749ZM42.0573 12.7749C42.0651 12.4736 41.961 12.1802 41.7653 11.9516C41.6689 11.8394 41.5493 11.7495 41.4148 11.6883C41.2803 11.6272 41.1341 11.5961 40.9864 11.5974C40.8387 11.5987 40.6931 11.6322 40.5596 11.6957C40.4262 11.7592 40.3081 11.8511 40.2136 11.965C40.0198 12.1929 39.9117 12.4819 39.9083 12.7815C39.9049 13.0812 40.0064 13.3725 40.195 13.6048C40.2926 13.7176 40.414 13.8071 40.5504 13.8668C40.6868 13.9265 40.8348 13.9548 40.9835 13.9498C41.1309 13.9508 41.2767 13.9187 41.4102 13.8558C41.5436 13.7928 41.6614 13.7007 41.7547 13.5861C41.9544 13.3613 42.0624 13.0694 42.0573 12.7682V12.7749Z" fill="#E5A908"/>
<path d="M48.4934 12.7748C48.5107 13.4005 48.2807 14.0077 47.8537 14.4639C47.6374 14.6831 47.3798 14.857 47.096 14.9754C46.8122 15.0939 46.5077 15.1546 46.2003 15.154C45.893 15.1533 45.5888 15.0914 45.3054 14.9718C45.0221 14.8522 44.7652 14.6773 44.5498 14.4572C44.1355 13.9942 43.9062 13.3938 43.9062 12.7714C43.9063 12.1491 44.1355 11.5487 44.5498 11.0856C44.7638 10.8639 45.02 10.6876 45.3032 10.5672C45.5864 10.4468 45.8908 10.3848 46.1984 10.3848C46.506 10.3848 46.8104 10.4468 47.0936 10.5672C47.3768 10.6876 47.633 10.8639 47.847 11.0856C48.276 11.5411 48.5083 12.1482 48.4934 12.7748ZM47.2749 12.7748C47.2822 12.4734 47.1777 12.1799 46.9816 11.9515C46.8853 11.8393 46.7658 11.7494 46.6314 11.6883C46.497 11.6271 46.3509 11.5961 46.2033 11.5973C46.0557 11.5986 45.9102 11.6321 45.7768 11.6956C45.6435 11.7591 45.5255 11.851 45.4312 11.9648C45.2376 12.1928 45.1297 12.4816 45.126 12.7812C45.1224 13.0807 45.2233 13.372 45.4113 13.6047C45.5101 13.7149 45.6313 13.8026 45.7666 13.8621C45.9019 13.9216 46.0483 13.9514 46.196 13.9497C46.3437 13.9479 46.4893 13.9146 46.6232 13.8519C46.7571 13.7892 46.8761 13.6985 46.9723 13.586C47.1719 13.3612 47.28 13.0692 47.2749 12.7681V12.7748Z" fill="#E5A908"/>
<path d="M53.081 15.0038C53.081 15.0189 53.0597 15.0296 53.0173 15.0358C52.8129 15.0527 52.6077 15.0589 52.4027 15.0544C52.1213 15.0544 51.9301 15.0478 51.8292 15.0358C51.8022 15.0336 51.7754 15.0283 51.7496 15.0198C51.7286 15.0028 51.713 14.9802 51.7045 14.9545C51.6713 14.8706 51.6248 14.7454 51.5624 14.5802C51.4793 14.3644 51.3465 14.0469 51.1642 13.6277C51.1367 13.5829 51.0973 13.5467 51.0504 13.5232C51.0035 13.4996 50.951 13.4897 50.8988 13.4945C50.9638 13.4945 50.8523 13.5012 50.5682 13.5012C50.5351 13.5012 50.5191 13.5558 50.5191 13.6651C50.5191 13.8116 50.5324 14.03 50.5589 14.3204C50.5868 14.6108 50.6001 14.8293 50.6001 14.9758C50.6001 15.0131 50.5895 15.0344 50.5709 15.0411H50.4806C50.3545 15.0491 50.1568 15.0531 49.8886 15.0531C49.7039 15.0582 49.5191 15.052 49.3351 15.0345C49.2727 15.0212 49.2422 14.9879 49.2422 14.9346C49.2422 14.6974 49.2532 14.34 49.2754 13.8622C49.2975 13.3844 49.309 13.0261 49.3099 12.7872C49.3099 11.876 49.2895 11.1655 49.2488 10.6558V10.6105C49.2488 10.5745 49.2807 10.5492 49.351 10.5359C49.4214 10.5226 49.7492 10.5106 50.3333 10.4973C50.7306 10.4893 51.047 10.4853 51.2824 10.4853C51.7054 10.467 52.1235 10.5831 52.477 10.817C52.6481 10.9383 52.7859 11.1012 52.8776 11.2903C52.9692 11.4794 53.0118 11.6886 53.0013 11.8987C53.013 12.1563 52.9676 12.4133 52.8686 12.6513C52.7492 12.8716 52.5779 13.0591 52.3695 13.1975C52.3204 13.2321 52.2965 13.2641 52.2965 13.2934C52.2965 13.2934 52.4292 13.5598 52.6947 14.1047C52.9602 14.6495 53.081 14.9479 53.081 15.0038ZM51.7284 12.1065C51.7284 11.8401 51.6425 11.6584 51.4709 11.5616C51.2758 11.4715 51.0613 11.4316 50.847 11.4457C50.6426 11.4457 50.5351 11.4764 50.5218 11.539C50.5036 11.7494 50.4974 11.9606 50.5032 12.1717C50.5032 12.221 50.5032 12.2943 50.5032 12.3915C50.5032 12.4888 50.5032 12.5607 50.5032 12.6074C50.5032 12.618 50.5377 12.6287 50.6067 12.6393C50.743 12.6594 50.8805 12.6692 51.0182 12.6686C51.4947 12.6686 51.7284 12.4821 51.7284 12.1065Z" fill="#E5A908"/>
<path d="M57.6718 14.7137C57.6758 14.753 57.666 14.7926 57.6442 14.8256C57.6225 14.8586 57.59 14.8831 57.5524 14.8948C57.3851 14.9245 57.215 14.9352 57.0453 14.9268C56.8514 14.9312 56.6575 14.9205 56.4652 14.8948C56.4256 14.8897 56.387 14.878 56.3511 14.8602C56.322 14.8346 56.2985 14.8033 56.2821 14.7683C56.1254 14.4805 55.9701 14.1915 55.8162 13.9037C55.6826 13.6365 55.5295 13.3796 55.3582 13.1351C55.1273 13.2195 55.0118 13.2794 55.0118 13.3149C55.0118 13.4775 55.0184 13.7212 55.0304 14.0463C55.0423 14.3713 55.0503 14.6177 55.0503 14.7816C55.0521 14.7948 55.0513 14.8083 55.0479 14.8212C55.0445 14.8342 55.0385 14.8462 55.0303 14.8568C55.0221 14.8673 55.0119 14.8762 55.0003 14.8827C54.9887 14.8892 54.9759 14.8934 54.9627 14.8948C54.7621 14.9163 54.5604 14.9247 54.3587 14.9201C54.1738 14.9255 53.9888 14.9171 53.8052 14.8948C53.7428 14.8815 53.7109 14.8482 53.7109 14.7949C53.7109 14.5618 53.7229 14.2114 53.7455 13.7412C53.768 13.271 53.7786 12.9206 53.7786 12.6862C53.7786 12.4517 53.768 12.0614 53.7468 11.5605C53.7255 11.0597 53.7149 10.6853 53.7149 10.4349C53.7134 10.4255 53.7141 10.4159 53.7169 10.4068C53.7197 10.3978 53.7246 10.3895 53.7312 10.3826C53.7378 10.3758 53.7458 10.3705 53.7548 10.3674C53.7637 10.3642 53.7732 10.3631 53.7826 10.3643C53.849 10.3643 53.9485 10.3643 54.0826 10.3736C54.2167 10.3829 54.3176 10.3843 54.3839 10.3843C54.4503 10.3843 54.5538 10.3843 54.6892 10.3736C54.8246 10.3629 54.9255 10.3643 54.9919 10.3643C55.029 10.3643 55.0463 10.3843 55.0463 10.4229C55.0463 10.5814 55.0383 10.8225 55.0224 11.1436C55.0065 11.4646 54.9985 11.7071 54.9985 11.8656C54.9985 12.0508 55.0489 12.144 55.1498 12.144C55.2579 12.1506 55.3663 12.1354 55.4684 12.0992C55.5705 12.0631 55.6644 12.0068 55.7445 11.9335C55.8862 11.7678 55.9944 11.5759 56.0631 11.3687C56.1321 11.16 56.2449 10.8523 56.4015 10.4455C56.414 10.4184 56.4347 10.3958 56.4607 10.3812C56.4867 10.3666 56.5166 10.3607 56.5462 10.3643C56.602 10.3643 56.6856 10.3643 56.7984 10.3736C56.9112 10.3829 56.9949 10.3843 57.0506 10.3843C57.1064 10.3843 57.1953 10.3843 57.3095 10.3776C57.4236 10.3709 57.5099 10.3776 57.5656 10.3776C57.5759 10.3758 57.5865 10.3765 57.5964 10.3796C57.6064 10.3827 57.6155 10.3881 57.623 10.3953C57.6305 10.4026 57.6361 10.4115 57.6396 10.4214C57.643 10.4313 57.644 10.4418 57.6426 10.4522C57.6171 10.6297 57.5726 10.8038 57.5099 10.9717C57.2444 11.7852 56.9387 12.2932 56.5927 12.4957C56.521 12.537 56.4865 12.5703 56.4865 12.5956C56.4865 12.5956 56.6843 12.9184 57.0798 13.5641C57.4745 14.2088 57.6718 14.592 57.6718 14.7137Z" fill="#E5A908"/>
<path d="M61.6073 14.0312C61.5999 14.2023 61.5817 14.3726 61.5529 14.5414C61.5386 14.7053 61.5043 14.8668 61.4507 15.0223C61.4401 15.0412 61.4247 15.0568 61.406 15.0676C61.3873 15.0784 61.366 15.0839 61.3445 15.0836C61.312 15.0826 61.2796 15.0795 61.2476 15.0742C61.0909 15.0529 60.6339 15.0423 59.8764 15.0423H59.1397H58.407C58.3353 15.0423 58.3008 15.0103 58.3008 14.9477C58.3008 14.7066 58.3141 14.3456 58.3406 13.862C58.3671 13.3785 58.3804 13.0161 58.3804 12.775C58.3804 12.5339 58.3685 12.073 58.3419 11.4029C58.3357 11.2315 58.3242 10.9744 58.3074 10.6316V10.5863C58.3074 10.537 58.33 10.5117 58.3884 10.5117C58.5463 10.5117 58.7866 10.5117 59.1038 10.5251C59.4211 10.5384 59.6613 10.5384 59.8193 10.5384C59.9773 10.5384 60.2175 10.5384 60.5281 10.5251C60.8387 10.5117 61.079 10.5117 61.2356 10.5117C61.3471 10.5117 61.4108 10.5543 61.4281 10.6449C61.4387 10.6942 61.456 10.8448 61.4785 11.0952C61.5011 11.3456 61.5117 11.4948 61.5117 11.5521C61.5117 11.6094 61.4905 11.6201 61.448 11.6201H61.3803C60.8095 11.573 60.2967 11.5494 59.8419 11.5494C59.729 11.5494 59.6587 11.5761 59.6335 11.6294C59.6182 11.7115 59.6128 11.7951 59.6175 11.8785C59.6059 11.9797 59.6283 12.0819 59.6813 12.1689C59.7102 12.1929 59.7438 12.2107 59.7798 12.2212C59.8159 12.2318 59.8537 12.2348 59.891 12.2302H60.0158C60.0781 12.2302 60.1299 12.2302 60.1697 12.2302C60.4405 12.2302 60.7144 12.2226 60.9914 12.2075L61.1679 12.1915C61.2256 12.1835 61.2836 12.1791 61.3418 12.1782C61.3521 12.1764 61.3626 12.1771 61.3726 12.1802C61.3825 12.1833 61.3916 12.1887 61.3991 12.196C61.4066 12.2032 61.4123 12.2121 61.4157 12.222C61.4191 12.2319 61.4202 12.2424 61.4188 12.2528C61.3902 12.4163 61.3707 12.5813 61.3604 12.747C61.3433 12.9188 61.3349 13.0913 61.3352 13.2639C61.3352 13.3065 61.3033 13.3278 61.2423 13.3278L60.9516 13.2959C60.8294 13.2826 60.5507 13.2759 60.1153 13.2759H59.7702C59.6826 13.2759 59.6308 13.2985 59.6162 13.3412C59.6162 13.3518 59.6162 13.4184 59.6162 13.541C59.6092 13.6477 59.62 13.7548 59.6481 13.858C59.6839 13.9393 59.822 13.9912 60.0596 14.0032H60.5294C60.6436 14.0032 60.8122 13.9926 61.0365 13.9726C61.2608 13.9526 61.4281 13.9419 61.5396 13.9419C61.5847 13.9153 61.6073 13.9539 61.6073 14.0312Z" fill="#E5A908"/>
<path d="M65.5995 14.0312C65.5914 14.2022 65.5732 14.3725 65.545 14.5414C65.5314 14.7055 65.4966 14.8672 65.4415 15.0223C65.4311 15.0413 65.4157 15.057 65.3969 15.0678C65.3782 15.0786 65.3569 15.0841 65.3353 15.0836C65.3033 15.0826 65.2714 15.0794 65.2397 15.0742C65.0831 15.0529 64.6261 15.0423 63.8686 15.0423H63.1319H62.3992C62.3275 15.0423 62.293 15.0103 62.293 14.9477C62.293 14.7066 62.3062 14.3456 62.3328 13.862C62.3593 13.3785 62.3726 13.0161 62.3726 12.775C62.3726 12.5339 62.3593 12.073 62.3341 11.4029C62.3279 11.2315 62.316 10.9744 62.2983 10.6316V10.5863C62.2983 10.537 62.3208 10.5117 62.3793 10.5117C62.5372 10.5117 62.7775 10.5117 63.0947 10.5251C63.412 10.5384 63.6522 10.5384 63.8102 10.5384C63.9681 10.5384 64.2084 10.5384 64.5177 10.5251C64.8269 10.5117 65.0698 10.5117 65.2265 10.5117C65.338 10.5117 65.4017 10.5543 65.4189 10.6449C65.4296 10.6942 65.4468 10.8448 65.4694 11.0952C65.4919 11.3456 65.5026 11.4948 65.5026 11.5521C65.5026 11.6094 65.4813 11.6201 65.4389 11.6201H65.3712C64.8004 11.573 64.2876 11.5494 63.8327 11.5494C63.7186 11.5494 63.6496 11.5761 63.6243 11.6294C63.6075 11.7113 63.6017 11.795 63.6071 11.8785C63.5957 11.9799 63.6186 12.0821 63.6721 12.1689C63.7008 12.1929 63.7342 12.2107 63.77 12.2212C63.8058 12.2317 63.8435 12.2348 63.8805 12.2302H64.0133C64.0756 12.2302 64.1274 12.2302 64.1672 12.2302C64.438 12.2302 64.7114 12.2226 64.9875 12.2075L65.1654 12.1915C65.2231 12.1835 65.2811 12.1791 65.3393 12.1782C65.3495 12.1767 65.36 12.1776 65.3698 12.1808C65.3796 12.184 65.3886 12.1894 65.396 12.1966C65.4034 12.2038 65.4091 12.2126 65.4126 12.2223C65.4162 12.2321 65.4174 12.2425 65.4163 12.2528C65.3877 12.4163 65.3682 12.5813 65.3579 12.747C65.3408 12.9188 65.3324 13.0913 65.3327 13.2639C65.3327 13.3065 65.3008 13.3278 65.2384 13.3278L64.9491 13.2959C64.8269 13.2826 64.5482 13.2759 64.1128 13.2759H63.7717C63.6841 13.2759 63.6389 13.2985 63.6177 13.3412C63.6177 13.3518 63.6177 13.4184 63.6177 13.541C63.6102 13.6478 63.6215 13.7551 63.6509 13.858C63.6867 13.9393 63.8248 13.9912 64.0624 14.0032H64.5323C64.6451 14.0032 64.815 13.9926 65.0393 13.9726C65.2636 13.9526 65.4309 13.9419 65.5424 13.9419C65.5756 13.9153 65.5995 13.9539 65.5995 14.0312Z" fill="#E5A908"/>
<path d="M36.3402 31.3939C36.3535 31.5738 36.2606 31.6604 36.0615 31.6604C35.6928 31.6147 35.3281 31.5412 34.9704 31.4406C34.3695 31.2923 33.9992 31.1919 33.8594 31.1395C32.5908 31.6626 31.2353 31.941 29.864 31.9601C27.8101 31.9601 26.1261 31.2736 24.8119 29.9006C23.5093 28.5472 22.8585 26.8372 22.8594 24.7706C22.8594 22.6579 23.4903 20.9048 24.7522 19.5114C26.0548 18.0718 27.7455 17.3516 29.8241 17.3507C30.8039 17.3445 31.7743 17.5423 32.674 17.9315C33.5803 18.3126 34.3657 18.9349 34.9452 19.7312C35.0293 19.8284 35.0877 19.9452 35.1151 20.0709C35.1151 20.284 34.8177 20.7623 34.2231 21.5056C33.6284 22.2489 33.2448 22.6206 33.0722 22.6206C33.0324 22.6206 32.8793 22.4838 32.6129 22.2103C32.3206 21.9089 31.9851 21.6529 31.6174 21.451C31.1026 21.1754 30.527 21.0343 29.9436 21.0407C28.9472 21.0407 28.1565 21.4142 27.5716 22.161C27.0273 22.8466 26.7552 23.7032 26.7552 24.7307C26.7552 25.8177 27.0375 26.6774 27.6021 27.3097C28.1861 27.9633 29.0131 28.2901 30.083 28.2901C30.7599 28.2901 31.517 28.12 32.3541 27.7799C32.3338 27.5597 32.274 26.9997 32.1749 26.1001C32.0975 25.5433 32.0532 24.9824 32.0422 24.4203C32.0422 24.2871 32.0847 24.2178 32.1749 24.1898C32.2264 24.1739 32.2803 24.1672 32.3342 24.1698C32.5271 24.1698 32.8178 24.1885 33.2063 24.2258C33.5948 24.2631 33.8886 24.2813 34.0877 24.2804C34.3 24.2804 34.6186 24.2658 35.0447 24.2351C35.4708 24.2045 35.788 24.1898 36.0017 24.1898C36.1677 24.1898 36.25 24.3004 36.25 24.5202C36.25 24.8399 36.2318 25.3235 36.1955 25.9709C36.1584 26.617 36.1411 27.1005 36.1411 27.4202C36.1411 28.2808 36.2039 29.5685 36.3296 31.2834L36.3402 31.3939Z" fill="#E5A908"/>
<path d="M51.7148 31.4637C51.7148 31.585 51.6312 31.6676 51.4652 31.7142C51.2661 31.7675 50.6467 31.7941 49.6069 31.7941C48.6565 31.7941 48.0455 31.7675 47.7738 31.7142C47.6643 31.6937 47.564 31.6393 47.487 31.5585C47.4101 31.4777 47.3604 31.3746 47.345 31.2639C47.1194 30.3048 46.9424 29.7915 46.8141 29.724C46.7079 29.6769 45.8177 29.6538 44.1434 29.6547C43.0151 29.6547 42.4143 29.6845 42.3408 29.744C42.228 29.8519 42.1019 30.2076 41.9625 30.8097C41.836 31.3665 41.6842 31.6662 41.5072 31.7089C41.2816 31.7621 40.5245 31.7888 39.2361 31.7888C38.2193 31.7888 37.7109 31.6924 37.7109 31.4997C37.7109 31.3221 38.4631 29.1907 39.9675 25.1055C41.5948 20.6855 42.4798 18.2558 42.6222 17.8162C42.7019 17.5631 42.7948 17.4365 42.901 17.4365C43.078 17.4365 43.355 17.4529 43.7319 17.4858C44.1089 17.5187 44.3899 17.5355 44.5748 17.5364C44.7518 17.5364 45.0173 17.5249 45.3712 17.5018C45.7252 17.4787 45.9863 17.4667 46.1544 17.4658C46.2805 17.4658 46.396 17.5764 46.5022 17.7962C46.8287 18.496 47.7787 20.8938 49.352 24.9896C50.9272 29.1263 51.7148 31.2843 51.7148 31.4637ZM44.6505 22.3547C44.5115 22.6487 44.2757 23.2854 43.943 24.265C43.5846 25.3058 43.4054 25.9159 43.4054 26.0953C43.4054 26.2152 43.6045 26.2818 44.0027 26.2951C44.208 26.3084 44.5469 26.3151 45.0195 26.3151C45.4575 26.3151 45.6995 26.2618 45.7456 26.1552C45.7599 26.1123 45.7666 26.0673 45.7655 26.022C45.7655 25.8009 45.6128 25.1939 45.3075 24.201C45.0093 23.2374 44.7903 22.622 44.6505 22.3547Z" fill="#E5A908"/>
<path d="M68.4227 31.4034C68.4227 31.6112 68.3271 31.7138 68.1346 31.7138H64.6038C64.41 31.7138 64.3144 31.5979 64.3144 31.3634C64.3144 30.6912 64.3392 29.6814 64.3888 28.3342C64.4383 26.987 64.4631 25.9772 64.4631 25.305C64.4631 25.1118 64.4339 25.0079 64.3742 24.9946C64.3016 25.0346 63.8565 26.0643 63.0388 28.0838C62.561 29.2702 62.0827 30.4536 61.6039 31.6339C61.585 31.6941 61.5529 31.7493 61.51 31.7954C61.467 31.8415 61.4143 31.8773 61.3557 31.9003C61.3212 31.9069 61.1885 31.9096 60.9575 31.9096C60.6124 31.9096 60.4066 31.843 60.3403 31.7098C59.9863 30.9771 59.5146 29.9114 58.9253 28.5127C58.3058 27.0323 57.8377 25.9626 57.5209 25.3036C57.4997 25.2603 57.4688 25.2225 57.4307 25.1931C57.3768 25.2798 57.3521 25.3816 57.3603 25.4835C57.3603 26.1362 57.3771 27.1162 57.4107 28.4235C57.4444 29.7307 57.4612 30.7103 57.4612 31.3621C57.4612 31.5966 57.3669 31.7125 57.1811 31.7125H53.852C53.7193 31.7125 53.6383 31.6912 53.6078 31.6472C53.5726 31.5777 53.5574 31.4997 53.564 31.4221C53.564 30.6956 53.5985 29.6042 53.6675 28.1477C53.7366 26.6913 53.7715 25.5998 53.7724 24.8733C53.7724 24.0989 53.7392 22.6492 53.6728 20.524C53.6667 19.9698 53.637 19.1466 53.5839 18.0542L53.5733 17.8837C53.5671 17.7505 53.7065 17.6839 53.9914 17.6839C54.3578 17.6839 54.9047 17.6719 55.636 17.6493C56.3674 17.6266 56.9143 17.6133 57.2793 17.6133C57.3523 17.6133 57.4559 17.7532 57.5886 18.0343L60.4982 24.4431C60.7035 24.8765 60.8761 25.0932 61.0159 25.0932C61.0894 25.0932 61.2455 24.8432 61.4845 24.3432C62.1552 22.9436 63.1481 20.8339 64.4631 18.0143C64.5759 17.7478 64.6994 17.624 64.8321 17.624C65.025 17.624 65.3157 17.6337 65.7042 17.6533C66.0927 17.6728 66.3865 17.683 66.5856 17.6839C66.7519 17.6839 67.0064 17.667 67.3488 17.6333C67.69 17.6 67.9448 17.584 68.1107 17.584C68.3098 17.584 68.4094 17.6639 68.4094 17.8238C68.4094 18.6097 68.3811 19.7846 68.3245 21.3486C68.2678 22.9125 68.2395 24.0874 68.2395 24.8733C68.2395 25.5998 68.2696 26.6895 68.3298 28.1424C68.3899 29.5953 68.4209 30.6823 68.4227 31.4034Z" fill="#E5A908"/>
<path d="M82.8894 27.394C82.8894 28.6213 82.5075 29.6382 81.7438 30.4445C80.8731 31.3699 79.3453 31.833 77.1604 31.8339C76.9945 31.8339 76.7555 31.834 76.4436 31.8246H75.7361C73.284 31.8246 71.8239 31.7744 71.3558 31.6741C71.162 31.6341 71.0664 31.5315 71.0664 31.3637C71.0664 30.6532 71.108 29.5733 71.1912 28.124C71.2744 26.6746 71.3155 25.5916 71.3146 24.8749C71.3146 24.1005 71.2748 22.6472 71.1952 20.5149C71.1748 19.9687 71.1385 19.149 71.0863 18.0558L71.0757 17.9159C71.0757 17.7894 71.1739 17.7121 71.3903 17.6855C71.6066 17.6588 72.3752 17.6455 73.6959 17.6455C75.8197 17.6455 77.0586 17.6522 77.4126 17.6655C79.047 17.7259 80.2527 17.9923 81.0297 18.4648C82.0598 19.0989 82.5748 20.169 82.5748 21.6752C82.5612 22.1154 82.4375 22.5451 82.2151 22.9247C82.0251 23.2626 81.798 23.5781 81.5381 23.8652C81.293 24.1387 81.17 24.2653 81.1691 24.2448C81.1691 24.2919 81.2554 24.3652 81.4279 24.4647C81.9188 24.7598 82.3029 25.2046 82.5243 25.7341C82.7655 26.254 82.8901 26.8206 82.8894 27.394ZM78.6059 21.7644C78.6059 21.1916 78.3201 20.812 77.7484 20.6255C77.4299 20.526 76.9051 20.4758 76.1742 20.4749C75.4574 20.4749 75.0977 20.5282 75.0977 20.6348C75.0977 20.768 75.087 20.9532 75.0631 21.2103C75.0392 21.4674 75.0286 21.6579 75.0286 21.7844C75.0286 22.4523 75.0848 22.8257 75.1972 22.9047C75.2707 22.9651 75.6928 22.9953 76.4635 22.9953C77.8918 22.9953 78.6059 22.585 78.6059 21.7644ZM78.9046 27.3594C78.9046 26.7599 78.6555 26.3536 78.1573 26.1404C77.8387 26.0072 77.3206 25.9406 76.6029 25.9406C75.7454 25.9406 75.2755 25.9713 75.2078 26.0352C75.1401 26.0991 75.0977 26.5068 75.0977 27.2594C75.0977 28.0467 75.1415 28.481 75.2304 28.5649C75.3193 28.6488 75.7945 28.6901 76.6653 28.6901C77.3821 28.6901 77.8869 28.6333 78.1798 28.5196C78.6621 28.3234 78.9037 27.9348 78.9046 27.354V27.3594Z" fill="#E5A908"/>
<path d="M88.4251 24.4969C88.4251 25.1156 88.4337 26.0385 88.4509 27.2657C88.468 28.4929 88.477 29.4118 88.4778 30.0226C88.4778 30.2024 88.404 30.3076 88.2576 30.3416C87.8109 30.4098 87.3617 30.4353 86.9127 30.4179C86.4606 30.4354 86.0082 30.4099 85.5585 30.3416C85.4284 30.3076 85.3499 30.2533 85.3242 30.1719C85.3067 30.0458 85.3007 29.9169 85.3066 29.7885C85.3066 29.2037 85.3152 28.3232 85.3324 27.1469C85.3495 25.9707 85.3585 25.0856 85.3593 24.4918C85.3593 22.0805 85.2949 20.1616 85.166 18.7354C85.1543 18.5997 85.1484 18.5098 85.1484 18.4674C85.1484 18.2977 85.2269 18.2129 85.3827 18.2129C85.5385 18.2129 85.7974 18.2383 86.1348 18.2892C86.4722 18.3401 86.7206 18.3656 86.8963 18.3656C87.072 18.3656 87.3204 18.3452 87.6613 18.3028C88.0022 18.2604 88.2552 18.2383 88.4262 18.2383C88.5668 18.2383 88.6371 18.3232 88.6371 18.4928C88.6371 18.5267 88.6371 18.6082 88.6195 18.7354C88.4812 20.6492 88.4163 22.5727 88.4251 24.4969Z" fill="#E5A908"/>
<path d="M101.143 20.7455C101.143 20.8787 101.07 20.9453 100.924 20.9453C100.672 20.9453 99.6724 20.8951 97.9256 20.7948C97.8858 22.4821 97.8658 23.6588 97.8658 24.3249C97.8658 25.1117 97.8973 26.2951 97.9601 27.875C98.0229 29.4549 98.0543 30.6378 98.0543 31.4238C98.0543 31.557 98.0251 31.6316 97.9654 31.6649C97.8747 31.6921 97.7812 31.7087 97.6866 31.7142C97.1039 31.7767 96.5179 31.8034 95.9319 31.7941C95.3299 31.8071 94.7277 31.7805 94.1293 31.7142C94.0906 31.7125 94.0526 31.703 94.0175 31.6865C93.9825 31.6699 93.951 31.6465 93.9251 31.6176C93.8992 31.5887 93.8792 31.5549 93.8664 31.5182C93.8536 31.4815 93.8482 31.4426 93.8505 31.4038C93.8505 30.6178 93.8837 29.438 93.9501 27.8643C94.0164 26.2906 94.0496 25.1108 94.0496 24.3249C94.0496 23.8054 94.0231 22.6455 93.97 20.8454C92.6426 20.9786 91.5807 21.0452 90.7843 21.0452C90.6781 21.0452 90.625 21.0119 90.625 20.9453C90.6521 20.686 90.6964 20.4287 90.7577 20.1753C90.8639 19.7091 90.9237 19.4258 90.9369 19.3254C90.9564 19.0128 90.9798 18.6993 91.0073 18.385C91.0542 17.8859 91.1338 17.6359 91.2462 17.635L91.3856 17.6456C92.4625 17.7859 94.0554 17.8561 96.1641 17.8561C96.7615 17.8561 97.8641 17.7926 99.472 17.6656L100.777 17.5657C100.854 17.5571 100.933 17.5658 101.006 17.591C101.026 17.607 101.04 17.6723 101.046 17.7855C101.046 17.9653 101.04 18.2158 101.026 18.5355C101.013 18.8885 101.006 19.1389 101.006 19.2855C101.013 19.5316 101.034 19.7772 101.07 20.0208C101.109 20.2606 101.134 20.5026 101.143 20.7455Z" fill="#E5A908"/>
<path d="M116.883 24.7146C116.883 26.7936 116.222 28.5369 114.9 29.9445C113.551 31.3654 111.844 32.0785 109.779 32.0839C107.713 32.0892 106.009 31.369 104.667 29.9232C103.339 28.5182 102.676 26.782 102.676 24.7146C102.676 22.6471 103.339 20.9038 104.667 19.4847C106.023 18.0424 107.726 17.3213 109.779 17.3213C111.814 17.3213 113.514 18.0446 114.88 19.4913C116.215 20.9131 116.883 22.6542 116.883 24.7146ZM113.106 24.6946C113.13 23.7612 112.807 22.8523 112.2 22.1449C111.905 21.7902 111.534 21.507 111.115 21.3164C110.695 21.1259 110.239 21.033 109.779 21.0446C108.841 21.0446 108.048 21.4247 107.397 22.1849C106.779 22.8812 106.442 23.7835 106.451 24.7159C106.451 25.7354 106.746 26.5853 107.338 27.2656C107.957 27.976 108.771 28.3313 109.779 28.3313C110.714 28.3313 111.51 27.9547 112.168 27.2016C112.781 26.5126 113.116 25.6185 113.106 24.6946Z" fill="#E5A908"/>
<path d="M137.476 31.5646C137.476 31.6339 137.377 31.6845 137.177 31.7138C136.798 31.7733 135.846 31.8035 134.322 31.8044C133.018 31.8044 132.133 31.7742 131.667 31.7138C131.54 31.705 131.415 31.68 131.294 31.6392C131.198 31.5607 131.126 31.4569 131.085 31.3395C130.935 30.9496 130.716 30.3697 130.428 29.5997C130.039 28.5989 129.431 27.1238 128.604 25.1744C128.427 24.7846 128.013 24.5697 127.363 24.5297C127.663 24.5493 127.15 24.559 125.824 24.559C125.675 24.559 125.6 24.8143 125.6 25.325C125.6 26.0044 125.662 27.019 125.787 28.3689C125.912 29.7188 125.974 30.7338 125.973 31.4141C125.973 31.5846 125.928 31.6805 125.84 31.7138L125.422 31.7445C124.835 31.7844 123.918 31.8044 122.672 31.8044C121.246 31.8044 120.389 31.7742 120.101 31.7138C119.812 31.6535 119.668 31.4985 119.668 31.2489C119.668 30.1486 119.72 28.4888 119.825 26.2694C119.929 24.0501 119.981 22.3854 119.981 21.2753C119.981 17.0463 119.887 13.7462 119.697 11.375L119.683 11.1659C119.674 10.9954 119.831 10.8803 120.154 10.8208C120.477 10.7613 121.998 10.7014 124.719 10.641C126.562 10.6011 128.032 10.5811 129.128 10.5811C131.4 10.5811 133.253 11.0957 134.687 12.125C136.312 13.2857 137.124 14.9606 137.124 17.1498C137.124 18.6098 136.915 19.7749 136.496 20.6452C136.078 21.5156 135.306 22.3592 134.18 23.1763C133.951 23.3361 133.836 23.4853 133.836 23.6252C133.836 23.6163 134.444 24.8712 135.659 27.3898C136.874 29.9084 137.48 31.3 137.476 31.5646ZM131.199 18.1102C131.199 16.89 130.801 16.0463 130.004 15.5792C129.385 15.2239 128.418 15.0463 127.105 15.0463C126.158 15.0463 125.655 15.1911 125.596 15.4806C125.536 15.8216 125.506 16.8016 125.506 18.4206C125.506 18.6515 125.511 18.9916 125.52 19.441C125.53 19.8904 125.535 20.2252 125.536 20.4454C125.536 20.496 125.696 20.5453 126.014 20.596C126.648 20.6868 127.287 20.7313 127.927 20.7292C130.11 20.723 131.202 19.85 131.202 18.1102H131.199Z" fill="#E5A908"/>
<path fill-rule="evenodd" clip-rule="evenodd" d="M88.6384 30.9144C89.8856 30.3435 90.0638 30.0975 90.7646 29.638C91.6106 29.0833 92.1154 30.1494 91.2505 30.6691C90.1683 31.3195 88.6384 30.9144 88.6384 30.9144Z" fill="white"/>
<path fill-rule="evenodd" clip-rule="evenodd" d="M91.0644 30.6464C90.7769 30.8048 90.0596 31.0272 89.3794 30.96C90.2872 30.8128 90.647 30.5433 90.9319 30.3845C91.1518 30.2577 91.253 30.1194 91.3535 30.2642C91.5045 30.4249 91.2452 30.5378 91.0644 30.6464Z" fill="#146AA7"/>
<path fill-rule="evenodd" clip-rule="evenodd" d="M89.3625 31.6306C86.4409 31.3802 85.9565 29.8396 84.718 28.23C83.4721 26.6104 82.5984 27.9606 83.1712 28.7675C83.7442 29.5744 82.8388 30.0965 81.446 28.3794C80.6954 27.4541 80.4792 27.2693 80.0032 27.47C79.2108 27.8041 79.5673 28.6874 80.5253 29.5083C82.2592 30.994 86.5085 32.0164 89.3625 31.6306Z" fill="white"/>
<path fill-rule="evenodd" clip-rule="evenodd" d="M83.8768 28.96C84.3265 29.3807 84.6129 29.4152 85.7355 30.4757C85.7319 30.4699 85.0672 29.471 84.1618 28.6689C83.923 28.431 83.7337 28.0876 83.543 28.2674C83.2738 28.44 83.6828 28.7609 83.8768 28.96Z" fill="#146AA7"/>
</g>
<defs>
<clipPath id="clip0_1132_2180">
<rect width="137.582" height="38.8975" fill="white"/>
</clipPath>
</defs>
</svg>
