<svg width="193" height="287" viewBox="0 0 193 287" fill="none" xmlns="http://www.w3.org/2000/svg">
<path d="M168.461 122.831C171.48 122.49 181.323 113.59 184.968 114.338C187.375 114.832 185.882 118.223 188.027 122.251C190.151 126.242 192.662 127.989 197.705 129.966C196.533 131.196 190.489 132.461 183.369 131.523C176.249 130.585 169.897 125.527 168.461 122.831Z" fill="#8FA1D7"/>
<path opacity="0.5" d="M168.461 122.831C171.48 122.49 181.323 113.59 184.968 114.338C187.375 114.832 185.882 118.223 188.027 122.251C190.151 126.242 192.662 127.989 197.705 129.966C196.533 131.196 190.489 132.461 183.369 131.523C176.249 130.585 169.897 125.527 168.461 122.831Z" fill="black"/>
<path opacity="0.15" d="M187.425 123.249C186.265 120.089 186.102 117.56 186.519 116.462C186.764 117.922 186.821 119.984 188.025 122.247C190.15 126.239 192.662 127.987 197.705 129.964C196.533 131.193 190.488 132.459 183.367 131.521C176.87 130.665 171.026 126.384 168.958 123.592L168.457 122.828C172.065 123.434 178.577 125.099 183.792 125.728C189.007 126.356 188.12 125.144 187.425 123.249Z" fill="black"/>
<path opacity="0.3" d="M169.131 122.745C172.773 121.418 181.609 113.692 185.029 114.395C186.091 114.613 186.399 115.391 186.591 116.536C185.795 114.736 184.377 114.669 181.742 115.903C179.108 117.136 173.524 121.867 169.131 122.745Z" fill="#8FA1D7"/>
<path d="M58.2183 198.185C55.0661 185.879 55.0338 169.504 62.804 153.714L66.4764 153.863L99.5278 155.202C99.5278 155.202 87.0683 166.824 79.6189 178.552C70.2439 193.312 70.3778 200.119 67.6264 206.123C66.9086 207.689 66.0676 208.277 65.1945 208.077C65.1927 208.076 65.1908 208.076 65.1885 208.075C65.1387 208.064 65.0898 208.058 65.0405 208.041C62.0322 207.41 60.0215 205.224 58.2183 198.185Z" fill="#8FA1D7"/>
<path opacity="0.5" d="M58.2183 198.185C55.0661 185.879 55.0338 169.504 62.804 153.714L66.4764 153.863L99.5278 155.202C99.5278 155.202 87.0683 166.824 79.6189 178.552C70.2439 193.312 70.3778 200.119 67.6264 206.123C66.9086 207.689 66.0676 208.277 65.1945 208.077C65.1927 208.076 65.1908 208.076 65.1885 208.075C65.1387 208.064 65.0898 208.058 65.0405 208.041C62.0322 207.41 60.0215 205.224 58.2183 198.185Z" fill="black"/>
<path d="M66.4814 153.851C63.0775 157.744 57.262 175.104 59.1104 191.769C60.4864 204.173 64.9314 212.007 67.6316 206.113C70.3828 200.108 70.2489 193.302 79.6248 178.541C87.0747 166.812 99.5349 155.19 99.5349 155.19L66.4814 153.851Z" fill="#E0E0E0"/>
<path opacity="0.1" d="M65.1246 170.192C61.2875 172.462 59.5447 176.008 59.0878 179.002C60.1513 167.067 64.0029 156.759 66.5289 153.87L99.5764 155.209C99.5764 155.209 87.1184 166.829 79.6699 178.556C73.753 187.872 71.6246 194.017 70.1673 198.794C72.094 187.882 75.084 181.225 77.5993 174.496C80.1137 167.766 68.9712 167.916 65.1246 170.192Z" fill="black"/>
<path opacity="0.3" d="M58.0634 198.158C55.6444 188.723 55.072 176.886 58.4688 164.764C56.7773 172.717 55.7724 182.677 57.5477 192.741C59.3257 202.82 61.0944 206.421 64.8579 207.97C61.8623 207.341 59.86 205.164 58.0634 198.158Z" fill="#8FA1D7"/>
<path d="M88.3829 106.278C90.4988 91.6967 103.935 81.5643 111.224 79.7744C117.684 78.1881 112.28 87.6433 117.307 96.591C122.634 106.074 127.249 109.47 134.068 114.015C134.068 114.015 102.91 116.234 88.3829 106.278Z" fill="#8FA1D7"/>
<path opacity="0.5" d="M88.3829 106.278C90.4988 91.6967 103.935 81.5643 111.224 79.7744C117.684 78.1881 112.28 87.6433 117.307 96.591C122.634 106.074 127.249 109.47 134.068 114.015C134.068 114.015 102.91 116.234 88.3829 106.278Z" fill="black"/>
<path opacity="0.15" d="M111.098 107.206C118.856 107.676 123.93 107.618 118.876 99.1806L118.879 99.1727C123.579 106.69 127.94 109.87 134.087 113.967L134.088 113.968C134.087 113.968 118.657 115.066 104.437 112.252C104.121 112.189 103.806 112.125 103.491 112.059C102.546 111.859 101.61 111.642 100.685 111.406C100.377 111.327 100.07 111.246 99.7642 111.162C98.2367 110.746 96.7475 110.275 95.3184 109.742C95.0326 109.635 94.7491 109.526 94.4683 109.414C93.9071 109.191 93.3554 108.957 92.8162 108.713C92.5469 108.591 92.2801 108.467 92.0163 108.339C91.4895 108.084 90.9748 107.819 90.4743 107.542C89.7239 107.127 89.0053 106.685 88.3234 106.218C93.4884 105.269 102.95 106.711 111.098 107.206Z" fill="black"/>
<path opacity="0.3" d="M111.294 79.829C112.51 79.5306 113.325 79.6126 113.875 80.0033C110.854 79.1353 100.723 86.7496 97.5564 90.9278C94.4292 95.055 90.8811 101.631 90.4703 107.739C89.7346 107.33 89.0291 106.897 88.3594 106.438C90.4821 91.7979 103.975 81.6255 111.294 79.829Z" fill="#8FA1D7"/>
<path d="M38.6395 144.702C33.1693 145.938 28.1052 143.429 22.412 140.434C14.5548 136.299 3.59484 125.186 2.19381 118.597C0.967391 112.831 7.36456 112.325 18.3026 111.35C28.9472 110.402 41.5333 109.133 54.3897 106.587C67.2461 104.04 86.2962 104.84 112.485 108.806C136.32 112.416 192.754 132.033 201.415 130.189C210.075 128.344 210.52 119.218 217.016 106.488C223.512 93.7575 231.835 86.7923 237.668 85.7607C243.5 84.7291 238.067 92.9614 237.629 97.411C237.191 101.86 240.801 104.55 238.474 108.36C236.147 112.17 230.025 118.302 231.177 120.304C232.329 122.306 236.929 118.972 235.612 123.252C234.295 127.533 230.893 130.619 230.451 133.825C230.008 137.031 234.073 145.9 238.23 150.83C242.386 155.759 250.082 157.187 248.159 160.333C246.238 163.479 237.857 162.946 229.506 159.075C221.155 155.205 212.456 146.369 207.787 145.3C203.118 144.231 150.678 156.085 132.369 159.629C113.987 163.187 89.5284 164.341 75.9482 163.791C53.8923 162.897 42.0156 155.815 37.2208 152.769C33.1333 150.174 34.8408 147.379 38.6395 144.702Z" fill="#8FA1D7"/>
<path opacity="0.3" d="M38.6395 144.702C33.1693 145.938 28.1052 143.429 22.412 140.434C14.5548 136.299 3.59484 125.186 2.19381 118.597C0.967391 112.831 7.36456 112.325 18.3026 111.35C28.9472 110.402 41.5333 109.133 54.3897 106.587C67.2461 104.04 86.2962 104.84 112.485 108.806C136.32 112.416 192.754 132.033 201.415 130.189C210.075 128.344 210.52 119.218 217.016 106.488C223.512 93.7575 231.835 86.7923 237.668 85.7607C243.5 84.7291 238.067 92.9614 237.629 97.411C237.191 101.86 240.801 104.55 238.474 108.36C236.147 112.17 230.025 118.302 231.177 120.304C232.329 122.306 236.929 118.972 235.612 123.252C234.295 127.533 230.893 130.619 230.451 133.825C230.008 137.031 234.073 145.9 238.23 150.83C242.386 155.759 250.082 157.187 248.159 160.333C246.238 163.479 237.857 162.946 229.506 159.075C221.155 155.205 212.456 146.369 207.787 145.3C203.118 144.231 150.678 156.085 132.369 159.629C113.987 163.187 89.5284 164.341 75.9482 163.791C53.8923 162.897 42.0156 155.815 37.2208 152.769C33.1333 150.174 34.8408 147.379 38.6395 144.702Z" fill="black"/>
<path opacity="0.15" d="M156.087 133.453C174.222 134.588 199.549 136.531 207.291 137.946C215.033 139.362 216.287 144.045 221.347 142.692C226.407 141.339 217.584 137.405 228.612 129.489C232.163 126.941 234.386 124.641 235.776 122.692L235.776 122.694C234.46 126.97 231.062 130.053 230.621 133.255C230.178 136.457 234.239 145.317 238.391 150.241C242.542 155.165 250.229 156.59 248.308 159.733C246.389 162.876 238.018 162.343 229.676 158.477C221.336 154.612 212.646 145.785 207.982 144.717C205.342 144.113 187.416 147.645 169.037 151.465L156.087 133.453Z" fill="black"/>
<path opacity="0.5" d="M217.534 106.086C224.042 93.3321 232.381 86.3546 238.226 85.3216C239.162 85.1565 239.806 85.2311 240.23 85.4885C235.682 84.492 228.059 92.6086 224.623 97.0576C219.887 103.193 217.189 109.383 213.585 119.28C210.61 127.447 205.072 129.799 201.902 129.83C210.581 127.983 211.026 118.84 217.534 106.086Z" fill="#8FA1D7"/>
<path opacity="0.3" d="M1.96006 116.731C2.87396 113.133 8.87454 112.644 18.1087 111.822C28.7614 110.873 41.357 109.603 54.223 107.056C67.0891 104.508 86.1535 105.308 112.363 109.278C124.348 111.094 144.571 116.954 162.827 122.101C136.049 115.015 114.266 110.537 81.2912 108.416C60.1804 107.059 41.2879 113.195 25.4224 113.375C9.55662 113.555 2.90492 114.243 1.96006 116.731Z" fill="#8FA1D7"/>
<path d="M75.8017 163.992C53.7455 163.098 41.8686 156.016 37.0737 152.971C32.9859 150.374 34.6938 147.58 38.4925 144.903C33.0222 146.139 27.9574 143.63 22.2647 140.634C15.8268 137.247 7.30839 129.175 3.66947 122.745C2.62229 120.519 11.6935 119.287 25.5919 123.596C39.5141 127.913 47.23 132.374 61.5179 129.511C75.8062 126.647 78.6221 127.972 78.4098 131.462C78.1981 134.951 80.1825 136.85 89.6407 136.01C99.099 135.17 123.641 128.586 153.947 133.917C180.305 138.553 192.956 140.698 207.643 145.501C202.974 144.433 150.533 156.287 132.223 159.831C113.841 163.388 89.3819 164.542 75.8017 163.992Z" fill="#FAFAFA"/>
<path d="M132.233 159.472C113.812 163.035 89.3005 164.189 75.691 163.636C75.2655 163.619 74.8509 163.596 74.4327 163.574C82.1307 163.19 121.961 160.781 137.25 151.475C154.204 141.155 141.828 131.938 119.158 131.809C129.256 131.127 141.103 131.241 154 133.51C180.415 138.159 193.093 140.309 207.811 145.123C203.133 144.052 150.581 155.924 132.233 159.472Z" fill="#F0F0F0"/>
<g opacity="0.4">
<path d="M90.8503 117.619C91.5205 118.577 92.1011 119.588 92.5811 120.643C93.0591 121.699 93.4599 122.79 93.7174 123.916C93.9946 125.034 94.1527 126.188 94.1522 127.339C94.152 127.914 94.1121 128.489 94.0271 129.058C93.9424 129.628 93.8134 130.192 93.6347 130.745C93.879 130.218 94.06 129.663 94.1855 129.091C94.3112 128.52 94.3818 127.933 94.4056 127.346C94.4543 126.17 94.3021 124.989 94.038 123.84C93.7478 122.697 93.3432 121.582 92.808 120.533C92.2736 119.486 91.6279 118.493 90.8503 117.619Z" fill="#8FA1D7"/>
<path d="M84.8223 115.713C85.8435 116.748 86.7354 117.904 87.4684 119.155C88.1991 120.406 88.7981 121.738 89.1916 123.134C89.6128 124.518 89.8413 125.964 89.8683 127.41C89.8822 128.134 89.8405 128.858 89.7425 129.577C89.6445 130.295 89.4896 131.007 89.2756 131.705C89.5716 131.037 89.7898 130.335 89.9389 129.615C90.088 128.894 90.1676 128.156 90.1853 127.416C90.2217 125.934 89.9907 124.448 89.5863 123.02C89.1505 121.6 88.5403 120.231 87.7354 118.989C86.9321 117.749 85.9575 116.623 84.8223 115.713Z" fill="#8FA1D7"/>
<path d="M78.7936 113.805C80.1657 114.918 81.3692 116.218 82.3549 117.664C83.3383 119.111 84.1362 120.685 84.6641 122.349C85.2293 124.001 85.5276 125.738 85.5822 127.48C85.6094 128.352 85.5678 129.226 85.4559 130.093C85.3445 130.959 85.1641 131.819 84.9149 132.662C85.262 131.854 85.5184 131.005 85.6908 130.136C85.8629 129.266 85.9521 128.375 85.9636 127.483C85.9879 125.696 85.6777 123.905 85.1336 122.197C84.5518 120.5 83.7356 118.876 82.6614 117.443C81.59 116.009 80.2861 114.751 78.7936 113.805Z" fill="#8FA1D7"/>
</g>
<path d="M77.1258 113.107C80.671 117.373 85.1768 128.047 83.6488 133.981C83.6488 133.981 86.7941 128.526 84.0057 121.772C81.2172 115.018 77.1258 113.107 77.1258 113.107Z" fill="#37474F"/>
<path d="M82.8335 114.652C85.8155 118.571 89.4038 128.206 87.8206 133.405C87.8206 133.405 90.7797 128.65 88.5644 122.556C86.349 116.462 82.8335 114.652 82.8335 114.652Z" fill="#37474F"/>
<path d="M88.5393 116.195C90.9572 119.768 93.6283 128.365 91.99 132.828C91.99 132.828 94.7625 128.774 93.1203 123.339C91.4791 117.904 88.5393 116.195 88.5393 116.195Z" fill="#37474F"/>
<path d="M38.1917 145.284C41.1781 143.292 46.605 141.008 52.4312 139.111C59.0581 136.953 65.5354 136.927 71.8085 131.944C65.2501 134.631 56.2363 133.683 43.8415 136.038C31.4007 138.401 26.7344 144.028 32.0958 145.258C35.264 146.071 38.1917 145.284 38.1917 145.284Z" fill="#37474F"/>
<path d="M44.0922 136.529C53.6382 134.715 61.1708 134.855 67.1278 133.79C66.7529 134.544 66.0922 135.152 65.699 135.235C65.041 135.374 64.8301 135.218 63.6705 134.351C63.0812 135.416 62.6916 136.186 61.8109 136.416C61.2518 136.563 60.1275 136.356 58.7089 135.199C58.2638 136.291 57.592 137.481 56.4513 137.74C55.6503 137.922 54.079 136.93 53.2035 136.128C52.7352 137.41 51.552 138.843 50.6949 139.018C49.7137 139.217 47.926 138.173 46.9653 137.269C46.6151 138.734 45.4159 140.546 44.3481 140.867C43.2616 141.192 41.065 140.067 40.0816 138.913C39.9677 140.488 39.2026 142.567 38.1481 142.992C36.766 143.548 34.7946 142.389 33.786 141.259C33.8788 141.961 33.8316 142.755 33.7142 143.451C33.5969 144.146 33.4136 145.032 32.798 145.358C32.404 145.567 31.8928 145.558 31.3803 145.43C27.6796 143.749 32.5186 138.727 44.0922 136.529Z" fill="#E0E0E0"/>
<path d="M63.9401 119.167C66.5874 121.99 65.0776 124.462 61.4222 123.288C60.3123 122.931 59.2959 122.287 58.4919 121.43C55.8446 118.606 57.3544 116.134 61.0098 117.308C62.1199 117.664 63.1361 118.309 63.9401 119.167Z" fill="#263238"/>
<path d="M58.151 119.309C58.3715 119.723 58.8793 119.882 59.2855 119.665C59.6918 119.447 59.8423 118.935 59.6218 118.521C59.4013 118.107 58.8935 117.948 58.4873 118.165C58.0811 118.383 57.9305 118.895 58.151 119.309Z" fill="#455A64"/>
<path d="M106.501 136.841C112.238 134.856 138.762 131.41 153.675 140.507C166.71 148.459 175.262 159.676 176.134 164.402C176.601 166.934 175.391 165.663 172.315 162.443C161.019 151.482 148.221 145.51 136.28 143.483C128.619 142.182 115.041 142.208 106.032 142.415C105.28 142.417 105.079 142.487 104.647 142.456C104.642 142.457 104.546 142.452 104.541 142.452C104.542 142.451 104.544 142.451 104.544 142.451C100.585 142.167 101.583 138.543 106.501 136.841Z" fill="#E0E0E0"/>
<path opacity="0.1" d="M106.501 136.841C112.238 134.856 138.762 131.41 153.675 140.507C166.71 148.459 175.262 159.676 176.134 164.402C176.601 166.934 175.391 165.663 172.315 162.443C161.019 151.482 148.221 145.51 136.28 143.483C128.619 142.182 115.041 142.208 106.032 142.415C105.28 142.417 105.079 142.487 104.647 142.456C104.642 142.457 104.546 142.452 104.541 142.452C104.542 142.451 104.544 142.451 104.544 142.451C100.585 142.167 101.583 138.543 106.501 136.841Z" fill="black"/>
<path d="M106.93 142.294C113.505 141.156 118.709 140.06 130.232 140.382C141.754 140.705 150.873 143.634 159.599 150.575C159.724 150.675 159.851 150.776 159.976 150.878C172.041 160.609 177.006 169.129 176.134 164.402C175.262 159.676 166.71 148.459 153.675 140.507C138.763 131.41 112.238 134.856 106.501 136.841C100.765 138.826 100.356 143.43 106.93 142.294Z" fill="#8FA1D7"/>
<path opacity="0.4" d="M106.93 142.294C113.505 141.156 118.709 140.06 130.232 140.382C141.754 140.705 150.873 143.634 159.599 150.575C159.724 150.675 159.851 150.776 159.976 150.878C172.041 160.609 177.006 169.129 176.134 164.402C175.262 159.676 166.71 148.459 153.675 140.507C138.763 131.41 112.238 134.856 106.501 136.841C100.765 138.826 100.356 143.43 106.93 142.294Z" fill="black"/>
<path opacity="0.3" d="M153.732 140.488C164.979 147.349 172.88 156.639 175.388 162.087C175.45 162.223 175.511 162.359 175.567 162.488C171.228 155.428 165.091 149.274 154.149 142.437C142.715 135.293 126.608 134.71 116.521 135.023C127.215 133.906 143.309 134.13 153.732 140.488Z" fill="#8FA1D7"/>
<path d="M24.1771 122.222C23.0829 122.178 22.6535 122.88 23.2187 123.791C23.7845 124.702 25.0637 125.474 26.0765 125.514C27.0234 125.552 27.4855 124.799 27.0354 123.949C26.5536 123.04 25.2728 122.267 24.1771 122.222Z" fill="#455A64"/>
<path opacity="0.3" d="M23.1815 121.681C24.7539 121.218 27.1315 122.052 27.7205 123.857C27.7205 123.857 27.7884 122.094 26.0172 121.329C24.269 120.573 23.1815 121.681 23.1815 121.681Z" fill="#8FA1D7"/>
<path d="M118.36 156.164C121.391 157.068 131.736 156.919 136.635 156.409C137.235 157.882 139.435 160.606 141.857 162.065C143.105 162.816 144.131 163.81 143.674 164.541C143.54 164.755 143.229 165.519 142.186 166.115C141.485 166.515 139.692 167.137 136.548 166.85C131.149 166.356 128.138 164.844 125.1 162.904C122.521 161.257 119.736 158.138 118.36 156.164Z" fill="#8FA1D7"/>
<path opacity="0.5" d="M118.36 156.164C121.391 157.068 131.736 156.919 136.635 156.409C137.235 157.882 139.435 160.606 141.857 162.065C143.105 162.816 144.131 163.81 143.674 164.541C143.54 164.755 143.229 165.519 142.186 166.115C141.485 166.515 139.692 167.137 136.548 166.85C131.149 166.356 128.138 164.844 125.1 162.904C122.521 161.257 119.736 158.138 118.36 156.164Z" fill="black"/>
<path d="M136.638 156.412C131.738 156.922 121.392 157.07 118.361 156.167C118.361 156.167 126.271 164.965 137.381 165.495C145.881 165.901 144.283 163.527 141.861 162.069C139.438 160.61 137.238 157.885 136.638 156.412Z" fill="#8FA1D7"/>
<path opacity="0.3" d="M136.638 156.412C131.738 156.922 121.392 157.07 118.361 156.167C118.361 156.167 126.271 164.965 137.381 165.495C145.881 165.901 144.283 163.527 141.861 162.069C139.438 160.61 137.238 157.885 136.638 156.412Z" fill="black"/>
<path opacity="0.1" d="M136.622 156.421C135.153 157.132 130.386 157.504 126.857 158.027C123.328 158.551 124.796 160.327 127.922 162.092C131.047 163.857 136.287 165.438 141.409 165.425C140.935 165.484 140.376 165.522 139.729 165.536C139.7 165.537 139.672 165.538 139.642 165.538C139.338 165.544 139.011 165.544 138.666 165.539C138.608 165.538 138.548 165.537 138.49 165.535C138.134 165.528 137.764 165.517 137.365 165.498C135.977 165.432 134.639 165.236 133.36 164.945C130.482 164.289 127.905 163.149 125.731 161.904C124.765 161.351 123.879 160.776 123.082 160.214C122.684 159.933 122.307 159.655 121.954 159.385C121.601 159.115 121.272 158.851 120.967 158.599C120.51 158.222 120.108 157.87 119.765 157.557C119.536 157.349 119.334 157.159 119.159 156.99C119.071 156.906 118.991 156.827 118.917 156.754C118.77 156.609 118.651 156.487 118.561 156.394C118.426 156.253 118.356 156.176 118.356 156.176C121.385 157.078 131.725 156.931 136.622 156.421Z" fill="black"/>
<path d="M172.184 147.741C176.199 147.903 182.66 148.165 182.66 148.165C182.66 148.165 190.448 148.39 195.314 147.483C198.768 147.037 198.858 148.639 197.919 150.132C197.04 151.53 202.864 150.83 201.5 153.087C201.406 153.243 201.112 154.02 200.048 154.902C197.108 157.339 191.182 158.503 185.594 156.981C180.434 155.575 174.926 151.834 172.184 147.741Z" fill="#8FA1D7"/>
<path opacity="0.5" d="M172.184 147.741C176.199 147.903 182.66 148.165 182.66 148.165C182.66 148.165 190.448 148.39 195.314 147.483C198.768 147.037 198.858 148.639 197.919 150.132C197.04 151.53 202.864 150.83 201.5 153.087C201.406 153.243 201.112 154.02 200.048 154.902C197.108 157.339 191.182 158.503 185.594 156.981C180.434 155.575 174.926 151.834 172.184 147.741Z" fill="black"/>
<path d="M182.132 147.632C182.132 147.632 176.198 147.905 172.182 147.742C172.182 147.742 178.3 153.865 186.748 155.761C194.898 157.59 199.116 155.816 201.111 153.601C203.7 150.724 196.98 151.627 197.919 150.134C198.859 148.64 198.766 147.018 195.314 147.484C187.174 148.582 182.132 147.632 182.132 147.632Z" fill="#8FA1D7"/>
<path opacity="0.3" d="M182.132 147.632C182.132 147.632 176.198 147.905 172.182 147.742C172.182 147.742 178.3 153.865 186.748 155.761C194.898 157.59 199.116 155.816 201.111 153.601C203.7 150.724 196.98 151.627 197.919 150.134C198.859 148.64 198.766 147.018 195.314 147.484C187.174 148.582 182.132 147.632 182.132 147.632Z" fill="black"/>
<path opacity="0.1" d="M182.1 147.665C180.084 148.319 177.658 148.147 176.327 148.496C174.996 148.845 177.486 151.146 181.043 153.177C184.572 155.191 190.224 156.311 192.371 156.525C190.735 156.487 188.863 156.262 186.707 155.779C178.277 153.887 172.171 147.775 172.171 147.775C176.178 147.937 182.1 147.665 182.1 147.665Z" fill="black"/>
<path d="M133.347 182.133C136.45 177.24 141.964 173.88 145.014 173.02C148.505 172.036 146.876 174.522 147.273 178.026C147.822 182.873 150.672 185.264 154.391 187.743C154.391 187.743 141.27 187.562 133.347 182.133Z" fill="#8FA1D7"/>
<path opacity="0.35" d="M133.347 182.133C136.45 177.24 141.964 173.88 145.014 173.02C148.505 172.036 146.876 174.522 147.273 178.026C147.822 182.873 150.672 185.264 154.391 187.743C154.391 187.743 141.27 187.562 133.347 182.133Z" fill="black"/>
<path opacity="0.15" d="M135.057 183.17C135.279 182.812 135.79 182.635 136.698 182.718C142.622 183.264 148.141 184.458 147.423 182.858C146.841 181.561 146.632 178.926 147.207 177.114L147.208 177.114C147.217 177.402 147.232 177.696 147.267 178.001C147.816 182.852 150.668 185.245 154.39 187.726C154.39 187.726 143.027 187.567 135.057 183.17Z" fill="black"/>
<path opacity="0.3" d="M145.06 173.053C146.196 172.733 146.789 172.783 147.091 173.11C145.147 172.642 138.22 176.656 135.757 180.423C135.252 181.194 134.65 182.096 134.382 182.887C134.021 182.671 133.665 182.449 133.322 182.214C136.444 177.294 141.991 173.916 145.06 173.053Z" fill="#8FA1D7"/>
<path d="M169.195 192.39C170.852 192.469 173.341 189.698 174.902 189.08C177.17 188.183 176.581 190.148 177.935 192.206C179.29 194.264 182.408 196.011 184.126 196.466C185.845 196.922 182.523 197.395 178.995 197.142C178.995 197.142 172.632 196.653 169.195 192.39Z" fill="#8FA1D7"/>
<path opacity="0.35" d="M169.195 192.39C170.852 192.469 173.341 189.698 174.902 189.08C177.17 188.183 176.581 190.148 177.935 192.206C179.29 194.264 182.408 196.011 184.126 196.466C185.845 196.922 182.523 197.395 178.995 197.142C178.995 197.142 172.632 196.653 169.195 192.39Z" fill="black"/>
<path opacity="0.15" d="M171.496 194.48L171.33 193.066C171.444 193.182 179.529 195.238 178.456 193.86C177.63 192.801 177.034 190.932 176.946 189.971C177.171 190.585 177.403 191.382 177.939 192.197C179.294 194.255 182.413 196.003 184.132 196.458C185.852 196.914 182.528 197.387 178.999 197.135C178.999 197.135 174.894 196.815 171.496 194.48Z" fill="black"/>
<path opacity="0.3" d="M174.915 189.12C176.12 188.644 176.523 188.974 176.836 189.692C176.427 189.089 175.383 189.037 174.128 189.902C173.541 190.306 170.335 193.216 169.17 192.447C170.839 192.526 173.344 189.741 174.915 189.12Z" fill="#8FA1D7"/>
<path d="M114.086 235.947C114.039 235.919 113.994 235.887 113.948 235.848C110.681 233.717 111.049 227.133 111.898 223.271C113.18 217.431 115.563 211.101 118.33 207.83L121.423 208.133L140.982 208.935C140.982 208.935 134.315 212.155 127.646 218.691C120.849 225.352 118.691 229.076 115.281 235.308C114.892 236.019 114.477 236.185 114.086 235.947Z" fill="#8FA1D7"/>
<path opacity="0.3" d="M114.086 235.947C114.039 235.919 113.994 235.887 113.948 235.848C110.681 233.717 111.049 227.133 111.898 223.271C113.18 217.431 115.563 211.101 118.33 207.83L121.423 208.133L140.982 208.935C140.982 208.935 134.315 212.155 127.646 218.691C120.849 225.352 118.691 229.076 115.281 235.308C114.892 236.019 114.477 236.185 114.086 235.947Z" fill="black"/>
<path d="M121.419 208.121C120.317 209.074 115.997 212.949 113.024 224.648C111.354 231.218 113.579 238.407 115.276 235.304C118.687 229.069 120.845 225.346 127.644 218.683C134.316 212.145 140.985 208.924 140.985 208.924L121.419 208.121Z" fill="#E0E0E0"/>
<path opacity="0.05" d="M127.658 218.687C121.587 224.636 119.215 228.247 116.348 233.39C117.567 230.55 119.41 226.995 121.697 223.337C124.396 219.02 125.985 216.725 123.824 215.654C122.782 215.137 120.475 214.853 118.549 215.815C116.489 216.844 114.82 219.19 114.179 220.713C117.014 212.067 120.455 208.972 121.428 208.13C121.43 208.13 121.432 208.127 121.433 208.126L140.996 208.928C140.997 208.929 134.328 212.15 127.658 218.687Z" fill="black"/>
<path opacity="0.3" d="M114.972 213.677L114.973 213.677L114.968 213.686L114.972 213.677Z" fill="#8FA1D7"/>
<path opacity="0.45" d="M111.818 223.298C112.464 220.357 113.39 217.294 114.504 214.561C112.692 219.843 110.479 229.387 112.151 233.72C110.809 230.805 111.169 226.254 111.818 223.298Z" fill="#8FA1D7"/>
<path d="M106.244 203.154C103.261 203.828 100.5 202.46 97.3961 200.826C93.112 198.572 87.1358 192.513 86.372 188.92C85.7032 185.776 89.7132 184.796 95.4772 183.715C101.199 182.641 107.485 181.219 115.029 180.761C122.171 180.328 133.313 181.292 144.399 184.401C155.487 187.511 181.493 197.648 186.215 196.642C190.937 195.637 191.382 189.327 194.923 182.386C198.465 175.445 203.003 171.647 206.183 171.085C209.363 170.522 205.723 176.311 205.485 178.737C205.246 181.164 208.494 182.562 207.874 184.929C207.206 187.478 205.712 188.456 204.176 191.35C202.84 193.868 201.872 195.22 202.249 197.292C202.566 199.036 204.337 201.924 207.66 205.86C209.928 208.547 212.953 210.029 211.904 211.745C210.857 213.46 206.287 213.169 201.734 211.06C197.181 208.949 192.437 204.131 189.892 203.549C187.346 202.966 167.331 209.36 157.348 211.292C147.326 213.232 133.989 213.861 126.586 213.562C114.56 213.074 108.084 209.213 105.47 207.552C103.242 206.137 104.173 204.614 106.244 203.154Z" fill="#8FA1D7"/>
<path opacity="0.2" d="M106.244 203.154C103.261 203.828 100.5 202.46 97.3961 200.826C93.112 198.572 87.1358 192.513 86.372 188.92C85.7032 185.776 89.7132 184.796 95.4772 183.715C101.199 182.641 107.485 181.219 115.029 180.761C122.171 180.328 133.313 181.292 144.399 184.401C155.487 187.511 181.493 197.648 186.215 196.642C190.937 195.637 191.382 189.327 194.923 182.386C198.465 175.445 203.003 171.647 206.183 171.085C209.363 170.522 205.723 176.311 205.485 178.737C205.246 181.164 208.494 182.562 207.874 184.929C207.206 187.478 205.712 188.456 204.176 191.35C202.84 193.868 201.872 195.22 202.249 197.292C202.566 199.036 204.337 201.924 207.66 205.86C209.928 208.547 212.953 210.029 211.904 211.745C210.857 213.46 206.287 213.169 201.734 211.06C197.181 208.949 192.437 204.131 189.892 203.549C187.346 202.966 167.331 209.36 157.348 211.292C147.326 213.232 133.989 213.861 126.586 213.562C114.56 213.074 108.084 209.213 105.47 207.552C103.242 206.137 104.173 204.614 106.244 203.154Z" fill="black"/>
<path opacity="0.1" d="M163.008 198.936C170.971 199.865 177.958 201.485 184.478 200.81C190.999 200.136 194.267 199.253 196.69 201.544C199.113 203.834 200.819 203.872 200.12 200.469C198.899 194.528 201.346 192.907 205.766 188.66C205.29 189.331 204.781 190.084 204.266 191.055C202.931 193.571 201.963 194.922 202.34 196.993C202.656 198.736 204.426 201.622 207.748 205.556C210.014 208.241 213.037 209.723 211.989 211.438C210.942 213.152 206.375 212.861 201.825 210.753C197.275 208.644 192.534 203.829 189.99 203.247C188.28 202.855 178.683 205.613 169.544 208.051L163.008 198.936Z" fill="black"/>
<path opacity="0.6" d="M128.746 182.658C117.88 181.53 110.744 182.073 101.563 183.759C92.3946 185.442 90.2909 185.087 86.9859 186.768C88.3821 185.436 91.4671 184.75 95.3574 184.019C101.085 182.944 107.378 181.521 114.93 181.063C122.08 180.63 133.233 181.596 144.332 184.709C146.973 185.45 150.467 186.591 154.312 187.884C154.151 187.836 139.119 183.736 128.746 182.658Z" fill="#8FA1D7"/>
<path opacity="0.6" d="M185.644 196.54C185.644 196.54 185.645 196.534 185.644 196.533C185.956 196.533 186.239 196.518 186.461 196.47C191.193 195.463 191.638 189.142 195.186 182.189C198.734 175.235 203.281 171.431 206.468 170.868C207.016 170.771 207.358 170.866 207.554 171.096C206.316 170.22 200.253 174.58 197.35 179.652C194.448 184.724 193.868 188.37 192.073 192.04C190.278 195.711 187.893 196.781 185.644 196.54Z" fill="#8FA1D7"/>
<path d="M131.779 197.798C140.423 198.185 146.989 195.995 164.652 199.727C179.635 202.893 183.62 203.78 188.393 203.71C183.041 204.417 166.169 209.685 157.266 211.408C147.245 213.347 133.91 213.977 126.506 213.677C114.482 213.19 108.006 209.329 105.392 207.668C103.163 206.253 104.095 204.729 106.165 203.269C103.183 203.943 100.422 202.576 97.3183 200.942C94.2109 199.307 90.2226 195.672 87.9696 192.426C87.0433 190.878 87.1141 187.442 92.9106 189.296C98.8052 191.183 101.621 192.868 111.402 193.367C121.182 193.864 125.859 190.669 128.038 192.657C130.217 194.647 123.135 197.412 131.779 197.798Z" fill="#FAFAFA"/>
<path d="M132.137 213.53C133.099 213.473 146.192 212.651 156.13 209.147C166.451 205.507 157.068 199.639 149.437 197.377C153.513 197.59 158.399 198.167 164.695 199.498C179.712 202.672 183.706 203.562 188.489 203.492C183.125 204.199 166.217 209.476 157.295 211.202C149.459 212.718 139.615 213.431 132.137 213.53Z" fill="#F0F0F0"/>
<path d="M106.017 203.441C107.645 202.355 110.853 201.117 114.23 200.441C117.959 199.695 123.981 198.151 125.029 194.372C121.309 197.939 115.06 196.072 108.394 197.757C101.976 199.378 99.7703 202.756 102.694 203.426C104.421 203.87 106.017 203.441 106.017 203.441Z" fill="#455A64"/>
<path d="M110.056 197.747C114.283 196.955 120.148 197.661 123.834 195.714C123.607 196.171 122.955 196.9 122.742 197.018C122.352 197.235 121.847 197.072 121.396 196.889C121.039 197.534 120.683 197.889 120.434 197.983C120.106 198.107 119.748 198.046 118.839 197.407C118.364 198.144 118.015 198.718 117.586 198.789C117.094 198.87 116.02 198.245 115.489 197.759C115.205 198.536 114.487 199.405 113.967 199.511C113.372 199.631 112.288 198.998 111.705 198.45C111.493 199.339 110.765 200.438 110.118 200.632C109.459 200.829 108.126 200.146 107.531 199.447C107.462 200.402 106.997 201.663 106.358 201.92C105.52 202.257 104.324 201.555 103.713 200.869C103.77 201.294 103.741 201.776 103.67 202.198C103.598 202.62 103.488 203.157 103.114 203.354C102.875 203.481 102.565 203.476 102.254 203.398C100.011 202.382 103.709 198.938 110.056 197.747Z" fill="#E0E0E0"/>
<path d="M137.901 200.288C141.033 199.205 151.796 197.69 161.842 200.836C169.762 203.316 174.885 206.445 177.152 209.663C177.461 210.101 177.516 210.266 177.365 210.236C177.298 210.222 177.189 210.17 177.042 210.085C164.762 204.321 158.855 203.179 154.402 202.817C150.219 202.477 145.765 202.553 138.494 203.2C138.374 203.222 138.255 203.245 138.136 203.266C137.634 203.352 137.214 203.373 136.86 203.35C136.85 203.351 136.841 203.351 136.832 203.352C136.836 203.351 136.84 203.349 136.844 203.348C134.677 203.195 135.214 201.218 137.901 200.288Z" fill="#E0E0E0"/>
<path d="M138.135 203.265C141.724 202.645 144.96 201.354 151.624 201.506C157.915 201.65 161.941 202.594 168.287 205.122C174.203 207.478 178.663 211.809 177.152 209.663C174.885 206.445 169.762 203.315 161.841 200.836C151.795 197.69 141.033 199.205 137.901 200.289C134.769 201.372 134.546 203.886 138.135 203.265Z" fill="#8FA1D7"/>
<path opacity="0.3" d="M138.135 203.265C141.724 202.645 144.96 201.354 151.624 201.506C157.915 201.65 161.941 202.594 168.287 205.122C174.203 207.478 178.663 211.809 177.152 209.663C174.885 206.445 169.762 203.315 161.841 200.836C151.795 197.69 141.033 199.205 137.901 200.289C134.769 201.372 134.546 203.886 138.135 203.265Z" fill="black"/>
<path opacity="0.45" d="M173.623 206.261C171.453 205.08 165.139 201.965 159.834 200.821C154.521 199.675 147.767 198.788 142.588 199.347C147.458 198.727 154.84 198.644 161.872 200.846C166.943 202.433 170.862 204.288 173.623 206.261Z" fill="#8FA1D7"/>
<path d="M121.654 188.943C122.339 190.229 121.73 191.224 120.296 191.165C118.862 191.107 117.144 190.018 116.46 188.732C115.775 187.447 116.383 186.451 117.818 186.51C119.252 186.568 120.969 187.657 121.654 188.943Z" fill="#455A64"/>
<path d="M117.943 187.686C118.095 187.972 117.991 188.325 117.711 188.475C117.431 188.625 117.081 188.515 116.929 188.229C116.777 187.944 116.881 187.591 117.161 187.441C117.44 187.292 117.791 187.401 117.943 187.686Z" fill="#FAFAFA"/>
<path d="M98.3616 190.867C97.765 190.842 97.5306 191.225 97.8393 191.722C98.1478 192.218 98.8448 192.64 99.3968 192.662C99.9488 192.684 100.183 192.301 99.919 191.806C99.6554 191.311 98.9581 190.891 98.3616 190.867Z" fill="#455A64"/>
<path opacity="0.6" d="M98.1562 190.659C98.7411 190.55 99.7093 190.934 100.067 191.644C100.067 191.644 100.095 191.109 99.3365 190.695C98.5786 190.282 98.1562 190.659 98.1562 190.659Z" fill="#8FA1D7"/>
<path d="M150.413 209.337C151.943 209.793 157.165 209.718 159.638 209.461C159.941 210.204 161.051 211.579 162.274 212.316C162.904 212.695 163.422 213.196 163.191 213.565C163.124 213.674 162.967 214.059 162.441 214.36C162.087 214.562 161.182 214.875 159.595 214.731C156.87 214.481 155.35 213.718 153.816 212.738C152.514 211.907 151.108 210.333 150.413 209.337Z" fill="#8FA1D7"/>
<path opacity="0.5" d="M150.413 209.337C151.943 209.793 157.165 209.718 159.638 209.461C159.941 210.204 161.051 211.579 162.274 212.316C162.904 212.695 163.422 213.196 163.191 213.565C163.124 213.674 162.967 214.059 162.441 214.36C162.087 214.562 161.182 214.875 159.595 214.731C156.87 214.481 155.35 213.718 153.816 212.738C152.514 211.907 151.108 210.333 150.413 209.337Z" fill="black"/>
<path d="M159.638 209.461C157.165 209.719 151.942 209.793 150.412 209.338C150.412 209.338 154.405 213.778 160.013 214.046C164.304 214.251 163.497 213.053 162.274 212.316C161.051 211.58 159.941 210.205 159.638 209.461Z" fill="#8FA1D7"/>
<path opacity="0.2" d="M159.638 209.461C157.165 209.719 151.942 209.793 150.412 209.338C150.412 209.338 154.405 213.778 160.013 214.046C164.304 214.251 163.497 213.053 162.274 212.316C161.051 211.58 159.941 210.205 159.638 209.461Z" fill="black"/>
<path opacity="0.1" d="M159.627 209.467C158.886 209.826 156.479 210.014 154.698 210.278C152.917 210.542 153.658 211.439 155.236 212.33C156.813 213.221 159.458 214.018 162.044 214.012C161.805 214.042 161.523 214.06 161.196 214.068C161.182 214.068 161.168 214.069 161.153 214.069C160.999 214.072 160.834 214.072 160.66 214.069C160.63 214.069 160.6 214.069 160.57 214.068C160.391 214.064 160.204 214.058 160.003 214.049C159.302 214.015 158.627 213.917 157.981 213.77C156.529 213.439 155.227 212.864 154.13 212.235C153.643 211.956 153.196 211.666 152.793 211.382C152.592 211.24 152.403 211.1 152.224 210.963C152.046 210.827 151.88 210.694 151.726 210.567C151.495 210.376 151.292 210.198 151.119 210.04C151.004 209.936 150.902 209.839 150.813 209.754C150.769 209.712 150.728 209.672 150.691 209.635C150.617 209.562 150.557 209.5 150.511 209.453C150.443 209.382 150.408 209.343 150.408 209.343C151.936 209.799 157.156 209.724 159.627 209.467Z" fill="black"/>
<path d="M174.439 204.721C176.218 204.792 179.08 204.909 179.08 204.909C179.08 204.909 182.53 205.008 184.685 204.606C186.215 204.409 186.255 205.118 185.839 205.78C185.45 206.399 188.029 206.089 187.426 207.089C187.384 207.158 187.254 207.503 186.782 207.893C185.48 208.972 182.855 209.488 180.38 208.814C178.094 208.191 175.653 206.534 174.439 204.721Z" fill="#8FA1D7"/>
<path opacity="0.5" d="M174.439 204.721C176.218 204.792 179.08 204.909 179.08 204.909C179.08 204.909 182.53 205.008 184.685 204.606C186.215 204.409 186.255 205.118 185.839 205.78C185.45 206.399 188.029 206.089 187.426 207.089C187.384 207.158 187.254 207.503 186.782 207.893C185.48 208.972 182.855 209.488 180.38 208.814C178.094 208.191 175.653 206.534 174.439 204.721Z" fill="black"/>
<path d="M178.846 204.672C178.846 204.672 176.217 204.793 174.439 204.721C174.439 204.721 177.149 207.433 180.891 208.273C184.501 209.083 186.37 208.297 187.253 207.316C188.4 206.042 185.424 206.442 185.84 205.781C186.256 205.119 186.214 204.4 184.685 204.607C181.079 205.094 178.846 204.672 178.846 204.672Z" fill="#8FA1D7"/>
<path opacity="0.2" d="M178.846 204.672C178.846 204.672 176.217 204.793 174.439 204.721C174.439 204.721 177.149 207.433 180.891 208.273C184.501 209.083 186.37 208.297 187.253 207.316C188.4 206.042 185.424 206.442 185.84 205.781C186.256 205.119 186.214 204.4 184.685 204.607C181.079 205.094 178.846 204.672 178.846 204.672Z" fill="black"/>
<path opacity="0.1" d="M178.834 204.686C177.94 204.976 176.866 204.9 176.277 205.054C175.687 205.209 176.79 206.228 178.366 207.127C179.929 208.02 182.432 208.515 183.383 208.61C182.659 208.593 181.829 208.494 180.875 208.28C177.141 207.442 174.436 204.735 174.436 204.735C176.21 204.807 178.834 204.686 178.834 204.686Z" fill="black"/>
<path d="M128.203 187.499C129.705 189.306 131.613 193.827 130.966 196.34C130.966 196.34 132.35 193.933 131.168 191.073C129.986 188.212 128.203 187.499 128.203 187.499Z" fill="#455A64"/>
<path d="M130.651 188.092C132.06 189.788 133.852 194.032 133.244 196.392C133.244 196.392 134.543 194.132 133.433 191.446C132.326 188.761 130.651 188.092 130.651 188.092Z" fill="#455A64"/>
<path d="M133.103 188.685C134.42 190.271 136.095 194.238 135.527 196.444C135.527 196.444 136.74 194.331 135.703 191.821C134.667 189.31 133.103 188.685 133.103 188.685Z" fill="#455A64"/>
<path d="M134.628 189.496C135.347 190.332 135.847 191.32 136.13 192.365C136.283 192.885 136.369 193.423 136.395 193.962C136.418 194.5 136.371 195.045 136.195 195.565C136.461 195.083 136.56 194.517 136.572 193.962C136.583 193.403 136.493 192.846 136.352 192.304C136.04 191.239 135.489 190.201 134.628 189.496Z" fill="#8FA1D7"/>
<path d="M131.763 188.565C132.713 189.512 133.44 190.656 133.819 191.919C134.025 192.544 134.131 193.199 134.143 193.854C134.154 194.51 134.053 195.17 133.796 195.787C134.158 195.224 134.325 194.541 134.359 193.861C134.393 193.178 134.279 192.493 134.087 191.837C133.667 190.539 132.87 189.337 131.763 188.565Z" fill="#8FA1D7"/>
<path d="M128.897 187.634C130.076 188.694 131.012 189.995 131.505 191.47C132.002 192.93 132.068 194.572 131.397 196.009C131.852 195.364 132.089 194.565 132.144 193.761C132.205 192.953 132.075 192.135 131.818 191.366C131.295 189.828 130.233 188.486 128.897 187.634Z" fill="#8FA1D7"/>
</svg>
