<svg width="393" height="125" viewBox="0 0 393 125" fill="none" xmlns="http://www.w3.org/2000/svg">
<path opacity="0.05" d="M-16.3452 4.60177C-5.94886 2.50209 4.55725 1.1496 15.1248 0.576569L19.0919 0.407492C20.4143 0.357599 21.7336 0.283255 23.0603 0.291303L27.036 0.269939C28.3608 0.269314 29.6838 0.244131 31.013 0.301462L34.9946 0.42802C36.3218 0.476678 37.6472 0.500748 38.9764 0.609323L42.9614 0.885752C44.2884 0.982139 45.6232 1.06199 46.9281 1.21142L50.8604 1.61763L51.8428 1.72278L52.8203 1.8495L54.7739 2.10309L56.7278 2.35845C57.379 2.44297 58.0302 2.52751 58.6753 2.63374L62.555 3.24037C63.8514 3.43288 65.1333 3.67431 66.417 3.90673L70.2653 4.61486L74.0871 5.40289L75.9968 5.79966L77.8924 6.23292L81.6816 7.10666C82.9395 7.41011 84.1885 7.73549 85.442 8.04991C87.9558 8.66405 90.4283 9.37163 92.913 10.05L93.8431 10.3078L94.7664 10.5803L96.6131 11.1254L98.4585 11.6705C99.0741 11.8516 99.6896 12.0327 100.298 12.2285C102.735 13.0008 105.189 13.7471 107.598 14.5694L111.224 15.7834L114.82 17.0475L116.617 17.6796L118.401 18.3341L121.964 19.6468C123.149 20.0887 124.322 20.5475 125.501 20.9987C126.676 21.4538 127.862 21.8975 129.025 22.3677C131.36 23.3004 133.702 24.2217 136.009 25.1867L139.479 26.6237L142.923 28.0875L144.645 28.8213L146.353 29.5667L149.769 31.0592C154.298 33.0739 158.805 35.1097 163.25 37.1878C167.711 39.2557 172.108 41.3624 176.494 43.4683C180.86 45.581 185.211 47.7021 189.51 49.8239L214.98 62.4362C219.175 64.51 223.327 66.536 227.474 68.5483C231.607 70.5371 235.734 72.5175 239.824 74.4196C243.924 76.3421 247.992 78.1824 252.053 79.9951L255.09 81.3262L256.608 81.9917L258.121 82.6365L261.147 83.9278L264.162 85.1776C280.232 91.824 296.013 97.2061 311.477 100.612C315.336 101.429 319.188 102.197 323.003 102.751L324.436 102.971L325.153 103.082L325.866 103.17L328.719 103.53L329.432 103.622L330.142 103.691L331.562 103.83L332.982 103.97C333.456 104.017 333.93 104.067 334.399 104.092C336.28 104.21 338.173 104.381 340.041 104.422L341.447 104.477C341.915 104.49 342.388 104.527 342.852 104.521L345.649 104.539C346.116 104.538 346.585 104.558 347.048 104.543L348.439 104.507L351.223 104.437L353.99 104.274L355.376 104.197L356.752 104.067L359.508 103.817L362.248 103.471L363.618 103.301C363.847 103.277 364.075 103.24 364.301 103.2L364.982 103.088L367.708 102.646C371.319 102.003 374.941 101.189 378.604 100.214C382.266 99.2272 385.961 98.0557 389.683 96.7547C390.615 96.4169 391.545 96.1023 392.481 95.7501L395.292 94.6863C397.173 93.9388 399.054 93.2018 400.95 92.3912C408.52 89.2188 416.223 85.4862 424.059 81.4635C431.906 77.4151 439.887 73.0643 448.075 68.5941L454.247 65.2304L460.508 61.8489C464.713 59.5968 468.958 57.3431 473.291 55.1335C477.62 52.9224 482.013 50.7486 486.475 48.6432L489.839 47.0941C490.961 46.5836 492.078 46.0506 493.207 45.5659L496.587 44.0845L498.277 43.3455L499.974 42.6377C518.064 35.0394 536.502 29.0097 555.166 24.6541C573.827 20.2847 592.695 17.4866 611.645 16.362C630.592 15.2218 649.612 15.6657 668.566 17.7917L672.119 18.1954C673.304 18.3388 674.486 18.5053 675.67 18.6593C676.853 18.8204 678.037 18.9657 679.22 19.1392L682.766 19.6777C685.134 20.0123 687.483 20.4632 689.836 20.8731L693.364 21.4997L695.127 21.8148C695.716 21.9133 696.298 22.0512 696.884 22.1658L703.896 23.6204L705.648 23.9859C706.232 24.1077 706.809 24.2548 707.391 24.3892L710.874 25.2085L714.356 26.0297L716.096 26.4403L717.826 26.8889L724.741 28.6995L726.468 29.1518L728.186 29.642L731.62 30.6226L735.052 31.6032L736.767 32.0972L738.473 32.6202L745.292 34.7178C745.859 34.894 746.429 35.0629 746.994 35.2464L748.688 35.8004L752.074 36.9085C756.599 38.3563 761.073 39.9337 765.559 41.4749C766.683 41.8546 767.794 42.262 768.909 42.6619L772.252 43.8655C774.479 44.6692 776.713 45.4599 778.923 46.2968L785.567 48.7761C787.781 49.6056 789.977 50.4631 792.182 51.3056C796.597 52.9833 800.966 54.7248 805.352 56.4402C814.089 59.9074 822.799 63.4139 831.443 66.9205C848.755 73.9405 865.893 80.8688 883.006 87.2991L889.418 89.658L892.624 90.8374L895.827 91.9711L902.236 94.2365L908.64 96.3981C909.708 96.756 910.776 97.1262 911.844 97.4734L915.046 98.4941C917.18 99.1711 919.317 99.8673 921.451 100.528L927.856 102.439L929.459 102.918C929.993 103.077 930.526 103.238 931.061 103.382L934.264 104.265C942.809 106.696 951.353 108.693 959.906 110.513L966.32 111.76L967.923 112.073C968.458 112.179 968.992 112.252 969.527 112.344L972.733 112.868L975.941 113.394L977.545 113.657C978.08 113.737 978.613 113.797 979.148 113.87L985.56 114.706L987.164 114.916L988.765 115.067L991.969 115.372L995.175 115.679L996.778 115.829L998.38 115.924L1004.79 116.307L1005.6 116.355L1006.4 116.376L1008 116.416L1011.21 116.498L1014.43 116.581L1017.64 116.557L1020.85 116.532L1022.46 116.521L1023.26 116.515L1024.07 116.485L1030.49 116.226L1032.1 116.161L1033.71 116.048L1036.92 115.815L1040.13 115.584L1040.94 115.527C1041.21 115.505 1041.47 115.472 1041.74 115.447L1043.34 115.28L1049.77 114.617L1056.18 113.762L1057.79 113.548L1058.59 113.441C1058.86 113.405 1059.12 113.355 1059.39 113.314L1062.59 112.791L1065.79 112.267L1067.4 112.005C1067.93 111.91 1068.46 111.802 1068.99 111.701L1075.39 110.47C1076.45 110.278 1077.51 110.02 1078.58 109.792L1081.76 109.088L1084.95 108.383L1088.13 107.597C1099.86 104.751 1111.51 101.25 1123.08 97.2274L1125.55 130.05C1115.34 134.382 1105 138.321 1094.53 141.773L1091.22 142.876L1087.9 143.897L1084.57 144.918C1083.46 145.253 1082.35 145.616 1081.24 145.912L1074.54 147.773L1072.86 148.233L1071.18 148.652L1067.81 149.488L1064.44 150.323C1064.15 150.391 1063.88 150.467 1063.59 150.529L1062.74 150.713L1061.05 151.083L1054.26 152.555L1047.44 153.829L1045.74 154.147C1045.45 154.198 1045.17 154.255 1044.88 154.303L1044.03 154.437L1040.6 154.968L1037.17 155.5L1035.45 155.762L1033.73 155.974L1026.83 156.819L1025.97 156.921L1025.1 156.999L1023.37 157.155L1019.91 157.464L1016.45 157.773L1012.97 157.968L1009.5 158.163L1007.76 158.259L1006.89 158.307L1006.02 158.327L999.044 158.481L997.298 158.518L995.554 158.5L992.063 158.453L988.57 158.405L986.823 158.38L985.08 158.296L978.103 157.957C977.521 157.927 976.94 157.906 976.358 157.867L974.618 157.727L971.136 157.442L967.653 157.157C967.074 157.105 966.491 157.072 965.913 157.004L964.177 156.809L957.231 156.027C947.99 154.824 938.759 153.418 929.611 151.578L926.174 150.916C925.599 150.811 925.03 150.686 924.46 150.563L922.749 150.196L915.904 148.723C913.629 148.207 911.361 147.66 909.088 147.128L905.679 146.326C904.545 146.051 903.418 145.757 902.287 145.473L895.501 143.752L888.746 141.936L885.369 141.025L882.006 140.074L875.281 138.168C857.402 132.968 839.697 127.321 822.178 121.719C813.406 118.912 804.692 116.15 795.991 113.439C791.651 112.111 787.303 110.751 782.976 109.474C780.812 108.831 778.644 108.169 776.484 107.542L770.005 105.675C767.844 105.039 765.691 104.461 763.537 103.865L760.306 102.974C759.229 102.678 758.151 102.374 757.077 102.102C752.779 100.989 748.478 99.8318 744.194 98.8218L740.979 98.039L739.371 97.6475C738.835 97.5182 738.302 97.4046 737.766 97.2841L731.351 95.8478L729.748 95.4878L728.148 95.1611L724.949 94.5129L721.752 93.8646L720.154 93.5395L718.558 93.2548L712.18 92.1141L710.586 91.8311L708.996 91.5884L705.816 91.1013L702.638 90.6139C702.108 90.5353 701.578 90.4444 701.05 90.3763L699.465 90.1791L693.13 89.3846C692.603 89.3235 692.075 89.2396 691.549 89.196L689.97 89.046L686.815 88.7459C684.712 88.5522 682.607 88.3163 680.512 88.1944L677.368 87.9728C676.32 87.9048 675.271 87.8634 674.223 87.8061C673.175 87.7558 672.128 87.6913 671.08 87.6516L667.937 87.5518C651.177 87.0378 634.461 88.0273 617.928 90.3923C601.392 92.7416 585.046 96.5577 569.017 101.701C552.984 106.831 537.286 113.393 522.043 121.228L520.612 121.956L519.191 122.714L516.349 124.229C515.399 124.724 514.464 125.267 513.521 125.784L510.699 127.352C506.942 129.49 503.166 131.727 499.365 134.043C495.566 136.355 491.729 138.774 487.864 141.229L482.039 144.959L476.144 148.762C468.249 153.866 460.149 159.101 451.782 164.245C443.395 169.378 434.742 174.436 425.676 179.096C423.421 180.272 421.117 181.399 418.815 182.523L415.325 184.169C414.16 184.715 412.972 185.233 411.795 185.764C407.063 187.854 402.238 189.827 397.299 191.6C392.357 193.363 387.307 194.951 382.183 196.312L378.342 197.273L377.381 197.51C377.061 197.591 376.741 197.669 376.419 197.734L374.491 198.148C373.204 198.419 371.918 198.701 370.631 198.96L366.76 199.65L364.824 199.99L362.886 200.271L359.006 200.821C357.712 200.976 356.42 201.11 355.125 201.254L353.183 201.464C352.536 201.534 351.89 201.569 351.242 201.626L347.361 201.922C346.712 201.979 346.068 201.991 345.422 202.028L343.484 202.116C340.896 202.262 338.322 202.264 335.741 202.308C335.094 202.323 334.453 202.312 333.81 202.303L331.881 202.275L329.952 202.246L328.988 202.228L328.027 202.188L324.185 202.023L323.224 201.98L322.268 201.915L320.355 201.782C315.245 201.454 310.187 200.881 305.148 200.226L301.383 199.68C300.757 199.585 300.126 199.504 299.503 199.398L297.632 199.084L293.892 198.449L290.176 197.742L288.317 197.385L286.472 196.997L282.78 196.216L279.114 195.373L277.28 194.949C276.67 194.806 276.066 194.649 275.459 194.499L271.818 193.59C270.607 193.281 269.407 192.952 268.201 192.632C265.784 192.001 263.402 191.305 261.008 190.628C260.407 190.46 259.813 190.284 259.22 190.105L257.439 189.572C256.254 189.213 255.058 188.868 253.882 188.496C251.527 187.752 249.158 187.025 246.825 186.248L243.316 185.093L239.829 183.909L238.085 183.315L236.354 182.707L232.892 181.49C228.299 179.841 223.724 178.168 219.208 176.446C214.675 174.735 210.202 172.981 205.74 171.226C201.297 169.462 196.866 167.69 192.486 165.913L166.53 155.354C162.257 153.623 158.024 151.934 153.802 150.261C149.594 148.611 145.396 146.968 141.237 145.406C137.069 143.821 132.938 142.318 128.819 140.842L125.74 139.766L124.202 139.227L122.67 138.708L119.607 137.67L116.557 136.671C114.522 135.994 112.503 135.375 110.483 134.74C109.471 134.415 108.468 134.129 107.462 133.826C106.457 133.529 105.45 133.219 104.448 132.932L101.447 132.083L99.9484 131.66L98.4555 131.263L95.4722 130.468L92.5048 129.728C90.5237 129.216 88.5626 128.795 86.597 128.332C86.1048 128.213 85.6166 128.114 85.1281 128.01L83.6626 127.701L82.1971 127.392L81.465 127.236L80.7366 127.096C78.7956 126.733 76.8491 126.334 74.9255 126.031C73.9612 125.871 72.9958 125.697 72.0347 125.546L69.1618 125.128L67.7259 124.916L66.2994 124.743L63.4486 124.392L60.6161 124.111C59.6725 124.019 58.7279 123.914 57.7937 123.86L54.985 123.653C54.5155 123.612 54.0517 123.593 53.5877 123.573L52.1941 123.509L50.8017 123.442L50.1061 123.409L49.4146 123.395L46.6501 123.342C45.7225 123.307 44.8262 123.341 43.9204 123.353L41.2097 123.391C40.3077 123.384 39.4025 123.456 38.4991 123.5L35.7909 123.64C34.8888 123.667 33.9861 123.772 33.0841 123.851L30.3796 124.092C29.4787 124.152 28.5787 124.292 27.679 124.403L24.9807 124.744C17.7925 125.749 10.6496 127.286 3.59745 129.334C-4.70783 131.747 -12.8867 134.868 -20.8628 138.657L-30.7206 7.98988C-25.9536 6.69881 -21.1593 5.56275 -16.3397 4.58893L-16.3452 4.60177Z" fill="white"/>
</svg>
