<svg width="393" height="203" viewBox="0 0 393 203" fill="none" xmlns="http://www.w3.org/2000/svg">
<path opacity="0.05" d="M-4.34519 4.60177C6.05114 2.50209 16.5572 1.1496 27.1248 0.576569L31.0919 0.407492C32.4143 0.357599 33.7336 0.283255 35.0603 0.291303L39.036 0.269939C40.3608 0.269314 41.6838 0.244131 43.013 0.301462L46.9946 0.42802C48.3218 0.476678 49.6472 0.500748 50.9764 0.609323L54.9614 0.885752C56.2884 0.982139 57.6232 1.06199 58.9281 1.21142L62.8604 1.61763L63.8428 1.72278L64.8203 1.8495L66.7739 2.10309L68.7278 2.35845C69.379 2.44297 70.0302 2.52751 70.6753 2.63374L74.555 3.24037C75.8514 3.43288 77.1333 3.67431 78.417 3.90673L82.2653 4.61486L86.0871 5.40289L87.9968 5.79966L89.8924 6.23292L93.6816 7.10666C94.9395 7.41011 96.1885 7.73549 97.442 8.04991C99.9558 8.66405 102.428 9.37163 104.913 10.05L105.843 10.3078L106.766 10.5803L108.613 11.1254L110.459 11.6705C111.074 11.8516 111.69 12.0327 112.298 12.2285C114.735 13.0008 117.189 13.7471 119.598 14.5694L123.224 15.7834L126.82 17.0475L128.617 17.6796L130.401 18.3341L133.964 19.6468C135.149 20.0887 136.322 20.5475 137.501 20.9987C138.676 21.4538 139.862 21.8975 141.025 22.3677C143.36 23.3004 145.702 24.2217 148.009 25.1867L151.479 26.6237L154.923 28.0875L156.645 28.8213L158.353 29.5667L161.769 31.0592C166.298 33.0739 170.805 35.1097 175.25 37.1878C179.711 39.2557 184.108 41.3624 188.494 43.4683C192.86 45.581 197.211 47.7021 201.51 49.8239L226.98 62.4362C231.175 64.51 235.327 66.536 239.474 68.5483C243.607 70.5371 247.734 72.5175 251.824 74.4196C255.924 76.3421 259.992 78.1824 264.053 79.9951L267.09 81.3262L268.608 81.9917L270.121 82.6365L273.147 83.9278L276.162 85.1776C292.232 91.824 308.013 97.2061 323.477 100.612C327.336 101.429 331.188 102.197 335.003 102.751L336.436 102.971L337.153 103.082L337.866 103.17L340.719 103.53L341.432 103.622L342.142 103.691L343.562 103.83L344.982 103.97C345.456 104.017 345.93 104.067 346.399 104.092C348.28 104.21 350.173 104.381 352.041 104.422L353.447 104.477C353.915 104.49 354.388 104.527 354.852 104.521L357.649 104.539C358.116 104.538 358.585 104.558 359.048 104.543L360.439 104.507L363.223 104.437L365.99 104.274L367.376 104.197L368.752 104.067L371.508 103.817L374.248 103.471L375.618 103.301C375.847 103.277 376.075 103.24 376.301 103.2L376.982 103.088L379.708 102.646C383.319 102.003 386.941 101.189 390.604 100.214C394.266 99.2272 397.961 98.0557 401.683 96.7547C402.615 96.4169 403.545 96.1023 404.481 95.7501L407.292 94.6863C409.173 93.9388 411.054 93.2018 412.95 92.3912C420.52 89.2188 428.223 85.4862 436.059 81.4635C443.906 77.4151 451.887 73.0643 460.075 68.5941L466.247 65.2304L472.508 61.8489C476.713 59.5968 480.958 57.3431 485.291 55.1335C489.62 52.9224 494.013 50.7486 498.475 48.6432L501.839 47.0941C502.961 46.5836 504.078 46.0506 505.207 45.5659L508.587 44.0845L510.277 43.3455L511.974 42.6377C530.064 35.0394 548.502 29.0097 567.166 24.6541C585.827 20.2847 604.695 17.4866 623.645 16.362C642.592 15.2218 661.612 15.6657 680.566 17.7917L684.119 18.1954C685.304 18.3388 686.486 18.5053 687.67 18.6593C688.853 18.8204 690.037 18.9657 691.22 19.1392L694.766 19.6777C697.134 20.0123 699.483 20.4632 701.836 20.8731L705.364 21.4997L707.127 21.8148C707.716 21.9133 708.298 22.0512 708.884 22.1658L715.896 23.6204L717.648 23.9859C718.232 24.1077 718.809 24.2548 719.391 24.3892L722.874 25.2085L726.356 26.0297L728.096 26.4403L729.826 26.8889L736.741 28.6995L738.468 29.1518L740.186 29.642L743.62 30.6226L747.052 31.6032L748.767 32.0972L750.473 32.6202L757.292 34.7178C757.859 34.894 758.429 35.0629 758.994 35.2464L760.688 35.8004L764.074 36.9085C768.599 38.3563 773.073 39.9337 777.559 41.4749C778.683 41.8546 779.794 42.262 780.909 42.6619L784.252 43.8655C786.479 44.6692 788.713 45.4599 790.923 46.2968L797.567 48.7761C799.781 49.6056 801.977 50.4631 804.182 51.3056C808.597 52.9833 812.966 54.7248 817.352 56.4402C826.089 59.9074 834.799 63.4139 843.443 66.9205C860.755 73.9405 877.893 80.8688 895.006 87.2991L901.418 89.658L904.624 90.8374L907.827 91.9711L914.236 94.2365L920.64 96.3981C921.708 96.756 922.776 97.1262 923.844 97.4734L927.046 98.4941C929.18 99.1711 931.317 99.8673 933.451 100.528L939.856 102.439L941.459 102.918C941.993 103.077 942.526 103.238 943.061 103.382L946.264 104.265C954.809 106.696 963.353 108.693 971.906 110.513L978.32 111.76L979.923 112.073C980.458 112.179 980.992 112.252 981.527 112.344L984.733 112.868L987.941 113.394L989.545 113.657C990.08 113.737 990.613 113.797 991.148 113.87L997.56 114.706L999.164 114.916L1000.76 115.067L1003.97 115.372L1007.17 115.679L1008.78 115.829L1010.38 115.924L1016.79 116.307L1017.6 116.355L1018.4 116.376L1020 116.416L1023.21 116.498L1026.43 116.581L1029.64 116.557L1032.85 116.532L1034.46 116.521L1035.26 116.515L1036.07 116.485L1042.49 116.226L1044.1 116.161L1045.71 116.048L1048.92 115.815L1052.13 115.584L1052.94 115.527C1053.21 115.505 1053.47 115.472 1053.74 115.447L1055.34 115.28L1061.77 114.617L1068.18 113.762L1069.79 113.548L1070.59 113.441C1070.86 113.405 1071.12 113.355 1071.39 113.314L1074.59 112.791L1077.79 112.267L1079.4 112.005C1079.93 111.91 1080.46 111.802 1080.99 111.701L1087.39 110.47C1088.45 110.278 1089.51 110.02 1090.58 109.792L1093.76 109.088L1096.95 108.383L1100.13 107.597C1111.86 104.751 1123.51 101.25 1135.08 97.2274L1137.55 130.05C1127.34 134.382 1117 138.321 1106.53 141.773L1103.22 142.876L1099.9 143.897L1096.57 144.918C1095.46 145.253 1094.35 145.616 1093.24 145.912L1086.54 147.773L1084.86 148.233L1083.18 148.652L1079.81 149.488L1076.44 150.323C1076.15 150.391 1075.88 150.467 1075.59 150.529L1074.74 150.713L1073.05 151.083L1066.26 152.555L1059.44 153.829L1057.74 154.147C1057.45 154.198 1057.17 154.255 1056.88 154.303L1056.03 154.437L1052.6 154.968L1049.17 155.5L1047.45 155.762L1045.73 155.974L1038.83 156.819L1037.97 156.921L1037.1 156.999L1035.37 157.155L1031.91 157.464L1028.45 157.773L1024.97 157.968L1021.5 158.163L1019.76 158.259L1018.89 158.307L1018.02 158.327L1011.04 158.481L1009.3 158.518L1007.55 158.5L1004.06 158.453L1000.57 158.405L998.823 158.38L997.08 158.296L990.103 157.957C989.521 157.927 988.94 157.906 988.358 157.867L986.618 157.727L983.136 157.442L979.653 157.157C979.074 157.105 978.491 157.072 977.913 157.004L976.177 156.809L969.231 156.027C959.99 154.824 950.759 153.418 941.611 151.578L938.174 150.916C937.599 150.811 937.03 150.686 936.46 150.563L934.749 150.196L927.904 148.723C925.629 148.207 923.361 147.66 921.088 147.128L917.679 146.326C916.545 146.051 915.418 145.757 914.287 145.473L907.501 143.752L900.746 141.936L897.369 141.025L894.006 140.074L887.281 138.168C869.402 132.968 851.697 127.321 834.178 121.719C825.406 118.912 816.692 116.15 807.991 113.439C803.651 112.111 799.303 110.751 794.976 109.474C792.812 108.831 790.644 108.169 788.484 107.542L782.005 105.675C779.844 105.039 777.691 104.461 775.537 103.865L772.306 102.974C771.229 102.678 770.151 102.374 769.077 102.102C764.779 100.989 760.478 99.8318 756.194 98.8218L752.979 98.039L751.371 97.6475C750.835 97.5182 750.302 97.4046 749.766 97.2841L743.351 95.8478L741.748 95.4878L740.148 95.1611L736.949 94.5129L733.752 93.8646L732.154 93.5395L730.558 93.2548L724.18 92.1141L722.586 91.8311L720.996 91.5884L717.816 91.1013L714.638 90.6139C714.108 90.5353 713.578 90.4444 713.05 90.3763L711.465 90.1791L705.13 89.3846C704.603 89.3235 704.075 89.2396 703.549 89.196L701.97 89.046L698.815 88.7459C696.712 88.5522 694.607 88.3163 692.512 88.1944L689.368 87.9728C688.32 87.9048 687.271 87.8634 686.223 87.8061C685.175 87.7558 684.128 87.6913 683.08 87.6516L679.937 87.5518C663.177 87.0378 646.461 88.0273 629.928 90.3923C613.392 92.7416 597.046 96.5577 581.017 101.701C564.984 106.831 549.286 113.393 534.043 121.228L532.612 121.956L531.191 122.714L528.349 124.229C527.399 124.724 526.464 125.267 525.521 125.784L522.699 127.352C518.942 129.49 515.166 131.727 511.365 134.043C507.566 136.355 503.729 138.774 499.864 141.229L494.039 144.959L488.144 148.762C480.249 153.866 472.149 159.101 463.782 164.245C455.395 169.378 446.742 174.436 437.676 179.096C435.421 180.272 433.117 181.399 430.815 182.523L427.325 184.169C426.16 184.715 424.972 185.233 423.795 185.764C419.063 187.854 414.238 189.827 409.299 191.6C404.357 193.363 399.307 194.951 394.183 196.312L390.342 197.273L389.381 197.51C389.061 197.591 388.741 197.669 388.419 197.734L386.491 198.148C385.204 198.419 383.918 198.701 382.631 198.96L378.76 199.65L376.824 199.99L374.886 200.271L371.006 200.821C369.712 200.976 368.42 201.11 367.125 201.254L365.183 201.464C364.536 201.534 363.89 201.569 363.242 201.626L359.361 201.922C358.712 201.979 358.068 201.991 357.422 202.028L355.484 202.116C352.896 202.262 350.322 202.264 347.741 202.308C347.094 202.323 346.453 202.312 345.81 202.303L343.881 202.275L341.952 202.246L340.988 202.228L340.027 202.188L336.185 202.023L335.224 201.98L334.268 201.915L332.355 201.782C327.245 201.454 322.187 200.881 317.148 200.226L313.383 199.68C312.757 199.585 312.126 199.504 311.503 199.398L309.632 199.084L305.892 198.449L302.176 197.742L300.317 197.385L298.472 196.997L294.78 196.216L291.114 195.373L289.28 194.949C288.67 194.806 288.066 194.649 287.459 194.499L283.818 193.59C282.607 193.281 281.407 192.952 280.201 192.632C277.784 192.001 275.402 191.305 273.008 190.628C272.407 190.46 271.813 190.284 271.22 190.105L269.439 189.572C268.254 189.213 267.058 188.868 265.882 188.496C263.527 187.752 261.158 187.025 258.825 186.248L255.316 185.093L251.829 183.909L250.085 183.315L248.354 182.707L244.892 181.49C240.299 179.841 235.724 178.168 231.208 176.446C226.675 174.735 222.202 172.981 217.74 171.226C213.297 169.462 208.866 167.69 204.486 165.913L178.53 155.354C174.257 153.623 170.024 151.934 165.802 150.261C161.594 148.611 157.396 146.968 153.237 145.406C149.069 143.821 144.938 142.318 140.819 140.842L137.74 139.766L136.202 139.227L134.67 138.708L131.607 137.67L128.557 136.671C126.522 135.994 124.503 135.375 122.483 134.74C121.471 134.415 120.468 134.129 119.462 133.826C118.457 133.529 117.45 133.219 116.448 132.932L113.447 132.083L111.948 131.66L110.455 131.263L107.472 130.468L104.505 129.728C102.524 129.216 100.563 128.795 98.597 128.332C98.1048 128.213 97.6166 128.114 97.1281 128.01L95.6626 127.701L94.1971 127.392L93.465 127.236L92.7366 127.096C90.7956 126.733 88.8491 126.334 86.9255 126.031C85.9612 125.871 84.9958 125.697 84.0347 125.546L81.1618 125.128L79.7259 124.916L78.2994 124.743L75.4486 124.392L72.6161 124.111C71.6725 124.019 70.7279 123.914 69.7937 123.86L66.985 123.653C66.5155 123.612 66.0517 123.593 65.5877 123.573L64.1941 123.509L62.8017 123.442L62.1061 123.409L61.4146 123.395L58.6501 123.342C57.7225 123.307 56.8262 123.341 55.9204 123.353L53.2097 123.391C52.3077 123.384 51.4025 123.456 50.4991 123.5L47.7909 123.64C46.8888 123.667 45.9861 123.772 45.0841 123.851L42.3796 124.092C41.4787 124.152 40.5787 124.292 39.679 124.403L36.9807 124.744C29.7925 125.749 22.6496 127.286 15.5974 129.334C7.29217 131.747 -0.886684 134.868 -8.86279 138.657L-18.7206 7.98988C-13.9536 6.69881 -9.15926 5.56275 -4.33967 4.58893L-4.34519 4.60177Z" fill="white"/>
</svg>
