<svg width="393" height="203" viewBox="0 0 393 203" fill="none" xmlns="http://www.w3.org/2000/svg">
<path opacity="0.05" d="M-424.345 4.60177C-413.949 2.50209 -403.443 1.1496 -392.875 0.576569L-388.908 0.407492C-387.586 0.357599 -386.266 0.283255 -384.94 0.291303L-380.964 0.269939C-379.639 0.269314 -378.316 0.244131 -376.987 0.301462L-373.005 0.42802C-371.678 0.476678 -370.353 0.500748 -369.024 0.609323L-365.039 0.885752C-363.712 0.982139 -362.377 1.06199 -361.072 1.21142L-357.14 1.61763L-356.157 1.72278L-355.18 1.8495L-353.226 2.10309L-351.272 2.35845C-350.621 2.44297 -349.97 2.52751 -349.325 2.63374L-345.445 3.24037C-344.149 3.43288 -342.867 3.67431 -341.583 3.90673L-337.735 4.61486L-333.913 5.40289L-332.003 5.79966L-330.108 6.23292L-326.318 7.10666C-325.061 7.41011 -323.811 7.73549 -322.558 8.04991C-320.044 8.66405 -317.572 9.37163 -315.087 10.05L-314.157 10.3078L-313.234 10.5803L-311.387 11.1254L-309.541 11.6705C-308.926 11.8516 -308.31 12.0327 -307.702 12.2285C-305.265 13.0008 -302.811 13.7471 -300.402 14.5694L-296.776 15.7834L-293.18 17.0475L-291.383 17.6796L-289.599 18.3341L-286.036 19.6468C-284.851 20.0887 -283.678 20.5475 -282.499 20.9987C-281.324 21.4538 -280.138 21.8975 -278.975 22.3677C-276.64 23.3004 -274.298 24.2217 -271.991 25.1867L-268.521 26.6237L-265.077 28.0875L-263.355 28.8213L-261.647 29.5667L-258.231 31.0592C-253.702 33.0739 -249.195 35.1097 -244.75 37.1878C-240.289 39.2557 -235.892 41.3624 -231.506 43.4683C-227.14 45.581 -222.789 47.7021 -218.49 49.8239L-193.02 62.4362C-188.825 64.51 -184.673 66.536 -180.526 68.5483C-176.393 70.5371 -172.266 72.5175 -168.176 74.4196C-164.076 76.3421 -160.008 78.1824 -155.947 79.9951L-152.91 81.3262L-151.392 81.9917L-149.879 82.6365L-146.853 83.9278L-143.838 85.1776C-127.768 91.824 -111.987 97.2061 -96.5231 100.612C-92.664 101.429 -88.8125 102.197 -84.9967 102.751L-83.564 102.971L-82.847 103.082L-82.1342 103.17L-79.2814 103.53L-78.5684 103.622L-77.8584 103.691L-76.4384 103.83L-75.0183 103.97C-74.5444 104.017 -74.0704 104.067 -73.6008 104.092C-71.7199 104.21 -69.8272 104.381 -67.9585 104.422L-66.5527 104.477C-66.0853 104.49 -65.6122 104.527 -65.1476 104.521L-62.3506 104.539C-61.8843 104.538 -61.4151 104.558 -60.9524 104.543L-59.5612 104.507L-56.7774 104.437L-54.0096 104.274L-52.6241 104.197L-51.2478 104.067L-48.4919 103.817L-45.7523 103.471L-44.3816 103.301C-44.1528 103.277 -43.925 103.24 -43.6987 103.2L-43.0181 103.088L-40.2922 102.646C-36.6814 102.003 -33.0587 101.189 -29.396 100.214C-25.7342 99.2272 -22.0394 98.0557 -18.3167 96.7547C-17.3846 96.4169 -16.4548 96.1023 -15.5186 95.7501L-12.7081 94.6863C-10.8273 93.9388 -8.9458 93.2018 -7.05024 92.3912C0.520308 89.2188 8.22315 85.4862 16.0591 81.4635C23.9062 77.4151 31.8868 73.0643 40.0747 68.5941L46.2473 65.2304L52.5084 61.8489C56.7131 59.5968 60.9581 57.3431 65.291 55.1335C69.6199 52.9224 74.0129 50.7486 78.4748 48.6432L81.8388 47.0941C82.9611 46.5836 84.0777 46.0506 85.207 45.5659L88.5866 44.0845L90.2766 43.3455L91.974 42.6377C110.064 35.0394 128.502 29.0097 147.166 24.6541C165.827 20.2847 184.695 17.4866 203.645 16.362C222.592 15.2218 241.612 15.6657 260.566 17.7917L264.119 18.1954C265.304 18.3388 266.486 18.5053 267.67 18.6593C268.853 18.8204 270.037 18.9657 271.22 19.1392L274.766 19.6777C277.134 20.0123 279.483 20.4632 281.836 20.8731L285.364 21.4997L287.127 21.8148C287.716 21.9133 288.298 22.0512 288.884 22.1658L295.896 23.6204L297.648 23.9859C298.232 24.1077 298.809 24.2548 299.391 24.3892L302.874 25.2085L306.356 26.0297L308.096 26.4403L309.826 26.8889L316.741 28.6995L318.468 29.1518L320.186 29.642L323.62 30.6226L327.052 31.6032L328.767 32.0972L330.473 32.6202L337.292 34.7178C337.859 34.894 338.429 35.0629 338.994 35.2464L340.688 35.8004L344.074 36.9085C348.599 38.3563 353.073 39.9337 357.559 41.4749C358.683 41.8546 359.794 42.262 360.909 42.6619L364.252 43.8655C366.479 44.6692 368.713 45.4599 370.923 46.2968L377.567 48.7761C379.781 49.6056 381.977 50.4631 384.182 51.3056C388.597 52.9833 392.966 54.7248 397.352 56.4402C406.089 59.9074 414.799 63.4139 423.443 66.9205C440.755 73.9405 457.893 80.8688 475.006 87.2991L481.418 89.658L484.624 90.8374L487.827 91.9711L494.236 94.2365L500.64 96.3981C501.708 96.756 502.776 97.1262 503.844 97.4734L507.046 98.4941C509.18 99.1711 511.317 99.8673 513.451 100.528L519.856 102.439L521.459 102.918C521.993 103.077 522.526 103.238 523.061 103.382L526.264 104.265C534.809 106.696 543.353 108.693 551.906 110.513L558.32 111.76L559.923 112.073C560.458 112.179 560.992 112.252 561.527 112.344L564.733 112.868L567.941 113.394L569.545 113.657C570.08 113.737 570.613 113.797 571.148 113.87L577.56 114.706L579.164 114.916L580.765 115.067L583.969 115.372L587.175 115.679L588.778 115.829L590.38 115.924L596.793 116.307L597.596 116.355L598.398 116.376L600.002 116.416L603.213 116.498L606.426 116.581L609.638 116.557L612.851 116.532L614.459 116.521L615.262 116.515L616.065 116.485L622.493 116.226L624.101 116.161L625.706 116.048L628.919 115.815L632.134 115.584L632.937 115.527C633.206 115.505 633.473 115.472 633.741 115.447L635.345 115.28L641.768 114.617L648.182 113.762L649.786 113.548L650.589 113.441C650.856 113.405 651.123 113.355 651.389 113.314L654.591 112.791L657.794 112.267L659.396 112.005C659.929 111.91 660.461 111.802 660.994 111.701L667.386 110.47C668.454 110.278 669.513 110.02 670.576 109.792L673.764 109.088L676.955 108.383L680.134 107.597C691.856 104.751 703.505 101.25 715.075 97.2274L717.551 130.05C707.339 134.382 696.999 138.321 686.525 141.773L683.22 142.876L679.896 143.897L676.569 144.918C675.458 145.253 674.353 145.616 673.236 145.912L666.538 147.773L664.862 148.233L663.178 148.652L659.808 149.488L656.436 150.323C656.155 150.391 655.875 150.467 655.592 150.529L654.745 150.713L653.049 151.083L646.265 152.555L639.443 153.829L637.737 154.147C637.453 154.198 637.168 154.255 636.884 154.303L636.027 154.437L632.598 154.968L629.167 155.5L627.45 155.762L625.727 155.974L618.833 156.819L617.971 156.921L617.105 156.999L615.375 157.155L611.912 157.464L608.448 157.773L604.974 157.968L601.497 158.163L599.759 158.259L598.89 158.307L598.019 158.327L591.044 158.481L589.298 158.518L587.554 158.5L584.063 158.453L580.57 158.405L578.823 158.38L577.08 158.296L570.103 157.957C569.521 157.927 568.94 157.906 568.358 157.867L566.618 157.727L563.136 157.442L559.653 157.157C559.074 157.105 558.491 157.072 557.913 157.004L556.177 156.809L549.231 156.027C539.99 154.824 530.759 153.418 521.611 151.578L518.174 150.916C517.599 150.811 517.03 150.686 516.46 150.563L514.749 150.196L507.904 148.723C505.629 148.207 503.361 147.66 501.088 147.128L497.679 146.326C496.545 146.051 495.418 145.757 494.287 145.473L487.501 143.752L480.746 141.936L477.369 141.025L474.006 140.074L467.281 138.168C449.402 132.968 431.697 127.321 414.178 121.719C405.406 118.912 396.692 116.15 387.991 113.439C383.651 112.111 379.303 110.751 374.976 109.474C372.812 108.831 370.644 108.169 368.484 107.542L362.005 105.675C359.844 105.039 357.691 104.461 355.537 103.865L352.306 102.974C351.229 102.678 350.151 102.374 349.077 102.102C344.779 100.989 340.478 99.8318 336.194 98.8218L332.979 98.039L331.371 97.6475C330.835 97.5182 330.302 97.4046 329.766 97.2841L323.351 95.8478L321.748 95.4878L320.148 95.1611L316.949 94.5129L313.752 93.8646L312.154 93.5395L310.558 93.2548L304.18 92.1141L302.586 91.8311L300.996 91.5884L297.816 91.1013L294.638 90.6139C294.108 90.5353 293.578 90.4444 293.05 90.3763L291.465 90.1791L285.13 89.3846C284.603 89.3235 284.075 89.2396 283.549 89.196L281.97 89.046L278.815 88.7459C276.712 88.5522 274.607 88.3163 272.512 88.1944L269.368 87.9728C268.32 87.9048 267.271 87.8634 266.223 87.8061C265.175 87.7558 264.128 87.6913 263.08 87.6516L259.937 87.5518C243.177 87.0378 226.461 88.0273 209.928 90.3923C193.392 92.7416 177.046 96.5577 161.017 101.701C144.984 106.831 129.286 113.393 114.043 121.228L112.612 121.956L111.191 122.714L108.349 124.229C107.399 124.724 106.464 125.267 105.521 125.784L102.699 127.352C98.9419 129.49 95.1659 131.727 91.3648 134.043C87.5659 136.355 83.7294 138.774 79.8644 141.229L74.0386 144.959L68.1441 148.762C60.2489 153.866 52.1488 159.101 43.7825 164.245C35.3945 169.378 26.7417 174.436 17.6758 179.096C15.4209 180.272 13.1167 181.399 10.8149 182.523L7.32531 184.169C6.16015 184.715 4.97203 185.233 3.79534 185.764C-0.937425 187.854 -5.76242 189.827 -10.7015 191.6C-15.6426 193.363 -20.6934 194.951 -25.8173 196.312L-29.6582 197.273L-30.6186 197.51C-30.9395 197.591 -31.2593 197.669 -31.5814 197.734L-33.5095 198.148C-34.7957 198.419 -36.0823 198.701 -37.3694 198.96L-41.2399 199.65L-43.1762 199.99L-45.1143 200.271L-48.994 200.821C-50.2876 200.976 -51.5802 201.11 -52.8748 201.254L-54.817 201.464C-55.4643 201.534 -56.1104 201.569 -56.7575 201.626L-60.6394 201.922C-61.2878 201.979 -61.9318 201.991 -62.5777 202.028L-64.5161 202.116C-67.104 202.262 -69.678 202.264 -72.2594 202.308C-72.9057 202.323 -73.5474 202.312 -74.1904 202.303L-76.1192 202.275L-78.0482 202.246L-79.0123 202.228L-79.9728 202.188L-83.8152 202.023L-84.776 201.98L-85.7319 201.915L-87.6452 201.782C-92.7545 201.454 -97.8133 200.881 -102.852 200.226L-106.617 199.68C-107.243 199.585 -107.874 199.504 -108.497 199.398L-110.368 199.084L-114.108 198.449L-117.824 197.742L-119.683 197.385L-121.528 196.997L-125.22 196.216L-128.886 195.373L-130.72 194.949C-131.33 194.806 -131.934 194.649 -132.541 194.499L-136.182 193.59C-137.393 193.281 -138.593 192.952 -139.799 192.632C-142.216 192.001 -144.598 191.305 -146.992 190.628C-147.593 190.46 -148.187 190.284 -148.78 190.105L-150.561 189.572C-151.746 189.213 -152.942 188.868 -154.118 188.496C-156.473 187.752 -158.842 187.025 -161.175 186.248L-164.684 185.093L-168.171 183.909L-169.915 183.315L-171.646 182.707L-175.108 181.49C-179.701 179.841 -184.276 178.168 -188.792 176.446C-193.325 174.735 -197.798 172.981 -202.26 171.226C-206.703 169.462 -211.134 167.69 -215.514 165.913L-241.47 155.354C-245.743 153.623 -249.976 151.934 -254.198 150.261C-258.406 148.611 -262.604 146.968 -266.763 145.406C-270.931 143.821 -275.062 142.318 -279.181 140.842L-282.26 139.766L-283.798 139.227L-285.33 138.708L-288.393 137.67L-291.443 136.671C-293.478 135.994 -295.497 135.375 -297.517 134.74C-298.529 134.415 -299.532 134.129 -300.538 133.826C-301.543 133.529 -302.55 133.219 -303.552 132.932L-306.553 132.083L-308.052 131.66L-309.545 131.263L-312.528 130.468L-315.495 129.728C-317.476 129.216 -319.437 128.795 -321.403 128.332C-321.895 128.213 -322.383 128.114 -322.872 128.01L-324.337 127.701L-325.803 127.392L-326.535 127.236L-327.263 127.096C-329.204 126.733 -331.151 126.334 -333.074 126.031C-334.039 125.871 -335.004 125.697 -335.965 125.546L-338.838 125.128L-340.274 124.916L-341.701 124.743L-344.551 124.392L-347.384 124.111C-348.328 124.019 -349.272 123.914 -350.206 123.86L-353.015 123.653C-353.484 123.612 -353.948 123.593 -354.412 123.573L-355.806 123.509L-357.198 123.442L-357.894 123.409L-358.585 123.395L-361.35 123.342C-362.277 123.307 -363.174 123.341 -364.08 123.353L-366.79 123.391C-367.692 123.384 -368.597 123.456 -369.501 123.5L-372.209 123.64C-373.111 123.667 -374.014 123.772 -374.916 123.851L-377.62 124.092C-378.521 124.152 -379.421 124.292 -380.321 124.403L-383.019 124.744C-390.207 125.749 -397.35 127.286 -404.403 129.334C-412.708 131.747 -420.887 134.868 -428.863 138.657L-438.721 7.98988C-433.954 6.69881 -429.159 5.56275 -424.34 4.58893L-424.345 4.60177Z" fill="white"/>
</svg>
