<svg width="44" height="31" viewBox="0 0 44 31" fill="none" xmlns="http://www.w3.org/2000/svg">
<path opacity="0.25" d="M0 9.65173C0 14.6226 4.03128 18.6545 9.00127 18.6545C13.9713 18.6545 18.0024 14.6226 18.0024 9.65173C18.0024 4.68087 13.9713 0.648926 9.00127 0.648926C4.03128 0.648926 0 4.68087 0 9.65173Z" fill="url(#paint0_radial_1479_19535)"/>
<path d="M16.7748 7.39853C16.7748 4.64857 14.5456 2.41895 11.7962 2.41895C9.04667 2.41895 6.81741 4.64857 6.82032 7.39853C6.82032 10.1485 9.04951 12.3781 11.799 12.3781C14.5485 12.3781 16.7777 10.1485 16.7777 7.39853H16.7748Z" fill="url(#paint1_radial_1479_19535)"/>
<path opacity="0.25" d="M22.168 15.9363C22.168 18.1194 23.9379 19.8927 26.1236 19.8927C28.3063 19.8927 30.0793 18.1223 30.0793 15.9363C30.0793 13.7532 28.3092 11.98 26.1236 11.98C23.9409 11.98 22.168 13.7503 22.168 15.9363Z" fill="url(#paint2_radial_1479_19535)"/>
<path d="M29.5382 14.9439C29.5382 13.7348 28.5588 12.7554 27.3497 12.7554C26.1406 12.7554 25.1641 13.7348 25.1641 14.9439C25.1641 16.153 26.1435 17.1296 27.3525 17.1296C28.5616 17.1296 29.5382 16.1501 29.5382 14.9439Z" fill="url(#paint3_radial_1479_19535)"/>
<path opacity="0.25" d="M32.7891 5.18305C32.7891 8.04638 35.1084 10.3661 37.9712 10.3661C40.8341 10.3661 43.1534 8.04638 43.1534 5.18305C43.1534 2.31972 40.8341 0 37.9712 0C35.1084 0 32.7891 2.31972 32.7891 5.18305Z" fill="url(#paint4_radial_1479_19535)"/>
<path d="M42.4462 3.88674C42.4462 2.30246 41.1616 1.02051 39.5805 1.02051C37.9965 1.02051 36.7148 2.30537 36.7148 3.88674C36.7148 5.47102 37.9965 6.75298 39.5805 6.75298C41.1645 6.75298 42.4462 5.46811 42.4462 3.88674Z" fill="url(#paint5_radial_1479_19535)"/>
<path opacity="0.25" d="M21.3438 20.8491C21.3438 21.692 22.0268 22.3721 22.8668 22.3721C23.7097 22.3721 24.3897 21.6891 24.3897 20.8491C24.3897 20.0063 23.7067 19.3262 22.8668 19.3262C22.0268 19.3262 21.3438 20.0092 21.3438 20.8491Z" fill="url(#paint6_radial_1479_19535)"/>
<path d="M24.1857 20.4684C24.1857 20.0033 23.8079 19.6255 23.3428 19.6255C22.8778 19.6255 22.5 20.0033 22.5 20.4684C22.5 20.9334 22.8778 21.3112 23.3428 21.3112C23.8079 21.3112 24.1857 20.9334 24.1857 20.4684Z" fill="url(#paint7_radial_1479_19535)"/>
<path opacity="0.25" d="M29.3516 26.8898C29.3516 28.6689 30.7932 30.1107 32.5719 30.1107C34.3506 30.1107 35.7923 28.6689 35.7923 26.8898C35.7923 25.1108 34.3506 23.6689 32.5719 23.6689C30.7932 23.6689 29.3516 25.1108 29.3516 26.8898Z" fill="url(#paint8_radial_1479_19535)"/>
<path d="M35.3524 26.0834C35.3524 25.101 34.5559 24.3018 33.5707 24.3018C32.5883 24.3018 31.7891 25.0981 31.7891 26.0834C31.7891 27.0658 32.5854 27.865 33.5707 27.865C34.553 27.865 35.3524 27.0687 35.3524 26.0834Z" fill="url(#paint9_radial_1479_19535)"/>
<defs>
<radialGradient id="paint0_radial_1479_19535" cx="0" cy="0" r="1" gradientUnits="userSpaceOnUse" gradientTransform="translate(9.0012 9.64881) rotate(180) scale(9.0012 9.00279)">
<stop stop-color="white"/>
<stop offset="0.89" stop-color="white"/>
<stop offset="1" stop-color="white"/>
</radialGradient>
<radialGradient id="paint1_radial_1479_19535" cx="0" cy="0" r="1" gradientUnits="userSpaceOnUse" gradientTransform="translate(11.7961 7.39853) rotate(180) scale(4.97868 4.97958)">
<stop stop-color="white"/>
<stop offset="0.89" stop-color="white"/>
<stop offset="1" stop-color="white"/>
</radialGradient>
<radialGradient id="paint2_radial_1479_19535" cx="0" cy="0" r="1" gradientUnits="userSpaceOnUse" gradientTransform="translate(26.1236 15.9334) rotate(180) scale(3.95568 3.95635)">
<stop stop-color="white"/>
<stop offset="0.89" stop-color="white"/>
<stop offset="1" stop-color="white"/>
</radialGradient>
<radialGradient id="paint3_radial_1479_19535" cx="0" cy="0" r="1" gradientUnits="userSpaceOnUse" gradientTransform="translate(27.3526 14.9439) rotate(180) scale(2.18561 2.18564)">
<stop stop-color="white"/>
<stop offset="0.89" stop-color="white"/>
<stop offset="1" stop-color="white"/>
</radialGradient>
<radialGradient id="paint4_radial_1479_19535" cx="0" cy="0" r="1" gradientUnits="userSpaceOnUse" gradientTransform="translate(37.9712 5.18016) rotate(180) scale(5.18218 5.18307)">
<stop stop-color="white"/>
<stop offset="0.89" stop-color="white"/>
<stop offset="1" stop-color="white"/>
</radialGradient>
<radialGradient id="paint5_radial_1479_19535" cx="0" cy="0" r="1" gradientUnits="userSpaceOnUse" gradientTransform="translate(39.5805 3.88384) rotate(-180) scale(2.8657 2.86623)">
<stop stop-color="white"/>
<stop offset="0.89" stop-color="white"/>
<stop offset="1" stop-color="white"/>
</radialGradient>
<radialGradient id="paint6_radial_1479_19535" cx="0" cy="0" r="1" gradientUnits="userSpaceOnUse" gradientTransform="translate(22.8696 20.8491) rotate(180) scale(1.52297)">
<stop stop-color="white"/>
<stop offset="0.89" stop-color="white"/>
<stop offset="1" stop-color="white"/>
</radialGradient>
<radialGradient id="paint7_radial_1479_19535" cx="0" cy="0" r="1" gradientUnits="userSpaceOnUse" gradientTransform="translate(23.3457 20.4684) rotate(180) scale(0.842836 0.842871)">
<stop stop-color="white"/>
<stop offset="0.89" stop-color="white"/>
<stop offset="1" stop-color="white"/>
</radialGradient>
<radialGradient id="paint8_radial_1479_19535" cx="0" cy="0" r="1" gradientUnits="userSpaceOnUse" gradientTransform="translate(32.5719 26.8869) rotate(180) scale(3.22035 3.22087)">
<stop stop-color="white"/>
<stop offset="0.89" stop-color="white"/>
<stop offset="1" stop-color="white"/>
</radialGradient>
<radialGradient id="paint9_radial_1479_19535" cx="0" cy="0" r="1" gradientUnits="userSpaceOnUse" gradientTransform="translate(33.5736 26.0805) rotate(180) scale(1.78168 1.78164)">
<stop stop-color="white"/>
<stop offset="0.89" stop-color="white"/>
<stop offset="1" stop-color="white"/>
</radialGradient>
</defs>
</svg>
