<svg width="317" height="194" viewBox="0 0 317 194" fill="none" xmlns="http://www.w3.org/2000/svg">
<path fill-rule="evenodd" clip-rule="evenodd" d="M244.579 75.5123C265.138 73.3532 268.345 62.4287 276.857 50.9158C285.421 39.332 291.762 48.7309 287.833 54.496C283.903 60.2609 290.356 63.8188 299.941 51.5278C305.107 44.9046 306.606 43.5724 309.988 44.9233C315.619 47.1711 313.225 53.445 306.583 59.3606C294.562 70.067 264.748 77.8466 244.579 75.5123Z" fill="#5595D1"/>
<path fill-rule="evenodd" clip-rule="evenodd" d="M277.797 54.2667C274.986 57.5705 274.838 59.5977 267.747 67.8486C267.787 67.8213 274.596 62.8129 279.941 56.1757C281.535 54.4166 283.889 52.9707 282.561 51.6883C281.257 49.8514 279.134 52.8354 277.797 54.2667Z" fill="#7DBFEE"/>
<path fill-rule="evenodd" clip-rule="evenodd" d="M82.7188 99.6841C82.7188 99.6841 100.855 112.153 115.968 111.678C133.569 111.125 108.916 106.389 110.402 90.9883L82.7188 99.6841Z" fill="#28508B"/>
<path fill-rule="evenodd" clip-rule="evenodd" d="M31.9327 114.726C31.9327 114.726 29.4024 108.753 44.5135 98.6581C44.5135 98.6581 33.4997 62.0905 83.3576 48.0793C93.042 45.3578 102.202 44.4563 112.194 43.3303C112.459 43.301 125.672 35.946 130.072 34.5929C145.6 29.8146 165.333 28.9823 171.513 38.6862C174.579 43.5003 153.632 40.4672 158.851 57.0852C163.053 61.0653 175.555 69.4056 180.291 74.4866C202.965 98.8135 208.974 124.248 211.478 148.898C212.078 154.792 206.307 149.878 205.833 148.991C188.241 115.959 148.817 85.9756 75.3265 105.336C54.5836 110.801 35.1424 120.751 31.9327 114.726Z" fill="#28508B"/>
<path fill-rule="evenodd" clip-rule="evenodd" d="M200.736 140.478C198.674 137.391 196.401 134.37 193.906 131.455C172.671 106.642 135.371 89.5173 75.3232 105.336C54.9732 110.697 35.8795 120.373 32.1328 115.049C39.151 111.496 46.0512 108.088 53.0133 105.004C55.2474 104.015 60.7474 100.692 63.115 97.6216C67.2677 92.238 69.3156 91.2885 75.3664 89.0096C98.0782 80.4569 129.685 80.6855 157.172 92.8327C173.17 99.9014 187.237 111.894 195.059 125.713C197.746 130.461 199.697 135.424 200.736 140.478Z" fill="white"/>
<path fill-rule="evenodd" clip-rule="evenodd" d="M129.843 99.7116C124.76 99.2633 119.415 99.125 113.804 99.3259C108.801 94.8486 105.812 89.3535 104.082 83.2539C104.812 83.214 105.544 83.1823 106.279 83.1562L129.843 99.7116Z" fill="#C7C8C8"/>
<path fill-rule="evenodd" clip-rule="evenodd" d="M200.107 139.549C198.639 137.407 197.069 135.298 195.39 133.235C184.176 115.472 166.049 104.851 145.366 99.782C124.314 94.6229 100.616 95.2128 78.8459 99.8804C62.5347 103.378 47.3129 109.165 35.1038 116.535C34.6295 116.48 34.1967 116.386 33.8086 116.249C33.8436 116.127 33.9241 116.015 34.0421 115.943C46.4366 108.363 61.9717 102.416 78.6262 98.8455C100.538 94.1469 124.401 93.5554 145.614 98.7544C166.875 103.966 185.478 114.99 196.809 133.516C197.989 135.446 199.09 137.457 200.107 139.549Z" fill="#C7C8C8"/>
<path fill-rule="evenodd" clip-rule="evenodd" d="M200.737 140.479C200.447 140.044 200.153 139.613 199.855 139.182C197.226 133.129 193.812 127.651 189.86 122.757C182.194 113.264 172.506 105.955 162.614 100.869C144.811 91.7157 123.793 89.0153 102.969 90.8785C87.6129 92.2535 72.3659 96.11 58.5898 101.693C59.5711 100.994 60.5376 100.236 61.3854 99.4613C74.4023 94.5186 88.5925 91.1055 102.878 89.8273C123.887 87.9471 145.105 90.6784 163.098 99.9299C173.11 105.078 182.919 112.477 190.684 122.094C194.107 126.333 197.132 131.002 199.603 136.099C200.054 137.548 200.435 139.009 200.737 140.479Z" fill="#C7C8C8"/>
<path fill-rule="evenodd" clip-rule="evenodd" d="M183.219 187.471C189.409 186.184 207.324 180.511 208.93 152.309C208.978 151.47 216.726 181.638 250.81 183.637C250.81 183.637 247.667 152.792 212.857 145.041C209.617 144.319 205.593 127.236 203.798 126.055C190.073 117.026 206.949 136.122 201.523 145.773C200.299 147.953 183.669 149.755 183.219 187.471Z" fill="#28508B"/>
<path fill-rule="evenodd" clip-rule="evenodd" d="M108.397 89.3828C114.709 98.4407 127.987 107.036 141.351 108.981C151.489 110.457 149.534 107.688 143.931 102.89C134.572 94.8706 136.622 77.2267 135.831 76.6246C130.471 72.5517 117.682 75.0772 110.151 75.7118C97.5358 76.7776 101.622 79.6618 108.397 89.3828Z" fill="#28508B"/>
<path fill-rule="evenodd" clip-rule="evenodd" d="M68.9827 79.8191C68.9657 80.1112 68.7159 80.3333 68.423 80.3171C68.1325 80.3 67.9096 80.0494 67.9267 79.7581C68.0227 78.1171 68.5491 76.9577 69.2862 76.2328C69.7964 75.7299 70.4058 75.4362 71.0477 75.3362C71.6791 75.2369 72.3389 75.3272 72.9605 75.5908C73.9458 76.0074 74.8407 76.8625 75.3712 78.0829C75.4876 78.3498 75.3655 78.6614 75.0978 78.7785C74.8302 78.8957 74.5186 78.7728 74.403 78.506C73.9848 77.5451 73.2998 76.8804 72.5512 76.5623C72.1103 76.3751 71.6473 76.3109 71.2104 76.3792C70.7849 76.4467 70.3757 76.6452 70.0291 76.987C69.4652 77.5386 69.0617 78.4653 68.9827 79.8191Z" fill="white"/>
<path fill-rule="evenodd" clip-rule="evenodd" d="M33.11 115.085C32.8553 115.229 32.534 115.141 32.3891 114.887C32.2451 114.634 32.3346 114.311 32.5876 114.166C36.9144 111.713 41.2046 109.817 45.2149 108.047C55.6828 103.422 64.2199 99.6513 65.9773 89.1142C66.0262 88.8254 66.2987 88.6318 66.5859 88.679C66.8739 88.7278 67.0692 89.0003 67.0212 89.2884C65.1686 100.388 56.3963 104.264 45.6412 109.016C41.6472 110.78 37.3757 112.667 33.11 115.085Z" fill="#253758"/>
<path fill-rule="evenodd" clip-rule="evenodd" d="M183.888 176.487C184.648 174.113 185.412 172.088 186.223 170.271C188.227 165.77 190.488 162.565 193.578 158.571C199.718 150.633 205.931 144.458 205.949 144.438C206.148 144.226 206.482 144.215 206.694 144.413C206.829 144.539 206.883 144.72 206.853 144.888L206.856 144.889C205.13 154.666 202.466 162.819 198.506 170.611C195.582 176.366 192.075 181.537 188.022 186.061C187.28 186.344 186.573 186.582 185.916 186.781C190.469 181.998 194.368 176.421 197.561 170.135C201.228 162.918 203.818 155.214 205.552 146.25C203.397 148.625 198.908 153.406 194.413 159.218C191.37 163.151 189.144 166.303 187.186 170.702C185.87 173.658 184.668 177.185 183.414 181.895C183.53 179.988 183.688 178.185 183.888 176.487Z" fill="#466A9E"/>
<path fill-rule="evenodd" clip-rule="evenodd" d="M206.35 144.981C206.269 144.702 206.15 144.409 206.43 144.328C215.785 147.356 229.453 157.727 232.584 160.502C238.904 166.106 244.617 172.836 250.428 181.384C250.722 182.802 250.808 183.635 250.808 183.635C250.757 183.632 250.709 183.627 250.658 183.625C244.511 174.359 238.533 167.187 231.884 161.293C224.949 155.144 217.273 150.376 207.905 146.055C209.659 149.758 214.564 156.238 220.39 162.465C225.903 168.358 232.227 174.001 237.468 176.824C243.6 180.126 247.55 182.276 249.915 183.571C249.003 183.502 248.106 183.416 247.231 183.308C244.852 182.013 241.517 180.206 236.968 177.757C231.623 174.878 225.204 169.155 219.621 163.186C212.89 155.991 207.35 148.402 206.35 144.981Z" fill="#466A9E"/>
<path fill-rule="evenodd" clip-rule="evenodd" d="M205.337 129.805C199.876 108.831 191.374 89.3137 159.68 66.0225C159.272 64.9485 158.633 61.5997 159.714 61.8601C161.736 62.3458 165.033 65.3236 168.512 67.5488C185.829 78.6294 204.005 108.905 205.337 129.805Z" fill="#466A9E"/>
<path fill-rule="evenodd" clip-rule="evenodd" d="M127.535 37.8298C134.409 34.7292 151.542 29.933 161.92 35.3524C152.012 33.7805 140.268 35.7779 128.955 40.9085C125.872 42.4227 122.726 45.4574 121.429 43.7716C118.823 41.5643 126.256 38.4734 127.535 37.8298Z" fill="#466A9E"/>
<path fill-rule="evenodd" clip-rule="evenodd" d="M95.0941 101.163C96.8043 102.933 99.3517 104.442 102.125 105.681C107.879 108.249 114.552 109.628 116.915 109.784C112.943 108.27 106.585 105.235 102.426 100.173C102.853 100.127 103.276 100.083 103.7 100.039C109.873 107.065 120.415 109.859 120.795 109.959C121.036 110.015 121.212 110.236 121.201 110.492C121.189 110.784 120.944 111.011 120.652 111.001L117.063 110.85C114.816 110.757 107.738 109.343 101.696 106.644C98.5479 105.239 95.6653 103.477 93.8477 101.359C94.2642 101.292 94.6784 101.229 95.0941 101.163Z" fill="#466A9E"/>
<path fill-rule="evenodd" clip-rule="evenodd" d="M113.721 73.891C113.77 73.6029 114.043 73.4093 114.331 73.4589C114.619 73.5077 114.813 73.7811 114.764 74.0683C113.627 80.5845 115.478 86.2977 118.582 90.9776C123.098 97.785 130.246 102.407 134.77 104.147C142.478 107.111 145.399 107.404 145.408 107.404C145.698 107.435 145.908 107.697 145.875 107.988C145.844 108.278 145.583 108.487 145.292 108.456C145.282 108.456 142.239 108.15 134.393 105.132C129.724 103.336 122.351 98.571 117.7 91.5601C114.461 86.6784 112.532 80.709 113.721 73.891Z" fill="#466A9E"/>
<path fill-rule="evenodd" clip-rule="evenodd" d="M117.76 77.821C117.704 77.533 117.891 77.2555 118.178 77.1994C118.465 77.1433 118.743 77.3304 118.799 77.6176C119.991 83.6831 123.381 89.1196 127.776 93.7816C133.388 99.7307 140.638 104.415 147.076 107.528C147.338 107.654 147.448 107.971 147.322 108.235C147.195 108.497 146.879 108.607 146.617 108.481C140.082 105.319 132.718 100.561 127.007 94.5057C122.484 89.7111 118.994 84.1013 117.76 77.821Z" fill="#466A9E"/>
<path fill-rule="evenodd" clip-rule="evenodd" d="M75.2961 75.065C75.2033 74.8949 75.266 74.6793 75.4368 74.5866C75.6069 74.493 75.8216 74.5548 75.9152 74.7257C76.1634 75.1773 76.2293 75.5979 76.1674 75.9632C76.1129 76.2838 75.96 76.5563 75.7419 76.7654C75.5312 76.9688 75.2594 77.1112 74.9584 77.1771C74.5557 77.2666 74.0992 77.2194 73.6729 77.0038C73.4996 76.9151 73.4304 76.702 73.5191 76.5287C73.607 76.3554 73.8202 76.2854 73.9943 76.3741C74.2693 76.514 74.5573 76.5449 74.8071 76.4896C74.9804 76.4522 75.1358 76.3708 75.2537 76.2569C75.3652 76.1503 75.4433 76.0096 75.4718 75.8452C75.5076 75.6288 75.4604 75.3636 75.2961 75.065Z" fill="white"/>
<path fill-rule="evenodd" clip-rule="evenodd" d="M76.8327 76.8496C76.8701 76.6584 77.0548 76.5331 77.246 76.5697C77.4372 76.6055 77.5625 76.791 77.5267 76.9822C77.447 77.3923 77.2477 77.699 76.9784 77.9073C76.7074 78.1172 76.3706 78.2246 76.0175 78.2393C75.6831 78.2531 75.3308 78.1815 75.0151 78.035C74.5798 77.8333 74.2031 77.4891 74.0079 77.0262C73.933 76.8472 74.0168 76.6405 74.195 76.5648C74.3748 76.4892 74.5815 76.5738 74.6563 76.752C74.7775 77.0424 75.0233 77.2621 75.3105 77.3947C75.5277 77.4948 75.7661 77.5444 75.9906 77.5347C76.1989 77.5273 76.3942 77.4663 76.5447 77.35C76.6846 77.2418 76.7904 77.0758 76.8327 76.8496Z" fill="white"/>
<path fill-rule="evenodd" clip-rule="evenodd" d="M47.5288 77.3769C48.6915 74.2063 49.999 71.7305 51.8857 68.9284C55.6869 63.6326 59.8168 59.6663 65.6561 56.7047C66.1865 56.4427 66.6356 56.1238 67.1441 55.8334C67.3711 55.7064 68.6233 55.1011 68.7917 55.5356C68.7819 55.6177 67.8487 56.4224 67.7129 56.5615C67.258 57.0473 66.9009 57.4362 66.3614 57.8446C61.2902 61.7491 57.9943 65.2078 54.5169 70.6353C52.9182 73.2722 51.7759 75.6211 50.7231 78.5151C49.6865 81.6866 49.4571 86.8839 47.3669 86.3893C44.106 86.5723 47.0838 78.7909 47.5288 77.3769Z" fill="#466A9E"/>
<path d="M182.203 60.5996V45.4273L183.191 46.5077H178.571V44.5077H184.479V60.5996H182.203ZM188.114 64.0019L189.263 59.3582L189.562 60.6916C189.117 60.6916 188.742 60.5536 188.435 60.2778C188.144 60.0019 187.999 59.6264 187.999 59.1513C187.999 58.6916 188.144 58.3161 188.435 58.0249C188.742 57.7337 189.11 57.5881 189.539 57.5881C189.983 57.5881 190.343 57.7414 190.619 58.0479C190.895 58.3391 191.033 58.7069 191.033 59.1513C191.033 59.3046 191.018 59.4579 190.987 59.6111C190.972 59.749 190.933 59.9176 190.872 60.1169C190.826 60.3008 190.75 60.5306 190.642 60.8065L189.562 64.0019H188.114ZM199.512 60.7835C198.255 60.7835 197.129 60.4617 196.133 59.818C195.152 59.1743 194.37 58.2395 193.788 57.0134C193.221 55.7874 192.937 54.3008 192.937 52.5537C192.937 50.8065 193.221 49.32 193.788 48.0939C194.37 46.8679 195.152 45.933 196.133 45.2893C197.129 44.6457 198.255 44.3238 199.512 44.3238C200.754 44.3238 201.872 44.6457 202.868 45.2893C203.865 45.933 204.646 46.8679 205.213 48.0939C205.78 49.32 206.064 50.8065 206.064 52.5537C206.064 54.3008 205.78 55.7874 205.213 57.0134C204.646 58.2395 203.865 59.1743 202.868 59.818C201.872 60.4617 200.754 60.7835 199.512 60.7835ZM199.512 58.7375C200.355 58.7375 201.091 58.5077 201.719 58.0479C202.363 57.5881 202.861 56.8985 203.213 55.9789C203.581 55.0594 203.765 53.9176 203.765 52.5537C203.765 51.1897 203.581 50.0479 203.213 49.1284C202.861 48.2089 202.363 47.5192 201.719 47.0594C201.091 46.5997 200.355 46.3698 199.512 46.3698C198.669 46.3698 197.926 46.5997 197.282 47.0594C196.639 47.5192 196.133 48.2089 195.765 49.1284C195.413 50.0479 195.236 51.1897 195.236 52.5537C195.236 53.9176 195.413 55.0594 195.765 55.9789C196.133 56.8985 196.639 57.5881 197.282 58.0479C197.926 58.5077 198.669 58.7375 199.512 58.7375ZM214.845 60.7835C213.589 60.7835 212.462 60.4617 211.466 59.818C210.485 59.1743 209.704 58.2395 209.121 57.0134C208.554 55.7874 208.271 54.3008 208.271 52.5537C208.271 50.8065 208.554 49.32 209.121 48.0939C209.704 46.8679 210.485 45.933 211.466 45.2893C212.462 44.6457 213.589 44.3238 214.845 44.3238C216.087 44.3238 217.205 44.6457 218.202 45.2893C219.198 45.933 219.979 46.8679 220.546 48.0939C221.113 49.32 221.397 50.8065 221.397 52.5537C221.397 54.3008 221.113 55.7874 220.546 57.0134C219.979 58.2395 219.198 59.1743 218.202 59.818C217.205 60.4617 216.087 60.7835 214.845 60.7835ZM214.845 58.7375C215.688 58.7375 216.424 58.5077 217.052 58.0479C217.696 57.5881 218.194 56.8985 218.546 55.9789C218.914 55.0594 219.098 53.9176 219.098 52.5537C219.098 51.1897 218.914 50.0479 218.546 49.1284C218.194 48.2089 217.696 47.5192 217.052 47.0594C216.424 46.5997 215.688 46.3698 214.845 46.3698C214.002 46.3698 213.259 46.5997 212.615 47.0594C211.972 47.5192 211.466 48.2089 211.098 49.1284C210.746 50.0479 210.569 51.1897 210.569 52.5537C210.569 53.9176 210.746 55.0594 211.098 55.9789C211.466 56.8985 211.972 57.5881 212.615 58.0479C213.259 58.5077 214.002 58.7375 214.845 58.7375ZM223.449 64.0019L224.599 59.3582L224.897 60.6916C224.453 60.6916 224.078 60.5536 223.771 60.2778C223.48 60.0019 223.334 59.6264 223.334 59.1513C223.334 58.6916 223.48 58.3161 223.771 58.0249C224.078 57.7337 224.445 57.5881 224.874 57.5881C225.319 57.5881 225.679 57.7414 225.955 58.0479C226.231 58.3391 226.369 58.7069 226.369 59.1513C226.369 59.3046 226.353 59.4579 226.323 59.6111C226.307 59.749 226.269 59.9176 226.208 60.1169C226.162 60.3008 226.085 60.5306 225.978 60.8065L224.897 64.0019H223.449ZM234.848 60.7835C233.591 60.7835 232.465 60.4617 231.469 59.818C230.488 59.1743 229.706 58.2395 229.124 57.0134C228.557 55.7874 228.273 54.3008 228.273 52.5537C228.273 50.8065 228.557 49.32 229.124 48.0939C229.706 46.8679 230.488 45.933 231.469 45.2893C232.465 44.6457 233.591 44.3238 234.848 44.3238C236.089 44.3238 237.208 44.6457 238.204 45.2893C239.2 45.933 239.982 46.8679 240.549 48.0939C241.116 49.32 241.4 50.8065 241.4 52.5537C241.4 54.3008 241.116 55.7874 240.549 57.0134C239.982 58.2395 239.2 59.1743 238.204 59.818C237.208 60.4617 236.089 60.7835 234.848 60.7835ZM234.848 58.7375C235.691 58.7375 236.426 58.5077 237.055 58.0479C237.698 57.5881 238.196 56.8985 238.549 55.9789C238.917 55.0594 239.101 53.9176 239.101 52.5537C239.101 51.1897 238.917 50.0479 238.549 49.1284C238.196 48.2089 237.698 47.5192 237.055 47.0594C236.426 46.5997 235.691 46.3698 234.848 46.3698C234.005 46.3698 233.262 46.5997 232.618 47.0594C231.974 47.5192 231.469 48.2089 231.101 49.1284C230.748 50.0479 230.572 51.1897 230.572 52.5537C230.572 53.9176 230.748 55.0594 231.101 55.9789C231.469 56.8985 231.974 57.5881 232.618 58.0479C233.262 58.5077 234.005 58.7375 234.848 58.7375ZM250.181 60.7835C248.924 60.7835 247.798 60.4617 246.802 59.818C245.821 59.1743 245.039 58.2395 244.457 57.0134C243.89 55.7874 243.606 54.3008 243.606 52.5537C243.606 50.8065 243.89 49.32 244.457 48.0939C245.039 46.8679 245.821 45.933 246.802 45.2893C247.798 44.6457 248.924 44.3238 250.181 44.3238C251.422 44.3238 252.541 44.6457 253.537 45.2893C254.533 45.933 255.315 46.8679 255.882 48.0939C256.449 49.32 256.733 50.8065 256.733 52.5537C256.733 54.3008 256.449 55.7874 255.882 57.0134C255.315 58.2395 254.533 59.1743 253.537 59.818C252.541 60.4617 251.422 60.7835 250.181 60.7835ZM250.181 58.7375C251.024 58.7375 251.759 58.5077 252.388 58.0479C253.031 57.5881 253.53 56.8985 253.882 55.9789C254.25 55.0594 254.434 53.9176 254.434 52.5537C254.434 51.1897 254.25 50.0479 253.882 49.1284C253.53 48.2089 253.031 47.5192 252.388 47.0594C251.759 46.5997 251.024 46.3698 250.181 46.3698C249.338 46.3698 248.595 46.5997 247.951 47.0594C247.307 47.5192 246.802 48.2089 246.434 49.1284C246.081 50.0479 245.905 51.1897 245.905 52.5537C245.905 53.9176 246.081 55.0594 246.434 55.9789C246.802 56.8985 247.307 57.5881 247.951 58.0479C248.595 58.5077 249.338 58.7375 250.181 58.7375ZM265.514 60.7835C264.257 60.7835 263.131 60.4617 262.135 59.818C261.154 59.1743 260.372 58.2395 259.79 57.0134C259.223 55.7874 258.939 54.3008 258.939 52.5537C258.939 50.8065 259.223 49.32 259.79 48.0939C260.372 46.8679 261.154 45.933 262.135 45.2893C263.131 44.6457 264.257 44.3238 265.514 44.3238C266.755 44.3238 267.874 44.6457 268.87 45.2893C269.866 45.933 270.648 46.8679 271.215 48.0939C271.782 49.32 272.066 50.8065 272.066 52.5537C272.066 54.3008 271.782 55.7874 271.215 57.0134C270.648 58.2395 269.866 59.1743 268.87 59.818C267.874 60.4617 266.755 60.7835 265.514 60.7835ZM265.514 58.7375C266.357 58.7375 267.093 58.5077 267.721 58.0479C268.365 57.5881 268.863 56.8985 269.215 55.9789C269.583 55.0594 269.767 53.9176 269.767 52.5537C269.767 51.1897 269.583 50.0479 269.215 49.1284C268.863 48.2089 268.365 47.5192 267.721 47.0594C267.093 46.5997 266.357 46.3698 265.514 46.3698C264.671 46.3698 263.928 46.5997 263.284 47.0594C262.64 47.5192 262.135 48.2089 261.767 49.1284C261.414 50.0479 261.238 51.1897 261.238 52.5537C261.238 53.9176 261.414 55.0594 261.767 55.9789C262.135 56.8985 262.64 57.5881 263.284 58.0479C263.928 58.5077 264.671 58.7375 265.514 58.7375Z" fill="black"/>
<path d="M195.954 35.2324V27.1865H199.437C200.157 27.1865 200.778 27.3053 201.299 27.5428C201.82 27.7727 202.222 28.106 202.506 28.5428C202.789 28.9796 202.931 29.5006 202.931 30.106C202.931 30.7037 202.789 31.2209 202.506 31.6577C202.222 32.0945 201.82 32.4317 201.299 32.6692C200.778 32.8991 200.157 33.014 199.437 33.014H196.988L197.816 32.175V35.2324H195.954ZM197.816 32.3819L196.988 31.4968H199.333C199.908 31.4968 200.337 31.3742 200.621 31.129C200.904 30.8838 201.046 30.5428 201.046 30.106C201.046 29.6616 200.904 29.3167 200.621 29.0715C200.337 28.8263 199.908 28.7037 199.333 28.7037H196.988L197.816 27.8187V32.3819ZM207.065 35.3244C206.406 35.3244 205.82 35.1864 205.307 34.9106C204.801 34.6347 204.399 34.2592 204.1 33.7842C203.809 33.3014 203.663 32.7535 203.663 32.1405C203.663 31.5198 203.809 30.9719 204.1 30.4968C204.399 30.0141 204.801 29.6386 205.307 29.3704C205.82 29.0945 206.406 28.9566 207.065 28.9566C207.717 28.9566 208.299 29.0945 208.812 29.3704C209.326 29.6386 209.728 30.0102 210.019 30.4853C210.31 30.9604 210.456 31.5121 210.456 32.1405C210.456 32.7535 210.31 33.3014 210.019 33.7842C209.728 34.2592 209.326 34.6347 208.812 34.9106C208.299 35.1864 207.717 35.3244 207.065 35.3244ZM207.065 33.8531C207.364 33.8531 207.632 33.7842 207.87 33.6462C208.107 33.5083 208.295 33.3129 208.433 33.06C208.571 32.7995 208.64 32.493 208.64 32.1405C208.64 31.7803 208.571 31.4738 208.433 31.2209C208.295 30.9681 208.107 30.7727 207.87 30.6347C207.632 30.4968 207.364 30.4278 207.065 30.4278C206.766 30.4278 206.498 30.4968 206.261 30.6347C206.023 30.7727 205.832 30.9681 205.686 31.2209C205.548 31.4738 205.479 31.7803 205.479 32.1405C205.479 32.493 205.548 32.7995 205.686 33.06C205.832 33.3129 206.023 33.5083 206.261 33.6462C206.498 33.7842 206.766 33.8531 207.065 33.8531ZM214.597 35.3244C213.938 35.3244 213.352 35.1864 212.838 34.9106C212.333 34.6347 211.93 34.2592 211.632 33.7842C211.34 33.3014 211.195 32.7535 211.195 32.1405C211.195 31.5198 211.34 30.9719 211.632 30.4968C211.93 30.0141 212.333 29.6386 212.838 29.3704C213.352 29.0945 213.938 28.9566 214.597 28.9566C215.248 28.9566 215.831 29.0945 216.344 29.3704C216.858 29.6386 217.26 30.0102 217.551 30.4853C217.842 30.9604 217.988 31.5121 217.988 32.1405C217.988 32.7535 217.842 33.3014 217.551 33.7842C217.26 34.2592 216.858 34.6347 216.344 34.9106C215.831 35.1864 215.248 35.3244 214.597 35.3244ZM214.597 33.8531C214.896 33.8531 215.164 33.7842 215.402 33.6462C215.639 33.5083 215.827 33.3129 215.965 33.06C216.103 32.7995 216.172 32.493 216.172 32.1405C216.172 31.7803 216.103 31.4738 215.965 31.2209C215.827 30.9681 215.639 30.7727 215.402 30.6347C215.164 30.4968 214.896 30.4278 214.597 30.4278C214.298 30.4278 214.03 30.4968 213.792 30.6347C213.555 30.7727 213.363 30.9681 213.218 31.2209C213.08 31.4738 213.011 31.7803 213.011 32.1405C213.011 32.493 213.08 32.7995 213.218 33.06C213.363 33.3129 213.555 33.5083 213.792 33.6462C214.03 33.7842 214.298 33.8531 214.597 33.8531ZM219.186 35.2324V26.7037H220.98V35.2324H219.186ZM226.025 35.2324V27.1865H229.508C230.228 27.1865 230.849 27.3053 231.37 27.5428C231.891 27.7727 232.293 28.106 232.577 28.5428C232.86 28.9796 233.002 29.5006 233.002 30.106C233.002 30.7037 232.86 31.2209 232.577 31.6577C232.293 32.0945 231.891 32.4317 231.37 32.6692C230.849 32.8991 230.228 33.014 229.508 33.014H227.06L227.887 32.175V35.2324H226.025ZM227.887 32.3819L227.06 31.4968H229.405C229.979 31.4968 230.408 31.3742 230.692 31.129C230.975 30.8838 231.117 30.5428 231.117 30.106C231.117 29.6616 230.975 29.3167 230.692 29.0715C230.408 28.8263 229.979 28.7037 229.405 28.7037H227.06L227.887 27.8187V32.3819ZM234.194 35.2324V29.0485H235.907V30.7957L235.665 30.2899C235.849 29.8531 236.144 29.5236 236.55 29.3014C236.956 29.0715 237.451 28.9566 238.033 28.9566V30.6118C237.956 30.6041 237.887 30.6003 237.826 30.6003C237.765 30.5926 237.7 30.5888 237.631 30.5888C237.14 30.5888 236.742 30.7305 236.435 31.014C236.136 31.2899 235.987 31.7229 235.987 32.3129V35.2324H234.194ZM239.11 35.2324V29.0485H240.904V35.2324H239.11ZM240.007 28.1865C239.677 28.1865 239.409 28.0907 239.202 27.8991C238.995 27.7076 238.892 27.47 238.892 27.1865C238.892 26.903 238.995 26.6654 239.202 26.4738C239.409 26.2823 239.677 26.1865 240.007 26.1865C240.336 26.1865 240.605 26.2784 240.812 26.4623C241.018 26.6386 241.122 26.8685 241.122 27.152C241.122 27.4508 241.018 27.6999 240.812 27.8991C240.612 28.0907 240.344 28.1865 240.007 28.1865ZM242.142 35.2324V34.152L245.798 29.8301L246.108 30.4278H242.223V29.0485H247.556V30.129L243.901 34.4508L243.579 33.8531H247.66V35.2324H242.142ZM251.799 35.3244C251.094 35.3244 250.473 35.1864 249.937 34.9106C249.408 34.6347 248.998 34.2592 248.707 33.7842C248.416 33.3014 248.27 32.7535 248.27 32.1405C248.27 31.5198 248.412 30.9719 248.696 30.4968C248.987 30.0141 249.381 29.6386 249.88 29.3704C250.378 29.0945 250.941 28.9566 251.569 28.9566C252.175 28.9566 252.719 29.0869 253.201 29.3474C253.692 29.6003 254.079 29.9681 254.362 30.4508C254.646 30.9259 254.788 31.4968 254.788 32.1635C254.788 32.2324 254.784 32.3129 254.776 32.4048C254.768 32.4891 254.761 32.5696 254.753 32.6462H249.73V31.6003H253.811L253.121 31.9106C253.121 31.5888 253.056 31.3091 252.925 31.0715C252.795 30.834 252.615 30.6501 252.385 30.5198C252.155 30.3819 251.887 30.3129 251.581 30.3129C251.274 30.3129 251.002 30.3819 250.765 30.5198C250.535 30.6501 250.355 30.8378 250.224 31.083C250.094 31.3206 250.029 31.6041 250.029 31.9336V32.2094C250.029 32.5466 250.102 32.8455 250.247 33.106C250.401 33.3589 250.611 33.5543 250.88 33.6922C251.155 33.8225 251.477 33.8876 251.845 33.8876C252.175 33.8876 252.462 33.8378 252.707 33.7382C252.96 33.6386 253.19 33.4891 253.397 33.2899L254.351 34.3244C254.067 34.6462 253.711 34.8953 253.282 35.0715C252.853 35.2401 252.358 35.3244 251.799 35.3244Z" fill="#003874"/>
<path d="M46.023 166.784C44.8889 166.784 43.7854 166.607 42.7126 166.255C41.6552 165.902 40.7893 165.427 40.1149 164.83L41.1724 163.013C41.7088 163.519 42.4061 163.933 43.2644 164.255C44.1226 164.577 45.0421 164.738 46.023 164.738C47.2184 164.738 48.1456 164.485 48.8046 163.979C49.4789 163.458 49.816 162.761 49.816 161.887C49.816 161.044 49.4942 160.37 48.8505 159.864C48.2222 159.343 47.2184 159.082 45.8391 159.082H44.5517V157.473L49.3333 151.588L49.6551 152.508H40.8506V150.508H51.4712V152.071L46.7126 157.933L45.5172 157.22H46.2758C48.2222 157.22 49.6781 157.657 50.6436 158.531C51.6245 159.404 52.1149 160.515 52.1149 161.864C52.1149 162.768 51.8927 163.596 51.4482 164.347C51.0038 165.098 50.3295 165.695 49.4252 166.14C48.5364 166.569 47.4023 166.784 46.023 166.784ZM61.7429 166.6V150.508H68.5245C70.2409 150.508 71.7505 150.845 73.0532 151.519C74.3712 152.194 75.3903 153.136 76.1107 154.347C76.8463 155.558 77.2141 156.96 77.2141 158.554C77.2141 160.148 76.8463 161.55 76.1107 162.761C75.3903 163.971 74.3712 164.914 73.0532 165.588C71.7505 166.262 70.2409 166.6 68.5245 166.6H61.7429ZM64.0417 164.6H68.3865C69.7199 164.6 70.8693 164.347 71.8348 163.841C72.8156 163.335 73.5743 162.63 74.1107 161.726C74.6471 160.807 74.9153 159.749 74.9153 158.554C74.9153 157.343 74.6471 156.285 74.1107 155.381C73.5743 154.477 72.8156 153.772 71.8348 153.266C70.8693 152.761 69.7199 152.508 68.3865 152.508H64.0417V164.6ZM87.9766 166.6V164.025L87.8617 163.542V159.151C87.8617 158.217 87.5858 157.496 87.0341 156.99C86.4977 156.469 85.6854 156.209 84.5973 156.209C83.877 156.209 83.172 156.331 82.4824 156.577C81.7927 156.807 81.2104 157.121 80.7353 157.519L79.8157 155.864C80.4441 155.358 81.195 154.975 82.0686 154.715C82.9575 154.439 83.8847 154.301 84.8502 154.301C86.5207 154.301 87.808 154.707 88.7122 155.519C89.6165 156.331 90.0686 157.573 90.0686 159.243V166.6H87.9766ZM83.9766 166.738C83.0724 166.738 82.2755 166.584 81.5858 166.278C80.9115 165.971 80.3904 165.55 80.0226 165.013C79.6548 164.462 79.4709 163.841 79.4709 163.151C79.4709 162.492 79.6242 161.895 79.9307 161.358C80.2525 160.822 80.7659 160.393 81.4709 160.071C82.1912 159.749 83.1567 159.588 84.3674 159.588H88.2295V161.174H84.4594C83.3559 161.174 82.6127 161.358 82.2295 161.726C81.8464 162.094 81.6548 162.538 81.6548 163.059C81.6548 163.657 81.8924 164.14 82.3674 164.508C82.8425 164.86 83.5015 165.036 84.3444 165.036C85.172 165.036 85.8923 164.852 86.5054 164.485C87.1337 164.117 87.5858 163.58 87.8617 162.875L88.2985 164.393C88.0073 165.113 87.4939 165.688 86.7582 166.117C86.0226 166.531 85.0954 166.738 83.9766 166.738ZM94.4568 171.197C93.8745 171.197 93.3074 171.098 92.7557 170.898C92.204 170.715 91.7289 170.439 91.3304 170.071L92.2729 168.416C92.5794 168.707 92.9166 168.929 93.2844 169.082C93.6522 169.236 94.043 169.312 94.4568 169.312C94.9932 169.312 95.4377 169.174 95.7902 168.898C96.1426 168.623 96.4721 168.132 96.7787 167.427L97.5373 165.749L97.7672 165.473L102.549 154.416H104.71L98.8016 167.818C98.4492 168.676 98.0507 169.351 97.6062 169.841C97.1771 170.331 96.702 170.676 96.181 170.875C95.6599 171.09 95.0852 171.197 94.4568 171.197ZM97.3534 166.99L91.7902 154.416H94.089L98.8246 165.266L97.3534 166.99ZM110.106 166.738C109.095 166.738 108.129 166.6 107.21 166.324C106.306 166.048 105.593 165.711 105.072 165.312L105.991 163.565C106.513 163.918 107.156 164.216 107.922 164.462C108.689 164.707 109.47 164.83 110.267 164.83C111.294 164.83 112.03 164.684 112.474 164.393C112.934 164.102 113.164 163.695 113.164 163.174C113.164 162.791 113.026 162.492 112.75 162.278C112.474 162.063 112.106 161.902 111.647 161.795C111.202 161.688 110.704 161.596 110.152 161.519C109.601 161.427 109.049 161.32 108.497 161.197C107.945 161.059 107.44 160.875 106.98 160.646C106.52 160.4 106.152 160.071 105.877 159.657C105.601 159.228 105.463 158.661 105.463 157.956C105.463 157.22 105.67 156.577 106.083 156.025C106.497 155.473 107.08 155.052 107.831 154.761C108.597 154.454 109.501 154.301 110.543 154.301C111.34 154.301 112.145 154.4 112.957 154.6C113.785 154.784 114.459 155.052 114.98 155.404L114.037 157.151C113.486 156.784 112.911 156.531 112.313 156.393C111.716 156.255 111.118 156.186 110.52 156.186C109.555 156.186 108.834 156.347 108.359 156.669C107.884 156.975 107.647 157.374 107.647 157.864C107.647 158.278 107.785 158.6 108.06 158.83C108.352 159.044 108.719 159.213 109.164 159.335C109.624 159.458 110.129 159.565 110.681 159.657C111.233 159.734 111.785 159.841 112.336 159.979C112.888 160.102 113.386 160.278 113.83 160.508C114.29 160.738 114.658 161.059 114.934 161.473C115.225 161.887 115.371 162.439 115.371 163.128C115.371 163.864 115.156 164.5 114.727 165.036C114.298 165.573 113.693 165.994 112.911 166.301C112.129 166.592 111.194 166.738 110.106 166.738Z" fill="black"/>
<path d="M40.6207 141.232V134.704H38.046V133.186H45.0574V134.704H42.4827V141.232H40.6207ZM45.7982 141.232V135.049H47.5108V136.796L47.2694 136.29C47.4534 135.853 47.7484 135.524 48.1545 135.301C48.5606 135.072 49.0549 134.957 49.6373 134.957V136.612C49.5606 136.604 49.4917 136.6 49.4304 136.6C49.3691 136.593 49.3039 136.589 49.235 136.589C48.7445 136.589 48.3461 136.731 48.0396 137.014C47.7407 137.29 47.5913 137.723 47.5913 138.313V141.232H45.7982ZM50.7147 141.232V135.049H52.5077V141.232H50.7147ZM51.6112 134.186C51.2817 134.186 51.0135 134.091 50.8066 133.899C50.5997 133.708 50.4963 133.47 50.4963 133.186C50.4963 132.903 50.5997 132.665 50.8066 132.474C51.0135 132.282 51.2817 132.186 51.6112 132.186C51.9407 132.186 52.2089 132.278 52.4158 132.462C52.6227 132.639 52.7261 132.868 52.7261 133.152C52.7261 133.451 52.6227 133.7 52.4158 133.899C52.2166 134.091 51.9484 134.186 51.6112 134.186ZM57.827 141.324C57.306 141.324 56.85 141.209 56.4592 140.98C56.0684 140.75 55.7619 140.401 55.5397 139.934C55.3251 139.458 55.2179 138.861 55.2179 138.14C55.2179 137.413 55.3213 136.815 55.5282 136.347C55.7351 135.88 56.034 135.531 56.4248 135.301C56.8156 135.072 57.283 134.957 57.827 134.957C58.4094 134.957 58.9305 135.091 59.3903 135.359C59.8577 135.619 60.2255 135.987 60.4937 136.462C60.7696 136.937 60.9075 137.497 60.9075 138.14C60.9075 138.792 60.7696 139.355 60.4937 139.83C60.2255 140.305 59.8577 140.673 59.3903 140.934C58.9305 141.194 58.4094 141.324 57.827 141.324ZM54.1719 143.462V135.049H55.8845V136.313L55.85 138.152L55.965 139.98V143.462H54.1719ZM57.5167 139.853C57.8156 139.853 58.0799 139.784 58.3098 139.646C58.5474 139.508 58.7351 139.313 58.873 139.06C59.0186 138.799 59.0914 138.493 59.0914 138.14C59.0914 137.78 59.0186 137.474 58.873 137.221C58.7351 136.968 58.5474 136.773 58.3098 136.635C58.0799 136.497 57.8156 136.428 57.5167 136.428C57.2179 136.428 56.9497 136.497 56.7121 136.635C56.4746 136.773 56.2868 136.968 56.1489 137.221C56.011 137.474 55.942 137.78 55.942 138.14C55.942 138.493 56.011 138.799 56.1489 139.06C56.2868 139.313 56.4746 139.508 56.7121 139.646C56.9497 139.784 57.2179 139.853 57.5167 139.853ZM67.8917 141.324C67.1638 141.324 66.5967 141.14 66.1906 140.773C65.7845 140.397 65.5814 139.842 65.5814 139.106V133.681H67.3745V139.083C67.3745 139.344 67.4435 139.547 67.5814 139.692C67.7193 139.83 67.9071 139.899 68.1446 139.899C68.4281 139.899 68.6695 139.822 68.8688 139.669L69.3515 140.934C69.1676 141.064 68.9454 141.163 68.6848 141.232C68.432 141.294 68.1676 141.324 67.8917 141.324ZM64.6274 136.566V135.186H68.9147V136.566H64.6274ZM73.1098 141.324C72.4508 141.324 71.8646 141.186 71.3511 140.911C70.8454 140.635 70.4431 140.259 70.1443 139.784C69.8531 139.301 69.7075 138.754 69.7075 138.14C69.7075 137.52 69.8531 136.972 70.1443 136.497C70.4431 136.014 70.8454 135.639 71.3511 135.37C71.8646 135.095 72.4508 134.957 73.1098 134.957C73.7611 134.957 74.3435 135.095 74.8569 135.37C75.3703 135.639 75.7726 136.01 76.0638 136.485C76.355 136.96 76.5005 137.512 76.5005 138.14C76.5005 138.754 76.355 139.301 76.0638 139.784C75.7726 140.259 75.3703 140.635 74.8569 140.911C74.3435 141.186 73.7611 141.324 73.1098 141.324ZM73.1098 139.853C73.4086 139.853 73.6768 139.784 73.9144 139.646C74.1519 139.508 74.3396 139.313 74.4776 139.06C74.6155 138.799 74.6845 138.493 74.6845 138.14C74.6845 137.78 74.6155 137.474 74.4776 137.221C74.3396 136.968 74.1519 136.773 73.9144 136.635C73.6768 136.497 73.4086 136.428 73.1098 136.428C72.8109 136.428 72.5427 136.497 72.3052 136.635C72.0676 136.773 71.876 136.968 71.7305 137.221C71.5925 137.474 71.5236 137.78 71.5236 138.14C71.5236 138.493 71.5925 138.799 71.7305 139.06C71.876 139.313 72.0676 139.508 72.3052 139.646C72.5427 139.784 72.8109 139.853 73.1098 139.853ZM81.0807 141.232V133.186H82.9428V141.232H81.0807ZM84.8523 141.232V133.186H86.7143V141.232H84.8523ZM90.2904 141.232V134.704H87.7157V133.186H94.7272V134.704H92.1525V141.232H90.2904ZM95.7291 141.232V133.186H99.2118C99.9321 133.186 100.553 133.305 101.074 133.543C101.595 133.773 101.997 134.106 102.281 134.543C102.564 134.98 102.706 135.501 102.706 136.106C102.706 136.704 102.564 137.221 102.281 137.658C101.997 138.087 101.595 138.416 101.074 138.646C100.553 138.876 99.9321 138.991 99.2118 138.991H96.7636L97.5911 138.175V141.232H95.7291ZM100.844 141.232L98.8325 138.313H100.821L102.855 141.232H100.844ZM97.5911 138.382L96.7636 137.508H99.1084C99.6831 137.508 100.112 137.386 100.396 137.14C100.679 136.888 100.821 136.543 100.821 136.106C100.821 135.662 100.679 135.317 100.396 135.072C100.112 134.826 99.6831 134.704 99.1084 134.704H96.7636L97.5911 133.819V138.382ZM107.529 141.232V134.911C107.529 134.213 107.735 133.658 108.149 133.244C108.563 132.822 109.153 132.612 109.919 132.612C110.18 132.612 110.429 132.639 110.666 132.692C110.912 132.746 111.119 132.83 111.287 132.945L110.816 134.244C110.716 134.175 110.605 134.121 110.483 134.083C110.36 134.045 110.23 134.026 110.092 134.026C109.831 134.026 109.628 134.102 109.483 134.255C109.345 134.401 109.276 134.623 109.276 134.922V135.497L109.322 136.267V141.232H107.529ZM106.574 136.566V135.186H110.862V136.566H106.574ZM114.619 141.324C113.96 141.324 113.374 141.186 112.86 140.911C112.355 140.635 111.952 140.259 111.654 139.784C111.362 139.301 111.217 138.754 111.217 138.14C111.217 137.52 111.362 136.972 111.654 136.497C111.952 136.014 112.355 135.639 112.86 135.37C113.374 135.095 113.96 134.957 114.619 134.957C115.27 134.957 115.853 135.095 116.366 135.37C116.88 135.639 117.282 136.01 117.573 136.485C117.864 136.96 118.01 137.512 118.01 138.14C118.01 138.754 117.864 139.301 117.573 139.784C117.282 140.259 116.88 140.635 116.366 140.911C115.853 141.186 115.27 141.324 114.619 141.324ZM114.619 139.853C114.918 139.853 115.186 139.784 115.424 139.646C115.661 139.508 115.849 139.313 115.987 139.06C116.125 138.799 116.194 138.493 116.194 138.14C116.194 137.78 116.125 137.474 115.987 137.221C115.849 136.968 115.661 136.773 115.424 136.635C115.186 136.497 114.918 136.428 114.619 136.428C114.32 136.428 114.052 136.497 113.814 136.635C113.577 136.773 113.385 136.968 113.24 137.221C113.102 137.474 113.033 137.78 113.033 138.14C113.033 138.493 113.102 138.799 113.24 139.06C113.385 139.313 113.577 139.508 113.814 139.646C114.052 139.784 114.32 139.853 114.619 139.853ZM119.208 141.232V135.049H120.921V136.796L120.68 136.29C120.864 135.853 121.159 135.524 121.565 135.301C121.971 135.072 122.465 134.957 123.047 134.957V136.612C122.971 136.604 122.902 136.6 122.841 136.6C122.779 136.593 122.714 136.589 122.645 136.589C122.155 136.589 121.756 136.731 121.45 137.014C121.151 137.29 121.002 137.723 121.002 138.313V141.232H119.208Z" fill="#003874"/>
<path d="M12.8161 36.3672V21.1948L13.8046 22.2753H9.18391V20.2753H15.0919V36.3672H12.8161ZM23.8072 36.5511C22.6731 36.5511 21.5697 36.3749 20.4969 36.0224C19.4394 35.6699 18.5735 35.1948 17.8992 34.5971L18.9567 32.781C19.4931 33.2867 20.1904 33.7005 21.0486 34.0224C21.9069 34.3442 22.8187 34.5051 23.7842 34.5051C25.0103 34.5051 25.9528 34.2446 26.6118 33.7235C27.2708 33.2025 27.6003 32.5051 27.6003 31.6316C27.6003 31.0339 27.4547 30.5128 27.1635 30.0684C26.8723 29.6239 26.3666 29.2868 25.6463 29.0569C24.9413 28.8117 23.9681 28.6891 22.7268 28.6891H19.0716L19.9222 20.2753H29.0026V22.2753H20.7728L21.9682 21.1489L21.3015 27.7925L20.1061 26.6891H23.2095C24.8187 26.6891 26.1137 26.896 27.0946 27.3098C28.0754 27.7235 28.788 28.2983 29.2325 29.0339C29.6769 29.7542 29.8992 30.5894 29.8992 31.5396C29.8992 32.4592 29.6769 33.3021 29.2325 34.0683C28.788 34.8193 28.1137 35.4247 27.2095 35.8844C26.3206 36.3289 25.1865 36.5511 23.8072 36.5511ZM38.3869 36.5511C37.1302 36.5511 36.0038 36.2293 35.0076 35.5856C34.0268 34.9419 33.2452 34.007 32.6628 32.781C32.0957 31.5549 31.8122 30.0684 31.8122 28.3212C31.8122 26.5741 32.0957 25.0875 32.6628 23.8615C33.2452 22.6354 34.0268 21.7006 35.0076 21.0569C36.0038 20.4132 37.1302 20.0914 38.3869 20.0914C39.6283 20.0914 40.747 20.4132 41.7432 21.0569C42.7394 21.7006 43.521 22.6354 44.088 23.8615C44.6551 25.0875 44.9386 26.5741 44.9386 28.3212C44.9386 30.0684 44.6551 31.5549 44.088 32.781C43.521 34.007 42.7394 34.9419 41.7432 35.5856C40.747 36.2293 39.6283 36.5511 38.3869 36.5511ZM38.3869 34.5051C39.2298 34.5051 39.9654 34.2752 40.5938 33.8155C41.2375 33.3557 41.7355 32.6661 42.088 31.7465C42.4558 30.827 42.6398 29.6852 42.6398 28.3212C42.6398 26.9573 42.4558 25.8155 42.088 24.896C41.7355 23.9764 41.2375 23.2868 40.5938 22.827C39.9654 22.3672 39.2298 22.1374 38.3869 22.1374C37.544 22.1374 36.8007 22.3672 36.157 22.827C35.5134 23.2868 35.0076 23.9764 34.6398 24.896C34.2873 25.8155 34.1111 26.9573 34.1111 28.3212C34.1111 29.6852 34.2873 30.827 34.6398 31.7465C35.0076 32.6661 35.5134 33.3557 36.157 33.8155C36.8007 34.2752 37.544 34.5051 38.3869 34.5051ZM53.72 36.5511C52.4633 36.5511 51.3369 36.2293 50.3407 35.5856C49.3599 34.9419 48.5782 34.007 47.9959 32.781C47.4288 31.5549 47.1453 30.0684 47.1453 28.3212C47.1453 26.5741 47.4288 25.0875 47.9959 23.8615C48.5782 22.6354 49.3599 21.7006 50.3407 21.0569C51.3369 20.4132 52.4633 20.0914 53.72 20.0914C54.9614 20.0914 56.0801 20.4132 57.0763 21.0569C58.0725 21.7006 58.8541 22.6354 59.4211 23.8615C59.9882 25.0875 60.2717 26.5741 60.2717 28.3212C60.2717 30.0684 59.9882 31.5549 59.4211 32.781C58.8541 34.007 58.0725 34.9419 57.0763 35.5856C56.0801 36.2293 54.9614 36.5511 53.72 36.5511ZM53.72 34.5051C54.5629 34.5051 55.2985 34.2752 55.9269 33.8155C56.5706 33.3557 57.0686 32.6661 57.4211 31.7465C57.7889 30.827 57.9728 29.6852 57.9728 28.3212C57.9728 26.9573 57.7889 25.8155 57.4211 24.896C57.0686 23.9764 56.5706 23.2868 55.9269 22.827C55.2985 22.3672 54.5629 22.1374 53.72 22.1374C52.8771 22.1374 52.1338 22.3672 51.4901 22.827C50.8464 23.2868 50.3407 23.9764 49.9729 24.896C49.6204 25.8155 49.4441 26.9573 49.4441 28.3212C49.4441 29.6852 49.6204 30.827 49.9729 31.7465C50.3407 32.6661 50.8464 33.3557 51.4901 33.8155C52.1338 34.2752 52.8771 34.5051 53.72 34.5051ZM69.0531 36.5511C67.7964 36.5511 66.6699 36.2293 65.6738 35.5856C64.6929 34.9419 63.9113 34.007 63.329 32.781C62.7619 31.5549 62.4784 30.0684 62.4784 28.3212C62.4784 26.5741 62.7619 25.0875 63.329 23.8615C63.9113 22.6354 64.6929 21.7006 65.6738 21.0569C66.6699 20.4132 67.7964 20.0914 69.0531 20.0914C70.2944 20.0914 71.4132 20.4132 72.4094 21.0569C73.4055 21.7006 74.1872 22.6354 74.7542 23.8615C75.3212 25.0875 75.6048 26.5741 75.6048 28.3212C75.6048 30.0684 75.3212 31.5549 74.7542 32.781C74.1872 34.007 73.4055 34.9419 72.4094 35.5856C71.4132 36.2293 70.2944 36.5511 69.0531 36.5511ZM69.0531 34.5051C69.896 34.5051 70.6316 34.2752 71.26 33.8155C71.9036 33.3557 72.4017 32.6661 72.7542 31.7465C73.122 30.827 73.3059 29.6852 73.3059 28.3212C73.3059 26.9573 73.122 25.8155 72.7542 24.896C72.4017 23.9764 71.9036 23.2868 71.26 22.827C70.6316 22.3672 69.896 22.1374 69.0531 22.1374C68.2102 22.1374 67.4669 22.3672 66.8232 22.827C66.1795 23.2868 65.6738 23.9764 65.306 24.896C64.9535 25.8155 64.7772 26.9573 64.7772 28.3212C64.7772 29.6852 64.9535 30.827 65.306 31.7465C65.6738 32.6661 66.1795 33.3557 66.8232 33.8155C67.4669 34.2752 68.2102 34.5051 69.0531 34.5051ZM82.5893 33.3557V23.2868H84.5203V33.3557H82.5893ZM78.4054 29.2408V27.4247H88.7042V29.2408H78.4054Z" fill="black"/>
<path d="M10.954 11V2.95406H14.4368C15.1571 2.95406 15.7778 3.07283 16.2988 3.31038C16.8199 3.54026 17.2222 3.87359 17.5057 4.31037C17.7892 4.74715 17.931 5.26822 17.931 5.87359C17.931 6.47128 17.7892 6.98852 17.5057 7.4253C17.2222 7.85442 16.8199 8.18392 16.2988 8.4138C15.7778 8.64369 15.1571 8.75863 14.4368 8.75863H11.9885L12.8161 7.94254V11H10.954ZM16.0689 11L14.0575 8.08047H16.046L18.0804 11H16.0689ZM12.8161 8.14944L11.9885 7.27588H14.3333C14.908 7.27588 15.3371 7.15327 15.6207 6.90806C15.9042 6.65519 16.046 6.31037 16.046 5.87359C16.046 5.42914 15.9042 5.08432 15.6207 4.83911C15.3371 4.5939 14.908 4.47129 14.3333 4.47129H11.9885L12.8161 3.58624V8.14944ZM22.3488 11.092C21.6438 11.092 21.0231 10.954 20.4868 10.6782C19.958 10.4023 19.5481 10.0268 19.2569 9.55173C18.9657 9.06897 18.8201 8.52108 18.8201 7.90806C18.8201 7.28737 18.9619 6.73948 19.2454 6.26439C19.5366 5.78163 19.9312 5.40615 20.4293 5.13796C20.9274 4.8621 21.4906 4.72417 22.1189 4.72417C22.7243 4.72417 23.2683 4.85443 23.7511 5.11497C24.2415 5.36784 24.6285 5.73566 24.912 6.21841C25.1955 6.69351 25.3373 7.26438 25.3373 7.93105C25.3373 8.00001 25.3335 8.08047 25.3258 8.17243C25.3181 8.25672 25.3105 8.33718 25.3028 8.4138H20.2799V7.36783H24.3603L23.6706 7.67818C23.6706 7.35634 23.6055 7.07665 23.4752 6.8391C23.345 6.60155 23.1649 6.41764 22.935 6.28738C22.7051 6.14945 22.4369 6.08048 22.1304 6.08048C21.8239 6.08048 21.5519 6.14945 21.3143 6.28738C21.0845 6.41764 20.9044 6.60538 20.7741 6.85059C20.6438 7.08814 20.5787 7.37166 20.5787 7.70116V7.97702C20.5787 8.31419 20.6515 8.61304 20.7971 8.87357C20.9504 9.12645 21.1611 9.32185 21.4293 9.45978C21.7051 9.59004 22.027 9.65518 22.3948 9.65518C22.7243 9.65518 23.0116 9.60537 23.2569 9.50575C23.5097 9.40614 23.7396 9.25671 23.9465 9.05748L24.9005 10.092C24.617 10.4138 24.2607 10.6628 23.8316 10.8391C23.4024 11.0077 22.9082 11.092 22.3488 11.092ZM29.4391 13.3218C28.8567 13.3218 28.2935 13.249 27.7495 13.1034C27.2131 12.9655 26.7648 12.7548 26.4047 12.4713L27.1173 11.1839C27.3778 11.3985 27.7073 11.567 28.1058 11.6897C28.5119 11.8199 28.9104 11.8851 29.3012 11.8851C29.9372 11.8851 30.397 11.7433 30.6805 11.4598C30.9717 11.1762 31.1173 10.7548 31.1173 10.1954V9.26438L31.2322 7.71266L31.2092 6.14945V4.81612H32.9104V9.96552C32.9104 11.1149 32.6115 11.9617 32.0138 12.5057C31.4161 13.0498 30.5579 13.3218 29.4391 13.3218ZM29.1633 10.7012C28.5885 10.7012 28.0675 10.5785 27.6 10.3333C27.1403 10.0805 26.7686 9.73181 26.4851 9.28736C26.2092 8.83526 26.0713 8.31036 26.0713 7.71266C26.0713 7.1073 26.2092 6.5824 26.4851 6.13795C26.7686 5.68585 27.1403 5.33719 27.6 5.09198C28.0675 4.84677 28.5885 4.72417 29.1633 4.72417C29.6843 4.72417 30.1441 4.83145 30.5426 5.046C30.941 5.2529 31.2514 5.57857 31.4736 6.02301C31.6958 6.45979 31.8069 7.02301 31.8069 7.71266C31.8069 8.39465 31.6958 8.95786 31.4736 9.40231C31.2514 9.83909 30.941 10.1648 30.5426 10.3793C30.1441 10.5939 29.6843 10.7012 29.1633 10.7012ZM29.5196 9.22989C29.8338 9.22989 30.1134 9.16859 30.3587 9.04599C30.6039 8.91572 30.7954 8.73564 30.9334 8.50576C31.0713 8.27587 31.1403 8.01151 31.1403 7.71266C31.1403 7.40615 31.0713 7.14178 30.9334 6.91956C30.7954 6.68967 30.6039 6.51343 30.3587 6.39082C30.1134 6.26056 29.8338 6.19542 29.5196 6.19542C29.2054 6.19542 28.9257 6.26056 28.6805 6.39082C28.4353 6.51343 28.2399 6.68967 28.0943 6.91956C27.9564 7.14178 27.8874 7.40615 27.8874 7.71266C27.8874 8.01151 27.9564 8.27587 28.0943 8.50576C28.2399 8.73564 28.4353 8.91572 28.6805 9.04599C28.9257 9.16859 29.2054 9.22989 29.5196 9.22989ZM34.5793 11V4.81612H36.3724V11H34.5793ZM35.4758 3.95405C35.1463 3.95405 34.8781 3.85827 34.6712 3.6667C34.4643 3.47513 34.3609 3.23758 34.3609 2.95406C34.3609 2.67053 34.4643 2.43299 34.6712 2.24142C34.8781 2.04985 35.1463 1.95406 35.4758 1.95406C35.8053 1.95406 36.0735 2.04602 36.2804 2.22992C36.4873 2.40617 36.5908 2.63605 36.5908 2.91958C36.5908 3.21843 36.4873 3.46747 36.2804 3.6667C36.0812 3.85827 35.813 3.95405 35.4758 3.95405ZM40.117 11.092C39.5882 11.092 39.0787 11.0307 38.5882 10.908C38.1055 10.7778 37.7223 10.6169 37.4388 10.4253L38.0365 9.13794C38.32 9.31418 38.6534 9.45978 39.0365 9.57472C39.4273 9.682 39.8105 9.73564 40.1859 9.73564C40.5997 9.73564 40.8909 9.68583 41.0595 9.58621C41.2357 9.4866 41.3239 9.34867 41.3239 9.17242C41.3239 9.02683 41.2549 8.91955 41.117 8.85058C40.9867 8.77396 40.8104 8.71649 40.5882 8.67817C40.366 8.63986 40.1208 8.60154 39.8526 8.56323C39.5921 8.52492 39.3277 8.47511 39.0595 8.4138C38.7913 8.34484 38.5461 8.24522 38.3239 8.11496C38.1016 7.98469 37.9216 7.80844 37.7836 7.58622C37.6534 7.364 37.5882 7.07665 37.5882 6.72416C37.5882 6.33335 37.6994 5.98853 37.9216 5.68968C38.1515 5.39083 38.481 5.15711 38.9101 4.98853C39.3392 4.81229 39.8526 4.72417 40.4503 4.72417C40.8718 4.72417 41.3009 4.77014 41.7376 4.8621C42.1744 4.95405 42.5384 5.08815 42.8296 5.26439L42.2319 6.54025C41.933 6.36401 41.6304 6.24523 41.3239 6.18393C41.025 6.11496 40.7338 6.08048 40.4503 6.08048C40.0518 6.08048 39.7606 6.13412 39.5767 6.2414C39.3928 6.34868 39.3009 6.48661 39.3009 6.65519C39.3009 6.80845 39.366 6.92339 39.4963 7.00002C39.6342 7.07665 39.8143 7.13795 40.0365 7.18392C40.2587 7.2299 40.5001 7.27205 40.7606 7.31036C41.0288 7.34101 41.297 7.39082 41.5652 7.45979C41.8334 7.52875 42.0748 7.62837 42.2894 7.75864C42.5116 7.88124 42.6917 8.05365 42.8296 8.27587C42.9675 8.49043 43.0365 8.77396 43.0365 9.12645C43.0365 9.50959 42.9215 9.85058 42.6917 10.1494C42.4618 10.4406 42.1284 10.6705 41.6917 10.8391C41.2626 11.0077 40.7377 11.092 40.117 11.092ZM46.6715 11.092C45.9436 11.092 45.3765 10.908 44.9704 10.5402C44.5643 10.1648 44.3612 9.6092 44.3612 8.87357V3.44831H46.1543V8.85058C46.1543 9.11112 46.2233 9.31418 46.3612 9.45978C46.4991 9.59771 46.6869 9.66667 46.9244 9.66667C47.2079 9.66667 47.4493 9.59004 47.6485 9.43679L48.1313 10.7012C47.9474 10.8314 47.7252 10.931 47.4646 11C47.2118 11.0613 46.9474 11.092 46.6715 11.092ZM43.4072 6.33335V4.95405H47.6945V6.33335H43.4072ZM49.1378 11V4.81612H50.8505V6.56324L50.6091 6.05749C50.793 5.62071 51.088 5.29121 51.4942 5.06899C51.9003 4.83911 52.3945 4.72417 52.9769 4.72417V6.37933C52.9003 6.37167 52.8313 6.36784 52.77 6.36784C52.7087 6.36017 52.6436 6.35634 52.5746 6.35634C52.0842 6.35634 51.6857 6.4981 51.3792 6.78163C51.0804 7.05749 50.9309 7.49044 50.9309 8.08047V11H49.1378ZM57.4321 11V9.79311L57.3171 9.52874V7.36783C57.3171 6.98469 57.1984 6.68584 56.9608 6.47128C56.7309 6.25673 56.3746 6.14945 55.8919 6.14945C55.5624 6.14945 55.2367 6.20309 54.9149 6.31037C54.6007 6.40998 54.3325 6.54791 54.1103 6.72416L53.4666 5.47129C53.8037 5.23374 54.2099 5.04983 54.685 4.91957C55.1601 4.7893 55.6428 4.72417 56.1332 4.72417C57.0758 4.72417 57.8076 4.94639 58.3286 5.39083C58.8497 5.83527 59.1102 6.52876 59.1102 7.47128V11H57.4321ZM55.547 11.092C55.0643 11.092 54.6505 11.0115 54.3057 10.8506C53.9608 10.682 53.6965 10.4559 53.5126 10.1724C53.3287 9.88889 53.2367 9.57089 53.2367 9.2184C53.2367 8.85058 53.3248 8.52875 53.5011 8.25289C53.685 7.97702 53.9723 7.76247 54.3631 7.60921C54.7539 7.44829 55.2635 7.36783 55.8919 7.36783H57.5355V8.4138H56.0873C55.6658 8.4138 55.3746 8.48277 55.2137 8.6207C55.0604 8.75863 54.9838 8.93104 54.9838 9.13794C54.9838 9.36782 55.0719 9.55173 55.2482 9.68966C55.4321 9.81993 55.6811 9.88506 55.9953 9.88506C56.2942 9.88506 56.5624 9.8161 56.7999 9.67817C57.0374 9.53257 57.2099 9.32185 57.3171 9.04599L57.593 9.87357C57.4627 10.272 57.2252 10.5747 56.8804 10.7816C56.5355 10.9885 56.0911 11.092 55.547 11.092ZM63.2618 11.092C62.5338 11.092 61.9668 10.908 61.5607 10.5402C61.1545 10.1648 60.9515 9.6092 60.9515 8.87357V3.44831H62.7446V8.85058C62.7446 9.11112 62.8135 9.31418 62.9515 9.45978C63.0894 9.59771 63.2771 9.66667 63.5147 9.66667C63.7982 9.66667 64.0396 9.59004 64.2388 9.43679L64.7216 10.7012C64.5377 10.8314 64.3154 10.931 64.0549 11C63.802 11.0613 63.5377 11.092 63.2618 11.092ZM59.9974 6.33335V4.95405H64.2848V6.33335H59.9974ZM65.7281 11V4.81612H67.5212V11H65.7281ZM66.6247 3.95405C66.2952 3.95405 66.027 3.85827 65.8201 3.6667C65.6132 3.47513 65.5097 3.23758 65.5097 2.95406C65.5097 2.67053 65.6132 2.43299 65.8201 2.24142C66.027 2.04985 66.2952 1.95406 66.6247 1.95406C66.9542 1.95406 67.2224 2.04602 67.4293 2.22992C67.6361 2.40617 67.7396 2.63605 67.7396 2.91958C67.7396 3.21843 67.6361 3.46747 67.4293 3.6667C67.23 3.85827 66.9618 3.95405 66.6247 3.95405ZM72.1279 11.092C71.4689 11.092 70.8827 10.954 70.3693 10.6782C69.8635 10.4023 69.4612 10.0268 69.1624 9.55173C68.8712 9.06897 68.7256 8.52108 68.7256 7.90806C68.7256 7.28737 68.8712 6.73948 69.1624 6.26439C69.4612 5.78163 69.8635 5.40615 70.3693 5.13796C70.8827 4.8621 71.4689 4.72417 72.1279 4.72417C72.7792 4.72417 73.3616 4.8621 73.875 5.13796C74.3884 5.40615 74.7907 5.7778 75.0819 6.25289C75.3731 6.72799 75.5187 7.27971 75.5187 7.90806C75.5187 8.52108 75.3731 9.06897 75.0819 9.55173C74.7907 10.0268 74.3884 10.4023 73.875 10.6782C73.3616 10.954 72.7792 11.092 72.1279 11.092ZM72.1279 9.6207C72.4267 9.6207 72.6949 9.55173 72.9325 9.4138C73.17 9.27587 73.3577 9.08047 73.4957 8.8276C73.6336 8.56706 73.7026 8.26055 73.7026 7.90806C73.7026 7.54791 73.6336 7.2414 73.4957 6.98852C73.3577 6.73565 73.17 6.54025 72.9325 6.40232C72.6949 6.26439 72.4267 6.19542 72.1279 6.19542C71.829 6.19542 71.5608 6.26439 71.3233 6.40232C71.0857 6.54025 70.8942 6.73565 70.7486 6.98852C70.6106 7.2414 70.5417 7.54791 70.5417 7.90806C70.5417 8.26055 70.6106 8.56706 70.7486 8.8276C70.8942 9.08047 71.0857 9.27587 71.3233 9.4138C71.5608 9.55173 71.829 9.6207 72.1279 9.6207ZM80.4758 4.72417C80.9662 4.72417 81.403 4.82378 81.7861 5.02301C82.1769 5.21458 82.4835 5.51343 82.7057 5.91956C82.9279 6.31803 83.039 6.83144 83.039 7.45979V11H81.2459V7.73565C81.2459 7.23756 81.1348 6.86975 80.9126 6.6322C80.698 6.39466 80.3915 6.27588 79.993 6.27588C79.7095 6.27588 79.4528 6.33719 79.2229 6.45979C79.0007 6.57473 78.8245 6.75481 78.6942 7.00002C78.5716 7.24523 78.5103 7.5594 78.5103 7.94254V11H76.7172V4.81612H78.4298V6.52876L78.108 6.01152C78.3302 5.59772 78.6482 5.27972 79.062 5.0575C79.4758 4.83528 79.9471 4.72417 80.4758 4.72417ZM86.7448 11.092C86.2161 11.092 85.7065 11.0307 85.2161 10.908C84.7333 10.7778 84.3502 10.6169 84.0667 10.4253L84.6644 9.13794C84.9479 9.31418 85.2812 9.45978 85.6644 9.57472C86.0552 9.682 86.4383 9.73564 86.8138 9.73564C87.2276 9.73564 87.5188 9.68583 87.6873 9.58621C87.8636 9.4866 87.9517 9.34867 87.9517 9.17242C87.9517 9.02683 87.8827 8.91955 87.7448 8.85058C87.6145 8.77396 87.4383 8.71649 87.2161 8.67817C86.9939 8.63986 86.7486 8.60154 86.4804 8.56323C86.2199 8.52492 85.9555 8.47511 85.6873 8.4138C85.4191 8.34484 85.1739 8.24522 84.9517 8.11496C84.7295 7.98469 84.5494 7.80844 84.4115 7.58622C84.2812 7.364 84.2161 7.07665 84.2161 6.72416C84.2161 6.33335 84.3272 5.98853 84.5494 5.68968C84.7793 5.39083 85.1088 5.15711 85.5379 4.98853C85.967 4.81229 86.4804 4.72417 87.0781 4.72417C87.4996 4.72417 87.9287 4.77014 88.3655 4.8621C88.8023 4.95405 89.1663 5.08815 89.4574 5.26439L88.8597 6.54025C88.5609 6.36401 88.2582 6.24523 87.9517 6.18393C87.6529 6.11496 87.3617 6.08048 87.0781 6.08048C86.6797 6.08048 86.3885 6.13412 86.2046 6.2414C86.0207 6.34868 85.9287 6.48661 85.9287 6.65519C85.9287 6.80845 85.9939 6.92339 86.1241 7.00002C86.2621 7.07665 86.4421 7.13795 86.6644 7.18392C86.8866 7.2299 87.1279 7.27205 87.3885 7.31036C87.6567 7.34101 87.9249 7.39082 88.1931 7.45979C88.4613 7.52875 88.7027 7.62837 88.9172 7.75864C89.1394 7.88124 89.3195 8.05365 89.4574 8.27587C89.5954 8.49043 89.6643 8.77396 89.6643 9.12645C89.6643 9.50959 89.5494 9.85058 89.3195 10.1494C89.0896 10.4406 88.7563 10.6705 88.3195 10.8391C87.8904 11.0077 87.3655 11.092 86.7448 11.092Z" fill="#003874"/>
<path d="M253.003 136.225V119.72L254.078 120.895H249.052V118.719H255.479V136.225H253.003ZM262.259 136.225V119.72L263.334 120.895H258.307V118.719H264.734V136.225H262.259ZM275.716 136.425C274.349 136.425 273.123 136.075 272.04 135.374C270.973 134.674 270.122 133.657 269.489 132.323C268.872 130.99 268.563 129.373 268.563 127.472C268.563 125.571 268.872 123.954 269.489 122.62C270.122 121.287 270.973 120.27 272.04 119.57C273.123 118.869 274.349 118.519 275.716 118.519C277.066 118.519 278.283 118.869 279.367 119.57C280.45 120.27 281.301 121.287 281.918 122.62C282.534 123.954 282.843 125.571 282.843 127.472C282.843 129.373 282.534 130.99 281.918 132.323C281.301 133.657 280.45 134.674 279.367 135.374C278.283 136.075 277.066 136.425 275.716 136.425ZM275.716 134.199C276.633 134.199 277.433 133.949 278.116 133.449C278.817 132.949 279.358 132.198 279.742 131.198C280.142 130.198 280.342 128.956 280.342 127.472C280.342 125.988 280.142 124.746 279.742 123.746C279.358 122.745 278.817 121.995 278.116 121.495C277.433 120.995 276.633 120.745 275.716 120.745C274.799 120.745 273.99 120.995 273.29 121.495C272.59 121.995 272.04 122.745 271.639 123.746C271.256 124.746 271.064 125.988 271.064 127.472C271.064 128.956 271.256 130.198 271.639 131.198C272.04 132.198 272.59 132.949 273.29 133.449C273.99 133.949 274.799 134.199 275.716 134.199ZM290.441 132.949V121.995H292.542V132.949H290.441ZM285.889 128.472V126.497H297.093V128.472H285.889Z" fill="black"/>
<path d="M257.801 108.746C257.126 108.746 256.496 108.637 255.913 108.421C255.338 108.196 254.837 107.879 254.412 107.47C253.987 107.062 253.654 106.583 253.412 106.032C253.179 105.482 253.062 104.878 253.062 104.219C253.062 103.561 253.179 102.956 253.412 102.406C253.654 101.856 253.987 101.377 254.412 100.968C254.846 100.56 255.35 100.247 255.925 100.031C256.5 99.8055 257.13 99.693 257.813 99.693C258.572 99.693 259.255 99.8264 259.864 100.093C260.481 100.352 260.998 100.735 261.414 101.243L260.114 102.444C259.814 102.102 259.481 101.848 259.114 101.681C258.747 101.506 258.347 101.419 257.913 101.419C257.505 101.419 257.13 101.485 256.788 101.619C256.446 101.752 256.15 101.944 255.9 102.194C255.65 102.444 255.454 102.74 255.313 103.082C255.179 103.423 255.112 103.803 255.112 104.219C255.112 104.636 255.179 105.015 255.313 105.357C255.454 105.699 255.65 105.995 255.9 106.245C256.15 106.495 256.446 106.687 256.788 106.82C257.13 106.954 257.505 107.02 257.913 107.02C258.347 107.02 258.747 106.937 259.114 106.77C259.481 106.595 259.814 106.333 260.114 105.982L261.414 107.183C260.998 107.691 260.481 108.079 259.864 108.346C259.255 108.612 258.568 108.746 257.801 108.746ZM262.645 108.596V101.869H264.595V108.596H262.645ZM263.62 100.931C263.262 100.931 262.97 100.827 262.745 100.618C262.52 100.41 262.407 100.151 262.407 99.843C262.407 99.5346 262.52 99.2762 262.745 99.0678C262.97 98.8594 263.262 98.7552 263.62 98.7552C263.979 98.7552 264.27 98.8552 264.495 99.0553C264.72 99.247 264.833 99.4971 264.833 99.8055C264.833 100.131 264.72 100.402 264.495 100.618C264.279 100.827 263.987 100.931 263.62 100.931ZM269.157 108.696C268.365 108.696 267.748 108.496 267.306 108.096C266.864 107.687 266.643 107.083 266.643 106.282V100.381H268.594V106.257C268.594 106.541 268.669 106.762 268.819 106.92C268.969 107.07 269.173 107.145 269.432 107.145C269.74 107.145 270.003 107.062 270.219 106.895L270.745 108.271C270.544 108.412 270.303 108.521 270.019 108.596C269.744 108.662 269.457 108.696 269.157 108.696ZM265.605 103.519V102.019H270.269V103.519H265.605ZM271.839 108.596V101.869H273.79V108.596H271.839ZM272.815 100.931C272.456 100.931 272.165 100.827 271.94 100.618C271.714 100.41 271.602 100.151 271.602 99.843C271.602 99.5346 271.714 99.2762 271.94 99.0678C272.165 98.8594 272.456 98.7552 272.815 98.7552C273.173 98.7552 273.465 98.8552 273.69 99.0553C273.915 99.247 274.028 99.4971 274.028 99.8055C274.028 100.131 273.915 100.402 273.69 100.618C273.473 100.827 273.182 100.931 272.815 100.931ZM278.939 108.696C278.172 108.696 277.497 108.546 276.913 108.246C276.338 107.946 275.892 107.537 275.575 107.02C275.259 106.495 275.1 105.899 275.1 105.232C275.1 104.557 275.254 103.961 275.563 103.444C275.88 102.919 276.309 102.511 276.851 102.219C277.393 101.919 278.005 101.769 278.689 101.769C279.347 101.769 279.939 101.91 280.464 102.194C280.998 102.469 281.419 102.869 281.727 103.394C282.036 103.911 282.19 104.532 282.19 105.257C282.19 105.332 282.186 105.42 282.177 105.52C282.169 105.611 282.161 105.699 282.152 105.782H276.688V104.644H281.127L280.377 104.982C280.377 104.632 280.306 104.328 280.164 104.069C280.023 103.811 279.827 103.611 279.577 103.469C279.327 103.319 279.035 103.244 278.701 103.244C278.368 103.244 278.072 103.319 277.814 103.469C277.564 103.611 277.368 103.815 277.226 104.082C277.084 104.34 277.013 104.649 277.013 105.007V105.307C277.013 105.674 277.093 105.999 277.251 106.282C277.418 106.558 277.647 106.77 277.939 106.92C278.239 107.062 278.589 107.133 278.989 107.133C279.347 107.133 279.66 107.079 279.927 106.97C280.202 106.862 280.452 106.699 280.677 106.483L281.715 107.608C281.406 107.958 281.019 108.229 280.552 108.421C280.085 108.604 279.547 108.696 278.939 108.696ZM285.752 108.696C285.177 108.696 284.622 108.629 284.089 108.496C283.564 108.354 283.147 108.179 282.838 107.971L283.489 106.57C283.797 106.762 284.16 106.92 284.576 107.045C285.002 107.162 285.418 107.22 285.827 107.22C286.277 107.22 286.594 107.166 286.777 107.058C286.969 106.949 287.065 106.799 287.065 106.608C287.065 106.449 286.99 106.333 286.84 106.257C286.698 106.174 286.506 106.112 286.264 106.07C286.023 106.028 285.756 105.987 285.464 105.945C285.181 105.903 284.893 105.849 284.601 105.782C284.31 105.707 284.043 105.599 283.801 105.457C283.559 105.316 283.364 105.124 283.213 104.882C283.072 104.64 283.001 104.328 283.001 103.944C283.001 103.519 283.122 103.144 283.364 102.819C283.614 102.494 283.972 102.24 284.439 102.056C284.906 101.864 285.464 101.769 286.114 101.769C286.573 101.769 287.04 101.819 287.515 101.919C287.99 102.019 288.386 102.165 288.703 102.356L288.052 103.744C287.727 103.552 287.398 103.423 287.065 103.357C286.74 103.282 286.423 103.244 286.114 103.244C285.681 103.244 285.364 103.302 285.164 103.419C284.964 103.536 284.864 103.686 284.864 103.869C284.864 104.036 284.935 104.161 285.077 104.244C285.227 104.328 285.422 104.394 285.664 104.444C285.906 104.494 286.169 104.54 286.452 104.582C286.744 104.615 287.035 104.67 287.327 104.745C287.619 104.82 287.882 104.928 288.115 105.07C288.357 105.203 288.553 105.391 288.703 105.632C288.853 105.866 288.928 106.174 288.928 106.558C288.928 106.974 288.803 107.345 288.553 107.67C288.303 107.987 287.94 108.237 287.465 108.421C286.998 108.604 286.427 108.696 285.752 108.696Z" fill="#003874"/>
<path fill-rule="evenodd" clip-rule="evenodd" d="M73.7853 181.582C54.0646 187.783 46.7748 179.038 34.3839 171.864C21.9174 164.645 19.8412 175.791 25.7399 179.516C31.6392 183.241 27.1361 189.073 13.4506 181.612C6.0757 177.592 4.16986 176.967 1.60499 179.552C-2.66555 183.855 2.02696 188.658 10.4746 191.441C25.764 196.479 56.2113 191.75 73.7853 181.582Z" fill="#5595D1"/>
<path fill-rule="evenodd" clip-rule="evenodd" d="M33.5063 172.63C37.3619 174.617 38.2694 176.436 47.9633 181.374C47.9162 181.364 39.7151 179.318 32.2493 175.21C30.1058 174.188 27.3789 173.746 28.1205 172.054C28.6283 169.86 31.7257 171.814 33.5063 172.63Z" fill="#7DBFEE"/>
<path fill-rule="evenodd" clip-rule="evenodd" d="M38.706 170.16C31.1315 165.158 29.1475 165.076 24.1309 162.799C18.0746 160.051 22.1233 153.031 28.0544 156.023C35.477 159.767 38.706 170.16 38.706 170.16Z" fill="#5A9DD8"/>
<path fill-rule="evenodd" clip-rule="evenodd" d="M28.6068 157.24C30.4993 158.289 34.2735 161.573 36.3274 165.758C32.2875 161.085 29.5282 160.046 27.6433 159.013C26.1645 158.232 25.0461 158.18 25.482 157.043C25.8252 155.552 27.3682 156.614 28.6068 157.24Z" fill="#8CC3EB"/>
<path fill-rule="evenodd" clip-rule="evenodd" d="M273.898 24.1123C282.075 5.6562 292.356 -4.15778 295.393 1.68307C298.431 7.52456 273.898 24.1123 273.898 24.1123Z" fill="#5A9DD8"/>
<path fill-rule="evenodd" clip-rule="evenodd" d="M289.026 3.02609C287.334 4.35427 284.146 8.16916 282.789 12.5998C286.019 7.37797 288.564 5.92458 290.25 4.61419C291.579 3.61455 292.669 3.38832 292.062 2.34166C291.49 0.933397 290.144 2.2171 289.026 3.02609Z" fill="#8CC3EB"/>
</svg>
