<svg width="499" height="328" viewBox="0 0 499 328" fill="none" xmlns="http://www.w3.org/2000/svg">
<path fill-rule="evenodd" clip-rule="evenodd" d="M130.166 156.861C130.166 156.861 158.704 176.481 182.487 175.735C210.183 174.864 171.389 167.412 173.727 143.177L130.166 156.861Z" fill="#28508B"/>
<path fill-rule="evenodd" clip-rule="evenodd" d="M50.2506 180.531C50.2506 180.531 46.269 171.132 70.0475 155.247C70.0475 155.247 52.7164 97.7049 131.171 75.6573C146.411 71.3748 160.824 69.9563 176.547 68.1844C176.964 68.1383 197.756 56.5646 204.68 54.4355C229.114 46.9165 260.165 45.6068 269.89 60.8766C274.714 68.452 241.754 63.6791 249.965 89.8287C256.578 96.0918 276.251 109.216 283.703 117.211C319.382 155.491 328.838 195.514 332.779 234.304C333.722 243.578 324.641 235.845 323.896 234.449C296.213 182.47 234.176 135.29 118.534 165.755C85.8934 174.355 55.3013 190.011 50.2506 180.531Z" fill="#28508B"/>
<path fill-rule="evenodd" clip-rule="evenodd" d="M315.878 221.054C312.632 216.197 309.056 211.443 305.13 206.856C271.715 167.811 213.021 140.864 118.531 165.757C86.5093 174.192 56.4639 189.419 50.5682 181.04C61.6118 175.449 72.4698 170.086 83.4251 165.234C86.9407 163.677 95.5954 158.449 99.321 153.617C105.855 145.145 109.078 143.651 118.599 140.065C154.338 126.607 204.074 126.967 247.327 146.081C272.501 157.204 294.635 176.076 306.944 197.821C311.173 205.291 314.243 213.102 315.878 221.054Z" fill="white"/>
<path fill-rule="evenodd" clip-rule="evenodd" d="M204.319 156.905C196.321 156.199 187.911 155.981 179.081 156.298C171.209 149.252 166.505 140.605 163.783 131.007C164.932 130.944 166.084 130.894 167.24 130.854L204.319 156.905Z" fill="#C7C8C8"/>
<path fill-rule="evenodd" clip-rule="evenodd" d="M314.884 219.592C312.574 216.221 310.103 212.903 307.462 209.657C289.816 181.706 261.292 164.992 228.744 157.016C195.617 148.898 158.328 149.826 124.071 157.171C98.4038 162.675 74.4511 171.78 55.2393 183.378C54.4929 183.291 53.8119 183.144 53.2012 182.929C53.2562 182.736 53.383 182.56 53.5686 182.446C73.0723 170.519 97.5178 161.162 123.725 155.543C158.205 148.149 195.756 147.218 229.135 155.399C262.591 163.599 291.864 180.947 309.695 210.099C311.551 213.136 313.283 216.3 314.884 219.592Z" fill="#C7C8C8"/>
<path fill-rule="evenodd" clip-rule="evenodd" d="M315.876 221.054C315.419 220.37 314.957 219.692 314.488 219.014C310.352 209.489 304.979 200.869 298.76 193.167C286.698 178.23 271.452 166.729 255.886 158.725C227.873 144.322 194.8 140.073 162.031 143.005C137.867 145.168 113.875 151.237 92.1973 160.022C93.7413 158.922 95.2622 157.729 96.5963 156.51C117.079 148.733 139.409 143.362 161.888 141.351C194.947 138.392 228.335 142.69 256.648 157.248C272.403 165.348 287.838 176.992 300.057 192.125C305.443 198.795 310.203 206.143 314.092 214.162C314.801 216.442 315.401 218.742 315.876 221.054Z" fill="#C7C8C8"/>
<path fill-rule="evenodd" clip-rule="evenodd" d="M288.309 295C298.049 292.974 326.241 284.047 328.768 239.669C328.843 238.349 341.034 285.822 394.668 288.966C394.668 288.966 389.723 240.429 334.946 228.232C329.848 227.097 323.516 200.215 320.692 198.357C299.095 184.149 325.65 214.198 317.112 229.385C315.185 232.814 289.018 235.65 288.309 295Z" fill="#28508B"/>
<path fill-rule="evenodd" clip-rule="evenodd" d="M170.573 140.652C180.505 154.905 201.4 168.43 222.429 171.491C238.383 173.813 235.305 169.456 226.489 161.905C211.762 149.287 214.988 121.523 213.743 120.576C205.308 114.167 185.184 118.141 173.333 119.139C153.483 120.816 159.912 125.355 170.573 140.652Z" fill="#28508B"/>
<path fill-rule="evenodd" clip-rule="evenodd" d="M108.554 125.603C108.527 126.063 108.134 126.412 107.673 126.386C107.216 126.36 106.865 125.965 106.892 125.507C107.043 122.925 107.871 121.1 109.031 119.959C109.834 119.168 110.793 118.706 111.803 118.549C112.797 118.392 113.835 118.535 114.813 118.949C116.364 119.605 117.772 120.95 118.607 122.871C118.79 123.291 118.598 123.781 118.176 123.965C117.755 124.15 117.265 123.956 117.083 123.537C116.425 122.025 115.347 120.979 114.169 120.478C113.475 120.184 112.747 120.082 112.059 120.19C111.39 120.296 110.746 120.609 110.2 121.146C109.313 122.014 108.678 123.473 108.554 125.603Z" fill="white"/>
<path fill-rule="evenodd" clip-rule="evenodd" d="M52.1 181.098C51.6993 181.325 51.1936 181.185 50.9657 180.786C50.7391 180.388 50.8799 179.88 51.2781 179.652C58.0866 175.792 64.8375 172.809 71.1479 170.023C87.6199 162.744 101.054 156.812 103.819 140.231C103.896 139.776 104.325 139.472 104.777 139.546C105.23 139.623 105.537 140.052 105.462 140.505C102.547 157.97 88.7427 164.069 71.8188 171.547C65.5339 174.323 58.8125 177.293 52.1 181.098Z" fill="#253758"/>
<path fill-rule="evenodd" clip-rule="evenodd" d="M289.364 277.717C290.56 273.982 291.764 270.795 293.039 267.935C296.192 260.854 299.751 255.809 304.612 249.525C314.275 237.034 324.052 227.317 324.08 227.286C324.393 226.952 324.917 226.934 325.252 227.247C325.464 227.445 325.549 227.729 325.503 227.994L325.506 227.995C322.791 243.381 318.598 256.209 312.367 268.471C307.766 277.527 302.248 285.663 295.869 292.782C294.702 293.228 293.59 293.602 292.556 293.915C299.72 286.389 305.857 277.612 310.881 267.721C316.651 256.365 320.726 244.242 323.455 230.136C320.064 233.874 313.001 241.397 305.927 250.542C301.139 256.732 297.636 261.691 294.554 268.613C292.483 273.265 290.592 278.815 288.619 286.226C288.802 283.226 289.051 280.389 289.364 277.717Z" fill="#466A9E"/>
<path fill-rule="evenodd" clip-rule="evenodd" d="M324.712 228.142C324.584 227.703 324.397 227.241 324.837 227.114C339.559 231.878 361.066 248.197 365.993 252.564C375.938 261.383 384.928 271.973 394.072 285.424C394.534 287.655 394.67 288.966 394.67 288.966C394.59 288.961 394.513 288.953 394.434 288.95C384.761 274.37 375.354 263.084 364.892 253.81C353.979 244.134 341.899 236.63 327.158 229.83C329.918 235.658 337.637 245.854 346.805 255.654C355.479 264.927 365.431 273.807 373.678 278.248C383.328 283.444 389.543 286.827 393.265 288.865C391.83 288.756 390.418 288.621 389.041 288.452C385.298 286.413 380.05 283.57 372.891 279.716C364.481 275.187 354.379 266.181 345.594 256.788C335.002 245.466 326.285 233.524 324.712 228.142Z" fill="#466A9E"/>
<path fill-rule="evenodd" clip-rule="evenodd" d="M323.117 204.257C314.524 171.252 301.145 140.541 251.272 103.891C250.631 102.201 249.624 96.9313 251.326 97.341C254.507 98.1053 259.696 102.791 265.169 106.293C292.42 123.729 321.021 171.369 323.117 204.257Z" fill="#466A9E"/>
<path fill-rule="evenodd" clip-rule="evenodd" d="M200.689 59.5296C211.506 54.6505 238.466 47.1033 254.797 55.6312C239.204 53.1577 220.725 56.3008 202.923 64.3742C198.072 66.7567 193.121 71.5322 191.08 68.8794C186.979 65.4061 198.676 60.5423 200.689 59.5296Z" fill="#466A9E"/>
<path fill-rule="evenodd" clip-rule="evenodd" d="M149.639 159.187C152.33 161.973 156.339 164.348 160.703 166.296C169.757 170.338 180.257 172.508 183.976 172.754C177.726 170.371 167.72 165.595 161.177 157.63C161.848 157.557 162.514 157.488 163.181 157.419C172.895 168.475 189.484 172.872 190.082 173.028C190.461 173.116 190.737 173.465 190.72 173.868C190.701 174.328 190.316 174.685 189.856 174.668L184.209 174.431C180.673 174.284 169.535 172.059 160.027 167.812C155.074 165.601 150.538 162.829 147.678 159.496C148.333 159.391 148.985 159.291 149.639 159.187Z" fill="#466A9E"/>
<path fill-rule="evenodd" clip-rule="evenodd" d="M178.947 116.275C179.024 115.822 179.454 115.517 179.907 115.595C180.36 115.672 180.665 116.102 180.588 116.554C178.8 126.808 181.712 135.798 186.597 143.162C193.702 153.874 204.951 161.147 212.069 163.885C224.198 168.55 228.796 169.009 228.808 169.009C229.266 169.059 229.596 169.472 229.545 169.929C229.495 170.386 229.084 170.715 228.627 170.665C228.611 170.665 223.823 170.183 211.476 165.435C204.13 162.609 192.527 155.111 185.209 144.079C180.112 136.397 177.077 127.004 178.947 116.275Z" fill="#466A9E"/>
<path fill-rule="evenodd" clip-rule="evenodd" d="M185.304 122.459C185.217 122.005 185.51 121.569 185.962 121.48C186.414 121.392 186.851 121.687 186.94 122.139C188.816 131.683 194.15 140.238 201.066 147.574C209.897 156.935 221.306 164.306 231.435 169.205C231.849 169.404 232.021 169.902 231.823 170.316C231.623 170.73 231.125 170.903 230.713 170.704C220.43 165.729 208.842 158.242 199.856 148.713C192.738 141.169 187.247 132.341 185.304 122.459Z" fill="#466A9E"/>
<path fill-rule="evenodd" clip-rule="evenodd" d="M118.484 118.122C118.338 117.854 118.437 117.515 118.705 117.369C118.973 117.222 119.311 117.319 119.458 117.588C119.849 118.298 119.952 118.96 119.855 119.535C119.769 120.04 119.529 120.468 119.186 120.797C118.854 121.118 118.426 121.342 117.953 121.445C117.319 121.586 116.601 121.512 115.93 121.173C115.657 121.033 115.548 120.698 115.688 120.425C115.826 120.152 116.161 120.042 116.435 120.182C116.868 120.402 117.321 120.451 117.714 120.363C117.987 120.305 118.232 120.177 118.417 119.997C118.593 119.83 118.716 119.608 118.76 119.349C118.817 119.009 118.743 118.592 118.484 118.122Z" fill="white"/>
<path fill-rule="evenodd" clip-rule="evenodd" d="M120.902 120.929C120.961 120.628 121.252 120.431 121.553 120.488C121.853 120.545 122.051 120.837 121.994 121.137C121.869 121.783 121.555 122.265 121.131 122.593C120.705 122.923 120.175 123.092 119.619 123.115C119.093 123.137 118.539 123.025 118.042 122.794C117.357 122.477 116.764 121.935 116.457 121.207C116.339 120.925 116.471 120.6 116.752 120.481C117.035 120.362 117.36 120.495 117.478 120.775C117.668 121.232 118.055 121.578 118.507 121.787C118.849 121.944 119.224 122.022 119.577 122.007C119.905 121.995 120.212 121.899 120.449 121.716C120.669 121.546 120.836 121.285 120.902 120.929Z" fill="white"/>
<path fill-rule="evenodd" clip-rule="evenodd" d="M74.791 121.76C76.6205 116.771 78.6779 112.875 81.6469 108.466C87.6283 100.132 94.127 93.8911 103.315 89.2309C104.15 88.8187 104.857 88.3168 105.657 87.8597C106.014 87.66 107.985 86.7075 108.25 87.3912C108.234 87.5205 106.766 88.7866 106.552 89.0056C105.836 89.7699 105.274 90.3819 104.425 91.0246C96.4455 97.1686 91.2592 102.611 85.7873 111.152C83.2715 115.301 81.474 118.997 79.8174 123.551C78.1863 128.542 77.8253 136.72 74.5362 135.942C69.4049 136.23 74.0907 123.985 74.791 121.76Z" fill="#466A9E"/>
<path d="M293.005 103.609V79.7339L294.56 81.434H287.289V78.2869H296.586V103.609H293.005ZM301.727 103.609V101.149L312.037 91.201C312.953 90.3328 313.628 89.5732 314.062 88.922C314.521 88.2468 314.822 87.6318 314.967 87.0772C315.135 86.4984 315.22 85.9437 315.22 85.4132C315.22 84.1109 314.762 83.086 313.845 82.3384C312.929 81.5908 311.59 81.217 309.83 81.217C308.479 81.217 307.262 81.4461 306.176 81.9043C305.091 82.3384 304.151 83.0257 303.355 83.9662L300.895 81.8319C301.86 80.602 303.15 79.6615 304.766 79.0104C306.406 78.3351 308.202 77.9975 310.156 77.9975C311.916 77.9975 313.447 78.2869 314.75 78.8657C316.052 79.4204 317.053 80.2282 317.752 81.2893C318.476 82.3504 318.837 83.6045 318.837 85.0514C318.837 85.8714 318.729 86.6793 318.512 87.4751C318.295 88.2709 317.885 89.115 317.282 90.0073C316.679 90.8995 315.811 91.9004 314.677 93.0097L305.489 101.872L304.621 100.462H319.923V103.609H301.727ZM333.207 103.898C331.23 103.898 329.457 103.392 327.89 102.379C326.346 101.366 325.116 99.8948 324.2 97.9655C323.307 96.0362 322.861 93.697 322.861 90.9478C322.861 88.1986 323.307 85.8593 324.2 83.93C325.116 82.0008 326.346 80.5297 327.89 79.5168C329.457 78.5039 331.23 77.9975 333.207 77.9975C335.16 77.9975 336.921 78.5039 338.488 79.5168C340.056 80.5297 341.286 82.0008 342.178 83.93C343.071 85.8593 343.517 88.1986 343.517 90.9478C343.517 93.697 343.071 96.0362 342.178 97.9655C341.286 99.8948 340.056 101.366 338.488 102.379C336.921 103.392 335.16 103.898 333.207 103.898ZM333.207 100.679C334.533 100.679 335.691 100.317 336.68 99.5933C337.693 98.8699 338.476 97.7846 339.031 96.3377C339.61 94.8907 339.899 93.0941 339.899 90.9478C339.899 88.8015 339.61 87.0048 339.031 85.5579C338.476 84.1109 337.693 83.0257 336.68 82.3022C335.691 81.5787 334.533 81.217 333.207 81.217C331.881 81.217 330.711 81.5787 329.698 82.3022C328.685 83.0257 327.89 84.1109 327.311 85.5579C326.756 87.0048 326.479 88.8015 326.479 90.9478C326.479 93.0941 326.756 94.8907 327.311 96.3377C327.89 97.7846 328.685 98.8699 329.698 99.5933C330.711 100.317 331.881 100.679 333.207 100.679ZM357.335 103.898C355.357 103.898 353.585 103.392 352.017 102.379C350.474 101.366 349.244 99.8948 348.327 97.9655C347.435 96.0362 346.989 93.697 346.989 90.9478C346.989 88.1986 347.435 85.8593 348.327 83.93C349.244 82.0008 350.474 80.5297 352.017 79.5168C353.585 78.5039 355.357 77.9975 357.335 77.9975C359.288 77.9975 361.049 78.5039 362.616 79.5168C364.184 80.5297 365.414 82.0008 366.306 83.93C367.198 85.8593 367.644 88.1986 367.644 90.9478C367.644 93.697 367.198 96.0362 366.306 97.9655C365.414 99.8948 364.184 101.366 362.616 102.379C361.049 103.392 359.288 103.898 357.335 103.898ZM357.335 100.679C358.661 100.679 359.819 100.317 360.807 99.5933C361.82 98.8699 362.604 97.7846 363.159 96.3377C363.738 94.8907 364.027 93.0941 364.027 90.9478C364.027 88.8015 363.738 87.0048 363.159 85.5579C362.604 84.1109 361.82 83.0257 360.807 82.3022C359.819 81.5787 358.661 81.217 357.335 81.217C356.008 81.217 354.839 81.5787 353.826 82.3022C352.813 83.0257 352.017 84.1109 351.438 85.5579C350.884 87.0048 350.606 88.8015 350.606 90.9478C350.606 93.0941 350.884 94.8907 351.438 96.3377C352.017 97.7846 352.813 98.8699 353.826 99.5933C354.839 100.317 356.008 100.679 357.335 100.679ZM381.463 103.898C379.485 103.898 377.712 103.392 376.145 102.379C374.602 101.366 373.372 99.8948 372.455 97.9655C371.563 96.0362 371.117 93.697 371.117 90.9478C371.117 88.1986 371.563 85.8593 372.455 83.93C373.372 82.0008 374.602 80.5297 376.145 79.5168C377.712 78.5039 379.485 77.9975 381.463 77.9975C383.416 77.9975 385.176 78.5039 386.744 79.5168C388.311 80.5297 389.541 82.0008 390.434 83.93C391.326 85.8593 391.772 88.1986 391.772 90.9478C391.772 93.697 391.326 96.0362 390.434 97.9655C389.541 99.8948 388.311 101.366 386.744 102.379C385.176 103.392 383.416 103.898 381.463 103.898ZM381.463 100.679C382.789 100.679 383.946 100.317 384.935 99.5933C385.948 98.8699 386.732 97.7846 387.287 96.3377C387.865 94.8907 388.155 93.0941 388.155 90.9478C388.155 88.8015 387.865 87.0048 387.287 85.5579C386.732 84.1109 385.948 83.0257 384.935 82.3022C383.946 81.5787 382.789 81.217 381.463 81.217C380.136 81.217 378.967 81.5787 377.954 82.3022C376.941 83.0257 376.145 84.1109 375.566 85.5579C375.012 87.0048 374.734 88.8015 374.734 90.9478C374.734 93.0941 375.012 94.8907 375.566 96.3377C376.145 97.7846 376.941 98.8699 377.954 99.5933C378.967 100.317 380.136 100.679 381.463 100.679ZM402.763 98.8699V83.0257H405.801V98.8699H402.763ZM396.179 92.3947V89.537H412.385V92.3947H396.179Z" fill="black"/>
<path d="M293.421 63V50.3391H298.358C299.468 50.3391 300.414 50.514 301.198 50.8637C301.982 51.2133 302.585 51.7198 303.007 52.383C303.429 53.0461 303.64 53.8359 303.64 54.7523C303.64 55.6688 303.429 56.4586 303.007 57.1217C302.585 57.7729 301.982 58.2733 301.198 58.623C300.414 58.9726 299.468 59.1475 298.358 59.1475H294.415L295.229 58.3155V63H293.421ZM301.885 63L298.666 58.4059H300.601L303.857 63H301.885ZM295.229 58.4963L294.415 57.6101H298.304C299.462 57.6101 300.336 57.3629 300.927 56.8685C301.53 56.3621 301.831 55.6567 301.831 54.7523C301.831 53.848 301.53 53.1486 300.927 52.6543C300.336 52.1599 299.462 51.9127 298.304 51.9127H294.415L295.229 51.0083V58.4963ZM310.577 63.1085C309.552 63.1085 308.648 62.8975 307.864 62.4755C307.092 62.0534 306.49 61.4747 306.055 60.7391C305.633 60.0036 305.422 59.1595 305.422 58.207C305.422 57.2544 305.627 56.4103 306.037 55.6748C306.459 54.9392 307.032 54.3665 307.756 53.9565C308.491 53.5345 309.317 53.3235 310.234 53.3235C311.162 53.3235 311.982 53.5285 312.693 53.9384C313.405 54.3484 313.959 54.9272 314.357 55.6748C314.767 56.4103 314.972 57.2725 314.972 58.2612C314.972 58.3336 314.966 58.418 314.954 58.5144C314.954 58.6109 314.948 58.7013 314.936 58.7857H306.779V57.5377H314.032L313.326 57.9718C313.338 57.3569 313.212 56.8082 312.947 56.3259C312.681 55.8436 312.314 55.4698 311.843 55.2045C311.385 54.9272 310.849 54.7885 310.234 54.7885C309.631 54.7885 309.094 54.9272 308.624 55.2045C308.154 55.4698 307.786 55.8496 307.521 56.344C307.255 56.8263 307.123 57.381 307.123 58.008V58.2974C307.123 58.9365 307.267 59.5092 307.557 60.0157C307.858 60.51 308.274 60.8959 308.805 61.1732C309.335 61.4506 309.944 61.5892 310.631 61.5892C311.198 61.5892 311.711 61.4928 312.169 61.2998C312.639 61.1069 313.049 60.8175 313.399 60.4317L314.357 61.553C313.923 62.0595 313.381 62.4453 312.73 62.7106C312.09 62.9759 311.373 63.1085 310.577 63.1085ZM321.58 66.6174C320.699 66.6174 319.843 66.4908 319.011 66.2376C318.191 65.9964 317.522 65.6467 317.004 65.1885L317.836 63.8501C318.282 64.2359 318.83 64.5374 319.482 64.7544C320.133 64.9835 320.814 65.0981 321.525 65.0981C322.659 65.0981 323.491 64.8328 324.021 64.3023C324.552 63.7717 324.817 62.9638 324.817 61.8786V59.8529L324.998 57.9537L324.908 56.0365V53.4139H326.554V61.6977C326.554 63.3859 326.131 64.6278 325.287 65.4237C324.443 66.2195 323.207 66.6174 321.58 66.6174ZM321.363 62.6021C320.434 62.6021 319.602 62.4092 318.867 62.0233C318.143 61.6254 317.564 61.0768 317.13 60.3774C316.708 59.678 316.497 58.8701 316.497 57.9537C316.497 57.0253 316.708 56.2174 317.13 55.5301C317.564 54.8307 318.143 54.2881 318.867 53.9023C319.602 53.5164 320.434 53.3235 321.363 53.3235C322.183 53.3235 322.93 53.4923 323.605 53.8299C324.281 54.1555 324.817 54.6619 325.215 55.3492C325.625 56.0365 325.83 56.9047 325.83 57.9537C325.83 58.9907 325.625 59.8529 325.215 60.5402C324.817 61.2275 324.281 61.746 323.605 62.0957C322.93 62.4333 322.183 62.6021 321.363 62.6021ZM321.562 61.0828C322.201 61.0828 322.767 60.9501 323.262 60.6849C323.756 60.4196 324.142 60.0518 324.419 59.5816C324.709 59.1113 324.853 58.5687 324.853 57.9537C324.853 57.3388 324.709 56.7962 324.419 56.3259C324.142 55.8557 323.756 55.4939 323.262 55.2407C322.767 54.9754 322.201 54.8428 321.562 54.8428C320.922 54.8428 320.35 54.9754 319.843 55.2407C319.349 55.4939 318.957 55.8557 318.668 56.3259C318.39 56.7962 318.252 57.3388 318.252 57.9537C318.252 58.5687 318.39 59.1113 318.668 59.5816C318.957 60.0518 319.349 60.4196 319.843 60.6849C320.35 60.9501 320.922 61.0828 321.562 61.0828ZM329.871 63V53.4139H331.608V63H329.871ZM330.739 51.569C330.402 51.569 330.118 51.4605 329.889 51.2435C329.672 51.0264 329.564 50.7612 329.564 50.4477C329.564 50.1221 329.672 49.8508 329.889 49.6337C330.118 49.4167 330.402 49.3082 330.739 49.3082C331.077 49.3082 331.354 49.4167 331.571 49.6337C331.8 49.8387 331.915 50.098 331.915 50.4115C331.915 50.737 331.807 51.0144 331.589 51.2435C331.372 51.4605 331.089 51.569 330.739 51.569ZM337.672 63.1085C336.876 63.1085 336.117 63 335.393 62.783C334.682 62.5659 334.121 62.3006 333.711 61.9871L334.434 60.6125C334.844 60.8899 335.351 61.125 335.954 61.3179C336.557 61.5108 337.172 61.6073 337.799 61.6073C338.607 61.6073 339.185 61.4928 339.535 61.2637C339.897 61.0346 340.078 60.715 340.078 60.305C340.078 60.0036 339.969 59.7685 339.752 59.5997C339.535 59.4308 339.246 59.3042 338.884 59.2198C338.534 59.1354 338.142 59.0631 337.708 59.0028C337.274 58.9304 336.84 58.846 336.406 58.7496C335.972 58.641 335.574 58.4963 335.212 58.3155C334.85 58.1226 334.561 57.8633 334.344 57.5377C334.127 57.2001 334.018 56.754 334.018 56.1993C334.018 55.6205 334.181 55.1141 334.507 54.68C334.832 54.2459 335.291 53.9143 335.881 53.6852C336.484 53.4441 337.196 53.3235 338.016 53.3235C338.643 53.3235 339.276 53.4019 339.915 53.5586C340.566 53.7033 341.097 53.9143 341.506 54.1917L340.765 55.5663C340.331 55.2769 339.879 55.0779 339.408 54.9694C338.938 54.8609 338.468 54.8066 337.998 54.8066C337.238 54.8066 336.671 54.9332 336.297 55.1864C335.924 55.4276 335.737 55.7411 335.737 56.127C335.737 56.4525 335.845 56.7057 336.062 56.8866C336.291 57.0554 336.581 57.1881 336.93 57.2845C337.292 57.381 337.69 57.4654 338.124 57.5377C338.558 57.598 338.992 57.6824 339.426 57.791C339.861 57.8874 340.252 58.0261 340.602 58.207C340.964 58.3878 341.253 58.641 341.47 58.9666C341.699 59.2922 341.814 59.7263 341.814 60.2689C341.814 60.8477 341.645 61.3481 341.308 61.7701C340.97 62.1921 340.494 62.5237 339.879 62.7649C339.264 62.994 338.528 63.1085 337.672 63.1085ZM347.276 63.1085C346.311 63.1085 345.564 62.8493 345.033 62.3308C344.502 61.8123 344.237 61.0707 344.237 60.1061V51.3158H345.974V60.0337C345.974 60.5522 346.1 60.9501 346.353 61.2275C346.619 61.5048 346.992 61.6435 347.475 61.6435C348.017 61.6435 348.47 61.4928 348.831 61.1913L349.374 62.4393C349.109 62.6684 348.789 62.8372 348.415 62.9457C348.054 63.0543 347.674 63.1085 347.276 63.1085ZM342.609 54.8428V53.4139H348.723V54.8428H342.609ZM351.473 63V53.4139H353.137V56.0184L352.974 55.3673C353.24 54.7041 353.686 54.1977 354.313 53.848C354.94 53.4983 355.711 53.3235 356.628 53.3235V55.0056C356.556 54.9935 356.483 54.9875 356.411 54.9875C356.351 54.9875 356.29 54.9875 356.23 54.9875C355.302 54.9875 354.566 55.2648 354.023 55.8195C353.481 56.3741 353.209 57.176 353.209 58.225V63H351.473ZM364.012 63V60.9743L363.922 60.5944V57.1398C363.922 56.4043 363.705 55.8376 363.27 55.4397C362.848 55.0297 362.209 54.8247 361.353 54.8247C360.787 54.8247 360.232 54.9212 359.689 55.1141C359.147 55.295 358.688 55.5421 358.315 55.8557L357.591 54.5534C358.086 54.1555 358.676 53.854 359.364 53.649C360.063 53.432 360.793 53.3235 361.552 53.3235C362.867 53.3235 363.879 53.643 364.591 54.2821C365.302 54.9212 365.658 55.8979 365.658 57.2122V63H364.012ZM360.865 63.1085C360.153 63.1085 359.526 62.9879 358.984 62.7468C358.453 62.5056 358.043 62.174 357.754 61.752C357.465 61.3179 357.32 60.8296 357.32 60.287C357.32 59.7685 357.44 59.2982 357.682 58.8762C357.935 58.4541 358.339 58.1165 358.893 57.8633C359.46 57.6101 360.22 57.4835 361.172 57.4835H364.211V58.7315H361.245C360.377 58.7315 359.792 58.8762 359.49 59.1656C359.189 59.455 359.038 59.8046 359.038 60.2146C359.038 60.6849 359.225 61.0647 359.599 61.3541C359.973 61.6314 360.491 61.7701 361.154 61.7701C361.805 61.7701 362.372 61.6254 362.854 61.336C363.349 61.0466 363.705 60.6246 363.922 60.0699L364.265 61.2637C364.036 61.8304 363.632 62.2826 363.053 62.6202C362.475 62.9457 361.745 63.1085 360.865 63.1085ZM372.163 63.1085C371.198 63.1085 370.451 62.8493 369.92 62.3308C369.39 61.8123 369.124 61.0707 369.124 60.1061V51.3158H370.861V60.0337C370.861 60.5522 370.987 60.9501 371.241 61.2275C371.506 61.5048 371.88 61.6435 372.362 61.6435C372.905 61.6435 373.357 61.4928 373.719 61.1913L374.261 62.4393C373.996 62.6684 373.676 62.8372 373.303 62.9457C372.941 63.0543 372.561 63.1085 372.163 63.1085ZM367.497 54.8428V53.4139H373.61V54.8428H367.497ZM376.36 63V53.4139H378.097V63H376.36ZM377.229 51.569C376.891 51.569 376.608 51.4605 376.378 51.2435C376.161 51.0264 376.053 50.7612 376.053 50.4477C376.053 50.1221 376.161 49.8508 376.378 49.6337C376.608 49.4167 376.891 49.3082 377.229 49.3082C377.566 49.3082 377.843 49.4167 378.061 49.6337C378.29 49.8387 378.404 50.098 378.404 50.4115C378.404 50.737 378.296 51.0144 378.079 51.2435C377.862 51.4605 377.578 51.569 377.229 51.569ZM385.518 63.1085C384.553 63.1085 383.697 62.8975 382.949 62.4755C382.202 62.0534 381.611 61.4747 381.177 60.7391C380.743 59.9915 380.526 59.1475 380.526 58.207C380.526 57.2544 380.743 56.4103 381.177 55.6748C381.611 54.9392 382.202 54.3665 382.949 53.9565C383.697 53.5345 384.553 53.3235 385.518 53.3235C386.47 53.3235 387.32 53.5345 388.068 53.9565C388.828 54.3665 389.418 54.9392 389.84 55.6748C390.275 56.3983 390.492 57.2423 390.492 58.207C390.492 59.1595 390.275 60.0036 389.84 60.7391C389.418 61.4747 388.828 62.0534 388.068 62.4755C387.32 62.8975 386.47 63.1085 385.518 63.1085ZM385.518 61.5892C386.133 61.5892 386.681 61.4506 387.164 61.1732C387.658 60.8959 388.044 60.504 388.321 59.9976C388.599 59.4791 388.737 58.8822 388.737 58.207C388.737 57.5197 388.599 56.9288 388.321 56.4344C388.044 55.928 387.658 55.5361 387.164 55.2588C386.681 54.9814 386.133 54.8428 385.518 54.8428C384.903 54.8428 384.354 54.9814 383.872 55.2588C383.389 55.5361 383.004 55.928 382.714 56.4344C382.425 56.9288 382.28 57.5197 382.28 58.207C382.28 58.8822 382.425 59.4791 382.714 59.9976C383.004 60.504 383.389 60.8959 383.872 61.1732C384.354 61.4506 384.903 61.5892 385.518 61.5892ZM398.012 53.3235C398.795 53.3235 399.483 53.4742 400.073 53.7757C400.676 54.0771 401.147 54.5353 401.484 55.1503C401.822 55.7652 401.991 56.543 401.991 57.4835V63H400.254V57.6824C400.254 56.754 400.025 56.0546 399.567 55.5843C399.121 55.1141 398.488 54.879 397.668 54.879C397.053 54.879 396.516 54.9995 396.058 55.2407C395.6 55.4819 395.244 55.8376 394.991 56.3078C394.75 56.7781 394.629 57.3629 394.629 58.0623V63H392.893V53.4139H394.557V56.0003L394.286 55.313C394.599 54.686 395.081 54.1977 395.733 53.848C396.384 53.4983 397.143 53.3235 398.012 53.3235ZM407.953 63.1085C407.157 63.1085 406.398 63 405.674 62.783C404.963 62.5659 404.402 62.3006 403.992 61.9871L404.716 60.6125C405.126 60.8899 405.632 61.125 406.235 61.3179C406.838 61.5108 407.453 61.6073 408.08 61.6073C408.888 61.6073 409.467 61.4928 409.816 61.2637C410.178 61.0346 410.359 60.715 410.359 60.305C410.359 60.0036 410.25 59.7685 410.033 59.5997C409.816 59.4308 409.527 59.3042 409.165 59.2198C408.815 59.1354 408.424 59.0631 407.989 59.0028C407.555 58.9304 407.121 58.846 406.687 58.7496C406.253 58.641 405.855 58.4963 405.493 58.3155C405.132 58.1226 404.842 57.8633 404.625 57.5377C404.408 57.2001 404.3 56.754 404.3 56.1993C404.3 55.6205 404.463 55.1141 404.788 54.68C405.114 54.2459 405.572 53.9143 406.163 53.6852C406.766 53.4441 407.477 53.3235 408.297 53.3235C408.924 53.3235 409.557 53.4019 410.196 53.5586C410.847 53.7033 411.378 53.9143 411.788 54.1917L411.046 55.5663C410.612 55.2769 410.16 55.0779 409.69 54.9694C409.219 54.8609 408.749 54.8066 408.279 54.8066C407.519 54.8066 406.952 54.9332 406.579 55.1864C406.205 55.4276 406.018 55.7411 406.018 56.127C406.018 56.4525 406.127 56.7057 406.344 56.8866C406.573 57.0554 406.862 57.1881 407.212 57.2845C407.573 57.381 407.971 57.4654 408.405 57.5377C408.84 57.598 409.274 57.6824 409.708 57.791C410.142 57.8874 410.534 58.0261 410.883 58.207C411.245 58.3878 411.535 58.641 411.752 58.9666C411.981 59.2922 412.095 59.7263 412.095 60.2689C412.095 60.8477 411.926 61.3481 411.589 61.7701C411.251 62.1921 410.775 62.5237 410.16 62.7649C409.545 62.994 408.809 63.1085 407.953 63.1085Z" fill="#003874"/>
<path d="M20.0049 57.6086V33.7339L21.5603 35.434H14.2894V32.2869H23.5861V57.6086H20.0049ZM28.727 57.6086V55.1488L39.0366 45.201C39.953 44.3328 40.6282 43.5732 41.0623 42.922C41.5205 42.2468 41.822 41.6318 41.9667 41.0772C42.1355 40.4984 42.2199 39.9437 42.2199 39.4132C42.2199 38.1109 41.7617 37.086 40.8453 36.3384C39.9289 35.5908 38.5904 35.217 36.83 35.217C35.4795 35.217 34.2616 35.4461 33.1764 35.9043C32.0912 36.3384 31.1507 37.0257 30.3548 37.9662L27.895 35.8319C28.8597 34.602 30.1499 33.6615 31.7656 33.0104C33.4055 32.3351 35.2022 31.9975 37.1555 31.9975C38.916 31.9975 40.4474 32.2869 41.7496 32.8657C43.0519 33.4204 44.0527 34.2282 44.7521 35.2893C45.4755 36.3504 45.8373 37.6045 45.8373 39.0514C45.8373 39.8714 45.7288 40.6793 45.5117 41.4751C45.2947 42.2709 44.8847 43.115 44.2818 44.0073C43.6789 44.8995 42.8107 45.9004 41.6773 47.0097L32.4891 55.8723L31.6209 54.4615H46.9225V57.6086H28.727ZM60.2071 57.898C58.2296 57.898 56.4571 57.3916 54.8895 56.3787C53.3461 55.3659 52.1162 53.8948 51.1998 51.9655C50.3075 50.0362 49.8613 47.697 49.8613 44.9478C49.8613 42.1986 50.3075 39.8593 51.1998 37.93C52.1162 36.0008 53.3461 34.5297 54.8895 33.5168C56.4571 32.5039 58.2296 31.9975 60.2071 31.9975C62.1605 31.9975 63.9209 32.5039 65.4885 33.5168C67.056 34.5297 68.2859 36.0008 69.1782 37.93C70.0705 39.8593 70.5167 42.1986 70.5167 44.9478C70.5167 47.697 70.0705 50.0362 69.1782 51.9655C68.2859 53.8948 67.056 55.3659 65.4885 56.3787C63.9209 57.3916 62.1605 57.898 60.2071 57.898ZM60.2071 54.6786C61.5335 54.6786 62.691 54.3168 63.6798 53.5933C64.6927 52.8699 65.4764 51.7846 66.0311 50.3377C66.6099 48.8907 66.8993 47.0941 66.8993 44.9478C66.8993 42.8015 66.6099 41.0048 66.0311 39.5579C65.4764 38.1109 64.6927 37.0257 63.6798 36.3022C62.691 35.5787 61.5335 35.217 60.2071 35.217C58.8807 35.217 57.7111 35.5787 56.6982 36.3022C55.6853 37.0257 54.8895 38.1109 54.3107 39.5579C53.7561 41.0048 53.4787 42.8015 53.4787 44.9478C53.4787 47.0941 53.7561 48.8907 54.3107 50.3377C54.8895 51.7846 55.6853 52.8699 56.6982 53.5933C57.7111 54.3168 58.8807 54.6786 60.2071 54.6786ZM84.3348 57.898C82.3573 57.898 80.5848 57.3916 79.0172 56.3787C77.4738 55.3659 76.2439 53.8948 75.3275 51.9655C74.4352 50.0362 73.9891 47.697 73.9891 44.9478C73.9891 42.1986 74.4352 39.8593 75.3275 37.93C76.2439 36.0008 77.4738 34.5297 79.0172 33.5168C80.5848 32.5039 82.3573 31.9975 84.3348 31.9975C86.2882 31.9975 88.0487 32.5039 89.6162 33.5168C91.1837 34.5297 92.4136 36.0008 93.3059 37.93C94.1982 39.8593 94.6444 42.1986 94.6444 44.9478C94.6444 47.697 94.1982 50.0362 93.3059 51.9655C92.4136 53.8948 91.1837 55.3659 89.6162 56.3787C88.0487 57.3916 86.2882 57.898 84.3348 57.898ZM84.3348 54.6786C85.6612 54.6786 86.8187 54.3168 87.8075 53.5933C88.8204 52.8699 89.6041 51.7846 90.1588 50.3377C90.7376 48.8907 91.027 47.0941 91.027 44.9478C91.027 42.8015 90.7376 41.0048 90.1588 39.5579C89.6041 38.1109 88.8204 37.0257 87.8075 36.3022C86.8187 35.5787 85.6612 35.217 84.3348 35.217C83.0084 35.217 81.8388 35.5787 80.8259 36.3022C79.8131 37.0257 79.0172 38.1109 78.4385 39.5579C77.8838 41.0048 77.6065 42.8015 77.6065 44.9478C77.6065 47.0941 77.8838 48.8907 78.4385 50.3377C79.0172 51.7846 79.8131 52.8699 80.8259 53.5933C81.8388 54.3168 83.0084 54.6786 84.3348 54.6786ZM108.463 57.898C106.485 57.898 104.712 57.3916 103.145 56.3787C101.602 55.3659 100.372 53.8948 99.4552 51.9655C98.5629 50.0362 98.1168 47.697 98.1168 44.9478C98.1168 42.1986 98.5629 39.8593 99.4552 37.93C100.372 36.0008 101.602 34.5297 103.145 33.5168C104.712 32.5039 106.485 31.9975 108.463 31.9975C110.416 31.9975 112.176 32.5039 113.744 33.5168C115.311 34.5297 116.541 36.0008 117.434 37.93C118.326 39.8593 118.772 42.1986 118.772 44.9478C118.772 47.697 118.326 50.0362 117.434 51.9655C116.541 53.8948 115.311 55.3659 113.744 56.3787C112.176 57.3916 110.416 57.898 108.463 57.898ZM108.463 54.6786C109.789 54.6786 110.946 54.3168 111.935 53.5933C112.948 52.8699 113.732 51.7846 114.287 50.3377C114.865 48.8907 115.155 47.0941 115.155 44.9478C115.155 42.8015 114.865 41.0048 114.287 39.5579C113.732 38.1109 112.948 37.0257 111.935 36.3022C110.946 35.5787 109.789 35.217 108.463 35.217C107.136 35.217 105.967 35.5787 104.954 36.3022C103.941 37.0257 103.145 38.1109 102.566 39.5579C102.012 41.0048 101.734 42.8015 101.734 44.9478C101.734 47.0941 102.012 48.8907 102.566 50.3377C103.145 51.7846 103.941 52.8699 104.954 53.5933C105.967 54.3168 107.136 54.6786 108.463 54.6786ZM129.763 52.8699V37.0257H132.801V52.8699H129.763ZM123.179 46.3947V43.537H139.385V46.3947H123.179Z" fill="black"/>
<path d="M20.4206 17V4.33913H25.3584C26.4677 4.33913 27.4142 4.51397 28.198 4.86365C28.9818 5.21333 29.5847 5.71977 30.0067 6.38296C30.4287 7.04615 30.6397 7.83594 30.6397 8.75235C30.6397 9.66875 30.4287 10.4586 30.0067 11.1217C29.5847 11.7729 28.9818 12.2733 28.198 12.623C27.4142 12.9726 26.4677 13.1475 25.3584 13.1475H21.4154L22.2293 12.3155V17H20.4206ZM28.8853 17L25.6658 12.4059H27.6011L30.8568 17H28.8853ZM22.2293 12.4963L21.4154 11.6101H25.3041C26.4617 11.6101 27.3359 11.3629 27.9267 10.8685C28.5296 10.3621 28.8311 9.6567 28.8311 8.75235C28.8311 7.848 28.5296 7.14864 27.9267 6.65426C27.3359 6.15988 26.4617 5.9127 25.3041 5.9127H21.4154L22.2293 5.00835V12.4963ZM37.5772 17.1085C36.5523 17.1085 35.6479 16.8975 34.8642 16.4755C34.0925 16.0534 33.4896 15.4747 33.0555 14.7391C32.6335 14.0036 32.4224 13.1595 32.4224 12.207C32.4224 11.2544 32.6274 10.4103 33.0374 9.67478C33.4594 8.93925 34.0322 8.36649 34.7557 7.95652C35.4912 7.53449 36.3172 7.32348 37.2336 7.32348C38.162 7.32348 38.982 7.52846 39.6934 7.93843C40.4048 8.34841 40.9595 8.92719 41.3574 9.67478C41.7674 10.4103 41.9724 11.2725 41.9724 12.2612C41.9724 12.3336 41.9663 12.418 41.9543 12.5144C41.9543 12.6109 41.9482 12.7013 41.9362 12.7857H33.779V11.5377H41.0318L40.3264 11.9718C40.3385 11.3569 40.2119 10.8082 39.9466 10.3259C39.6813 9.84359 39.3136 9.4698 38.8433 9.20452C38.3851 8.92719 37.8485 8.78852 37.2336 8.78852C36.6307 8.78852 36.0941 8.92719 35.6238 9.20452C35.1536 9.4698 34.7858 9.84962 34.5205 10.344C34.2553 10.8263 34.1226 11.381 34.1226 12.008V12.2974C34.1226 12.9365 34.2673 13.5092 34.5567 14.0157C34.8582 14.51 35.2742 14.8959 35.8047 15.1732C36.3353 15.4506 36.9442 15.5892 37.6315 15.5892C38.1982 15.5892 38.7107 15.4928 39.1689 15.2998C39.6391 15.1069 40.0491 14.8175 40.3988 14.4317L41.3574 15.553C40.9233 16.0595 40.3807 16.4453 39.7296 16.7106C39.0905 16.9759 38.373 17.1085 37.5772 17.1085ZM48.5796 20.6174C47.6994 20.6174 46.8433 20.4908 46.0113 20.2376C45.1913 19.9964 44.5221 19.6467 44.0036 19.1885L44.8356 17.8501C45.2817 18.2359 45.8304 18.5374 46.4815 18.7544C47.1326 18.9835 47.8139 19.0981 48.5253 19.0981C49.6588 19.0981 50.4908 18.8328 51.0213 18.3023C51.5519 17.7717 51.8172 16.9638 51.8172 15.8786V13.8529L51.998 11.9537L51.9076 10.0365V7.41391H53.5535V15.6977C53.5535 17.3859 53.1315 18.6278 52.2874 19.4237C51.4434 20.2195 50.2074 20.6174 48.5796 20.6174ZM48.3626 16.6021C47.4341 16.6021 46.6021 16.4092 45.8666 16.0233C45.1431 15.6254 44.5643 15.0768 44.1302 14.3774C43.7082 13.678 43.4972 12.8701 43.4972 11.9537C43.4972 11.0253 43.7082 10.2174 44.1302 9.53009C44.5643 8.83072 45.1431 8.28812 45.8666 7.90226C46.6021 7.51641 47.4341 7.32348 48.3626 7.32348C49.1825 7.32348 49.9301 7.49229 50.6053 7.82991C51.2806 8.15548 51.8172 8.66191 52.2151 9.34922C52.6251 10.0365 52.83 10.9047 52.83 11.9537C52.83 12.9907 52.6251 13.8529 52.2151 14.5402C51.8172 15.2275 51.2806 15.746 50.6053 16.0957C49.9301 16.4333 49.1825 16.6021 48.3626 16.6021ZM48.5615 15.0828C49.2006 15.0828 49.7673 14.9501 50.2617 14.6849C50.7561 14.4196 51.1419 14.0518 51.4193 13.5816C51.7086 13.1113 51.8533 12.5687 51.8533 11.9537C51.8533 11.3388 51.7086 10.7962 51.4193 10.3259C51.1419 9.85565 50.7561 9.49391 50.2617 9.2407C49.7673 8.97542 49.2006 8.84278 48.5615 8.84278C47.9224 8.84278 47.3497 8.97542 46.8433 9.2407C46.3489 9.49391 45.957 9.85565 45.6676 10.3259C45.3903 10.7962 45.2516 11.3388 45.2516 11.9537C45.2516 12.5687 45.3903 13.1113 45.6676 13.5816C45.957 14.0518 46.3489 14.4196 46.8433 14.6849C47.3497 14.9501 47.9224 15.0828 48.5615 15.0828ZM56.8712 17V7.41391H58.6075V17H56.8712ZM57.7394 5.56904C57.4018 5.56904 57.1184 5.46052 56.8893 5.24348C56.6722 5.02643 56.5637 4.76116 56.5637 4.44765C56.5637 4.12209 56.6722 3.85078 56.8893 3.63374C57.1184 3.4167 57.4018 3.30817 57.7394 3.30817C58.077 3.30817 58.3543 3.4167 58.5714 3.63374C58.8005 3.83872 58.915 4.09797 58.915 4.41148C58.915 4.73704 58.8065 5.01438 58.5895 5.24348C58.3724 5.46052 58.0891 5.56904 57.7394 5.56904ZM64.672 17.1085C63.8762 17.1085 63.1166 17 62.3931 16.783C61.6817 16.5659 61.121 16.3006 60.711 15.9871L61.4345 14.6125C61.8445 14.8899 62.3509 15.125 62.9538 15.3179C63.5567 15.5108 64.1716 15.6073 64.7987 15.6073C65.6065 15.6073 66.1853 15.4928 66.535 15.2637C66.8967 15.0346 67.0776 14.715 67.0776 14.305C67.0776 14.0036 66.9691 13.7685 66.752 13.5997C66.535 13.4308 66.2456 13.3042 65.8839 13.2198C65.5342 13.1354 65.1423 13.0631 64.7082 13.0028C64.2741 12.9304 63.84 12.846 63.406 12.7496C62.9719 12.641 62.574 12.4963 62.2122 12.3155C61.8505 12.1226 61.5611 11.8633 61.344 11.5377C61.127 11.2001 61.0185 10.754 61.0185 10.1993C61.0185 9.62052 61.1813 9.11409 61.5068 8.68C61.8324 8.24591 62.2906 7.91432 62.8814 7.68522C63.4843 7.44406 64.1958 7.32348 65.0157 7.32348C65.6427 7.32348 66.2758 7.40185 66.9148 7.55861C67.566 7.7033 68.0965 7.91432 68.5065 8.19165L67.7649 9.56626C67.3308 9.27687 66.8787 9.07791 66.4084 8.96939C65.9381 8.86087 65.4679 8.80661 64.9976 8.80661C64.238 8.80661 63.6712 8.93322 63.2974 9.18643C62.9236 9.42759 62.7367 9.7411 62.7367 10.127C62.7367 10.4525 62.8453 10.7057 63.0623 10.8866C63.2914 11.0554 63.5808 11.1881 63.9305 11.2845C64.2922 11.381 64.6901 11.4654 65.1242 11.5377C65.5583 11.598 65.9924 11.6824 66.4265 11.791C66.8606 11.8874 67.2525 12.0261 67.6021 12.207C67.9639 12.3878 68.2533 12.641 68.4703 12.9666C68.6994 13.2922 68.814 13.7263 68.814 14.2689C68.814 14.8477 68.6451 15.3481 68.3075 15.7701C67.9699 16.1921 67.4936 16.5237 66.8787 16.7649C66.2637 16.994 65.5282 17.1085 64.672 17.1085ZM74.2758 17.1085C73.3112 17.1085 72.5636 16.8493 72.033 16.3308C71.5025 15.8123 71.2372 15.0707 71.2372 14.1061V5.31583H72.9735V14.0337C72.9735 14.5522 73.1001 14.9501 73.3534 15.2275C73.6186 15.5048 73.9924 15.6435 74.4748 15.6435C75.0174 15.6435 75.4695 15.4928 75.8313 15.1913L76.3739 16.4393C76.1086 16.6684 75.7891 16.8372 75.4153 16.9457C75.0535 17.0543 74.6737 17.1085 74.2758 17.1085ZM69.6094 8.84278V7.41391H75.7228V8.84278H69.6094ZM78.4731 17V7.41391H80.1371V10.0184L79.9743 9.3673C80.2396 8.70412 80.6857 8.19768 81.3128 7.848C81.9398 7.49832 82.7115 7.32348 83.6279 7.32348V9.00556C83.5555 8.99351 83.4832 8.98748 83.4108 8.98748C83.3506 8.98748 83.2903 8.98748 83.23 8.98748C82.3015 8.98748 81.566 9.26481 81.0234 9.81948C80.4808 10.3741 80.2095 11.176 80.2095 12.225V17H78.4731ZM91.012 17V14.9743L90.9216 14.5944V11.1398C90.9216 10.4043 90.7045 9.83757 90.2705 9.43965C89.8484 9.02968 89.2094 8.8247 88.3532 8.8247C87.7865 8.8247 87.2319 8.92116 86.6892 9.11409C86.1466 9.29496 85.6884 9.54214 85.3146 9.85565L84.5912 8.55339C85.0855 8.15548 85.6764 7.85403 86.3637 7.64904C87.063 7.432 87.7925 7.32348 88.5522 7.32348C89.8665 7.32348 90.8794 7.64301 91.5908 8.28209C92.3022 8.92116 92.6579 9.89785 92.6579 11.2122V17H91.012ZM87.8649 17.1085C87.1535 17.1085 86.5265 16.9879 85.9839 16.7468C85.4533 16.5056 85.0433 16.174 84.7539 15.752C84.4645 15.3179 84.3199 14.8296 84.3199 14.287C84.3199 13.7685 84.4404 13.2982 84.6816 12.8762C84.9348 12.4541 85.3388 12.1165 85.8934 11.8633C86.4601 11.6101 87.2198 11.4835 88.1724 11.4835H91.211V12.7315H88.2447C87.3765 12.7315 86.7917 12.8762 86.4903 13.1656C86.1888 13.455 86.0381 13.8046 86.0381 14.2146C86.0381 14.6849 86.225 15.0647 86.5988 15.3541C86.9726 15.6314 87.4911 15.7701 88.1543 15.7701C88.8054 15.7701 89.3721 15.6254 89.8545 15.336C90.3488 15.0466 90.7045 14.6246 90.9216 14.0699L91.2652 15.2637C91.0361 15.8304 90.6322 16.2826 90.0534 16.6202C89.4746 16.9457 88.7451 17.1085 87.8649 17.1085ZM99.163 17.1085C98.1984 17.1085 97.4508 16.8493 96.9202 16.3308C96.3897 15.8123 96.1244 15.0707 96.1244 14.1061V5.31583H97.8608V14.0337C97.8608 14.5522 97.9874 14.9501 98.2406 15.2275C98.5059 15.5048 98.8797 15.6435 99.362 15.6435C99.9046 15.6435 100.357 15.4928 100.719 15.1913L101.261 16.4393C100.996 16.6684 100.676 16.8372 100.303 16.9457C99.9408 17.0543 99.5609 17.1085 99.163 17.1085ZM94.4966 8.84278V7.41391H100.61V8.84278H94.4966ZM103.36 17V7.41391H105.097V17H103.36ZM104.229 5.56904C103.891 5.56904 103.608 5.46052 103.378 5.24348C103.161 5.02643 103.053 4.76116 103.053 4.44765C103.053 4.12209 103.161 3.85078 103.378 3.63374C103.608 3.4167 103.891 3.30817 104.229 3.30817C104.566 3.30817 104.843 3.4167 105.061 3.63374C105.29 3.83872 105.404 4.09797 105.404 4.41148C105.404 4.73704 105.296 5.01438 105.079 5.24348C104.862 5.46052 104.578 5.56904 104.229 5.56904ZM112.518 17.1085C111.553 17.1085 110.697 16.8975 109.949 16.4755C109.202 16.0534 108.611 15.4747 108.177 14.7391C107.743 13.9915 107.526 13.1475 107.526 12.207C107.526 11.2544 107.743 10.4103 108.177 9.67478C108.611 8.93925 109.202 8.36649 109.949 7.95652C110.697 7.53449 111.553 7.32348 112.518 7.32348C113.47 7.32348 114.32 7.53449 115.068 7.95652C115.828 8.36649 116.418 8.93925 116.84 9.67478C117.275 10.3983 117.492 11.2423 117.492 12.207C117.492 13.1595 117.275 14.0036 116.84 14.7391C116.418 15.4747 115.828 16.0534 115.068 16.4755C114.32 16.8975 113.47 17.1085 112.518 17.1085ZM112.518 15.5892C113.133 15.5892 113.681 15.4506 114.164 15.1732C114.658 14.8959 115.044 14.504 115.321 13.9976C115.599 13.4791 115.737 12.8822 115.737 12.207C115.737 11.5197 115.599 10.9288 115.321 10.4344C115.044 9.928 114.658 9.53612 114.164 9.25878C113.681 8.98145 113.133 8.84278 112.518 8.84278C111.903 8.84278 111.354 8.98145 110.872 9.25878C110.389 9.53612 110.004 9.928 109.714 10.4344C109.425 10.9288 109.28 11.5197 109.28 12.207C109.28 12.8822 109.425 13.4791 109.714 13.9976C110.004 14.504 110.389 14.8959 110.872 15.1732C111.354 15.4506 111.903 15.5892 112.518 15.5892ZM125.012 7.32348C125.795 7.32348 126.483 7.4742 127.073 7.77565C127.676 8.0771 128.147 8.5353 128.484 9.15026C128.822 9.76522 128.991 10.543 128.991 11.4835V17H127.254V11.6824C127.254 10.754 127.025 10.0546 126.567 9.58435C126.121 9.11409 125.488 8.87896 124.668 8.87896C124.053 8.87896 123.516 8.99954 123.058 9.2407C122.6 9.48186 122.244 9.83757 121.991 10.3078C121.75 10.7781 121.629 11.3629 121.629 12.0623V17H119.893V7.41391H121.557V10.0003L121.286 9.31304C121.599 8.68603 122.081 8.19768 122.733 7.848C123.384 7.49832 124.143 7.32348 125.012 7.32348ZM134.953 17.1085C134.157 17.1085 133.398 17 132.674 16.783C131.963 16.5659 131.402 16.3006 130.992 15.9871L131.716 14.6125C132.126 14.8899 132.632 15.125 133.235 15.3179C133.838 15.5108 134.453 15.6073 135.08 15.6073C135.888 15.6073 136.467 15.4928 136.816 15.2637C137.178 15.0346 137.359 14.715 137.359 14.305C137.359 14.0036 137.25 13.7685 137.033 13.5997C136.816 13.4308 136.527 13.3042 136.165 13.2198C135.815 13.1354 135.424 13.0631 134.989 13.0028C134.555 12.9304 134.121 12.846 133.687 12.7496C133.253 12.641 132.855 12.4963 132.493 12.3155C132.132 12.1226 131.842 11.8633 131.625 11.5377C131.408 11.2001 131.3 10.754 131.3 10.1993C131.3 9.62052 131.463 9.11409 131.788 8.68C132.114 8.24591 132.572 7.91432 133.163 7.68522C133.766 7.44406 134.477 7.32348 135.297 7.32348C135.924 7.32348 136.557 7.40185 137.196 7.55861C137.847 7.7033 138.378 7.91432 138.788 8.19165L138.046 9.56626C137.612 9.27687 137.16 9.07791 136.69 8.96939C136.219 8.86087 135.749 8.80661 135.279 8.80661C134.519 8.80661 133.952 8.93322 133.579 9.18643C133.205 9.42759 133.018 9.7411 133.018 10.127C133.018 10.4525 133.127 10.7057 133.344 10.8866C133.573 11.0554 133.862 11.1881 134.212 11.2845C134.573 11.381 134.971 11.4654 135.405 11.5377C135.84 11.598 136.274 11.6824 136.708 11.791C137.142 11.8874 137.534 12.0261 137.883 12.207C138.245 12.3878 138.535 12.641 138.752 12.9666C138.981 13.2922 139.095 13.7263 139.095 14.2689C139.095 14.8477 138.926 15.3481 138.589 15.7701C138.251 16.1921 137.775 16.5237 137.16 16.7649C136.545 16.994 135.809 17.1085 134.953 17.1085Z" fill="#003874"/>
<path d="M77.5323 271.594V245.623L79.2244 247.472H71.3148V244.049H81.4281V271.594H77.5323ZM98.708 271.909C96.5568 271.909 94.6285 271.358 92.9233 270.257C91.2443 269.155 89.9064 267.554 88.9095 265.456C87.9388 263.357 87.4535 260.812 87.4535 257.822C87.4535 254.831 87.9388 252.286 88.9095 250.187C89.9064 248.089 91.2443 246.488 92.9233 245.386C94.6285 244.285 96.5568 243.734 98.708 243.734C100.833 243.734 102.748 244.285 104.453 245.386C106.158 246.488 107.496 248.089 108.467 250.187C109.438 252.286 109.923 254.831 109.923 257.822C109.923 260.812 109.438 263.357 108.467 265.456C107.496 267.554 106.158 269.155 104.453 270.257C102.748 271.358 100.833 271.909 98.708 271.909ZM98.708 268.407C100.151 268.407 101.41 268.014 102.486 267.226C103.588 266.439 104.44 265.259 105.044 263.685C105.673 262.111 105.988 260.156 105.988 257.822C105.988 255.487 105.673 253.532 105.044 251.958C104.44 250.384 103.588 249.204 102.486 248.417C101.41 247.63 100.151 247.236 98.708 247.236C97.2651 247.236 95.9927 247.63 94.8909 248.417C93.789 249.204 92.9233 250.384 92.2937 251.958C91.6903 253.532 91.3886 255.487 91.3886 257.822C91.3886 260.156 91.6903 262.111 92.2937 263.685C92.9233 265.259 93.789 266.439 94.8909 267.226C95.9927 268.014 97.2651 268.407 98.708 268.407ZM124.955 271.909C122.804 271.909 120.876 271.358 119.17 270.257C117.491 269.155 116.153 267.554 115.157 265.456C114.186 263.357 113.701 260.812 113.701 257.822C113.701 254.831 114.186 252.286 115.157 250.187C116.153 248.089 117.491 246.488 119.17 245.386C120.876 244.285 122.804 243.734 124.955 243.734C127.08 243.734 128.995 244.285 130.7 245.386C132.406 246.488 133.743 248.089 134.714 250.187C135.685 252.286 136.17 254.831 136.17 257.822C136.17 260.812 135.685 263.357 134.714 265.456C133.743 267.554 132.406 269.155 130.7 270.257C128.995 271.358 127.08 271.909 124.955 271.909ZM124.955 268.407C126.398 268.407 127.657 268.014 128.733 267.226C129.835 266.439 130.687 265.259 131.291 263.685C131.92 262.111 132.235 260.156 132.235 257.822C132.235 255.487 131.92 253.532 131.291 251.958C130.687 250.384 129.835 249.204 128.733 248.417C127.657 247.63 126.398 247.236 124.955 247.236C123.512 247.236 122.24 247.63 121.138 248.417C120.036 249.204 119.17 250.384 118.541 251.958C117.937 253.532 117.636 255.487 117.636 257.822C117.636 260.156 117.937 262.111 118.541 263.685C119.17 265.259 120.036 266.439 121.138 267.226C122.24 268.014 123.512 268.407 124.955 268.407ZM148.126 266.439V249.204H151.432V266.439H148.126ZM140.964 259.396V256.287H158.594V259.396H140.964Z" fill="black"/>
<path d="M97.6697 228.236C96.6073 228.236 95.6169 228.066 94.6987 227.725C93.7936 227.37 93.0066 226.872 92.3376 226.229C91.6687 225.586 91.144 224.832 90.7636 223.966C90.3963 223.101 90.2127 222.15 90.2127 221.114C90.2127 220.077 90.3963 219.126 90.7636 218.261C91.144 217.395 91.6687 216.641 92.3376 215.998C93.0197 215.355 93.8133 214.863 94.7184 214.522C95.6235 214.168 96.6138 213.991 97.6894 213.991C98.8831 213.991 99.9587 214.201 100.916 214.621C101.887 215.027 102.7 215.631 103.356 216.431L101.31 218.32C100.838 217.782 100.313 217.382 99.7357 217.119C99.1585 216.844 98.5289 216.706 97.8468 216.706C97.2041 216.706 96.6138 216.811 96.076 217.021C95.5382 217.231 95.0726 217.533 94.679 217.926C94.2855 218.32 93.9773 218.785 93.7543 219.323C93.5444 219.861 93.4395 220.458 93.4395 221.114C93.4395 221.769 93.5444 222.366 93.7543 222.904C93.9773 223.442 94.2855 223.907 94.679 224.301C95.0726 224.694 95.5382 224.996 96.076 225.206C96.6138 225.416 97.2041 225.521 97.8468 225.521C98.5289 225.521 99.1585 225.39 99.7357 225.127C100.313 224.852 100.838 224.439 101.31 223.888L103.356 225.777C102.7 226.577 101.887 227.187 100.916 227.606C99.9587 228.026 98.8765 228.236 97.6697 228.236ZM105.292 228V217.414H108.361V228H105.292ZM106.827 215.939C106.263 215.939 105.804 215.775 105.449 215.447C105.095 215.119 104.918 214.712 104.918 214.227C104.918 213.742 105.095 213.335 105.449 213.007C105.804 212.679 106.263 212.515 106.827 212.515C107.391 212.515 107.85 212.673 108.204 212.987C108.558 213.289 108.735 213.683 108.735 214.168C108.735 214.68 108.558 215.106 108.204 215.447C107.863 215.775 107.404 215.939 106.827 215.939ZM115.539 228.157C114.293 228.157 113.322 227.843 112.627 227.213C111.932 226.57 111.584 225.619 111.584 224.36V215.073H114.653V224.321C114.653 224.767 114.771 225.114 115.008 225.363C115.244 225.6 115.565 225.718 115.972 225.718C116.457 225.718 116.87 225.586 117.211 225.324L118.038 227.488C117.723 227.711 117.342 227.882 116.896 228C116.464 228.105 116.011 228.157 115.539 228.157ZM109.951 220.012V217.651H117.29V220.012H109.951ZM119.761 228V217.414H122.83V228H119.761ZM121.295 215.939C120.731 215.939 120.272 215.775 119.918 215.447C119.564 215.119 119.387 214.712 119.387 214.227C119.387 213.742 119.564 213.335 119.918 213.007C120.272 212.679 120.731 212.515 121.295 212.515C121.859 212.515 122.318 212.673 122.673 212.987C123.027 213.289 123.204 213.683 123.204 214.168C123.204 214.68 123.027 215.106 122.673 215.447C122.332 215.775 121.872 215.939 121.295 215.939ZM130.932 228.157C129.725 228.157 128.663 227.921 127.745 227.449C126.84 226.977 126.138 226.334 125.639 225.521C125.141 224.694 124.892 223.757 124.892 222.707C124.892 221.645 125.134 220.707 125.62 219.894C126.118 219.067 126.794 218.425 127.646 217.965C128.499 217.493 129.463 217.257 130.539 217.257C131.575 217.257 132.506 217.48 133.333 217.926C134.172 218.359 134.834 218.989 135.32 219.815C135.805 220.628 136.048 221.605 136.048 222.747C136.048 222.865 136.041 223.002 136.028 223.16C136.015 223.304 136.002 223.442 135.989 223.573H127.39V221.782H134.375L133.195 222.314C133.195 221.763 133.083 221.284 132.86 220.877C132.637 220.471 132.329 220.156 131.936 219.933C131.542 219.697 131.083 219.579 130.558 219.579C130.034 219.579 129.568 219.697 129.161 219.933C128.768 220.156 128.46 220.477 128.237 220.897C128.014 221.304 127.902 221.789 127.902 222.353V222.825C127.902 223.402 128.027 223.914 128.276 224.36C128.538 224.793 128.899 225.127 129.358 225.363C129.83 225.586 130.381 225.698 131.011 225.698C131.575 225.698 132.067 225.613 132.486 225.442C132.919 225.272 133.313 225.016 133.667 224.675L135.3 226.446C134.815 226.997 134.205 227.423 133.47 227.725C132.736 228.013 131.89 228.157 130.932 228.157ZM141.653 228.157C140.747 228.157 139.875 228.052 139.036 227.843C138.209 227.62 137.553 227.344 137.068 227.016L138.091 224.813C138.577 225.114 139.147 225.363 139.803 225.56C140.472 225.744 141.128 225.836 141.771 225.836C142.479 225.836 142.977 225.75 143.266 225.58C143.568 225.409 143.719 225.173 143.719 224.872C143.719 224.622 143.6 224.439 143.364 224.321C143.141 224.189 142.84 224.091 142.459 224.026C142.079 223.96 141.659 223.894 141.2 223.829C140.754 223.763 140.302 223.678 139.842 223.573C139.383 223.455 138.964 223.284 138.583 223.061C138.203 222.838 137.895 222.537 137.658 222.156C137.435 221.776 137.324 221.284 137.324 220.681C137.324 220.012 137.514 219.421 137.895 218.91C138.288 218.398 138.852 217.998 139.587 217.71C140.321 217.408 141.2 217.257 142.223 217.257C142.945 217.257 143.679 217.336 144.427 217.493C145.175 217.651 145.798 217.88 146.296 218.182L145.273 220.366C144.761 220.064 144.243 219.861 143.719 219.756C143.207 219.638 142.708 219.579 142.223 219.579C141.541 219.579 141.043 219.671 140.728 219.854C140.413 220.038 140.256 220.274 140.256 220.563C140.256 220.825 140.367 221.022 140.59 221.153C140.826 221.284 141.134 221.389 141.515 221.468C141.895 221.546 142.308 221.619 142.754 221.684C143.214 221.737 143.673 221.822 144.132 221.94C144.591 222.058 145.004 222.228 145.371 222.451C145.752 222.661 146.06 222.956 146.296 223.337C146.532 223.704 146.65 224.189 146.65 224.793C146.65 225.449 146.453 226.032 146.06 226.544C145.666 227.042 145.096 227.436 144.348 227.725C143.614 228.013 142.715 228.157 141.653 228.157Z" fill="#003874"/>
<path d="M385.532 214.594V188.623L387.224 190.472H379.315V187.049H389.428V214.594H385.532ZM406.708 214.909C404.557 214.909 402.629 214.358 400.923 213.257C399.244 212.155 397.906 210.554 396.909 208.456C395.939 206.357 395.453 203.812 395.453 200.822C395.453 197.831 395.939 195.286 396.909 193.187C397.906 191.089 399.244 189.488 400.923 188.386C402.629 187.285 404.557 186.734 406.708 186.734C408.833 186.734 410.748 187.285 412.453 188.386C414.158 189.488 415.496 191.089 416.467 193.187C417.438 195.286 417.923 197.831 417.923 200.822C417.923 203.812 417.438 206.357 416.467 208.456C415.496 210.554 414.158 212.155 412.453 213.257C410.748 214.358 408.833 214.909 406.708 214.909ZM406.708 211.407C408.151 211.407 409.41 211.014 410.486 210.226C411.588 209.439 412.44 208.259 413.044 206.685C413.673 205.111 413.988 203.156 413.988 200.822C413.988 198.487 413.673 196.532 413.044 194.958C412.44 193.384 411.588 192.204 410.486 191.417C409.41 190.63 408.151 190.236 406.708 190.236C405.265 190.236 403.993 190.63 402.891 191.417C401.789 192.204 400.923 193.384 400.294 194.958C399.69 196.532 399.389 198.487 399.389 200.822C399.389 203.156 399.69 205.111 400.294 206.685C400.923 208.259 401.789 209.439 402.891 210.226C403.993 211.014 405.265 211.407 406.708 211.407ZM432.955 214.909C430.804 214.909 428.876 214.358 427.17 213.257C425.491 212.155 424.153 210.554 423.157 208.456C422.186 206.357 421.701 203.812 421.701 200.822C421.701 197.831 422.186 195.286 423.157 193.187C424.153 191.089 425.491 189.488 427.17 188.386C428.876 187.285 430.804 186.734 432.955 186.734C435.08 186.734 436.995 187.285 438.7 188.386C440.406 189.488 441.743 191.089 442.714 193.187C443.685 195.286 444.17 197.831 444.17 200.822C444.17 203.812 443.685 206.357 442.714 208.456C441.743 210.554 440.406 212.155 438.7 213.257C436.995 214.358 435.08 214.909 432.955 214.909ZM432.955 211.407C434.398 211.407 435.657 211.014 436.733 210.226C437.835 209.439 438.687 208.259 439.291 206.685C439.92 205.111 440.235 203.156 440.235 200.822C440.235 198.487 439.92 196.532 439.291 194.958C438.687 193.384 437.835 192.204 436.733 191.417C435.657 190.63 434.398 190.236 432.955 190.236C431.512 190.236 430.24 190.63 429.138 191.417C428.036 192.204 427.17 193.384 426.541 194.958C425.937 196.532 425.636 198.487 425.636 200.822C425.636 203.156 425.937 205.111 426.541 206.685C427.17 208.259 428.036 209.439 429.138 210.226C430.24 211.014 431.512 211.407 432.955 211.407ZM456.126 209.439V192.204H459.432V209.439H456.126ZM448.964 202.396V199.287H466.594V202.396H448.964Z" fill="black"/>
<path d="M405.67 171.236C404.607 171.236 403.617 171.066 402.699 170.725C401.794 170.37 401.007 169.872 400.338 169.229C399.669 168.586 399.144 167.832 398.764 166.966C398.396 166.101 398.213 165.15 398.213 164.114C398.213 163.077 398.396 162.126 398.764 161.261C399.144 160.395 399.669 159.641 400.338 158.998C401.02 158.355 401.813 157.863 402.718 157.522C403.623 157.168 404.614 156.991 405.689 156.991C406.883 156.991 407.959 157.201 408.916 157.621C409.887 158.027 410.7 158.631 411.356 159.431L409.31 161.32C408.838 160.782 408.313 160.382 407.736 160.119C407.159 159.844 406.529 159.706 405.847 159.706C405.204 159.706 404.614 159.811 404.076 160.021C403.538 160.231 403.073 160.533 402.679 160.926C402.286 161.32 401.977 161.785 401.754 162.323C401.544 162.861 401.439 163.458 401.439 164.114C401.439 164.769 401.544 165.366 401.754 165.904C401.977 166.442 402.286 166.907 402.679 167.301C403.073 167.694 403.538 167.996 404.076 168.206C404.614 168.416 405.204 168.521 405.847 168.521C406.529 168.521 407.159 168.39 407.736 168.127C408.313 167.852 408.838 167.439 409.31 166.888L411.356 168.777C410.7 169.577 409.887 170.187 408.916 170.606C407.959 171.026 406.877 171.236 405.67 171.236ZM413.292 171V160.414H416.361V171H413.292ZM414.827 158.939C414.263 158.939 413.804 158.775 413.449 158.447C413.095 158.119 412.918 157.712 412.918 157.227C412.918 156.742 413.095 156.335 413.449 156.007C413.804 155.679 414.263 155.515 414.827 155.515C415.391 155.515 415.85 155.673 416.204 155.987C416.558 156.289 416.735 156.683 416.735 157.168C416.735 157.68 416.558 158.106 416.204 158.447C415.863 158.775 415.404 158.939 414.827 158.939ZM423.539 171.157C422.293 171.157 421.322 170.843 420.627 170.213C419.932 169.57 419.584 168.619 419.584 167.36V158.073H422.653V167.321C422.653 167.767 422.771 168.114 423.008 168.363C423.244 168.6 423.565 168.718 423.972 168.718C424.457 168.718 424.87 168.586 425.211 168.324L426.038 170.488C425.723 170.711 425.342 170.882 424.896 171C424.464 171.105 424.011 171.157 423.539 171.157ZM417.951 163.012V160.651H425.29V163.012H417.951ZM427.761 171V160.414H430.83V171H427.761ZM429.295 158.939C428.731 158.939 428.272 158.775 427.918 158.447C427.564 158.119 427.387 157.712 427.387 157.227C427.387 156.742 427.564 156.335 427.918 156.007C428.272 155.679 428.731 155.515 429.295 155.515C429.859 155.515 430.318 155.673 430.673 155.987C431.027 156.289 431.204 156.683 431.204 157.168C431.204 157.68 431.027 158.106 430.673 158.447C430.332 158.775 429.872 158.939 429.295 158.939ZM438.932 171.157C437.725 171.157 436.663 170.921 435.745 170.449C434.84 169.977 434.138 169.334 433.639 168.521C433.141 167.694 432.892 166.757 432.892 165.707C432.892 164.645 433.134 163.707 433.62 162.894C434.118 162.067 434.794 161.425 435.646 160.965C436.499 160.493 437.463 160.257 438.539 160.257C439.575 160.257 440.506 160.48 441.333 160.926C442.172 161.359 442.834 161.989 443.32 162.815C443.805 163.628 444.048 164.605 444.048 165.747C444.048 165.865 444.041 166.002 444.028 166.16C444.015 166.304 444.002 166.442 443.989 166.573H435.39V164.782H442.375L441.195 165.314C441.195 164.763 441.083 164.284 440.86 163.877C440.637 163.471 440.329 163.156 439.936 162.933C439.542 162.697 439.083 162.579 438.558 162.579C438.034 162.579 437.568 162.697 437.161 162.933C436.768 163.156 436.46 163.477 436.237 163.897C436.014 164.304 435.902 164.789 435.902 165.353V165.825C435.902 166.402 436.027 166.914 436.276 167.36C436.538 167.793 436.899 168.127 437.358 168.363C437.83 168.586 438.381 168.698 439.011 168.698C439.575 168.698 440.067 168.613 440.486 168.442C440.919 168.272 441.313 168.016 441.667 167.675L443.3 169.446C442.815 169.997 442.205 170.423 441.47 170.725C440.736 171.013 439.89 171.157 438.932 171.157ZM449.653 171.157C448.747 171.157 447.875 171.052 447.036 170.843C446.209 170.62 445.553 170.344 445.068 170.016L446.091 167.813C446.577 168.114 447.147 168.363 447.803 168.56C448.472 168.744 449.128 168.836 449.771 168.836C450.479 168.836 450.977 168.75 451.266 168.58C451.568 168.409 451.719 168.173 451.719 167.872C451.719 167.622 451.6 167.439 451.364 167.321C451.141 167.189 450.84 167.091 450.459 167.026C450.079 166.96 449.659 166.894 449.2 166.829C448.754 166.763 448.302 166.678 447.842 166.573C447.383 166.455 446.964 166.284 446.583 166.061C446.203 165.838 445.895 165.537 445.658 165.156C445.435 164.776 445.324 164.284 445.324 163.681C445.324 163.012 445.514 162.421 445.895 161.91C446.288 161.398 446.852 160.998 447.587 160.71C448.321 160.408 449.2 160.257 450.223 160.257C450.945 160.257 451.679 160.336 452.427 160.493C453.175 160.651 453.798 160.88 454.296 161.182L453.273 163.366C452.761 163.064 452.243 162.861 451.719 162.756C451.207 162.638 450.708 162.579 450.223 162.579C449.541 162.579 449.043 162.671 448.728 162.854C448.413 163.038 448.256 163.274 448.256 163.563C448.256 163.825 448.367 164.022 448.59 164.153C448.826 164.284 449.134 164.389 449.515 164.468C449.895 164.546 450.308 164.619 450.754 164.684C451.214 164.737 451.673 164.822 452.132 164.94C452.591 165.058 453.004 165.228 453.371 165.451C453.752 165.661 454.06 165.956 454.296 166.337C454.532 166.704 454.65 167.189 454.65 167.793C454.65 168.449 454.453 169.032 454.06 169.544C453.666 170.042 453.096 170.436 452.348 170.725C451.614 171.013 450.715 171.157 449.653 171.157Z" fill="#003874"/>
<path fill-rule="evenodd" clip-rule="evenodd" d="M116.107 308.515C85.0746 318.678 73.6036 304.347 54.1056 292.591C34.4886 280.762 31.2216 299.026 40.5036 305.131C49.7866 311.234 42.7006 320.791 21.1656 308.565C9.56055 301.978 6.56157 300.953 2.52557 305.189C-4.19443 312.24 3.18957 320.111 16.4826 324.672C40.5416 332.927 88.4526 325.178 116.107 308.515Z" fill="#5595D1"/>
<path fill-rule="evenodd" clip-rule="evenodd" d="M384.861 134.702C417.214 131.163 422.26 113.262 435.654 94.396C449.13 75.4139 459.107 90.8157 452.925 100.263C446.742 109.709 456.895 115.54 471.978 95.3988C480.107 84.5456 482.466 82.3626 487.788 84.5762C496.648 88.2597 492.882 98.5405 482.43 108.234C463.513 125.779 416.599 138.527 384.861 134.702Z" fill="#5595D1"/>
<path fill-rule="evenodd" clip-rule="evenodd" d="M52.7255 293.846C58.7925 297.104 60.2205 300.084 75.4745 308.176C75.4005 308.159 62.4955 304.807 50.7475 298.074C47.3745 296.401 43.0835 295.675 44.2505 292.904C45.0495 289.308 49.9235 292.509 52.7255 293.846Z" fill="#7DBFEE"/>
<path fill-rule="evenodd" clip-rule="evenodd" d="M437.137 99.8895C432.713 105.303 432.48 108.625 421.323 122.146C421.385 122.101 432.099 113.894 440.509 103.018C443.019 100.135 446.723 97.7658 444.632 95.6643C442.581 92.6543 439.241 97.544 437.137 99.8895Z" fill="#7DBFEE"/>
<path fill-rule="evenodd" clip-rule="evenodd" d="M60.9085 289.799C48.9895 281.601 45.8675 281.467 37.9735 277.736C28.4435 273.233 34.8145 261.729 44.1475 266.632C55.8275 272.767 60.9085 289.799 60.9085 289.799Z" fill="#5A9DD8"/>
<path fill-rule="evenodd" clip-rule="evenodd" d="M45.0162 268.626C47.9942 270.346 53.9332 275.727 57.1652 282.584C50.8082 274.927 46.4662 273.224 43.5002 271.531C41.1732 270.251 39.4132 270.167 40.0992 268.303C40.6392 265.861 43.0672 267.601 45.0162 268.626Z" fill="#8CC3EB"/>
<path fill-rule="evenodd" clip-rule="evenodd" d="M431 50.475C443.867 20.2315 460.044 4.14967 464.823 13.7209C469.603 23.2931 431 50.475 431 50.475Z" fill="#5A9DD8"/>
<path fill-rule="evenodd" clip-rule="evenodd" d="M454.806 15.9214C452.144 18.0979 447.128 24.3492 444.992 31.6096C450.074 23.0527 454.079 20.6711 456.733 18.5238C458.824 16.8857 460.538 16.515 459.584 14.7999C458.684 12.4922 456.565 14.5958 454.806 15.9214Z" fill="#8CC3EB"/>
</svg>
