<svg width="67" height="128" viewBox="0 0 67 128" fill="none" xmlns="http://www.w3.org/2000/svg">
<g style="mix-blend-mode:screen">
<path d="M23.2364 126.275C32.8387 125.752 40.2561 117.6 39.8036 108.066C39.351 98.5323 31.2 91.2274 21.5976 91.7502C11.9953 92.273 4.5779 100.425 5.03043 109.959C5.48296 119.493 13.634 126.798 23.2364 126.275Z" fill="#E3EDFF"/>
</g>
<g style="mix-blend-mode:screen">
<path d="M60.3374 82.1773C62.4002 76.4106 59.4281 70.0929 53.699 68.0665C47.9699 66.0401 41.6534 69.0722 39.5906 74.839C37.5278 80.6058 40.4999 86.9235 46.2289 88.9499C51.958 90.9764 58.2746 87.9441 60.3374 82.1773Z" fill="#E3EDFF"/>
</g>
<g style="mix-blend-mode:screen">
<path d="M28.9204 65.1777C32.2239 64.9978 34.7831 62.1952 34.627 58.9057C34.4708 55.6162 31.6691 53.1054 28.356 53.2858C25.0429 53.4661 22.4934 56.2683 22.6495 59.5578C22.8057 62.8473 25.6073 65.3581 28.9204 65.1777Z" fill="#E3EDFF"/>
</g>
<g style="mix-blend-mode:screen">
<path d="M52.1354 35.8707C57.0112 35.6052 60.7775 31.4656 60.5477 26.6245C60.3179 21.7835 56.1791 18.0742 51.3033 18.3397C46.4274 18.6051 42.661 22.7448 42.8908 27.5858C43.1206 32.4269 47.2595 36.1361 52.1354 35.8707Z" fill="#E3EDFF"/>
</g>
<g style="mix-blend-mode:screen">
<path d="M43.5921 13.2285C47.0009 13.0429 49.6341 10.1488 49.4734 6.76426C49.3127 3.37975 46.4191 0.786542 43.0103 0.972108C39.6014 1.15767 36.9683 4.05175 37.1289 7.43625C37.2896 10.8208 40.1833 13.414 43.5921 13.2285Z" fill="#E3EDFF"/>
</g>
</svg>
