<svg width="44" height="45" viewBox="0 0 44 45" fill="none" xmlns="http://www.w3.org/2000/svg">
<path opacity="0.25" d="M13 24.2333C13 29.2041 17.0313 33.236 22.0013 33.236C26.9713 33.236 31.0024 29.2041 31.0024 24.2333C31.0024 19.2624 26.9713 15.2305 22.0013 15.2305C17.0313 15.2305 13 19.2624 13 24.2333Z" fill="url(#paint0_radial_533_1859)"/>
<path d="M29.7766 21.9802C29.7766 19.2302 27.5474 17.0006 24.7979 17.0006C22.0484 17.0006 19.8192 19.2302 19.8221 21.9802C19.8221 24.7302 22.0513 26.9598 24.8008 26.9598C27.5502 26.9598 29.7794 24.7302 29.7794 21.9802H29.7766Z" fill="url(#paint1_radial_533_1859)"/>
<path opacity="0.25" d="M1.16602 30.5179C1.16602 32.701 2.93599 34.4742 5.12162 34.4742C7.30435 34.4742 9.07738 32.7039 9.07738 30.5179C9.07738 28.3347 7.30726 26.5615 5.12162 26.5615C2.9389 26.5615 1.16602 28.3318 1.16602 30.5179Z" fill="url(#paint2_radial_533_1859)"/>
<path d="M8.53636 29.5252C8.53636 28.3161 7.55696 27.3367 6.34788 27.3367C5.13881 27.3367 4.16224 28.3161 4.16224 29.5252C4.16224 30.7343 5.14165 31.7109 6.35072 31.7109C7.5598 31.7109 8.53636 30.7314 8.53636 29.5252Z" fill="url(#paint3_radial_533_1859)"/>
<path opacity="0.25" d="M32.7908 5.76215C32.7908 8.62549 35.1102 10.9452 37.973 10.9452C40.8359 10.9452 43.1552 8.62549 43.1552 5.76215C43.1552 2.89882 40.8359 0.579102 37.973 0.579102C35.1102 0.579102 32.7908 2.89882 32.7908 5.76215Z" fill="url(#paint4_radial_533_1859)"/>
<path d="M42.448 4.46584C42.448 2.88156 41.1634 1.59961 39.5823 1.59961C37.9983 1.59961 36.7166 2.88447 36.7166 4.46584C36.7166 6.05012 37.9983 7.33208 39.5823 7.33208C41.1663 7.33208 42.448 6.04722 42.448 4.46584Z" fill="url(#paint5_radial_533_1859)"/>
<path opacity="0.25" d="M0.34375 35.4307C0.34375 36.2735 1.02683 36.9536 1.86679 36.9536C2.70965 36.9536 3.38968 36.2706 3.38968 35.4307C3.38968 34.5878 2.70674 33.9077 1.86679 33.9077C1.02683 33.9077 0.34375 34.5907 0.34375 35.4307Z" fill="url(#paint6_radial_533_1859)"/>
<path d="M3.18372 35.0499C3.18372 34.5849 2.80591 34.207 2.34088 34.207C1.87585 34.207 1.49805 34.5849 1.49805 35.0499C1.49805 35.5149 1.87585 35.8928 2.34088 35.8928C2.80591 35.8928 3.18372 35.5149 3.18372 35.0499Z" fill="url(#paint7_radial_533_1859)"/>
<path opacity="0.25" d="M8.35547 41.4709C8.35547 43.2499 9.79708 44.6917 11.5758 44.6917C13.3545 44.6917 14.7962 43.2499 14.7962 41.4709C14.7962 39.6918 13.3545 38.25 11.5758 38.25C9.79708 38.25 8.35547 39.6918 8.35547 41.4709Z" fill="url(#paint8_radial_533_1859)"/>
<path d="M14.3546 40.6645C14.3546 39.6821 13.5581 38.8828 12.5728 38.8828C11.5905 38.8828 10.7912 39.6792 10.7912 40.6645C10.7912 41.6468 11.5876 42.4461 12.5728 42.4461C13.5552 42.4461 14.3546 41.6497 14.3546 40.6645Z" fill="url(#paint9_radial_533_1859)"/>
<defs>
<radialGradient id="paint0_radial_533_1859" cx="0" cy="0" r="1" gradientUnits="userSpaceOnUse" gradientTransform="translate(22.0012 24.2303) rotate(180) scale(9.0012 9.00279)">
<stop stop-color="white"/>
<stop offset="0.89" stop-color="white"/>
<stop offset="1" stop-color="white"/>
</radialGradient>
<radialGradient id="paint1_radial_533_1859" cx="0" cy="0" r="1" gradientUnits="userSpaceOnUse" gradientTransform="translate(24.7978 21.9802) rotate(180) scale(4.97868 4.97958)">
<stop stop-color="white"/>
<stop offset="0.89" stop-color="white"/>
<stop offset="1" stop-color="white"/>
</radialGradient>
<radialGradient id="paint2_radial_533_1859" cx="0" cy="0" r="1" gradientUnits="userSpaceOnUse" gradientTransform="translate(5.1217 30.515) rotate(180) scale(3.95568 3.95635)">
<stop stop-color="white"/>
<stop offset="0.89" stop-color="white"/>
<stop offset="1" stop-color="white"/>
</radialGradient>
<radialGradient id="paint3_radial_533_1859" cx="0" cy="0" r="1" gradientUnits="userSpaceOnUse" gradientTransform="translate(6.35076 29.5252) rotate(180) scale(2.18561 2.18564)">
<stop stop-color="white"/>
<stop offset="0.89" stop-color="white"/>
<stop offset="1" stop-color="white"/>
</radialGradient>
<radialGradient id="paint4_radial_533_1859" cx="0" cy="0" r="1" gradientUnits="userSpaceOnUse" gradientTransform="translate(37.973 5.75927) rotate(180) scale(5.18218 5.18307)">
<stop stop-color="white"/>
<stop offset="0.89" stop-color="white"/>
<stop offset="1" stop-color="white"/>
</radialGradient>
<radialGradient id="paint5_radial_533_1859" cx="0" cy="0" r="1" gradientUnits="userSpaceOnUse" gradientTransform="translate(39.5823 4.46294) rotate(-180) scale(2.8657 2.86623)">
<stop stop-color="white"/>
<stop offset="0.89" stop-color="white"/>
<stop offset="1" stop-color="white"/>
</radialGradient>
<radialGradient id="paint6_radial_533_1859" cx="0" cy="0" r="1" gradientUnits="userSpaceOnUse" gradientTransform="translate(1.86962 35.4307) rotate(180) scale(1.52297)">
<stop stop-color="white"/>
<stop offset="0.89" stop-color="white"/>
<stop offset="1" stop-color="white"/>
</radialGradient>
<radialGradient id="paint7_radial_533_1859" cx="0" cy="0" r="1" gradientUnits="userSpaceOnUse" gradientTransform="translate(2.34379 35.0499) rotate(180) scale(0.842836 0.842871)">
<stop stop-color="white"/>
<stop offset="0.89" stop-color="white"/>
<stop offset="1" stop-color="white"/>
</radialGradient>
<radialGradient id="paint8_radial_533_1859" cx="0" cy="0" r="1" gradientUnits="userSpaceOnUse" gradientTransform="translate(11.5758 41.468) rotate(180) scale(3.22035 3.22087)">
<stop stop-color="white"/>
<stop offset="0.89" stop-color="white"/>
<stop offset="1" stop-color="white"/>
</radialGradient>
<radialGradient id="paint9_radial_533_1859" cx="0" cy="0" r="1" gradientUnits="userSpaceOnUse" gradientTransform="translate(12.5758 40.6615) rotate(180) scale(1.78168 1.78164)">
<stop stop-color="white"/>
<stop offset="0.89" stop-color="white"/>
<stop offset="1" stop-color="white"/>
</radialGradient>
</defs>
</svg>
