<svg width="348" height="247" viewBox="0 0 348 247" fill="none" xmlns="http://www.w3.org/2000/svg">
<path d="M245.136 161.566C194.58 161.566 144.025 161.566 93.4688 161.566C93.4688 140.288 93.4688 133.184 93.4688 111.906C141.681 90.1369 196.923 90.1369 245.136 111.906C245.136 133.183 245.136 140.288 245.136 161.566Z" fill="#E68D25"/>
<path d="M98.4504 156.402C98.3914 137.872 98.3324 133.516 98.2734 114.986C143.864 97.4812 194.735 97.4812 240.326 114.986C240.267 133.516 240.208 137.872 240.149 156.402C193.066 154.915 145.534 154.915 98.4504 156.402Z" fill="#573624"/>
<path d="M100.435 154.25C100.523 154.144 100.611 154.038 100.698 153.932C113.314 138.86 112.885 126.833 100.386 116.485C100.329 116.438 100.272 116.392 100.215 116.345C144.71 100.377 193.887 100.377 238.382 116.345C238.242 116.463 238.102 116.581 237.962 116.7C225.597 127.306 225.395 139.36 238.163 154.249C192.446 152.283 146.152 152.283 100.435 154.25Z" fill="#4A2D1E"/>
<path d="M244.847 156.564H93.1797V245.231H244.847V156.564Z" fill="#E68D25"/>
<path d="M239.848 240.23L239.848 161.564L98.1807 161.564L98.1807 240.23L239.848 240.23Z" fill="#643E29"/>
<path d="M237.848 238.23V163.564L100.181 163.564V238.23L237.848 238.23Z" fill="#7B5031"/>
<path d="M239.848 189.356V186.439L98.1807 186.439V189.356L239.848 189.356Z" fill="#643E29"/>
<path d="M239.848 215.356V212.439L98.1807 212.439V215.356L239.848 215.356Z" fill="#643E29"/>
<path d="M115.222 161.564V156.564H98.1797H93.1797V161.564V178.606H98.1797V172.231C104.071 172.231 108.847 167.455 108.847 161.564H115.222Z" fill="#E67F08"/>
<path d="M98.1797 156.564H93.1797V161.564V178.064H97.6587V171.689C103.55 171.689 108.326 166.913 108.326 161.022H114.701V156.564H98.1797Z" fill="#F49A30"/>
<path d="M100.016 165.856C100.016 164.844 100.837 164.023 101.849 164.023C102.861 164.023 103.682 164.844 103.682 165.856C103.682 166.869 102.861 167.689 101.849 167.689C100.837 167.689 100.016 166.869 100.016 165.856Z" fill="#643E29"/>
<path d="M101.848 167.044C102.504 167.044 103.036 166.512 103.036 165.856C103.036 165.2 102.504 164.668 101.848 164.668C101.192 164.668 100.66 165.2 100.66 165.856C100.66 166.512 101.192 167.044 101.848 167.044Z" fill="#7B5031"/>
<path d="M222.805 161.564V156.564H239.847H244.847V161.564V178.606H239.847V172.231C233.956 172.231 229.18 167.455 229.18 161.564H222.805Z" fill="#E67F08"/>
<path d="M239.845 156.564H244.845V161.564V178.064H240.366V171.689C234.475 171.689 229.699 166.913 229.699 161.022H223.324V156.564H239.845Z" fill="#F49A30"/>
<path d="M238.014 165.856C238.014 164.844 237.193 164.023 236.181 164.023C235.168 164.023 234.348 164.844 234.348 165.856C234.348 166.869 235.169 167.689 236.181 167.689C237.193 167.689 238.014 166.869 238.014 165.856Z" fill="#643E29"/>
<path d="M236.18 167.044C236.836 167.044 237.368 166.512 237.368 165.856C237.368 165.2 236.836 164.668 236.18 164.668C235.524 164.668 234.992 165.2 234.992 165.856C234.992 166.512 235.524 167.044 236.18 167.044Z" fill="#7B5031"/>
<path d="M222.805 240.231V245.231H239.847H244.847V240.231V223.189H239.847V229.564C233.956 229.564 229.18 234.34 229.18 240.23L222.805 240.231Z" fill="#E67F08"/>
<path d="M239.845 245.231H244.845V240.231V223.731H240.366V230.106C234.475 230.106 229.699 234.881 229.699 240.772H223.324V245.231H239.845Z" fill="#F49A30"/>
<path d="M238.014 235.939C238.014 236.951 237.193 237.772 236.181 237.772C235.168 237.772 234.348 236.951 234.348 235.939C234.348 234.927 235.169 234.106 236.181 234.106C237.193 234.106 238.014 234.927 238.014 235.939Z" fill="#643E29"/>
<path d="M236.18 237.127C236.836 237.127 237.368 236.595 237.368 235.939C237.368 235.283 236.836 234.751 236.18 234.751C235.524 234.751 234.992 235.283 234.992 235.939C234.992 236.595 235.524 237.127 236.18 237.127Z" fill="#7B5031"/>
<path d="M115.222 240.231V245.231H98.1797H93.1797V240.231V223.189H98.1797V229.564C104.071 229.564 108.847 234.34 108.847 240.23L115.222 240.231Z" fill="#E67F08"/>
<path d="M98.1797 245.231H93.1797V240.231V223.731H97.6587V230.106C103.55 230.106 108.326 234.881 108.326 240.772H114.701V245.231H98.1797Z" fill="#F49A30"/>
<path d="M100.016 235.939C100.016 236.951 100.837 237.772 101.849 237.772C102.861 237.772 103.682 236.951 103.682 235.939C103.682 234.927 102.861 234.106 101.849 234.106C100.837 234.106 100.016 234.927 100.016 235.939Z" fill="#643E29"/>
<path d="M101.848 237.127C102.504 237.127 103.036 236.595 103.036 235.939C103.036 235.283 102.504 234.751 101.848 234.751C101.192 234.751 100.66 235.283 100.66 235.939C100.66 236.595 101.192 237.127 101.848 237.127Z" fill="#7B5031"/>
<path d="M169.016 190.731C161.767 190.731 155.891 184.855 155.891 177.606V161.564H182.141V177.606C182.141 184.855 176.264 190.731 169.016 190.731Z" fill="#E67F08"/>
<path d="M169.016 188.731C162.882 188.731 157.891 183.74 157.891 177.606V161.564H180.141V177.606C180.141 183.74 175.15 188.731 169.016 188.731Z" fill="#F49E38"/>
<path d="M158.988 162.565V178.607C158.988 181.596 160.179 184.308 162.104 186.309C164.004 187.821 166.403 188.732 169.015 188.732C175.149 188.732 180.14 183.741 180.14 177.607V162.565H158.988Z" fill="#E68D25"/>
<path d="M172.996 170.106C172.996 167.828 171.149 165.981 168.871 165.981C166.593 165.981 164.746 167.828 164.746 170.106C164.746 171.906 165.907 173.421 167.515 173.984L165.037 180.231H168.579H169.162H172.704L170.227 173.984C171.835 173.421 172.996 171.906 172.996 170.106Z" fill="#643E29"/>
<path d="M170.017 179.356H166.475L168.952 173.109C167.344 172.546 166.183 171.031 166.183 169.231C166.183 168.048 166.687 166.989 167.485 166.237C165.892 166.808 164.746 168.316 164.746 170.106C164.746 171.906 165.907 173.421 167.515 173.984L165.037 180.231H168.579H169.162H172.704L172.357 179.356H170.6H170.017Z" fill="#543422"/>
<path d="M171.665 173.11L171.667 173.108L171.664 173.109L171.665 173.11Z" fill="#643E29"/>
<mask id="mask0_1479_17335" style="mask-type:luminance" maskUnits="userSpaceOnUse" x="247" y="191" width="23" height="8">
<path d="M268.261 198.352H248.779C248.291 198.352 247.895 197.956 247.895 197.468V192.486C247.895 191.998 248.291 191.602 248.779 191.602H268.261C268.749 191.602 269.145 191.998 269.145 192.486V197.468C269.145 197.956 268.749 198.352 268.261 198.352Z" fill="white"/>
</mask>
<g mask="url(#mask0_1479_17335)">
<path d="M269.145 191.602H247.895V198.352H269.145V191.602Z" fill="#FEC934"/>
<path d="M247.895 191.602V192.685H261.437C262.634 192.685 263.604 193.655 263.604 194.852C263.604 196.049 262.634 197.019 261.437 197.019H247.895V198.352H269.145V191.602H247.895Z" fill="#FCC11C"/>
<path d="M269.145 191.602H247.895V192.685H269.145V191.602Z" fill="#FAB806"/>
<path d="M269.145 191.602H247.895V192.144H269.145V191.602Z" fill="#FFD153"/>
<g opacity="0.25">
<path d="M269.145 197.519H247.895V198.352H269.145V197.519Z" fill="#FAB806"/>
<path d="M249.207 192.685H248.926V197.518H249.207V192.685Z" fill="#FAB806"/>
<path d="M250.926 192.685H250.645V197.518H250.926V192.685Z" fill="#FAB806"/>
<path d="M252.644 192.685H252.363V197.518H252.644V192.685Z" fill="#FAB806"/>
<path d="M254.363 192.685H254.082V197.518H254.363V192.685Z" fill="#FAB806"/>
<path d="M256.082 192.685H255.801V197.518H256.082V192.685Z" fill="#FAB806"/>
<path d="M257.801 192.685H257.52V197.518H257.801V192.685Z" fill="#FAB806"/>
<path d="M259.519 192.685H259.238V197.518H259.519V192.685Z" fill="#FAB806"/>
<path d="M261.238 192.685H260.957V197.518H261.238V192.685Z" fill="#FAB806"/>
<path d="M262.957 192.685H262.676V197.518H262.957V192.685Z" fill="#FAB806"/>
<path d="M264.676 192.685H264.395V197.518H264.676V192.685Z" fill="#FAB806"/>
<path d="M266.394 192.685H266.113V197.518H266.394V192.685Z" fill="#FAB806"/>
<path d="M268.113 192.685H267.832V197.518H268.113V192.685Z" fill="#FAB806"/>
</g>
</g>
<mask id="mask1_1479_17335" style="mask-type:luminance" maskUnits="userSpaceOnUse" x="250" y="198" width="22" height="8">
<path d="M271.096 205.102H251.614C251.126 205.102 250.73 204.706 250.73 204.218V199.236C250.73 198.748 251.126 198.352 251.614 198.352H271.096C271.584 198.352 271.98 198.748 271.98 199.236V204.218C271.98 204.706 271.584 205.102 271.096 205.102Z" fill="white"/>
</mask>
<g mask="url(#mask1_1479_17335)">
<path d="M271.98 198.352H250.73V205.102H271.98V198.352Z" fill="#FEC934"/>
<path d="M250.73 198.352V199.435H264.272C265.469 199.435 266.439 200.405 266.439 201.602C266.439 202.799 265.469 203.769 264.272 203.769H250.73V205.102H271.98V198.352H250.73Z" fill="#FCC11C"/>
<path d="M271.98 198.352H250.73V199.435H271.98V198.352Z" fill="#FAB806"/>
<path d="M271.98 198.352H250.73V198.894H271.98V198.352Z" fill="#FFD153"/>
<g opacity="0.25">
<path d="M271.98 204.269H250.73V205.102H271.98V204.269Z" fill="#FAB806"/>
<path d="M252.043 199.435H251.762V204.268H252.043V199.435Z" fill="#FAB806"/>
<path d="M253.761 199.435H253.48V204.268H253.761V199.435Z" fill="#FAB806"/>
<path d="M255.48 199.435H255.199V204.268H255.48V199.435Z" fill="#FAB806"/>
<path d="M257.199 199.435H256.918V204.268H257.199V199.435Z" fill="#FAB806"/>
<path d="M258.918 199.435H258.637V204.268H258.918V199.435Z" fill="#FAB806"/>
<path d="M260.636 199.435H260.355V204.268H260.636V199.435Z" fill="#FAB806"/>
<path d="M262.355 199.435H262.074V204.268H262.355V199.435Z" fill="#FAB806"/>
<path d="M264.074 199.435H263.793V204.268H264.074V199.435Z" fill="#FAB806"/>
<path d="M265.793 199.435H265.512V204.268H265.793V199.435Z" fill="#FAB806"/>
<path d="M267.511 199.435H267.23V204.268H267.511V199.435Z" fill="#FAB806"/>
<path d="M269.23 199.435H268.949V204.268H269.23V199.435Z" fill="#FAB806"/>
<path d="M270.949 199.435H270.668V204.268H270.949V199.435Z" fill="#FAB806"/>
</g>
</g>
<mask id="mask2_1479_17335" style="mask-type:luminance" maskUnits="userSpaceOnUse" x="253" y="205" width="22" height="7">
<path d="M273.928 211.852H254.447C253.959 211.852 253.562 211.456 253.562 210.968V205.986C253.562 205.498 253.959 205.102 254.447 205.102H273.928C274.416 205.102 274.812 205.498 274.812 205.986V210.968C274.812 211.456 274.416 211.852 273.928 211.852Z" fill="white"/>
</mask>
<g mask="url(#mask2_1479_17335)">
<path d="M274.812 205.102H253.562V211.852H274.812V205.102Z" fill="#FEC934"/>
<path d="M253.562 205.102V206.185H267.104C268.301 206.185 269.272 207.155 269.272 208.352C269.272 209.549 268.301 210.519 267.104 210.519H253.562V211.852H274.812V205.102H253.562Z" fill="#FCC11C"/>
<path d="M274.812 205.102H253.562V206.185H274.812V205.102Z" fill="#FAB806"/>
<path d="M274.812 205.102H253.562V205.644H274.812V205.102Z" fill="#FFD153"/>
<g opacity="0.25">
<path d="M274.812 211.019H253.562V211.852H274.812V211.019Z" fill="#FAB806"/>
<path d="M254.875 206.185H254.594V211.018H254.875V206.185Z" fill="#FAB806"/>
<path d="M256.594 206.185H256.312V211.018H256.594V206.185Z" fill="#FAB806"/>
<path d="M258.312 206.185H258.031V211.018H258.312V206.185Z" fill="#FAB806"/>
<path d="M260.031 206.185H259.75V211.018H260.031V206.185Z" fill="#FAB806"/>
<path d="M261.75 206.185H261.469V211.018H261.75V206.185Z" fill="#FAB806"/>
<path d="M263.469 206.185H263.188V211.018H263.469V206.185Z" fill="#FAB806"/>
<path d="M265.187 206.185H264.906V211.018H265.187V206.185Z" fill="#FAB806"/>
<path d="M266.906 206.185H266.625V211.018H266.906V206.185Z" fill="#FAB806"/>
<path d="M268.625 206.185H268.344V211.018H268.625V206.185Z" fill="#FAB806"/>
<path d="M270.344 206.185H270.062V211.018H270.344V206.185Z" fill="#FAB806"/>
<path d="M272.062 206.185H271.781V211.018H272.062V206.185Z" fill="#FAB806"/>
<path d="M273.781 206.185H273.5V211.018H273.781V206.185Z" fill="#FAB806"/>
</g>
</g>
<mask id="mask3_1479_17335" style="mask-type:luminance" maskUnits="userSpaceOnUse" x="250" y="211" width="22" height="8">
<path d="M271.096 218.602H251.614C251.126 218.602 250.73 218.206 250.73 217.718V212.736C250.73 212.248 251.126 211.852 251.614 211.852H271.096C271.584 211.852 271.98 212.248 271.98 212.736V217.718C271.98 218.206 271.584 218.602 271.096 218.602Z" fill="white"/>
</mask>
<g mask="url(#mask3_1479_17335)">
<path d="M271.98 211.852H250.73V218.602H271.98V211.852Z" fill="#FEC934"/>
<path d="M250.73 211.852V212.935H264.272C265.469 212.935 266.439 213.905 266.439 215.102C266.439 216.299 265.469 217.269 264.272 217.269H250.73V218.602H271.98V211.852H250.73Z" fill="#FCC11C"/>
<path d="M271.98 211.852H250.73V212.935H271.98V211.852Z" fill="#FAB806"/>
<path d="M271.98 211.852H250.73V212.394H271.98V211.852Z" fill="#FFD153"/>
<g opacity="0.25">
<path d="M271.98 217.769H250.73V218.602H271.98V217.769Z" fill="#FAB806"/>
<path d="M252.043 212.935H251.762V217.768H252.043V212.935Z" fill="#FAB806"/>
<path d="M253.761 212.935H253.48V217.768H253.761V212.935Z" fill="#FAB806"/>
<path d="M255.48 212.935H255.199V217.768H255.48V212.935Z" fill="#FAB806"/>
<path d="M257.199 212.935H256.918V217.768H257.199V212.935Z" fill="#FAB806"/>
<path d="M258.918 212.935H258.637V217.768H258.918V212.935Z" fill="#FAB806"/>
<path d="M260.636 212.935H260.355V217.768H260.636V212.935Z" fill="#FAB806"/>
<path d="M262.355 212.935H262.074V217.768H262.355V212.935Z" fill="#FAB806"/>
<path d="M264.074 212.935H263.793V217.768H264.074V212.935Z" fill="#FAB806"/>
<path d="M265.793 212.935H265.512V217.768H265.793V212.935Z" fill="#FAB806"/>
<path d="M267.511 212.935H267.23V217.768H267.511V212.935Z" fill="#FAB806"/>
<path d="M269.23 212.935H268.949V217.768H269.23V212.935Z" fill="#FAB806"/>
<path d="M270.949 212.935H270.668V217.768H270.949V212.935Z" fill="#FAB806"/>
</g>
</g>
<mask id="mask4_1479_17335" style="mask-type:luminance" maskUnits="userSpaceOnUse" x="247" y="218" width="23" height="8">
<path d="M268.261 225.352H248.779C248.291 225.352 247.895 224.956 247.895 224.468V219.486C247.895 218.998 248.291 218.602 248.779 218.602H268.261C268.749 218.602 269.145 218.998 269.145 219.486V224.468C269.145 224.956 268.749 225.352 268.261 225.352Z" fill="white"/>
</mask>
<g mask="url(#mask4_1479_17335)">
<path d="M269.145 218.602H247.895V225.352H269.145V218.602Z" fill="#FEC934"/>
<path d="M247.895 218.602V219.685H261.437C262.634 219.685 263.604 220.655 263.604 221.852C263.604 223.049 262.634 224.019 261.437 224.019H247.895V225.352H269.145V218.602H247.895Z" fill="#FCC11C"/>
<path d="M269.145 218.602H247.895V219.685H269.145V218.602Z" fill="#FAB806"/>
<path d="M269.145 218.602H247.895V219.144H269.145V218.602Z" fill="#FFD153"/>
<g opacity="0.25">
<path d="M269.145 224.519H247.895V225.352H269.145V224.519Z" fill="#FAB806"/>
<path d="M249.207 219.685H248.926V224.518H249.207V219.685Z" fill="#FAB806"/>
<path d="M250.926 219.685H250.645V224.518H250.926V219.685Z" fill="#FAB806"/>
<path d="M252.644 219.685H252.363V224.518H252.644V219.685Z" fill="#FAB806"/>
<path d="M254.363 219.685H254.082V224.518H254.363V219.685Z" fill="#FAB806"/>
<path d="M256.082 219.685H255.801V224.518H256.082V219.685Z" fill="#FAB806"/>
<path d="M257.801 219.685H257.52V224.518H257.801V219.685Z" fill="#FAB806"/>
<path d="M259.519 219.685H259.238V224.518H259.519V219.685Z" fill="#FAB806"/>
<path d="M261.238 219.685H260.957V224.518H261.238V219.685Z" fill="#FAB806"/>
<path d="M262.957 219.685H262.676V224.518H262.957V219.685Z" fill="#FAB806"/>
<path d="M264.676 219.685H264.395V224.518H264.676V219.685Z" fill="#FAB806"/>
<path d="M266.394 219.685H266.113V224.518H266.394V219.685Z" fill="#FAB806"/>
<path d="M268.113 219.685H267.832V224.518H268.113V219.685Z" fill="#FAB806"/>
</g>
</g>
<mask id="mask5_1479_17335" style="mask-type:luminance" maskUnits="userSpaceOnUse" x="250" y="225" width="22" height="8">
<path d="M271.096 232.102H251.614C251.126 232.102 250.73 231.706 250.73 231.218V226.236C250.73 225.748 251.126 225.352 251.614 225.352H271.096C271.584 225.352 271.98 225.748 271.98 226.236V231.218C271.98 231.706 271.584 232.102 271.096 232.102Z" fill="white"/>
</mask>
<g mask="url(#mask5_1479_17335)">
<path d="M271.98 225.352H250.73V232.102H271.98V225.352Z" fill="#FEC934"/>
<path d="M250.73 225.352V226.435H264.272C265.469 226.435 266.439 227.405 266.439 228.602C266.439 229.799 265.469 230.769 264.272 230.769H250.73V232.102H271.98V225.352H250.73Z" fill="#FCC11C"/>
<path d="M271.98 225.352H250.73V226.435H271.98V225.352Z" fill="#FAB806"/>
<path d="M271.98 225.352H250.73V225.894H271.98V225.352Z" fill="#FFD153"/>
<g opacity="0.25">
<path d="M271.98 231.269H250.73V232.102H271.98V231.269Z" fill="#FAB806"/>
<path d="M252.043 226.435H251.762V231.268H252.043V226.435Z" fill="#FAB806"/>
<path d="M253.761 226.435H253.48V231.268H253.761V226.435Z" fill="#FAB806"/>
<path d="M255.48 226.435H255.199V231.268H255.48V226.435Z" fill="#FAB806"/>
<path d="M257.199 226.435H256.918V231.268H257.199V226.435Z" fill="#FAB806"/>
<path d="M258.918 226.435H258.637V231.268H258.918V226.435Z" fill="#FAB806"/>
<path d="M260.636 226.435H260.355V231.268H260.636V226.435Z" fill="#FAB806"/>
<path d="M262.355 226.435H262.074V231.268H262.355V226.435Z" fill="#FAB806"/>
<path d="M264.074 226.435H263.793V231.268H264.074V226.435Z" fill="#FAB806"/>
<path d="M265.793 226.435H265.512V231.268H265.793V226.435Z" fill="#FAB806"/>
<path d="M267.511 226.435H267.23V231.268H267.511V226.435Z" fill="#FAB806"/>
<path d="M269.23 226.435H268.949V231.268H269.23V226.435Z" fill="#FAB806"/>
<path d="M270.949 226.435H270.668V231.268H270.949V226.435Z" fill="#FAB806"/>
</g>
</g>
<mask id="mask6_1479_17335" style="mask-type:luminance" maskUnits="userSpaceOnUse" x="253" y="232" width="22" height="7">
<path d="M273.928 238.852H254.447C253.959 238.852 253.562 238.456 253.562 237.968V232.986C253.562 232.498 253.959 232.102 254.447 232.102H273.928C274.416 232.102 274.812 232.498 274.812 232.986V237.968C274.812 238.456 274.416 238.852 273.928 238.852Z" fill="white"/>
</mask>
<g mask="url(#mask6_1479_17335)">
<path d="M274.812 232.102H253.562V238.852H274.812V232.102Z" fill="#FEC934"/>
<path d="M253.562 232.102V233.185H267.104C268.301 233.185 269.272 234.155 269.272 235.352C269.272 236.549 268.301 237.519 267.104 237.519H253.562V238.852H274.812V232.102H253.562Z" fill="#FCC11C"/>
<path d="M274.812 232.102H253.562V233.185H274.812V232.102Z" fill="#FAB806"/>
<path d="M274.812 232.102H253.562V232.644H274.812V232.102Z" fill="#FFD153"/>
<g opacity="0.25">
<path d="M274.812 238.019H253.562V238.852H274.812V238.019Z" fill="#FAB806"/>
<path d="M254.875 233.185H254.594V238.018H254.875V233.185Z" fill="#FAB806"/>
<path d="M256.594 233.185H256.312V238.018H256.594V233.185Z" fill="#FAB806"/>
<path d="M258.312 233.185H258.031V238.018H258.312V233.185Z" fill="#FAB806"/>
<path d="M260.031 233.185H259.75V238.018H260.031V233.185Z" fill="#FAB806"/>
<path d="M261.75 233.185H261.469V238.018H261.75V233.185Z" fill="#FAB806"/>
<path d="M263.469 233.185H263.188V238.018H263.469V233.185Z" fill="#FAB806"/>
<path d="M265.187 233.185H264.906V238.018H265.187V233.185Z" fill="#FAB806"/>
<path d="M266.906 233.185H266.625V238.018H266.906V233.185Z" fill="#FAB806"/>
<path d="M268.625 233.185H268.344V238.018H268.625V233.185Z" fill="#FAB806"/>
<path d="M270.344 233.185H270.062V238.018H270.344V233.185Z" fill="#FAB806"/>
<path d="M272.062 233.185H271.781V238.018H272.062V233.185Z" fill="#FAB806"/>
<path d="M273.781 233.185H273.5V238.018H273.781V233.185Z" fill="#FAB806"/>
</g>
</g>
<mask id="mask7_1479_17335" style="mask-type:luminance" maskUnits="userSpaceOnUse" x="250" y="238" width="22" height="8">
<path d="M271.096 245.602H251.614C251.126 245.602 250.73 245.206 250.73 244.718V239.736C250.73 239.248 251.126 238.852 251.614 238.852H271.096C271.584 238.852 271.98 239.248 271.98 239.736V244.718C271.98 245.206 271.584 245.602 271.096 245.602Z" fill="white"/>
</mask>
<g mask="url(#mask7_1479_17335)">
<path d="M271.98 238.852H250.73V245.602H271.98V238.852Z" fill="#FEC934"/>
<path d="M250.73 238.852V239.935H264.272C265.469 239.935 266.439 240.905 266.439 242.102C266.439 243.299 265.469 244.269 264.272 244.269H250.73V245.602H271.98V238.852H250.73Z" fill="#FCC11C"/>
<path d="M271.98 238.852H250.73V239.935H271.98V238.852Z" fill="#FAB806"/>
<path d="M271.98 238.852H250.73V239.394H271.98V238.852Z" fill="#FFD153"/>
<g opacity="0.25">
<path d="M271.98 244.769H250.73V245.602H271.98V244.769Z" fill="#FAB806"/>
<path d="M252.043 239.935H251.762V244.768H252.043V239.935Z" fill="#FAB806"/>
<path d="M253.761 239.935H253.48V244.768H253.761V239.935Z" fill="#FAB806"/>
<path d="M255.48 239.935H255.199V244.768H255.48V239.935Z" fill="#FAB806"/>
<path d="M257.199 239.935H256.918V244.768H257.199V239.935Z" fill="#FAB806"/>
<path d="M258.918 239.935H258.637V244.768H258.918V239.935Z" fill="#FAB806"/>
<path d="M260.636 239.935H260.355V244.768H260.636V239.935Z" fill="#FAB806"/>
<path d="M262.355 239.935H262.074V244.768H262.355V239.935Z" fill="#FAB806"/>
<path d="M264.074 239.935H263.793V244.768H264.074V239.935Z" fill="#FAB806"/>
<path d="M265.793 239.935H265.512V244.768H265.793V239.935Z" fill="#FAB806"/>
<path d="M267.511 239.935H267.23V244.768H267.511V239.935Z" fill="#FAB806"/>
<path d="M269.23 239.935H268.949V244.768H269.23V239.935Z" fill="#FAB806"/>
<path d="M270.949 239.935H270.668V244.768H270.949V239.935Z" fill="#FAB806"/>
</g>
</g>
<path d="M230.487 246.696L229.318 241.453L224.075 237.555L217.74 239.269L215.119 242.125L213.59 246.696H230.487Z" fill="#EEE6D6"/>
<path d="M230.487 246.696L229.318 241.453L224.075 237.555L223.038 241.138L225.548 243.818L219.974 244.085L215.119 242.125L213.59 246.696H230.487Z" fill="#E3DBCB"/>
<path d="M253.054 246.696L251.27 238.696L243.27 232.748L233.603 235.363L229.603 239.722L227.27 246.696H253.054Z" fill="#EEE6D6"/>
<path d="M253.054 246.696L251.27 238.696L243.27 232.748L242.279 236.171L236.494 236.972L240.124 239.719L237.012 242.712L229.603 239.722L227.27 246.696H253.054Z" fill="#DED6C7"/>
<path d="M265.439 246.696L264.093 240.661L258.058 236.174L250.766 238.146L247.748 241.435L245.988 246.696H265.439Z" fill="#EEE6D6"/>
<path d="M265.439 246.696L264.093 240.661L258.058 236.174L256.864 240.298L259.753 243.383L253.337 243.691L247.748 241.435L245.988 246.696H265.439Z" fill="#E3DBCB"/>
<path d="M110.17 246.696L108.824 240.661L102.789 236.174L95.4967 238.146L92.4788 241.435L90.7188 246.696H110.17Z" fill="#EEE6D6"/>
<path d="M110.17 246.696L108.824 240.661L102.789 236.174L101.595 240.298L104.484 243.383L98.0677 243.691L92.4788 241.435L90.7188 246.696H110.17Z" fill="#E3DBCB"/>
<path d="M97.784 246.696L96 238.696L88 232.748L78.334 235.363L74.334 239.722L72 246.696H97.784Z" fill="#EEE6D6"/>
<path d="M97.784 246.696L96 238.696L88 232.748L87.009 236.171L81.224 236.972L84.854 239.719L81.742 242.712L74.334 239.722L72 246.696H97.784Z" fill="#DED6C7"/>
<path d="M347.5 7.50907L226.279 7.50907C188.683 -2.00953 150.317 -2.00953 112.721 7.50907H0.5L101.83 155.37L169.682 154.382L237.17 155.37L347.5 7.50907Z" fill="url(#paint0_linear_1479_17335)"/>
<defs>
<linearGradient id="paint0_linear_1479_17335" x1="169.5" y1="0.370974" x2="169.5" y2="155.37" gradientUnits="userSpaceOnUse">
<stop stop-color="white" stop-opacity="0"/>
<stop offset="1" stop-color="#FDD03B"/>
</linearGradient>
</defs>
</svg>
