<svg xmlns="http://www.w3.org/2000/svg" fill="none" viewBox="721.8168990042674 0 718.9758179231864 1027.250176" style="max-height: 500px" width="718.9758179231864" height="1027.250176">
<g clip-path="url(#clip0_6_43)">
<rect fill="white" height="1024" width="1440"/>
<g clip-path="url(#clip1_6_43)">
<rect fill="url(#paint0_linear_6_43)" transform="translate(721)" height="1024" width="720"/>
<path fill="white" d="M706.655 183.602C717.051 181.502 727.557 180.15 738.125 179.577L742.092 179.407C743.414 179.358 744.734 179.283 746.06 179.291L750.036 179.27C751.361 179.269 752.684 179.244 754.013 179.301L757.995 179.428C759.322 179.477 760.647 179.501 761.976 179.609L765.961 179.886C767.288 179.982 768.623 180.062 769.928 180.211L773.86 180.618L774.843 180.723L775.82 180.849L777.774 181.103L779.728 181.358C780.379 181.443 781.03 181.528 781.675 181.634L785.555 182.24C786.851 182.433 788.133 182.674 789.417 182.907L793.265 183.615L797.087 184.403L798.997 184.8L800.892 185.233L804.682 186.107C805.939 186.41 807.189 186.735 808.442 187.05C810.956 187.664 813.428 188.372 815.913 189.05L816.843 189.308L817.766 189.58L819.613 190.125L821.459 190.671C822.074 190.852 822.69 191.033 823.298 191.228C825.735 192.001 828.189 192.747 830.598 193.569L834.224 194.783L837.82 196.047L839.617 196.68L841.401 197.334L844.964 198.647C846.149 199.089 847.322 199.548 848.501 199.999C849.676 200.454 850.862 200.898 852.025 201.368C854.36 202.3 856.702 203.222 859.009 204.187L862.479 205.624L865.923 207.088L867.645 207.821L869.353 208.567L872.769 210.059C877.298 212.074 881.805 214.11 886.25 216.188C890.711 218.256 895.108 220.362 899.494 222.468C903.86 224.581 908.211 226.702 912.51 228.824L937.98 241.436C942.175 243.51 946.327 245.536 950.474 247.548C954.607 249.537 958.734 251.517 962.824 253.42C966.924 255.342 970.992 257.182 975.053 258.995L978.09 260.326L979.608 260.992L981.121 261.636L984.147 262.928L987.162 264.178C1003.23 270.824 1019.01 276.206 1034.48 279.612C1038.34 280.429 1042.19 281.197 1046 281.751L1047.44 281.971L1048.15 282.082L1048.87 282.17L1051.72 282.53L1052.43 282.622L1053.14 282.691L1054.56 282.83L1055.98 282.97C1056.46 283.017 1056.93 283.067 1057.4 283.092C1059.28 283.21 1061.17 283.381 1063.04 283.422L1064.45 283.477C1064.91 283.49 1065.39 283.527 1065.85 283.521L1068.65 283.539C1069.12 283.538 1069.58 283.558 1070.05 283.543L1071.44 283.507L1074.22 283.437L1076.99 283.274L1078.38 283.197L1079.75 283.067L1082.51 282.817L1085.25 282.471L1086.62 282.301C1086.85 282.277 1087.07 282.24 1087.3 282.2L1087.98 282.088L1090.71 281.646C1094.32 281.003 1097.94 280.189 1101.6 279.214C1105.27 278.227 1108.96 277.056 1112.68 275.755C1113.62 275.417 1114.55 275.102 1115.48 274.75L1118.29 273.686C1120.17 272.939 1122.05 272.202 1123.95 271.391C1131.52 268.219 1139.22 264.486 1147.06 260.463C1154.91 256.415 1162.89 252.064 1171.07 247.594L1177.25 244.23L1183.51 240.849C1187.71 238.597 1191.96 236.343 1196.29 234.133C1200.62 231.922 1205.01 229.749 1209.47 227.643L1212.84 226.094C1213.96 225.584 1215.08 225.051 1216.21 224.566L1219.59 223.085L1221.28 222.346L1222.97 221.638C1241.06 214.039 1259.5 208.01 1278.17 203.654C1296.83 199.285 1315.7 196.487 1334.64 195.362C1353.59 194.222 1372.61 194.666 1391.57 196.792L1395.12 197.195C1396.3 197.339 1397.49 197.505 1398.67 197.659C1399.85 197.82 1401.04 197.966 1402.22 198.139L1405.77 198.678C1408.13 199.012 1410.48 199.463 1412.84 199.873L1416.36 200.5L1418.13 200.815C1418.72 200.913 1419.3 201.051 1419.88 201.166L1426.9 202.62L1428.65 202.986C1429.23 203.108 1429.81 203.255 1430.39 203.389L1433.87 204.209L1437.36 205.03L1439.1 205.44L1440.83 205.889L1447.74 207.699L1449.47 208.152L1451.19 208.642L1454.62 209.623L1458.05 210.603L1459.77 211.097L1461.47 211.62L1468.29 213.718C1468.86 213.894 1469.43 214.063 1469.99 214.246L1471.69 214.8L1475.07 215.909C1479.6 217.356 1484.07 218.934 1488.56 220.475C1489.68 220.855 1490.79 221.262 1491.91 221.662L1495.25 222.865C1497.48 223.669 1499.71 224.46 1501.92 225.297L1508.57 227.776C1510.78 228.606 1512.98 229.463 1515.18 230.306C1519.6 231.983 1523.97 233.725 1528.35 235.44C1537.09 238.907 1545.8 242.414 1554.44 245.92C1571.76 252.94 1588.89 259.869 1606.01 266.299L1612.42 268.658L1615.62 269.837L1618.83 270.971L1625.24 273.237L1631.64 275.398C1632.71 275.756 1633.78 276.126 1634.84 276.473L1638.05 277.494C1640.18 278.171 1642.32 278.867 1644.45 279.528L1650.86 281.439L1652.46 281.918C1652.99 282.077 1653.53 282.238 1654.06 282.382L1657.26 283.265C1665.81 285.696 1674.35 287.693 1682.91 289.513L1689.32 290.76L1690.92 291.073C1691.46 291.179 1691.99 291.252 1692.53 291.344L1695.73 291.868L1698.94 292.394L1700.54 292.657C1701.08 292.737 1701.61 292.797 1702.15 292.87L1708.56 293.706L1710.16 293.916L1711.76 294.067L1714.97 294.372L1718.17 294.679L1719.78 294.829L1721.38 294.924L1727.79 295.307L1728.6 295.355L1729.4 295.376L1731 295.416L1734.21 295.498L1737.43 295.581L1740.64 295.557L1743.85 295.532L1745.46 295.521L1746.26 295.515L1747.07 295.485L1753.49 295.226L1755.1 295.161L1756.71 295.048L1759.92 294.815L1763.13 294.584L1763.94 294.527C1764.21 294.505 1764.47 294.472 1764.74 294.447L1766.34 294.28L1772.77 293.617L1779.18 292.762L1780.79 292.548L1781.59 292.441C1781.86 292.405 1782.12 292.355 1782.39 292.314L1785.59 291.791L1788.79 291.267L1790.4 291.005C1790.93 290.91 1791.46 290.802 1791.99 290.701L1798.39 289.47C1799.45 289.278 1800.51 289.02 1801.58 288.792L1804.76 288.088L1807.95 287.383L1811.13 286.597C1822.86 283.751 1834.51 280.25 1846.08 276.227L1848.55 309.05C1838.34 313.382 1828 317.321 1817.53 320.773L1814.22 321.876L1810.9 322.897L1807.57 323.918C1806.46 324.253 1805.35 324.616 1804.24 324.912L1797.54 326.773L1795.86 327.233L1794.18 327.652L1790.81 328.488L1787.44 329.323C1787.15 329.391 1786.88 329.467 1786.59 329.529L1785.74 329.713L1784.05 330.083L1777.26 331.555L1770.44 332.829L1768.74 333.147C1768.45 333.198 1768.17 333.255 1767.88 333.303L1767.03 333.437L1763.6 333.968L1760.17 334.5L1758.45 334.762L1756.73 334.974L1749.83 335.819L1748.97 335.921L1748.1 335.999L1746.37 336.155L1742.91 336.464L1739.45 336.773L1735.97 336.968L1732.5 337.163L1730.76 337.259L1729.89 337.307L1729.02 337.327L1722.04 337.481L1720.3 337.518L1718.55 337.5L1715.06 337.453L1711.57 337.405L1709.82 337.38L1708.08 337.296L1701.1 336.957C1700.52 336.927 1699.94 336.906 1699.36 336.867L1697.62 336.727L1694.14 336.442L1690.65 336.157C1690.07 336.105 1689.49 336.072 1688.91 336.004L1687.18 335.809L1680.23 335.027C1670.99 333.824 1661.76 332.418 1652.61 330.578L1649.17 329.916C1648.6 329.811 1648.03 329.686 1647.46 329.563L1645.75 329.196L1638.9 327.723C1636.63 327.207 1634.36 326.66 1632.09 326.128L1628.68 325.326C1627.54 325.051 1626.42 324.757 1625.29 324.473L1618.5 322.752L1611.75 320.936L1608.37 320.025L1605.01 319.074L1598.28 317.168C1580.4 311.968 1562.7 306.321 1545.18 300.719C1536.41 297.912 1527.69 295.15 1518.99 292.439C1514.65 291.111 1510.3 289.751 1505.98 288.474C1503.81 287.831 1501.64 287.169 1499.48 286.542L1493.01 284.675C1490.84 284.039 1488.69 283.461 1486.54 282.865L1483.31 281.974C1482.23 281.678 1481.15 281.374 1480.08 281.102C1475.78 279.989 1471.48 278.832 1467.19 277.822L1463.98 277.039L1462.37 276.647C1461.84 276.518 1461.3 276.405 1460.77 276.284L1454.35 274.848L1452.75 274.488L1451.15 274.161L1447.95 273.513L1444.75 272.865L1443.15 272.54L1441.56 272.255L1435.18 271.114L1433.59 270.831L1432 270.588L1428.82 270.101L1425.64 269.614C1425.11 269.535 1424.58 269.444 1424.05 269.376L1422.47 269.179L1416.13 268.385C1415.6 268.324 1415.07 268.24 1414.55 268.196L1412.97 268.046L1409.81 267.746C1407.71 267.552 1405.61 267.316 1403.51 267.194L1400.37 266.973C1399.32 266.905 1398.27 266.863 1397.22 266.806C1396.17 266.756 1395.13 266.691 1394.08 266.652L1390.94 266.552C1374.18 266.038 1357.46 267.027 1340.93 269.392C1324.39 271.742 1308.05 275.558 1292.02 280.701C1275.98 285.831 1260.29 292.393 1245.04 300.228L1243.61 300.956L1242.19 301.714L1239.35 303.229C1238.4 303.724 1237.46 304.267 1236.52 304.784L1233.7 306.352C1229.94 308.49 1226.17 310.727 1222.36 313.043C1218.57 315.355 1214.73 317.774 1210.86 320.229L1205.04 323.959L1199.14 327.762C1191.25 332.866 1183.15 338.101 1174.78 343.245C1166.39 348.378 1157.74 353.436 1148.68 358.096C1146.42 359.272 1144.12 360.399 1141.81 361.523L1138.33 363.169C1137.16 363.715 1135.97 364.233 1134.8 364.764C1130.06 366.854 1125.24 368.827 1120.3 370.6C1115.36 372.363 1110.31 373.951 1105.18 375.312L1101.34 376.273L1100.38 376.51C1100.06 376.591 1099.74 376.669 1099.42 376.734L1097.49 377.148C1096.2 377.419 1094.92 377.701 1093.63 377.96L1089.76 378.65L1087.82 378.99L1085.89 379.271L1082.01 379.821C1080.71 379.976 1079.42 380.11 1078.13 380.254L1076.18 380.464C1075.54 380.534 1074.89 380.569 1074.24 380.626L1070.36 380.922C1069.71 380.979 1069.07 380.991 1068.42 381.028L1066.48 381.116C1063.9 381.262 1061.32 381.264 1058.74 381.308C1058.09 381.323 1057.45 381.312 1056.81 381.303L1054.88 381.275L1052.95 381.246L1051.99 381.228L1051.03 381.188L1047.18 381.023L1046.22 380.98L1045.27 380.915L1043.35 380.782C1038.25 380.454 1033.19 379.881 1028.15 379.226L1024.38 378.68C1023.76 378.585 1023.13 378.504 1022.5 378.398L1020.63 378.084L1016.89 377.449L1013.18 376.742L1011.32 376.385L1009.47 375.997L1005.78 375.216L1002.11 374.373L1000.28 373.949C999.67 373.806 999.066 373.649 998.459 373.499L994.818 372.59C993.607 372.281 992.407 371.952 991.201 371.632C988.784 371.001 986.402 370.305 984.008 369.628C983.407 369.46 982.813 369.284 982.22 369.105L980.439 368.572C979.254 368.213 978.058 367.868 976.882 367.496C974.527 366.752 972.158 366.025 969.825 365.248L966.316 364.093L962.829 362.909L961.085 362.315L959.354 361.707L955.892 360.49C951.299 358.841 946.724 357.168 942.208 355.446C937.675 353.735 933.202 351.981 928.74 350.226C924.297 348.462 919.866 346.69 915.486 344.913L889.53 334.354C885.257 332.623 881.024 330.934 876.802 329.261C872.594 327.611 868.396 325.968 864.237 324.406C860.069 322.821 855.938 321.318 851.819 319.842L848.74 318.766L847.202 318.227L845.67 317.708L842.607 316.67L839.557 315.671C837.522 314.994 835.503 314.375 833.483 313.74C832.471 313.415 831.468 313.129 830.462 312.826C829.457 312.529 828.45 312.219 827.448 311.932L824.447 311.083L822.948 310.66L821.455 310.263L818.472 309.468L815.505 308.728C813.524 308.216 811.563 307.795 809.597 307.332C809.105 307.213 808.617 307.114 808.128 307.01L806.663 306.701L805.197 306.392L804.465 306.236L803.737 306.096C801.796 305.733 799.849 305.334 797.926 305.031C796.961 304.871 795.996 304.697 795.035 304.546L792.162 304.128L790.726 303.916L789.299 303.743L786.449 303.392L783.616 303.111C782.672 303.019 781.728 302.914 780.794 302.86L777.985 302.653C777.516 302.612 777.052 302.593 776.588 302.573L775.194 302.509L773.802 302.442L773.106 302.409L772.415 302.395L769.65 302.342C768.723 302.307 767.826 302.341 766.92 302.353L764.21 302.391C763.308 302.384 762.403 302.456 761.499 302.5L758.791 302.64C757.889 302.667 756.986 302.772 756.084 302.851L753.38 303.092C752.479 303.152 751.579 303.292 750.679 303.403L747.981 303.744C740.793 304.749 733.65 306.286 726.597 308.334C718.292 310.747 710.113 313.868 702.137 317.657L692.279 186.99C697.046 185.699 701.841 184.563 706.66 183.589L706.655 183.602Z" opacity="0.05"/>
<path fill="white" d="M416.655 213.602C427.051 211.502 437.557 210.15 448.125 209.577L452.092 209.407C453.414 209.358 454.734 209.283 456.06 209.291L460.036 209.27C461.361 209.269 462.684 209.244 464.013 209.301L467.995 209.428C469.322 209.477 470.647 209.501 471.976 209.609L475.961 209.886C477.288 209.982 478.623 210.062 479.928 210.211L483.86 210.618L484.843 210.723L485.82 210.849L487.774 211.103L489.728 211.358C490.379 211.443 491.03 211.528 491.675 211.634L495.555 212.24C496.851 212.433 498.133 212.674 499.417 212.907L503.265 213.615L507.087 214.403L508.997 214.8L510.892 215.233L514.682 216.107C515.939 216.41 517.189 216.735 518.442 217.05C520.956 217.664 523.428 218.372 525.913 219.05L526.843 219.308L527.766 219.58L529.613 220.125L531.459 220.671C532.074 220.852 532.69 221.033 533.298 221.228C535.735 222.001 538.189 222.747 540.598 223.569L544.224 224.783L547.82 226.047L549.617 226.68L551.401 227.334L554.964 228.647C556.149 229.089 557.322 229.548 558.501 229.999C559.676 230.454 560.862 230.898 562.025 231.368C564.36 232.3 566.702 233.222 569.009 234.187L572.479 235.624L575.923 237.088L577.645 237.821L579.353 238.567L582.769 240.059C587.298 242.074 591.805 244.11 596.25 246.188C600.711 248.256 605.108 250.362 609.494 252.468C613.86 254.581 618.211 256.702 622.51 258.824L647.98 271.436C652.175 273.51 656.327 275.536 660.474 277.548C664.607 279.537 668.734 281.517 672.824 283.42C676.924 285.342 680.992 287.182 685.053 288.995L688.09 290.326L689.608 290.992L691.121 291.636L694.147 292.928L697.162 294.178C713.232 300.824 729.013 306.206 744.477 309.612C748.336 310.429 752.188 311.197 756.003 311.751L757.436 311.971L758.153 312.082L758.866 312.17L761.719 312.53L762.432 312.622L763.142 312.691L764.562 312.83L765.982 312.97C766.456 313.017 766.93 313.067 767.399 313.092C769.28 313.21 771.173 313.381 773.041 313.422L774.447 313.477C774.915 313.49 775.388 313.527 775.852 313.521L778.649 313.539C779.116 313.538 779.585 313.558 780.048 313.543L781.439 313.507L784.223 313.437L786.99 313.274L788.376 313.197L789.752 313.067L792.508 312.817L795.248 312.471L796.618 312.301C796.847 312.277 797.075 312.24 797.301 312.2L797.982 312.088L800.708 311.646C804.319 311.003 807.941 310.189 811.604 309.214C815.266 308.227 818.961 307.056 822.683 305.755C823.615 305.417 824.545 305.102 825.481 304.75L828.292 303.686C830.173 302.939 832.054 302.202 833.95 301.391C841.52 298.219 849.223 294.486 857.059 290.463C864.906 286.415 872.887 282.064 881.075 277.594L887.247 274.23L893.508 270.849C897.713 268.597 901.958 266.343 906.291 264.133C910.62 261.922 915.013 259.749 919.475 257.643L922.839 256.094C923.961 255.584 925.078 255.051 926.207 254.566L929.587 253.085L931.277 252.346L932.974 251.638C951.064 244.039 969.502 238.01 988.166 233.654C1006.83 229.285 1025.7 226.487 1044.64 225.362C1063.59 224.222 1082.61 224.666 1101.57 226.792L1105.12 227.195C1106.3 227.339 1107.49 227.505 1108.67 227.659C1109.85 227.82 1111.04 227.966 1112.22 228.139L1115.77 228.678C1118.13 229.012 1120.48 229.463 1122.84 229.873L1126.36 230.5L1128.13 230.815C1128.72 230.913 1129.3 231.051 1129.88 231.166L1136.9 232.62L1138.65 232.986C1139.23 233.108 1139.81 233.255 1140.39 233.389L1143.87 234.209L1147.36 235.03L1149.1 235.44L1150.83 235.889L1157.74 237.699L1159.47 238.152L1161.19 238.642L1164.62 239.623L1168.05 240.603L1169.77 241.097L1171.47 241.62L1178.29 243.718C1178.86 243.894 1179.43 244.063 1179.99 244.246L1181.69 244.8L1185.07 245.909C1189.6 247.356 1194.07 248.934 1198.56 250.475C1199.68 250.855 1200.79 251.262 1201.91 251.662L1205.25 252.865C1207.48 253.669 1209.71 254.46 1211.92 255.297L1218.57 257.776C1220.78 258.606 1222.98 259.463 1225.18 260.306C1229.6 261.983 1233.97 263.725 1238.35 265.44C1247.09 268.907 1255.8 272.414 1264.44 275.92C1281.76 282.94 1298.89 289.869 1316.01 296.299L1322.42 298.658L1325.62 299.837L1328.83 300.971L1335.24 303.237L1341.64 305.398C1342.71 305.756 1343.78 306.126 1344.84 306.473L1348.05 307.494C1350.18 308.171 1352.32 308.867 1354.45 309.528L1360.86 311.439L1362.46 311.918C1362.99 312.077 1363.53 312.238 1364.06 312.382L1367.26 313.265C1375.81 315.696 1384.35 317.693 1392.91 319.513L1399.32 320.76L1400.92 321.073C1401.46 321.179 1401.99 321.252 1402.53 321.344L1405.73 321.868L1408.94 322.394L1410.54 322.657C1411.08 322.737 1411.61 322.797 1412.15 322.87L1418.56 323.706L1420.16 323.916L1421.76 324.067L1424.97 324.372L1428.17 324.679L1429.78 324.829L1431.38 324.924L1437.79 325.307L1438.6 325.355L1439.4 325.376L1441 325.416L1444.21 325.498L1447.43 325.581L1450.64 325.557L1453.85 325.532L1455.46 325.521L1456.26 325.515L1457.07 325.485L1463.49 325.226L1465.1 325.161L1466.71 325.048L1469.92 324.815L1473.13 324.584L1473.94 324.527C1474.21 324.505 1474.47 324.472 1474.74 324.447L1476.34 324.28L1482.77 323.617L1489.18 322.762L1490.79 322.548L1491.59 322.441C1491.86 322.405 1492.12 322.355 1492.39 322.314L1495.59 321.791L1498.79 321.267L1500.4 321.005C1500.93 320.91 1501.46 320.802 1501.99 320.701L1508.39 319.47C1509.45 319.278 1510.51 319.02 1511.58 318.792L1514.76 318.088L1517.95 317.383L1521.13 316.597C1532.86 313.751 1544.51 310.25 1556.08 306.227L1558.55 339.05C1548.34 343.382 1538 347.321 1527.53 350.773L1524.22 351.876L1520.9 352.897L1517.57 353.918C1516.46 354.253 1515.35 354.616 1514.24 354.912L1507.54 356.773L1505.86 357.233L1504.18 357.652L1500.81 358.488L1497.44 359.323C1497.15 359.391 1496.88 359.467 1496.59 359.529L1495.74 359.713L1494.05 360.083L1487.26 361.555L1480.44 362.829L1478.74 363.147C1478.45 363.198 1478.17 363.255 1477.88 363.303L1477.03 363.437L1473.6 363.968L1470.17 364.5L1468.45 364.762L1466.73 364.974L1459.83 365.819L1458.97 365.921L1458.1 365.999L1456.37 366.155L1452.91 366.464L1449.45 366.773L1445.97 366.968L1442.5 367.163L1440.76 367.259L1439.89 367.307L1439.02 367.327L1432.04 367.481L1430.3 367.518L1428.55 367.5L1425.06 367.453L1421.57 367.405L1419.82 367.38L1418.08 367.296L1411.1 366.957C1410.52 366.927 1409.94 366.906 1409.36 366.867L1407.62 366.727L1404.14 366.442L1400.65 366.157C1400.07 366.105 1399.49 366.072 1398.91 366.004L1397.18 365.809L1390.23 365.027C1380.99 363.824 1371.76 362.418 1362.61 360.578L1359.17 359.916C1358.6 359.811 1358.03 359.686 1357.46 359.563L1355.75 359.196L1348.9 357.723C1346.63 357.207 1344.36 356.66 1342.09 356.128L1338.68 355.326C1337.54 355.051 1336.42 354.757 1335.29 354.473L1328.5 352.752L1321.75 350.936L1318.37 350.025L1315.01 349.074L1308.28 347.168C1290.4 341.968 1272.7 336.321 1255.18 330.719C1246.41 327.912 1237.69 325.15 1228.99 322.439C1224.65 321.111 1220.3 319.751 1215.98 318.474C1213.81 317.831 1211.64 317.169 1209.48 316.542L1203.01 314.675C1200.84 314.039 1198.69 313.461 1196.54 312.865L1193.31 311.974C1192.23 311.678 1191.15 311.374 1190.08 311.102C1185.78 309.989 1181.48 308.832 1177.19 307.822L1173.98 307.039L1172.37 306.647C1171.84 306.518 1171.3 306.405 1170.77 306.284L1164.35 304.848L1162.75 304.488L1161.15 304.161L1157.95 303.513L1154.75 302.865L1153.15 302.54L1151.56 302.255L1145.18 301.114L1143.59 300.831L1142 300.588L1138.82 300.101L1135.64 299.614C1135.11 299.535 1134.58 299.444 1134.05 299.376L1132.47 299.179L1126.13 298.385C1125.6 298.324 1125.07 298.24 1124.55 298.196L1122.97 298.046L1119.81 297.746C1117.71 297.552 1115.61 297.316 1113.51 297.194L1110.37 296.973C1109.32 296.905 1108.27 296.863 1107.22 296.806C1106.17 296.756 1105.13 296.691 1104.08 296.652L1100.94 296.552C1084.18 296.038 1067.46 297.027 1050.93 299.392C1034.39 301.742 1018.05 305.558 1002.02 310.701C985.984 315.831 970.286 322.393 955.043 330.228L953.612 330.956L952.191 331.714L949.349 333.229C948.399 333.724 947.464 334.267 946.521 334.784L943.699 336.352C939.942 338.49 936.166 340.727 932.365 343.043C928.566 345.355 924.729 347.774 920.864 350.229L915.039 353.959L909.144 357.762C901.249 362.866 893.149 368.101 884.782 373.245C876.395 378.378 867.742 383.436 858.676 388.096C856.421 389.272 854.117 390.399 851.815 391.523L848.325 393.169C847.16 393.715 845.972 394.233 844.795 394.764C840.063 396.854 835.238 398.827 830.299 400.6C825.357 402.363 820.307 403.951 815.183 405.312L811.342 406.273L810.381 406.51C810.061 406.591 809.741 406.669 809.419 406.734L807.491 407.148C806.204 407.419 804.918 407.701 803.631 407.96L799.76 408.65L797.824 408.99L795.886 409.271L792.006 409.821C790.712 409.976 789.42 410.11 788.125 410.254L786.183 410.464C785.536 410.534 784.89 410.569 784.242 410.626L780.361 410.922C779.712 410.979 779.068 410.991 778.422 411.028L776.484 411.116C773.896 411.262 771.322 411.264 768.741 411.308C768.094 411.323 767.453 411.312 766.81 411.303L764.881 411.275L762.952 411.246L761.988 411.228L761.027 411.188L757.185 411.023L756.224 410.98L755.268 410.915L753.355 410.782C748.245 410.454 743.187 409.881 738.148 409.226L734.383 408.68C733.757 408.585 733.126 408.504 732.503 408.398L730.632 408.084L726.892 407.449L723.176 406.742L721.317 406.385L719.472 405.997L715.78 405.216L712.114 404.373L710.28 403.949C709.67 403.806 709.066 403.649 708.459 403.499L704.818 402.59C703.607 402.281 702.407 401.952 701.201 401.632C698.784 401.001 696.402 400.305 694.008 399.628C693.407 399.46 692.813 399.284 692.22 399.105L690.439 398.572C689.254 398.213 688.058 397.868 686.882 397.496C684.527 396.752 682.158 396.025 679.825 395.248L676.316 394.093L672.829 392.909L671.085 392.315L669.354 391.707L665.892 390.49C661.299 388.841 656.724 387.168 652.208 385.446C647.675 383.735 643.202 381.981 638.74 380.226C634.297 378.462 629.866 376.69 625.486 374.913L599.53 364.354C595.257 362.623 591.024 360.934 586.802 359.261C582.594 357.611 578.396 355.968 574.237 354.406C570.069 352.821 565.938 351.318 561.819 349.842L558.74 348.766L557.202 348.227L555.67 347.708L552.607 346.67L549.557 345.671C547.522 344.994 545.503 344.375 543.483 343.74C542.471 343.415 541.468 343.129 540.462 342.826C539.457 342.529 538.45 342.219 537.448 341.932L534.447 341.083L532.948 340.66L531.455 340.263L528.472 339.468L525.505 338.728C523.524 338.216 521.563 337.795 519.597 337.332C519.105 337.213 518.617 337.114 518.128 337.01L516.663 336.701L515.197 336.392L514.465 336.236L513.737 336.096C511.796 335.733 509.849 335.334 507.926 335.031C506.961 334.871 505.996 334.697 505.035 334.546L502.162 334.128L500.726 333.916L499.299 333.743L496.449 333.392L493.616 333.111C492.672 333.019 491.728 332.914 490.794 332.86L487.985 332.653C487.516 332.612 487.052 332.593 486.588 332.573L485.194 332.509L483.802 332.442L483.106 332.409L482.415 332.395L479.65 332.342C478.723 332.307 477.826 332.341 476.92 332.353L474.21 332.391C473.308 332.384 472.403 332.456 471.499 332.5L468.791 332.64C467.889 332.667 466.986 332.772 466.084 332.851L463.38 333.092C462.479 333.152 461.579 333.292 460.679 333.403L457.981 333.744C450.793 334.749 443.65 336.286 436.597 338.334C428.292 340.747 420.113 343.868 412.137 347.657L402.279 216.99C407.046 215.699 411.841 214.563 416.66 213.589L416.655 213.602Z" opacity="0.05"/>
<path fill="white" d="M606.655 813.602C617.051 811.502 627.557 810.15 638.125 809.577L642.092 809.407C643.414 809.358 644.734 809.283 646.06 809.291L650.036 809.27C651.361 809.269 652.684 809.244 654.013 809.301L657.995 809.428C659.322 809.477 660.647 809.501 661.976 809.609L665.961 809.886C667.288 809.982 668.623 810.062 669.928 810.211L673.86 810.618L674.843 810.723L675.82 810.849L677.774 811.103L679.728 811.358C680.379 811.443 681.03 811.528 681.675 811.634L685.555 812.24C686.851 812.433 688.133 812.674 689.417 812.907L693.265 813.615L697.087 814.403L698.997 814.8L700.892 815.233L704.682 816.107C705.939 816.41 707.189 816.735 708.442 817.05C710.956 817.664 713.428 818.372 715.913 819.05L716.843 819.308L717.766 819.58L719.613 820.125L721.459 820.671C722.074 820.852 722.69 821.033 723.298 821.228C725.735 822.001 728.189 822.747 730.598 823.569L734.224 824.783L737.82 826.047L739.617 826.68L741.401 827.334L744.964 828.647C746.149 829.089 747.322 829.548 748.501 829.999C749.676 830.454 750.862 830.898 752.025 831.368C754.36 832.3 756.702 833.222 759.009 834.187L762.479 835.624L765.923 837.088L767.645 837.821L769.353 838.567L772.769 840.059C777.298 842.074 781.805 844.11 786.25 846.188C790.711 848.256 795.108 850.362 799.494 852.468C803.86 854.581 808.211 856.702 812.51 858.824L837.98 871.436C842.175 873.51 846.327 875.536 850.474 877.548C854.607 879.537 858.734 881.517 862.824 883.42C866.924 885.342 870.992 887.182 875.053 888.995L878.09 890.326L879.608 890.992L881.121 891.636L884.147 892.928L887.162 894.178C903.232 900.824 919.013 906.206 934.477 909.612C938.336 910.429 942.188 911.197 946.003 911.751L947.436 911.971L948.153 912.082L948.866 912.17L951.719 912.53L952.432 912.622L953.142 912.691L954.562 912.83L955.982 912.97C956.456 913.017 956.93 913.067 957.399 913.092C959.28 913.21 961.173 913.381 963.041 913.422L964.447 913.477C964.915 913.49 965.388 913.527 965.852 913.521L968.649 913.539C969.116 913.538 969.585 913.558 970.048 913.543L971.439 913.507L974.223 913.437L976.99 913.274L978.376 913.197L979.752 913.067L982.508 912.817L985.248 912.471L986.618 912.301C986.847 912.277 987.075 912.24 987.301 912.2L987.982 912.088L990.708 911.646C994.319 911.003 997.941 910.189 1001.6 909.214C1005.27 908.227 1008.96 907.056 1012.68 905.755C1013.62 905.417 1014.55 905.102 1015.48 904.75L1018.29 903.686C1020.17 902.939 1022.05 902.202 1023.95 901.391C1031.52 898.219 1039.22 894.486 1047.06 890.463C1054.91 886.415 1062.89 882.064 1071.07 877.594L1077.25 874.23L1083.51 870.849C1087.71 868.597 1091.96 866.343 1096.29 864.133C1100.62 861.922 1105.01 859.749 1109.47 857.643L1112.84 856.094C1113.96 855.584 1115.08 855.051 1116.21 854.566L1119.59 853.085L1121.28 852.346L1122.97 851.638C1141.06 844.039 1159.5 838.01 1178.17 833.654C1196.83 829.285 1215.7 826.487 1234.64 825.362C1253.59 824.222 1272.61 824.666 1291.57 826.792L1295.12 827.195C1296.3 827.339 1297.49 827.505 1298.67 827.659C1299.85 827.82 1301.04 827.966 1302.22 828.139L1305.77 828.678C1308.13 829.012 1310.48 829.463 1312.84 829.873L1316.36 830.5L1318.13 830.815C1318.72 830.913 1319.3 831.051 1319.88 831.166L1326.9 832.62L1328.65 832.986C1329.23 833.108 1329.81 833.255 1330.39 833.389L1333.87 834.209L1337.36 835.03L1339.1 835.44L1340.83 835.889L1347.74 837.699L1349.47 838.152L1351.19 838.642L1354.62 839.623L1358.05 840.603L1359.77 841.097L1361.47 841.62L1368.29 843.718C1368.86 843.894 1369.43 844.063 1369.99 844.246L1371.69 844.8L1375.07 845.909C1379.6 847.356 1384.07 848.934 1388.56 850.475C1389.68 850.855 1390.79 851.262 1391.91 851.662L1395.25 852.865C1397.48 853.669 1399.71 854.46 1401.92 855.297L1408.57 857.776C1410.78 858.606 1412.98 859.463 1415.18 860.306C1419.6 861.983 1423.97 863.725 1428.35 865.44C1437.09 868.907 1445.8 872.414 1454.44 875.92C1471.76 882.94 1488.89 889.869 1506.01 896.299L1512.42 898.658L1515.62 899.837L1518.83 900.971L1525.24 903.237L1531.64 905.398C1532.71 905.756 1533.78 906.126 1534.84 906.473L1538.05 907.494C1540.18 908.171 1542.32 908.867 1544.45 909.528L1550.86 911.439L1552.46 911.918C1552.99 912.077 1553.53 912.238 1554.06 912.382L1557.26 913.265C1565.81 915.696 1574.35 917.693 1582.91 919.513L1589.32 920.76L1590.92 921.073C1591.46 921.179 1591.99 921.252 1592.53 921.344L1595.73 921.868L1598.94 922.394L1600.54 922.657C1601.08 922.737 1601.61 922.797 1602.15 922.87L1608.56 923.706L1610.16 923.916L1611.76 924.067L1614.97 924.372L1618.17 924.679L1619.78 924.829L1621.38 924.924L1627.79 925.307L1628.6 925.355L1629.4 925.376L1631 925.416L1634.21 925.498L1637.43 925.581L1640.64 925.557L1643.85 925.532L1645.46 925.521L1646.26 925.515L1647.07 925.485L1653.49 925.226L1655.1 925.161L1656.71 925.048L1659.92 924.815L1663.13 924.584L1663.94 924.527C1664.21 924.505 1664.47 924.472 1664.74 924.447L1666.34 924.28L1672.77 923.617L1679.18 922.762L1680.79 922.548L1681.59 922.441C1681.86 922.405 1682.12 922.355 1682.39 922.314L1685.59 921.791L1688.79 921.267L1690.4 921.005C1690.93 920.91 1691.46 920.802 1691.99 920.701L1698.39 919.47C1699.45 919.278 1700.51 919.02 1701.58 918.792L1704.76 918.088L1707.95 917.383L1711.13 916.597C1722.86 913.751 1734.51 910.25 1746.08 906.227L1748.55 939.05C1738.34 943.382 1728 947.321 1717.53 950.773L1714.22 951.876L1710.9 952.897L1707.57 953.918C1706.46 954.253 1705.35 954.616 1704.24 954.912L1697.54 956.773L1695.86 957.233L1694.18 957.652L1690.81 958.488L1687.44 959.323C1687.15 959.391 1686.88 959.467 1686.59 959.529L1685.74 959.713L1684.05 960.083L1677.26 961.555L1670.44 962.829L1668.74 963.147C1668.45 963.198 1668.17 963.255 1667.88 963.303L1667.03 963.437L1663.6 963.968L1660.17 964.5L1658.45 964.762L1656.73 964.974L1649.83 965.819L1648.97 965.921L1648.1 965.999L1646.37 966.155L1642.91 966.464L1639.45 966.773L1635.97 966.968L1632.5 967.163L1630.76 967.259L1629.89 967.307L1629.02 967.327L1622.04 967.481L1620.3 967.518L1618.55 967.5L1615.06 967.453L1611.57 967.405L1609.82 967.38L1608.08 967.296L1601.1 966.957C1600.52 966.927 1599.94 966.906 1599.36 966.867L1597.62 966.727L1594.14 966.442L1590.65 966.157C1590.07 966.105 1589.49 966.072 1588.91 966.004L1587.18 965.809L1580.23 965.027C1570.99 963.824 1561.76 962.418 1552.61 960.578L1549.17 959.916C1548.6 959.811 1548.03 959.686 1547.46 959.563L1545.75 959.196L1538.9 957.723C1536.63 957.207 1534.36 956.66 1532.09 956.128L1528.68 955.326C1527.54 955.051 1526.42 954.757 1525.29 954.473L1518.5 952.752L1511.75 950.936L1508.37 950.025L1505.01 949.074L1498.28 947.168C1480.4 941.968 1462.7 936.321 1445.18 930.719C1436.41 927.912 1427.69 925.15 1418.99 922.439C1414.65 921.111 1410.3 919.751 1405.98 918.474C1403.81 917.831 1401.64 917.169 1399.48 916.542L1393.01 914.675C1390.84 914.039 1388.69 913.461 1386.54 912.865L1383.31 911.974C1382.23 911.678 1381.15 911.374 1380.08 911.102C1375.78 909.989 1371.48 908.832 1367.19 907.822L1363.98 907.039L1362.37 906.647C1361.84 906.518 1361.3 906.405 1360.77 906.284L1354.35 904.848L1352.75 904.488L1351.15 904.161L1347.95 903.513L1344.75 902.865L1343.15 902.54L1341.56 902.255L1335.18 901.114L1333.59 900.831L1332 900.588L1328.82 900.101L1325.64 899.614C1325.11 899.535 1324.58 899.444 1324.05 899.376L1322.47 899.179L1316.13 898.385C1315.6 898.324 1315.07 898.24 1314.55 898.196L1312.97 898.046L1309.81 897.746C1307.71 897.552 1305.61 897.316 1303.51 897.194L1300.37 896.973C1299.32 896.905 1298.27 896.863 1297.22 896.806C1296.17 896.756 1295.13 896.691 1294.08 896.652L1290.94 896.552C1274.18 896.038 1257.46 897.027 1240.93 899.392C1224.39 901.742 1208.05 905.558 1192.02 910.701C1175.98 915.831 1160.29 922.393 1145.04 930.228L1143.61 930.956L1142.19 931.714L1139.35 933.229C1138.4 933.724 1137.46 934.267 1136.52 934.784L1133.7 936.352C1129.94 938.49 1126.17 940.727 1122.36 943.043C1118.57 945.355 1114.73 947.774 1110.86 950.229L1105.04 953.959L1099.14 957.762C1091.25 962.866 1083.15 968.101 1074.78 973.245C1066.39 978.378 1057.74 983.436 1048.68 988.096C1046.42 989.272 1044.12 990.399 1041.81 991.523L1038.33 993.169C1037.16 993.715 1035.97 994.233 1034.8 994.764C1030.06 996.854 1025.24 998.827 1020.3 1000.6C1015.36 1002.36 1010.31 1003.95 1005.18 1005.31L1001.34 1006.27L1000.38 1006.51C1000.06 1006.59 999.741 1006.67 999.419 1006.73L997.491 1007.15C996.204 1007.42 994.918 1007.7 993.631 1007.96L989.76 1008.65L987.824 1008.99L985.886 1009.27L982.006 1009.82C980.712 1009.98 979.42 1010.11 978.125 1010.25L976.183 1010.46C975.536 1010.53 974.89 1010.57 974.242 1010.63L970.361 1010.92C969.712 1010.98 969.068 1010.99 968.422 1011.03L966.484 1011.12C963.896 1011.26 961.322 1011.26 958.741 1011.31C958.094 1011.32 957.453 1011.31 956.81 1011.3L954.881 1011.28L952.952 1011.25L951.988 1011.23L951.027 1011.19L947.185 1011.02L946.224 1010.98L945.268 1010.92L943.355 1010.78C938.245 1010.45 933.187 1009.88 928.148 1009.23L924.383 1008.68C923.757 1008.58 923.126 1008.5 922.503 1008.4L920.632 1008.08L916.892 1007.45L913.176 1006.74L911.317 1006.39L909.472 1006L905.78 1005.22L902.114 1004.37L900.28 1003.95C899.67 1003.81 899.066 1003.65 898.459 1003.5L894.818 1002.59C893.607 1002.28 892.407 1001.95 891.201 1001.63C888.784 1001 886.402 1000.31 884.008 999.628C883.407 999.46 882.813 999.284 882.22 999.105L880.439 998.572C879.254 998.213 878.058 997.868 876.882 997.496C874.527 996.752 872.158 996.025 869.825 995.248L866.316 994.093L862.829 992.909L861.085 992.315L859.354 991.707L855.892 990.49C851.299 988.841 846.724 987.168 842.208 985.446C837.675 983.735 833.202 981.981 828.74 980.226C824.297 978.462 819.866 976.69 815.486 974.913L789.53 964.354C785.257 962.623 781.024 960.934 776.802 959.261C772.594 957.611 768.396 955.968 764.237 954.406C760.069 952.821 755.938 951.318 751.819 949.842L748.74 948.766L747.202 948.227L745.67 947.708L742.607 946.67L739.557 945.671C737.522 944.994 735.503 944.375 733.483 943.74C732.471 943.415 731.468 943.129 730.462 942.826C729.457 942.529 728.45 942.219 727.448 941.932L724.447 941.083L722.948 940.66L721.455 940.263L718.472 939.468L715.505 938.728C713.524 938.216 711.563 937.795 709.597 937.332C709.105 937.213 708.617 937.114 708.128 937.01L706.663 936.701L705.197 936.392L704.465 936.236L703.737 936.096C701.796 935.733 699.849 935.334 697.926 935.031C696.961 934.871 695.996 934.697 695.035 934.546L692.162 934.128L690.726 933.916L689.299 933.743L686.449 933.392L683.616 933.111C682.672 933.019 681.728 932.914 680.794 932.86L677.985 932.653C677.516 932.612 677.052 932.593 676.588 932.573L675.194 932.509L673.802 932.442L673.106 932.409L672.415 932.395L669.65 932.342C668.723 932.307 667.826 932.341 666.92 932.353L664.21 932.391C663.308 932.384 662.403 932.456 661.499 932.5L658.791 932.64C657.889 932.667 656.986 932.772 656.084 932.851L653.38 933.092C652.479 933.152 651.579 933.292 650.679 933.403L647.981 933.744C640.793 934.749 633.65 936.286 626.597 938.334C618.292 940.747 610.113 943.868 602.137 947.657L592.279 816.99C597.046 815.699 601.841 814.563 606.66 813.589L606.655 813.602Z" opacity="0.05"/>
<path fill="white" d="M316.655 843.602C327.051 841.502 337.557 840.15 348.125 839.577L352.092 839.407C353.414 839.358 354.734 839.283 356.06 839.291L360.036 839.27C361.361 839.269 362.684 839.244 364.013 839.301L367.995 839.428C369.322 839.477 370.647 839.501 371.976 839.609L375.961 839.886C377.288 839.982 378.623 840.062 379.928 840.211L383.86 840.618L384.843 840.723L385.82 840.849L387.774 841.103L389.728 841.358C390.379 841.443 391.03 841.528 391.675 841.634L395.555 842.24C396.851 842.433 398.133 842.674 399.417 842.907L403.265 843.615L407.087 844.403L408.997 844.8L410.892 845.233L414.682 846.107C415.939 846.41 417.189 846.735 418.442 847.05C420.956 847.664 423.428 848.372 425.913 849.05L426.843 849.308L427.766 849.58L429.613 850.125L431.459 850.671C432.074 850.852 432.69 851.033 433.298 851.228C435.735 852.001 438.189 852.747 440.598 853.569L444.224 854.783L447.82 856.047L449.617 856.68L451.401 857.334L454.964 858.647C456.149 859.089 457.322 859.548 458.501 859.999C459.676 860.454 460.862 860.898 462.025 861.368C464.36 862.3 466.702 863.222 469.009 864.187L472.479 865.624L475.923 867.088L477.645 867.821L479.353 868.567L482.769 870.059C487.298 872.074 491.805 874.11 496.25 876.188C500.711 878.256 505.108 880.362 509.494 882.468C513.86 884.581 518.211 886.702 522.51 888.824L547.98 901.436C552.175 903.51 556.327 905.536 560.474 907.548C564.607 909.537 568.734 911.517 572.824 913.42C576.924 915.342 580.992 917.182 585.053 918.995L588.09 920.326L589.608 920.992L591.121 921.636L594.147 922.928L597.162 924.178C613.232 930.824 629.013 936.206 644.477 939.612C648.336 940.429 652.188 941.197 656.003 941.751L657.436 941.971L658.153 942.082L658.866 942.17L661.719 942.53L662.432 942.622L663.142 942.691L664.562 942.83L665.982 942.97C666.456 943.017 666.93 943.067 667.399 943.092C669.28 943.21 671.173 943.381 673.041 943.422L674.447 943.477C674.915 943.49 675.388 943.527 675.852 943.521L678.649 943.539C679.116 943.538 679.585 943.558 680.048 943.543L681.439 943.507L684.223 943.437L686.99 943.274L688.376 943.197L689.752 943.067L692.508 942.817L695.248 942.471L696.618 942.301C696.847 942.277 697.075 942.24 697.301 942.2L697.982 942.088L700.708 941.646C704.319 941.003 707.941 940.189 711.604 939.214C715.266 938.227 718.961 937.056 722.683 935.755C723.615 935.417 724.545 935.102 725.481 934.75L728.292 933.686C730.173 932.939 732.054 932.202 733.95 931.391C741.52 928.219 749.223 924.486 757.059 920.463C764.906 916.415 772.887 912.064 781.075 907.594L787.247 904.23L793.508 900.849C797.713 898.597 801.958 896.343 806.291 894.133C810.62 891.922 815.013 889.749 819.475 887.643L822.839 886.094C823.961 885.584 825.078 885.051 826.207 884.566L829.587 883.085L831.277 882.346L832.974 881.638C851.064 874.039 869.502 868.01 888.166 863.654C906.827 859.285 925.695 856.487 944.645 855.362C963.592 854.222 982.612 854.666 1001.57 856.792L1005.12 857.195C1006.3 857.339 1007.49 857.505 1008.67 857.659C1009.85 857.82 1011.04 857.966 1012.22 858.139L1015.77 858.678C1018.13 859.012 1020.48 859.463 1022.84 859.873L1026.36 860.5L1028.13 860.815C1028.72 860.913 1029.3 861.051 1029.88 861.166L1036.9 862.62L1038.65 862.986C1039.23 863.108 1039.81 863.255 1040.39 863.389L1043.87 864.209L1047.36 865.03L1049.1 865.44L1050.83 865.889L1057.74 867.699L1059.47 868.152L1061.19 868.642L1064.62 869.623L1068.05 870.603L1069.77 871.097L1071.47 871.62L1078.29 873.718C1078.86 873.894 1079.43 874.063 1079.99 874.246L1081.69 874.8L1085.07 875.909C1089.6 877.356 1094.07 878.934 1098.56 880.475C1099.68 880.855 1100.79 881.262 1101.91 881.662L1105.25 882.865C1107.48 883.669 1109.71 884.46 1111.92 885.297L1118.57 887.776C1120.78 888.606 1122.98 889.463 1125.18 890.306C1129.6 891.983 1133.97 893.725 1138.35 895.44C1147.09 898.907 1155.8 902.414 1164.44 905.92C1181.76 912.94 1198.89 919.869 1216.01 926.299L1222.42 928.658L1225.62 929.837L1228.83 930.971L1235.24 933.237L1241.64 935.398C1242.71 935.756 1243.78 936.126 1244.84 936.473L1248.05 937.494C1250.18 938.171 1252.32 938.867 1254.45 939.528L1260.86 941.439L1262.46 941.918C1262.99 942.077 1263.53 942.238 1264.06 942.382L1267.26 943.265C1275.81 945.696 1284.35 947.693 1292.91 949.513L1299.32 950.76L1300.92 951.073C1301.46 951.179 1301.99 951.252 1302.53 951.344L1305.73 951.868L1308.94 952.394L1310.54 952.657C1311.08 952.737 1311.61 952.797 1312.15 952.87L1318.56 953.706L1320.16 953.916L1321.76 954.067L1324.97 954.372L1328.17 954.679L1329.78 954.829L1331.38 954.924L1337.79 955.307L1338.6 955.355L1339.4 955.376L1341 955.416L1344.21 955.498L1347.43 955.581L1350.64 955.557L1353.85 955.532L1355.46 955.521L1356.26 955.515L1357.07 955.485L1363.49 955.226L1365.1 955.161L1366.71 955.048L1369.92 954.815L1373.13 954.584L1373.94 954.527C1374.21 954.505 1374.47 954.472 1374.74 954.447L1376.34 954.28L1382.77 953.617L1389.18 952.762L1390.79 952.548L1391.59 952.441C1391.86 952.405 1392.12 952.355 1392.39 952.314L1395.59 951.791L1398.79 951.267L1400.4 951.005C1400.93 950.91 1401.46 950.802 1401.99 950.701L1408.39 949.47C1409.45 949.278 1410.51 949.02 1411.58 948.792L1414.76 948.088L1417.95 947.383L1421.13 946.597C1432.86 943.751 1444.51 940.25 1456.08 936.227L1458.55 969.05C1448.34 973.382 1438 977.321 1427.53 980.773L1424.22 981.876L1420.9 982.897L1417.57 983.918C1416.46 984.253 1415.35 984.616 1414.24 984.912L1407.54 986.773L1405.86 987.233L1404.18 987.652L1400.81 988.488L1397.44 989.323C1397.15 989.391 1396.88 989.467 1396.59 989.529L1395.74 989.713L1394.05 990.083L1387.26 991.555L1380.44 992.829L1378.74 993.147C1378.45 993.198 1378.17 993.255 1377.88 993.303L1377.03 993.437L1373.6 993.968L1370.17 994.5L1368.45 994.762L1366.73 994.974L1359.83 995.819L1358.97 995.921L1358.1 995.999L1356.37 996.155L1352.91 996.464L1349.45 996.773L1345.97 996.968L1342.5 997.163L1340.76 997.259L1339.89 997.307L1339.02 997.327L1332.04 997.481L1330.3 997.518L1328.55 997.5L1325.06 997.453L1321.57 997.405L1319.82 997.38L1318.08 997.296L1311.1 996.957C1310.52 996.927 1309.94 996.906 1309.36 996.867L1307.62 996.727L1304.14 996.442L1300.65 996.157C1300.07 996.105 1299.49 996.072 1298.91 996.004L1297.18 995.809L1290.23 995.027C1280.99 993.824 1271.76 992.418 1262.61 990.578L1259.17 989.916C1258.6 989.811 1258.03 989.686 1257.46 989.563L1255.75 989.196L1248.9 987.723C1246.63 987.207 1244.36 986.66 1242.09 986.128L1238.68 985.326C1237.54 985.051 1236.42 984.757 1235.29 984.473L1228.5 982.752L1221.75 980.936L1218.37 980.025L1215.01 979.074L1208.28 977.168C1190.4 971.968 1172.7 966.321 1155.18 960.719C1146.41 957.912 1137.69 955.15 1128.99 952.439C1124.65 951.111 1120.3 949.751 1115.98 948.474C1113.81 947.831 1111.64 947.169 1109.48 946.542L1103.01 944.675C1100.84 944.039 1098.69 943.461 1096.54 942.865L1093.31 941.974C1092.23 941.678 1091.15 941.374 1090.08 941.102C1085.78 939.989 1081.48 938.832 1077.19 937.822L1073.98 937.039L1072.37 936.647C1071.84 936.518 1071.3 936.405 1070.77 936.284L1064.35 934.848L1062.75 934.488L1061.15 934.161L1057.95 933.513L1054.75 932.865L1053.15 932.54L1051.56 932.255L1045.18 931.114L1043.59 930.831L1042 930.588L1038.82 930.101L1035.64 929.614C1035.11 929.535 1034.58 929.444 1034.05 929.376L1032.47 929.179L1026.13 928.385C1025.6 928.324 1025.07 928.24 1024.55 928.196L1022.97 928.046L1019.81 927.746C1017.71 927.552 1015.61 927.316 1013.51 927.194L1010.37 926.973C1009.32 926.905 1008.27 926.863 1007.22 926.806C1006.17 926.756 1005.13 926.691 1004.08 926.652L1000.94 926.552C984.177 926.038 967.461 927.027 950.928 929.392C934.392 931.742 918.046 935.558 902.017 940.701C885.984 945.831 870.286 952.393 855.043 960.228L853.612 960.956L852.191 961.714L849.349 963.229C848.399 963.724 847.464 964.267 846.521 964.784L843.699 966.352C839.942 968.49 836.166 970.727 832.365 973.043C828.566 975.355 824.729 977.774 820.864 980.229L815.039 983.959L809.144 987.762C801.249 992.866 793.149 998.101 784.782 1003.24C776.395 1008.38 767.742 1013.44 758.676 1018.1C756.421 1019.27 754.117 1020.4 751.815 1021.52L748.325 1023.17C747.16 1023.72 745.972 1024.23 744.795 1024.76C740.063 1026.85 735.238 1028.83 730.299 1030.6C725.357 1032.36 720.307 1033.95 715.183 1035.31L711.342 1036.27L710.381 1036.51C710.061 1036.59 709.741 1036.67 709.419 1036.73L707.491 1037.15C706.204 1037.42 704.918 1037.7 703.631 1037.96L699.76 1038.65L697.824 1038.99L695.886 1039.27L692.006 1039.82C690.712 1039.98 689.42 1040.11 688.125 1040.25L686.183 1040.46C685.536 1040.53 684.89 1040.57 684.242 1040.63L680.361 1040.92C679.712 1040.98 679.068 1040.99 678.422 1041.03L676.484 1041.12C673.896 1041.26 671.322 1041.26 668.741 1041.31C668.094 1041.32 667.453 1041.31 666.81 1041.3L664.881 1041.28L662.952 1041.25L661.988 1041.23L661.027 1041.19L657.185 1041.02L656.224 1040.98L655.268 1040.92L653.355 1040.78C648.245 1040.45 643.187 1039.88 638.148 1039.23L634.383 1038.68C633.757 1038.58 633.126 1038.5 632.503 1038.4L630.632 1038.08L626.892 1037.45L623.176 1036.74L621.317 1036.39L619.472 1036L615.78 1035.22L612.114 1034.37L610.28 1033.95C609.67 1033.81 609.066 1033.65 608.459 1033.5L604.818 1032.59C603.607 1032.28 602.407 1031.95 601.201 1031.63C598.784 1031 596.402 1030.31 594.008 1029.63C593.407 1029.46 592.813 1029.28 592.22 1029.11L590.439 1028.57C589.254 1028.21 588.058 1027.87 586.882 1027.5C584.527 1026.75 582.158 1026.03 579.825 1025.25L576.316 1024.09L572.829 1022.91L571.085 1022.31L569.354 1021.71L565.892 1020.49C561.299 1018.84 556.724 1017.17 552.208 1015.45C547.675 1013.74 543.202 1011.98 538.74 1010.23C534.297 1008.46 529.866 1006.69 525.486 1004.91L499.53 994.354C495.257 992.623 491.024 990.934 486.802 989.261C482.594 987.611 478.396 985.968 474.237 984.406C470.069 982.821 465.938 981.318 461.819 979.842L458.74 978.766L457.202 978.227L455.67 977.708L452.607 976.67L449.557 975.671C447.522 974.994 445.503 974.375 443.483 973.74C442.471 973.415 441.468 973.129 440.462 972.826C439.457 972.529 438.45 972.219 437.448 971.932L434.447 971.083L432.948 970.66L431.455 970.263L428.472 969.468L425.505 968.728C423.524 968.216 421.563 967.795 419.597 967.332C419.105 967.213 418.617 967.114 418.128 967.01L416.663 966.701L415.197 966.392L414.465 966.236L413.737 966.096C411.796 965.733 409.849 965.334 407.926 965.031C406.961 964.871 405.996 964.697 405.035 964.546L402.162 964.128L400.726 963.916L399.299 963.743L396.449 963.392L393.616 963.111C392.672 963.019 391.728 962.914 390.794 962.86L387.985 962.653C387.516 962.612 387.052 962.593 386.588 962.573L385.194 962.509L383.802 962.442L383.106 962.409L382.415 962.395L379.65 962.342C378.723 962.307 377.826 962.341 376.92 962.353L374.21 962.391C373.308 962.384 372.403 962.456 371.499 962.5L368.791 962.64C367.889 962.667 366.986 962.772 366.084 962.851L363.38 963.092C362.479 963.152 361.579 963.292 360.679 963.403L357.981 963.744C350.793 964.749 343.65 966.286 336.597 968.334C328.292 970.747 320.113 973.868 312.137 977.657L302.279 846.99C307.046 845.699 311.841 844.563 316.66 843.589L316.655 843.602Z" opacity="0.05"/>
</g>
<path fill="#0B2F65" d="M989.2 516.056C989.2 516.056 1015.77 534.324 1037.92 533.629C1063.71 532.819 1027.58 525.88 1029.76 503.315L989.2 516.056Z" clip-rule="evenodd" fill-rule="evenodd"/>
<path fill="#0B2F65" d="M914.789 538.095C914.789 538.095 911.082 529.344 933.222 514.552C933.222 514.552 917.085 460.974 990.136 440.445C1004.33 436.458 1017.75 435.137 1032.39 433.487C1032.77 433.444 1052.13 422.667 1058.58 420.685C1081.33 413.684 1110.24 412.464 1119.3 426.682C1123.79 433.736 1093.1 429.292 1100.75 453.64C1106.9 459.472 1125.22 471.692 1132.16 479.137C1165.38 514.78 1174.19 552.046 1177.86 588.164C1178.74 596.799 1170.28 589.599 1169.59 588.3C1143.81 539.901 1086.05 495.97 978.369 524.337C947.977 532.344 919.492 546.922 914.789 538.095Z" clip-rule="evenodd" fill-rule="evenodd"/>
<path fill="white" d="M1162.12 575.826C1159.1 571.303 1155.77 566.877 1152.11 562.605C1121 526.25 1066.34 501.159 978.364 524.337C948.548 532.192 920.572 546.369 915.082 538.568C925.365 533.362 935.475 528.369 945.676 523.851C948.949 522.401 957.008 517.533 960.477 513.034C966.561 505.146 969.562 503.754 978.427 500.415C1011.7 487.884 1058.01 488.219 1098.29 506.017C1121.73 516.374 1142.34 533.945 1153.8 554.193C1157.74 561.149 1160.59 568.422 1162.12 575.826Z" clip-rule="evenodd" fill-rule="evenodd"/>
<path fill="#C7C8C8" d="M1058.24 516.096C1050.8 515.439 1042.97 515.236 1034.75 515.531C1027.42 508.971 1023.04 500.919 1020.5 491.982C1021.57 491.924 1022.64 491.877 1023.72 491.839L1058.24 516.096Z" clip-rule="evenodd" fill-rule="evenodd"/>
<path fill="#C7C8C8" d="M1161.19 574.464C1159.04 571.326 1156.74 568.236 1154.28 565.214C1137.85 539.188 1111.29 523.625 1080.99 516.199C1050.14 508.64 1015.42 509.504 983.525 516.343C959.626 521.468 937.323 529.946 919.435 540.745C918.74 540.664 918.105 540.527 917.537 540.327C917.588 540.147 917.706 539.983 917.879 539.877C936.039 528.772 958.801 520.059 983.203 514.827C1015.31 507.942 1050.27 507.076 1081.35 514.693C1112.5 522.328 1139.76 538.481 1156.36 565.625C1158.09 568.453 1159.7 571.4 1161.19 574.464Z" clip-rule="evenodd" fill-rule="evenodd"/>
<path fill="#C7C8C8" d="M1162.12 575.827C1161.69 575.19 1161.26 574.558 1160.83 573.928C1156.97 565.059 1151.97 557.032 1146.18 549.861C1134.95 535.953 1120.75 525.244 1106.26 517.791C1080.18 504.38 1049.38 500.424 1018.87 503.153C996.37 505.168 974.03 510.819 953.846 518.999C955.284 517.975 956.7 516.864 957.942 515.729C977.014 508.487 997.805 503.486 1018.74 501.613C1049.52 498.858 1080.61 502.86 1106.97 516.415C1121.64 523.958 1136.01 534.8 1147.39 548.89C1152.4 555.101 1156.84 561.942 1160.46 569.41C1161.12 571.533 1161.68 573.674 1162.12 575.827Z" clip-rule="evenodd" fill-rule="evenodd"/>
<path fill="#0B2F65" d="M1136.45 644.68C1145.52 642.794 1171.77 634.482 1174.12 593.16C1174.19 591.931 1185.54 636.134 1235.48 639.062C1235.48 639.062 1230.88 593.868 1179.88 582.511C1175.13 581.454 1169.23 556.424 1166.6 554.694C1146.49 541.464 1171.22 569.444 1163.27 583.584C1161.48 586.778 1137.11 589.418 1136.45 644.68Z" clip-rule="evenodd" fill-rule="evenodd"/>
<path fill="#0B2F65" d="M1026.82 500.962C1036.07 514.234 1055.53 526.827 1075.11 529.677C1089.96 531.84 1087.1 527.783 1078.89 520.752C1065.17 509.003 1068.18 483.151 1067.02 482.269C1059.17 476.302 1040.43 480.002 1029.39 480.932C1010.91 482.493 1016.9 486.719 1026.82 500.962Z" clip-rule="evenodd" fill-rule="evenodd"/>
<path fill="white" d="M969.074 486.95C969.049 487.378 968.683 487.703 968.254 487.679C967.828 487.654 967.502 487.287 967.527 486.86C967.668 484.456 968.439 482.757 969.519 481.695C970.266 480.958 971.159 480.528 972.1 480.381C973.025 480.236 973.992 480.368 974.902 480.754C976.346 481.365 977.657 482.618 978.434 484.406C978.605 484.797 978.426 485.253 978.034 485.425C977.642 485.597 977.185 485.417 977.016 485.026C976.403 483.618 975.399 482.644 974.303 482.178C973.657 481.904 972.978 481.809 972.338 481.91C971.715 482.009 971.115 482.299 970.607 482.8C969.781 483.608 969.19 484.966 969.074 486.95Z" clip-rule="evenodd" fill-rule="evenodd"/>
<path fill="#253758" d="M916.514 538.621C916.141 538.832 915.67 538.702 915.458 538.331C915.247 537.96 915.378 537.487 915.749 537.274C922.088 533.68 928.374 530.903 934.25 528.309C949.587 521.532 962.096 516.008 964.671 500.569C964.742 500.146 965.142 499.862 965.562 499.931C965.984 500.003 966.27 500.402 966.2 500.824C963.486 517.086 950.633 522.765 934.874 529.728C929.023 532.313 922.764 535.079 916.514 538.621Z" clip-rule="evenodd" fill-rule="evenodd"/>
<path fill="#466A9E" d="M1137.43 628.587C1138.54 625.108 1139.66 622.141 1140.85 619.478C1143.79 612.884 1147.1 608.188 1151.63 602.336C1160.63 590.706 1169.73 581.658 1169.76 581.629C1170.05 581.318 1170.53 581.301 1170.85 581.592C1171.04 581.777 1171.12 582.041 1171.08 582.288L1171.08 582.289C1168.55 596.615 1164.65 608.559 1158.85 619.977C1154.56 628.409 1149.43 635.985 1143.49 642.614C1142.4 643.029 1141.37 643.377 1140.4 643.669C1147.07 636.661 1152.79 628.489 1157.46 619.279C1162.84 608.705 1166.63 597.417 1169.17 584.283C1166.02 587.763 1159.44 594.768 1152.85 603.283C1148.39 609.047 1145.13 613.664 1142.26 620.11C1140.33 624.44 1138.57 629.608 1136.74 636.509C1136.91 633.716 1137.14 631.074 1137.43 628.587Z" clip-rule="evenodd" fill-rule="evenodd"/>
<path fill="#466A9E" d="M1170.34 582.425C1170.22 582.016 1170.05 581.585 1170.46 581.467C1184.17 585.903 1204.19 601.099 1208.78 605.165C1218.04 613.376 1226.41 623.237 1234.92 635.761C1235.35 637.839 1235.48 639.059 1235.48 639.059C1235.41 639.055 1235.34 639.048 1235.26 639.044C1226.26 625.468 1217.5 614.96 1207.75 606.325C1197.59 597.315 1186.35 590.328 1172.62 583.997C1175.19 589.423 1182.38 598.917 1190.91 608.041C1198.99 616.676 1208.26 624.944 1215.94 629.079C1224.92 633.918 1230.71 637.067 1234.17 638.965C1232.84 638.864 1231.52 638.738 1230.24 638.58C1226.76 636.682 1221.87 634.035 1215.2 630.447C1207.37 626.229 1197.97 617.844 1189.79 609.098C1179.92 598.556 1171.81 587.436 1170.34 582.425Z" clip-rule="evenodd" fill-rule="evenodd"/>
<path fill="#466A9E" d="M1168.86 560.188C1160.86 529.457 1148.4 500.861 1101.96 466.735C1101.36 465.162 1100.43 460.255 1102.01 460.636C1104.97 461.348 1109.81 465.711 1114.9 468.972C1140.28 485.207 1166.91 529.565 1168.86 560.188Z" clip-rule="evenodd" fill-rule="evenodd"/>
<path fill="#466A9E" d="M1054.86 425.428C1064.94 420.885 1090.04 413.857 1105.25 421.798C1090.73 419.495 1073.52 422.421 1056.94 429.939C1052.43 432.157 1047.82 436.604 1045.92 434.134C1042.1 430.899 1052.99 426.371 1054.86 425.428Z" clip-rule="evenodd" fill-rule="evenodd"/>
<path fill="#466A9E" d="M1007.33 518.222C1009.84 520.816 1013.57 523.027 1017.63 524.842C1026.06 528.605 1035.84 530.626 1039.3 530.855C1033.48 528.636 1024.17 524.188 1018.08 516.772C1018.7 516.704 1019.32 516.64 1019.94 516.576C1028.99 526.871 1044.43 530.964 1044.99 531.11C1045.34 531.192 1045.6 531.516 1045.58 531.892C1045.57 532.32 1045.21 532.652 1044.78 532.637L1039.52 532.416C1036.23 532.279 1025.86 530.207 1017 526.253C1012.39 524.194 1008.17 521.613 1005.51 518.509C1006.12 518.412 1006.72 518.319 1007.33 518.222Z" clip-rule="evenodd" fill-rule="evenodd"/>
<path fill="#466A9E" d="M1034.62 478.264C1034.7 477.842 1035.1 477.558 1035.52 477.631C1035.94 477.702 1036.22 478.103 1036.15 478.524C1034.49 488.071 1037.2 496.442 1041.75 503.299C1048.36 513.273 1058.84 520.045 1065.47 522.594C1076.76 526.938 1081.04 527.366 1081.05 527.366C1081.48 527.412 1081.78 527.796 1081.74 528.222C1081.69 528.647 1081.31 528.954 1080.88 528.907C1080.87 528.907 1076.41 528.459 1064.91 524.038C1058.07 521.407 1047.27 514.425 1040.46 504.152C1035.71 497 1032.88 488.254 1034.62 478.264Z" clip-rule="evenodd" fill-rule="evenodd"/>
<path fill="#466A9E" d="M1040.54 484.022C1040.46 483.6 1040.73 483.194 1041.16 483.111C1041.58 483.029 1041.98 483.303 1042.07 483.724C1043.81 492.611 1048.78 500.577 1055.22 507.407C1063.44 516.124 1074.06 522.987 1083.5 527.549C1083.88 527.734 1084.04 528.197 1083.86 528.584C1083.67 528.969 1083.21 529.13 1082.82 528.945C1073.25 524.312 1062.46 517.341 1054.09 508.468C1047.46 501.443 1042.35 493.224 1040.54 484.022Z" clip-rule="evenodd" fill-rule="evenodd"/>
<path fill="white" d="M978.324 479.984C978.188 479.735 978.28 479.419 978.531 479.283C978.78 479.146 979.094 479.237 979.232 479.487C979.595 480.149 979.692 480.765 979.601 481.3C979.521 481.77 979.297 482.169 978.978 482.476C978.669 482.774 978.271 482.982 977.83 483.079C977.24 483.21 976.571 483.141 975.946 482.825C975.692 482.695 975.591 482.383 975.721 482.129C975.85 481.875 976.162 481.772 976.417 481.902C976.82 482.107 977.242 482.152 977.608 482.071C977.862 482.017 978.09 481.897 978.262 481.73C978.426 481.574 978.54 481.368 978.582 481.127C978.634 480.81 978.565 480.422 978.324 479.984Z" clip-rule="evenodd" fill-rule="evenodd"/>
<path fill="white" d="M980.576 482.599C980.631 482.319 980.901 482.135 981.181 482.189C981.462 482.241 981.645 482.513 981.593 482.793C981.476 483.394 981.184 483.843 980.789 484.149C980.392 484.456 979.899 484.613 979.381 484.635C978.891 484.655 978.375 484.55 977.913 484.336C977.275 484.04 976.723 483.536 976.437 482.858C976.327 482.595 976.45 482.293 976.711 482.182C976.975 482.071 977.277 482.195 977.387 482.456C977.565 482.881 977.925 483.203 978.345 483.398C978.664 483.544 979.013 483.617 979.342 483.603C979.647 483.592 979.933 483.502 980.154 483.332C980.359 483.173 980.514 482.93 980.576 482.599Z" clip-rule="evenodd" fill-rule="evenodd"/>
<path fill="#466A9E" d="M937.64 483.371C939.344 478.726 941.259 475.098 944.024 470.993C949.593 463.234 955.644 457.422 964.2 453.083C964.977 452.699 965.635 452.232 966.38 451.806C966.713 451.62 968.547 450.733 968.794 451.37C968.78 451.49 967.413 452.669 967.214 452.873C966.547 453.585 966.024 454.155 965.233 454.753C957.803 460.474 952.974 465.541 947.879 473.494C945.537 477.357 943.863 480.799 942.32 485.039C940.802 489.686 940.466 497.301 937.403 496.576C932.625 496.844 936.988 485.443 937.64 483.371Z" clip-rule="evenodd" fill-rule="evenodd"/>
<path fill="#5595D1" d="M976.109 636.05C947.215 645.137 936.534 632.323 918.379 621.812C900.113 611.235 897.071 627.566 905.714 633.024C914.357 638.482 907.759 647.027 887.708 636.095C876.902 630.205 874.11 629.289 870.352 633.076C864.094 639.381 870.97 646.418 883.347 650.497C905.749 657.878 950.36 650.949 976.109 636.05Z" clip-rule="evenodd" fill-rule="evenodd"/>
<path fill="#5595D1" d="M1226.35 480.64C1256.48 477.476 1261.18 461.47 1273.65 444.601C1286.19 427.629 1295.48 441.4 1289.73 449.847C1283.97 458.293 1293.42 463.506 1307.47 445.498C1315.04 435.793 1317.23 433.842 1322.19 435.821C1330.44 439.114 1326.93 448.307 1317.2 456.974C1299.59 472.661 1255.9 484.06 1226.35 480.64Z" clip-rule="evenodd" fill-rule="evenodd"/>
<path fill="#7DBFEE" d="M917.093 622.934C922.742 625.847 924.072 628.512 938.275 635.746C938.206 635.732 926.19 632.734 915.251 626.715C912.111 625.218 908.115 624.569 909.202 622.092C909.946 618.876 914.484 621.739 917.093 622.934Z" clip-rule="evenodd" fill-rule="evenodd"/>
<path fill="#7DBFEE" d="M1275.02 449.511C1270.91 454.351 1270.69 457.322 1260.3 469.411C1260.36 469.371 1270.33 462.032 1278.16 452.308C1280.5 449.73 1283.95 447.612 1282 445.733C1280.09 443.042 1276.98 447.414 1275.02 449.511Z" clip-rule="evenodd" fill-rule="evenodd"/>
<path fill="#5A9DD8" d="M924.713 619.316C913.614 611.987 910.708 611.867 903.357 608.531C894.484 604.504 900.416 594.218 909.106 598.603C919.981 604.088 924.713 619.316 924.713 619.316Z" clip-rule="evenodd" fill-rule="evenodd"/>
<path fill="#8CC3EB" d="M909.915 600.385C912.688 601.923 918.218 606.734 921.227 612.866C915.308 606.019 911.265 604.497 908.504 602.983C906.337 601.839 904.698 601.763 905.337 600.096C905.84 597.913 908.101 599.469 909.915 600.385Z" clip-rule="evenodd" fill-rule="evenodd"/>
<path fill="#5A9DD8" d="M1269.31 405.329C1281.29 378.287 1296.36 363.908 1300.81 372.466C1305.26 381.025 1269.31 405.329 1269.31 405.329Z" clip-rule="evenodd" fill-rule="evenodd"/>
<path fill="#8CC3EB" d="M1291.48 374.434C1289 376.38 1284.33 381.969 1282.34 388.461C1287.07 380.81 1290.8 378.681 1293.27 376.761C1295.22 375.296 1296.82 374.965 1295.93 373.431C1295.09 371.368 1293.12 373.248 1291.48 374.434Z" clip-rule="evenodd" fill-rule="evenodd"/>
</g>
<defs>
<linearGradient gradientUnits="userSpaceOnUse" y2="1237.5" x2="360" y1="0" x1="360" id="paint0_linear_6_43">
<stop stop-color="#065AD8"/>
<stop stop-color="#033072" offset="1"/>
</linearGradient>
<clipPath id="clip0_6_43">
<rect fill="white" height="1024" width="1440"/>
</clipPath>
<clipPath id="clip1_6_43">
<rect transform="translate(721)" fill="white" height="1024" width="720"/>
</clipPath>
</defs>
</svg>