<svg width="345" height="246" viewBox="0 0 345 246" fill="none" xmlns="http://www.w3.org/2000/svg">
<path fill-rule="evenodd" clip-rule="evenodd" d="M80.166 107.861C80.166 107.861 108.704 127.481 132.487 126.735C160.183 125.864 121.389 118.412 123.727 94.1772L80.166 107.861Z" fill="#28508B"/>
<path fill-rule="evenodd" clip-rule="evenodd" d="M0.2506 131.531C0.2506 131.531 -3.73103 122.132 20.0475 106.247C20.0475 106.247 2.7164 48.7049 81.1715 26.6573C96.4106 22.3748 110.824 20.9563 126.547 19.1844C126.964 19.1383 147.756 7.56463 154.68 5.43553C179.114 -2.0835 210.165 -3.39322 219.89 11.8766C224.714 19.452 191.754 14.6791 199.965 40.8287C206.578 47.0918 226.251 60.2158 233.703 68.2111C269.382 106.491 278.838 146.514 282.779 185.304C283.722 194.578 274.641 186.845 273.896 185.449C246.213 133.47 184.176 86.2898 68.534 116.755C35.8934 125.355 5.30127 141.011 0.2506 131.531Z" fill="#28508B"/>
<path fill-rule="evenodd" clip-rule="evenodd" d="M265.878 172.054C262.632 167.197 259.056 162.443 255.13 157.856C221.715 118.811 163.021 91.8642 68.5314 116.757C36.5093 125.192 6.46386 140.419 0.568207 132.04C11.6118 126.449 22.4698 121.086 33.4251 116.234C36.9407 114.677 45.5954 109.449 49.321 104.617C55.8555 96.1454 59.0779 94.6513 68.5993 91.0653C104.338 77.6071 154.074 77.9668 197.327 97.0813C222.501 108.204 244.635 127.076 256.944 148.821C261.173 156.291 264.243 164.102 265.878 172.054Z" fill="white"/>
<path fill-rule="evenodd" clip-rule="evenodd" d="M154.319 107.905C146.321 107.199 137.911 106.981 129.081 107.298C121.209 100.252 116.505 91.6054 113.783 82.0072C114.932 81.9444 116.084 81.8945 117.24 81.8535L154.319 107.905Z" fill="#C7C8C8"/>
<path fill-rule="evenodd" clip-rule="evenodd" d="M264.884 170.592C262.574 167.221 260.103 163.903 257.462 160.657C239.816 132.706 211.292 115.992 178.744 108.016C145.617 99.898 108.328 100.826 74.0707 108.171C48.4038 113.675 24.4511 122.78 5.23934 134.378C4.49294 134.291 3.81186 134.144 3.20117 133.929C3.25622 133.736 3.38295 133.56 3.56859 133.446C23.0723 121.519 47.5178 112.162 73.725 106.543C108.205 99.149 145.756 98.2183 179.135 106.399C212.591 114.599 241.864 131.947 259.695 161.099C261.551 164.136 263.283 167.3 264.884 170.592Z" fill="#C7C8C8"/>
<path fill-rule="evenodd" clip-rule="evenodd" d="M265.876 172.054C265.419 171.37 264.957 170.692 264.488 170.014C260.352 160.489 254.979 151.869 248.76 144.167C236.698 129.23 221.452 117.729 205.886 109.725C177.873 95.322 144.8 91.0728 112.031 94.0046C87.8672 96.1683 63.8748 102.237 42.1973 111.022C43.7413 109.922 45.2622 108.729 46.5963 107.51C67.0794 99.7326 89.4086 94.3618 111.888 92.3505C144.947 89.3918 178.335 93.6897 206.648 108.248C222.403 116.348 237.838 127.992 250.057 143.125C255.443 149.795 260.203 157.143 264.092 165.162C264.801 167.442 265.401 169.742 265.876 172.054Z" fill="#C7C8C8"/>
<path fill-rule="evenodd" clip-rule="evenodd" d="M238.309 246C248.049 243.974 276.241 235.047 278.768 190.669C278.843 189.349 291.034 236.822 344.668 239.966C344.668 239.966 339.723 191.429 284.946 179.232C279.848 178.097 273.516 151.215 270.692 149.357C249.095 135.149 275.65 165.198 267.112 180.385C265.185 183.814 239.018 186.65 238.309 246Z" fill="#28508B"/>
<path fill-rule="evenodd" clip-rule="evenodd" d="M120.573 91.6515C130.505 105.905 151.4 119.43 172.429 122.491C188.383 124.813 185.305 120.456 176.489 112.905C161.762 100.287 164.988 72.523 163.743 71.5756C155.308 65.1665 135.184 69.1405 123.333 70.1391C103.483 71.8163 109.912 76.3548 120.573 91.6515Z" fill="#28508B"/>
<path fill-rule="evenodd" clip-rule="evenodd" d="M58.5538 76.6029C58.5269 77.0625 58.1339 77.412 57.673 77.3864C57.216 77.3596 56.8652 76.9652 56.8921 76.5069C57.0431 73.9246 57.8715 72.1002 59.0314 70.9595C59.8341 70.1683 60.7931 69.7061 61.8032 69.5486C62.7967 69.3924 63.835 69.5345 64.8131 69.9494C66.3635 70.6048 67.7718 71.9504 68.6066 73.8708C68.7896 74.2907 68.5976 74.7811 68.1764 74.9655C67.7552 75.1498 67.2648 74.9565 67.083 74.5366C66.425 73.0246 65.347 71.9786 64.1691 71.478C63.4752 71.1835 62.7467 71.0824 62.0592 71.1899C61.3896 71.2962 60.7457 71.6086 60.2003 72.1463C59.313 73.0143 58.678 74.4725 58.5538 76.6029Z" fill="white"/>
<path fill-rule="evenodd" clip-rule="evenodd" d="M2.10002 132.098C1.6993 132.325 1.19361 132.185 0.965717 131.786C0.739109 131.388 0.879924 130.88 1.27809 130.652C8.08658 126.792 14.8375 123.809 21.1479 121.023C37.6199 113.744 51.0538 107.812 53.8192 91.2308C53.896 90.7763 54.3249 90.4716 54.7768 90.5458C55.2301 90.6226 55.5373 91.0515 55.4618 91.5047C52.5466 108.97 38.7427 115.069 21.8188 122.547C15.5339 125.323 8.81249 128.293 2.10002 132.098Z" fill="#253758"/>
<path fill-rule="evenodd" clip-rule="evenodd" d="M239.364 228.717C240.56 224.982 241.764 221.795 243.039 218.935C246.192 211.854 249.751 206.809 254.612 200.525C264.275 188.034 274.052 178.317 274.08 178.286C274.393 177.952 274.917 177.934 275.252 178.247C275.464 178.445 275.549 178.729 275.503 178.994L275.506 178.995C272.791 194.381 268.598 207.209 262.367 219.471C257.766 228.527 252.248 236.663 245.869 243.782C244.702 244.228 243.59 244.602 242.556 244.915C249.72 237.389 255.857 228.612 260.881 218.721C266.651 207.365 270.726 195.242 273.455 181.136C270.064 184.874 263.001 192.397 255.927 201.542C251.139 207.732 247.636 212.691 244.554 219.613C242.483 224.265 240.592 229.815 238.619 237.226C238.802 234.226 239.051 231.389 239.364 228.717Z" fill="#466A9E"/>
<path fill-rule="evenodd" clip-rule="evenodd" d="M274.712 179.142C274.584 178.703 274.397 178.241 274.837 178.114C289.559 182.878 311.066 199.197 315.993 203.564C325.938 212.383 334.928 222.973 344.072 236.424C344.534 238.655 344.67 239.966 344.67 239.966C344.59 239.961 344.513 239.953 344.434 239.95C334.761 225.37 325.354 214.084 314.892 204.81C303.979 195.134 291.899 187.63 277.158 180.83C279.918 186.658 287.637 196.854 296.805 206.654C305.479 215.927 315.431 224.807 323.678 229.248C333.328 234.444 339.543 237.827 343.265 239.865C341.83 239.756 340.418 239.621 339.041 239.452C335.298 237.413 330.05 234.57 322.891 230.716C314.481 226.187 304.379 217.181 295.594 207.788C285.002 196.466 276.285 184.524 274.712 179.142Z" fill="#466A9E"/>
<path fill-rule="evenodd" clip-rule="evenodd" d="M273.117 155.257C264.524 122.252 251.145 91.5412 201.272 54.8909C200.631 53.2009 199.624 47.9313 201.326 48.341C204.507 49.1053 209.696 53.7911 215.169 57.2926C242.42 74.7287 271.021 122.369 273.117 155.257Z" fill="#466A9E"/>
<path fill-rule="evenodd" clip-rule="evenodd" d="M150.689 10.5296C161.506 5.65049 188.466 -1.89671 204.797 6.63118C189.204 4.15769 170.725 7.30076 152.923 15.3742C148.072 17.7567 143.121 22.5322 141.08 19.8794C136.979 16.4061 148.676 11.5423 150.689 10.5296Z" fill="#466A9E"/>
<path fill-rule="evenodd" clip-rule="evenodd" d="M99.6392 110.187C102.33 112.973 106.339 115.348 110.703 117.296C119.757 121.338 130.257 123.508 133.976 123.754C127.726 121.371 117.72 116.595 111.177 108.63C111.848 108.557 112.514 108.488 113.181 108.419C122.895 119.475 139.484 123.872 140.082 124.028C140.461 124.116 140.737 124.465 140.72 124.868C140.701 125.328 140.316 125.685 139.856 125.668L134.209 125.431C130.673 125.284 119.535 123.059 110.027 118.812C105.074 116.601 100.538 113.829 97.6777 110.496C98.3332 110.391 98.9849 110.291 99.6392 110.187Z" fill="#466A9E"/>
<path fill-rule="evenodd" clip-rule="evenodd" d="M128.947 67.275C129.024 66.8218 129.454 66.5171 129.907 66.5952C130.36 66.672 130.665 67.1022 130.588 67.5541C128.8 77.8078 131.712 86.7979 136.597 94.162C143.702 104.874 154.951 112.147 162.069 114.885C174.198 119.55 178.796 120.009 178.808 120.009C179.266 120.059 179.596 120.472 179.545 120.929C179.495 121.386 179.084 121.715 178.627 121.665C178.611 121.665 173.823 121.183 161.476 116.435C154.13 113.609 142.527 106.111 135.209 95.0787C130.112 87.3971 127.077 78.0037 128.947 67.275Z" fill="#466A9E"/>
<path fill-rule="evenodd" clip-rule="evenodd" d="M135.304 73.4586C135.217 73.0054 135.51 72.5688 135.962 72.4805C136.414 72.3922 136.851 72.6866 136.94 73.1386C138.816 82.683 144.15 91.2378 151.066 98.5737C159.897 107.935 171.306 115.306 181.435 120.205C181.849 120.404 182.021 120.902 181.823 121.316C181.623 121.73 181.125 121.903 180.713 121.704C170.43 116.729 158.842 109.242 149.856 99.7132C142.738 92.1685 137.247 83.3411 135.304 73.4586Z" fill="#466A9E"/>
<path fill-rule="evenodd" clip-rule="evenodd" d="M68.4839 69.1217C68.338 68.8541 68.4366 68.5149 68.7054 68.3689C68.973 68.2217 69.311 68.319 69.4582 68.5878C69.8487 69.2984 69.9524 69.9603 69.8551 70.5351C69.7693 71.0396 69.5286 71.4684 69.1855 71.7975C68.8539 72.1175 68.4263 72.3416 67.9526 72.4453C67.3189 72.5861 66.6006 72.5119 65.9298 72.1726C65.6571 72.033 65.5482 71.6976 65.6878 71.4249C65.826 71.1522 66.1615 71.0421 66.4355 71.1817C66.8682 71.4019 67.3214 71.4505 67.7145 71.3635C67.9872 71.3046 68.2317 71.1765 68.4173 70.9973C68.5927 70.8296 68.7156 70.6081 68.7605 70.3495C68.8168 70.0089 68.7425 69.5916 68.4839 69.1217Z" fill="white"/>
<path fill-rule="evenodd" clip-rule="evenodd" d="M70.9023 71.9287C70.9611 71.6279 71.2518 71.4307 71.5526 71.4883C71.8535 71.5447 72.0507 71.8366 71.9944 72.1374C71.8689 72.7827 71.5552 73.2654 71.1314 73.5931C70.7051 73.9234 70.175 74.0924 69.6194 74.1155C69.0932 74.1372 68.5389 74.0246 68.0422 73.7941C67.3572 73.4766 66.7644 72.9351 66.4572 72.2066C66.3394 71.9249 66.4713 71.5997 66.7516 71.4807C67.0346 71.3616 67.3598 71.4947 67.4775 71.7751C67.6683 72.2322 68.055 72.5778 68.5069 72.7865C68.8487 72.944 69.2239 73.0221 69.5772 73.0067C69.905 72.9952 70.2122 72.8992 70.449 72.7161C70.6692 72.5458 70.8357 72.2847 70.9023 71.9287Z" fill="white"/>
<path fill-rule="evenodd" clip-rule="evenodd" d="M24.791 72.7601C26.6205 67.7708 28.6779 63.875 31.6469 59.4657C37.6283 51.1324 44.127 44.8911 53.3155 40.2309C54.1502 39.8187 54.8569 39.3168 55.6571 38.8597C56.0143 38.66 57.9846 37.7075 58.2496 38.3912C58.2343 38.5205 56.7658 39.7866 56.552 40.0056C55.8363 40.7699 55.2743 41.3819 54.4255 42.0246C46.4455 48.1686 41.2592 53.611 35.7873 62.1517C33.2715 66.3011 31.474 69.9972 29.8174 74.5512C28.1863 79.5417 27.8253 87.7201 24.5362 86.9417C19.4049 87.2297 24.0907 74.9852 24.791 72.7601Z" fill="#466A9E"/>
</svg>
