<svg width="131" height="128" viewBox="0 0 131 128" fill="none" xmlns="http://www.w3.org/2000/svg">
<path d="M96.3745 59.3491C96.3133 59.3491 96.2525 59.3232 96.2095 59.2735C96.1306 59.1825 96.1406 59.0445 96.2316 58.9656L131.757 28.244C131.848 28.1645 131.986 28.1749 132.065 28.266C132.144 28.3571 132.134 28.495 132.043 28.5738L96.5173 59.2956C96.476 59.3315 96.4252 59.3491 96.3745 59.3491Z" fill="#FFBB00"/>
<path d="M158.62 85.3586C158.61 85.3586 158.6 85.358 158.591 85.3564L156.426 85.0618C156.307 85.0457 156.223 84.9354 156.239 84.8162C156.256 84.6964 156.37 84.612 156.485 84.6291L158.649 84.9238C158.769 84.9397 158.853 85.0501 158.836 85.1693C158.821 85.2791 158.727 85.3586 158.62 85.3586ZM126.154 80.9437C126.145 80.9437 126.135 80.9432 126.125 80.9415L108.81 78.5871C108.691 78.5711 108.607 78.4607 108.623 78.3415C108.639 78.2223 108.743 78.1334 108.869 78.1545L126.184 80.509C126.303 80.5249 126.387 80.6353 126.371 80.7545C126.356 80.8643 126.262 80.9437 126.154 80.9437Z" fill="#0066DB"/>
<path d="M4.16957 95.8063C4.07403 95.8063 3.98642 95.7428 3.95933 95.6468C3.92677 95.5303 3.99463 95.41 4.1105 95.3775L65.7349 78.1619C65.8519 78.1282 65.9716 78.1972 66.0041 78.313C66.0367 78.4295 65.9688 78.5498 65.853 78.5823L4.22863 95.7981C4.20878 95.8035 4.18893 95.8063 4.16957 95.8063Z" fill="#00A873"/>
<path d="M66.623 60.1768C66.5751 60.1768 66.5276 60.1613 66.4873 60.1294L25.0025 27.1784C24.9082 27.1034 24.8922 26.9659 24.9672 26.8717C25.0428 26.7767 25.1808 26.7618 25.2741 26.8364L66.7589 59.7872C66.8531 59.8622 66.8692 59.9996 66.7941 60.094C66.7511 60.1486 66.6871 60.1768 66.623 60.1768Z" fill="#0066DB"/>
<path d="M63.8699 120.643C63.8412 120.643 63.812 120.637 63.7838 120.625C63.6729 120.577 63.6216 120.448 63.669 120.338L64.489 118.433C64.537 118.321 64.6644 118.27 64.7759 118.318C64.8868 118.366 64.9381 118.495 64.8906 118.605L64.0706 120.51C64.0348 120.593 63.9543 120.643 63.8699 120.643ZM68.1435 110.712C68.1148 110.712 68.0855 110.706 68.0574 110.694C67.9465 110.646 67.8952 110.517 67.9426 110.407L74.8498 94.3556C74.8978 94.2447 75.0258 94.1923 75.1367 94.2408C75.2476 94.2888 75.299 94.4174 75.2515 94.5277L68.3442 110.579C68.3084 110.662 68.2279 110.712 68.1435 110.712Z" fill="#FFBB00"/>
<path d="M55.1662 71.6555C55.1518 71.6555 55.1369 71.6539 55.1221 71.6511L38.0107 68.1087C37.8926 68.0838 37.8164 67.9685 37.8407 67.8504C37.865 67.7323 37.9765 67.6573 38.099 67.6805L55.2104 71.223C55.3285 71.2478 55.4047 71.3631 55.3803 71.4813C55.3587 71.5843 55.2677 71.6555 55.1662 71.6555ZM29.4988 66.3419C29.4844 66.3419 29.4696 66.3402 29.4547 66.3375L27.316 65.895C27.198 65.8701 27.1218 65.7547 27.1461 65.6367C27.1704 65.5192 27.2846 65.4447 27.4044 65.4668L29.5431 65.9094C29.6612 65.9342 29.7374 66.0495 29.713 66.1676C29.6913 66.2707 29.6003 66.3419 29.4988 66.3419Z" fill="#F57E00"/>
<path d="M74.9438 48.6941C74.8451 48.6941 74.7557 48.6267 74.7314 48.5269L70.6184 31.5435C70.5903 31.4266 70.662 31.3084 70.7796 31.2798C70.8949 31.2539 71.0146 31.324 71.0433 31.4409L75.1563 48.4243C75.1845 48.5413 75.1127 48.6594 74.9952 48.6881C74.9781 48.6919 74.961 48.6941 74.9438 48.6941Z" fill="#F57E00"/>
<path d="M103.014 71.6547C102.917 71.6547 102.827 71.5885 102.802 71.4897C102.773 71.3728 102.844 71.2542 102.961 71.2243L143.736 60.9435C143.851 60.9132 143.972 60.9848 144.001 61.1018C144.03 61.2188 143.96 61.3374 143.843 61.3673L103.068 71.6481C103.05 71.6525 103.032 71.6547 103.014 71.6547Z" fill="#F57E00"/>
<path d="M139.451 118.874C139.407 118.874 139.362 118.861 139.324 118.834L93.6019 86.3055C93.5031 86.2354 93.4805 86.0992 93.5499 86.001C93.6211 85.9016 93.7585 85.8807 93.8546 85.9491L139.577 118.477C139.676 118.547 139.698 118.684 139.629 118.782C139.586 118.842 139.519 118.874 139.451 118.874Z" fill="#FFBB00"/>
<path d="M15.894 35.4229C13.182 35.4229 10.5037 34.7304 8.14856 33.421C8.04315 33.3626 8.00511 33.2296 8.06358 33.1241C8.12157 33.0182 8.25447 32.9801 8.36047 33.0392C10.6509 34.3126 13.2559 34.9859 15.894 34.9859C19.0585 34.9859 22.1027 34.0401 24.6978 32.2502C24.7971 32.1828 24.9329 32.2066 25.0018 32.306C25.0702 32.4053 25.0454 32.5416 24.9461 32.61C22.2775 34.4501 19.1473 35.4229 15.894 35.4229ZM30.3165 26.0012C30.2873 26.0012 30.2575 25.9952 30.2288 25.9825C30.1185 25.9344 30.0682 25.8054 30.1168 25.695C30.4054 25.0367 30.6493 24.3552 30.8414 23.6693C30.8739 23.5534 30.9925 23.4856 31.1107 23.5181C31.2265 23.5507 31.2944 23.671 31.2618 23.7873C31.0648 24.4926 30.8138 25.1938 30.5163 25.8703C30.4803 25.9526 30.4003 26.0012 30.3165 26.0012ZM0.569761 23.3025C0.470409 23.3025 0.381031 23.2346 0.357367 23.1342C0.188488 22.4207 0.068798 21.6858 0.000933673 20.9502C-0.0101163 20.8305 0.0781845 20.7239 0.198463 20.713C0.32099 20.7025 0.424742 20.7902 0.435694 20.9105C0.501896 21.6256 0.618361 22.3402 0.782252 23.0338C0.809828 23.1513 0.737564 23.2689 0.620024 23.2964C0.602911 23.3002 0.586384 23.3025 0.569761 23.3025ZM1.79318 12.6713C1.76003 12.6713 1.72698 12.6641 1.69608 12.6481C1.58792 12.5945 1.54382 12.4632 1.5979 12.3556C4.31814 6.89351 9.79628 3.5 15.894 3.5C21.4345 3.5 26.4982 6.30806 29.4386 11.012C29.5026 11.1146 29.4712 11.2492 29.3691 11.3133C29.2671 11.3756 29.1313 11.3459 29.0678 11.2438C26.2079 6.6684 21.2832 3.93711 15.894 3.93711C9.96281 3.93711 4.63487 7.23733 1.98856 12.5499C1.95042 12.6266 1.87317 12.6713 1.79318 12.6713Z" fill="#00A873"/>
<path d="M15.8924 7.52246C9.30052 7.52246 3.95703 12.866 3.95703 19.4578C3.95703 26.0494 9.30052 31.3931 15.8924 31.3931C22.4839 31.3931 27.8277 26.0495 27.8277 19.4578C27.8276 12.866 22.4839 7.52246 15.8924 7.52246Z" fill="white"/>
<path d="M15.8919 31.6115C9.19051 31.6115 3.73828 26.1593 3.73828 19.4579C3.73828 12.7558 9.19041 7.30371 15.8919 7.30371C22.5938 7.30371 28.046 12.7558 28.046 19.4579C28.046 26.1592 22.5938 31.6115 15.8919 31.6115ZM15.8919 7.74072C9.43096 7.74072 4.1753 12.997 4.1753 19.4579C4.1753 25.9187 9.43096 31.1744 15.8919 31.1744C22.3528 31.1744 27.609 25.9187 27.609 19.4579C27.6089 12.997 22.3527 7.74072 15.8919 7.74072Z" fill="#0066DB"/>
<path d="M17.1595 18.8596C18.089 18.3949 18.7211 17.4385 18.7211 16.3362C18.7211 14.7747 17.4513 13.5049 15.8898 13.5049C14.3336 13.5049 13.0639 14.7747 13.0639 16.3362C13.0639 17.4385 13.6961 18.3949 14.62 18.8596C12.5074 19.4161 10.9512 21.3452 10.9512 23.6361C10.9512 25.1815 20.8338 25.1815 20.8338 23.6361C20.8337 21.3452 19.2723 19.4161 17.1595 18.8596Z" fill="#0066DB"/>
<path d="M140.978 33.3306C140.966 33.3306 140.954 33.3294 140.942 33.3273C136.033 32.5051 131.785 29.5497 129.288 25.2199C129.228 25.1151 129.264 24.9815 129.368 24.9214C129.474 24.8612 129.606 24.8971 129.666 25.0014C132.098 29.2181 136.234 32.0956 141.013 32.8968C141.133 32.9167 141.213 33.0292 141.193 33.1478C141.175 33.255 141.082 33.3306 140.978 33.3306ZM148.145 32.9509C148.05 32.9509 147.962 32.8874 147.935 32.7914C147.903 32.6749 147.97 32.5546 148.086 32.5221C148.654 32.3637 149.221 32.17 149.775 31.9471C149.889 31.9007 150.014 31.9565 150.059 32.068C150.105 32.1799 150.051 32.3074 149.939 32.3521C149.37 32.5811 148.787 32.7799 148.204 32.9426C148.185 32.9481 148.165 32.9509 148.145 32.9509ZM157.911 25.3854C157.874 25.3854 157.836 25.376 157.802 25.3556C157.697 25.2949 157.662 25.1613 157.723 25.057C159.155 22.5972 159.912 19.7831 159.912 16.9188C159.912 14.9797 159.573 13.0843 158.906 11.2845C158.864 11.1713 158.921 11.0455 159.034 11.0036C159.148 10.9611 159.273 11.0191 159.315 11.1322C160.001 12.9812 160.349 14.9279 160.349 16.9188C160.348 19.8603 159.571 22.7506 158.1 25.2766C158.06 25.3463 157.986 25.3854 157.911 25.3854ZM127.447 14.8667C127.437 14.8667 127.427 14.8662 127.417 14.8645C127.297 14.8479 127.214 14.7375 127.231 14.6178C127.315 14.0125 127.433 13.4077 127.582 12.8201C127.612 12.7036 127.733 12.6347 127.847 12.6617C127.964 12.6915 128.035 12.8101 128.005 12.9271C127.86 13.4993 127.745 14.0886 127.663 14.6785C127.648 14.7879 127.554 14.8667 127.447 14.8667ZM131.041 6.6915C130.992 6.6915 130.943 6.67497 130.902 6.64123C130.809 6.56457 130.796 6.42718 130.873 6.33389C134.049 2.48684 138.728 0.280273 143.711 0.280273L143.775 0.28086C143.896 0.28086 143.994 0.378451 143.994 0.499316C143.994 0.620181 143.896 0.717773 143.775 0.717773L143.705 0.717187C138.859 0.717187 134.303 2.86586 131.209 6.6119C131.166 6.66451 131.104 6.6915 131.041 6.6915ZM155.2 5.40696C155.145 5.40696 155.09 5.38604 155.048 5.34467C154.623 4.9281 154.171 4.53245 153.707 4.16829C153.612 4.09378 153.595 3.95639 153.669 3.86153C153.744 3.76609 153.882 3.75113 153.976 3.82398C154.453 4.19812 154.917 4.60472 155.353 5.03244C155.439 5.11683 155.441 5.2553 155.356 5.34145C155.314 5.38486 155.257 5.40696 155.2 5.40696Z" fill="#0066DB"/>
<path d="M19.1388 55.7207C14.7478 55.7207 11.1885 59.2802 11.1885 63.6711C11.1885 68.0619 14.7478 71.6215 19.1388 71.6215C23.5296 71.6215 27.0892 68.0619 27.0892 63.6711C27.0892 59.2802 23.5296 55.7207 19.1388 55.7207Z" fill="#F57E00"/>
<path d="M19.9822 63.272C20.6013 62.9625 21.0225 62.3254 21.0225 61.5911C21.0225 60.5508 20.1766 59.7051 19.1364 59.7051C18.0998 59.7051 17.2539 60.5509 17.2539 61.5911C17.2539 62.3254 17.6751 62.9624 18.2906 63.272C16.8833 63.6427 15.8467 64.9277 15.8467 66.4538C15.8467 67.4832 22.4298 67.4832 22.4298 66.4538C22.4297 64.9277 21.3896 63.6427 19.9822 63.272Z" fill="white"/>
<path d="M68.8436 16.2959C65.1977 16.2959 62.2422 19.2514 62.2422 22.8973C62.2422 26.5432 65.1977 29.4987 68.8436 29.4987C72.4894 29.4987 75.445 26.5432 75.445 22.8973C75.445 19.2514 72.4893 16.2959 68.8436 16.2959Z" fill="#FFBB00"/>
<path d="M69.5443 22.5662C70.0583 22.3092 70.4079 21.7802 70.4079 21.1706C70.4079 20.3069 69.7056 19.6045 68.8419 19.6045C67.9812 19.6045 67.2788 20.3068 67.2788 21.1706C67.2788 21.7803 67.6285 22.3092 68.1395 22.5662C66.9711 22.874 66.1104 23.941 66.1104 25.2081C66.1104 26.0628 71.5765 26.0628 71.5765 25.2081C71.5765 23.941 70.7128 22.874 69.5443 22.5662Z" fill="white"/>
<path d="M64.5741 114.153C60.9282 114.153 57.9727 117.109 57.9727 120.755C57.9727 124.401 60.9282 127.356 64.5741 127.356C68.2199 127.356 71.1755 124.401 71.1755 120.755C71.1755 117.109 68.2199 114.153 64.5741 114.153Z" fill="#0066DB"/>
<path d="M65.2747 120.423C65.7888 120.167 66.1385 119.637 66.1385 119.028C66.1385 118.164 65.4361 117.462 64.5724 117.462C63.7117 117.462 63.0094 118.164 63.0094 119.028C63.0094 119.638 63.359 120.167 63.8701 120.423C62.7015 120.731 61.8408 121.798 61.8408 123.065C61.8408 123.92 67.3069 123.92 67.3069 123.065C67.3069 121.798 66.4433 120.731 65.2747 120.423Z" fill="white"/>
<path d="M96.5435 27.761C96.5435 28.9763 95.5583 29.9615 94.3431 29.9615C93.1278 29.9615 92.1426 28.9763 92.1426 27.761C92.1426 26.5457 93.1278 25.5605 94.3431 25.5605C95.5583 25.5605 96.5435 26.5458 96.5435 27.761Z" fill="#F57E00"/>
<path d="M45.5447 99.9882C45.5447 100.632 45.0231 101.153 44.3798 101.153C43.7364 101.153 43.2148 100.632 43.2148 99.9882C43.2148 99.3447 43.7363 98.8232 44.3798 98.8232C45.0232 98.8232 45.5447 99.3448 45.5447 99.9882Z" fill="#F57E00"/>
<path d="M34.9305 53.6493C34.9305 54.2928 34.4089 54.8143 33.7655 54.8143C33.1221 54.8143 32.6006 54.2927 32.6006 53.6493C32.6006 53.006 33.1222 52.4844 33.7655 52.4844C34.4089 52.4844 34.9305 53.006 34.9305 53.6493Z" fill="#F57E00"/>
<path d="M127.608 94.1627C127.608 95.0205 126.913 95.716 126.055 95.716C125.197 95.716 124.502 95.0205 124.502 94.1627C124.502 93.3048 125.197 92.6094 126.055 92.6094C126.913 92.6094 127.608 93.3048 127.608 94.1627Z" fill="#F57E00"/>
<path d="M113.371 57.0147C113.371 57.801 112.734 58.4385 111.947 58.4385C111.161 58.4385 110.523 57.801 110.523 57.0147C110.523 56.2283 111.161 55.5908 111.947 55.5908C112.734 55.5908 113.371 56.2283 113.371 57.0147Z" fill="#00A873"/>
<path d="M116.477 22.1942C117.049 22.1942 117.513 21.7305 117.513 21.1586C117.513 20.5867 117.049 20.123 116.477 20.123C115.905 20.123 115.441 20.5867 115.441 21.1586C115.441 21.7305 115.905 22.1942 116.477 22.1942Z" fill="#0066DB"/>
<path d="M40.1081 20.9008C41.1089 20.9008 41.9203 20.0894 41.9203 19.0886C41.9203 18.0877 41.1089 17.2764 40.1081 17.2764C39.1072 17.2764 38.2959 18.0877 38.2959 19.0886C38.2959 20.0894 39.1072 20.9008 40.1081 20.9008Z" fill="#00A873"/>
<path d="M13.4432 84.5844C13.4432 85.1563 12.9796 85.6199 12.4076 85.6199C11.8358 85.6199 11.3721 85.1563 11.3721 84.5844C11.3721 84.0124 11.8358 83.5488 12.4076 83.5488C12.9796 83.5489 13.4432 84.0124 13.4432 84.5844Z" fill="#00A873"/>
<path d="M85.412 116.686C85.412 117.258 84.9483 117.721 84.3764 117.721C83.8044 117.721 83.3408 117.258 83.3408 116.686C83.3408 116.114 83.8044 115.65 84.3764 115.65C84.9483 115.65 85.412 116.114 85.412 116.686Z" fill="#0066DB"/>
<path d="M115.922 123.533C116.06 122.904 115.662 122.283 115.034 122.145C114.406 122.007 113.784 122.405 113.646 123.033C113.508 123.661 113.906 124.283 114.534 124.421C115.163 124.559 115.784 124.161 115.922 123.533Z" fill="#F57E00"/>
<path d="M100.945 3.03793C101.517 3.03793 101.98 2.57429 101.98 2.00236C101.98 1.43044 101.517 0.966797 100.945 0.966797C100.373 0.966797 99.9092 1.43044 99.9092 2.00236C99.9092 2.57429 100.373 3.03793 100.945 3.03793Z" fill="#FFBB00"/>
<path d="M21.9853 102.447C21.9853 103.162 21.4058 103.741 20.6909 103.741C19.976 103.741 19.3965 103.161 19.3965 102.447C19.3965 101.732 19.9761 101.152 20.6909 101.152C21.4057 101.152 21.9853 101.732 21.9853 102.447Z" fill="white"/>
<path d="M20.6917 103.96C19.8574 103.96 19.1787 103.281 19.1787 102.447C19.1787 101.612 19.8574 100.934 20.6917 100.934C21.526 100.934 22.2046 101.612 22.2046 102.447C22.2046 103.281 21.526 103.96 20.6917 103.96ZM20.6917 101.371C20.0985 101.371 19.6157 101.853 19.6157 102.446C19.6157 103.04 20.0985 103.522 20.6917 103.522C21.2849 103.522 21.7676 103.04 21.7676 102.446C21.7676 101.853 21.2849 101.371 20.6917 101.371Z" fill="#FFBB00"/>
<path d="M53.312 113.707C53.312 114.923 52.3268 115.908 51.1116 115.908C49.8963 115.908 48.9111 114.922 48.9111 113.707C48.9111 112.492 49.8963 111.507 51.1116 111.507C52.3268 111.507 53.312 112.492 53.312 113.707Z" fill="white"/>
<path d="M51.1114 116.126C49.7777 116.126 48.6924 115.041 48.6924 113.707C48.6924 112.373 49.7777 111.288 51.1114 111.288C52.4451 111.288 53.5304 112.373 53.5304 113.707C53.5305 115.041 52.4451 116.126 51.1114 116.126ZM51.1114 111.725C50.0184 111.725 49.1295 112.614 49.1295 113.707C49.1295 114.8 50.0184 115.689 51.1114 115.689C52.2045 115.689 53.0935 114.8 53.0935 113.707C53.0935 112.614 52.2045 111.725 51.1114 111.725Z" fill="#00A873"/>
<path d="M21.2099 44.2001C22.6397 44.2001 23.7987 43.041 23.7987 41.6113C23.7987 40.1815 22.6397 39.0225 21.2099 39.0225C19.7801 39.0225 18.6211 40.1815 18.6211 41.6113C18.6211 43.041 19.7801 44.2001 21.2099 44.2001Z" fill="white"/>
<path d="M21.2093 44.4187C19.6616 44.4187 18.4023 43.159 18.4023 41.6112C18.4023 40.0634 19.6616 38.8037 21.2093 38.8037C22.7571 38.8037 24.0168 40.0634 24.0168 41.6112C24.0169 43.159 22.7571 44.4187 21.2093 44.4187ZM21.2093 39.2407C19.9027 39.2407 18.8395 40.304 18.8395 41.6112C18.8395 42.9183 19.9027 43.9816 21.2093 43.9816C22.5165 43.9816 23.5798 42.9183 23.5798 41.6112C23.5798 40.3041 22.5165 39.2407 21.2093 39.2407Z" fill="#0073B3"/>
<path d="M55.1234 37.858C55.1234 39.6452 53.6746 41.094 51.8874 41.094C50.1003 41.094 48.6514 39.6452 48.6514 37.858C48.6514 36.0709 50.1002 34.6221 51.8874 34.6221C53.6747 34.622 55.1234 36.0708 55.1234 37.858Z" fill="white"/>
<path d="M51.8873 41.3128C49.9825 41.3128 48.4326 39.7627 48.4326 37.858C48.4326 35.9532 49.9826 34.4033 51.8873 34.4033C53.792 34.4033 55.3415 35.9532 55.3415 37.858C55.3415 39.7627 53.7921 41.3128 51.8873 41.3128ZM51.8873 34.8403C50.2232 34.8403 48.8696 36.1938 48.8696 37.858C48.8696 39.5223 50.2232 40.8758 51.8873 40.8758C53.5509 40.8758 54.9045 39.5223 54.9045 37.858C54.9045 36.1938 53.551 34.8403 51.8873 34.8403Z" fill="#00A873"/>
<path d="M97.3206 44.0719C97.3206 45.8592 95.8718 47.3079 94.0846 47.3079C92.2974 47.3079 90.8486 45.8591 90.8486 44.0719C90.8486 42.2848 92.2974 40.8359 94.0846 40.8359C95.8718 40.8359 97.3206 42.2848 97.3206 44.0719Z" fill="white"/>
<path d="M94.0846 47.5266C92.1798 47.5266 90.6299 45.9766 90.6299 44.0719C90.6299 42.1671 92.1798 40.6172 94.0846 40.6172C95.9894 40.6172 97.5388 42.1671 97.5388 44.0719C97.5388 45.9766 95.9894 47.5266 94.0846 47.5266ZM94.0846 41.0542C92.4205 41.0542 91.0669 42.4077 91.0669 44.0719C91.0669 45.7361 92.4205 47.0896 94.0846 47.0896C95.7482 47.0896 97.1017 45.7362 97.1017 44.0719C97.1017 42.4077 95.7482 41.0542 94.0846 41.0542Z" fill="#0073B3"/>
<path d="M103.534 109.826C103.534 111.47 102.201 112.803 100.557 112.803C98.9129 112.803 97.5801 111.47 97.5801 109.826C97.5801 108.181 98.913 106.849 100.557 106.849C102.201 106.849 103.534 108.181 103.534 109.826Z" fill="white"/>
<path d="M100.557 113.021C98.7949 113.021 97.3613 111.588 97.3613 109.825C97.3613 108.063 98.7949 106.63 100.557 106.63C102.319 106.63 103.752 108.063 103.752 109.825C103.752 111.588 102.319 113.021 100.557 113.021ZM100.557 107.067C99.0354 107.067 97.7983 108.304 97.7983 109.825C97.7983 111.347 99.0354 112.584 100.557 112.584C102.078 112.584 103.315 111.347 103.315 109.825C103.315 108.304 102.078 107.067 100.557 107.067Z" fill="#0066DB"/>
<path d="M53.3096 91.1855C53.3096 91.9718 52.6721 92.6093 51.8858 92.6093C51.0994 92.6093 50.4619 91.9718 50.4619 91.1855C50.4619 90.3991 51.0994 89.7617 51.8858 89.7617C52.6721 89.7616 53.3096 90.3991 53.3096 91.1855Z" fill="white"/>
<path d="M51.8869 92.8277C50.9814 92.8277 50.2441 92.0905 50.2441 91.185C50.2441 90.2796 50.9814 89.543 51.8869 89.543C52.7923 89.543 53.5289 90.2796 53.5289 91.185C53.529 92.0905 52.7924 92.8277 51.8869 92.8277ZM51.8869 89.98C51.2219 89.98 50.6812 90.5207 50.6812 91.1851C50.6812 91.8501 51.222 92.3907 51.8869 92.3907C52.5511 92.3907 53.092 91.85 53.092 91.1851C53.092 90.5207 52.5511 89.98 51.8869 89.98Z" fill="#FFBB00"/>
<path d="M50.7236 60.6376C50.7236 61.4241 50.0862 62.0615 49.2999 62.0615C48.5134 62.0615 47.876 61.4241 47.876 60.6376C47.876 59.8513 48.5134 59.2139 49.2999 59.2139C50.0862 59.2139 50.7236 59.8513 50.7236 60.6376Z" fill="white"/>
<path d="M49.2993 62.2809C48.3938 62.2809 47.6572 61.5442 47.6572 60.6387C47.6572 59.7333 48.3939 58.9961 49.2993 58.9961C50.2048 58.9961 50.9414 59.7333 50.9414 60.6387C50.9414 61.5442 50.2048 62.2809 49.2993 62.2809ZM49.2993 59.4331C48.635 59.4331 48.0941 59.9739 48.0941 60.6387C48.0941 61.3031 48.6349 61.8439 49.2993 61.8439C49.9636 61.8439 50.5043 61.3031 50.5043 60.6387C50.5044 59.9739 49.9636 59.4331 49.2993 59.4331Z" fill="#F57E00"/>
<path d="M121.137 59.3446C121.137 59.9881 120.615 60.5096 119.972 60.5096C119.328 60.5096 118.807 59.9881 118.807 59.3446C118.807 58.7012 119.328 58.1797 119.972 58.1797C120.615 58.1797 121.137 58.7012 121.137 59.3446Z" fill="white"/>
<path d="M119.971 60.7282C119.209 60.7282 118.588 60.1075 118.588 59.3448C118.588 58.5817 119.209 57.9609 119.971 57.9609C120.734 57.9609 121.355 58.5817 121.355 59.3448C121.355 60.1074 120.734 60.7282 119.971 60.7282ZM119.971 58.398C119.449 58.398 119.025 58.8229 119.025 59.3448C119.025 59.8669 119.449 60.2911 119.971 60.2911C120.493 60.2911 120.918 59.8668 120.918 59.3448C120.918 58.8228 120.493 58.398 119.971 58.398Z" fill="#FFBB00"/>
<path d="M78.4048 95.5148C78.3931 95.5148 78.381 95.5137 78.3689 95.5116C72.0797 94.4582 66.6379 90.6718 63.4381 85.1236C63.378 85.0188 63.4139 84.8852 63.5181 84.8251C63.6246 84.7644 63.7565 84.8008 63.8167 84.9051C66.9509 90.3396 72.281 94.0487 78.4407 95.0811C78.5599 95.101 78.6403 95.2135 78.62 95.3321C78.6023 95.4392 78.5096 95.5148 78.4048 95.5148ZM87.6146 95.0271C87.5191 95.0271 87.4314 94.9641 87.4043 94.8676C87.3718 94.7512 87.4396 94.6309 87.5555 94.5983C88.2933 94.3919 89.0254 94.1426 89.7328 93.8567C89.8437 93.8104 89.9717 93.8661 90.017 93.9775C90.0622 94.089 90.0081 94.2165 89.8961 94.2617C89.1745 94.5536 88.4262 94.8079 87.6735 95.0187C87.6538 95.0243 87.6339 95.0271 87.6146 95.0271ZM100.164 85.3057C100.127 85.3057 100.089 85.2963 100.055 85.2759C99.9502 85.2152 99.9149 85.0817 99.9756 84.9774C101.822 81.8057 102.797 78.1783 102.797 74.4879C102.797 71.9895 102.36 69.5461 101.5 67.2264C101.458 67.1133 101.515 66.9875 101.628 66.9456C101.743 66.9036 101.867 66.9616 101.909 67.0742C102.788 69.443 103.234 71.9376 103.234 74.4879C103.235 78.2555 102.239 81.9585 100.353 85.1969C100.313 85.2665 100.239 85.3057 100.164 85.3057ZM61.0192 71.7887C61.0092 71.7887 60.9993 71.7881 60.9894 71.7865C60.8697 71.7699 60.7863 71.6595 60.8029 71.5404C60.9098 70.7662 61.0611 69.991 61.252 69.2362C61.2823 69.1192 61.4038 69.0492 61.5174 69.0778C61.6344 69.1077 61.705 69.2263 61.6758 69.3432C61.4883 70.0826 61.3403 70.8418 61.2355 71.6C61.2205 71.7092 61.1267 71.7887 61.0192 71.7887ZM65.6376 61.2844C65.5885 61.2844 65.5394 61.2679 65.4985 61.2341C65.4053 61.1575 65.3926 61.0201 65.4693 60.9268C69.5375 55.9977 75.5327 53.1709 81.9168 53.1709H81.9995C82.1204 53.1709 82.218 53.2686 82.218 53.3894C82.218 53.5102 82.1204 53.6079 81.9995 53.6079H81.9168C75.6634 53.6079 69.7914 56.3768 65.8059 61.2049C65.7628 61.2573 65.7004 61.2844 65.6376 61.2844ZM96.6804 59.6339C96.6253 59.6339 96.5701 59.613 96.5276 59.5717C95.9818 59.037 95.4003 58.5265 94.7989 58.0542C94.7045 57.9797 94.688 57.8423 94.7624 57.7473C94.8368 57.6519 94.9737 57.6364 95.0692 57.711C95.6828 58.1927 96.2759 58.7141 96.8332 59.2592C96.9193 59.3436 96.9209 59.4821 96.8365 59.5682C96.7935 59.6118 96.7372 59.6339 96.6804 59.6339Z" fill="#F57E00"/>
<path d="M81.9178 101.631C81.797 101.631 81.6718 101.533 81.6718 101.412C81.6718 101.292 81.7413 101.194 81.8621 101.194L81.924 101.194C86.4922 101.194 91.0051 100.018 94.9681 97.7941C95.0746 97.7345 95.2071 97.7726 95.2655 97.8774C95.3246 97.9829 95.2871 98.1158 95.1822 98.1749C91.1535 100.436 86.5671 101.631 81.9178 101.631ZM108.487 79.0841C108.475 79.0841 108.463 79.0829 108.451 79.0814C108.332 79.0615 108.252 78.9495 108.271 78.8303C108.362 78.2731 108.436 77.7025 108.493 77.1341C108.505 77.0144 108.619 76.9339 108.732 76.9383C108.851 76.9504 108.939 77.0569 108.928 77.1772C108.871 77.7543 108.795 78.3343 108.702 78.901C108.685 79.0079 108.592 79.0841 108.487 79.0841ZM55.1187 72.0968C55.1121 72.0968 55.1049 72.0962 55.0978 72.0956C54.9775 72.0841 54.8898 71.977 54.9014 71.8573C54.9572 71.279 55.0322 70.6986 55.1233 70.133C55.1432 70.0143 55.2518 69.9348 55.3737 69.952C55.4929 69.9713 55.574 70.0833 55.5547 70.2025C55.4648 70.7592 55.3914 71.3303 55.3363 71.8992C55.325 72.0124 55.2302 72.0968 55.1187 72.0968ZM68.7119 51.24C68.6357 51.24 68.5618 51.1997 68.5215 51.1285C68.4625 51.0237 68.4995 50.8907 68.6048 50.8311C72.6461 48.5523 77.2496 47.3477 81.9177 47.3477H82.028C82.1489 47.3477 82.2465 47.4453 82.2465 47.5662C82.2465 47.687 82.1489 47.7847 82.028 47.7847H81.9177C77.3246 47.7847 72.7956 48.9698 68.8189 51.2118C68.7853 51.2306 68.7483 51.24 68.7119 51.24Z" fill="#0066DB"/>
<path d="M81.9163 57.9043C72.7569 57.9043 65.332 65.3293 65.332 74.4884C65.332 83.6476 72.7569 91.0727 81.9163 91.0727C91.0753 91.0727 98.5005 83.6477 98.5005 74.4884C98.5005 65.3292 91.0752 57.9043 81.9163 57.9043Z" fill="white"/>
<path d="M81.9163 91.2914C72.6513 91.2914 65.1133 83.7535 65.1133 74.4885C65.1133 65.2235 72.6512 57.6855 81.9163 57.6855C91.1813 57.6855 98.7192 65.2235 98.7192 74.4885C98.7191 83.7535 91.1812 91.2914 81.9163 91.2914ZM81.9163 58.1226C72.8919 58.1226 65.5504 65.464 65.5504 74.4885C65.5504 83.5129 72.8919 90.8544 81.9163 90.8544C90.9406 90.8544 98.2822 83.5129 98.2822 74.4885C98.2821 65.4641 90.9406 58.1226 81.9163 58.1226Z" fill="#0073B3"/>
<path d="M83.6775 73.6563C84.9689 73.0106 85.8474 71.6816 85.8474 70.15C85.8474 67.9802 84.0829 66.2158 81.9132 66.2158C79.7508 66.2158 77.9865 67.9802 77.9865 70.15C77.9865 71.6816 78.8649 73.0106 80.1487 73.6563C77.2132 74.4297 75.0508 77.11 75.0508 80.2934C75.0508 82.4407 88.7829 82.4407 88.7829 80.2934C88.7829 77.11 86.6132 74.4297 83.6775 73.6563Z" fill="#0073B3"/>
</svg>
