<svg width="181" height="102" viewBox="0 0 181 102" fill="none" xmlns="http://www.w3.org/2000/svg">
<path d="M107.37 65.7491C107.302 65.7491 107.234 65.7203 107.186 65.665C107.098 65.5636 107.109 65.41 107.211 65.3222L146.754 31.126C146.856 31.0375 147.009 31.0491 147.097 31.1505C147.185 31.2519 147.174 31.4054 147.073 31.4931L107.529 65.6896C107.483 65.7295 107.426 65.7491 107.37 65.7491Z" fill="#FFBB00"/>
<path d="M176.655 94.7011C176.644 94.7011 176.633 94.7005 176.622 94.6986L174.213 94.3707C174.08 94.3528 173.987 94.23 174.005 94.0973C174.023 93.964 174.15 93.8701 174.278 93.8891L176.687 94.2171C176.82 94.2348 176.914 94.3577 176.895 94.4904C176.879 94.6126 176.774 94.7011 176.655 94.7011ZM140.517 89.7869C140.507 89.7869 140.496 89.7864 140.485 89.7844L121.212 87.1637C121.078 87.1459 120.985 87.0231 121.003 86.8904C121.021 86.7577 121.137 86.6587 121.277 86.6821L140.55 89.303C140.683 89.3207 140.777 89.4436 140.758 89.5763C140.741 89.6985 140.637 89.7869 140.517 89.7869Z" fill="#0066DB"/>
<path d="M4.73626 106.329C4.62992 106.329 4.5324 106.259 4.50224 106.152C4.466 106.022 4.54153 105.888 4.67052 105.852L73.2647 86.6892C73.3948 86.6517 73.5281 86.7285 73.5643 86.8575C73.6005 86.9871 73.525 87.121 73.396 87.1572L4.80201 106.32C4.77991 106.326 4.75781 106.329 4.73626 106.329Z" fill="#00A873"/>
<path d="M74.2527 66.6697C74.1994 66.6697 74.1465 66.6525 74.1016 66.617L27.925 29.9392C27.8199 29.8558 27.8022 29.7027 27.8857 29.5978C27.9698 29.4921 28.1234 29.4756 28.2272 29.5585L74.4039 66.2361C74.5088 66.3196 74.5268 66.4725 74.4432 66.5775C74.3953 66.6384 74.324 66.6697 74.2527 66.6697Z" fill="#0066DB"/>
<path d="M61.5008 79.4477C61.4848 79.4477 61.4682 79.4459 61.4517 79.4428L42.405 75.4997C42.2735 75.4721 42.1887 75.3436 42.2158 75.2123C42.2428 75.0808 42.3669 74.9973 42.5033 75.0231L61.55 78.9663C61.6815 78.9939 61.7663 79.1223 61.7392 79.2537C61.7151 79.3685 61.6138 79.4477 61.5008 79.4477ZM32.9304 73.5331C32.9144 73.5331 32.8979 73.5312 32.8813 73.5282L30.5008 73.0356C30.3694 73.008 30.2846 72.8796 30.3117 72.7482C30.3387 72.6173 30.4658 72.5344 30.5992 72.559L32.9797 73.0516C33.1112 73.0793 33.196 73.2076 33.1689 73.3391C33.1448 73.4538 33.0434 73.5331 32.9304 73.5331Z" fill="#F57E00"/>
<path d="M83.5148 53.8899C83.4049 53.8899 83.3054 53.8149 83.2784 53.7037L78.7002 34.7995C78.6688 34.6694 78.7487 34.5379 78.8795 34.506C79.0079 34.4771 79.1412 34.5552 79.1731 34.6854L83.7513 53.5896C83.7827 53.7198 83.7028 53.8512 83.5719 53.8831C83.5529 53.8874 83.5338 53.8899 83.5148 53.8899Z" fill="#F57E00"/>
<path d="M114.761 79.447C114.652 79.447 114.553 79.3733 114.525 79.2634C114.492 79.1332 114.571 79.0012 114.701 78.968L160.087 67.5243C160.216 67.4906 160.35 67.5704 160.383 67.7006C160.415 67.8309 160.337 67.9628 160.207 67.9961L114.82 79.4397C114.8 79.4446 114.78 79.447 114.761 79.447Z" fill="#F57E00"/>
<path d="M155.317 132.007C155.268 132.007 155.219 131.992 155.177 131.962L104.283 95.7546C104.173 95.6766 104.148 95.5249 104.225 95.4157C104.305 95.3051 104.458 95.2818 104.564 95.3579L155.458 131.565C155.568 131.643 155.593 131.795 155.516 131.904C155.468 131.971 155.393 132.007 155.317 132.007Z" fill="#FFBB00"/>
<path d="M17.7863 39.1154C14.7676 39.1154 11.7864 38.3446 9.16489 36.8871C9.04755 36.822 9.00521 36.674 9.0703 36.5567C9.13485 36.4388 9.28277 36.3963 9.40076 36.4621C11.9503 37.8796 14.8499 38.629 17.7863 38.629C21.3087 38.629 24.6972 37.5762 27.5858 35.5839C27.6964 35.5089 27.8475 35.5353 27.9242 35.6459C28.0004 35.7565 27.9728 35.9083 27.8622 35.9843C24.8919 38.0326 21.4076 39.1154 17.7863 39.1154ZM33.84 28.6281C33.8075 28.6281 33.7743 28.6214 33.7424 28.6072C33.6196 28.5538 33.5637 28.4101 33.6178 28.2872C33.939 27.5545 34.2105 26.7959 34.4242 26.0325C34.4605 25.9035 34.5925 25.8279 34.724 25.8642C34.853 25.9004 34.9285 26.0343 34.8923 26.1638C34.6729 26.9489 34.3935 27.7294 34.0624 28.4824C34.0224 28.574 33.9333 28.6281 33.84 28.6281ZM0.728927 25.6242C0.618338 25.6242 0.518853 25.5486 0.492512 25.4369C0.304533 24.6427 0.171306 23.8246 0.0957658 23.0059C0.0834661 22.8726 0.181754 22.754 0.315635 22.7418C0.452021 22.7302 0.567507 22.8278 0.579697 22.9617C0.653387 23.7577 0.783024 24.553 0.965452 25.3251C0.996147 25.4559 0.915709 25.5867 0.784875 25.6174C0.765827 25.6217 0.747431 25.6242 0.728927 25.6242ZM2.09071 13.7906C2.05381 13.7906 2.01703 13.7826 1.98263 13.7648C1.86224 13.7051 1.81315 13.5589 1.87334 13.4392C4.90125 7.35934 10.999 3.58203 17.7863 3.58203C23.9535 3.58203 29.5899 6.70768 32.8628 11.9437C32.9341 12.0578 32.8991 12.2077 32.7854 12.279C32.6719 12.3483 32.5208 12.3153 32.4501 12.2016C29.2667 7.10878 23.7851 4.06858 17.7863 4.06858C11.1843 4.06858 5.2538 7.74205 2.30819 13.6555C2.26574 13.7408 2.17975 13.7906 2.09071 13.7906Z" fill="#00A873"/>
<path d="M17.7852 8.06055C10.4478 8.06055 4.5 14.0085 4.5 21.3457C4.5 28.6829 10.4478 34.631 17.7852 34.631C25.1222 34.631 31.0704 28.683 31.0704 21.3457C31.0703 14.0085 25.1222 8.06055 17.7852 8.06055Z" fill="white"/>
<path d="M17.785 34.8743C10.3257 34.8743 4.25684 28.8056 4.25684 21.3462C4.25684 13.8861 10.3256 7.81738 17.785 7.81738C25.2449 7.81738 31.3138 13.8861 31.3138 21.3462C31.3138 28.8055 25.2449 34.8743 17.785 34.8743ZM17.785 8.30382C10.5934 8.30382 4.74328 14.1546 4.74328 21.3462C4.74328 28.5377 10.5934 34.3879 17.785 34.3879C24.9766 34.3879 30.8274 28.5377 30.8274 21.3462C30.8272 14.1546 24.9765 8.30382 17.785 8.30382Z" fill="#0066DB"/>
<path d="M19.1956 20.6801C20.2302 20.1628 20.9339 19.0982 20.9339 17.8713C20.9339 16.1331 19.5204 14.7197 17.7824 14.7197C16.0502 14.7197 14.6368 16.1331 14.6368 17.8713C14.6368 19.0982 15.3405 20.1628 16.369 20.6801C14.0173 21.2995 12.2852 23.4467 12.2852 25.9968C12.2852 27.7169 23.2856 27.7169 23.2856 25.9968C23.2854 23.4467 21.5474 21.2995 19.1956 20.6801Z" fill="#0066DB"/>
<path d="M157.016 36.7883C157.003 36.7883 156.99 36.787 156.976 36.7846C151.512 35.8694 146.784 32.5798 144.004 27.7603C143.937 27.6436 143.977 27.4949 144.093 27.428C144.211 27.3611 144.359 27.401 144.426 27.517C147.132 32.2106 151.736 35.4137 157.056 36.3055C157.189 36.3275 157.278 36.4528 157.256 36.5849C157.236 36.7042 157.133 36.7883 157.016 36.7883ZM164.994 36.3656C164.888 36.3656 164.791 36.295 164.76 36.1881C164.724 36.0585 164.8 35.9246 164.929 35.8884C165.56 35.712 166.192 35.4965 166.809 35.2483C166.935 35.1967 167.075 35.2588 167.125 35.3829C167.175 35.5075 167.115 35.6494 166.991 35.6992C166.357 35.9541 165.708 36.1753 165.06 36.3564C165.038 36.3626 165.016 36.3656 164.994 36.3656ZM175.865 27.9445C175.823 27.9445 175.781 27.934 175.743 27.9113C175.627 27.8438 175.587 27.6951 175.655 27.579C177.249 24.8409 178.091 21.7085 178.092 18.5203C178.092 16.362 177.715 14.2522 176.972 12.2488C176.925 12.1228 176.989 11.9827 177.115 11.9362C177.242 11.8888 177.381 11.9534 177.427 12.0793C178.191 14.1374 178.578 16.3043 178.578 18.5203C178.578 21.7945 177.712 25.0117 176.075 27.8234C176.03 27.9009 175.948 27.9445 175.865 27.9445ZM141.955 16.2362C141.944 16.2362 141.933 16.2356 141.921 16.2336C141.788 16.2153 141.696 16.0924 141.714 15.9591C141.808 15.2854 141.94 14.6122 142.105 13.9581C142.139 13.8285 142.274 13.7517 142.4 13.7818C142.531 13.815 142.609 13.947 142.577 14.0772C142.415 14.7141 142.287 15.3701 142.196 16.0266C142.179 16.1484 142.075 16.2362 141.955 16.2362ZM145.956 7.13633C145.901 7.13633 145.846 7.11793 145.801 7.08038C145.697 6.99505 145.683 6.84212 145.768 6.73828C149.304 2.45613 154.512 0 160.058 0L160.13 0.000652723C160.264 0.000652723 160.373 0.109281 160.373 0.243816C160.373 0.378351 160.264 0.486981 160.13 0.486981L160.052 0.486328C154.658 0.486328 149.586 2.87802 146.143 7.04773C146.095 7.10629 146.026 7.13633 145.956 7.13633ZM172.848 5.70652C172.786 5.70652 172.725 5.68322 172.677 5.63718C172.204 5.17349 171.702 4.7331 171.185 4.32775C171.079 4.24481 171.061 4.09188 171.143 3.9863C171.227 3.88007 171.38 3.86341 171.485 3.9445C172.016 4.36095 172.532 4.81354 173.018 5.28963C173.113 5.38357 173.115 5.5377 173.021 5.63359C172.973 5.68192 172.911 5.70652 172.848 5.70652Z" fill="#0066DB"/>
<path d="M160.059 5.23633C152.721 5.23633 146.773 11.1843 146.773 18.5215C146.773 25.8588 152.721 31.8067 160.059 31.8067C167.396 31.8067 173.344 25.8587 173.344 18.5215C173.344 11.1844 167.396 5.23633 160.059 5.23633Z" fill="white"/>
<path d="M160.058 32.0491C152.598 32.0491 146.529 25.9804 146.529 18.521C146.529 11.0609 152.598 4.99219 160.058 4.99219C167.517 4.99219 173.586 11.0611 173.586 18.521C173.586 25.9803 167.517 32.0491 160.058 32.0491ZM160.058 5.47863C152.866 5.47863 147.016 11.3294 147.016 18.521C147.016 25.7125 152.866 31.5627 160.058 31.5627C167.25 31.5627 173.1 25.7125 173.1 18.521C173.1 11.3294 167.25 5.47863 160.058 5.47863Z" fill="#FFBB00"/>
<path d="M161.468 17.8538C162.503 17.3366 163.206 16.272 163.206 15.0451C163.206 13.3069 161.793 11.8936 160.055 11.8936C158.323 11.8936 156.909 13.3069 156.909 15.0451C156.909 16.272 157.613 17.3367 158.641 17.8538C156.29 18.4732 154.558 20.6205 154.558 23.1706C154.558 24.8907 165.558 24.8907 165.558 23.1706C165.558 20.6205 163.82 18.4734 161.468 17.8538Z" fill="#FFBB00"/>
<path d="M21.3983 61.71C16.5107 61.71 12.5488 65.672 12.5488 70.5595C12.5488 75.447 16.5107 79.4091 21.3983 79.4091C26.2857 79.4091 30.2479 75.447 30.2479 70.5595C30.2479 65.672 26.2857 61.71 21.3983 61.71Z" fill="#F57E00"/>
<path d="M22.3376 70.1148C23.0267 69.7703 23.4955 69.0612 23.4955 68.2439C23.4955 67.0859 22.554 66.1445 21.3962 66.1445C20.2423 66.1445 19.3008 67.0861 19.3008 68.2439C19.3008 69.0612 19.7696 69.7702 20.4547 70.1148C18.8883 70.5275 17.7344 71.9578 17.7344 73.6565C17.7344 74.8023 25.0621 74.8023 25.0621 73.6565C25.0619 71.9578 23.9041 70.5275 22.3376 70.1148Z" fill="white"/>
<path d="M76.725 17.8262C72.6667 17.8262 69.377 21.116 69.377 25.1742C69.377 29.2325 72.6667 32.5222 76.725 32.5222C80.7831 32.5222 84.073 29.2325 84.073 25.1742C84.073 21.116 80.783 17.8262 76.725 17.8262Z" fill="#FFBB00"/>
<path d="M77.5049 24.8054C78.0771 24.5194 78.4662 23.9305 78.4662 23.252C78.4662 22.2906 77.6845 21.5088 76.7232 21.5088C75.7651 21.5088 74.9832 22.2905 74.9832 23.252C74.9832 23.9306 75.3725 24.5194 75.9413 24.8054C74.6407 25.1481 73.6826 26.3357 73.6826 27.7462C73.6826 28.6976 79.767 28.6976 79.767 27.7462C79.767 26.3357 78.8056 25.1481 77.5049 24.8054Z" fill="white"/>
<path d="M160.147 54.1377C153.703 54.1377 148.479 59.3619 148.479 65.8064C148.479 72.2509 153.703 77.4751 160.147 77.4751C166.592 77.4751 171.816 72.2508 171.816 65.8064C171.816 59.3619 166.592 54.1377 160.147 54.1377Z" fill="#0066DB"/>
<path d="M161.386 65.2205C162.295 64.7661 162.913 63.8311 162.913 62.7534C162.913 61.2268 161.671 59.9854 160.145 59.9854C158.623 59.9854 157.382 61.2268 157.382 62.7534C157.382 63.831 158 64.7661 158.903 65.2205C156.838 65.7646 155.316 67.6505 155.316 69.8903C155.316 71.4011 164.978 71.4011 164.978 69.8903C164.978 67.6505 163.452 65.7645 161.386 65.2205Z" fill="white"/>
<path d="M107.557 30.5879C107.557 31.9407 106.46 33.0373 105.108 33.0373C103.755 33.0373 102.658 31.9407 102.658 30.5879C102.658 29.2352 103.755 28.1387 105.108 28.1387C106.46 28.1387 107.557 29.2353 107.557 30.5879Z" fill="#F57E00"/>
<path d="M38.9762 59.4041C38.9762 60.1203 38.3956 60.7008 37.6795 60.7008C36.9633 60.7008 36.3828 60.1202 36.3828 59.4041C36.3828 58.688 36.9634 58.1074 37.6795 58.1074C38.3956 58.1074 38.9762 58.688 38.9762 59.4041Z" fill="#F57E00"/>
<path d="M148.188 80.8722C148.188 81.0313 148.059 81.1604 147.899 81.1604C147.74 81.1604 147.611 81.0315 147.611 80.8722C147.611 80.7131 147.74 80.584 147.899 80.584C148.059 80.5841 148.188 80.7132 148.188 80.8722Z" fill="#00A873"/>
<path d="M126.288 63.1503C126.288 64.0256 125.578 64.7352 124.703 64.7352C123.828 64.7352 123.118 64.0256 123.118 63.1503C123.118 62.275 123.828 61.5654 124.703 61.5654C125.578 61.5654 126.288 62.275 126.288 63.1503Z" fill="#00A873"/>
<path d="M129.745 24.3923C130.382 24.3923 130.898 23.8762 130.898 23.2396C130.898 22.603 130.382 22.0869 129.745 22.0869C129.109 22.0869 128.593 22.603 128.593 23.2396C128.593 23.8762 129.109 24.3923 129.745 24.3923Z" fill="#0066DB"/>
<path d="M44.7388 22.9523C45.8529 22.9523 46.756 22.0492 46.756 20.9351C46.756 19.8211 45.8529 18.918 44.7388 18.918C43.6248 18.918 42.7217 19.8211 42.7217 20.9351C42.7217 22.0492 43.6248 22.9523 44.7388 22.9523Z" fill="#00A873"/>
<path d="M15.0593 93.8392C15.0593 94.4758 14.5432 94.9918 13.9066 94.9918C13.2701 94.9918 12.7539 94.4758 12.7539 93.8392C12.7539 93.2026 13.2701 92.6865 13.9066 92.6865C14.5432 92.6866 15.0593 93.2026 15.0593 93.8392Z" fill="#00A873"/>
<path d="M112.455 3.06905C113.092 3.06905 113.608 2.55297 113.608 1.91636C113.608 1.27975 113.092 0.763672 112.455 0.763672C111.819 0.763672 111.303 1.27975 111.303 1.91636C111.303 2.55297 111.819 3.06905 112.455 3.06905Z" fill="#FFBB00"/>
<path d="M153.754 45.2948C154.636 44.9293 155.055 43.918 154.689 43.0358C154.324 42.1536 153.313 41.7346 152.43 42.1001C151.548 42.4655 151.129 43.4769 151.495 44.3591C151.86 45.2413 152.871 45.6602 153.754 45.2948Z" fill="white"/>
<path d="M153.086 45.6718C151.999 45.6718 151.114 44.7867 151.114 43.6996C151.114 42.6126 151.999 41.7275 153.086 41.7275C154.174 41.7275 155.059 42.6126 155.059 43.6996C155.059 44.7867 154.174 45.6718 153.086 45.6718ZM153.086 42.2139C152.267 42.2139 151.601 42.8802 151.601 43.6996C151.601 44.519 152.267 45.1854 153.086 45.1854C153.906 45.1854 154.572 44.519 154.572 43.6996C154.572 42.8803 153.906 42.2139 153.086 42.2139Z" fill="#F57E00"/>
<path d="M23.7039 48.8863C25.2954 48.8863 26.5855 47.5961 26.5855 46.0047C26.5855 44.4132 25.2954 43.123 23.7039 43.123C22.1124 43.123 20.8223 44.4132 20.8223 46.0047C20.8223 47.5961 22.1124 48.8863 23.7039 48.8863Z" fill="white"/>
<path d="M23.7036 49.1299C21.9807 49.1299 20.5791 47.7277 20.5791 46.0049C20.5791 44.282 21.9807 42.8799 23.7036 42.8799C25.4264 42.8799 26.8286 44.282 26.8286 46.0049C26.8287 47.7277 25.4264 49.1299 23.7036 49.1299ZM23.7036 43.3663C22.2491 43.3663 21.0657 44.5498 21.0657 46.0049C21.0657 47.4598 22.2491 48.6434 23.7036 48.6434C25.1586 48.6434 26.3421 47.4598 26.3421 46.0049C26.3421 44.5499 25.1586 43.3663 23.7036 43.3663Z" fill="#0073B3"/>
<path d="M61.4521 41.8275C61.4521 43.8168 59.8394 45.4295 57.8501 45.4295C55.8608 45.4295 54.248 43.8168 54.248 41.8275C54.248 39.8383 55.8607 38.2256 57.8501 38.2256C59.8395 38.2255 61.4521 39.8382 61.4521 41.8275Z" fill="white"/>
<path d="M57.8503 45.6724C55.7301 45.6724 54.0049 43.947 54.0049 41.8269C54.0049 39.7067 55.7302 37.9814 57.8503 37.9814C59.9705 37.9814 61.6951 39.7067 61.6951 41.8269C61.6951 43.947 59.9706 45.6724 57.8503 45.6724ZM57.8503 38.4679C55.998 38.4679 54.4913 39.9744 54.4913 41.8269C54.4913 43.6794 55.998 45.1859 57.8503 45.1859C59.702 45.1859 61.2087 43.6794 61.2087 41.8269C61.2087 39.9744 59.7022 38.4679 57.8503 38.4679Z" fill="#00A873"/>
<path d="M108.423 48.7426C108.423 50.732 106.81 52.3446 104.821 52.3446C102.831 52.3446 101.219 50.7319 101.219 48.7426C101.219 46.7533 102.831 45.1406 104.821 45.1406C106.81 45.1406 108.423 46.7533 108.423 48.7426Z" fill="white"/>
<path d="M104.82 52.5884C102.7 52.5884 100.975 50.863 100.975 48.7429C100.975 46.6227 102.7 44.8975 104.82 44.8975C106.94 44.8975 108.665 46.6227 108.665 48.7429C108.665 50.863 106.94 52.5884 104.82 52.5884ZM104.82 45.3839C102.968 45.3839 101.461 46.8904 101.461 48.7429C101.461 50.5953 102.968 52.1019 104.82 52.1019C106.672 52.1019 108.178 50.5954 108.178 48.7429C108.178 46.8904 106.672 45.3839 104.82 45.3839Z" fill="#0073B3"/>
<path d="M180.173 83.1775C180.173 84.9281 178.754 86.3473 177.004 86.3473C175.253 86.3473 173.834 84.9281 173.834 83.1775C173.834 81.427 175.253 80.0078 177.004 80.0078C178.754 80.0077 180.173 81.4268 180.173 83.1775Z" fill="white"/>
<path d="M177.004 86.5898C175.122 86.5898 173.591 85.0586 173.591 83.1768C173.591 81.2949 175.122 79.7637 177.004 79.7637C178.886 79.7637 180.417 81.2949 180.417 83.1768C180.417 85.0586 178.886 86.5898 177.004 86.5898ZM177.004 80.2501C175.39 80.2501 174.077 81.5626 174.077 83.1767C174.077 84.7908 175.39 86.1032 177.004 86.1032C178.618 86.1032 179.931 84.7908 179.931 83.1767C179.931 81.5627 178.618 80.2501 177.004 80.2501Z" fill="#F57E00"/>
<path d="M59.4344 101.186C59.4344 102.062 58.7248 102.771 57.8496 102.771C56.9742 102.771 56.2646 102.062 56.2646 101.186C56.2646 100.311 56.9742 99.6016 57.8496 99.6016C58.7248 99.6015 59.4344 100.311 59.4344 101.186Z" fill="white"/>
<path d="M57.85 103.015C56.8421 103.015 56.0215 102.194 56.0215 101.186C56.0215 100.178 56.8421 99.3584 57.85 99.3584C58.8578 99.3584 59.6778 100.178 59.6778 101.186C59.6779 102.194 58.8579 103.015 57.85 103.015ZM57.85 99.8448C57.1098 99.8448 56.508 100.447 56.508 101.186C56.508 101.926 57.11 102.528 57.85 102.528C58.5894 102.528 59.1914 101.926 59.1914 101.186C59.1914 100.447 58.5894 99.8448 57.85 99.8448Z" fill="#FFBB00"/>
<path d="M56.5545 67.1834C56.5545 68.0588 55.8449 68.7684 54.9697 68.7684C54.0943 68.7684 53.3848 68.0588 53.3848 67.1834C53.3848 66.3082 54.0943 65.5986 54.9697 65.5986C55.8449 65.5986 56.5545 66.3082 56.5545 67.1834Z" fill="white"/>
<path d="M54.9694 69.0117C53.9614 69.0117 53.1416 68.1918 53.1416 67.1839C53.1416 66.1761 53.9615 65.3555 54.9694 65.3555C55.9773 65.3555 56.7972 66.1761 56.7972 67.1839C56.7972 68.1918 55.9773 69.0117 54.9694 69.0117ZM54.9694 65.8419C54.23 65.8419 53.6279 66.4438 53.6279 67.1839C53.6279 67.9234 54.2299 68.5253 54.9694 68.5253C55.7089 68.5253 56.3107 67.9234 56.3107 67.1839C56.3108 66.4438 55.7089 65.8419 54.9694 65.8419Z" fill="#F57E00"/>
<path d="M134.932 65.744C134.932 66.4602 134.352 67.0407 133.636 67.0407C132.919 67.0407 132.339 66.4602 132.339 65.744C132.339 65.0277 132.919 64.4473 133.636 64.4473C134.352 64.4473 134.932 65.0277 134.932 65.744Z" fill="white"/>
<path d="M133.635 67.2834C132.787 67.2834 132.096 66.5924 132.096 65.7435C132.096 64.8941 132.787 64.2031 133.635 64.2031C134.485 64.2031 135.176 64.8941 135.176 65.7435C135.176 66.5923 134.485 67.2834 133.635 67.2834ZM133.635 64.6897C133.054 64.6897 132.582 65.1626 132.582 65.7435C132.582 66.3247 133.054 66.7968 133.635 66.7968C134.216 66.7968 134.689 66.3246 134.689 65.7435C134.689 65.1625 134.216 64.6897 133.635 64.6897Z" fill="#FFBB00"/>
<path d="M87.3665 106.005C87.3535 106.005 87.34 106.004 87.3265 106.001C80.326 104.829 74.2688 100.614 70.7071 94.4387C70.6402 94.322 70.6801 94.1733 70.7962 94.1064C70.9147 94.0388 71.0615 94.0793 71.1285 94.1954C74.6171 100.245 80.5502 104.373 87.4064 105.522C87.5391 105.544 87.6287 105.67 87.606 105.802C87.5863 105.921 87.4832 106.005 87.3665 106.005ZM97.6179 105.462C97.5117 105.462 97.414 105.392 97.3839 105.285C97.3476 105.155 97.4232 105.021 97.5522 104.985C98.3734 104.755 99.1883 104.478 99.9757 104.159C100.099 104.108 100.242 104.17 100.292 104.294C100.342 104.418 100.282 104.56 100.158 104.61C99.3542 104.935 98.5213 105.218 97.6835 105.453C97.6615 105.459 97.6395 105.462 97.6179 105.462ZM111.587 94.6413C111.545 94.6413 111.504 94.6309 111.465 94.6081C111.349 94.5406 111.309 94.392 111.377 94.2758C113.432 90.7455 114.518 86.7078 114.517 82.6C114.517 79.819 114.032 77.0994 113.073 74.5173C113.027 74.3914 113.091 74.2514 113.217 74.2047C113.344 74.158 113.482 74.2225 113.529 74.3478C114.508 76.9845 115.004 79.7613 115.004 82.6C115.004 86.7937 113.896 90.9155 111.797 94.5202C111.752 94.5977 111.671 94.6413 111.587 94.6413ZM68.0146 79.5955C68.0035 79.5955 67.9925 79.5949 67.9814 79.593C67.8482 79.5746 67.7554 79.4518 67.7738 79.3192C67.8929 78.4574 68.0613 77.5945 68.2737 76.7543C68.3075 76.6241 68.4427 76.5462 68.5692 76.5781C68.6993 76.6113 68.7779 76.7433 68.7455 76.8735C68.5367 77.6965 68.372 78.5416 68.2554 79.3855C68.2387 79.5071 68.1343 79.5955 68.0146 79.5955ZM73.1553 67.9032C73.1007 67.9032 73.046 67.8848 73.0005 67.8473C72.8968 67.7619 72.8827 67.609 72.968 67.5052C77.4964 62.0186 84.1695 58.8721 91.2757 58.8721H91.3678C91.5023 58.8721 91.611 58.9808 91.611 59.1152C91.611 59.2498 91.5023 59.3585 91.3678 59.3585H91.2757C84.3151 59.3585 77.7789 62.4405 73.3426 67.8147C73.2947 67.8731 73.2253 67.9032 73.1553 67.9032ZM107.709 66.0661C107.648 66.0661 107.586 66.0428 107.539 65.9968C106.931 65.4016 106.284 64.8334 105.615 64.3077C105.51 64.2247 105.491 64.0718 105.574 63.9661C105.657 63.8599 105.809 63.8427 105.916 63.9256C106.599 64.4618 107.259 65.0422 107.879 65.649C107.975 65.7429 107.977 65.897 107.883 65.9929C107.835 66.0415 107.772 66.0661 107.709 66.0661Z" fill="#F57E00"/>
<path d="M91.2772 112.813C91.1427 112.813 91.0033 112.703 91.0033 112.569C91.0033 112.435 91.0807 112.326 91.2152 112.326L91.284 112.326C96.3689 112.326 101.392 111.017 105.803 108.542C105.922 108.475 106.069 108.518 106.135 108.634C106.2 108.752 106.158 108.9 106.042 108.965C101.557 111.482 96.4523 112.813 91.2772 112.813ZM120.851 87.7155C120.838 87.7155 120.825 87.7142 120.812 87.7124C120.679 87.6903 120.589 87.5656 120.611 87.433C120.712 86.8127 120.795 86.1776 120.858 85.545C120.871 85.4117 120.998 85.322 121.124 85.3269C121.257 85.3404 121.355 85.459 121.342 85.5929C121.279 86.2353 121.194 86.8808 121.091 87.5116C121.072 87.6307 120.968 87.7155 120.851 87.7155ZM61.4471 79.9379C61.4397 79.9379 61.4318 79.9373 61.4238 79.9366C61.2899 79.9238 61.1923 79.8046 61.2053 79.6714C61.2673 79.0276 61.3508 78.3815 61.4522 77.752C61.4743 77.6199 61.5953 77.5314 61.731 77.5505C61.8637 77.572 61.9539 77.6967 61.9325 77.8294C61.8323 78.449 61.7507 79.0847 61.6893 79.718C61.6768 79.844 61.5712 79.9379 61.4471 79.9379ZM76.5777 56.7222C76.4929 56.7222 76.4106 56.6773 76.3658 56.5981C76.3 56.4814 76.3413 56.3334 76.4585 56.2671C80.9568 53.7305 86.081 52.3896 91.277 52.3896H91.3998C91.5344 52.3896 91.6431 52.4984 91.6431 52.6329C91.6431 52.7673 91.5344 52.8761 91.3998 52.8761H91.277C86.1645 52.8761 81.1233 54.1953 76.6968 56.6908C76.6594 56.7117 76.6182 56.7222 76.5777 56.7222Z" fill="#0066DB"/>
<path d="M91.2763 64.1426C81.0811 64.1426 72.8164 72.4073 72.8164 82.6024C72.8164 92.7974 81.0811 101.062 91.2763 101.062C101.471 101.062 109.736 92.7975 109.736 82.6024C109.736 72.4072 101.471 64.1426 91.2763 64.1426Z" fill="white"/>
<path d="M91.2757 101.305C80.9628 101.305 72.5723 92.9146 72.5723 82.6018C72.5723 72.2889 80.9627 63.8984 91.2757 63.8984C101.589 63.8984 109.979 72.2889 109.979 82.6018C109.979 92.9146 101.588 101.305 91.2757 101.305ZM91.2757 64.3849C81.2306 64.3849 73.0588 72.5567 73.0588 82.6018C73.0588 92.6469 81.2306 100.819 91.2757 100.819C101.321 100.819 109.493 92.6469 109.493 82.6018C109.492 72.5568 101.321 64.3849 91.2757 64.3849Z" fill="#0073B3"/>
<path d="M93.2352 81.6745C94.6727 80.9558 95.6505 79.4766 95.6505 77.7717C95.6505 75.3565 93.6865 73.3926 91.2714 73.3926C88.8644 73.3926 86.9005 75.3565 86.9005 77.7717C86.9005 79.4766 87.8783 80.9558 89.3073 81.6745C86.0398 82.5354 83.6328 85.5189 83.6328 89.0623C83.6328 91.4525 98.9181 91.4525 98.9181 89.0623C98.9181 85.5189 96.503 82.5354 93.2352 81.6745Z" fill="#0073B3"/>
</svg>
