<svg width="191" height="54" viewBox="0 0 191 54" fill="none" xmlns="http://www.w3.org/2000/svg">
<g clip-path="url(#clip0_1156_4183)">
<path d="M7.88813 24.6069C10.0142 24.6069 12.0764 24.776 14.1007 24.5703C17.8972 24.1862 21.2548 24.7074 23.5039 28.5434C23.7833 29.0204 24.2541 29.8449 24.983 29.0707C25.5114 28.5099 26.3497 28.0313 25.9321 26.9706C24.3376 22.9152 22.743 18.8567 21.1075 14.8241C20.696 13.8137 19.7408 14.1932 18.9997 14.1886C14.6155 14.1597 10.2298 14.1734 5.59961 14.1734C6.20705 12.1922 6.9542 11.1711 8.9223 11.2183C14.3892 11.3463 19.844 11.2625 25.9837 11.2625C23.2138 13.3291 24.0809 15.2417 24.9906 17.3083C26.3011 20.2908 27.3459 23.4044 28.6504 26.3961C29.2745 27.8241 29.2016 28.7278 28.1007 29.8906C24.4348 33.7556 24.2373 34.0345 21.0164 29.8144C18.5183 26.5408 15.475 27.6549 12.5897 27.6335C10.4637 27.6198 8.96786 26.9615 7.85169 25.0991C7.82283 25.0503 7.8608 24.9498 7.88813 24.6069Z" fill="#28508B"/>
<path d="M0 53.1853C2.16248 51.012 4.35837 48.8692 6.47226 46.6472C7.23156 45.8547 7.72358 45.8547 8.45858 46.6472C9.14954 47.3924 9.4153 47.999 8.47529 48.6757C7.74484 49.2014 6.99314 49.6952 6.25054 50.1997C6.4267 50.4832 6.60387 50.7656 6.78205 51.047C12.8671 51.047 18.9536 51.0303 25.0401 51.0638C26.1366 51.0638 26.1032 50.4191 26.1897 49.5977C26.5982 45.623 25.968 42.2824 22.6423 39.5269C19.4684 36.9041 16.7911 33.6305 13.6446 30.3828C15.8207 29.8875 17.3636 29.8921 18.867 31.5883C21.7524 34.839 24.8473 37.8703 27.8511 40.9991C28.4798 41.6529 29.0659 42.2656 29.0386 43.369C28.9581 46.3424 28.9885 49.3203 29.0265 52.2967C29.0401 53.3163 28.8032 53.8817 27.684 53.8787C18.5512 53.8543 9.41935 53.8497 0.288533 53.865L0 53.1853Z" fill="#28508B"/>
<path d="M8.39232 15.4825C6.97243 17.6512 5.78793 19.6766 4.39082 21.5237C3.34906 22.8953 3.3278 23.7274 4.62012 25.0488C10.4212 30.962 16.0293 37.0885 21.838 42.9896C23.4158 44.5959 23.9549 46.2114 23.4705 48.374C22.6611 48.3831 22.3634 47.6851 21.9412 47.2416C14.9557 39.9263 8.0233 32.5561 0.984603 25.2957C-0.209014 24.0658 -0.242423 23.255 0.74011 21.9687C1.92638 20.455 2.99267 18.8504 3.92916 17.1696C4.92384 15.3133 6.2435 14.7479 8.39232 15.4825Z" fill="#28508B"/>
<path d="M26.4706 0.53947C25.4319 2.9962 24.4494 5.22889 23.5458 7.49206C23.0432 8.75548 22.2839 9.27516 20.864 9.23096C17.4 9.12123 13.9316 9.19897 10.4646 9.18525C9.72354 9.18525 8.8306 9.39555 8.40692 8.56496C7.13433 6.07776 5.8663 3.58294 4.73647 1.02868C4.29759 0.0365365 5.04019 -0.256077 5.79948 0.227038C7.57321 1.35177 10.4327 1.5377 9.82073 4.84331C9.58838 6.10063 10.6104 6.11739 11.4912 6.08387C12.293 6.05339 13.3742 6.32618 13.2846 4.97285C13.1814 3.39091 13.8496 2.85293 15.3697 2.99162C16.6711 3.10744 18.1867 2.64872 18.0758 4.88294C18.006 6.29266 19.1753 6.0808 20.0925 6.08842C20.9642 6.08842 21.4258 5.82478 21.564 4.80826C21.968 1.80898 22.9217 0.998201 26.4706 0.53947Z" fill="#E5A908"/>
<path d="M5.01911 31.061C6.1778 32.3138 7.62957 33.1535 7.36534 35.3283C7.24537 36.3235 7.98492 36.8081 8.49517 37.3934C10.5893 39.7998 12.7032 42.1864 14.8034 44.5883C16.6789 46.7326 16.6759 46.7371 16.3904 50.1128C14.808 49.0201 13.7556 47.4031 12.5119 46.0468C11.0069 44.4069 9.69487 42.5004 8.05934 41.0617C5.17552 38.5333 3.97735 35.438 5.01911 31.061Z" fill="#28508B"/>
<path d="M21.8293 20.1932C20.8619 19.736 20.3547 19.1432 20.0723 18.3141C21.723 18.2211 21.723 18.2211 21.8293 20.1932Z" fill="#E5A908"/>
<path fill-rule="evenodd" clip-rule="evenodd" d="M105.091 14.2854C105.091 14.2854 105.069 14.0068 104.29 13.9164C104.29 13.9164 103.981 12.2981 101.795 12.7649C101.385 12.8646 100.985 12.9979 100.598 13.1635C100.586 13.1635 99.9338 13.1524 99.7389 13.1894C99.0493 13.3204 98.2789 13.6858 98.2348 14.1803C98.2146 14.4257 98.9556 13.8887 99.0861 14.6287C99.0052 14.8649 98.6945 15.4369 98.6136 15.7248C98.2329 17.1106 98.5106 18.2049 98.9077 19.1976C99.0015 19.4357 99.1229 19.1312 99.1229 19.0887C99.1376 17.4723 100.042 15.5329 103.243 14.7947C104.148 14.5844 105.09 14.5844 105.091 14.2854Z" fill="#28508B"/>
<path d="M96.1429 19.9118C100.692 21.054 105.02 19.1736 109.321 17.7749C111.564 17.0479 113.787 16.5478 116.143 16.8246C118.402 17.0921 120.556 17.8893 122.751 18.4853C124.805 19.0399 126.923 19.3173 129.05 19.3102C130.852 19.3102 132.614 19.3766 134.408 19.0887C136.672 18.7197 138.862 17.9816 141.107 17.5258C143.41 17.0448 145.792 17.108 148.066 17.7103C152.812 18.9651 157.346 21.7699 162.379 20.3971C162.427 20.3841 162.407 20.3159 162.362 20.3214C157.617 20.9451 153.288 18.1347 148.899 16.7213C146.877 16.068 144.823 15.7377 142.703 15.9831C140.61 16.2212 138.584 16.8504 136.539 17.369C132.555 18.3802 128.149 18.4946 124.156 17.4335C121.997 16.8596 119.927 15.9794 117.768 15.4037C115.753 14.8441 113.646 14.6979 111.573 14.9738C106.686 15.6289 101.852 18.7861 96.8379 17.5037C95.3522 17.1088 94.6553 19.5372 96.1429 19.9118Z" fill="#28508B"/>
<path d="M35.3408 17.5239C35.3408 17.8745 35.3408 18.4042 35.3665 19.1109C35.3923 19.8177 35.3941 20.3472 35.3941 20.6978C35.3941 20.7587 35.3794 20.7956 35.3537 20.8104C35.3156 20.8195 35.2768 20.8257 35.2378 20.8289C34.9801 20.8557 34.721 20.8674 34.4619 20.8639C34.185 20.8725 33.9078 20.8608 33.6326 20.8289C33.5462 20.8104 33.5039 20.7643 33.5039 20.6905C33.5039 20.7366 33.5168 20.4746 33.5444 19.9025C33.5983 18.6957 33.6247 17.9028 33.6234 17.5239C33.6234 17.2047 33.6142 16.7249 33.5922 16.0865C33.5701 15.448 33.5627 14.9793 33.5627 14.6509C33.5627 14.5863 33.5958 14.5531 33.6639 14.5531C33.7319 14.5531 33.8956 14.553 34.0813 14.5659C34.267 14.5789 34.4049 14.5807 34.4987 14.5807C34.5924 14.5807 34.7267 14.5807 34.905 14.5659C35.0834 14.5512 35.2213 14.5531 35.3132 14.5531C35.4051 14.5531 35.4419 14.5863 35.4419 14.6509C35.4419 14.9701 35.4254 15.4498 35.3904 16.0865C35.3555 16.7231 35.3408 17.2047 35.3408 17.5239Z" fill="#E5A908"/>
<path d="M38.4345 17.5239C38.4345 17.8745 38.4345 18.4042 38.4603 19.1109C38.486 19.8177 38.4879 20.3472 38.4879 20.6978C38.4879 20.7587 38.4731 20.7956 38.4474 20.8104C38.4093 20.8195 38.3706 20.8257 38.3316 20.8289C38.0738 20.8557 37.8147 20.8674 37.5556 20.8639C37.2787 20.8725 37.0016 20.8608 36.7264 20.8289C36.6399 20.8104 36.5977 20.7643 36.5977 20.6905C36.5977 20.7366 36.6105 20.4746 36.6381 19.9025C36.6908 18.6957 36.7172 17.9028 36.7172 17.5239C36.7172 17.2053 36.7074 16.7262 36.6878 16.0865C36.6657 15.4498 36.6565 14.9793 36.6565 14.6509C36.6565 14.5863 36.6896 14.5531 36.7576 14.5531C36.8257 14.5531 36.9893 14.553 37.175 14.5659C37.3607 14.5789 37.4986 14.5807 37.5924 14.5807C37.6862 14.5807 37.8204 14.5807 37.9988 14.5659C38.1771 14.5512 38.315 14.5531 38.407 14.5531C38.4989 14.5531 38.5357 14.5863 38.5357 14.6509C38.5357 14.9701 38.5191 15.4498 38.486 16.0865C38.4529 16.7231 38.4345 17.2047 38.4345 17.5239Z" fill="#E5A908"/>
<path d="M44.0571 15.9223C44.0571 15.9814 44.0258 16.0109 43.9596 16.0109C43.8475 16.0109 43.408 15.9888 42.6192 15.9445C42.6008 16.6998 42.5916 17.2263 42.5916 17.524C42.5916 17.8746 42.6057 18.4036 42.6339 19.111C42.6621 19.8183 42.6762 20.3473 42.6762 20.6979C42.6762 20.7551 42.6633 20.792 42.6357 20.8068C42.595 20.8187 42.5531 20.8262 42.5107 20.8289C42.2506 20.8567 41.989 20.8684 41.7274 20.864C41.4579 20.8701 41.1882 20.8584 40.9202 20.8289C40.9029 20.8282 40.8859 20.824 40.8702 20.8167C40.8545 20.8093 40.8404 20.7989 40.8288 20.786C40.8172 20.7731 40.8082 20.7581 40.8024 20.7417C40.7967 20.7253 40.7942 20.7079 40.7952 20.6905C40.7952 20.3375 40.8099 19.8097 40.8393 19.1073C40.8687 18.4048 40.8841 17.8771 40.8853 17.524C40.8853 17.2915 40.8724 16.7711 40.8485 15.9666C40.2546 16.0256 39.7802 16.057 39.4272 16.057C39.3794 16.057 39.3555 16.0404 39.3555 16.0109C39.3693 15.8953 39.3901 15.7807 39.418 15.6677C39.4658 15.4592 39.4934 15.3318 39.4989 15.2875C39.5081 15.1473 39.5173 15.007 39.5301 14.8668C39.5504 14.6435 39.5853 14.5309 39.6368 14.5309H39.6993C40.4084 14.6048 41.1212 14.6362 41.8341 14.6251C42.1007 14.6251 42.5953 14.5974 43.3142 14.5402L43.8971 14.4959C43.9318 14.4924 43.9669 14.4962 44.0001 14.507C44.0093 14.507 44.0148 14.5439 44.0185 14.5937C44.0185 14.6749 44.0185 14.7782 44.0093 14.9296C44.0001 15.0809 44.0001 15.1989 44.0001 15.2654C44.0028 15.3754 44.0126 15.4851 44.0295 15.5938C44.0451 15.7027 44.0543 15.8124 44.0571 15.9223Z" fill="#E5A908"/>
<path d="M52.8801 20.7845C52.8801 20.8048 52.8506 20.8196 52.79 20.8288C52.5068 20.8523 52.2227 20.8609 51.9386 20.8546C51.5507 20.8546 51.2859 20.8454 51.1462 20.8288C51.1081 20.8257 51.0704 20.8182 51.034 20.8066C51.0057 20.7828 50.9847 20.7515 50.9733 20.7162C50.9273 20.6 50.863 20.4265 50.7766 20.1977C50.6613 19.8988 50.4775 19.459 50.225 18.8783C50.1869 18.8162 50.1323 18.766 50.0673 18.7334C50.0023 18.7008 49.9296 18.6871 49.8572 18.6938C49.9455 18.6938 49.7929 18.703 49.3975 18.703C49.3534 18.703 49.3313 18.7787 49.3313 18.93C49.3313 19.133 49.3497 19.4356 49.3865 19.8379C49.4233 20.2401 49.4435 20.5428 49.4435 20.7457C49.4435 20.7974 49.4288 20.8269 49.4031 20.8361H49.278C49.1033 20.8472 48.8294 20.8528 48.458 20.8528C48.2021 20.8599 47.946 20.8513 47.6912 20.827C47.6048 20.8085 47.5625 20.7624 47.5625 20.6886C47.5625 20.3601 47.5778 19.8649 47.6085 19.2031C47.6391 18.5413 47.655 18.0449 47.6563 17.7139C47.6563 16.4518 47.6281 15.4676 47.5717 14.7615V14.6988C47.5717 14.6489 47.6158 14.6139 47.7133 14.5954C47.8107 14.577 48.2649 14.5604 49.0739 14.5419C49.6243 14.5308 50.0625 14.5253 50.3886 14.5253C50.9746 14.5004 51.5535 14.6611 52.0435 14.9848C52.2805 15.1529 52.4713 15.3784 52.5983 15.6404C52.7253 15.9023 52.7843 16.1922 52.7697 16.4831C52.7859 16.84 52.7231 17.1961 52.5859 17.5257C52.4205 17.8308 52.1831 18.0906 51.8945 18.2823C51.8265 18.3303 51.7915 18.3746 51.7915 18.4152C51.7915 18.4152 51.9754 18.7842 52.3432 19.539C52.7109 20.2937 52.8801 20.707 52.8801 20.7845ZM51.0083 16.771C51.0083 16.402 50.8893 16.1504 50.6515 16.0163C50.3813 15.8914 50.0842 15.8362 49.7873 15.8557C49.5042 15.8557 49.3552 15.8982 49.3369 15.9849C49.3107 16.2763 49.3015 16.569 49.3093 16.8614C49.3093 16.9291 49.3093 17.0306 49.3093 17.1659C49.3093 17.2988 49.3093 17.4003 49.3093 17.4649C49.3093 17.4796 49.3571 17.4944 49.4527 17.5091C49.6414 17.5371 49.8319 17.5506 50.0227 17.5497C50.692 17.5497 51.0083 17.2914 51.0083 16.771Z" fill="#E5A908"/>
<path d="M59.9461 17.6975C59.97 18.5642 59.6514 19.4053 59.0599 20.0373C58.7601 20.341 58.4032 20.5819 58.0099 20.746C57.6166 20.9101 57.1947 20.9942 56.7687 20.9933C56.3428 20.9925 55.9212 20.9067 55.5286 20.741C55.1359 20.5753 54.78 20.333 54.4814 20.0281C53.9097 19.3855 53.5938 18.5543 53.5938 17.6928C53.5938 16.8314 53.9097 16.0002 54.4814 15.3576C54.778 15.0504 55.1331 14.8062 55.5255 14.6394C55.918 14.4726 56.3399 14.3866 56.7661 14.3866C57.1923 14.3866 57.6141 14.4726 58.0066 14.6394C58.399 14.8062 58.7541 15.0504 59.0507 15.3576C59.6449 15.9886 59.9667 16.8296 59.9461 17.6975ZM58.2563 17.6975C58.2671 17.2802 58.1229 16.8737 57.8518 16.5571C57.7183 16.4015 57.5526 16.2771 57.3662 16.1923C57.1799 16.1076 56.9774 16.0646 56.7728 16.0664C56.5683 16.0681 56.3665 16.1146 56.1817 16.2025C55.9968 16.2904 55.8332 16.4177 55.7024 16.5755C55.4338 16.8913 55.2842 17.2915 55.2795 17.7066C55.2748 18.1217 55.4153 18.5253 55.6766 18.8471C55.8117 19.0033 55.9799 19.1273 56.1689 19.21C56.3578 19.2927 56.5628 19.3319 56.7688 19.325C56.9731 19.3264 57.175 19.2819 57.3599 19.1947C57.5447 19.1075 57.7078 18.9799 57.8371 18.8212C58.1137 18.5098 58.2633 18.1054 58.2563 17.6882V17.6975Z" fill="#E5A908"/>
<path d="M67.1746 17.6974C67.1985 18.5642 66.8799 19.4053 66.2884 20.0372C65.9887 20.3409 65.632 20.5817 65.2388 20.7458C64.8457 20.9099 64.424 20.994 63.9981 20.9931C63.5723 20.9923 63.151 20.9065 62.7585 20.7408C62.366 20.5751 62.0102 20.3328 61.7118 20.028C61.1378 19.3866 60.8203 18.5549 60.8203 17.6928C60.8203 16.8307 61.1378 15.999 61.7118 15.3576C62.0082 15.0504 62.3631 14.8062 62.7554 14.6394C63.1477 14.4726 63.5694 14.3867 63.9955 14.3867C64.4215 14.3867 64.8432 14.4726 65.2355 14.6394C65.6279 14.8062 65.9828 15.0504 66.2792 15.3576C66.8734 15.9885 67.1952 16.8295 67.1746 17.6974ZM65.4867 17.6974C65.4968 17.2799 65.3519 16.8734 65.0803 16.557C64.9469 16.4015 64.7814 16.2771 64.5952 16.1924C64.409 16.1076 64.2067 16.0646 64.0022 16.0664C63.7978 16.0682 63.5962 16.1146 63.4115 16.2025C63.2268 16.2904 63.0634 16.4177 62.9327 16.5755C62.6646 16.8913 62.515 17.2914 62.51 17.7063C62.5049 18.1211 62.6447 18.5247 62.9051 18.847C63.042 18.9996 63.2098 19.1212 63.3973 19.2036C63.5847 19.286 63.7875 19.3273 63.9921 19.3249C64.1967 19.3224 64.3985 19.2763 64.5839 19.1894C64.7693 19.1026 64.9342 18.977 65.0674 18.8212C65.344 18.5098 65.4937 18.1053 65.4867 17.6882V17.6974Z" fill="#E5A908"/>
<path d="M73.5246 20.7846C73.5246 20.8055 73.4952 20.8203 73.4363 20.8289C73.1532 20.8523 72.869 20.8609 72.585 20.8547C72.1952 20.8547 71.9304 20.8455 71.7907 20.8289C71.7532 20.8259 71.7162 20.8184 71.6804 20.8067C71.6513 20.7832 71.6296 20.7518 71.6179 20.7163C71.5719 20.6 71.5075 20.4266 71.4211 20.1978C71.3059 19.8988 71.122 19.459 70.8695 18.8784C70.8314 18.8163 70.7768 18.7661 70.7118 18.7335C70.6469 18.7009 70.5741 18.6872 70.5018 18.6939C70.5918 18.6939 70.4374 18.7031 70.0439 18.7031C69.9979 18.7031 69.9759 18.7788 69.9759 18.9301C69.9759 19.1331 69.9943 19.4357 70.031 19.8379C70.0697 20.2402 70.088 20.5428 70.088 20.7458C70.088 20.7975 70.0733 20.827 70.0476 20.8362H69.9226C69.7479 20.8473 69.4739 20.8528 69.1025 20.8528C68.8466 20.8599 68.5906 20.8513 68.3357 20.827C68.2493 20.8086 68.207 20.7624 68.207 20.6886C68.207 20.3602 68.2224 19.865 68.253 19.2032C68.2836 18.5413 68.2996 18.0449 68.3008 17.714C68.3008 16.4518 68.2726 15.4677 68.2162 14.7616V14.6988C68.2162 14.649 68.2604 14.6139 68.3578 14.5955C68.4553 14.577 68.9094 14.5604 69.7185 14.542C70.2688 14.5309 70.7071 14.5253 71.0331 14.5253C71.6192 14.5001 72.1982 14.6609 72.688 14.9848C72.925 15.153 73.1159 15.3785 73.2428 15.6404C73.3698 15.9024 73.4288 16.1923 73.4143 16.4832C73.4304 16.8401 73.3676 17.1961 73.2304 17.5258C73.0651 17.8309 72.8277 18.0907 72.539 18.2824C72.471 18.3303 72.4379 18.3746 72.4379 18.4152C72.4379 18.4152 72.6218 18.7843 72.9895 19.539C73.3573 20.2937 73.5246 20.7071 73.5246 20.7846ZM71.6509 16.7711C71.6509 16.402 71.532 16.1504 71.2942 16.0164C71.024 15.8915 70.7269 15.8363 70.43 15.8558C70.1469 15.8558 69.9979 15.8983 69.9796 15.985C69.9544 16.2764 69.9458 16.5691 69.9538 16.8615C69.9538 16.9298 69.9538 17.0313 69.9538 17.166C69.9538 17.3007 69.9538 17.4003 69.9538 17.4649C69.9538 17.4797 70.0016 17.4944 70.0972 17.5092C70.2859 17.5371 70.4765 17.5506 70.6672 17.5498C71.3273 17.5498 71.6509 17.2915 71.6509 16.7711Z" fill="#E5A908"/>
<path d="M79.8891 20.3825C79.8945 20.4371 79.881 20.4919 79.8509 20.5376C79.8207 20.5833 79.7758 20.6172 79.7236 20.6335C79.4918 20.6745 79.2562 20.6894 79.0212 20.6778C78.7526 20.6838 78.484 20.669 78.2177 20.6335C78.1627 20.6263 78.1093 20.6101 78.0596 20.5855C78.0193 20.5501 77.9868 20.5067 77.9639 20.4582C77.747 20.0596 77.5318 19.6591 77.3186 19.2606C77.1335 18.8905 76.9215 18.5346 76.6842 18.1958C76.3643 18.3127 76.2043 18.3958 76.2043 18.445C76.2043 18.6701 76.2135 19.0078 76.23 19.458C76.2466 19.9083 76.2576 20.2497 76.2576 20.4766C76.2602 20.495 76.2591 20.5136 76.2543 20.5315C76.2496 20.5494 76.2413 20.5662 76.23 20.5808C76.2187 20.5954 76.2045 20.6076 76.1884 20.6167C76.1723 20.6257 76.1546 20.6315 76.1363 20.6335C75.8584 20.6632 75.579 20.6749 75.2996 20.6685C75.0435 20.676 74.7873 20.6643 74.5329 20.6335C74.4465 20.615 74.4023 20.5689 74.4023 20.4951C74.4023 20.1722 74.4189 19.6868 74.4502 19.0354C74.4814 18.3841 74.4961 17.8988 74.4961 17.574C74.4961 17.2492 74.4814 16.7086 74.452 16.0147C74.4226 15.3209 74.4079 14.8024 74.4079 14.4555C74.4058 14.4425 74.4067 14.4292 74.4106 14.4166C74.4145 14.404 74.4213 14.3925 74.4304 14.383C74.4395 14.3735 74.4507 14.3663 74.463 14.3619C74.4754 14.3575 74.4886 14.3561 74.5016 14.3577C74.5936 14.3577 74.7315 14.3576 74.9172 14.3706C75.1029 14.3835 75.2426 14.3853 75.3346 14.3853C75.4265 14.3853 75.5699 14.3853 75.7575 14.3706C75.945 14.3558 76.0848 14.3577 76.1767 14.3577C76.2282 14.3577 76.2521 14.3853 76.2521 14.4389C76.2521 14.6584 76.2411 14.9924 76.219 15.4371C76.1969 15.8818 76.1859 16.2177 76.1859 16.4373C76.1859 16.6938 76.2558 16.8229 76.3955 16.8229C76.5453 16.8321 76.6953 16.811 76.8368 16.761C76.9783 16.7109 77.1084 16.6328 77.2193 16.5314C77.4155 16.3018 77.5654 16.0361 77.6605 15.749C77.7562 15.4599 77.9125 15.0336 78.1294 14.4702C78.1467 14.4326 78.1753 14.4014 78.2114 14.3811C78.2474 14.3609 78.2889 14.3527 78.3298 14.3577C78.4071 14.3577 78.5229 14.3576 78.6792 14.3706C78.8355 14.3835 78.9513 14.3853 79.0286 14.3853C79.1058 14.3853 79.229 14.3853 79.3871 14.3761C79.5452 14.3669 79.6648 14.3761 79.742 14.3761C79.7562 14.3736 79.7708 14.3746 79.7846 14.3789C79.7984 14.3832 79.811 14.3906 79.8214 14.4006C79.8318 14.4107 79.8396 14.4231 79.8444 14.4368C79.8491 14.4505 79.8506 14.4651 79.8486 14.4794C79.8133 14.7253 79.7517 14.9665 79.6647 15.1991C79.297 16.3259 78.8735 17.0296 78.3942 17.3101C78.2949 17.3673 78.2471 17.4135 78.2471 17.4485C78.2471 17.4485 78.5211 17.8957 79.069 18.7901C79.6157 19.6832 79.8891 20.214 79.8891 20.3825Z" fill="#E5A908"/>
<path d="M85.3381 19.4375C85.3278 19.6744 85.3026 19.9104 85.2627 20.1442C85.243 20.3712 85.1954 20.595 85.1211 20.8104C85.1065 20.8365 85.0851 20.8582 85.0592 20.8732C85.0333 20.8881 85.0039 20.8957 84.974 20.8952C84.929 20.894 84.8842 20.8896 84.8398 20.8823C84.6228 20.8528 83.9897 20.838 82.9404 20.838H81.9199H80.9049C80.8056 20.838 80.7578 20.7937 80.7578 20.707C80.7578 20.373 80.7762 19.873 80.813 19.2031C80.8497 18.5333 80.8681 18.0314 80.8681 17.6974C80.8681 17.3634 80.8516 16.7249 80.8148 15.7967C80.8062 15.5593 80.7903 15.2032 80.767 14.7283V14.6655C80.767 14.5973 80.7983 14.5622 80.8792 14.5622C81.098 14.5622 81.4308 14.5622 81.8702 14.5807C82.3097 14.5991 82.6425 14.5991 82.8613 14.5991C83.0801 14.5991 83.4129 14.5991 83.8432 14.5807C84.2734 14.5622 84.6062 14.5622 84.8232 14.5622C84.9777 14.5622 85.0659 14.6212 85.0898 14.7467C85.1045 14.815 85.1284 15.0235 85.1597 15.3705C85.191 15.7174 85.2057 15.924 85.2057 16.0034C85.2057 16.0827 85.1762 16.0975 85.1174 16.0975H85.0236C84.233 16.0323 83.5226 15.9997 82.8926 15.9997C82.7363 15.9997 82.6388 16.0366 82.6039 16.1104C82.5827 16.2241 82.5753 16.34 82.5818 16.4555C82.5657 16.5957 82.5968 16.7373 82.6701 16.8578C82.7102 16.891 82.7567 16.9157 82.8066 16.9303C82.8566 16.9448 82.909 16.9491 82.9606 16.9426H83.1334C83.2199 16.9426 83.2916 16.9426 83.3467 16.9426C83.7218 16.9426 84.1012 16.9322 84.4849 16.9113L84.7294 16.8891C84.8093 16.878 84.8897 16.8718 84.9703 16.8707C84.9845 16.8682 84.9991 16.8692 85.0129 16.8734C85.0267 16.8777 85.0393 16.8852 85.0497 16.8952C85.0601 16.9053 85.068 16.9176 85.0727 16.9313C85.0774 16.945 85.0789 16.9596 85.077 16.974C85.0373 17.2005 85.0103 17.4291 84.9961 17.6586C84.9724 17.8965 84.9608 18.1355 84.9611 18.3746C84.9611 18.4336 84.917 18.4632 84.8324 18.4632L84.4297 18.4189C84.2606 18.4004 83.8744 18.3912 83.2713 18.3912H82.7933C82.6719 18.3912 82.6002 18.4226 82.58 18.4816C82.58 18.4964 82.58 18.5887 82.58 18.7584C82.5703 18.9063 82.5852 19.0547 82.6241 19.1976C82.6738 19.3101 82.865 19.3821 83.1941 19.3987H83.845C84.0031 19.3987 84.2367 19.384 84.5474 19.3563C84.8582 19.3286 85.0898 19.3138 85.2443 19.3138C85.3068 19.2769 85.3381 19.3304 85.3381 19.4375Z" fill="#E5A908"/>
<path d="M90.8693 19.4375C90.8581 19.6743 90.8329 19.9103 90.7939 20.1442C90.775 20.3715 90.7268 20.5955 90.6505 20.8104C90.6361 20.8366 90.6147 20.8585 90.5888 20.8734C90.5628 20.8884 90.5333 20.8959 90.5034 20.8952C90.459 20.8939 90.4148 20.8895 90.371 20.8823C90.154 20.8528 89.5209 20.838 88.4716 20.838H87.4511H86.4362C86.3369 20.838 86.2891 20.7937 86.2891 20.707C86.2891 20.373 86.3075 19.873 86.3442 19.2031C86.381 18.5333 86.3994 18.0314 86.3994 17.6974C86.3994 17.3634 86.381 16.7249 86.3461 15.7967C86.3375 15.5593 86.3209 15.2032 86.2964 14.7283V14.6655C86.2964 14.5973 86.3277 14.5622 86.4086 14.5622C86.6274 14.5622 86.9602 14.5622 87.3997 14.5807C87.8391 14.5991 88.1719 14.5991 88.3907 14.5991C88.6095 14.5991 88.9423 14.5991 89.3708 14.5807C89.7992 14.5622 90.1357 14.5622 90.3526 14.5622C90.5071 14.5622 90.5953 14.6212 90.6192 14.7467C90.6339 14.815 90.6579 15.0235 90.6891 15.3705C90.7204 15.7174 90.7351 15.924 90.7351 16.0034C90.7351 16.0827 90.7057 16.0975 90.6468 16.0975H90.553C89.7624 16.0323 89.052 15.9997 88.422 15.9997C88.2639 15.9997 88.1682 16.0366 88.1333 16.1104C88.11 16.2238 88.1019 16.3399 88.1094 16.4555C88.0937 16.5959 88.1254 16.7376 88.1995 16.8578C88.2393 16.891 88.2854 16.9156 88.3351 16.9302C88.3847 16.9448 88.4368 16.949 88.4882 16.9426H88.672C88.7585 16.9426 88.8302 16.9426 88.8853 16.9426C89.2604 16.9426 89.6392 16.9322 90.0217 16.9113L90.268 16.8891C90.3479 16.878 90.4283 16.8718 90.5089 16.8707C90.5231 16.8686 90.5375 16.8698 90.5511 16.8743C90.5648 16.8787 90.5772 16.8861 90.5875 16.8961C90.5978 16.9061 90.6056 16.9183 90.6105 16.9318C90.6154 16.9453 90.6171 16.9597 90.6156 16.974C90.5759 17.2005 90.5489 17.4291 90.5347 17.6586C90.5111 17.8965 90.4994 18.1355 90.4997 18.3746C90.4997 18.4336 90.4556 18.4632 90.3692 18.4632L89.9683 18.4189C89.7992 18.4004 89.413 18.3912 88.8099 18.3912H88.3374C88.216 18.3912 88.1535 18.4226 88.1241 18.4816C88.1241 18.4964 88.1241 18.5887 88.1241 18.7584C88.1138 18.9064 88.1293 19.055 88.1701 19.1976C88.2197 19.3101 88.4109 19.3821 88.7401 19.3987H89.391C89.5473 19.3987 89.7826 19.384 90.0934 19.3563C90.4041 19.3286 90.6358 19.3138 90.7902 19.3138C90.8362 19.2769 90.8693 19.3304 90.8693 19.4375Z" fill="#E5A908"/>
<path d="M50.3381 43.489C50.3565 43.7381 50.2278 43.8581 49.9519 43.8581C49.4412 43.7948 48.936 43.693 48.4405 43.5536C47.6082 43.3482 47.0952 43.2092 46.9015 43.1366C45.1443 43.8612 43.2666 44.2469 41.367 44.2733C38.5219 44.2733 36.1891 43.3223 34.3688 41.4205C32.5644 39.5457 31.6628 37.1769 31.6641 34.3143C31.6641 31.3876 32.5381 28.9592 34.2861 27.0291C36.0905 25.0349 38.4324 24.0373 41.3118 24.036C42.669 24.0274 44.0132 24.3014 45.2595 24.8406C46.515 25.3684 47.6028 26.2304 48.4056 27.3336C48.5221 27.4681 48.6031 27.6299 48.6409 27.8041C48.6409 28.0993 48.2291 28.7618 47.4053 29.7915C46.5816 30.8211 46.0502 31.336 45.8112 31.336C45.756 31.336 45.5439 31.1465 45.175 30.7676C44.77 30.3501 44.3052 29.9955 43.7959 29.7158C43.0828 29.334 42.2855 29.1386 41.4773 29.1475C40.097 29.1475 39.0018 29.6648 38.1915 30.6994C37.4376 31.6491 37.0607 32.8356 37.0607 34.2589C37.0607 35.7647 37.4517 36.9555 38.2338 37.8314C39.0428 38.7368 40.1884 39.1895 41.6704 39.1895C42.6081 39.1895 43.6568 38.9539 44.8164 38.4828C44.7882 38.1777 44.7055 37.402 44.5682 36.1559C44.4609 35.3846 44.3995 34.6076 44.3843 33.829C44.3843 33.6444 44.4431 33.5485 44.5682 33.5097C44.6396 33.4877 44.7142 33.4783 44.7888 33.482C45.0561 33.482 45.4587 33.5079 45.9969 33.5596C46.535 33.6112 46.942 33.6364 47.2178 33.6352C47.512 33.6352 47.9533 33.6149 48.5435 33.5725C49.1337 33.53 49.5732 33.5097 49.8692 33.5097C50.099 33.5097 50.213 33.6629 50.213 33.9674C50.213 34.4102 50.1879 35.0801 50.1377 35.9769C50.0862 36.8718 50.0623 37.5417 50.0623 37.9846C50.0623 39.1766 50.1493 40.9604 50.3234 43.3359L50.3381 43.489Z" fill="#E5A908"/>
<path d="M71.6328 43.5849C71.6328 43.7529 71.517 43.8673 71.2872 43.9319C71.0114 44.0057 70.1533 44.0426 68.713 44.0426C67.3964 44.0426 66.55 44.0057 66.1737 43.9319C66.022 43.9036 65.8831 43.8281 65.7765 43.7162C65.6699 43.6043 65.6011 43.4615 65.5798 43.3082C65.2672 41.9795 65.022 41.2685 64.8443 41.175C64.6972 41.1098 63.464 41.0778 61.1448 41.0791C59.5819 41.0791 58.7496 41.1203 58.6478 41.2027C58.4915 41.3522 58.3169 41.8449 58.1238 42.6789C57.9485 43.4503 57.7383 43.8654 57.4931 43.9245C57.1805 43.9983 56.1318 44.0352 54.3471 44.0352C52.9386 44.0352 52.2344 43.9017 52.2344 43.6348C52.2344 43.3887 53.2763 40.4363 55.3602 34.7774C57.6145 28.6547 58.8403 25.2889 59.0376 24.68C59.148 24.3294 59.2767 24.1541 59.4238 24.1541C59.6689 24.1541 60.0526 24.1768 60.5748 24.2224C61.097 24.2679 61.4862 24.2913 61.7424 24.2925C61.9875 24.2925 62.3553 24.2765 62.8456 24.2445C63.3359 24.2125 63.6976 24.1959 63.9305 24.1947C64.1051 24.1947 64.2651 24.3479 64.4122 24.6523C64.8645 25.6217 66.1804 28.9432 68.3599 34.6169C70.5419 40.3471 71.6328 43.3364 71.6328 43.5849ZM61.8472 30.9669C61.6547 31.3741 61.3281 32.2562 60.8672 33.6131C60.3707 35.0548 60.1225 35.9 60.1225 36.1485C60.1225 36.3146 60.3983 36.4068 60.9499 36.4253C61.2343 36.4437 61.7038 36.4529 62.3583 36.4529C62.9651 36.4529 63.3004 36.3791 63.3641 36.2315C63.3839 36.1721 63.3933 36.1096 63.3917 36.047C63.3917 35.7407 63.1803 34.8998 62.7574 33.5244C62.3443 32.1897 62.0409 31.3372 61.8472 30.9669Z" fill="#E5A908"/>
<path d="M94.7761 43.5019C94.7761 43.7898 94.6437 43.9319 94.3771 43.9319H89.4861C89.2176 43.9319 89.0853 43.7713 89.0853 43.4465C89.0853 42.5153 89.1196 41.1165 89.1882 39.2503C89.2569 37.3841 89.2912 35.9854 89.2912 35.0542C89.2912 34.7866 89.2507 34.6427 89.168 34.6242C89.0675 34.6796 88.4509 36.106 87.3183 38.9035C86.6563 40.547 85.9938 42.1862 85.3306 43.8211C85.3044 43.9045 85.2599 43.981 85.2004 44.0448C85.1409 44.1087 85.0679 44.1584 84.9868 44.1902C84.9389 44.1994 84.7551 44.2031 84.4351 44.2031C83.9571 44.2031 83.6721 44.1108 83.5801 43.9263C83.0898 42.9114 82.4365 41.4352 81.6201 39.4976C80.762 37.4469 80.1135 35.9651 79.6747 35.0523C79.6453 34.9923 79.6025 34.9399 79.5497 34.8992C79.4751 35.0193 79.4409 35.1603 79.4522 35.3014C79.4522 36.2056 79.4755 37.5632 79.5221 39.374C79.5687 41.1849 79.592 42.5417 79.592 43.4447C79.592 43.7694 79.4614 43.93 79.204 43.93H74.5925C74.4086 43.93 74.2965 43.9005 74.2542 43.8396C74.2054 43.7433 74.1844 43.6353 74.1935 43.5278C74.1935 42.5215 74.2413 41.0095 74.3369 38.992C74.4325 36.9745 74.4809 35.4626 74.4822 34.4563C74.4822 33.3836 74.4362 31.3753 74.3443 28.4314C74.3357 27.6638 74.2946 26.5234 74.2211 25.0103L74.2064 24.7741C74.1978 24.5895 74.3908 24.4973 74.7856 24.4973C75.293 24.4973 76.0506 24.4807 77.0637 24.4493C78.0769 24.4179 78.8344 24.3995 79.3401 24.3995C79.4412 24.3995 79.5846 24.5933 79.7685 24.9826L83.7989 33.8603C84.0833 34.4606 84.3224 34.7608 84.516 34.7608C84.6178 34.7608 84.8341 34.4145 85.1651 33.7219C86.0943 31.7831 87.4696 28.8608 89.2912 24.9549C89.4475 24.5859 89.6185 24.4143 89.8024 24.4143C90.0696 24.4143 90.4723 24.4278 91.0104 24.4548C91.5485 24.4819 91.9555 24.4961 92.2313 24.4973C92.4618 24.4973 92.8142 24.4739 93.2886 24.4272C93.7611 24.3811 94.1141 24.3589 94.344 24.3589C94.6198 24.3589 94.7577 24.4696 94.7577 24.691C94.7577 25.7798 94.7185 27.4073 94.64 29.5737C94.5616 31.74 94.5223 33.3676 94.5223 34.4563C94.5223 35.4626 94.564 36.972 94.6474 38.9846C94.7307 40.9972 94.7736 42.503 94.7761 43.5019Z" fill="#E5A908"/>
<path d="M114.819 37.9476C114.819 39.6477 114.29 41.0562 113.232 42.1733C112.026 43.4551 109.909 44.0966 106.883 44.0979C106.653 44.0979 106.322 44.0979 105.89 44.085H104.91C101.513 44.085 99.4907 44.0155 98.8422 43.8765C98.5738 43.8211 98.4414 43.679 98.4414 43.4465C98.4414 42.4623 98.499 40.9665 98.6142 38.9588C98.7295 36.9511 98.7865 35.4509 98.7852 34.4581C98.7852 33.3854 98.7301 31.3722 98.6198 28.4185C98.5916 27.6619 98.5413 26.5265 98.469 25.0121L98.4543 24.8183C98.4543 24.643 98.5903 24.536 98.8901 24.4991C99.1898 24.4622 100.254 24.4437 102.084 24.4437C105.026 24.4437 106.742 24.453 107.232 24.4714C109.496 24.5551 111.167 24.9241 112.243 25.5786C113.67 26.457 114.383 27.9393 114.383 30.0257C114.364 30.6355 114.193 31.2308 113.885 31.7566C113.622 32.2247 113.307 32.6616 112.947 33.0594C112.607 33.4383 112.437 33.6136 112.436 33.5853C112.436 33.6505 112.555 33.752 112.794 33.8898C113.474 34.2987 114.006 34.9147 114.313 35.6483C114.647 36.3684 114.82 37.1533 114.819 37.9476ZM108.885 30.1494C108.885 29.3559 108.489 28.83 107.698 28.5717C107.256 28.4339 106.529 28.3643 105.517 28.3631C104.524 28.3631 104.026 28.437 104.026 28.5846C104.026 28.7691 104.011 29.0256 103.978 29.3817C103.945 29.7379 103.93 30.0017 103.93 30.177C103.93 31.1021 104.008 31.6194 104.163 31.7289C104.265 31.8126 104.85 31.8544 105.918 31.8544C107.896 31.8544 108.885 31.2861 108.885 30.1494ZM109.299 37.8996C109.299 37.0692 108.954 36.5064 108.264 36.2111C107.823 36.0266 107.105 35.9343 106.111 35.9343C104.923 35.9343 104.272 35.9768 104.178 36.0653C104.084 36.1539 104.026 36.7186 104.026 37.7612C104.026 38.8518 104.086 39.4533 104.209 39.5695C104.333 39.6858 104.991 39.743 106.197 39.743C107.19 39.743 107.889 39.6643 108.295 39.5068C108.963 39.235 109.298 38.6967 109.299 37.8922V37.8996Z" fill="#E5A908"/>
<path d="M122.488 33.9344C122.488 34.7914 122.5 36.0699 122.524 37.7698C122.548 39.4697 122.56 40.7427 122.561 41.5887C122.561 41.8378 122.459 41.9836 122.256 42.0306C121.637 42.125 121.015 42.1604 120.393 42.1363C119.767 42.1606 119.14 42.1253 118.517 42.0306C118.337 41.9836 118.228 41.9083 118.193 41.7955C118.168 41.6208 118.16 41.4422 118.168 41.2644C118.168 40.4544 118.18 39.2347 118.204 37.6053C118.228 35.9759 118.24 34.7499 118.241 33.9274C118.241 30.5871 118.152 27.9291 117.974 25.9534C117.957 25.7654 117.949 25.6409 117.949 25.5821C117.949 25.3471 118.058 25.2296 118.274 25.2296C118.49 25.2296 118.848 25.2649 119.316 25.3354C119.783 25.4059 120.127 25.4411 120.37 25.4411C120.614 25.4411 120.958 25.4129 121.43 25.3542C121.902 25.2954 122.253 25.2648 122.49 25.2648C122.684 25.2648 122.782 25.3823 122.782 25.6174C122.782 25.6644 122.782 25.7772 122.757 25.9534C122.566 28.6045 122.476 31.2689 122.488 33.9344Z" fill="#E5A908"/>
<path d="M140.101 28.7378C140.101 28.9223 140 29.0146 139.798 29.0146C139.448 29.0146 138.064 28.9451 135.644 28.8061C135.589 31.1435 135.561 32.7735 135.561 33.6961C135.561 34.7861 135.605 36.4253 135.692 38.6138C135.779 40.8023 135.823 42.4409 135.823 43.5297C135.823 43.7142 135.782 43.8175 135.699 43.8636C135.574 43.9014 135.444 43.9243 135.313 43.9319C134.506 44.0186 133.694 44.0555 132.882 44.0426C132.049 44.0607 131.214 44.0237 130.385 43.9319C130.332 43.9296 130.279 43.9165 130.231 43.8935C130.182 43.8706 130.139 43.8381 130.103 43.7981C130.067 43.7581 130.039 43.7113 130.021 43.6604C130.004 43.6096 129.996 43.5557 129.999 43.502C129.999 42.4132 130.045 40.7789 130.137 38.599C130.229 36.4191 130.275 34.7848 130.275 33.6961C130.275 32.9765 130.238 31.3698 130.165 28.8762C128.326 29.0607 126.855 29.153 125.752 29.153C125.605 29.153 125.531 29.1069 125.531 29.0146C125.569 28.6554 125.63 28.299 125.715 27.948C125.862 27.3022 125.945 26.9098 125.963 26.7707C125.99 26.3377 126.023 25.9035 126.061 25.468C126.126 24.7766 126.236 24.4303 126.392 24.4291L126.585 24.4438C128.077 24.6382 130.283 24.7354 133.204 24.7354C134.032 24.7354 135.559 24.6474 137.786 24.4715L139.594 24.3331C139.701 24.3212 139.81 24.3332 139.912 24.3682C139.939 24.3903 139.958 24.4807 139.967 24.6376C139.967 24.8867 139.958 25.2336 139.939 25.6765C139.921 26.1655 139.912 26.5124 139.912 26.7154C139.921 27.0564 139.95 27.3965 140 27.734C140.054 28.0662 140.088 28.4014 140.101 28.7378Z" fill="#E5A908"/>
<path d="M161.91 34.2367C161.91 37.1166 160.995 39.5314 159.163 41.4813C157.295 43.4496 154.93 44.4375 152.069 44.4448C149.208 44.4522 146.848 43.4545 144.989 41.4518C143.15 39.5056 142.23 37.1006 142.23 34.2367C142.23 31.3728 143.15 28.958 144.989 26.9921C146.866 24.9943 149.227 23.9954 152.069 23.9954C154.889 23.9954 157.244 24.9974 159.136 27.0013C160.985 28.9709 161.91 31.3827 161.91 34.2367ZM156.679 34.209C156.712 32.9161 156.264 31.6571 155.423 30.6771C155.015 30.1858 154.501 29.7935 153.92 29.5296C153.34 29.2656 152.707 29.1369 152.069 29.1529C150.771 29.1529 149.672 29.6795 148.771 30.7325C147.915 31.6971 147.447 32.947 147.46 34.2386C147.46 35.6508 147.869 36.8281 148.688 37.7704C149.546 38.7546 150.673 39.2466 152.069 39.2466C153.365 39.2466 154.468 38.725 155.379 37.6818C156.229 36.7274 156.692 35.4888 156.679 34.209Z" fill="#E5A908"/>
<path d="M190.434 43.7252C190.434 43.8211 190.296 43.8913 190.02 43.9319C189.494 44.0143 188.176 44.0561 186.065 44.0573C184.258 44.0573 183.032 44.0155 182.388 43.9319C182.212 43.9197 182.038 43.8849 181.871 43.8285C181.738 43.7197 181.637 43.576 181.58 43.4133C181.373 42.8733 181.07 42.0699 180.67 41.0034C180.132 39.6169 179.29 37.5736 178.144 34.8733C177.899 34.3333 177.326 34.0356 176.425 33.9802C176.84 34.0073 176.13 34.0208 174.294 34.0208C174.086 34.0208 173.983 34.3745 173.983 35.0819C173.983 36.023 174.069 37.4284 174.242 39.2983C174.415 41.1682 174.501 42.5743 174.5 43.5167C174.5 43.7529 174.437 43.8857 174.316 43.9319L173.736 43.9743C172.923 44.0297 171.653 44.0573 169.927 44.0573C167.952 44.0573 166.765 44.0155 166.365 43.9319C165.965 43.8482 165.766 43.6335 165.766 43.2879C165.766 41.7637 165.838 39.4644 165.983 36.3902C166.127 33.3159 166.2 31.0099 166.2 29.4722C166.2 23.614 166.068 19.0426 165.806 15.758L165.786 15.4683C165.774 15.2321 165.991 15.0728 166.439 14.9904C166.886 14.9079 168.994 14.8249 172.762 14.7413C175.315 14.6859 177.351 14.6582 178.87 14.6582C182.017 14.6582 184.584 15.3711 186.571 16.7969C188.821 18.4048 189.947 20.7249 189.947 23.7573C189.947 25.7798 189.657 27.3938 189.077 28.5994C188.497 29.8049 187.428 30.9736 185.868 32.1054C185.55 32.3268 185.392 32.5335 185.392 32.7273C185.392 32.715 186.234 34.4532 187.917 37.9421C189.6 41.4309 190.439 43.3586 190.434 43.7252ZM181.739 25.0878C181.739 23.3975 181.187 22.2288 180.084 21.5817C179.226 21.0896 177.887 20.8436 176.068 20.8436C174.756 20.8436 174.059 21.0441 173.977 21.4452C173.894 21.9176 173.852 23.2751 173.852 25.5177C173.852 25.8376 173.859 26.3087 173.873 26.9312C173.886 27.5537 173.893 28.0175 173.895 28.3226C173.895 28.3927 174.115 28.461 174.557 28.5311C175.434 28.657 176.32 28.7186 177.206 28.7156C180.23 28.707 181.742 27.4977 181.742 25.0878H181.739Z" fill="#E5A908"/>
<path fill-rule="evenodd" clip-rule="evenodd" d="M122.778 42.8241C124.506 42.0333 124.753 41.6925 125.723 41.056C126.895 40.2876 127.595 41.7644 126.397 42.4842C124.898 43.3852 122.778 42.8241 122.778 42.8241Z" fill="#28508B"/>
<path fill-rule="evenodd" clip-rule="evenodd" d="M126.141 42.4536C125.743 42.673 124.749 42.9812 123.807 42.8881C125.065 42.6842 125.563 42.3108 125.958 42.0909C126.262 41.9151 126.402 41.7236 126.542 41.9242C126.751 42.1467 126.392 42.3032 126.141 42.4536Z" fill="#DDF1FF"/>
<path fill-rule="evenodd" clip-rule="evenodd" d="M123.785 43.8159C119.738 43.469 119.067 41.335 117.351 39.1053C115.626 36.8618 114.415 38.7321 115.209 39.8499C116.002 40.9676 114.748 41.6908 112.819 39.3123C111.779 38.0306 111.48 37.7745 110.82 38.0526C109.723 38.5154 110.216 39.7389 111.544 40.876C113.945 42.9341 119.832 44.3503 123.785 43.8159Z" fill="#28508B"/>
<path fill-rule="evenodd" clip-rule="evenodd" d="M116.188 40.1174C116.811 40.7001 117.208 40.748 118.763 42.217C118.758 42.209 117.837 40.8253 116.583 39.7142C116.252 39.3847 115.99 38.9089 115.726 39.158C115.353 39.397 115.92 39.8416 116.188 40.1174Z" fill="#DDF1FF"/>
</g>
<defs>
<clipPath id="clip0_1156_4183">
<rect width="190.582" height="53.8818" fill="white"/>
</clipPath>
</defs>
</svg>
