<svg width="392" height="138" viewBox="0 0 392 138" fill="none" xmlns="http://www.w3.org/2000/svg">
<g clip-path="url(#clip0_533_2406)">
<path d="M20.1401 62.6166C25.5807 62.6166 30.8348 63.0452 36.0057 62.5243C45.703 61.5472 54.2754 62.8715 60.018 72.6353C60.7301 73.847 61.9353 75.9453 63.7954 73.9772C65.1456 72.5485 67.2845 71.3303 66.2197 68.6317C62.1468 58.3138 58.0924 47.9867 53.8995 37.7242C52.8485 35.1521 50.3956 36.1172 48.5152 36.1052C37.3181 36.0313 26.1201 36.0682 14.2949 36.0682C15.8308 31.0451 17.7545 28.4296 22.7814 28.5478C36.727 28.8747 50.6726 28.6614 66.3518 28.6614C59.2774 33.9191 61.4911 38.7853 63.8129 44.0459C67.1617 51.6347 69.8298 59.5726 73.162 67.1707C74.7551 70.803 74.5686 73.1045 71.7545 76.0617C62.3953 85.8956 61.891 86.6049 53.6659 75.8668C47.2851 67.5373 39.5162 70.3708 32.1472 70.32C26.7296 70.2821 22.8987 68.6086 20.0486 63.8708C19.9738 63.7424 20.0708 63.4903 20.1401 62.6166Z" fill="#28508B"/>
<path d="M0 135.335C5.5256 129.804 11.1297 124.353 16.5315 118.697C18.4581 116.682 19.7252 116.683 21.6018 118.703C23.3649 120.6 24.0437 122.142 21.6462 123.862C19.7797 125.2 17.8596 126.458 15.9617 127.751C16.4143 128.469 16.8671 129.188 17.3203 129.907C32.8618 129.907 48.4042 129.861 63.9457 129.949C66.745 129.965 66.6646 128.306 66.8807 126.217C67.9262 116.105 66.3174 107.588 57.8235 100.592C49.7184 93.9176 42.8823 85.5872 34.8456 77.3186C40.4044 76.0608 44.3433 76.0691 48.1816 80.3885C55.5294 88.6571 63.4534 96.3743 71.1245 104.334C72.7314 105.997 74.2304 107.555 74.1555 110.363C73.9533 117.931 74.029 125.51 74.1269 133.083C74.1611 135.677 73.5562 137.113 70.6968 137.106C47.3772 137.044 24.0579 137.033 0.73884 137.072L0 135.335Z" fill="#28508B"/>
<path d="M21.4292 39.3987C17.8042 44.9179 14.7796 50.0713 11.2129 54.7703C8.54934 58.2798 8.49115 60.379 11.7984 63.7389C26.6112 78.7863 40.9318 94.3666 55.764 109.393C59.7962 113.479 61.1723 117.589 59.9338 123.094C57.8669 123.117 57.1059 121.339 56.0281 120.211C38.1888 101.602 20.4871 82.8453 2.51117 64.3817C-0.536549 61.2527 -0.620592 59.1858 1.88777 55.9155C4.85144 52.0532 7.68305 48.0044 10.015 43.7034C12.5723 38.9674 15.9433 37.5285 21.4292 39.3987Z" fill="#28508B"/>
<path d="M67.5978 1.37226C64.9454 7.62469 62.4352 13.3055 60.13 19.0666C58.8444 22.2787 56.9078 23.603 53.281 23.4894C44.4361 23.2124 35.5765 23.4082 26.7224 23.3731C24.8319 23.3657 22.5517 23.9078 21.4684 21.7957C18.2202 15.4647 14.9823 9.11715 12.0962 2.61813C10.975 0.095913 12.8563 -0.649388 14.7976 0.578934C19.3285 3.44194 26.6319 3.9148 25.0693 12.3246C24.4754 15.5247 27.0826 15.5691 29.3361 15.4823C31.3864 15.4038 34.1441 16.0983 33.9169 12.6553C33.6528 8.62952 35.3586 7.25897 39.2412 7.60161C42.5659 7.8953 46.4338 6.7307 46.153 12.4161C45.9757 16.0031 48.9588 15.4638 51.3027 15.4823C53.5294 15.4989 54.7088 14.8127 55.0616 12.2258C56.0987 4.60469 58.5332 2.5424 67.5978 1.37226Z" fill="#E5A908"/>
<path d="M12.817 79.04C15.7788 82.2272 19.4869 84.3625 18.8108 89.9167C18.5024 92.4491 20.3938 93.6811 21.6941 95.1708C27.0433 101.297 32.4406 107.368 37.8036 113.478C42.5959 118.936 42.5867 118.948 41.8562 127.537C37.8156 124.757 35.129 120.643 31.952 117.193C28.1101 113.02 24.7585 108.167 20.5831 104.508C13.2169 98.0532 10.1581 90.1753 12.817 79.04Z" fill="#28508B"/>
<path d="M55.7482 51.3844C53.2786 50.2152 51.9838 48.7117 51.2616 46.6023C55.4776 46.3668 55.4776 46.3668 55.7482 51.3844Z" fill="#E5A908"/>
<path d="M0 95.7021C0.0609543 95.6494 -0.0120057 95.5035 0.12745 95.5118C0.147648 95.5171 0.166181 95.5275 0.18135 95.5418C0.196519 95.5562 0.207838 95.5741 0.214264 95.594C0.230888 95.7085 0.121911 95.727 0.0544919 95.7787L0 95.7021Z" fill="#28508B"/>
<path d="M349.16 97.3475H331.212C329.63 97.3475 328.84 96.9021 328.84 96.0111C328.846 95.541 329.024 95.0893 329.34 94.7413C329.674 94.3478 330.754 93.2956 332.581 91.5846C335.972 88.4063 338.484 85.4463 340.117 82.7046C340.96 81.3082 341.382 80.1033 341.382 79.0899C341.382 78.2174 341.127 77.5235 340.618 77.0082C340.109 76.4928 339.424 76.2352 338.563 76.2352C337.755 76.2352 337.139 76.3441 336.716 76.5621C336.292 76.7801 335.361 77.4918 333.921 78.6973C333.535 79.0113 333.026 79.1687 332.394 79.1693C331.567 79.1693 330.808 78.8503 330.114 78.2125C329.421 77.5746 329.074 76.8804 329.074 76.1299C329.074 75.4489 329.39 74.6765 330.022 73.8127C330.654 72.9489 331.489 72.1324 332.525 71.3634C336.32 68.6543 340.527 67.2998 345.146 67.2998C348.659 67.2998 351.567 67.9721 353.868 69.3168C354.914 69.9376 355.777 70.8232 356.371 71.8843C356.989 72.9319 357.317 74.1256 357.319 75.3421C357.319 78.3978 355.195 81.7155 350.947 85.2952C349.436 86.5531 348.68 87.496 348.68 88.124C348.68 88.6166 348.909 89.0312 349.366 89.368C349.823 89.7048 350.377 89.8754 351.028 89.8797C352.574 89.8797 353.952 89.2858 355.165 88.0982C355.78 87.5046 356.189 87.1466 356.39 87.0241C356.592 86.9022 356.869 86.8394 357.221 86.8394C358.767 86.8394 359.54 88.149 359.54 90.7681C359.531 92.1296 359.277 93.4781 358.79 94.7496C358.329 96.0263 357.636 97.2071 356.748 98.2332C355.833 99.2799 354.832 99.8032 353.743 99.8032C353.305 99.8032 352.954 99.7109 352.69 99.5262C352.425 99.3415 352.127 98.9967 351.794 98.4918C351.478 98.0023 351.166 97.688 350.858 97.5488C350.55 97.4097 349.984 97.3426 349.16 97.3475Z" fill="#E5A908"/>
<path d="M388.547 68.1152V86.2168C388.547 86.758 388.622 87.129 388.771 87.3297C388.92 87.5304 389.197 87.6308 389.602 87.6308H390.71C391.535 87.6142 391.966 88.112 392.003 89.1242V94.442C392.003 95.3655 391.529 95.8889 390.581 96.012C389.965 96.0822 389.579 96.1958 389.421 96.3528C389.264 96.5098 389.185 96.8854 389.185 97.4795V100.57C389.255 101.67 388.745 102.246 387.656 102.299H378.645C378.013 102.299 377.6 102.19 377.407 101.972C377.213 101.754 377.117 101.286 377.117 100.57V97.872C377.117 97.1387 376.976 96.628 376.695 96.3399C376.413 96.0517 375.921 95.9076 375.217 95.9076H364.939C363.707 95.9076 362.842 95.65 362.343 95.1346C361.843 94.6193 361.593 93.733 361.592 92.4757C361.592 90.7998 361.794 89.4902 362.199 88.5469C362.691 87.3771 364.105 85.4038 366.44 82.627L373.133 74.6383C376.488 70.6362 378.964 68.0866 380.563 66.9894C381.373 66.4608 382.256 66.0561 383.185 65.7888C384.118 65.4892 385.091 65.3302 386.07 65.3169C386.949 65.3169 387.581 65.5352 387.967 65.9717C388.353 66.4082 388.547 67.1227 388.547 68.1152ZM377.481 81.7099V80.4262C377.481 78.8543 377.042 78.0683 376.164 78.0683C375.496 78.0683 374.872 78.4264 374.292 79.1424L370.234 84.0936C369.058 85.5429 368.469 86.5819 368.469 87.2106C368.469 87.665 368.716 87.9574 369.208 88.0879C369.701 88.2185 370.921 88.3108 372.87 88.365L374.952 88.3909C375.848 88.3909 376.454 88.2905 376.77 88.0898C377.087 87.8891 377.272 87.4916 377.324 86.8975C377.429 85.9364 377.481 84.2072 377.481 81.7099Z" fill="#E5A908"/>
<path d="M317.918 67.7273C320.031 69.0896 320.688 71.3947 320.688 71.3947C320.688 68.4717 317.441 65.9458 317.441 65.9458C322.472 68.3323 323.93 74.6013 319.954 75.9968C319.593 76.1235 319.21 76.1779 318.828 76.1568C318.446 76.1357 318.072 76.0395 317.727 75.8737C317.382 75.7079 317.073 75.4758 316.817 75.1906C316.562 74.9054 316.366 74.5728 316.239 74.2116C315.345 71.6709 317.93 70.1239 317.918 67.7273Z" fill="#28508B"/>
<path d="M86.1879 65.544C86.5229 65.5422 86.8573 65.5731 87.1863 65.6364C87.6062 65.7207 87.8164 65.9002 87.817 66.1748C87.8225 66.248 87.8001 66.3206 87.7542 66.378C87.6582 66.4588 87.5512 66.5256 87.4365 66.5765C87.2943 66.6486 87.201 66.8056 87.1595 67.0494C87.1179 67.2932 87.0921 67.767 87.0921 68.4717C87.0921 69.6631 87.1228 70.4019 87.1844 70.6882C87.1989 70.765 87.2333 70.8367 87.2842 70.896C87.3526 70.9611 87.4316 71.0142 87.5178 71.053C87.7228 71.1454 87.8244 71.282 87.8244 71.4603C87.8244 71.7096 87.6357 71.8811 87.2583 71.9747C86.7663 72.0832 86.2632 72.1335 85.7594 72.1243C84.7509 72.1243 84.2466 71.931 84.2466 71.5443C84.2466 71.4039 84.3454 71.2728 84.5431 71.1509C84.6138 71.1112 84.6748 71.0562 84.7215 70.9899C84.7681 70.9236 84.7993 70.8476 84.8127 70.7676C84.8706 70.4124 84.8999 69.6575 84.9005 68.5031C84.9005 67.7027 84.8605 67.1913 84.7804 66.9691C84.7201 66.8209 84.6101 66.6984 84.4692 66.6227C84.3741 66.5658 84.2882 66.4948 84.2143 66.4122C84.1688 66.3499 84.1456 66.274 84.1487 66.197C84.1488 66.1311 84.1667 66.0664 84.2007 66.0099C84.2348 65.9535 84.2835 65.9074 84.3417 65.8765C84.5552 65.7688 84.7848 65.6968 85.0215 65.6632C85.4054 65.5852 85.7961 65.5452 86.1879 65.544Z" fill="#E5A908"/>
<path d="M90.1188 65.544C90.4538 65.5422 90.7882 65.5731 91.1172 65.6364C91.5371 65.7207 91.7474 65.9002 91.748 66.1748C91.7539 66.2481 91.7314 66.3208 91.6852 66.378C91.5891 66.4588 91.4822 66.5256 91.3675 66.5765C91.2252 66.6486 91.132 66.8056 91.0904 67.0494C91.0488 67.2932 91.023 67.767 91.023 68.4717C91.023 69.6631 91.0538 70.4019 91.1153 70.6882C91.1298 70.765 91.1642 70.8367 91.2151 70.896C91.2838 70.9613 91.3631 71.0144 91.4497 71.053C91.6541 71.146 91.756 71.2817 91.7554 71.4603C91.7554 71.7096 91.5667 71.8811 91.1892 71.9747C90.6972 72.0832 90.1941 72.1335 89.6903 72.1243C88.6818 72.1243 88.1775 71.931 88.1775 71.5443C88.1775 71.4039 88.2767 71.2728 88.4749 71.1509C88.5454 71.111 88.6061 71.0559 88.6526 70.9896C88.6991 70.9233 88.7302 70.8475 88.7437 70.7676C88.8052 70.4124 88.836 69.6575 88.836 68.5031C88.836 67.7027 88.796 67.1913 88.716 66.9691C88.6557 66.8209 88.5456 66.6984 88.4047 66.6227C88.3098 66.5655 88.2239 66.4946 88.1498 66.4122C88.1043 66.3499 88.0812 66.274 88.0843 66.197C88.0843 66.1311 88.1023 66.0664 88.1363 66.0099C88.1703 65.9535 88.219 65.9074 88.2773 65.8765C88.4907 65.7688 88.7203 65.6968 88.957 65.6632C89.3394 65.5855 89.7286 65.5456 90.1188 65.544Z" fill="#E5A908"/>
<path d="M94.0457 65.6421H96.4913C96.7345 65.6356 96.9761 65.5996 97.2107 65.5349C97.2906 65.5117 97.3732 65.499 97.4564 65.4971C97.7064 65.4971 97.9499 65.6842 98.1869 66.0586C98.4146 66.4013 98.5381 66.8026 98.5425 67.2139C98.5425 67.4855 98.4603 67.6831 98.2959 67.8087C98.1672 67.9035 98.0105 67.9526 97.8507 67.9482C97.697 67.952 97.5466 67.9034 97.4241 67.8106C97.2754 67.6841 97.1538 67.5289 97.0666 67.3543C97.002 67.2188 96.921 67.0916 96.8256 66.9757C96.7982 66.9464 96.765 66.923 96.7281 66.9072C96.6912 66.8913 96.6515 66.8831 96.6113 66.8833C96.5606 66.8802 96.5101 66.8924 96.4663 66.9182C96.4225 66.9441 96.3875 66.9824 96.3657 67.0283C96.3064 67.1798 96.2811 67.3425 96.2918 67.5049V70.125C96.2806 70.3234 96.3088 70.5221 96.3749 70.7096C96.4408 70.839 96.5539 70.9381 96.6908 70.9866C96.8163 71.0325 96.9319 71.1018 97.0315 71.1908C97.0958 71.2633 97.1289 71.3581 97.1239 71.4549C97.1239 71.6796 96.9731 71.8465 96.6714 71.9555C96.3697 72.0644 95.9045 72.1214 95.2759 72.1263C94.5081 72.1263 93.9389 72.0623 93.5682 71.9342C93.2561 71.8289 93.1 71.6575 93.1 71.4198C93.0987 71.3597 93.1133 71.3002 93.1426 71.2477C93.1718 71.1951 93.2145 71.1512 93.2662 71.1206C93.374 71.0771 93.4841 71.0395 93.5959 71.0079C93.6484 70.9951 93.6975 70.9709 93.7396 70.9371C93.7817 70.9032 93.8159 70.8606 93.8398 70.8121C93.9021 70.6335 93.9388 70.4469 93.9487 70.258C93.974 70.0117 93.9971 69.618 94.018 69.0768C94.0402 68.5319 94.0512 68.0609 94.0512 67.661C94.0609 67.4593 94.0388 67.2573 93.9857 67.0625C93.975 67.0134 93.9482 66.9692 93.9095 66.9371C93.8709 66.905 93.8226 66.8867 93.7723 66.8852C93.6492 66.8852 93.5316 66.9723 93.4195 67.1465C93.2127 67.4655 93.0424 67.676 92.9088 67.7782C92.7802 67.8902 92.6174 67.9553 92.447 67.9629C92.3683 67.9646 92.2902 67.9484 92.2187 67.9154C92.1472 67.8825 92.0841 67.8337 92.0342 67.7727C91.9225 67.6368 91.8646 67.4646 91.8717 67.2888C91.8767 67.07 91.9208 66.8538 92.0019 66.6506C92.0864 66.4195 92.2036 66.2018 92.3501 66.0041C92.5847 65.6864 92.8165 65.5275 93.0455 65.5275C93.1174 65.5288 93.189 65.5381 93.2588 65.5553C93.426 65.5894 93.5636 65.6125 93.6698 65.6254C93.7947 65.638 93.9202 65.6436 94.0457 65.6421Z" fill="#E5A908"/>
<path d="M104.136 69.3427C104.018 69.3427 103.943 69.3787 103.911 69.4507C103.878 69.5228 103.862 69.689 103.862 69.9513C103.854 70.2609 103.879 70.5704 103.936 70.8748C103.948 70.928 103.972 70.9777 104.006 71.0198C104.058 71.0697 104.118 71.1119 104.182 71.1454C104.367 71.2489 104.459 71.3846 104.459 71.5527C104.459 71.759 104.33 71.9049 104.071 71.9905C103.813 72.0761 103.376 72.1188 102.76 72.1188C101.616 72.1188 101.044 71.9006 101.043 71.464C101.039 71.3984 101.057 71.3333 101.095 71.2793C101.162 71.2067 101.241 71.1444 101.327 71.0946C101.45 71.0192 101.547 70.9072 101.604 70.7742C101.666 70.5667 101.699 70.3516 101.703 70.1351C101.718 69.9134 101.726 69.1198 101.726 67.7541C101.726 67.3201 101.704 67.0255 101.662 66.8694C101.643 66.7959 101.609 66.7273 101.561 66.6685C101.513 66.6096 101.453 66.5619 101.385 66.5286C101.281 66.4854 101.187 66.4227 101.108 66.3439C101.059 66.2839 101.034 66.2079 101.037 66.1305C101.037 66.0738 101.049 66.0177 101.072 65.9657C101.095 65.9137 101.128 65.867 101.17 65.8285C101.274 65.7347 101.402 65.6695 101.539 65.6392C101.719 65.6005 101.903 65.5835 102.087 65.5884C102.188 65.5884 102.444 65.6032 102.852 65.6346C102.93 65.6411 103.052 65.6438 103.222 65.6438C103.499 65.6438 103.871 65.6254 104.335 65.5884C104.629 65.5663 104.835 65.5552 104.952 65.5552C105.614 65.5552 106.162 65.7159 106.595 66.0373C106.785 66.1747 106.937 66.3568 107.039 66.5674C107.141 66.778 107.19 67.0106 107.18 67.2444C107.183 67.5189 107.112 67.7893 106.976 68.0275C106.846 68.257 106.651 68.4421 106.414 68.5586C106.316 68.6084 106.266 68.6675 106.266 68.7368C106.266 68.8292 106.341 68.9003 106.494 68.9566C106.786 69.05 107.037 69.2395 107.208 69.4941C107.359 69.7342 107.468 70.1037 107.533 70.6024C107.561 70.8083 107.601 70.9413 107.654 71.0023C107.706 71.0632 107.828 71.1214 108.023 71.1777C108.085 71.199 108.138 71.2411 108.172 71.2969C108.212 71.3572 108.233 71.4279 108.232 71.5001C108.228 71.6074 108.189 71.7104 108.12 71.7928C108.045 71.8922 107.946 71.9717 107.833 72.0246C107.573 72.1478 107.217 72.2094 106.765 72.2094C106.162 72.2094 105.731 72.0487 105.472 71.7273C105.344 71.564 105.243 71.3809 105.173 71.1851C105.057 70.8522 104.961 70.5131 104.883 70.1692C104.812 69.8728 104.722 69.6631 104.612 69.5421C104.55 69.478 104.476 69.4272 104.395 69.3929C104.313 69.3586 104.225 69.3415 104.136 69.3427ZM103.866 66.9571L103.816 68.0469V68.0885C103.807 68.1669 103.825 68.2459 103.864 68.3138C103.892 68.3358 103.923 68.3521 103.957 68.3616C103.991 68.3712 104.026 68.3737 104.061 68.3692C104.334 68.3692 104.532 68.299 104.656 68.1568C104.78 68.0146 104.841 67.7874 104.841 67.4762C104.841 66.874 104.629 66.5729 104.204 66.5729C104.158 66.5682 104.112 66.5733 104.068 66.5878C104.024 66.6022 103.984 66.6258 103.949 66.657C103.89 66.7454 103.861 66.8507 103.866 66.9571Z" fill="#E5A908"/>
<path d="M111.808 65.5111C112.56 65.4972 113.295 65.7399 113.892 66.1991C114.306 66.5289 114.641 66.9478 114.871 67.4247C115.108 67.8887 115.234 68.4009 115.241 68.9217C115.245 69.6456 114.988 70.3467 114.517 70.8963C114.096 71.3969 113.54 71.7656 112.915 71.9584C112.521 72.0874 112.109 72.1535 111.694 72.1541C111.164 72.1553 110.64 72.0406 110.159 71.818C109.582 71.5585 109.099 71.1293 108.773 70.5878C108.449 70.0603 108.28 69.4522 108.286 68.8331C108.272 68.1621 108.47 67.5039 108.851 66.9515C109.233 66.3991 109.778 65.9805 110.41 65.7549C110.857 65.5878 111.331 65.5051 111.808 65.5111ZM111.367 66.8539C111.243 66.8522 111.12 66.8839 111.011 66.9455C110.902 67.0072 110.812 67.0967 110.75 67.2048C110.629 67.3897 110.568 67.6068 110.573 67.8273C110.584 68.2433 110.656 68.6553 110.787 69.0501C110.915 69.4817 111.096 69.8958 111.326 70.283C111.414 70.4316 111.536 70.5579 111.681 70.6525C111.807 70.7387 111.957 70.7859 112.11 70.7882C112.219 70.7914 112.327 70.769 112.426 70.7228C112.524 70.6766 112.611 70.6079 112.678 70.5222C112.83 70.3206 112.906 70.0724 112.894 69.8203C112.888 69.4069 112.826 68.9962 112.709 68.5994C112.607 68.2061 112.449 67.8295 112.24 67.481C112.136 67.3051 111.997 67.1523 111.832 67.0321C111.698 66.9281 111.535 66.866 111.366 66.8539H111.367Z" fill="#E5A908"/>
<path d="M119.203 65.5113C119.956 65.4975 120.691 65.7401 121.287 66.1993C121.701 66.5289 122.036 66.9479 122.266 67.4249C122.503 67.8887 122.629 68.4011 122.635 68.922C122.64 69.6459 122.383 70.3472 121.911 70.8965C121.49 71.3995 120.932 71.7696 120.304 71.9623C119.91 72.0914 119.498 72.1575 119.083 72.1581C118.553 72.1593 118.029 72.0445 117.547 71.8219C116.971 71.5626 116.488 71.1334 116.162 70.5918C115.838 70.0643 115.669 69.4561 115.674 68.837C115.661 68.166 115.859 67.5079 116.24 66.9555C116.622 66.4032 117.167 65.9846 117.799 65.7588C118.247 65.5899 118.724 65.5059 119.203 65.5113ZM118.763 66.8541C118.638 66.8525 118.515 66.8841 118.406 66.9458C118.298 67.0075 118.207 67.097 118.145 67.2051C118.025 67.39 117.963 67.607 117.969 67.8276C117.979 68.2434 118.051 68.6554 118.182 69.0503C118.31 69.4818 118.491 69.8959 118.72 70.2833C118.809 70.4316 118.931 70.5579 119.076 70.6527C119.202 70.7389 119.351 70.7861 119.504 70.7885C119.613 70.7918 119.722 70.7695 119.821 70.7233C119.919 70.6771 120.006 70.6083 120.073 70.5225C120.225 70.3209 120.301 70.0726 120.289 69.8206C120.283 69.4072 120.221 68.9965 120.105 68.5997C120.002 68.2064 119.844 67.8298 119.636 67.4812C119.532 67.3053 119.393 67.1526 119.227 67.0324C119.093 66.9289 118.932 66.8669 118.763 66.8541Z" fill="#E5A908"/>
<path d="M126.072 69.3427C125.954 69.3427 125.879 69.3787 125.846 69.4507C125.814 69.5228 125.797 69.689 125.797 69.9513C125.79 70.2609 125.815 70.5704 125.872 70.8748C125.883 70.928 125.907 70.9777 125.941 71.0198C125.994 71.0697 126.053 71.1119 126.118 71.1454C126.302 71.2489 126.395 71.3846 126.395 71.5527C126.395 71.759 126.265 71.9049 126.007 71.9905C125.748 72.0761 125.311 72.1188 124.695 72.1188C123.551 72.1188 122.979 71.9006 122.979 71.464C122.974 71.3984 122.993 71.3333 123.03 71.2793C123.098 71.2067 123.176 71.1444 123.262 71.0946C123.386 71.0192 123.482 70.9072 123.539 70.7742C123.601 70.5667 123.635 70.3516 123.639 70.1351C123.654 69.9134 123.662 69.1198 123.662 67.7541C123.662 67.3201 123.64 67.0255 123.597 66.8694C123.579 66.7959 123.544 66.7273 123.496 66.6685C123.448 66.6096 123.388 66.5619 123.32 66.5286C123.217 66.4854 123.123 66.4227 123.043 66.3439C122.994 66.2839 122.969 66.2079 122.973 66.1305C122.973 66.0738 122.985 66.0177 123.007 65.9657C123.03 65.9137 123.063 65.867 123.105 65.8285C123.21 65.7347 123.337 65.6695 123.475 65.6392C123.654 65.6005 123.838 65.5835 124.022 65.5884C124.124 65.5884 124.38 65.6032 124.788 65.6346C124.865 65.6411 124.987 65.6438 125.157 65.6438C125.435 65.6438 125.806 65.6254 126.271 65.5884C126.565 65.5663 126.77 65.5552 126.888 65.5552C127.55 65.5552 128.098 65.7159 128.531 66.0373C128.72 66.1747 128.873 66.3568 128.975 66.5674C129.077 66.778 129.125 67.0106 129.116 67.2444C129.119 67.519 129.048 67.7895 128.911 68.0275C128.782 68.257 128.586 68.4421 128.35 68.5586C128.251 68.6084 128.201 68.6675 128.201 68.7368C128.201 68.8292 128.277 68.9003 128.429 68.9566C128.721 69.05 128.973 69.2395 129.143 69.4941C129.295 69.7342 129.403 70.1037 129.468 70.6024C129.496 70.8083 129.537 70.9413 129.589 71.0023C129.642 71.0632 129.764 71.1214 129.959 71.1777C130.021 71.199 130.073 71.2411 130.107 71.2969C130.147 71.3572 130.168 71.4279 130.167 71.5001C130.164 71.6074 130.125 71.7104 130.056 71.7928C129.98 71.8922 129.882 71.9717 129.768 72.0246C129.508 72.1478 129.152 72.2094 128.701 72.2094C128.098 72.2094 127.667 72.0487 127.408 71.7273C127.279 71.564 127.178 71.3809 127.109 71.1851C126.993 70.8522 126.896 70.5131 126.819 70.1692C126.748 69.8728 126.657 69.6631 126.547 69.5421C126.486 69.478 126.412 69.4272 126.33 69.3929C126.248 69.3586 126.16 69.3415 126.072 69.3427ZM125.802 66.9571L125.751 68.0469V68.0885C125.743 68.1669 125.76 68.2459 125.8 68.3138C125.827 68.3358 125.859 68.3521 125.893 68.3616C125.927 68.3712 125.962 68.3737 125.997 68.3692C126.269 68.3692 126.468 68.299 126.591 68.1568C126.715 68.0146 126.776 67.7874 126.776 67.4762C126.776 66.874 126.564 66.5729 126.14 66.5729C126.094 66.5682 126.047 66.5733 126.003 66.5878C125.96 66.6022 125.919 66.6258 125.885 66.657C125.826 66.7454 125.796 66.8507 125.802 66.9571Z" fill="#E5A908"/>
<path d="M135.78 66.9191L135.283 67.4012C135.099 67.576 135.006 67.7352 135.006 67.8787C135.008 67.9605 135.029 68.0408 135.069 68.1123C135.137 68.2255 135.215 68.3319 135.303 68.43L137.039 70.4563C137.137 70.5784 137.245 70.6932 137.36 70.7998C137.441 70.8613 137.53 70.9125 137.624 70.9522C137.76 71.0016 137.881 71.0834 137.978 71.1905C138.052 71.2889 138.089 71.4097 138.083 71.5322C138.083 71.8628 137.849 72.0282 137.383 72.0282H135.627C135.526 72.0337 135.425 72.0058 135.342 71.9487C135.216 71.8308 135.105 71.6988 135.01 71.5553C134.713 71.1541 134.394 70.7699 134.054 70.4046C133.938 70.2748 133.815 70.1515 133.685 70.0351C133.632 69.9853 133.565 69.9549 133.493 69.9492C133.312 69.9492 133.222 70.1192 133.223 70.459C133.223 70.7361 133.282 70.9279 133.399 71.0344L133.548 71.1369C133.622 71.1769 133.684 71.2356 133.728 71.3071C133.772 71.3786 133.796 71.4603 133.798 71.5442C133.798 71.7502 133.663 71.897 133.39 71.9866C133.118 72.0762 132.661 72.1196 132.017 72.1196C131.444 72.1196 131.026 72.0854 130.764 72.0171C130.658 71.989 130.563 71.9294 130.492 71.8462C130.425 71.7694 130.388 71.6711 130.388 71.5692C130.388 71.4038 130.48 71.2625 130.665 71.1434C130.739 71.0978 130.8 71.0343 130.843 70.9587C130.891 70.8507 130.925 70.7367 130.943 70.6197C131.016 70.0803 131.047 69.5359 131.035 68.9915C131.035 68.1191 131.002 67.5 130.937 67.1343C130.924 67.0212 130.89 66.9116 130.835 66.8119C130.775 66.7313 130.697 66.6656 130.607 66.6199C130.529 66.5818 130.464 66.5226 130.418 66.4489C130.372 66.3752 130.348 66.2901 130.348 66.2033C130.345 66.1348 130.359 66.0667 130.387 66.0042C130.415 65.9417 130.457 65.8866 130.511 65.8431C130.665 65.7336 130.843 65.663 131.03 65.6372C131.423 65.5691 131.82 65.5381 132.218 65.5448C132.704 65.5448 133.064 65.5916 133.3 65.6852C133.396 65.7185 133.478 65.782 133.535 65.8663C133.592 65.9506 133.62 66.051 133.615 66.1525C133.619 66.2282 133.602 66.3037 133.567 66.3705C133.494 66.462 133.408 66.5431 133.313 66.6115C133.241 66.7021 133.194 66.8101 133.177 66.9246C133.135 67.0836 133.114 67.2471 133.114 67.4113C133.114 67.6736 133.172 67.8038 133.29 67.8038C133.368 67.8012 133.442 67.7681 133.496 67.7115C133.638 67.5629 133.772 67.4069 133.898 67.2442C134.13 66.9542 134.246 66.7559 134.246 66.6494C134.234 66.5596 134.203 66.4735 134.154 66.3973C134.117 66.3312 134.097 66.2575 134.094 66.1821C134.094 65.9512 134.217 65.788 134.463 65.6926C134.71 65.5972 135.132 65.5498 135.73 65.5504C136.086 65.5383 136.441 65.5693 136.789 65.6427C137.066 65.7212 137.211 65.8865 137.211 66.1387C137.209 66.2383 137.177 66.3351 137.119 66.4157C137.068 66.4951 136.991 66.5537 136.901 66.5811C136.753 66.6118 136.602 66.6245 136.451 66.6189C136.325 66.6151 136.2 66.6348 136.081 66.6771C135.969 66.7416 135.867 66.8232 135.78 66.9191Z" fill="#E5A908"/>
<path d="M139.237 65.6424H141.623C142.105 65.6424 142.457 65.6322 142.678 65.6119C142.897 65.5921 143.114 65.5507 143.325 65.4882C143.374 65.4723 143.425 65.463 143.477 65.4604C143.639 65.4604 143.782 65.5476 143.905 65.7218C144.114 66.0236 144.221 66.3845 144.21 66.7516C144.22 66.9208 144.175 67.0886 144.083 67.2309C144.044 67.2871 143.991 67.3327 143.93 67.3633C143.869 67.394 143.801 67.4088 143.733 67.4064C143.648 67.4112 143.565 67.3893 143.494 67.3436C143.403 67.2613 143.325 67.1657 143.264 67.06C143.145 66.865 142.962 66.7172 142.747 66.6417C142.538 66.5715 142.195 66.5364 141.719 66.5364C141.363 66.5364 141.146 66.6001 141.072 66.7276C141.027 66.8131 141.002 66.9079 141 67.0046C140.991 67.1204 140.987 67.4153 140.988 67.8894C140.988 68.0741 141.019 68.1923 141.08 68.2376C141.141 68.2828 141.304 68.305 141.567 68.305C141.668 68.3141 141.77 68.2851 141.851 68.2237C141.921 68.142 141.96 68.0385 141.961 67.9309C141.973 67.8061 141.996 67.6824 142.029 67.5615C142.054 67.492 142.098 67.4311 142.156 67.386C142.219 67.3305 142.301 67.3002 142.384 67.3011C142.45 67.3026 142.513 67.3203 142.57 67.3526C142.626 67.3848 142.674 67.4306 142.709 67.4858C142.795 67.6332 142.851 67.796 142.874 67.9651C142.919 68.2019 142.942 68.4425 142.941 68.6836C142.941 69.1762 142.865 69.5801 142.713 69.8953C142.683 69.9717 142.631 70.0372 142.563 70.0831C142.495 70.1289 142.415 70.153 142.333 70.1521C142.293 70.1568 142.252 70.1519 142.214 70.1378C142.176 70.1236 142.142 70.1007 142.115 70.0708C142.06 69.9656 142.028 69.8496 142.022 69.7309C141.976 69.3794 141.771 69.2033 141.409 69.2027C141.354 69.1965 141.298 69.2056 141.248 69.229C141.197 69.2525 141.155 69.2894 141.124 69.3357C141.073 69.4256 141.048 69.5903 141.047 69.8298C141.047 69.9769 141.057 70.1663 141.078 70.3978C141.086 70.5531 141.107 70.7075 141.14 70.8595C141.157 70.9099 141.188 70.9547 141.228 70.9889C141.269 71.0231 141.318 71.0455 141.37 71.0535C141.583 71.098 141.8 71.1163 142.017 71.108C142.481 71.108 142.83 71.0464 143.065 70.9233C143.3 70.8001 143.492 70.5825 143.641 70.2703C143.696 70.1342 143.776 70.0091 143.875 69.9009C143.918 69.8653 143.969 69.8389 144.023 69.8234C144.076 69.808 144.133 69.8037 144.189 69.8109C144.244 69.818 144.298 69.8365 144.346 69.8652C144.394 69.8939 144.436 69.9321 144.469 69.9775C144.557 70.1025 144.602 70.2531 144.596 70.4061C144.586 70.6461 144.538 70.883 144.453 71.108C144.366 71.3705 144.248 71.6217 144.1 71.856C144.052 71.9352 143.993 72.0071 143.924 72.0694C143.873 72.1068 143.811 72.1257 143.748 72.1229C143.662 72.1202 143.577 72.111 143.493 72.0952C143.23 72.0515 142.965 72.0281 142.698 72.0251H138.76C138.628 72.0339 138.497 71.9967 138.39 71.9198C138.347 71.8838 138.312 71.8382 138.29 71.7866C138.267 71.7349 138.257 71.6787 138.26 71.6224C138.254 71.5521 138.274 71.4821 138.316 71.4257C138.392 71.3607 138.478 71.3086 138.571 71.2714C138.652 71.2399 138.723 71.1885 138.778 71.1218C138.831 71.0426 138.866 70.9533 138.882 70.8595C138.984 70.3885 139.035 69.754 139.036 68.9561C139.036 67.7518 138.961 66.9923 138.812 66.6777C138.79 66.6259 138.755 66.5807 138.711 66.5465C138.638 66.5059 138.56 66.4749 138.479 66.4542C138.399 66.4365 138.329 66.3909 138.28 66.3256C138.232 66.2604 138.208 66.1798 138.214 66.0986C138.214 66.0018 138.246 65.9077 138.306 65.8317C138.363 65.7549 138.445 65.7004 138.538 65.6775C138.769 65.6436 139.003 65.6318 139.237 65.6424Z" fill="#E5A908"/>
<path d="M145.803 65.6424H148.189C148.671 65.6424 149.023 65.6322 149.244 65.6119C149.464 65.5921 149.68 65.5507 149.891 65.4882C149.941 65.4723 149.992 65.463 150.044 65.4604C150.205 65.4604 150.347 65.5476 150.471 65.7218C150.681 66.0235 150.788 66.3844 150.778 66.7516C150.787 66.9208 150.742 67.0886 150.65 67.2309C150.611 67.2871 150.558 67.3326 150.497 67.3632C150.436 67.3939 150.368 67.4087 150.299 67.4064C150.215 67.4111 150.131 67.3891 150.06 67.3436C149.969 67.2615 149.892 67.1659 149.831 67.06C149.712 66.8649 149.529 66.7171 149.313 66.6417C149.104 66.5715 148.761 66.5364 148.285 66.5364C147.929 66.5364 147.714 66.6001 147.638 66.7276C147.593 66.8131 147.569 66.9079 147.566 67.0046C147.559 67.1201 147.554 67.4147 147.554 67.8894C147.554 68.0741 147.586 68.1923 147.647 68.2376C147.708 68.2828 147.871 68.305 148.134 68.305C148.235 68.3139 148.336 68.285 148.417 68.2237C148.487 68.1421 148.527 68.0386 148.529 67.9309C148.539 67.8059 148.562 67.6822 148.596 67.5615C148.621 67.492 148.665 67.4311 148.724 67.386C148.786 67.3304 148.867 67.3001 148.951 67.3011C149.016 67.3027 149.08 67.3205 149.136 67.3527C149.193 67.3849 149.241 67.4306 149.276 67.4858C149.361 67.6334 149.417 67.7962 149.44 67.9651C149.486 68.2019 149.509 68.4425 149.508 68.6836C149.508 69.1762 149.432 69.5801 149.28 69.8953C149.25 69.9716 149.198 70.0369 149.13 70.0827C149.062 70.1286 148.982 70.1528 148.9 70.1521C148.86 70.1568 148.819 70.1519 148.781 70.1378C148.743 70.1236 148.709 70.1007 148.681 70.0708C148.626 69.9656 148.594 69.8496 148.589 69.7309C148.543 69.3794 148.338 69.2033 147.976 69.2027C147.921 69.1962 147.865 69.2053 147.815 69.2288C147.765 69.2522 147.722 69.2893 147.691 69.3357C147.639 69.428 147.614 69.5896 147.614 69.8298C147.614 69.9769 147.624 70.1663 147.644 70.3978C147.653 70.5531 147.674 70.7074 147.707 70.8595C147.724 70.9099 147.754 70.9547 147.794 70.9889C147.835 71.0231 147.884 71.0455 147.937 71.0535C148.149 71.098 148.366 71.1163 148.583 71.108C149.047 71.108 149.397 71.0464 149.632 70.9233C149.868 70.8001 150.06 70.5825 150.208 70.2703C150.263 70.1341 150.342 70.009 150.441 69.9009C150.485 69.8653 150.535 69.8389 150.589 69.8234C150.643 69.8079 150.7 69.8036 150.755 69.8108C150.811 69.818 150.865 69.8365 150.913 69.8651C150.961 69.8938 151.003 69.9321 151.036 69.9775C151.124 70.1025 151.169 70.2531 151.164 70.4061C151.153 70.6462 151.105 70.8832 151.02 71.108C150.932 71.3705 150.814 71.6217 150.667 71.856C150.618 71.9352 150.559 72.0071 150.49 72.0694C150.439 72.1068 150.377 72.1257 150.314 72.1229C150.228 72.1202 150.143 72.1109 150.059 72.0952C149.797 72.0516 149.532 72.0281 149.266 72.0251H145.325C145.193 72.0342 145.063 71.9969 144.956 71.9198C144.912 71.8838 144.878 71.8382 144.855 71.7866C144.832 71.7349 144.822 71.6787 144.825 71.6224C144.819 71.5522 144.839 71.4823 144.881 71.4257C144.957 71.3607 145.043 71.3086 145.136 71.2714C145.216 71.2399 145.287 71.1885 145.342 71.1218C145.396 71.0428 145.431 70.9534 145.447 70.8595C145.549 70.3885 145.6 69.754 145.6 68.9561C145.6 67.7518 145.526 66.9923 145.378 66.6777C145.355 66.626 145.32 66.5809 145.275 66.5465C145.202 66.5059 145.124 66.4749 145.043 66.4542C144.964 66.4365 144.893 66.3909 144.845 66.3256C144.796 66.2604 144.772 66.1798 144.778 66.0986C144.778 66.0018 144.811 65.9077 144.871 65.8317C144.928 65.7551 145.01 65.7006 145.102 65.6775C145.334 65.6435 145.569 65.6317 145.803 65.6424Z" fill="#E5A908"/>
<path d="M156.814 70.0373C164.714 71.6997 172.1 68.4673 179.462 66.043C183.303 64.7759 187.114 63.8763 191.191 64.2301C195.103 64.569 198.856 65.7715 202.669 66.6424C206.244 67.4551 209.908 67.8171 213.573 67.7201C216.683 67.649 219.723 67.6832 222.809 67.1438C226.698 66.4623 230.444 65.1619 234.301 64.3409C238.324 63.4847 242.297 63.4589 246.317 64.3557C254.559 66.1954 262.506 70.5351 271.13 68.1219C271.21 68.0997 271.175 67.9889 271.096 68.0009C262.937 69.2015 255.344 64.8304 247.712 62.7228C244.182 61.7485 240.633 61.2978 236.988 61.7725C233.386 62.2417 229.918 63.3425 226.412 64.2661C219.578 66.0624 211.983 66.4272 205.046 64.8719C201.295 64.0315 197.678 62.6914 193.933 61.8371C190.371 61.0244 186.843 60.8517 183.227 61.3929C174.823 62.6517 166.618 67.9557 157.911 66.0873C155.33 65.5332 154.233 69.4934 156.814 70.0373Z" fill="#28508B"/>
<path d="M99.0986 76.6951C100.647 76.6851 102.187 76.9144 103.666 77.3749C104.306 77.5836 104.744 77.6876 104.978 77.687C105.224 77.687 105.742 77.546 106.531 77.2641C106.788 77.1791 107.056 77.1358 107.326 77.1357C108.016 77.1357 108.675 77.5402 109.305 78.3492C110.315 79.6477 110.821 81.0691 110.821 82.6132C110.821 83.6673 110.553 84.5188 110.017 85.1678C109.481 85.8167 108.775 86.1415 107.899 86.1421C107.184 86.1421 106.482 85.8848 105.792 85.3701C105.582 85.2112 105.071 84.6355 104.258 83.643C102.903 81.988 101.343 81.1608 99.5788 81.1614C97.978 81.1614 96.7053 81.7433 95.7609 82.9069C94.8164 84.0706 94.3451 85.6406 94.3469 87.617C94.3469 90.5465 95.0987 93.0401 96.6022 95.0978C97.1493 95.8285 97.8409 96.4387 98.634 96.8904C99.4227 97.3374 100.206 97.5609 100.983 97.5609C101.624 97.5609 102.151 97.3497 102.564 96.9274C102.977 96.505 103.183 95.9625 103.183 95.3001C103.183 94.7127 103.01 94.2962 102.665 94.0505C102.554 93.9636 102.424 93.9038 102.286 93.8759C102.168 93.8575 101.815 93.8482 101.223 93.8482C100.98 93.8559 100.738 93.8152 100.511 93.7284C100.284 93.6417 100.077 93.5107 99.9011 93.3431C99.7284 93.1792 99.5921 92.9808 99.5012 92.7607C99.4103 92.5406 99.3669 92.3038 99.3738 92.0658C99.3738 91.0487 100.051 90.3255 101.406 89.8964C102.897 89.4309 104.616 89.1982 106.565 89.1982C108.647 89.1982 110.398 89.4137 111.816 89.8446C113.164 90.2566 113.838 91.0068 113.838 92.0953C113.841 92.3078 113.802 92.5187 113.722 92.7159C113.643 92.9131 113.526 93.0926 113.377 93.2442C113.058 93.5744 112.633 93.7798 112.176 93.8233C111.745 93.8852 111.464 93.9794 111.335 94.1087C111.205 94.238 111.072 94.5529 110.938 95.0553C110.43 96.9675 109.342 98.6757 107.825 99.9455C106.765 100.84 105.486 101.538 103.989 102.04C102.466 102.547 100.87 102.801 99.2648 102.794C96.5656 102.794 94.088 102.175 91.8321 100.937C89.514 99.6758 87.7512 97.9116 86.5438 95.6445C85.5335 93.7636 85.0108 91.6593 85.0237 89.5242C85.0237 87.3077 85.6277 85.2001 86.8357 83.2015C88.1176 81.0571 89.9111 79.4027 92.2163 78.2384C94.2284 77.2096 96.5225 76.6951 99.0986 76.6951Z" fill="#E5A908"/>
<path d="M136.799 89.6016L140.294 97.0455C140.627 97.7313 140.904 98.1817 141.125 98.3966C141.347 98.6115 141.686 98.7556 142.141 98.8288C143.029 98.9637 143.472 99.4107 143.472 100.17C143.472 101.064 142.93 101.708 141.846 102.1C140.762 102.492 138.986 102.688 136.521 102.688C133.735 102.688 131.67 102.572 130.326 102.339C129.711 102.228 129.221 102.005 128.856 101.668C128.683 101.515 128.544 101.327 128.45 101.116C128.356 100.905 128.309 100.677 128.311 100.446C128.311 100.077 128.407 99.7915 128.597 99.5908C128.788 99.39 129.143 99.2032 129.66 99.0302C130.239 98.8344 130.529 98.5037 130.529 98.0383C130.529 97.2175 130.03 96.7333 129.032 96.5855C127.959 96.439 126.451 96.3657 124.507 96.3657C122.867 96.3657 121.887 96.4636 121.566 96.6594C121.37 96.7826 121.198 97.0033 121.049 97.3216C120.908 97.6094 120.833 97.9247 120.828 98.2451C120.828 98.5148 120.879 98.6894 120.985 98.7688C121.09 98.8482 121.431 98.9803 122.011 99.1641C122.762 99.3845 123.138 99.8256 123.138 100.488C123.138 101.946 121.382 102.674 117.869 102.674C115.872 102.674 114.405 102.54 113.469 102.27C112.607 102.013 112.176 101.45 112.176 100.579C112.176 100.2 112.271 99.9057 112.462 99.697C112.653 99.4883 112.995 99.2983 113.489 99.1271C114.289 98.8451 114.897 98.4499 115.31 97.9413C115.724 97.4327 116.311 96.3426 117.072 94.671L119.678 88.9912C120.639 86.9083 121.283 85.349 121.61 84.3134C121.928 83.3299 122.1 82.3048 122.119 81.2712C122.13 80.2178 122.195 79.4857 122.313 79.075C122.43 78.6643 122.692 78.2641 123.099 77.8744C123.95 77.0173 125.034 76.5885 126.353 76.5879C127.598 76.5879 128.788 77.0718 129.922 78.0397C131.499 79.361 133.792 83.215 136.799 89.6016ZM123.931 91.9105H127.555C128.221 91.9105 128.554 91.7637 128.553 91.47C128.553 91.0655 128.091 90.073 127.168 88.4925C126.748 87.7696 126.428 87.2854 126.205 87.0397C125.983 86.794 125.749 86.6709 125.504 86.6703C125.06 86.6703 124.69 87.081 124.395 87.9023C124.345 88.0119 124.167 88.4469 123.859 89.2073C123.34 90.4565 123.081 91.204 123.082 91.4497C123.081 91.7569 123.364 91.9105 123.931 91.9105Z" fill="#E5A908"/>
<path d="M162.52 94.6896L160.303 99.6334C159.921 100.468 159.613 101.028 159.38 101.315C159.146 101.602 158.887 101.746 158.603 101.747C158.465 101.745 158.328 101.713 158.204 101.653C158.079 101.592 157.969 101.506 157.882 101.398C157.746 101.252 157.434 100.712 156.948 99.7802C156.462 98.848 156.058 98.0212 155.737 97.2995L153.296 91.8404C152.964 91.0801 152.612 90.7002 152.242 90.7008C151.848 90.7008 151.633 91.0256 151.596 91.6751C151.51 93.1202 151.467 94.4556 151.467 95.6815C151.467 96.956 151.528 97.8201 151.651 98.2739C151.71 98.4972 151.828 98.7003 151.994 98.8613C152.135 98.9844 152.52 99.2051 153.149 99.5235C153.556 99.7322 153.759 100.094 153.76 100.608C153.76 101.98 151.991 102.666 148.453 102.666C145.47 102.666 143.979 101.999 143.979 100.663C143.979 100.32 144.055 100.072 144.209 99.9187C144.364 99.7654 144.764 99.5355 145.403 99.2288C145.809 99.0441 146.083 98.7948 146.225 98.4752C146.366 98.1557 146.487 97.5378 146.586 96.6189C146.697 95.6387 146.801 94.0305 146.9 91.7943C146.998 89.558 147.047 87.6435 147.047 86.0507C147.047 84.0534 146.894 82.6988 146.586 81.9871C146.5 81.7773 146.371 81.5883 146.206 81.433C145.956 81.245 145.687 81.0849 145.403 80.9555C144.527 80.5393 144.089 79.9999 144.089 79.3374C144.094 78.8968 144.27 78.4753 144.58 78.1617C144.933 77.7905 145.385 77.5289 145.883 77.4081C146.595 77.2153 147.322 77.0769 148.055 76.9944C148.818 76.8884 149.587 76.8301 150.357 76.8198C151.935 76.8198 153.051 76.9485 153.704 77.2059C153.993 77.308 154.253 77.4781 154.462 77.7018C154.646 77.9105 154.912 78.3394 155.257 78.9883L159.103 86.0286C159.522 86.8006 159.812 87.2723 159.972 87.4434C160.058 87.5312 160.162 87.5995 160.277 87.644C160.392 87.6884 160.515 87.7079 160.638 87.7011C160.76 87.7007 160.881 87.676 160.994 87.6285C161.106 87.5809 161.209 87.5114 161.294 87.424C161.486 87.2393 161.711 86.8964 161.969 86.3952L164.576 81.3406C164.896 80.691 165.106 80.2684 165.204 80.0726C165.808 78.8473 166.406 78.0324 166.998 77.6279C167.75 77.1003 169.118 76.8368 171.103 76.8374C174.591 76.8374 176.335 77.6276 176.335 79.2081C176.335 79.5634 176.267 79.8485 176.132 80.0633C175.996 80.2782 175.719 80.5384 175.301 80.8437C174.734 81.2747 174.376 81.8938 174.228 82.701C173.945 84.3911 173.803 86.4497 173.804 88.8768C173.804 92.0008 173.951 94.7407 174.247 97.0964C174.321 97.6727 174.435 98.0649 174.589 98.273C174.743 98.4811 175.14 98.7932 175.782 99.2095C176.225 99.5044 176.447 99.8966 176.447 100.386C176.447 101.244 175.874 101.85 174.728 102.206C174.122 102.405 173.496 102.534 172.861 102.591C172.207 102.653 171.202 102.684 169.846 102.684C167.764 102.684 166.211 102.537 165.187 102.242C164.053 101.912 163.486 101.348 163.486 100.551C163.475 100.291 163.554 100.035 163.708 99.8255C163.856 99.6364 164.238 99.2904 164.854 98.7874C165.175 98.53 165.393 98.0338 165.511 97.2986C165.629 96.5635 165.687 95.3136 165.687 93.549C165.687 92.5682 165.64 91.9248 165.548 91.6188C165.456 91.3131 165.261 91.157 164.965 91.157C164.62 91.157 164.287 91.3931 163.967 91.8654C163.647 92.3376 163.164 93.279 162.52 94.6896Z" fill="#E5A908"/>
<path d="M187.703 102.28L185.225 102.299C183.487 102.323 182.217 102.36 181.416 102.408C180.702 102.47 180.19 102.501 179.881 102.501C179.13 102.501 178.532 102.311 178.088 101.931C177.657 101.552 177.441 101.098 177.441 100.571C177.441 100.228 177.521 99.9583 177.682 99.7625C177.842 99.5667 178.23 99.2601 178.846 98.8389C179.204 98.5927 179.45 98.21 179.585 97.691C179.72 97.1719 179.868 96.0535 180.028 94.3357C180.263 91.6648 180.38 88.3748 180.38 84.4657C180.38 83.0324 180.285 82.078 180.094 81.6027C179.903 81.1274 179.456 80.7386 178.753 80.4363C177.94 80.0927 177.533 79.5903 177.533 78.929C177.533 78.3897 177.776 77.9485 178.262 77.6056C178.749 77.2626 179.375 77.0909 180.14 77.0903C180.558 77.0903 181.094 77.1087 181.748 77.1457C182.833 77.1943 184.003 77.2189 185.257 77.2196C186.181 77.2196 187.999 77.1826 190.712 77.1087C191.562 77.0847 192.332 77.0724 193.021 77.0718C194.66 77.0718 195.982 77.2035 196.987 77.4671C197.948 77.709 198.842 78.1645 199.603 78.7997C200.811 79.8175 201.415 81.1779 201.415 82.8809C201.413 83.7334 201.23 84.5759 200.878 85.3523C200.562 86.1009 200.067 86.7605 199.437 87.2733C199.006 87.6169 198.79 87.9293 198.79 88.2107C198.79 88.5186 199.049 88.7759 199.567 88.9828C200.577 89.3873 201.496 90.0674 202.322 91.0229C203.172 92.0161 203.597 93.2598 203.597 94.7541C203.597 96.5187 202.951 98.13 201.658 99.5879C199.944 101.513 197.411 102.475 194.059 102.474C193.603 102.474 192.481 102.443 190.693 102.382C189.069 102.326 188.072 102.292 187.703 102.28ZM188.978 82.3369V86.1235C188.978 86.7247 189.055 87.1468 189.209 87.3925C189.364 87.6381 189.631 87.7619 190.014 87.7619C190.926 87.7619 191.598 87.483 192.03 86.9251C192.461 86.3673 192.677 85.4943 192.676 84.306C192.676 83.154 192.455 82.2612 192.011 81.6277C191.568 80.9941 190.939 80.6792 190.125 80.6829C189.694 80.6829 189.396 80.8023 189.229 81.0412C189.062 81.2801 188.978 81.712 188.978 82.3369ZM188.978 92.9245V94.671C188.978 96.2761 189.096 97.3422 189.33 97.8692C189.565 98.3962 190.039 98.6595 190.753 98.6588C192.627 98.6588 193.564 97.5684 193.564 95.3876C193.564 92.6669 192.517 91.3068 190.424 91.3074C189.881 91.3074 189.505 91.4238 189.296 91.6565C189.087 91.8892 188.981 92.3125 188.978 92.9264V92.9245Z" fill="#E5A908"/>
<path d="M215.086 85.261V95.94C215.086 96.7854 215.163 97.4041 215.317 97.7963C215.471 98.1885 215.782 98.5499 216.251 98.8806C216.632 99.1503 216.889 99.3802 217.018 99.5705C217.155 99.7871 217.223 100.04 217.212 100.296C217.212 101.877 215.197 102.667 211.166 102.667C208.997 102.667 207.277 102.496 206.008 102.153C205.603 102.046 205.239 101.821 204.963 101.506C204.704 101.219 204.562 100.845 204.565 100.459C204.565 100.128 204.633 99.8709 204.768 99.6868C204.904 99.5027 205.249 99.2088 205.804 98.8049C206.186 98.5229 206.457 98.0632 206.617 97.426C206.777 96.7887 206.858 95.839 206.858 94.5768C206.858 94.1723 206.83 93.4156 206.775 92.3068C206.72 91.1979 206.679 90.5514 206.654 90.3673C206.58 89.8649 206.235 89.4788 205.619 89.2092C204.855 88.8785 204.473 88.3884 204.473 87.7389C204.473 86.9668 204.972 86.3908 205.971 86.0109C207.416 85.464 208.897 85.0156 210.404 84.669C211.981 84.2996 213.201 84.1149 214.065 84.1149C214.745 84.1186 215.085 84.5006 215.086 85.261ZM211.425 77.2104C212.497 77.2104 213.348 77.4096 213.977 77.8079C214.606 78.2063 214.92 78.7423 214.92 79.4158C214.92 80.3597 214.445 81.1072 213.496 81.6582C211.992 82.5282 210.173 82.9632 208.041 82.9632C207.142 82.9632 206.427 82.7917 205.897 82.4488C205.181 82.0073 204.824 81.3947 204.824 80.6109C204.824 79.5568 205.582 78.7296 207.098 78.1293C208.639 77.5167 210.081 77.2101 211.425 77.2095V77.2104Z" fill="#E5A908"/>
<path d="M225.643 77.2095H235.387C236.355 77.1844 237.316 77.0424 238.25 76.7865C238.569 76.696 238.899 76.6466 239.23 76.6396C240.228 76.6396 241.199 77.3748 242.142 78.8451C243.085 80.3154 243.557 81.8288 243.557 83.3853C243.557 84.451 243.23 85.229 242.577 85.7191C242.085 86.0885 241.493 86.2732 240.802 86.2732C240.19 86.2866 239.592 86.0955 239.101 85.7301C238.621 85.3693 238.146 84.7721 237.678 83.9385C237.27 83.1781 236.95 82.6818 236.716 82.4497C236.606 82.3368 236.473 82.2476 236.327 82.1876C236.181 82.1276 236.024 82.098 235.866 82.1006C235.409 82.1006 235.083 82.2905 234.885 82.6704C234.687 83.0503 234.589 83.6753 234.589 84.5452V94.8382C234.589 95.8917 234.7 96.6576 234.923 97.136C235.145 97.6144 235.564 97.982 236.18 98.2387C236.846 98.5201 237.299 98.7864 237.538 99.0376C237.778 99.2888 237.898 99.6351 237.899 100.077C237.899 100.958 237.298 101.614 236.097 102.043C234.895 102.472 233.048 102.687 230.555 102.689C227.498 102.689 225.23 102.438 223.751 101.936C222.506 101.519 221.883 100.846 221.883 99.914C221.883 99.4116 222.105 99.0194 222.549 98.7374C222.66 98.6759 223.097 98.5287 223.861 98.296C224.33 98.1624 224.654 97.9053 224.833 97.5248C225.012 97.1443 225.157 96.415 225.267 95.3369C225.366 94.3814 225.458 92.8344 225.544 90.6961C225.63 88.5578 225.673 86.7045 225.673 85.1363C225.673 84.033 225.587 83.2486 225.415 82.7831C225.242 82.3176 224.959 82.0849 224.564 82.0849C224.084 82.0849 223.616 82.4278 223.159 83.1137C222.333 84.3642 221.656 85.1914 221.128 85.5953C220.5 86.0737 219.889 86.3126 219.297 86.312C218.985 86.3194 218.675 86.2563 218.39 86.1274C218.105 85.9985 217.853 85.8072 217.652 85.5676C217.221 85.072 217.006 84.4378 217.006 83.6651C217.006 82.9059 217.178 82.0698 217.523 81.1567C217.863 80.2527 218.329 79.4016 218.908 78.629C219.845 77.3791 220.768 76.7542 221.679 76.7542C221.966 76.7592 222.251 76.7964 222.53 76.865C223.196 76.9998 223.741 77.0922 224.166 77.1421C224.657 77.1926 225.15 77.2151 225.643 77.2095Z" fill="#E5A908"/>
<path d="M258.296 76.6953C261.464 76.6953 264.231 77.5958 266.598 79.3967C268.199 80.6343 269.499 82.2394 270.499 84.2121C271.474 86.1725 271.961 88.1332 271.96 90.0942C271.96 92.988 270.999 95.5739 269.076 97.852C267.448 99.7878 265.322 101.179 262.697 102.025C261.126 102.532 259.485 102.792 257.834 102.796C255.723 102.801 253.635 102.349 251.714 101.472C249.359 100.407 247.516 98.7952 246.186 96.6385C244.893 94.5555 244.246 92.2581 244.246 89.746C244.246 86.8294 245.077 84.2561 246.74 82.026C248.217 80.041 250.208 78.5827 252.712 77.6512C254.388 77.0146 256.249 76.6959 258.296 76.6953ZM256.541 81.9697C255.506 81.9697 254.687 82.4293 254.082 83.3486C253.614 84.0345 253.38 84.8493 253.38 85.7932C253.38 87.1785 253.664 88.7794 254.231 90.5957C254.742 92.2928 255.463 93.9199 256.375 95.4397C256.734 96.0167 257.218 96.5064 257.79 96.873C258.296 97.2119 258.89 97.3969 259.499 97.4059C260.437 97.4059 261.192 97.0568 261.765 96.3586C262.338 95.6604 262.625 94.7412 262.625 93.6009C262.625 92.1183 262.384 90.5193 261.903 88.804C261.423 87.0886 260.801 85.6254 260.038 84.4143C259.621 83.7222 259.067 83.122 258.411 82.6504C257.792 82.2212 257.169 81.9943 256.539 81.9697H256.541Z" fill="#E5A908"/>
<path d="M292.077 86.4725C291.374 86.4725 290.926 86.684 290.731 87.107C290.537 87.5299 290.44 88.5132 290.44 90.0568C290.44 92.3915 290.588 94.2112 290.884 95.5159C290.95 95.8309 291.093 96.1247 291.3 96.3711C291.485 96.5737 291.836 96.8218 292.354 97.1155C293.462 97.7213 294.016 98.5217 294.016 99.5167C294.016 100.73 293.244 101.589 291.701 102.094C290.157 102.6 287.545 102.853 283.865 102.853C277.024 102.853 273.603 101.566 273.604 98.993C273.604 98.5516 273.705 98.1976 273.909 97.931C274.112 97.6644 274.574 97.2922 275.294 96.8144C276.107 96.2818 276.657 95.6523 276.943 94.9257C277.23 94.1992 277.429 92.9447 277.54 91.1623C277.632 89.8582 277.679 85.1804 277.679 77.1289C277.679 74.5744 277.549 72.8375 277.291 71.9183C277.177 71.4819 276.97 71.0756 276.682 70.728C276.395 70.3803 276.035 70.0997 275.628 69.9058C274.814 69.5198 274.269 69.1658 273.992 68.8438C273.715 68.5217 273.576 68.1037 273.576 67.5896C273.576 66.9123 273.84 66.3197 274.367 65.8117C274.894 65.3038 275.629 64.9316 276.571 64.6952C277.366 64.4926 278.457 64.3913 279.844 64.3913C280.454 64.3913 281.979 64.4837 284.42 64.6684C284.882 64.7053 285.612 64.7235 286.611 64.7229C288.274 64.7229 290.492 64.6127 293.267 64.3922C295.024 64.2636 296.253 64.1992 296.956 64.1992C300.912 64.1992 304.185 65.1459 306.774 67.0391C309.104 68.7489 310.269 71.1194 310.269 74.1505C310.287 75.7717 309.865 77.3675 309.049 78.7682C308.269 80.1238 307.099 81.2138 305.693 81.8972C305.1 82.1909 304.804 82.54 304.805 82.9445C304.805 83.4783 305.258 83.9093 306.164 84.2375C308.106 84.9369 309.529 85.9938 310.435 87.408C311.341 88.8223 311.987 90.9914 312.375 93.9154C312.541 95.1277 312.781 95.9133 313.096 96.2723C313.41 96.6312 314.141 96.976 315.286 97.3067C315.655 97.4302 315.969 97.6788 316.174 98.0095C316.413 98.3638 316.539 98.7825 316.535 99.2101C316.535 99.7808 316.313 100.355 315.869 100.933C315.415 101.521 314.825 101.99 314.15 102.298C312.597 103.015 310.47 103.373 307.771 103.373C304.165 103.373 301.586 102.427 300.033 100.534C299.33 99.6888 298.734 98.623 298.244 97.3362C297.755 96.0494 297.179 94.0459 296.518 91.3257C296.093 89.579 295.552 88.3476 294.895 87.6315C294.239 86.9155 293.299 86.5291 292.077 86.4725ZM290.468 72.4114L290.163 78.8357V79.0841C290.163 79.7453 290.26 80.1865 290.454 80.4075C290.648 80.6286 291.041 80.7388 291.633 80.7382C293.26 80.7382 294.443 80.3201 295.183 79.484C295.922 78.6479 296.292 77.3106 296.291 75.4721C296.291 71.9244 295.024 70.1506 292.49 70.1506C291.77 70.1506 291.262 70.3162 290.966 70.6475C290.67 70.9787 290.504 71.5667 290.468 72.4114Z" fill="#E5A908"/>
<path fill-rule="evenodd" clip-rule="evenodd" d="M173.756 58.1752C173.756 58.1752 173.717 57.7005 172.386 57.561C172.386 57.561 171.858 54.8052 168.123 55.6022C167.398 55.7564 166.769 56.0123 166.077 56.281C166.059 56.2884 164.945 56.2625 164.611 56.3253C163.434 56.5461 162.118 57.1676 162.044 58.0108C162.008 58.4292 163.273 57.5139 163.498 58.7737C163.36 59.1763 162.827 60.1479 162.691 60.6402C162.04 62.9989 162.515 64.8599 163.192 66.5509C163.353 66.9545 163.561 66.4373 163.561 66.3662C163.584 63.6149 165.138 60.3142 170.599 59.0554C172.142 58.6961 173.752 58.6776 173.756 58.1752Z" fill="#28508B"/>
</g>
<defs>
<clipPath id="clip0_533_2406">
<rect width="392" height="137.107" fill="white"/>
</clipPath>
</defs>
</svg>
