<svg width="250" height="262" viewBox="0 0 250 262" fill="none" xmlns="http://www.w3.org/2000/svg">
<g filter="url(#filter0_d_533_2440)">
<path d="M178.911 70.5105L174.77 74.5892L178.859 70.4453L178.911 70.5105Z" fill="white"/>
</g>
<path d="M181.815 102.094L181.826 102.105L170.214 113.691L166.899 116.999L163.031 120.764L156.047 113.597L141.787 98.9949H108.128L98.0485 88.9374H145.832V88.9894L145.978 88.8646L163.177 106.483L169.911 99.7646L149.418 52.0877H90.168L90.4703 51.6613L92.4508 48.9467L97.225 42.3527L97.4856 42.0719L97.5273 42.0303H168.212L160.134 51.5053L181.867 102.063L181.815 102.094Z" fill="white"/>
<path d="M174.177 149.898V190.617H66.5039V190.607L76.5934 180.616L95.4771 161.926L102.621 168.991L90.8815 180.616H164.067V154.045L117.306 107.74H131.594L174.177 149.898Z" fill="white"/>
<path d="M141.047 65.71H148.146V73.9977L141.047 65.71Z" fill="#FFB400"/>
<path d="M152.632 33.7428H102.402L85.4336 0L106.473 10.384V23.3589H119.033V12.733H135.843V23.3589H148.403V10.384L169.442 0L152.474 33.7428H102.244H152.632Z" fill="#FFB400"/>
<path d="M154.654 159.778V174.042L66.5039 85.3535L72.2917 76.9289L80.3842 65.1364L87.0815 55.3876L87.3296 55.0957L87.3709 55.054H99.4322L92.5903 65.1364H92.5386L79.4747 84.1753L154.654 159.778Z" fill="white"/>
<path d="M124.483 162.352L124.483 176.41L77.7461 129.818L77.7667 129.797V107.148H77.8698L87.7325 116.972V125.707L124.483 162.352Z" fill="white"/>
<path d="M34.0635 257.28C33.6037 257.776 32.8786 258.289 31.8882 258.82C30.8977 259.315 29.7481 259.776 28.4394 260.2C27.1659 260.625 25.8572 260.961 24.513 261.209C23.1689 261.492 21.8955 261.634 20.6928 261.634C17.5093 261.634 14.6441 261.174 12.0973 260.253C9.55053 259.298 7.37513 257.988 5.57114 256.325C3.76715 254.626 2.38763 252.626 1.43258 250.325C0.477526 248.025 0 245.512 0 242.786C0 239.211 0.530585 236.114 1.59175 233.495C2.6883 230.841 4.15625 228.646 5.99561 226.912C7.87034 225.142 10.0104 223.832 12.4157 222.983C14.8564 222.134 17.4032 221.709 20.0561 221.709C22.5675 221.709 24.8667 221.992 26.9537 222.558C29.0407 223.089 30.8093 223.762 32.2596 224.576L29.7658 231.743C29.1291 231.389 28.2802 231.035 27.219 230.681C26.1578 230.327 25.079 230.044 23.9824 229.832C22.8859 229.584 21.9132 229.46 21.0642 229.46C18.9419 229.46 17.0671 229.726 15.44 230.257C13.8129 230.787 12.4334 231.584 11.3015 232.646C10.2049 233.708 9.37367 235.035 8.80771 236.628C8.24175 238.185 7.95877 240.008 7.95877 242.096C7.95877 243.936 8.27712 245.6 8.91383 247.087C9.55053 248.538 10.4348 249.777 11.5668 250.803C12.734 251.829 14.0959 252.608 15.6523 253.139C17.244 253.67 18.9949 253.935 20.905 253.935C22.0016 253.935 23.0097 253.865 23.9294 253.723C24.8491 253.546 25.6272 253.281 26.264 252.927V248.202H19.5255V240.769H34.0635V257.28Z" fill="#FFB400"/>
<path d="M33.0936 261.209L50.709 220.594H51.1335L68.7489 261.209H59.8351L48.5867 232.646L54.1578 228.823L40.6809 261.209H33.0936ZM45.1379 247.087H56.8638L59.5698 253.564H42.7502L45.1379 247.087Z" fill="#FFB400"/>
<path d="M69.1356 261.209V220.541H69.1887L90.8896 251.334L87.6 250.591L109.248 220.541H109.354V261.209H101.66V237.902L102.138 241.884L88.9264 260.678H88.8203L75.2374 241.884L76.5638 238.22V261.209H69.1356Z" fill="#FFB400"/>
<path d="M125.603 222.134C129.671 222.134 132.907 222.965 135.312 224.629C137.718 226.257 138.92 228.699 138.92 231.955C138.92 234.362 138.319 236.38 137.116 238.008C135.949 239.601 134.34 240.804 132.288 241.618C130.272 242.397 127.955 242.786 125.337 242.786L124.117 238.645C127.336 238.645 130.183 239.087 132.659 239.972C135.171 240.857 137.152 242.131 138.602 243.795C140.052 245.423 140.777 247.387 140.777 249.688C140.777 251.812 140.388 253.617 139.61 255.103C138.867 256.555 137.842 257.74 136.533 258.661C135.259 259.545 133.809 260.2 132.182 260.625C130.555 261.014 128.875 261.209 127.141 261.209H114.142V222.134H125.603ZM126.505 238.114C128.026 238.114 129.14 237.654 129.847 236.734C130.59 235.813 130.962 234.769 130.962 233.601C130.962 232.256 130.502 231.248 129.582 230.575C128.698 229.903 127.495 229.566 125.974 229.566H121.836V238.114H126.505ZM126.77 254.042C127.902 254.042 128.928 253.9 129.847 253.617C130.767 253.298 131.492 252.821 132.023 252.183C132.553 251.511 132.819 250.679 132.819 249.688C132.819 248.555 132.5 247.706 131.864 247.14C131.227 246.538 130.396 246.131 129.37 245.919C128.379 245.671 127.336 245.547 126.239 245.547H121.836V254.042H126.77Z" fill="#FFB400"/>
<path d="M143.19 222.134H150.883V261.209H143.19V222.134Z" fill="#FFB400"/>
<path d="M153.003 222.134H179.32V229.566H169.823V261.209H162.129V229.566H153.003V222.134Z" fill="#FFB400"/>
<path d="M177.704 241.724C177.704 239.034 178.217 236.486 179.243 234.079C180.269 231.672 181.684 229.549 183.488 227.708C185.327 225.832 187.45 224.363 189.855 223.302C192.26 222.24 194.842 221.709 197.601 221.709C200.325 221.709 202.89 222.24 205.295 223.302C207.7 224.363 209.823 225.832 211.662 227.708C213.537 229.549 214.987 231.672 216.013 234.079C217.074 236.486 217.604 239.034 217.604 241.724C217.604 244.485 217.074 247.069 216.013 249.476C214.987 251.883 213.537 254.006 211.662 255.847C209.823 257.652 207.7 259.068 205.295 260.094C202.89 261.121 200.325 261.634 197.601 261.634C194.842 261.634 192.26 261.121 189.855 260.094C187.45 259.068 185.327 257.652 183.488 255.847C181.684 254.006 180.269 251.883 179.243 249.476C178.217 247.069 177.704 244.485 177.704 241.724ZM185.663 241.724C185.663 243.459 185.964 245.087 186.565 246.609C187.202 248.095 188.069 249.423 189.165 250.591C190.297 251.723 191.588 252.608 193.038 253.245C194.524 253.882 196.133 254.201 197.867 254.201C199.529 254.201 201.068 253.882 202.483 253.245C203.933 252.608 205.189 251.723 206.25 250.591C207.311 249.423 208.142 248.095 208.744 246.609C209.345 245.087 209.646 243.459 209.646 241.724C209.646 239.955 209.327 238.309 208.691 236.787C208.089 235.265 207.24 233.938 206.144 232.805C205.083 231.637 203.827 230.734 202.377 230.097C200.926 229.46 199.352 229.142 197.654 229.142C195.957 229.142 194.383 229.46 192.932 230.097C191.482 230.734 190.209 231.637 189.112 232.805C188.016 233.938 187.167 235.265 186.565 236.787C185.964 238.309 185.663 239.955 185.663 241.724Z" fill="#FFB400"/>
<path d="M231.801 222.134C234.242 222.134 236.417 222.452 238.327 223.089C240.237 223.691 241.829 224.576 243.102 225.744C244.411 226.876 245.402 228.257 246.074 229.885C246.746 231.478 247.082 233.283 247.082 235.3C247.082 236.893 246.834 238.486 246.339 240.079C245.879 241.671 245.101 243.122 244.004 244.432C242.943 245.742 241.528 246.803 239.76 247.618C237.991 248.396 235.798 248.786 233.18 248.786H227.662V261.209H219.969V222.134H231.801ZM233.127 241.353C234.295 241.353 235.267 241.158 236.046 240.769C236.824 240.379 237.425 239.884 237.85 239.282C238.309 238.68 238.628 238.061 238.805 237.424C239.017 236.751 239.123 236.132 239.123 235.566C239.123 235.141 239.052 234.61 238.911 233.973C238.805 233.3 238.557 232.628 238.168 231.955C237.779 231.283 237.178 230.717 236.364 230.257C235.586 229.796 234.525 229.566 233.18 229.566H227.662V241.353H233.127ZM240.343 246.131L250 261.209H241.033L231.164 246.343L240.343 246.131Z" fill="#FFB400"/>
<defs>
<filter id="filter0_d_533_2440" x="163.288" y="54.0424" width="36.947" height="36.9496" filterUnits="userSpaceOnUse" color-interpolation-filters="sRGB">
<feFlood flood-opacity="0" result="BackgroundImageFix"/>
<feColorMatrix in="SourceAlpha" type="matrix" values="0 0 0 0 0 0 0 0 0 0 0 0 0 0 0 0 0 0 127 0" result="hardAlpha"/>
<feOffset dx="4.92086"/>
<feGaussianBlur stdDeviation="8.20144"/>
<feComposite in2="hardAlpha" operator="out"/>
<feColorMatrix type="matrix" values="0 0 0 0 0 0 0 0 0 0 0 0 0 0 0 0 0 0 0.3 0"/>
<feBlend mode="normal" in2="BackgroundImageFix" result="effect1_dropShadow_533_2440"/>
<feBlend mode="normal" in="SourceGraphic" in2="effect1_dropShadow_533_2440" result="shape"/>
</filter>
</defs>
</svg>
