<svg width="67" height="62" viewBox="0 0 67 62" fill="none" xmlns="http://www.w3.org/2000/svg">
<g clip-path="url(#clip0_2334_12569)">
<path d="M27.0502 22.0032C28.9512 22.0032 30.7952 22.1545 32.6053 21.9705C35.9999 21.6271 39.0022 22.0931 41.0132 25.5231C41.263 25.9496 41.684 26.6868 42.3357 25.9946C42.8083 25.4931 43.5578 25.0652 43.1844 24.1168C41.7586 20.4906 40.3329 16.8616 38.8705 13.2559C38.5025 12.3524 37.6484 12.6917 36.9857 12.6876C33.0656 12.6617 29.144 12.674 25.0039 12.674C25.5471 10.9025 26.2151 9.98943 27.9749 10.0317C32.8632 10.1461 37.7407 10.0712 43.2306 10.0712C40.7538 11.919 41.5292 13.6293 42.3425 15.4771C43.5144 18.1439 44.4486 20.928 45.615 23.603C46.1731 24.8799 46.1079 25.688 45.1234 26.7277C41.8455 30.1836 41.669 30.433 38.789 26.6596C36.5553 23.7325 33.8341 24.7286 31.2542 24.7095C29.3532 24.6973 28.0157 24.1086 27.0176 22.4433C26.9918 22.3997 27.0258 22.3098 27.0502 22.0032Z" fill="white"/>
<path d="M20 47.5572C21.9336 45.614 23.8971 43.698 25.7872 41.7111C26.4662 41.0025 26.9061 41.0025 27.5633 41.7111C28.1812 42.3775 28.4188 42.9198 27.5783 43.5249C26.9251 43.995 26.253 44.4366 25.589 44.8876C25.7465 45.1411 25.9049 45.3936 26.0642 45.6453C31.5052 45.6453 36.9476 45.6303 42.3899 45.6603C43.3703 45.6603 43.3404 45.0839 43.4178 44.3493C43.7831 40.7954 43.2195 37.8083 40.2458 35.3445C37.4079 32.9992 35.0139 30.0721 32.2004 27.1682C34.1463 26.7253 35.5259 26.7294 36.8702 28.2461C39.4501 31.1527 42.2174 33.8632 44.9033 36.6609C45.4655 37.2455 45.9896 37.7933 45.9652 38.7799C45.8932 41.4386 45.9203 44.1013 45.9543 46.7627C45.9665 47.6744 45.7547 48.1799 44.7539 48.1772C36.5877 48.1554 28.4224 48.1513 20.258 48.165L20 47.5572Z" fill="white"/>
<path d="M27.4969 13.845C26.2273 15.7841 25.1682 17.5952 23.9189 19.2468C22.9874 20.4732 22.9684 21.2173 24.124 22.3988C29.311 27.6861 34.3256 33.1642 39.5195 38.4407C40.9303 39.877 41.4123 41.3215 40.9792 43.2552C40.2554 43.2634 39.9893 42.6392 39.6118 42.2427C33.3656 35.7016 27.1669 29.1115 20.8732 22.6195C19.8059 21.5198 19.7761 20.7948 20.6546 19.6447C21.7153 18.2912 22.6687 16.8564 23.5061 15.3535C24.3955 13.6937 25.5755 13.1881 27.4969 13.845Z" fill="white"/>
<path d="M43.6759 0.483246C42.7472 2.67995 41.8686 4.67633 41.0607 6.69997C40.6112 7.82967 39.9323 8.29434 38.6627 8.25483C35.5654 8.15671 32.464 8.22622 29.364 8.21395C28.7014 8.21395 27.9029 8.402 27.5241 7.65932C26.3862 5.43536 25.2524 3.20459 24.2421 0.920673C23.8497 0.0335426 24.5137 -0.228101 25.1926 0.203881C26.7786 1.20957 29.3355 1.37583 28.7883 4.33157C28.5805 5.45581 29.4944 5.4708 30.2819 5.44082C30.9989 5.41357 31.9657 5.65749 31.8856 4.44739C31.7932 3.03289 32.3907 2.55185 33.7499 2.67586C34.9136 2.77942 36.2688 2.36925 36.1696 4.367C36.1072 5.62751 37.1527 5.43808 37.9729 5.4449C38.7523 5.4449 39.1651 5.20916 39.2887 4.30023C39.6499 1.61839 40.5026 0.893424 43.6759 0.483246Z" fill="#E5A908"/>
<path d="M24.4877 27.7749C25.5237 28.8951 26.8219 29.6459 26.5856 31.5905C26.4783 32.4804 27.1396 32.9137 27.5958 33.437C29.4683 35.5887 31.3585 37.7228 33.2364 39.8704C34.9134 41.7878 34.9107 41.7918 34.6554 44.8103C33.2405 43.8332 32.2995 42.3874 31.1874 41.1745C29.8418 39.7083 28.6686 38.0035 27.2061 36.7171C24.6275 34.4563 23.5562 31.6886 24.4877 27.7749Z" fill="white"/>
<path d="M39.5242 18.0573C38.6592 17.6485 38.2057 17.1184 37.9531 16.3771C39.4291 16.294 39.4291 16.294 39.5242 18.0573Z" fill="#E5A908"/>
<path fill-rule="evenodd" clip-rule="evenodd" d="M49.9571 48.6767C49.9571 48.6767 49.9478 48.5592 49.6191 48.5211C49.6191 48.5211 49.4889 47.8388 48.5673 48.0357C48.3947 48.0777 48.226 48.1339 48.0626 48.2037C48.058 48.2037 47.7828 48.199 47.7006 48.2146C47.41 48.2698 47.0852 48.4238 47.0666 48.6323C47.0581 48.7358 47.3704 48.5094 47.4255 48.8214C47.3914 48.9209 47.2604 49.1621 47.2263 49.2834C47.0658 49.8677 47.1828 50.329 47.3503 50.7475C47.3898 50.8478 47.441 50.7195 47.441 50.7016C47.4472 50.0201 47.8285 49.2025 49.1781 48.8914C49.5595 48.8027 49.9563 48.8027 49.9571 48.6767Z" fill="white"/>
<path d="M46.1804 51.0485C48.0982 51.53 49.9229 50.7373 51.7359 50.1477C52.6816 49.8412 53.6188 49.6303 54.6117 49.747C55.5644 49.8598 56.4721 50.1959 57.3976 50.4472C58.2635 50.6809 59.1566 50.7979 60.0533 50.7949C60.8129 50.7949 61.5555 50.8229 62.312 50.7015C63.2662 50.546 64.1894 50.2348 65.1359 50.0426C66.1067 49.8399 64.5482 50.1933 65.507 50.4472C67.5076 50.9761 63.3854 50.7583 65.507 50.1796C65.5271 50.1741 65.5186 50.1453 65.5 50.1477C63.4993 50.4106 67.3503 52.0959 65.5 51.5C64.6473 51.2246 65.599 50.5711 64.7053 50.6746C63.8231 50.7749 64.0724 49.7579 63.2104 49.9765C61.5307 50.4028 59.6734 50.4511 57.9898 50.0037C57.0798 49.7618 56.207 49.3908 55.297 49.148C54.4474 48.9121 53.5593 48.8505 52.6855 48.9668C50.6251 49.243 48.5873 50.574 46.4734 50.0333C45.8471 49.8668 45.5533 50.8906 46.1804 51.0485Z" fill="white"/>
<path d="M7.8724 60.9875C7.88015 61.0925 7.82589 61.1431 7.70962 61.1431C7.49432 61.1164 7.28133 61.0735 7.07245 61.0147C6.72157 60.9281 6.5053 60.8695 6.42365 60.8389C5.68285 61.1444 4.89129 61.307 4.09046 61.3181C2.89104 61.3181 1.90764 60.9172 1.14024 60.1155C0.379564 59.3251 -0.000516239 58.3265 5.26238e-07 57.1197C5.26238e-07 55.8859 0.368454 54.8622 1.10536 54.0485C1.86604 53.2078 2.85332 52.7872 4.0672 52.7867C4.63935 52.7831 5.20603 52.8986 5.73144 53.1259C6.2607 53.3484 6.71931 53.7118 7.05772 54.1769C7.10685 54.2336 7.14097 54.3018 7.15694 54.3752C7.15694 54.4997 6.98331 54.7789 6.63604 55.213C6.28877 55.6471 6.06476 55.8642 5.96399 55.8642C5.94073 55.8642 5.85133 55.7843 5.69579 55.6245C5.52509 55.4485 5.32914 55.2991 5.11443 55.1811C4.81381 55.0202 4.47766 54.9378 4.13697 54.9415C3.55509 54.9415 3.09336 55.1596 2.75178 55.5958C2.43396 55.9961 2.27506 56.4963 2.27506 57.0964C2.27506 57.7312 2.43991 58.2332 2.7696 58.6024C3.11067 58.9841 3.59359 59.175 4.21835 59.175C4.61368 59.175 5.05577 59.0757 5.54463 58.877C5.53275 58.7484 5.49787 58.4214 5.43999 57.8961C5.39477 57.5709 5.36888 57.2434 5.36247 56.9151C5.36247 56.8373 5.38728 56.7969 5.43999 56.7805C5.47008 56.7712 5.50156 56.7673 5.533 56.7689C5.64566 56.7689 5.81542 56.7798 6.04228 56.8015C6.26914 56.8233 6.4407 56.834 6.55697 56.8334C6.681 56.8334 6.86704 56.8249 7.11586 56.807C7.36468 56.7891 7.54994 56.7805 7.67474 56.7805C7.77163 56.7805 7.81969 56.8451 7.81969 56.9735C7.81969 57.1602 7.8091 57.4425 7.78791 57.8206C7.76621 58.1979 7.75613 58.4803 7.75613 58.667C7.75613 59.1695 7.79282 59.9215 7.8662 60.923L7.8724 60.9875Z" fill="#E5A908"/>
<path d="M16.8536 61.0279C16.8536 61.0987 16.8048 61.1469 16.7079 61.1741C16.5916 61.2053 16.2299 61.2208 15.6227 61.2208C15.0676 61.2208 14.7108 61.2053 14.5522 61.1741C14.4882 61.1622 14.4297 61.1304 14.3847 61.0832C14.3398 61.036 14.3108 60.9758 14.3018 60.9112C14.17 60.3511 14.0667 60.0514 13.9917 60.0119C13.9297 59.9844 13.4099 59.971 12.4321 59.9715C11.7733 59.9715 11.4224 59.9889 11.3795 60.0236C11.3136 60.0866 11.24 60.2943 11.1586 60.6459C11.0847 60.9711 10.9961 61.1461 10.8927 61.171C10.7609 61.2021 10.3188 61.2177 9.56643 61.2177C8.97266 61.2177 8.67578 61.1614 8.67578 61.0489C8.67578 60.9452 9.11503 59.7005 9.99353 57.3149C10.9439 54.7338 11.4606 53.3148 11.5438 53.0581C11.5903 52.9103 11.6446 52.8364 11.7066 52.8364C11.81 52.8364 11.9717 52.846 12.1919 52.8652C12.412 52.8844 12.5761 52.8943 12.6841 52.8948C12.7874 52.8948 12.9425 52.888 13.1492 52.8745C13.3559 52.8611 13.5083 52.8541 13.6065 52.8535C13.6801 52.8535 13.7476 52.9181 13.8096 53.0465C14.0003 53.4551 14.555 54.8554 15.4738 57.2472C16.3937 59.6629 16.8536 60.9231 16.8536 61.0279ZM12.7283 55.7085C12.6471 55.8802 12.5094 56.252 12.3151 56.824C12.1058 57.4318 12.0012 57.7881 12.0012 57.8929C12.0012 57.9629 12.1174 58.0018 12.35 58.0096C12.4699 58.0174 12.6678 58.0212 12.9437 58.0212C13.1995 58.0212 13.3409 57.9901 13.3678 57.9279C13.3761 57.9028 13.38 57.8765 13.3794 57.8501C13.3794 57.721 13.2902 57.3665 13.112 56.7867C12.9378 56.224 12.8099 55.8646 12.7283 55.7085Z" fill="#E5A908"/>
<path d="M26.6076 60.993C26.6076 61.1143 26.5518 61.1742 26.4394 61.1742H24.3775C24.2643 61.1742 24.2085 61.1065 24.2085 60.9696C24.2085 60.577 24.223 59.9874 24.2519 59.2006C24.2808 58.4139 24.2953 57.8242 24.2953 57.4317C24.2953 57.3189 24.2783 57.2582 24.2434 57.2504C24.201 57.2738 23.9411 57.8751 23.4636 59.0544C23.1845 59.7473 22.9052 60.4383 22.6256 61.1275C22.6146 61.1627 22.5958 61.1949 22.5708 61.2219C22.5457 61.2488 22.5149 61.2697 22.4807 61.2831C22.4605 61.287 22.383 61.2886 22.2481 61.2886C22.0466 61.2886 21.9265 61.2497 21.8877 61.1719C21.681 60.744 21.4056 60.1217 21.0614 59.3049C20.6997 58.4404 20.4263 57.8157 20.2413 57.4309C20.2289 57.4056 20.2108 57.3835 20.1886 57.3663C20.1571 57.417 20.1427 57.4764 20.1475 57.5359C20.1475 57.9171 20.1573 58.4894 20.1769 59.2528C20.1966 60.0162 20.2064 60.5882 20.2064 60.9688C20.2064 61.1058 20.1514 61.1734 20.0428 61.1734H18.0988C18.0213 61.1734 17.974 61.161 17.9561 61.1353C17.9356 61.0948 17.9267 61.0492 17.9306 61.0039C17.9306 60.5796 17.9507 59.9423 17.991 59.0917C18.0313 58.2412 18.0517 57.6038 18.0523 57.1796C18.0523 56.7274 18.0329 55.8808 17.9941 54.6397C17.9905 54.3161 17.9732 53.8354 17.9422 53.1975L17.936 53.0979C17.9324 53.0201 18.0138 52.9812 18.1802 52.9812C18.3941 52.9812 18.7135 52.9742 19.1406 52.961C19.5677 52.9477 19.887 52.94 20.1002 52.94C20.1428 52.94 20.2033 53.0217 20.2808 53.1858L21.9799 56.9283C22.0998 57.1814 22.2006 57.308 22.2822 57.308C22.3251 57.308 22.4163 57.162 22.5559 56.87C22.9476 56.0527 23.5274 54.8207 24.2953 53.1741C24.3612 53.0185 24.4333 52.9462 24.5108 52.9462C24.6234 52.9462 24.7932 52.9519 25.0201 52.9633C25.2469 52.9747 25.4185 52.9807 25.5348 52.9812C25.6319 52.9812 25.7805 52.9714 25.9805 52.9516C26.1797 52.9322 26.3285 52.9229 26.4254 52.9229C26.5417 52.9229 26.5998 52.9695 26.5998 53.0629C26.5998 53.5219 26.5833 54.208 26.5502 55.1212C26.5171 56.0345 26.5006 56.7206 26.5006 57.1796C26.5006 57.6038 26.5182 58.2402 26.5533 59.0886C26.5885 59.9371 26.6065 60.5719 26.6076 60.993Z" fill="#E5A908"/>
<path d="M35.0527 58.6518C35.0527 59.3685 34.8297 59.9623 34.3837 60.4332C33.8752 60.9736 32.983 61.2441 31.7071 61.2446C31.6102 61.2446 31.4707 61.2446 31.2886 61.2392H30.8754C29.4435 61.2392 28.5908 61.2098 28.3174 61.1512C28.2042 61.1279 28.1484 61.068 28.1484 60.97C28.1484 60.5551 28.1727 59.9245 28.2213 59.0781C28.2699 58.2317 28.2939 57.5993 28.2934 57.1807C28.2934 56.7285 28.2701 55.8798 28.2236 54.6346C28.2117 54.3157 28.1906 53.837 28.1601 53.1986L28.1539 53.1169C28.1539 53.043 28.2112 52.9979 28.3376 52.9823C28.4639 52.9668 28.9127 52.959 29.684 52.959C30.9242 52.959 31.6477 52.9629 31.8544 52.9707C32.8089 53.0059 33.513 53.1615 33.9667 53.4374C34.5682 53.8077 34.869 54.4326 34.869 55.3122C34.8611 55.5693 34.7888 55.8202 34.6589 56.0419C34.548 56.2392 34.4154 56.4234 34.2636 56.5911C34.1204 56.7508 34.0486 56.8247 34.0481 56.8128C34.0481 56.8403 34.0985 56.8831 34.1992 56.9412C34.4859 57.1135 34.7102 57.3733 34.8395 57.6825C34.9803 57.9861 35.0531 58.3169 35.0527 58.6518ZM32.5513 55.3643C32.5513 55.0298 32.3844 54.8081 32.0505 54.6992C31.8645 54.6411 31.5581 54.6118 31.1312 54.6113C30.7126 54.6113 30.5026 54.6424 30.5026 54.7046C30.5026 54.7824 30.4964 54.8906 30.4824 55.0407C30.4685 55.1908 30.4623 55.3021 30.4623 55.376C30.4623 55.766 30.4951 55.984 30.5607 56.0302C30.6036 56.0655 30.8501 56.0831 31.3002 56.0831C32.1342 56.0831 32.5513 55.8435 32.5513 55.3643ZM32.7257 58.6316C32.7257 58.2815 32.5802 58.0442 32.2893 57.9198C32.1032 57.842 31.8007 57.8031 31.3816 57.8031C30.8808 57.8031 30.6064 57.821 30.5669 57.8583C30.5274 57.8956 30.5026 58.1337 30.5026 58.5732C30.5026 59.033 30.5281 59.2866 30.5801 59.3356C30.632 59.3846 30.9095 59.4087 31.418 59.4087C31.8366 59.4087 32.1314 59.3755 32.3025 59.3091C32.5841 59.1945 32.7252 58.9676 32.7257 58.6285V58.6316Z" fill="#E5A908"/>
<path d="M38.2885 56.9597C38.2885 57.321 38.2935 57.86 38.3035 58.5766C38.3135 59.2932 38.3188 59.8299 38.3192 60.1865C38.3192 60.2916 38.2761 60.353 38.1906 60.3728C37.9298 60.4126 37.6674 60.4275 37.4053 60.4174C37.1413 60.4276 36.8771 60.4127 36.6144 60.3728C36.5385 60.353 36.4927 60.3213 36.4776 60.2737C36.4674 60.2001 36.4639 60.1248 36.4674 60.0498C36.4674 59.7084 36.4724 59.1942 36.4824 58.5072C36.4924 57.8203 36.4977 57.3035 36.4981 56.9568C36.4981 55.5486 36.4605 54.428 36.3853 53.5952C36.3784 53.5159 36.375 53.4634 36.375 53.4386C36.375 53.3396 36.4208 53.29 36.5118 53.29C36.6028 53.29 36.754 53.3049 36.951 53.3346C37.148 53.3643 37.2931 53.3792 37.3957 53.3792C37.4983 53.3792 37.6433 53.3673 37.8424 53.3426C38.0415 53.3178 38.1893 53.3049 38.2891 53.3049C38.3712 53.3049 38.4123 53.3544 38.4123 53.4535C38.4123 53.4733 38.4123 53.5209 38.402 53.5952C38.3212 54.7128 38.2833 55.836 38.2885 56.9597Z" fill="#E5A908"/>
<path d="M45.7165 54.7694C45.7165 54.8472 45.6739 54.8861 45.5886 54.8861C45.4413 54.8861 44.8576 54.8568 43.8375 54.7982C43.8143 55.7836 43.8026 56.4707 43.8026 56.8597C43.8026 57.3192 43.821 58.0102 43.8577 58.9328C43.8944 59.8554 43.9127 60.5462 43.9127 61.0052C43.9127 61.083 43.8957 61.1265 43.8608 61.146C43.8078 61.1619 43.7532 61.1716 43.698 61.1748C43.3577 61.2113 43.0155 61.2269 42.6733 61.2214C42.3217 61.2291 41.9701 61.2135 41.6206 61.1748C41.598 61.1738 41.5758 61.1683 41.5553 61.1586C41.5349 61.1489 41.5165 61.1352 41.5014 61.1184C41.4862 61.1015 41.4746 61.0818 41.4671 61.0603C41.4596 61.0389 41.4565 61.0162 41.4578 60.9935C41.4578 60.5346 41.4772 59.8456 41.516 58.9266C41.5547 58.0076 41.5741 57.3186 41.5741 56.8597C41.5741 56.5563 41.5586 55.879 41.5276 54.8277C40.7524 54.9055 40.1323 54.9444 39.6672 54.9444C39.6052 54.9444 39.5742 54.925 39.5742 54.8861C39.59 54.7346 39.6159 54.5844 39.6517 54.4365C39.7137 54.1642 39.7486 53.9988 39.7564 53.9401C39.7677 53.7576 39.7814 53.5745 39.7975 53.3909C39.8248 53.0995 39.8714 52.9535 39.937 52.953L40.0184 52.9592C40.6473 53.0411 41.5775 53.0821 42.8089 53.0821C43.1577 53.0821 43.8016 53.045 44.7406 52.9709L45.5025 52.9125C45.5478 52.9075 45.5936 52.9126 45.6366 52.9273C45.6483 52.9366 45.656 52.9747 45.6599 53.0409C45.6599 53.1459 45.656 53.2921 45.6483 53.4788C45.6405 53.685 45.6366 53.8312 45.6366 53.9168C45.6404 54.0606 45.6529 54.204 45.6739 54.3462C45.6968 54.4863 45.711 54.6276 45.7165 54.7694Z" fill="#E5A908"/>
<path d="M54.9058 57.0875C54.9058 58.3015 54.5198 59.3196 53.7477 60.1416C52.9602 60.9713 51.9633 61.3878 50.7572 61.3909C49.5511 61.394 48.556 60.9734 47.7721 60.1291C46.9969 59.3087 46.6094 58.2948 46.6094 57.0875C46.6094 55.8801 46.9969 54.8621 47.7721 54.0334C48.5638 53.1911 49.5588 52.77 50.7572 52.77C51.9457 52.77 52.9387 53.1924 53.7361 54.0373C54.5159 54.8675 54.9058 55.8843 54.9058 57.0875ZM52.7005 57.0758C52.7144 56.5307 52.5257 56 52.1711 55.5869C51.9989 55.3797 51.7823 55.2143 51.5375 55.1031C51.2926 54.9918 51.0259 54.9375 50.7572 54.9443C50.2099 54.9443 49.7464 55.1663 49.3666 55.6102C49.0057 56.0168 48.8087 56.5437 48.8139 57.0882C48.8139 57.6836 48.9865 58.1799 49.3317 58.5772C49.6934 58.9921 50.1686 59.1995 50.7572 59.1995C51.3034 59.1995 51.7685 58.9796 52.1525 58.5398C52.5107 58.1375 52.7061 57.6153 52.7005 57.0758Z" fill="#E5A908"/>
<path d="M66.9306 61.0873C66.9306 61.1277 66.8725 61.1573 66.7562 61.1744C66.5345 61.2091 65.9787 61.2268 65.0889 61.2273C64.3272 61.2273 63.8104 61.2097 63.5386 61.1744C63.4644 61.1692 63.3912 61.1546 63.3208 61.1308C63.2646 61.0849 63.2222 61.0244 63.1983 60.9558C63.111 60.7281 62.9831 60.3895 62.8146 59.9398C62.5877 59.3554 62.2327 58.4939 61.7495 57.3556C61.6462 57.1279 61.4046 57.0024 61.0248 56.9791C61.2 56.9905 60.9005 56.9962 60.1264 56.9962C60.039 56.9962 59.9954 57.1453 59.9954 57.4435C59.9954 57.8402 60.0318 58.4327 60.1047 59.221C60.1775 60.0093 60.2137 60.6021 60.2132 60.9994C60.2132 61.0989 60.1868 61.1549 60.1357 61.1744L59.8915 61.1923C59.5484 61.2156 59.013 61.2273 58.2854 61.2273C57.4529 61.2273 56.9524 61.2097 56.7839 61.1744C56.6155 61.1391 56.5312 61.0486 56.5312 60.9029C56.5312 60.2603 56.5617 59.291 56.6227 57.995C56.6837 56.699 56.7142 55.7269 56.7142 55.0786C56.7142 52.609 56.6589 50.6818 56.5483 49.2972L56.5398 49.175C56.5346 49.0754 56.6263 49.0083 56.815 48.9735C57.0036 48.9388 57.8922 48.9038 59.4807 48.8685C60.5571 48.8452 61.4155 48.8335 62.0557 48.8335C63.3823 48.8335 64.4644 49.134 65.302 49.7351C66.2508 50.4129 66.7252 51.391 66.7252 52.6694C66.7252 53.522 66.603 54.2024 66.3586 54.7107C66.1141 55.2189 65.6633 55.7116 65.0059 56.1887C64.8718 56.2821 64.8052 56.3692 64.8052 56.4509C64.8052 56.4457 65.1599 57.1785 65.8695 58.6493C66.579 60.1201 66.9327 60.9327 66.9306 61.0873ZM63.265 53.2303C63.265 52.5177 63.0324 52.025 62.5673 51.7522C62.2056 51.5448 61.6413 51.4411 60.8744 51.4411C60.3215 51.4411 60.0277 51.5256 59.9931 51.6947C59.9579 51.8938 59.9403 52.4661 59.9403 53.4115C59.9403 53.5464 59.9432 53.745 59.9489 54.0074C59.9546 54.2698 59.9577 54.4654 59.9582 54.594C59.9582 54.6235 60.0512 54.6523 60.2372 54.6819C60.6072 54.735 60.9805 54.761 61.3542 54.7597C62.6291 54.7561 63.2665 54.2462 63.2665 53.2303H63.265Z" fill="#E5A908"/>
<path fill-rule="evenodd" clip-rule="evenodd" d="M38.4201 60.7297C39.1516 60.3798 39.2593 60.2336 39.673 59.9558C40.1724 59.6204 40.4435 60.2378 39.9339 60.5529C39.2962 60.9472 38.4201 60.7297 38.4201 60.7297Z" fill="white"/>
<path fill-rule="evenodd" clip-rule="evenodd" d="M39.8314 60.5437C39.6622 60.6401 39.2433 60.7794 38.8515 60.7487C39.379 60.651 39.5921 60.4887 39.7598 60.3921C39.8894 60.3151 39.9505 60.2329 40.0058 60.3163C40.09 60.4085 39.938 60.4779 39.8314 60.5437Z" fill="#146AA7"/>
<path fill-rule="evenodd" clip-rule="evenodd" d="M38.8338 61.1256C37.1276 60.9794 36.8447 60.0797 36.1215 59.1398C35.3939 58.194 34.8837 58.9824 35.2182 59.4537C35.5528 59.9249 35.0241 60.2297 34.2107 59.227C33.7724 58.6867 33.6461 58.5787 33.3682 58.696C32.9055 58.8911 33.1136 59.4069 33.6731 59.8862C34.6856 60.7539 37.1671 61.3509 38.8338 61.1256Z" fill="white"/>
<path fill-rule="evenodd" clip-rule="evenodd" d="M35.6364 59.5668C35.899 59.8124 36.0663 59.8326 36.7219 60.4519C36.7198 60.4485 36.3316 59.8652 35.8029 59.3968C35.6634 59.2579 35.5529 59.0573 35.4415 59.1623C35.2843 59.2631 35.5231 59.4505 35.6364 59.5668Z" fill="#146AA7"/>
</g>
<defs>
<clipPath id="clip0_2334_12569">
<rect width="67" height="62" fill="white"/>
</clipPath>
</defs>
</svg>
