<svg width="20" height="20" viewBox="0 0 20 20" fill="none" xmlns="http://www.w3.org/2000/svg">
<path fill-rule="evenodd" clip-rule="evenodd" d="M10 20C11.3132 20 12.6136 19.7413 13.8268 19.2388C15.0401 18.7362 16.1425 17.9997 17.0711 17.0711C17.9997 16.1425 18.7362 15.0401 19.2388 13.8268C19.7413 12.6136 20 11.3132 20 10C20 8.68678 19.7413 7.38642 19.2388 6.17317C18.7362 4.95991 17.9997 3.85752 17.0711 2.92893C16.1425 2.00035 15.0401 1.26375 13.8268 0.761205C12.6136 0.258658 11.3132 -1.95685e-08 10 0C7.34784 3.95203e-08 4.8043 1.05357 2.92893 2.92893C1.05357 4.8043 0 7.34784 0 10C0 12.6522 1.05357 15.1957 2.92893 17.0711C4.8043 18.9464 7.34784 20 10 20Z" fill="#005EFE"/>
<path d="M12.4553 12.8465C12.672 12.8465 12.8432 12.9072 12.9688 13.0285C13.0945 13.1455 13.1573 13.3015 13.1573 13.4965V14.6665H6.50133V14.0165C6.50133 13.8908 6.52733 13.7565 6.57933 13.6135C6.63133 13.4705 6.72233 13.3405 6.85233 13.2235L9.58233 10.474C9.81633 10.24 10.02 10.0168 10.1933 9.8045C10.3667 9.59217 10.5097 9.38417 10.6223 9.1805C10.735 8.9725 10.8195 8.76667 10.8758 8.563C10.9322 8.355 10.9603 8.13617 10.9603 7.9065C10.9603 7.5295 10.8693 7.24134 10.6873 7.042C10.5097 6.83834 10.2367 6.7365 9.86833 6.7365C9.56933 6.7365 9.31583 6.81667 9.10783 6.977C8.90416 7.133 8.76333 7.328 8.68533 7.562C8.59433 7.80034 8.47516 7.9585 8.32783 8.0365C8.18049 8.1145 7.97033 8.13184 7.69733 8.0885L6.63133 7.9C6.70066 7.42767 6.83283 7.016 7.02783 6.665C7.22716 6.314 7.47199 6.0215 7.76233 5.7875C8.05699 5.5535 8.39283 5.38017 8.76983 5.2675C9.14683 5.1505 9.55199 5.092 9.98533 5.092C10.4533 5.092 10.8737 5.16134 11.2463 5.3C11.6233 5.43434 11.944 5.62284 12.2083 5.8655C12.4727 6.10817 12.6742 6.3985 12.8128 6.7365C12.9558 7.07017 13.0273 7.4385 13.0273 7.8415C13.0273 8.18817 12.9775 8.50884 12.8778 8.8035C12.7825 9.09817 12.6503 9.37984 12.4813 9.6485C12.3123 9.91284 12.1152 10.1707 11.8898 10.422C11.6688 10.669 11.4327 10.9203 11.1813 11.176L9.32883 13.074C9.56716 13.0003 9.80333 12.944 10.0373 12.905C10.2713 12.866 10.488 12.8465 10.6873 12.8465H12.4553Z" fill="white"/>
</svg>
