<svg width="100%" height="100%" id="svg" viewBox="0 0 1440 590" xmlns="http://www.w3.org/2000/svg" class="transition duration-300 ease-in-out delay-150"><path d="M 0,600 L 0,150 C 57.102564102564116,183.09487179487178 114.20512820512823,216.18974358974359 205,196 C 295.79487179487177,175.81025641025641 420.2820512820514,102.33589743589742 515,95 C 609.7179487179486,87.66410256410258 674.6666666666666,146.4666666666667 739,158 C 803.3333333333334,169.5333333333333 867.0512820512822,133.7974358974359 951,126 C 1034.9487179487178,118.20256410256411 1139.128205128205,138.34358974358975 1224,147 C 1308.871794871795,155.65641025641025 1374.4358974358975,152.82820512820513 1440,150 L 1440,600 L 0,600 Z" stroke="none" stroke-width="0" fill="#0693e3" fill-opacity="0.53" class="transition-all duration-300 ease-in-out delay-150 path-0"></path><path d="M 0,600 L 0,350 C 51.820512820512846,305.2692307692307 103.64102564102569,260.5384615384615 196,283 C 288.3589743589743,305.4615384615385 421.25641025641016,395.11538461538464 502,396 C 582.7435897435898,396.88461538461536 611.3333333333334,309 695,305 C 778.6666666666666,301 917.4102564102564,380.88461538461536 996,391 C 1074.5897435897436,401.11538461538464 1093.025641025641,341.46153846153845 1157,323 C 1220.974358974359,304.53846153846155 1330.4871794871794,327.2692307692308 1440,350 L 1440,600 L 0,600 Z" stroke="none" stroke-width="0" fill="#0693e3" fill-opacity="1" class="transition-all duration-300 ease-in-out delay-150 path-1"></path></svg>