<svg width="48" height="48" viewBox="0 0 48 48" fill="none" xmlns="http://www.w3.org/2000/svg">
<circle cx="24" cy="24" r="24" fill="#FF00C7"/>
<path d="M28.6453 19.7081C28.5222 19.905 28.3909 20.0528 28.2513 20.1512C28.12 20.2497 27.9477 20.299 27.7343 20.299C27.5456 20.299 27.3404 20.2415 27.1188 20.1266C26.9054 20.0035 26.6592 19.8681 26.3802 19.7204C26.1094 19.5727 25.7975 19.4414 25.4447 19.3265C25.0918 19.2034 24.6896 19.1418 24.2383 19.1418C23.4586 19.1418 22.876 19.3101 22.4903 19.6465C22.1128 19.9748 21.924 20.4221 21.924 20.9883C21.924 21.3494 22.0389 21.649 22.2687 21.887C22.4985 22.125 22.798 22.3301 23.1673 22.5025C23.5448 22.6748 23.9716 22.8348 24.4476 22.9825C24.9317 23.1221 25.4241 23.2821 25.9248 23.4626C26.4254 23.635 26.9137 23.8401 27.3896 24.0781C27.8738 24.3161 28.3006 24.6198 28.6699 24.9891C29.0474 25.3584 29.351 25.8097 29.5808 26.3432C29.8106 26.8684 29.9255 27.5044 29.9255 28.2512C29.9255 29.0801 29.7819 29.8556 29.4947 30.5778C29.2074 31.3 28.7889 31.9319 28.239 32.4736C27.6974 33.007 27.0244 33.4296 26.2202 33.7415C25.4241 34.0451 24.5173 34.197 23.4997 34.197C22.9416 34.197 22.3713 34.1395 21.7886 34.0246C21.2141 33.9097 20.6561 33.7497 20.1144 33.5445C19.5728 33.3312 19.064 33.0809 18.588 32.7936C18.112 32.5064 17.6976 32.1863 17.3447 31.8334L18.5757 29.8885C18.6742 29.7489 18.8014 29.6341 18.9573 29.5438C19.1214 29.4453 19.2979 29.3961 19.4866 29.3961C19.7328 29.3961 19.979 29.474 20.2252 29.6299C20.4796 29.7859 20.7628 29.9582 21.0746 30.147C21.3947 30.3357 21.7599 30.5081 22.1702 30.664C22.5805 30.8199 23.0647 30.8979 23.6228 30.8979C24.3778 30.8979 24.9646 30.7337 25.3831 30.4055C25.8017 30.069 26.0109 29.5397 26.0109 28.8175C26.0109 28.3989 25.896 28.0584 25.6662 27.7958C25.4365 27.5331 25.1328 27.3157 24.7553 27.1433C24.386 26.971 23.9634 26.8192 23.4874 26.6879C23.0114 26.5566 22.5231 26.4129 22.0225 26.257C21.5219 26.0929 21.0336 25.8959 20.5576 25.6661C20.0816 25.4281 19.6549 25.1204 19.2774 24.7429C18.9081 24.3572 18.6085 23.8812 18.3787 23.3149C18.1489 22.7405 18.034 22.0347 18.034 21.1976C18.034 20.5247 18.1695 19.8681 18.4403 19.228C18.7111 18.5879 19.1091 18.0175 19.6343 17.5169C20.1596 17.0163 20.8038 16.6183 21.567 16.3228C22.3302 16.0192 23.2042 15.8674 24.189 15.8674C24.7389 15.8674 25.2723 15.9125 25.7893 16.0028C26.3146 16.0848 26.8111 16.212 27.2789 16.3844C27.7466 16.5485 28.1816 16.7496 28.5837 16.9876C28.994 17.2174 29.3592 17.48 29.6793 17.7754L28.6453 19.7081Z" fill="white"/>
</svg>
