<svg width="350" height="360" viewBox="0 0 350 360" fill="none" xmlns="http://www.w3.org/2000/svg">
<path d="M348.838 359.219C347.958 358.499 346.988 357.96 345.968 357.539C345.778 357.699 345.558 357.769 345.288 357.719C338.678 356.429 331.568 356.239 324.808 356.109C318.548 355.989 312.488 355.899 306.428 356.249C305.768 356.489 305.128 356.759 304.508 357.069C303.278 357.669 301.888 358.529 300.468 358.229C300.128 358.159 299.818 357.899 299.558 357.689C298.718 357.019 298.138 357.989 297.618 358.609C297.458 358.809 297.078 358.759 296.968 358.529C294.458 353.259 292.548 347.749 290.838 342.169C287.838 346.27 287.368 352.009 285.038 356.459C284.938 356.649 284.648 356.729 284.468 356.609C284.038 356.309 283.688 355.969 283.388 355.599C280.978 355.449 270.948 354.859 270.568 354.869C261.668 355.329 252.778 355.319 243.878 355.769C241.988 355.869 240.098 355.939 238.198 355.999C238.178 355.999 238.168 356.019 238.158 356.019C235.968 356.569 230.118 358.539 228.638 355.729C228.118 354.74 228.018 353.589 227.658 352.529C227.168 351.079 226.688 349.639 226.218 348.179C225.278 345.289 224.318 342.409 223.248 339.559C221.918 341.869 221.368 344.979 220.648 347.439C220.408 348.259 220.178 349.069 219.938 349.889C219.848 351.199 219.758 352.509 219.628 353.819C219.358 354.699 218.948 355.399 218.318 355.629C217.158 354.119 215.758 352.919 213.368 353.209C212.678 353.289 212.168 353.609 211.738 354.009C210.788 354.119 209.788 354.469 209.068 354.829C204.848 356.919 202.058 355.849 197.938 355.449C191.448 354.829 184.478 355.139 177.928 355.259C163.668 355.52 149.628 356.419 135.308 356.179C124.438 355.999 113.338 355.749 102.418 356.279C96.4381 355.889 90.4081 355.719 84.2281 356.039C80.5181 356.229 77.0081 356.27 73.3281 356.879C71.6281 357.159 70.5481 357.309 69.8381 357.249C69.3281 357.499 68.8281 357.769 68.3381 358.059C68.1181 358.189 67.7881 358.069 67.7281 357.809C66.8781 354.169 68.3281 350.399 66.2481 347.039C65.2881 345.479 64.0981 344.109 62.8381 342.799C63.5381 347.269 60.6781 351.899 60.3881 356.249C60.2781 357.909 58.4481 358.259 56.4281 358.159C56.4881 357.899 56.1181 357.469 55.7981 357.449C53.1781 357.27 50.6481 357.269 48.1481 357.359C44.7281 357.289 41.2881 357.409 37.8981 357.529C32.0981 357.729 25.9881 356.649 20.2581 357.219C18.0881 357.429 15.9081 357.649 13.7381 357.869C6.82812 358.559 8.62813 358.339 9.09813 354.329C9.21813 353.249 9.23812 352.159 9.20813 351.069C9.86812 347.629 10.4281 344.15 10.7381 340.509C11.0881 336.4 11.1081 331.46 10.2881 327.389C9.80813 324.99 10.1381 321.769 9.95813 319.249C9.91813 318.709 10.7181 317.909 11.7981 317.049C13.5081 316.419 15.1181 315.699 16.1181 315.379C18.9181 314.479 21.7181 313.749 24.5581 313.079C25.4281 312.939 26.2581 312.749 27.0181 312.509C27.5981 312.379 28.1881 312.239 28.7681 312.119C29.6081 311.929 30.5381 311.789 31.4581 311.629C28.7381 310.079 25.5681 309.179 22.6881 308.189C20.6081 307.469 18.5681 306.52 16.3981 306.099C13.4881 305.539 10.5681 305.499 7.61812 305.499C7.30813 305.499 7.09813 305.149 7.25813 304.879C8.32812 303.099 7.92813 301.059 8.42813 299.179C8.53813 286.279 10.3481 273.449 8.85812 260.409C7.76812 250.869 11.7981 242.45 12.0381 232.99C12.0581 232.01 12.1781 231.209 12.3481 230.539C16.3581 225.439 22.2881 228.1 28.6281 225.579C26.5781 224.07 24.6981 222.32 22.4581 221.13C20.4881 220.09 18.3781 219.479 16.2181 219.039C16.0581 219.039 15.8881 219.019 15.7281 219.009C15.6481 218.969 15.5681 218.929 15.4881 218.889C14.1481 218.639 12.7881 218.439 11.4381 218.24C11.2181 218.21 11.0881 217.929 11.1481 217.729C11.7381 215.709 11.8481 213.579 11.8981 211.46C11.8681 209.639 11.8681 207.82 11.8981 205.999C12.5881 199.049 12.8081 192.329 12.8281 185.199C12.8681 170.699 11.6281 156.389 12.2281 141.839C12.8581 126.579 12.1181 110.929 11.4281 95.6695C10.9681 85.2995 10.4081 74.8795 8.20813 64.7495C8.27812 59.5895 8.57812 54.0795 9.63813 53.5895C12.1881 52.4195 15.5581 52.0595 18.9981 51.7395C19.0581 51.7195 19.1081 51.6995 19.1681 51.6795C21.3181 50.7895 23.3981 49.7295 25.4081 48.5595C23.4881 48.0295 21.5381 47.6195 19.6181 47.1895C15.2381 46.2095 10.8781 44.3395 6.36812 44.2095C6.23812 44.2095 6.06813 44.1395 6.00813 43.9995C5.81813 43.5695 5.77813 43.4595 5.74813 43.0595C4.23812 41.7095 4.43813 39.2295 4.24813 36.7595C3.54813 27.5895 4.78813 18.5795 0.078125 10.3195C5.96812 10.5395 11.6981 11.2395 17.6781 11.2195C23.0981 12.2295 28.4581 13.5295 34.0481 14.4995C42.5681 15.9895 54.3381 11.7195 62.4281 9.61949C72.7181 6.95949 83.7481 7.69949 94.3681 7.10949C99.5481 6.81949 104.398 6.41949 109.498 5.46949C112.608 4.88949 114.998 5.23949 116.848 6.19949C117.058 6.24949 117.268 6.34949 117.428 6.52949C117.438 6.53949 117.448 6.55949 117.458 6.56949C119.318 7.75949 120.578 9.61949 121.438 11.7695C122.678 13.5395 123.858 15.3495 125.028 17.1595C125.068 17.1895 125.108 17.1995 125.148 17.2295C125.818 17.8095 126.448 18.4295 127.088 19.0395C128.628 16.6695 128.698 13.7095 129.968 11.1495C130.598 9.86949 129.308 4.36949 130.188 4.43949C139.348 5.24949 148.558 6.08949 157.708 5.05949C163.008 4.46949 168.378 4.54949 173.698 4.40949C179.198 4.25949 185.708 5.79949 191.098 4.38949C195.198 3.31949 199.698 0.0794926 199.398 6.26949C199.278 8.81949 203.018 13.0795 204.228 15.1395C204.568 15.7195 205.758 16.3795 206.268 15.5695C207.838 13.0995 208.168 11.5795 208.168 8.68949C208.168 3.31949 210.838 4.23949 215.718 3.54949C221.238 2.76949 227.558 2.88949 233.168 2.69949C238.678 2.50949 244.238 3.52949 249.658 3.21949C252.058 3.07949 274.958 1.47949 274.888 0.729492C275.358 5.65949 278.378 10.6995 279.948 15.3495C281.078 18.6895 281.348 21.9695 282.748 25.2395C282.918 25.6495 283.898 25.9995 283.998 25.3695C285.048 18.8195 286.908 12.0095 287.108 5.41949C287.108 5.04949 290.608 5.01949 294.128 5.06949C302.388 5.94949 311.088 6.17949 319.108 6.42949C328.238 6.70949 336.618 6.63949 345.108 3.86949C345.618 4.16949 345.808 4.65949 345.428 5.44949C343.008 10.4695 343.558 14.6595 345.068 19.8395C347.278 27.3995 337.468 25.3695 331.368 26.7595C331.078 26.8295 330.878 26.9395 330.728 27.0595C331.758 27.3295 332.768 27.6495 333.768 27.9995C335.758 28.4295 337.728 28.8895 339.538 29.6095C341.498 29.5495 345.168 30.3095 345.878 32.4195C346.168 33.2795 345.888 33.8395 345.098 34.2695C342.848 35.5095 345.408 36.8395 345.778 38.1495C346.338 40.1795 345.458 42.4295 345.388 44.4795C345.308 46.8695 345.598 49.1995 345.778 51.5695C345.978 54.1695 346.258 56.7595 346.588 59.3495C347.238 61.2195 347.758 63.1395 347.898 65.1795C347.998 66.6695 347.528 82.8595 347.678 87.9095C347.858 88.4295 348.038 88.9395 348.248 89.4495C348.338 89.6595 348.158 89.9095 347.958 89.9595C345.368 90.6595 342.718 90.7195 340.098 91.2095C337.468 91.6995 335.188 92.7995 332.808 93.9795C331.218 94.7695 329.718 95.6395 328.168 96.4995C327.798 96.7095 327.418 96.9195 327.018 97.1095C331.038 99.1195 336.058 99.0695 340.238 100.909C342.648 101.239 344.458 101.479 344.458 101.479C340.588 108.929 342.198 119.259 342.458 127.249C342.738 135.759 342.968 144.339 343.048 152.919C343.268 153.679 343.468 154.45 343.608 155.24C343.848 156.59 343.208 157.91 343.608 159.189C343.688 159.46 343.898 159.919 343.708 160.189C343.388 160.65 342.798 160.769 342.288 160.929C340.628 161.459 338.948 161.96 337.278 162.46C334.298 163.359 331.628 164.71 328.918 166.109C329.258 166.43 329.658 166.68 329.988 166.77C334.168 168.02 337.958 168.859 342.348 169.009C340.548 168.949 339.138 187.829 338.788 189.57C335.928 203.889 339.868 219.569 339.948 234.009C339.988 240.789 340.188 247.44 339.708 254.23C339.218 261.06 341.408 267.749 341.628 274.559C341.728 277.649 344.838 293.409 341.208 295.279C336.948 297.469 330.938 299.399 329.418 303.769C329.268 304.199 329.358 304.619 329.578 304.989C334.308 306.069 339.418 305.99 344.128 305.479C344.388 305.449 344.608 305.769 344.528 305.999C343.728 308.299 341.968 310.189 343.558 312.619C344.418 313.939 344.798 315.289 344.748 316.879C344.668 319.299 344.228 321.659 344.388 324.089C344.538 326.489 344.738 328.879 345.008 331.269C345.578 336.439 346.278 341.629 347.248 346.739C348.028 350.799 349.258 354.789 349.518 358.929C349.548 359.329 349.068 359.429 348.808 359.219H348.838Z" fill="#C49969"/>
</svg>
