<svg width="350" height="360" viewBox="0 0 350 360" fill="none" xmlns="http://www.w3.org/2000/svg">
<path d="M348.838 359.22C347.958 358.5 346.988 357.96 345.968 357.54C345.778 357.7 345.558 357.77 345.288 357.72C338.678 356.43 331.568 356.24 324.808 356.11C318.548 355.99 312.488 355.9 306.428 356.25C305.768 356.49 305.128 356.76 304.508 357.07C303.278 357.67 301.888 358.53 300.468 358.23C300.128 358.16 299.818 357.9 299.558 357.69C298.718 357.02 298.138 357.99 297.618 358.61C297.458 358.81 297.078 358.76 296.968 358.53C294.458 353.26 292.548 347.75 290.838 342.17C287.838 346.27 287.368 352.01 285.038 356.46C284.938 356.65 284.648 356.73 284.468 356.61C284.038 356.31 283.688 355.97 283.388 355.6C280.978 355.45 270.948 354.86 270.568 354.87C261.668 355.33 252.778 355.32 243.878 355.77C241.988 355.87 240.098 355.94 238.198 356C238.178 356 238.168 356.02 238.158 356.02C235.968 356.57 230.118 358.54 228.638 355.73C228.118 354.74 228.018 353.59 227.658 352.53C227.168 351.08 226.688 349.64 226.218 348.18C225.278 345.29 224.318 342.41 223.248 339.56C221.918 341.87 221.368 344.98 220.648 347.44C220.408 348.26 220.178 349.07 219.938 349.89C219.848 351.2 219.758 352.51 219.628 353.82C219.358 354.7 218.948 355.4 218.318 355.63C217.158 354.12 215.758 352.92 213.368 353.21C212.678 353.29 212.168 353.61 211.738 354.01C210.788 354.12 209.788 354.47 209.068 354.83C204.848 356.92 202.058 355.85 197.938 355.45C191.448 354.83 184.478 355.14 177.928 355.26C163.668 355.52 149.628 356.42 135.308 356.18C124.438 356 113.338 355.75 102.418 356.28C96.4381 355.89 90.4081 355.72 84.2281 356.04C80.5181 356.23 77.0081 356.27 73.3281 356.88C71.6281 357.16 70.5481 357.31 69.8381 357.25C69.3281 357.5 68.8281 357.77 68.3381 358.06C68.1181 358.19 67.7881 358.07 67.7281 357.81C66.8781 354.17 68.3281 350.4 66.2481 347.04C65.2881 345.48 64.0981 344.11 62.8381 342.8C63.5381 347.27 60.6781 351.9 60.3881 356.25C60.2781 357.91 58.4481 358.26 56.4281 358.16C56.4881 357.9 56.1181 357.47 55.7981 357.45C53.1781 357.27 50.6481 357.27 48.1481 357.36C44.7281 357.29 41.2881 357.41 37.8981 357.53C32.0981 357.73 25.9881 356.65 20.2581 357.22C18.0881 357.43 15.9081 357.65 13.7381 357.87C6.82812 358.56 8.62813 358.34 9.09813 354.33C9.21813 353.25 9.23812 352.16 9.20813 351.07C9.86812 347.63 10.4281 344.15 10.7381 340.51C11.0881 336.4 11.1081 331.46 10.2881 327.39C9.80813 324.99 10.1381 321.77 9.95813 319.25C9.91813 318.71 10.7181 317.91 11.7981 317.05C13.5081 316.42 15.1181 315.7 16.1181 315.38C18.9181 314.48 21.7181 313.75 24.5581 313.08C25.4281 312.94 26.2581 312.75 27.0181 312.51C27.5981 312.38 28.1881 312.24 28.7681 312.12C29.6081 311.93 30.5381 311.79 31.4581 311.63C28.7381 310.08 25.5681 309.18 22.6881 308.19C20.6081 307.47 18.5681 306.52 16.3981 306.1C13.4881 305.54 10.5681 305.5 7.61812 305.5C7.30813 305.5 7.09813 305.15 7.25813 304.88C8.32812 303.1 7.92813 301.06 8.42813 299.18C8.53813 286.28 10.3481 273.45 8.85812 260.41C7.76812 250.87 11.7981 242.45 12.0381 232.99C12.0581 232.01 12.1781 231.21 12.3481 230.54C16.3581 225.44 22.2881 228.1 28.6281 225.58C26.5781 224.07 24.6981 222.32 22.4581 221.13C20.4881 220.09 18.3781 219.48 16.2181 219.04C16.0581 219.04 15.8881 219.02 15.7281 219.01C15.6481 218.97 15.5681 218.93 15.4881 218.89C14.1481 218.64 12.7881 218.44 11.4381 218.24C11.2181 218.21 11.0881 217.93 11.1481 217.73C11.7381 215.71 11.8481 213.58 11.8981 211.46C11.8681 209.64 11.8681 207.82 11.8981 206C12.5881 199.05 12.8081 192.33 12.8281 185.2C12.8681 170.7 11.6281 156.39 12.2281 141.84C12.8581 126.58 12.1181 110.93 11.4281 95.67C10.9681 85.3 10.4081 74.88 8.20813 64.75C8.27812 59.59 8.57812 54.08 9.63813 53.59C12.1881 52.42 15.5581 52.06 18.9981 51.74C19.0581 51.72 19.1081 51.7 19.1681 51.68C21.3181 50.79 23.3981 49.73 25.4081 48.56C23.4881 48.03 21.5381 47.62 19.6181 47.19C15.2381 46.21 10.8781 44.34 6.36812 44.21C6.23812 44.21 6.06813 44.14 6.00813 44C5.81813 43.57 5.77813 43.46 5.74813 43.06C4.23812 41.71 4.43813 39.23 4.24813 36.76C3.54813 27.59 4.78813 18.58 0.078125 10.32C5.96812 10.54 11.6981 11.24 17.6781 11.22C23.0981 12.23 28.4581 13.53 34.0481 14.5C42.5681 15.99 54.3381 11.72 62.4281 9.61998C72.7181 6.95998 83.7481 7.69998 94.3681 7.10998C99.5481 6.81998 104.398 6.41998 109.498 5.46998C112.608 4.88998 114.998 5.23998 116.848 6.19998C117.058 6.24998 117.268 6.34998 117.428 6.52998C117.438 6.53998 117.448 6.55998 117.458 6.56998C119.318 7.75998 120.578 9.61998 121.438 11.77C122.678 13.54 123.858 15.35 125.028 17.16C125.068 17.19 125.108 17.2 125.148 17.23C125.818 17.81 126.448 18.43 127.088 19.04C128.628 16.67 128.698 13.71 129.968 11.15C130.598 9.86998 129.308 4.36998 130.188 4.43998C139.348 5.24998 148.558 6.08998 157.708 5.05998C163.008 4.46998 168.378 4.54998 173.698 4.40998C179.198 4.25998 185.708 5.79998 191.098 4.38998C195.198 3.31998 199.698 0.0799809 199.398 6.26998C199.278 8.81998 203.018 13.08 204.228 15.14C204.568 15.72 205.758 16.38 206.268 15.57C207.838 13.1 208.168 11.58 208.168 8.68998C208.168 3.31998 210.838 4.23998 215.718 3.54998C221.238 2.76998 227.558 2.88998 233.168 2.69998C238.678 2.50998 244.238 3.52998 249.658 3.21998C252.058 3.07998 274.958 1.47998 274.888 0.72998C275.358 5.65998 278.378 10.7 279.948 15.35C281.078 18.69 281.348 21.97 282.748 25.24C282.918 25.65 283.898 26 283.998 25.37C285.048 18.82 286.908 12.01 287.108 5.41998C287.108 5.04998 290.608 5.01998 294.128 5.06998C302.388 5.94998 311.088 6.17998 319.108 6.42998C328.238 6.70998 336.618 6.63998 345.108 3.86998C345.618 4.16998 345.808 4.65998 345.428 5.44998C343.008 10.47 343.558 14.66 345.068 19.84C347.278 27.4 337.468 25.37 331.368 26.76C331.078 26.83 330.878 26.94 330.728 27.06C331.758 27.33 332.768 27.65 333.768 28C335.758 28.43 337.728 28.89 339.538 29.61C341.498 29.55 345.168 30.31 345.878 32.42C346.168 33.28 345.888 33.84 345.098 34.27C342.848 35.51 345.408 36.84 345.778 38.15C346.338 40.18 345.458 42.43 345.388 44.48C345.308 46.87 345.598 49.2 345.778 51.57C345.978 54.17 346.258 56.76 346.588 59.35C347.238 61.22 347.758 63.14 347.898 65.18C347.998 66.67 347.528 82.86 347.678 87.91C347.858 88.43 348.038 88.94 348.248 89.45C348.338 89.66 348.158 89.91 347.958 89.96C345.368 90.66 342.718 90.72 340.098 91.21C337.468 91.7 335.188 92.8 332.808 93.98C331.218 94.77 329.718 95.64 328.168 96.5C327.798 96.71 327.418 96.92 327.018 97.11C331.038 99.12 336.058 99.07 340.238 100.91C342.648 101.24 344.458 101.48 344.458 101.48C340.588 108.93 342.198 119.26 342.458 127.25C342.738 135.76 342.968 144.34 343.048 152.92C343.268 153.68 343.468 154.45 343.608 155.24C343.848 156.59 343.208 157.91 343.608 159.19C343.688 159.46 343.898 159.92 343.708 160.19C343.388 160.65 342.798 160.77 342.288 160.93C340.628 161.46 338.948 161.96 337.278 162.46C334.298 163.36 331.628 164.71 328.918 166.11C329.258 166.43 329.658 166.68 329.988 166.77C334.168 168.02 337.958 168.86 342.348 169.01C340.548 168.95 339.138 187.83 338.788 189.57C335.928 203.89 339.868 219.57 339.948 234.01C339.988 240.79 340.188 247.44 339.708 254.23C339.218 261.06 341.408 267.75 341.628 274.56C341.728 277.65 344.838 293.41 341.208 295.28C336.948 297.47 330.938 299.4 329.418 303.77C329.268 304.2 329.358 304.62 329.578 304.99C334.308 306.07 339.418 305.99 344.128 305.48C344.388 305.45 344.608 305.77 344.528 306C343.728 308.3 341.968 310.19 343.558 312.62C344.418 313.94 344.798 315.29 344.748 316.88C344.668 319.3 344.228 321.66 344.388 324.09C344.538 326.49 344.738 328.88 345.008 331.27C345.578 336.44 346.278 341.63 347.248 346.74C348.028 350.8 349.258 354.79 349.518 358.93C349.548 359.33 349.068 359.43 348.808 359.22H348.838Z" fill="#C49969"/>
</svg>
