<svg width="249" height="211" viewBox="0 0 249 211" fill="none" xmlns="http://www.w3.org/2000/svg">
<path d="M4.28239 53.248C4.28239 53.248 2.11194 54.9005 1.61696 56.6749C1.12197 58.4494 1.98589 60.1387 3.28839 60.3603C3.28839 60.3603 2.63456 68.0573 3.58826 69.9681C4.54197 71.879 7.06121 69.75 7.06121 69.75C7.06121 69.75 5.22689 56.2208 4.28239 53.248Z" fill="#5B413C"/>
<path d="M6.22282 73.293C6.22282 73.293 4.05237 74.9454 3.55739 76.7199C3.0624 78.4943 3.92632 80.1836 5.22882 80.4046C5.22882 80.4046 4.57498 88.1016 5.52869 90.0125C6.4824 91.9234 9.00164 89.7944 9.00164 89.7944C9.00164 89.7944 7.16732 76.2658 6.22282 73.293Z" fill="#5B413C"/>
<path d="M4.85617 46.6933C4.85617 46.6933 2.68112 48.2698 4.97876 63.1342C7.27641 77.9982 3.90074 89.4288 10.4196 95.4625C16.9384 101.496 33.0783 88.1275 33.0783 88.1275L24.2883 40.7051C17.5076 37.8009 7.04158 40.8323 4.85617 46.6933Z" fill="#36251F"/>
<path d="M17.2783 94.0061C15.7559 94.1017 14.1271 93.9106 12.7613 93.0772C11.0709 92.0452 9.97786 89.4339 9.41957 85.0924C8.94473 81.403 8.92746 77.1197 8.91134 73.3405C8.90271 71.2351 8.89408 69.246 8.80026 67.7461C8.3847 61.126 5.17306 49.3419 5.14083 49.2233C5.10802 49.1025 5.17882 48.9775 5.29969 48.9447C5.42055 48.9114 5.54545 48.9827 5.57884 49.1036C5.61107 49.2222 8.83479 61.0517 9.2538 67.7179C9.34877 69.231 9.3574 71.2265 9.36604 73.3388C9.39654 80.588 9.43798 90.5159 12.9984 92.6898C15.4935 94.2128 18.9848 93.4381 20.8433 92.8406C24.0895 91.7977 27.1342 89.7959 27.7754 88.2839C27.8243 88.1682 27.9579 88.1147 28.073 88.1636C28.1881 88.2125 28.2422 88.3455 28.1933 88.4612C27.4951 90.1078 24.3951 92.1758 20.982 93.2729C20.0456 93.5733 18.7091 93.9163 17.2783 94.0061Z" fill="#5B413C"/>
<path d="M12.8094 192.879L12.4629 197.8H20.6647L21.0111 192.879H12.8094Z" fill="#B5591D"/>
<path d="M19.3659 95.9297C19.3659 95.9297 13.3726 140.377 19.6664 146.763C22.1822 149.315 30.914 152.619 32.0404 147.381C34.0554 138.01 37.7684 119.712 38.2605 109.996L19.3659 95.9297Z" fill="#6B294D"/>
<path d="M32.6487 144.781C32.6487 144.781 32.7155 148.001 29.4572 162.115C26.6658 174.207 22.4837 193.836 22.4837 193.836C22.4837 193.836 15.5413 194.511 11.3955 192.799L16.7229 128.676L32.6487 144.781Z" fill="#6B294D"/>
<path d="M21.0114 190.159C20.9746 190.159 20.9377 190.156 20.9003 190.148C20.5895 190.087 20.3863 189.785 20.4473 189.475C20.7973 187.685 21.8557 183.12 23.1962 177.341C25.7379 166.378 29.2189 151.365 29.6535 147.397C29.6558 147.377 29.6587 147.357 29.6633 147.337C31.0452 140.981 34.5043 117.246 34.5394 117.007C34.5849 116.694 34.8761 116.475 35.1904 116.522C35.5041 116.568 35.7216 116.859 35.6756 117.172C35.6411 117.411 32.1859 141.115 30.7919 147.552C30.3361 151.633 26.8574 166.637 24.3151 177.6C23.0305 183.141 21.9208 187.925 21.5749 189.695C21.5208 189.969 21.2808 190.159 21.0114 190.159Z" fill="#96507A"/>
<path d="M21.4295 190.382C17.1226 190.382 12.4432 189.252 12.2268 189.199C12.0145 189.148 11.8844 188.934 11.9362 188.721C11.988 188.508 12.2027 188.379 12.4145 188.43C12.4714 188.444 18.173 189.817 22.6526 189.556C22.8696 189.537 23.0584 189.709 23.071 189.928C23.0843 190.146 22.9173 190.333 22.6992 190.346C22.2831 190.371 21.8577 190.382 21.4295 190.382Z" fill="#96507A"/>
<path d="M23.1707 208.897C23.1707 208.967 23.1689 209.033 23.1672 209.099C23.1609 209.406 23.1477 209.682 23.1344 209.918C23.1033 210.438 23.0659 210.758 23.0659 210.758H5.80709C5.80709 210.758 5.72191 210.09 5.78752 209.099C5.90091 207.336 6.48626 204.551 8.86966 202.71C12.1325 200.187 10.8726 200.714 11.542 199.564C11.6174 199.436 12.2045 197.482 12.2666 197.348C12.8278 196.154 13.3447 195.59 16.4366 195.59C20.5375 195.59 20.8984 197.58 21.3364 198.628C21.5165 199.062 21.7646 199.976 22.0184 201.063C22.122 201.5 22.225 201.965 22.3269 202.44C22.5796 203.629 22.8161 204.871 22.9767 205.861C23.1476 206.922 23.1833 208.015 23.1707 208.897Z" fill="#236676"/>
<path d="M23.1707 208.892C23.1707 208.961 23.1689 209.028 23.1672 209.094C23.1609 209.401 23.1477 209.677 23.1344 209.913C22.2929 209.322 21.6926 208.543 21.3415 207.588C20.2733 204.68 21.9154 201.189 21.9844 201.042L22.019 201.059C22.1226 201.495 22.2256 201.961 22.3275 202.435C21.939 203.622 21.4912 205.619 22.1128 207.308C22.339 207.922 22.693 208.452 23.1707 208.892Z" fill="#104151"/>
<path d="M23.1672 209.095C23.1442 210.077 23.0653 210.753 23.0653 210.753H5.80709C5.80709 210.753 5.72191 210.085 5.78752 209.095H23.1672Z" fill="#104151"/>
<path d="M17.0067 200.962C16.9659 200.962 16.9244 200.956 16.883 200.946C14.6884 200.377 12.9001 200.858 12.8822 200.863C12.6198 200.936 12.3493 200.782 12.2767 200.52C12.2042 200.258 12.3579 199.987 12.6198 199.915C12.7027 199.892 14.6826 199.359 17.1299 199.993C17.3929 200.061 17.5512 200.33 17.4827 200.593C17.4257 200.814 17.2254 200.962 17.0067 200.962Z" fill="#F4ECE1"/>
<path d="M17.2098 199.218C17.169 199.218 17.1275 199.213 17.0861 199.202C14.8915 198.633 13.1032 199.114 13.0854 199.119C12.8229 199.192 12.5524 199.038 12.4799 198.776C12.4074 198.515 12.561 198.243 12.8229 198.171C12.9058 198.148 14.8857 197.615 17.333 198.249C17.596 198.317 17.7543 198.585 17.6858 198.848C17.6289 199.071 17.4286 199.218 17.2098 199.218Z" fill="#F4ECE1"/>
<path d="M16.2673 202.522C16.2264 202.522 16.185 202.517 16.1435 202.506C13.9627 201.94 12.1595 202.419 12.1416 202.423C11.8798 202.495 11.6092 202.34 11.5373 202.079C11.4653 201.817 11.6184 201.547 11.8803 201.474C11.9632 201.451 13.9431 200.919 16.3904 201.553C16.6535 201.62 16.8117 201.889 16.7433 202.152C16.6863 202.374 16.4866 202.522 16.2673 202.522Z" fill="#F4ECE1"/>
<path d="M15.4001 204.292C15.3592 204.292 15.3178 204.287 15.2763 204.276C13.0955 203.711 11.2923 204.189 11.2744 204.193C11.0126 204.265 10.742 204.11 10.6701 203.849C10.5982 203.587 10.7513 203.317 11.0131 203.245C11.096 203.222 13.076 202.689 15.5232 203.323C15.7863 203.391 15.9446 203.66 15.8766 203.923C15.8191 204.145 15.6194 204.292 15.4001 204.292Z" fill="#F4ECE1"/>
<path d="M19.6667 93.8916C19.6667 93.8916 17.6856 105.88 19.0307 110.679C20.3757 115.479 52.8858 119.62 55.0914 115.23C59.2044 107.042 57.7568 99.1689 57.518 97.0112C42.6702 100.433 30.4009 98.6348 19.6667 93.8916Z" fill="#6B294D"/>
<path d="M52.0615 193.033L52.8598 199.02H60.2886L59.4903 193.033H52.0615Z" fill="#B5591D"/>
<path d="M78.0932 210.752H51.0458C50.8444 210.387 50.735 209.869 50.6901 209.25C50.5209 206.963 51.2507 203.311 51.6076 201.009C51.6513 200.741 51.6881 200.489 51.7169 200.262C51.7664 199.878 51.7975 199.557 51.7975 199.322C51.7975 197.444 53.4609 197.765 53.4609 197.765C56.1977 200.449 59.2971 196.424 61.1066 197.745C61.1066 197.745 61.886 198.304 64.0334 200.235C66.1797 202.167 69.8327 203.442 72.9414 204.743C76.9553 206.421 78.0932 208.097 78.3154 209.251C78.4909 210.165 78.0932 210.752 78.0932 210.752Z" fill="#236676"/>
<path d="M78.0935 210.752H51.0461C50.8447 210.387 50.7353 209.869 50.6904 209.25H78.3157C78.4913 210.165 78.0935 210.752 78.0935 210.752Z" fill="#104151"/>
<path d="M53.8059 210.752H53.0024C53.8042 209.836 54.5541 208.431 54.4563 206.421C54.3256 203.749 52.7221 201.948 51.6084 201.009C51.6521 200.74 51.689 200.488 51.7178 200.262C52.919 201.179 54.9426 203.188 55.1003 206.389C55.1936 208.308 54.5639 209.74 53.8059 210.752Z" fill="#104151"/>
<path d="M63.464 201.646C63.2637 201.646 63.0819 201.51 63.0318 201.308C62.9725 201.069 63.1181 200.827 63.357 200.768L65.0468 200.348C65.2857 200.289 65.5274 200.435 65.5867 200.674C65.646 200.912 65.5004 201.154 65.2615 201.213L63.5717 201.633C63.536 201.642 63.4997 201.646 63.464 201.646Z" fill="#F4ECE1"/>
<path d="M61.8224 200.33C61.6221 200.33 61.4403 200.194 61.3902 199.991C61.3309 199.753 61.4765 199.511 61.7154 199.452L63.4052 199.032C63.6435 198.972 63.8858 199.118 63.9451 199.357C64.0044 199.596 63.8588 199.838 63.6199 199.897L61.9301 200.317C61.8938 200.326 61.8575 200.33 61.8224 200.33Z" fill="#F4ECE1"/>
<path d="M65.2638 202.808C65.0641 202.808 64.8822 202.673 64.8316 202.47C64.7723 202.231 64.9179 201.989 65.1568 201.93L66.8466 201.51C67.0855 201.451 67.3272 201.597 67.3865 201.836C67.4458 202.075 67.3002 202.316 67.0613 202.376L65.3715 202.795C65.3352 202.804 65.2995 202.808 65.2638 202.808Z" fill="#F4ECE1"/>
<path d="M66.9543 203.752C66.7545 203.752 66.5727 203.616 66.522 203.413C66.4627 203.174 66.6083 202.933 66.8472 202.873L68.5365 202.454C68.7753 202.394 69.0171 202.54 69.0764 202.779C69.1356 203.018 68.99 203.26 68.7512 203.319L67.0619 203.738C67.0262 203.747 66.9899 203.752 66.9543 203.752Z" fill="#F4ECE1"/>
<path d="M68.7951 204.627C68.5948 204.627 68.4135 204.491 68.3628 204.288C68.3036 204.049 68.4492 203.807 68.688 203.748L70.3779 203.329C70.6167 203.269 70.8585 203.415 70.9178 203.654C70.977 203.893 70.8314 204.134 70.5926 204.194L68.9027 204.613C68.867 204.622 68.8308 204.627 68.7951 204.627Z" fill="#F4ECE1"/>
<path d="M70.7931 205.366C70.5934 205.366 70.411 205.23 70.3609 205.028C70.3016 204.789 70.4472 204.547 70.6861 204.488L72.3759 204.068C72.6148 204.008 72.8565 204.154 72.9158 204.393C72.9751 204.632 72.8295 204.874 72.5906 204.933L70.9008 205.353C70.8651 205.362 70.8288 205.366 70.7931 205.366Z" fill="#F4ECE1"/>
<path d="M39.2012 115.209C39.2012 115.209 42.7869 151.669 44.0808 160.499C45.6849 171.441 51.2667 194.967 51.2667 194.967C51.2667 194.967 56.4842 195.021 60.2881 194.133L57.4379 108.284L39.2012 115.209Z" fill="#6B294D"/>
<path d="M52.0603 191.771C51.7921 191.771 51.5521 191.582 51.498 191.308C51.4738 191.187 49.076 179.086 47.4138 171.237C45.7458 163.36 44.0583 149.921 44.041 149.787L40.9548 117.714C40.9243 117.398 41.1557 117.118 41.4711 117.087C41.7848 117.059 42.0668 117.288 42.0973 117.604L45.1818 149.661C45.1967 149.779 46.8785 163.17 48.5367 170.999C50.2007 178.856 52.5996 190.964 52.6238 191.086C52.6854 191.396 52.4834 191.699 52.1726 191.76C52.1352 191.767 52.0972 191.771 52.0603 191.771Z" fill="#96507A"/>
<path d="M50.7687 191.911C50.5649 191.911 50.394 191.748 50.3825 191.537C50.3704 191.319 50.5338 191.132 50.7474 191.12L59.9155 190.597C60.125 190.587 60.3115 190.752 60.3236 190.971C60.3357 191.189 60.1722 191.376 59.9587 191.388L50.7905 191.911C50.7831 191.911 50.7762 191.911 50.7687 191.911Z" fill="#96507A"/>
<path d="M37.0224 97.8551C37.0172 97.9708 37.0126 98.0876 37.0075 98.2067C36.8751 101.331 36.7105 105.754 36.6247 110.268C36.6195 110.517 36.6149 110.768 36.6098 111.016C36.5862 112.457 36.5695 113.899 36.5654 115.305C36.5649 115.503 36.7254 115.665 36.9234 115.668C36.9252 115.668 36.9252 115.668 36.9263 115.668C37.126 115.668 37.2883 115.506 37.2889 115.307C37.2929 113.949 37.3085 112.558 37.3321 111.168C37.3361 110.924 37.3401 110.679 37.3453 110.435C37.4299 105.893 37.5951 101.43 37.7292 98.2787C37.7356 98.1348 37.7413 97.9938 37.7476 97.8545L37.0224 97.8551Z" fill="#96507A"/>
<path d="M39.9909 97.8566C39.9817 98.05 39.9724 98.2469 39.9638 98.4506C39.771 102.538 39.4752 108.324 39.28 109.69C39.2363 110.005 39.1068 110.212 38.8725 110.343C38.4984 110.55 37.9223 110.539 37.3456 110.437C37.0998 110.394 36.8546 110.335 36.625 110.27C36.2048 110.151 35.837 110.011 35.6154 109.915C35.4324 109.835 35.2189 109.918 35.1389 110.101C35.0589 110.284 35.1417 110.497 35.3248 110.577C35.4399 110.627 35.9573 110.847 36.61 111.017C36.8379 111.077 37.0825 111.131 37.3323 111.169C37.5608 111.204 37.7922 111.226 38.0207 111.229C38.4593 111.233 38.88 111.165 39.2248 110.973C39.6542 110.734 39.9218 110.324 39.9972 109.79C40.1986 108.38 40.4962 102.586 40.6879 98.4886C40.6988 98.2722 40.7086 98.0627 40.7178 97.8555H39.9909V97.8566Z" fill="#96507A"/>
<path d="M15.9961 68.1949C16.0813 68.9104 16.1538 69.7933 16.22 70.8132C16.243 71.1637 16.2655 71.5286 16.2885 71.9079C16.475 75.0821 16.6367 79.2572 16.9371 83.5878C16.9642 83.9751 16.993 84.3671 17.024 84.7568C17.7228 94.0797 14.9146 104.464 18.8267 105.49C44.8698 112.315 55.5246 105.009 57.8625 100.161C59.0965 97.601 55.7617 83.856 54.5761 71.9562C54.5369 71.5539 54.522 70.6618 54.4828 70.2739C54.1657 67.0357 53.8785 64.1447 53.6419 62.6102C51.9596 51.716 52.279 48.5659 51.1987 45.2674C50.1183 41.9688 38.6911 38.6904 38.6911 38.6904L26.8495 39.1929C26.8495 39.1929 22.0453 41.6868 17.271 46.6556C12.4961 51.6256 15.1005 60.6159 15.9961 68.1949Z" fill="#FF9918"/>
<path d="M28.9559 66.3437C34.6051 66.3437 39.308 64.1105 42.3291 62.1679C45.8095 59.9307 47.8131 57.6509 47.8965 57.5554C48.0237 57.4098 48.0082 57.1882 47.8626 57.061C47.717 56.9338 47.4954 56.9487 47.3682 57.0949C47.348 57.118 45.3336 59.407 41.9314 61.5906C38.8049 63.5971 33.8298 65.9258 27.8825 65.615C27.6914 65.6064 27.5245 65.7537 27.5141 65.9471C27.5043 66.1405 27.6528 66.3051 27.8462 66.3154C28.2192 66.3344 28.5899 66.3437 28.9559 66.3437Z" fill="#DD6A18"/>
<path d="M26.7852 45.6999C26.7892 45.4426 27.0229 45.2648 27.2618 45.3149C33.2678 46.561 37.802 44.3853 40.5786 42.3012C40.7541 42.1694 41.0005 42.208 41.1328 42.383C41.1346 42.3853 41.1363 42.387 41.1374 42.3893C41.2715 42.5654 41.2405 42.8164 41.0638 42.9493C40.7012 43.2221 40.3098 43.4967 39.889 43.766C37.8124 45.0956 34.7061 46.4735 30.752 46.4735C29.6095 46.4735 28.3956 46.3584 27.1156 46.0936C26.9285 46.0545 26.7823 45.891 26.7852 45.6999Z" fill="#DD6A18"/>
<path d="M27.6852 94.4739C33.118 94.4739 38.6123 92.0191 43.7952 87.2321C48.7244 82.6794 51.6833 77.5592 51.7127 77.508C51.8215 77.3181 51.7559 77.0763 51.5659 76.9676C51.376 76.8588 51.1342 76.9244 51.0255 77.1143C50.9967 77.1644 48.0878 82.1937 43.2433 86.6635C38.8091 90.7552 31.7913 95.206 23.5383 93.176C23.3265 93.1248 23.1112 93.2537 23.0594 93.4661C23.0071 93.6784 23.1371 93.8931 23.3495 93.9455C24.785 94.2989 26.2331 94.4739 27.6852 94.4739Z" fill="#DD6A18"/>
<path d="M31.1318 86.6428C31.1606 86.6428 31.1893 86.6399 31.2187 86.633C37.7749 85.1613 42.936 76.7771 43.1524 76.4208C43.2658 76.2337 43.2065 75.9903 43.02 75.8769C42.833 75.7635 42.5895 75.8228 42.4761 76.0093C42.4249 76.0939 37.2725 84.4626 31.0455 85.86C30.8325 85.9078 30.6978 86.1196 30.7462 86.3331C30.787 86.5179 30.9505 86.6428 31.1318 86.6428Z" fill="#DD6A18"/>
<path d="M27.0816 9.18886C26.822 10.6669 26.1745 12.0506 25.3077 13.2765C24.6999 13.3864 23.92 13.3467 22.9174 13.0739C19.7702 12.2157 17.3856 12.903 15.465 14.221C11.2876 17.0862 9.29956 22.9333 6.42232 22.3566C3.91747 21.8547 5.26083 19.4155 5.30343 19.3401C5.26371 19.3671 3.31543 20.7369 1.89322 19.1334C0.61489 17.6916 2.67598 15.2547 2.83599 15.0694C2.69152 15.219 1.03678 16.8836 0.11933 15.249C-0.376805 14.3643 1.0575 5.50583 13.2543 2.93077C19.4726 1.61848 23.0365 3.57137 25.0378 5.80225C26.1164 7.00805 26.7408 8.29328 27.0816 9.18886Z" fill="#36251F"/>
<path d="M27.0814 9.18877C26.8218 10.6668 26.1743 12.0505 25.3075 13.2764C24.6997 13.3864 23.9199 13.3466 22.9172 13.0738C19.7701 12.2157 17.3855 12.9029 15.4648 14.2209C17.6042 7.95822 22.3768 6.25973 25.037 5.80273C26.1162 7.00796 26.7407 8.29319 27.0814 9.18877Z" fill="#FF9918"/>
<path d="M30.2251 33.7629C30.2251 33.7629 23.217 34.7753 19.0885 28.7665C15.1574 23.0448 15.3951 19.2985 16.0639 15.2522C16.5681 12.2046 19.7688 7.22487 26.3539 6.36671C33.0022 5.49991 38.7405 7.10113 41.1763 11.9779C45.7336 21.1034 42.0074 35.4131 30.2251 33.7629Z" fill="#36251F"/>
<path d="M40.6826 22.6443C40.6826 22.6443 42.2464 20.2194 43.576 22.2667C44.9055 24.3145 44.6782 28.8402 41.771 28.4833L40.6826 22.6443Z" fill="#8F2D00"/>
<path d="M37.4753 34.4697L38.4964 40.3859C38.4964 40.3859 34.4237 45.5838 26.2737 40.4164C26.7267 38.2339 26.5678 34.9819 25.541 32.7666C25.541 32.7666 26.2708 32.9232 27.4899 33.4481C27.7282 33.5505 28.005 33.5994 28.2882 33.6771C30.7873 34.3621 34.5071 35.0936 37.4753 34.4697Z" fill="#B5591D"/>
<path d="M37.478 34.4548L37.9621 37.2595C35.311 37.0218 30.4936 36.2206 27.4932 33.4326C27.7424 33.5069 28.0083 33.584 28.2915 33.6617C30.79 34.3472 34.5099 35.0787 37.478 34.4548Z" fill="#36251F"/>
<path d="M42.5329 22.3993C42.6129 23.0232 42.6849 23.6115 42.7476 24.1669C43.2236 28.3391 43.2345 30.6581 42.3689 31.8247C37.9911 37.7185 25.944 32.9344 25.5567 32.7802C25.5515 32.7761 25.5463 32.7756 25.5463 32.7756C25.3811 32.3209 25.2275 31.8673 25.0836 31.419C23.8611 27.6185 23.3442 24.0074 23.2918 20.5195C22.6299 16.9205 24.3474 13.264 27.5936 11.577C30.9595 9.83017 34.3294 10.9698 36.3093 11.3082C39.2977 11.8193 41.589 15.2974 42.2963 20.5863C42.381 21.2206 42.4598 21.8255 42.5329 22.3993Z" fill="#B5591D"/>
<path d="M38.8422 21.5493C38.8445 21.5493 38.8468 21.5493 38.8491 21.5488C39.0011 21.5396 39.1173 21.4089 39.1087 21.257C39.107 21.2282 39.0782 20.5133 39.6422 20.3631C40.2638 20.1974 40.8077 20.8086 40.8135 20.8149C40.9142 20.93 41.0886 20.941 41.2032 20.8408C41.3177 20.7401 41.3292 20.5657 41.2291 20.4512C41.198 20.4155 40.4497 19.5757 39.5001 19.8301C38.6995 20.0437 38.5337 20.8788 38.5579 21.2903C38.5659 21.44 38.6931 21.5545 38.8422 21.5493Z" fill="#36251F"/>
<path d="M34.5414 21.9382C34.5391 21.9394 34.5368 21.9405 34.5345 21.9417C34.3802 22.0142 34.1961 21.948 34.1235 21.7932C34.1097 21.7638 33.7563 21.0455 33.1209 21.1992C32.421 21.3684 32.2127 22.2605 32.2104 22.2692C32.173 22.4361 32.0072 22.5402 31.8409 22.5028C31.6745 22.4654 31.5698 22.3002 31.6072 22.1333C31.6187 22.0815 31.9059 20.8561 32.9759 20.5983C33.8778 20.3802 34.4867 21.1129 34.683 21.5307C34.7549 21.6827 34.6911 21.8634 34.5414 21.9382Z" fill="#36251F"/>
<path d="M38.3172 26.9348C37.5954 27.0292 36.6613 26.9607 35.5798 26.4467C35.448 26.384 35.3916 26.2257 35.4543 26.0939C35.5171 25.9621 35.6748 25.9057 35.8072 25.9684C38.0444 27.0321 39.538 25.9742 39.6001 25.9287C39.7181 25.843 39.8833 25.8683 39.9702 25.9857C40.0566 26.1031 40.0318 26.2683 39.915 26.3552C39.8729 26.3852 39.287 26.8076 38.3172 26.9348Z" fill="#36251F"/>
<path d="M39.1741 28.5758C39.2783 28.5269 39.341 28.4878 39.3514 28.4809C39.474 28.4032 39.5097 28.2409 39.432 28.1183C39.3543 27.9962 39.1931 27.9588 39.0705 28.0371C39.0342 28.0596 38.2267 28.5505 37.3996 28.0619C37.265 27.9819 37.0877 28.0365 37.0238 28.1856C36.9697 28.3128 37.037 28.459 37.1568 28.5281C38.0051 29.0156 38.823 28.7404 39.1741 28.5758Z" fill="#8F2D00"/>
<path d="M33.5694 16.8351C33.5694 16.8351 34.6331 16.8023 34.3896 17.813C34.1462 18.8237 31.9009 18.0374 30.6249 20.0076C30.6249 20.0076 29.6827 17.7819 33.5694 16.8351Z" fill="#36251F"/>
<path d="M34.21 24.384C34.2739 24.8738 33.3168 25.4027 32.0718 25.565C30.8269 25.7273 29.7661 25.4614 29.7022 24.9716C29.6384 24.4818 30.5955 23.9529 31.8405 23.7906C33.0854 23.6288 34.1462 23.8942 34.21 24.384Z" fill="#8F2D00"/>
<g opacity="0.8">
<path d="M42.5343 22.4023C42.6143 23.0263 42.6863 23.6145 42.749 24.1699C41.6002 24.277 40.6586 24.0133 40.5987 23.5523C40.5383 23.089 41.3901 22.5911 42.5343 22.4023Z" fill="#8F2D00"/>
</g>
<path d="M38.1117 23.7919C38.4346 23.7499 38.6452 23.667 38.6631 23.6601C38.7356 23.6313 38.7926 23.5732 38.8202 23.5001C38.8478 23.427 38.8438 23.3453 38.8087 23.2756L37.4015 20.4744C37.3324 20.3362 37.1649 20.281 37.0268 20.35C36.8892 20.4191 36.8334 20.5872 36.9024 20.7247L38.1554 23.2187C37.8792 23.2687 37.4446 23.2958 36.9899 23.1225C36.846 23.0673 36.6843 23.1398 36.6296 23.2837C36.5749 23.4276 36.6469 23.5893 36.7914 23.644C37.2915 23.8357 37.7658 23.8374 38.1117 23.7919Z" fill="#36251F"/>
<path d="M27.3908 29.7617C27.3684 29.8411 26.7514 32.0087 25.5571 32.7771C25.5559 32.7771 25.5559 32.7782 25.5548 32.7788C25.5496 32.7748 25.5473 32.7731 25.5473 32.7731C25.3821 32.3184 25.2285 31.8654 25.084 31.4165C25.1318 31.4026 26.3871 31.0113 27.3908 29.7617Z" fill="#36251F"/>
<path d="M25.5492 25.2447C25.5492 25.2447 22.3871 21.9818 20.7864 25.0789C19.4672 27.631 23.3339 33.3296 26.2762 30.8207L25.5492 25.2447Z" fill="#B5591D"/>
<path d="M25.7654 29.7848C25.7752 29.7837 25.7855 29.7819 25.7953 29.7791C25.945 29.7428 26.037 29.5914 26.0008 29.4418C25.2641 26.412 22.5382 25.6845 22.4225 25.6552C22.2729 25.6172 22.1209 25.7075 22.0829 25.8566C22.0449 26.0063 22.1347 26.1576 22.2838 26.1962C22.3863 26.2227 24.8019 26.8777 25.4575 29.5736C25.4926 29.7134 25.6261 29.8032 25.7654 29.7848Z" fill="#36251F"/>
<path d="M22.9653 28.4529C23.0269 28.4449 23.0856 28.4167 23.1316 28.3683C23.3469 28.1421 24.0145 27.5666 24.5078 27.627C24.6609 27.6454 24.8002 27.5366 24.8186 27.3835C24.837 27.2304 24.7282 27.0912 24.5751 27.0727C23.7147 26.9686 22.8248 27.8797 22.7259 27.9839C22.6199 28.0961 22.6246 28.2728 22.7368 28.3787C22.8007 28.4391 22.8847 28.4639 22.9653 28.4529Z" fill="#36251F"/>
<path d="M22.2709 16.9868C22.2709 16.9868 26.3919 19.8657 27.8343 18.8332C29.276 17.8001 26.374 15.0817 26.374 15.0817C26.374 15.0817 32.2166 17.3264 34.1879 16.101C36.1592 14.8756 32.0681 12.8186 32.0681 12.8186C32.0681 12.8186 36.7163 15.9813 39.0595 15.4523C41.4026 14.9234 38.641 12.243 38.641 12.243C38.641 12.243 41.3571 16.1539 42.7408 15.6066C44.1244 15.0598 41.4181 9.29035 36.4078 7.86008C31.3976 6.42981 19.3729 8.37291 22.2709 16.9868Z" fill="#36251F"/>
<path d="M25.6552 17.8457C25.6552 17.8457 27.8688 25.3712 25.9378 25.6584C24.0068 25.9456 21.6671 23.2088 22.272 16.9893L25.6552 17.8457Z" fill="#36251F"/>
<path d="M38.3282 16.2169C38.3282 16.2169 37.2916 16.4575 37.786 17.372C38.2804 18.2866 40.2488 16.9507 41.9876 18.5278C41.9876 18.5278 42.3272 16.1352 38.3282 16.2169Z" fill="#36251F"/>
<path d="M33.5397 25.5245C33.4648 25.5245 33.39 25.5222 33.3146 25.5176C31.3128 25.395 29.7847 23.6666 29.9073 21.6654C29.9666 20.6955 30.4 19.8075 31.1281 19.164C31.8556 18.5205 32.7914 18.1982 33.7601 18.258C35.7619 18.3806 37.29 20.109 37.1674 22.1103C37.0494 24.0361 35.4442 25.5245 33.5397 25.5245ZM33.5356 18.8307C31.9344 18.8307 30.5853 20.0814 30.4863 21.7011C30.3833 23.3834 31.6679 24.8361 33.3509 24.9397C35.0338 25.0422 36.486 23.7581 36.5896 22.0752C36.6926 20.3928 35.4079 18.9401 33.725 18.8371C33.6611 18.8324 33.5978 18.8307 33.5356 18.8307Z" fill="#F4ECE1"/>
<path d="M41.7223 24.4176C41.6469 24.4176 41.5709 24.4153 41.4949 24.4107C40.5251 24.3514 39.637 23.918 38.993 23.1899C38.3495 22.4624 38.0277 21.5277 38.087 20.5579C38.2096 18.5561 39.9398 17.0268 41.9393 17.1506C43.9411 17.2732 45.4692 19.0016 45.3466 21.0028C45.2873 21.9726 44.8539 22.8607 44.1264 23.5048C43.4565 24.0976 42.6098 24.4176 41.7223 24.4176ZM41.7154 17.7233C40.1142 17.7233 38.765 18.9739 38.666 20.5936C38.616 21.4086 38.8865 22.1942 39.4275 22.806C39.9685 23.4179 40.715 23.7822 41.5306 23.8323C43.2153 23.9347 44.6657 22.6506 44.7687 20.9683C44.8718 19.2859 43.5871 17.8332 41.9042 17.7296C41.8408 17.7256 41.7781 17.7233 41.7154 17.7233Z" fill="#F4ECE1"/>
<path d="M36.7999 21.4331C36.7487 21.4331 36.6969 21.4193 36.6503 21.3911C36.5139 21.3082 36.4702 21.1315 36.5519 20.9945C36.5668 20.9703 36.9191 20.3942 37.5223 20.252C37.8578 20.1726 38.1963 20.2399 38.5272 20.4506C38.6625 20.5364 38.7022 20.7159 38.6159 20.8506C38.5301 20.9853 38.3505 21.0256 38.2158 20.9393C38.0196 20.8144 37.8377 20.7735 37.6575 20.8149C37.2938 20.899 37.0503 21.2898 37.048 21.2932C36.9933 21.3836 36.8978 21.4331 36.7999 21.4331Z" fill="#F4ECE1"/>
<path d="M23.363 23.8607C23.2986 23.8607 23.2335 23.8394 23.1794 23.7951C23.0557 23.6938 23.0373 23.5108 23.1391 23.387C25.5542 20.4401 29.8836 21.083 30.0666 21.1118C30.2249 21.1366 30.3325 21.2851 30.3078 21.4428C30.283 21.601 30.1351 21.7092 29.9768 21.6845C29.9354 21.6776 25.7896 21.0675 23.5875 23.7548C23.5305 23.8244 23.4471 23.8607 23.363 23.8607Z" fill="#F4ECE1"/>
<path d="M19.3046 44.2738C19.3046 44.2738 25.8108 48.1733 27.5081 56.7014C29.2054 65.2295 23.4492 77.0763 16.7439 80.5159C16.7439 80.5159 15.6325 83.3436 17.1232 86.7365C17.1232 86.7365 31.6326 82.1061 32.721 63.6035C33.8088 45.1009 23.3894 42.2835 23.3894 42.2835C22.0731 41.9232 20.0402 43.1831 19.3046 44.2738Z" fill="#36251F"/>
<path d="M27.5599 53.9921C28.4866 53.5702 29.9779 53.0055 31.5331 52.8847C32.2139 52.8317 32.8114 53.3353 32.8827 54.0145C33.064 55.7487 33.3651 59.1065 33.2367 61.2925C33.1999 61.9239 32.7003 62.4298 32.0701 62.477L28.5735 62.74C27.8241 62.7964 27.191 62.1904 27.2158 61.4393C27.2664 59.8962 27.2635 57.3764 26.8462 55.3947C26.7248 54.8191 27.0235 54.2361 27.5599 53.9921Z" fill="#5B413C"/>
<path d="M29.7927 77.9845C29.6448 78.0921 26.1287 80.6459 22.0445 82.913C19.4878 84.3318 17.1954 85.3638 15.2327 85.9796C13.7875 86.4332 12.4919 86.6789 11.2717 86.7296C11.1146 86.7359 10.9586 86.7388 10.8038 86.7388C9.87249 86.7388 8.99245 86.6191 8.17112 86.3819C7.44534 86.1719 6.76445 85.8697 6.13306 85.4766C4.40637 84.4009 3.20977 82.7507 2.67047 80.7034C2.40053 79.6789 2.30211 78.5836 2.37463 77.3882C2.40744 76.8512 2.47536 76.2929 2.57723 75.7122C2.96689 73.4847 3.99599 70.6179 5.72268 66.9475C6.97223 64.2918 8.60107 61.1873 10.5626 57.7201C13.86 51.8919 16.949 47.0658 17.0791 46.8632C17.3537 46.4356 17.9068 45.7748 18.5261 45.5273C21.1616 48.5853 23.3781 51.889 25.1635 55.5352C23.979 57.4582 22.258 60.3066 20.506 63.4061C17.8791 68.0508 16.2848 71.2993 15.3179 73.525C16.0114 73.1664 16.7942 72.7365 17.6765 72.2179C20.6148 70.4918 23.0252 68.7438 23.0494 68.7265C25.6066 66.8663 29.1884 67.4304 31.0492 69.9865C32.9088 72.542 32.3476 76.122 29.7927 77.9845Z" fill="#FF9918"/>
<path d="M8.17015 86.3805C7.44436 86.1704 6.76347 85.8682 6.13208 85.4751C4.40539 84.3994 3.2088 82.7492 2.66949 80.702C2.39956 79.6775 2.30113 78.5822 2.37366 77.3867C4.6408 78.5004 9.36847 81.4652 8.17015 86.3805Z" fill="#DD6A18"/>
<path d="M7.07161 78.895C6.99103 78.895 6.91103 78.8639 6.85002 78.8017C6.7303 78.6797 6.7326 78.4834 6.8552 78.3637C9.52408 75.757 14.7663 73.2711 14.9879 73.1664C15.1427 73.0933 15.3269 73.1601 15.4 73.3143C15.4731 73.4691 15.4063 73.6533 15.2521 73.7264C15.1986 73.7517 9.88151 76.2733 7.28802 78.8063C7.22759 78.8656 7.14931 78.895 7.07161 78.895Z" fill="#DD6A18"/>
<path d="M14.2227 74.1866C14.191 74.1866 14.1582 74.1814 14.1265 74.1711C12.8776 73.763 10.6651 74.0583 10.6427 74.0611C10.4729 74.0847 10.3169 73.9656 10.2939 73.7964C10.2709 73.6272 10.3894 73.4712 10.5586 73.4482C10.6548 73.4349 12.9351 73.131 14.3182 73.5828C14.4805 73.6358 14.5692 73.8108 14.5162 73.9731C14.4742 74.1037 14.3527 74.1866 14.2227 74.1866Z" fill="#DD6A18"/>
<path d="M19.5155 66.1409C19.4643 66.1409 19.4119 66.1283 19.3642 66.1012C19.2151 66.0177 19.1621 65.829 19.2456 65.6799L25.746 54.1024C25.8295 53.9534 26.0182 53.9004 26.1673 53.9839C26.3164 54.0673 26.3693 54.2561 26.2859 54.4052L19.7849 65.9826C19.7291 66.0839 19.6237 66.1409 19.5155 66.1409Z" fill="#DD6A18"/>
<path d="M26.0159 57.9679H24.0958C23.9248 57.9679 23.7861 57.8292 23.7861 57.6583C23.7861 57.4873 23.9248 57.3486 24.0958 57.3486H26.0159C26.1868 57.3486 26.3255 57.4873 26.3255 57.6583C26.3255 57.8298 26.1868 57.9679 26.0159 57.9679Z" fill="#DD6A18"/>
<path d="M22.0549 71.0302C22.0549 71.0302 25.5221 66.2012 26.946 65.7678C28.37 65.3344 29.0059 65.7678 29.0059 65.7678L28.915 67.0853C28.915 67.0853 34.0041 65.4587 34.7466 65.9537C35.4891 66.4487 34.8082 67.6252 34.8082 67.6252C34.8082 67.6252 34.9941 67.3777 35.2416 68.1823C35.4891 68.9869 34.6223 69.7922 34.6223 69.7922C34.6223 69.7922 34.9319 69.9781 35.0557 70.7211C35.1794 71.4642 34.3748 72.3925 34.3748 72.3925C34.3748 72.3925 34.7466 72.8875 34.3748 74.0024C34.0036 75.1167 29.8555 77.5312 26.8833 77.7171C23.9122 77.9024 21.0022 74.4974 22.0549 71.0302Z" fill="#B5591D"/>
<path d="M72.9881 74.1703C72.9518 73.3196 72.7624 72.4517 72.4096 71.5273C72.3555 71.3851 72.2974 71.2412 72.2347 71.0962C70.3842 66.7789 66.7271 61.223 61.3652 54.5845C57.4905 49.7871 54.1516 46.1968 54.0118 46.046C51.8557 43.7316 48.232 43.6033 45.9176 45.7593C43.6039 47.9148 43.4755 51.5386 45.631 53.8529C47.1793 55.5146 49.954 58.6537 52.8146 62.2274C51.5973 62.5341 50.4715 63.2421 49.653 64.3201C47.7427 66.8405 48.2371 70.4331 50.7575 72.344C50.8778 72.435 53.7528 74.6106 56.8919 76.6573C58.8735 77.9494 60.5076 78.898 61.8866 79.5587C62.9485 80.0663 63.8815 80.4105 64.7379 80.6103C65.3958 80.7634 66.0053 80.8278 66.5659 80.8278C67.8339 80.8278 68.8498 80.4963 69.602 80.1107C70.0107 79.9023 70.3411 79.6778 70.592 79.4816C72.203 78.2205 73.0767 76.2849 72.9881 74.1703Z" fill="#FF9918"/>
<path d="M70.5907 79.481C70.3404 79.6767 70.0094 79.9018 69.6008 80.1101C68.8876 76.5416 70.9867 73.2644 72.4089 71.5273C72.7618 72.4511 72.9511 73.3191 72.9874 74.1703C73.076 76.2849 72.2023 78.2206 70.5907 79.481Z" fill="#DD6A18"/>
<path d="M68.4875 71.3397C68.4196 71.3397 68.3517 71.3172 68.2941 71.2717C66.187 69.5859 61.0558 67.4995 61.004 67.4782C60.8458 67.4137 60.7692 67.2336 60.8331 67.0753C60.897 66.917 61.0777 66.8405 61.236 66.9044C61.4501 66.9913 66.5035 69.0466 68.6809 70.7883C68.8144 70.8948 68.8363 71.0899 68.7292 71.2234C68.6688 71.3 68.5784 71.3397 68.4875 71.3397Z" fill="#DD6A18"/>
<path d="M66.9454 70.2812C66.8377 70.2812 66.733 70.2248 66.676 70.1246L64.814 66.8491C64.7294 66.7006 64.7812 66.5112 64.9303 66.4272C65.0788 66.3426 65.2682 66.395 65.3522 66.5435L67.2142 69.819C67.2988 69.9675 67.247 70.1569 67.0979 70.2409C67.0501 70.2679 66.9972 70.2812 66.9454 70.2812Z" fill="#DD6A18"/>
<path d="M44.7266 40.8173C44.7266 40.8173 46.8395 55.3496 48.3451 61.8639C49.8675 68.4489 54.5624 77.4852 55.0004 77.3074C55.0004 77.3074 55.451 66.5236 53.1672 60.7099C50.8834 54.8961 50.2554 45.1737 48.8626 42.8933C47.4691 40.6123 44.7266 40.8173 44.7266 40.8173Z" fill="#36251F"/>
<path d="M58.5668 70.232C58.5668 70.232 57.6557 67.4951 56.683 66.3987C55.6948 65.285 54.291 65.7011 54.291 65.7011L54.5627 66.9173C54.5627 66.9173 50.0796 66.9006 49.5207 67.5976C48.9619 68.2946 49.9668 69.2103 49.9668 69.2103C49.9668 69.2103 49.7147 69.0302 49.7222 69.8728C49.7296 70.7154 50.799 71.2208 50.799 71.2208C50.799 71.2208 50.5602 71.4913 50.6667 72.2372C50.7731 72.9831 51.8212 73.6255 51.8212 73.6255C51.8212 73.6255 51.2376 74.5297 52.3335 74.9527C52.8319 75.1455 54.3411 75.629 56.4465 74.6362C57.4105 74.1815 59.2074 73.0614 58.5668 70.232Z" fill="#B5591D"/>
<path d="M51.0939 52.5098C50.0884 52.3492 48.501 52.2007 46.9695 52.4977C46.2989 52.6278 45.8563 53.2718 45.9686 53.9458C46.2546 55.6662 46.8567 58.9826 47.5606 61.0563C47.7637 61.6549 48.3796 62.01 49 61.8886L52.4408 61.2129C53.1781 61.0684 53.6276 60.3156 53.4043 59.5984C52.9455 58.1238 52.2785 55.6938 52.1541 53.673C52.119 53.0854 51.6758 52.603 51.0939 52.5098Z" fill="#5B413C"/>
<path d="M135.992 37.6406C135.992 37.6406 141.683 35.7838 145.267 38.3169C148.851 40.8499 150.232 47.6796 150.232 47.6796L139.095 47.4654L135.992 37.6406Z" fill="#5B413C"/>
<path d="M144.309 55.2558C144.309 55.2558 153.511 48.3139 155.874 56.6515C158.42 65.6343 153.482 71.0285 153.482 71.0285L147.411 65.0801L144.309 55.2558Z" fill="#5B413C"/>
<path d="M125.539 36.3444C125.539 36.3444 138.917 29.1786 149.582 46.5911C160.246 64.0036 153.806 84.9075 144.403 90.1837C135 95.4598 124.229 88.8132 124.229 88.8132L125.539 36.3444Z" fill="#36251F"/>
<path d="M90.3044 192.585L89.9521 197.589H98.2915L98.6443 192.585H90.3044Z" fill="#FF9568"/>
<path d="M96.9707 94.001C96.9707 94.001 90.8767 139.196 97.2763 145.689C99.8347 148.285 107.822 149.087 110.594 144.398C114.952 137.027 116.488 118.455 116.988 108.577L96.9707 94.001Z" fill="#36251F"/>
<path d="M110.594 140.529C110.594 140.529 112.981 145.242 108.972 159.415C105.911 170.235 99.3927 193.481 99.3927 193.481C99.3927 193.481 93.0822 194.238 88.8662 192.497L94.2834 127.295L110.594 140.529Z" fill="#36251F"/>
<path d="M98.4736 186.395C98.4408 186.395 98.4074 186.391 98.3746 186.382C98.1587 186.328 98.0281 186.109 98.0828 185.893C98.1426 185.656 104.093 162.147 105.764 156.74C107.418 151.389 108.134 141.038 108.141 140.934C108.144 140.887 108.155 140.842 108.174 140.799C111.511 133.192 113.16 117.941 113.176 117.787C113.199 117.566 113.401 117.409 113.619 117.429C113.84 117.453 114.001 117.651 113.977 117.872C113.96 118.026 112.308 133.316 108.94 141.058C108.871 142.057 108.162 151.71 106.534 156.978C104.869 162.364 98.9231 185.854 98.8632 186.09C98.8177 186.273 98.6537 186.395 98.4736 186.395Z" fill="#5B413C"/>
<path d="M98.7894 190.039C94.41 190.039 89.6518 188.891 89.4319 188.837C89.2161 188.784 89.0837 188.566 89.1367 188.35C89.1896 188.134 89.4072 188.002 89.623 188.054C89.6811 188.069 95.4782 189.464 100.033 189.198C100.254 189.179 100.446 189.354 100.459 189.577C100.472 189.799 100.303 189.989 100.081 190.003C99.6574 190.027 99.2251 190.039 98.7894 190.039Z" fill="#5B413C"/>
<path d="M100.838 208.867C100.838 208.937 100.837 209.006 100.835 209.073C100.829 209.384 100.815 209.665 100.802 209.905C100.77 210.434 100.731 210.759 100.731 210.759H83.1831C83.1831 210.759 83.0962 210.08 83.1629 209.073C83.278 207.279 83.8737 204.447 86.2969 202.576C89.6144 200.01 88.3332 200.546 89.0141 199.377C89.0906 199.246 89.6881 197.26 89.7514 197.123C90.3218 195.909 90.8473 195.335 93.9916 195.335C98.1615 195.335 98.5281 197.358 98.9736 198.424C99.1572 198.866 99.4088 199.795 99.6678 200.901C99.7731 201.345 99.8778 201.819 99.9814 202.3C100.239 203.51 100.479 204.772 100.642 205.78C100.815 206.859 100.852 207.97 100.838 208.867Z" fill="#FF9918"/>
<path d="M100.839 208.862C100.839 208.933 100.837 209.001 100.836 209.068C100.829 209.38 100.815 209.66 100.802 209.9C99.9463 209.3 99.3362 208.507 98.9794 207.537C97.8933 204.58 99.563 201.03 99.6332 200.88L99.6683 200.897C99.7736 201.34 99.8784 201.814 99.982 202.296C99.5866 203.503 99.1313 205.533 99.7638 207.251C99.9935 207.876 100.354 208.415 100.839 208.862Z" fill="#DD6A18"/>
<path d="M100.835 209.068C100.811 210.068 100.731 210.755 100.731 210.755H83.1831C83.1831 210.755 83.0962 210.076 83.1629 209.068H100.835Z" fill="#DD6A18"/>
<path d="M94.5704 200.8C94.529 200.8 94.487 200.795 94.4444 200.784C92.2123 200.206 90.3941 200.695 90.3763 200.701C90.1092 200.775 89.8341 200.619 89.7604 200.352C89.6868 200.086 89.8427 199.81 90.1092 199.736C90.1933 199.713 92.2072 199.171 94.6953 199.816C94.963 199.885 95.1235 200.158 95.0545 200.426C94.9963 200.65 94.7932 200.8 94.5704 200.8Z" fill="#F4ECE1"/>
<path d="M94.7804 198.936C94.7389 198.936 94.6969 198.931 94.6543 198.92C92.4223 198.342 90.6041 198.831 90.5863 198.836C90.3192 198.91 90.0441 198.754 89.9704 198.488C89.8967 198.221 90.0527 197.945 90.3192 197.872C90.4038 197.849 92.4171 197.307 94.9053 197.951C95.1729 198.02 95.3335 198.294 95.2644 198.561C95.2063 198.786 95.0031 198.936 94.7804 198.936Z" fill="#F4ECE1"/>
<path d="M93.8202 202.387C93.7787 202.387 93.7361 202.381 93.6941 202.37C91.4765 201.796 89.6433 202.282 89.6249 202.287C89.359 202.36 89.0833 202.203 89.0102 201.936C88.9371 201.671 89.0931 201.395 89.359 201.322C89.4436 201.299 91.4569 200.757 93.9451 201.401C94.2127 201.471 94.3733 201.744 94.3042 202.011C94.2461 202.237 94.0429 202.387 93.8202 202.387Z" fill="#F4ECE1"/>
<path d="M92.9383 204.188C92.8969 204.188 92.8549 204.183 92.8123 204.172C90.5946 203.598 88.7615 204.083 88.7431 204.088C88.4766 204.161 88.2015 204.004 88.1284 203.738C88.0553 203.472 88.2112 203.197 88.4772 203.124C88.5618 203.1 90.5745 202.559 93.0632 203.203C93.3309 203.272 93.4915 203.545 93.4224 203.813C93.3643 204.038 93.1611 204.188 92.9383 204.188Z" fill="#F4ECE1"/>
<path d="M130.216 192.732L131.027 198.82H138.581L137.77 192.732H130.216Z" fill="#FF9568"/>
<path d="M156.686 210.752H129.183C128.979 210.38 128.867 209.853 128.821 209.224C128.649 206.898 129.391 203.185 129.754 200.845C129.799 200.571 129.836 200.316 129.865 200.085C129.916 199.693 129.947 199.368 129.947 199.129C129.947 197.218 131.638 197.546 131.638 197.546C134.421 200.275 137.572 196.182 139.413 197.525C139.413 197.525 140.205 198.093 142.389 200.057C144.571 202.022 148.286 203.318 151.447 204.641C155.528 206.347 156.685 208.051 156.911 209.225C157.09 210.154 156.686 210.752 156.686 210.752Z" fill="#FF9918"/>
<path d="M156.685 210.751H129.183C128.979 210.38 128.867 209.852 128.821 209.224H156.911C157.089 210.154 156.685 210.751 156.685 210.751Z" fill="#DD6A18"/>
<path d="M131.99 210.748H131.173C131.987 209.817 132.751 208.387 132.651 206.344C132.518 203.627 130.888 201.795 129.755 200.841C129.799 200.567 129.837 200.312 129.866 200.081C131.087 201.014 133.145 203.057 133.306 206.312C133.401 208.263 132.76 209.718 131.99 210.748Z" fill="#DD6A18"/>
<path d="M141.923 201.68C141.72 201.68 141.534 201.542 141.483 201.336C141.423 201.093 141.571 200.847 141.814 200.787L143.532 200.36C143.775 200.299 144.021 200.448 144.081 200.691C144.142 200.934 143.993 201.179 143.75 201.24L142.032 201.666C141.996 201.676 141.959 201.68 141.923 201.68Z" fill="#F4ECE1"/>
<path d="M140.405 200.166C140.202 200.166 140.017 200.028 139.966 199.822C139.905 199.579 140.053 199.334 140.297 199.273L142.015 198.847C142.257 198.786 142.503 198.934 142.564 199.177C142.624 199.42 142.476 199.666 142.233 199.726L140.515 200.153C140.478 200.162 140.442 200.166 140.405 200.166Z" fill="#F4ECE1"/>
<path d="M143.642 202.675C143.439 202.675 143.253 202.538 143.202 202.331C143.142 202.088 143.289 201.842 143.533 201.782L145.251 201.356C145.494 201.294 145.74 201.443 145.8 201.686C145.861 201.929 145.713 202.175 145.47 202.235L143.752 202.661C143.714 202.671 143.678 202.675 143.642 202.675Z" fill="#F4ECE1"/>
<path d="M145.36 203.642C145.157 203.642 144.971 203.504 144.921 203.298C144.86 203.055 145.008 202.809 145.251 202.749L146.969 202.322C147.212 202.261 147.458 202.41 147.518 202.653C147.579 202.896 147.431 203.141 147.187 203.202L145.469 203.628C145.432 203.637 145.396 203.642 145.36 203.642Z" fill="#F4ECE1"/>
<path d="M147.232 204.527C147.028 204.527 146.844 204.389 146.792 204.182C146.731 203.94 146.88 203.694 147.123 203.633L148.841 203.207C149.084 203.146 149.329 203.294 149.39 203.537C149.45 203.78 149.302 204.026 149.059 204.086L147.341 204.513C147.305 204.522 147.268 204.527 147.232 204.527Z" fill="#F4ECE1"/>
<path d="M149.264 205.279C149.061 205.279 148.875 205.14 148.824 204.934C148.764 204.692 148.912 204.446 149.155 204.385L150.873 203.959C151.116 203.898 151.362 204.046 151.422 204.289C151.483 204.532 151.335 204.778 151.091 204.838L149.373 205.265C149.336 205.275 149.3 205.279 149.264 205.279Z" fill="#F4ECE1"/>
<path d="M135.861 99.2744C135.861 99.2744 137.478 136.304 135.125 145.113C134.578 147.163 123.548 146.989 120.902 143.232C115.686 135.827 114.213 119.276 113.789 108.548L135.861 99.2744Z" fill="#36251F"/>
<path d="M120.489 142.612C120.489 142.612 119.865 150.872 121.181 159.851C122.812 170.977 129.407 194.701 129.407 194.701C129.407 194.701 134.713 194.755 138.58 193.852L136.306 129.996L120.489 142.612Z" fill="#36251F"/>
<path d="M128.554 190.978C128.342 190.978 128.164 190.812 128.152 190.598C128.139 190.376 128.31 190.186 128.531 190.174L138.07 189.642C138.288 189.632 138.482 189.799 138.494 190.022C138.506 190.244 138.337 190.434 138.114 190.446L128.576 190.977C128.569 190.977 128.562 190.978 128.554 190.978Z" fill="#5B413C"/>
<path d="M129.413 186.968C129.233 186.968 129.068 186.846 129.023 186.663C128.964 186.429 123.165 163.144 122.087 157.061C121.06 151.265 122.974 143.07 123.281 141.822C118.463 132.459 117.975 118.118 117.97 117.974C117.963 117.751 118.138 117.566 118.36 117.559C118.364 117.559 118.368 117.559 118.373 117.559C118.589 117.559 118.768 117.731 118.775 117.949C118.78 118.092 119.268 132.391 124.066 141.585C124.111 141.674 124.123 141.775 124.099 141.871C124.076 141.961 121.821 150.938 122.881 156.92C123.954 162.975 129.747 186.233 129.805 186.467C129.859 186.683 129.728 186.901 129.512 186.955C129.479 186.964 129.445 186.968 129.413 186.968Z" fill="#5B413C"/>
<path d="M108.967 49.3092C108.957 49.3403 108.949 49.3702 108.939 49.4002L108.915 49.4767L108.431 51.0014L107.947 52.5468L106.998 55.6479C106.371 57.7171 105.761 59.7902 105.169 61.8634C104.943 62.6577 104.719 63.4514 104.499 64.2457C104.248 65.151 104.001 66.0558 103.76 66.96C103.661 67.3324 103.562 67.7054 103.465 68.0778C102.925 70.1446 102.414 72.2097 101.969 74.2421C101.75 75.2545 101.539 76.2675 101.369 77.2419C101.321 77.4894 101.288 77.7242 101.247 77.9654L101.19 78.3199L101.144 78.6468L101.097 78.9726C101.083 79.0825 101.073 79.1959 101.061 79.307C101.038 79.5303 101.008 79.7502 100.994 79.9804C100.835 81.7929 100.866 83.7285 101.009 85.6883C101.154 87.6504 101.427 89.6481 101.793 91.6396C101.975 92.6353 102.184 93.6316 102.41 94.6187C102.526 95.112 102.645 95.6041 102.769 96.0887L102.961 96.8076L103.142 97.451L103.195 97.6433C103.97 100.389 102.371 103.242 99.6263 104.016C96.943 104.773 94.155 103.254 93.3072 100.623L93.1507 100.136L93.0143 99.6963L92.7587 98.8341C92.5941 98.2632 92.4398 97.6951 92.2908 97.1253C91.9932 95.9874 91.721 94.8455 91.4763 93.6932C90.9883 91.3909 90.5986 89.0542 90.3505 86.6541C90.2274 85.454 90.1393 84.2396 90.0973 83.005C90.0541 81.7727 90.0605 80.5186 90.133 79.2397C90.1462 78.922 90.1762 78.5985 90.2009 78.2773C90.2141 78.115 90.2251 77.955 90.2412 77.7927L90.2947 77.3046L90.3494 76.8165C90.3684 76.6577 90.3914 76.5132 90.4127 76.3601C90.4559 76.0602 90.495 75.7523 90.5439 75.4611C90.7241 74.2743 90.937 73.1375 91.1575 72.0054C91.6018 69.7486 92.0974 67.55 92.6177 65.3686C92.742 64.8494 92.8675 64.332 92.9941 63.8151C93.1173 63.3173 93.2399 62.8194 93.3665 62.3227C93.6554 61.1704 93.9518 60.0228 94.2511 58.8762C94.8158 56.7259 95.3977 54.5849 95.9945 52.4495L96.901 49.2494L97.3644 47.6493L97.8398 46.0337C98.7451 42.9614 101.969 41.2047 105.041 42.1101C108.116 43.0137 109.872 46.238 108.967 49.3092Z" fill="#FF9568"/>
<path d="M104.499 64.2448C104.248 65.1502 104.001 66.055 103.76 66.9592L92.9961 63.8137C93.1193 63.3159 93.2419 62.818 93.3685 62.3213L104.499 64.2448Z" fill="#E0693E"/>
<path d="M109.271 50.0421L105.548 65.7607L91.7275 62.6786C91.7275 62.6786 94.8275 46.1081 98.9952 42.9978C101.303 41.2757 103.349 40.9022 105.741 42.1442C108.593 43.6251 110.012 46.9139 109.271 50.0421Z" fill="#236676"/>
<path d="M97.2771 91.9238C97.2771 91.9238 95.2627 104.114 96.6302 108.994C97.9978 113.874 131.151 118.133 133.298 113.621C137.438 104.919 135.765 95.0963 135.765 95.0963C120.667 98.5745 108.192 96.7465 97.2771 91.9238Z" fill="#36251F"/>
<path d="M115.058 95.0211C115.052 95.1563 115.046 95.2933 115.04 95.4326C114.885 99.0886 114.692 104.266 114.592 109.549C114.586 109.84 114.581 110.133 114.574 110.425C114.547 112.11 114.528 113.799 114.522 115.444C114.522 115.676 114.71 115.866 114.941 115.869C114.943 115.869 114.943 115.869 114.945 115.869C115.179 115.869 115.369 115.68 115.369 115.446C115.374 113.857 115.392 112.229 115.419 110.603C115.424 110.317 115.428 110.031 115.435 109.744C115.534 104.429 115.727 99.206 115.884 95.5172C115.891 95.3486 115.898 95.1834 115.905 95.0205L115.058 95.0211Z" fill="#5B413C"/>
<path d="M118.533 95.0205C118.523 95.2467 118.512 95.4775 118.502 95.7152C118.276 100.499 117.929 107.27 117.701 108.869C117.65 109.238 117.498 109.48 117.224 109.633C116.786 109.876 116.112 109.863 115.437 109.743C115.149 109.693 114.862 109.624 114.593 109.548C114.102 109.41 113.671 109.246 113.412 109.133C113.198 109.039 112.947 109.136 112.854 109.35C112.76 109.564 112.858 109.815 113.072 109.909C113.206 109.967 113.812 110.225 114.576 110.424C114.843 110.495 115.128 110.557 115.421 110.602C115.688 110.642 115.959 110.669 116.227 110.672C116.74 110.677 117.232 110.598 117.636 110.373C118.138 110.093 118.452 109.614 118.539 108.988C118.775 107.339 119.124 100.557 119.348 95.7618C119.36 95.5086 119.372 95.2634 119.383 95.0211H118.533V95.0205Z" fill="#5B413C"/>
<path d="M138.301 65.7978C138.215 66.5253 138.141 67.4232 138.073 68.4604C138.05 68.8166 138.027 69.1873 138.004 69.5735C137.814 72.8007 137.649 77.0466 137.343 81.4502C137.316 81.8445 137.286 82.2428 137.255 82.6394C136.545 92.1189 139.344 95.4203 135.334 96.3326C110.981 101.874 101.035 96.317 98.0711 93.9981C94.7979 91.4363 97.0046 81.1745 98.2104 69.0745C98.2507 68.6658 98.2887 68.2629 98.3284 67.8687C98.6507 64.5759 98.8913 61.8736 98.8976 60.2949C98.9229 52.9547 99.8841 45.1299 100.982 41.7761C102.08 38.4223 114.315 35.7598 114.315 35.7598L127.88 36.3353C127.88 36.3353 132.15 38.8448 137.005 43.8976C141.86 48.9494 139.212 58.091 138.301 65.7978Z" fill="#236676"/>
<path d="M112.397 55.165L106.667 65.2483L111.925 65.6167L107.469 72.9557L120.873 62.671L114.26 61.5814L120.634 55.8056L112.397 55.165Z" fill="#104151"/>
<path d="M111.312 36.5152C111.312 36.5152 108.943 51.5489 107.524 58.0821C106.108 64.598 103.368 69.7844 101.177 73.0404C99.4945 75.5406 97.1957 78.0322 97.1825 78.034C96.836 78.0702 95.8967 74.0597 98.2657 68.5216C102.63 58.3152 106.007 40.0497 107.37 37.7509C108.731 35.4515 111.312 36.5152 111.312 36.5152Z" fill="#36251F"/>
<path d="M104.321 48.8488C105.383 48.6646 107.063 48.485 108.69 48.778C109.402 48.9064 109.88 49.5826 109.771 50.2975C109.492 52.1237 108.9 55.6456 108.184 57.8523C107.977 58.4895 107.33 58.8739 106.671 58.7537L103.016 58.0866C102.233 57.9438 101.746 57.153 101.973 56.3898C102.438 54.8214 103.11 52.2377 103.214 50.0955C103.243 49.4733 103.705 48.9559 104.321 48.8488Z" fill="#5B413C"/>
<path d="M125.682 45.8492C121.661 45.8492 118.502 44.4483 116.391 43.0963C113.444 41.2096 111.888 39.0628 111.822 38.9724C111.693 38.7917 111.734 38.5401 111.915 38.4106C112.096 38.2806 112.347 38.3226 112.477 38.5027C112.537 38.5868 118.631 46.8703 129.231 44.671C129.449 44.6256 129.662 44.7654 129.707 44.9836C129.752 45.2011 129.613 45.4141 129.394 45.4596C128.088 45.7312 126.848 45.8492 125.682 45.8492Z" fill="#104151"/>
<path d="M134.487 40.6001C134.487 40.6001 128.033 44.5853 126.449 53.1352C124.865 61.6852 130.778 73.4549 137.528 76.8053C137.528 76.8053 138.677 79.618 137.231 83.0305C137.231 83.0305 122.661 78.593 121.328 60.1065C119.995 41.62 130.377 38.6644 130.377 38.6644C131.687 38.2863 133.737 39.5197 134.487 40.6001Z" fill="#36251F"/>
<path d="M126.36 50.4281C125.428 50.0183 123.929 49.4739 122.373 49.3737C121.691 49.33 121.1 49.8411 121.038 50.5214C120.88 52.2579 120.623 55.6191 120.781 57.8034C120.826 58.4342 121.332 58.9332 121.963 58.9724L125.463 59.1888C126.213 59.2354 126.838 58.6213 126.803 57.8702C126.732 56.3277 126.701 53.8078 127.092 51.8216C127.206 51.2437 126.899 50.6653 126.36 50.4281Z" fill="#5B413C"/>
<path d="M98.6828 64.331C98.6787 64.331 98.6741 64.331 98.6701 64.331C98.5158 64.3241 98.3967 64.194 98.4036 64.0397C98.4082 63.9413 98.852 54.1147 99.9956 48.3016C100.025 48.1502 100.173 48.0512 100.323 48.0817C100.474 48.1116 100.573 48.2584 100.543 48.4092C99.4074 54.1821 98.9654 63.9667 98.9613 64.0645C98.955 64.2142 98.8312 64.331 98.6828 64.331Z" fill="#104151"/>
<path d="M99.6384 52.0923C99.521 52.0923 99.4117 52.0181 99.3731 51.9001L98.6704 49.7601C98.622 49.6134 98.702 49.4557 98.8482 49.4079C98.9944 49.359 99.1527 49.4395 99.2004 49.5857L99.9032 51.7257C99.9516 51.8724 99.8716 52.0301 99.7254 52.0779C99.6966 52.0883 99.6672 52.0923 99.6384 52.0923Z" fill="#104151"/>
<path d="M125.084 93.9623C119.794 94.2938 114.295 92.2396 108.957 87.8959C103.88 83.7645 100.686 78.9603 100.655 78.9125C100.537 78.7341 100.587 78.4946 100.764 78.3772C100.942 78.2598 101.182 78.3093 101.3 78.4871C101.331 78.5343 104.47 83.2528 109.46 87.3088C114.027 91.0212 121.13 94.9258 129.042 92.4457C129.244 92.383 129.462 92.4952 129.526 92.6989C129.59 92.9027 129.476 93.1191 129.273 93.183C127.897 93.6141 126.497 93.8731 125.084 93.9623Z" fill="#104151"/>
<path d="M120.039 88.6814C120.011 88.6832 119.983 88.682 119.954 88.6774C113.481 87.6449 107.944 79.7976 107.712 79.4644C107.59 79.2894 107.633 79.0488 107.808 78.9268C107.983 78.8048 108.224 78.848 108.346 79.0229C108.401 79.1018 113.928 86.9352 120.076 87.9154C120.286 87.9487 120.43 88.1467 120.396 88.3574C120.367 88.5387 120.215 88.6705 120.039 88.6814Z" fill="#104151"/>
<path d="M112.857 14.4215C112.857 14.4215 113.582 10.7293 112.636 7.66555C111.704 4.65075 111.704 2.84866 112.285 2.31396C114.113 0.629867 115.833 4.7273 115.833 4.7273C115.833 4.7273 115.351 0.918799 116.932 0.811744C118.514 0.704689 119.62 4.3952 119.62 4.3952C119.62 4.3952 119.325 -1.01106 121.396 0.168267C123.467 1.3476 124.23 4.95407 124.23 4.95407C124.23 4.95407 131.341 6.13916 133.957 10.91C133.957 10.91 136.097 8.62962 137.491 9.97471C138.885 11.3198 135.99 13.5455 135.99 13.5455C135.99 13.5455 138.214 15.0086 137.871 17.11C137.527 19.2113 134.886 17.7707 134.886 17.7707C134.886 17.7707 135.331 29.0155 125.779 32.1057C116.227 35.1965 112.857 14.4215 112.857 14.4215Z" fill="#D65900"/>
<path d="M115.524 32.95L115.066 36.3539C115.396 36.7257 115.736 37.0566 116.082 37.3496C121.144 41.6439 127.71 38.0547 127.71 38.0547L129.298 26.2539L117.167 32.1517L115.524 32.95Z" fill="#FF9568"/>
<path d="M115.524 32.9471L115.066 36.351C115.396 36.7228 115.736 37.0537 116.082 37.3467C121.066 35.9889 125.21 31.1709 125.21 31.1709L117.167 32.1488L115.524 32.9471Z" fill="#36251F"/>
<path d="M113.51 19.7837C113.51 19.7837 111.987 17.3997 110.675 19.4027C109.363 21.4051 109.568 25.8438 112.42 25.5054L113.51 19.7837Z" fill="#E0693E"/>
<path d="M110.812 25.5692C110.812 25.5692 110.07 32.2371 116.931 33.1447C123.751 34.0489 128.719 30.7072 128.994 30.492C128.999 30.4885 129.003 30.4868 129.003 30.4868L129.263 29.1106L130.618 21.9685L131.343 18.1513C131.343 18.1513 133.145 11.3447 126.735 9.19671C122.052 7.62715 117.436 7.81939 114.824 10.0215C114.74 10.0923 114.657 10.166 114.579 10.2419C113.743 11.027 113.143 12.0411 112.85 13.2924L111.708 20.1704L111.429 21.8562L110.812 25.5692Z" fill="#FF9568"/>
<path d="M120.937 24.082C120.937 24.082 119.948 26.9443 117.568 27.3357C114.859 27.7812 114.364 24.3934 114.364 24.3934L120.937 24.082Z" fill="#F4ECE1"/>
<path d="M116.556 28.3389C116.464 28.3107 116.407 28.2854 116.398 28.2813C116.287 28.2313 116.238 28.1006 116.288 27.9895C116.339 27.879 116.468 27.829 116.579 27.8796C116.612 27.894 117.34 28.2071 117.97 27.7035C118.065 27.6275 118.203 27.643 118.279 27.738C118.355 27.833 118.34 27.9717 118.245 28.0477C117.592 28.5697 116.87 28.4356 116.556 28.3389Z" fill="#E0693E"/>
<path d="M120.978 19.5254C120.89 20.185 121.117 20.76 121.486 20.8095C121.855 20.859 122.226 20.3646 122.315 19.7055C122.403 19.046 122.176 18.4715 121.807 18.4215C121.438 18.3714 121.067 18.8652 120.978 19.5254Z" fill="#36251F"/>
<path d="M114.454 18.6523C114.365 19.3119 114.592 19.8869 114.961 19.9364C115.33 19.9859 115.702 19.4915 115.79 18.8325C115.879 18.1729 115.651 17.5979 115.283 17.5484C114.914 17.4983 114.542 17.9928 114.454 18.6523Z" fill="#36251F"/>
<path d="M117.351 22.4848C115.743 22.2684 115.352 21.073 115.336 21.0218C115.311 20.9429 115.324 20.8571 115.369 20.7887C116.777 18.6648 118.208 16.4806 118.223 16.4587C118.306 16.3321 118.475 16.297 118.602 16.3798C118.729 16.4627 118.764 16.6325 118.681 16.7586C118.667 16.7799 117.289 18.8835 115.907 20.9694C116.031 21.2186 116.425 21.808 117.425 21.9421C117.575 21.9622 117.68 22.0998 117.66 22.25C117.639 22.3997 117.502 22.505 117.351 22.4848Z" fill="#36251F"/>
<path d="M124.151 11.6529C124.894 11.7842 125.478 12.4046 125.499 13.1592C125.514 13.695 125.764 14.3627 126.591 15.0586C128.521 16.6828 127.895 18.4734 127.207 19.9364C126.519 21.4001 129.196 24.6342 131.577 21.0876C133.958 17.5415 133.31 9.30811 127.735 8.16964C122.159 7.03176 114.476 7.85826 113.512 10.3199C112.547 12.7816 112.639 15.0125 112.639 15.0125C112.639 15.0125 113.653 14.3587 113.797 12.75C113.939 11.1418 115.132 10.6601 117.027 10.6601C118.317 10.6613 121.963 11.2673 124.151 11.6529Z" fill="#D65900"/>
<g opacity="0.8">
<path d="M111.428 21.8581C111.596 21.8978 111.774 21.9306 111.957 21.9554C113.176 22.1194 114.217 21.8627 114.281 21.3827C114.346 20.9027 113.409 20.3801 112.19 20.216C112.025 20.1941 111.863 20.1798 111.707 20.1729L111.428 21.8581Z" fill="#E0693E"/>
</g>
<path d="M120.541 22.2262C120.477 22.7062 121.413 23.2288 122.633 23.3929C123.854 23.5569 124.895 23.3008 124.959 22.8208C125.024 22.3402 124.087 21.8181 122.867 21.6541C121.647 21.4901 120.606 21.7462 120.541 22.2262Z" fill="#E0693E"/>
<path d="M125.043 16.6814C124.591 17.4054 123.643 17.6351 122.911 17.1965C122.483 16.9404 121.974 16.6768 121.426 16.4776C120.649 16.1956 120.263 15.3253 120.586 14.5645C120.586 14.5645 123.819 14.7009 125.043 16.6814Z" fill="#D65900"/>
<path d="M112.638 15.0117C112.882 15.8296 113.736 16.3016 114.558 16.0719C115.038 15.9378 115.599 15.8181 116.18 15.7709C117.003 15.7041 117.606 14.9663 117.495 14.1472C117.495 14.1472 114.341 13.4255 112.638 15.0117Z" fill="#D65900"/>
<path d="M127.207 27.5244C127.228 27.6015 127.826 29.7317 128.995 30.4891C128.999 30.4857 129.002 30.4834 129.002 30.4834L129.263 29.1072C129.263 29.1072 128.205 28.7768 127.207 27.5244Z" fill="#36251F"/>
<path d="M129.031 23.1085C129.031 23.1085 132.144 19.9216 133.702 22.9646C134.985 25.4723 131.171 31.0443 128.296 28.5728L129.031 23.1085Z" fill="#FF9568"/>
<path d="M128.799 27.549C128.79 27.5479 128.78 27.5456 128.77 27.5433C128.623 27.507 128.533 27.3585 128.57 27.2118C129.304 24.2436 131.979 23.5414 132.093 23.5132C132.24 23.4763 132.389 23.5656 132.425 23.7123C132.462 23.8591 132.374 24.0076 132.227 24.0444C132.126 24.0703 129.755 24.7029 129.102 27.3436C129.067 27.4805 128.936 27.5674 128.799 27.549Z" fill="#36251F"/>
<path d="M131.552 26.2509C131.492 26.2428 131.434 26.2146 131.389 26.1674C131.179 25.9447 130.527 25.3783 130.043 25.4353C129.893 25.4526 129.757 25.3455 129.739 25.1953C129.721 25.0451 129.829 24.9092 129.979 24.8914C130.822 24.7924 131.692 25.6897 131.788 25.7927C131.892 25.9027 131.886 26.0759 131.776 26.1795C131.714 26.2382 131.631 26.2618 131.552 26.2509Z" fill="#36251F"/>
<path d="M147.198 80.4089L147.192 80.6656C147.187 81.0098 147.17 81.3488 147.149 81.6867C147.106 82.3624 147.033 83.0254 146.94 83.6775C146.57 86.2877 145.821 88.6918 144.909 90.9319C143.982 93.1697 142.873 95.2475 141.632 97.2044C141.017 98.1857 140.354 99.1291 139.67 100.056C139.323 100.517 138.969 100.971 138.602 101.424C138.419 101.651 138.23 101.875 138.038 102.101L137.742 102.444L137.4 102.831C135.91 104.72 133.17 105.042 131.282 103.551C129.393 102.06 129.07 99.3213 130.562 97.4318C130.556 97.4341 130.567 97.4151 130.578 97.3949L130.614 97.3328L130.694 97.1969L130.86 96.9091L131.198 96.3071C131.424 95.9025 131.645 95.4881 131.86 95.0702C132.297 94.238 132.698 93.3867 133.08 92.5366C133.835 90.8324 134.481 89.1108 134.943 87.4141C135.179 86.5686 135.37 85.7294 135.505 84.9075C135.57 84.4954 135.627 84.0908 135.673 83.6908C135.716 83.2919 135.745 82.8976 135.758 82.5132C135.773 82.1275 135.775 81.7488 135.757 81.3822C135.747 81.198 135.738 81.0167 135.722 80.8389L135.671 80.2057C135.597 79.3125 135.496 78.3824 135.364 77.4292C135.235 76.4778 135.083 75.5138 134.918 74.5393C134.759 73.5672 134.581 72.5847 134.396 71.6016C134.204 70.6007 134.006 69.597 133.8 68.5903C133.676 67.9768 133.548 67.3615 133.417 66.7456C133.342 66.3876 133.266 66.0279 133.187 65.6687L132.53 62.6896L131.847 59.7082L131.148 56.7291L130.444 53.7926L130.421 53.6993C129.601 50.2805 131.707 46.845 135.125 46.0248C138.544 45.2046 141.979 47.3106 142.799 50.7294L142.8 50.7352L143.18 52.3232C143.303 52.8452 143.418 53.3655 143.535 53.8864C143.768 54.9276 143.985 55.9699 144.2 57.014C144.418 58.0575 144.62 59.1039 144.818 60.1531C145.015 61.203 145.212 62.2522 145.389 63.3095C145.457 63.7049 145.523 64.1009 145.59 64.4986C145.727 65.3286 145.86 66.162 145.986 66.9977C146.121 67.8933 146.249 68.7923 146.367 69.6954C146.507 70.7723 146.642 71.8532 146.757 72.9479C146.874 74.0403 146.969 75.1477 147.046 76.2723C147.125 77.3935 147.176 78.5447 147.192 79.7344L147.197 80.1833L147.198 80.4089Z" fill="#FF9568"/>
<path d="M145.986 66.9991L133.801 68.5923C133.677 67.9787 133.549 67.3634 133.418 66.7476L145.589 64.5C145.727 65.33 145.859 66.1634 145.986 66.9991Z" fill="#E0693E"/>
<path d="M129.491 52.4283L133.333 68.1187L147.13 64.9329C147.13 64.9329 143.906 48.3861 139.715 45.3068C137.395 43.602 135.345 43.2434 132.963 44.5039C130.122 46.0067 128.727 49.3058 129.491 52.4283Z" fill="#236676"/>
<path d="M133.491 67.3734C133.364 67.3734 133.25 67.287 133.22 67.1587L130.39 55.2445C130.355 55.0949 130.447 54.9441 130.598 54.9084C130.748 54.8716 130.898 54.9654 130.934 55.1156L133.763 67.0298C133.799 67.1794 133.706 67.3302 133.556 67.3659C133.534 67.3711 133.512 67.3734 133.491 67.3734Z" fill="#104151"/>
<path d="M131.353 58.3696C131.299 58.3696 131.244 58.3541 131.196 58.3207L129.466 57.1362C129.339 57.0493 129.307 56.8755 129.394 56.7483C129.48 56.6211 129.654 56.5888 129.781 56.6757L131.511 57.8603C131.638 57.9472 131.671 58.121 131.584 58.2482C131.53 58.327 131.442 58.3696 131.353 58.3696Z" fill="#104151"/>
<path d="M134.362 111.642C132.065 109.695 129.691 107.755 127.594 105.572C127.603 105.554 127.607 105.544 127.607 105.544C127.607 105.544 127.598 105.549 127.582 105.559C126.793 104.737 126.043 103.88 125.351 102.976C125.543 102.611 125.717 102.296 125.857 102.053C126.494 100.945 128.034 99.3851 129.224 98.5897C130.126 97.987 130.955 96.825 131.776 96.7732C134.374 96.6109 137.713 98.8015 137.708 100.167C137.701 102.178 136.651 106.204 136.386 107.719C136.279 108.332 135.747 110.249 135.098 112.267C134.853 112.058 134.607 111.849 134.362 111.642Z" fill="#FF9568"/>
<path d="M135.978 112.996C135.978 112.847 135.916 112.704 135.807 112.602L125.071 102.577C124.867 102.388 124.55 102.385 124.346 102.575C124.343 102.577 124.341 102.58 124.338 102.582C124.11 102.793 124.108 103.153 124.335 103.365L135.072 113.39C135.416 113.711 135.978 113.467 135.978 112.996Z" fill="#5B413C"/>
<path d="M99.9472 95.0182C99.9472 95.0182 98.4675 104.699 96.6101 107.058C96.6101 107.058 92.1541 102.425 94.263 95.0493C95.6783 90.1006 99.9472 95.0182 99.9472 95.0182Z" fill="#FF9568"/>
<path d="M234.309 77.6008C233.328 77.6889 232.312 77.5248 231.356 77.073C226.554 74.8036 221.182 70.4316 215.393 64.0768C211.242 59.5218 208.386 55.5919 208.267 55.4267C206.411 52.8643 206.984 49.2831 209.547 47.4281C212.108 45.573 215.688 46.1452 217.544 48.7053C220.361 52.5874 229.214 63.3902 236.251 66.7152C239.111 68.0666 240.334 71.4809 238.982 74.3408C238.082 76.2465 236.266 77.4253 234.309 77.6008Z" fill="#B5591D"/>
<path d="M216.864 46.5674L226.52 57.9865L220.779 71.0628L214.415 63.7946C214.415 63.7946 213.496 49.2892 216.864 46.5674Z" fill="#7F7134"/>
<path d="M242.083 45.6785C239.712 45.0316 237.266 46.4296 236.619 48.8004L236.596 48.885L236.096 50.7199L235.568 52.5778C235.211 53.8158 234.843 55.0504 234.464 56.2787C233.705 58.7352 232.905 61.1698 232.042 63.5446C231.611 64.7308 231.164 65.9015 230.697 67.0411C230.231 68.179 229.742 69.2899 229.232 70.3201C228.977 70.8341 228.716 71.3285 228.455 71.7792C228.453 71.7843 228.449 71.7895 228.446 71.7947C228.789 72.3524 229.157 72.8963 229.537 73.4333H239.298C239.666 72.4721 239.998 71.5236 240.313 70.5791C240.754 69.2501 241.155 67.9304 241.534 66.6146C242.29 63.9832 242.955 61.3649 243.573 58.7444C243.881 57.4338 244.176 56.1238 244.46 54.8104L244.876 52.8374L245.078 51.8463L245.278 50.8321C245.719 48.5667 244.346 46.2955 242.083 45.6785Z" fill="#B5591D"/>
<path d="M236.474 49.0654C236.474 49.0654 237.563 54.1453 244.62 54.0596C244.62 54.0596 244.682 55.3028 244.126 56.3382C244.126 56.3382 238.363 56.3382 235.87 51.5237C235.87 51.5237 235.521 50.5256 236.474 49.0654Z" fill="#36251F"/>
<path d="M231.974 64.3551C231.961 64.3845 231.944 64.4121 231.922 64.4374C231.048 65.4262 230.44 67.5835 230.433 67.6053C230.387 67.7711 230.216 67.8672 230.051 67.8212C229.885 67.7751 229.789 67.6036 229.835 67.4384C229.861 67.344 230.489 65.1206 231.456 64.0259C231.569 63.8976 231.766 63.8849 231.895 63.9988C231.998 64.0898 232.026 64.2348 231.974 64.3551Z" fill="#8F2D00"/>
<path d="M231.66 64.5013C231.637 64.5238 231.61 64.5428 231.58 64.5577C230.397 65.1425 229.017 66.9089 229.003 66.9268C228.898 67.0626 228.703 67.0868 228.567 66.9814C228.431 66.8761 228.406 66.681 228.512 66.5452C228.572 66.468 229.995 64.6475 231.304 64C231.458 63.9241 231.644 63.9868 231.721 64.141C231.782 64.2648 231.753 64.4098 231.66 64.5013Z" fill="#8F2D00"/>
<path d="M241.678 53.3793C241.678 53.3793 246.524 53.1928 248.36 50.8048C250.42 48.1267 246.68 41.948 244.999 40.7393C242.897 39.2273 240.106 42.3187 240.106 42.3187C240.106 42.3187 238.007 37.9473 236.877 38.5384C235.405 39.3079 238.012 42.5967 236.364 46.3603C235.995 47.2023 236.182 48.1917 236.475 49.0631C237.028 50.7115 238.393 53.1059 241.678 53.3793Z" fill="#B5591D"/>
<path d="M243.344 49.5709C243.323 49.4783 243.349 49.3775 243.422 49.3056C243.495 49.2331 245.245 47.5242 246.893 47.0989C247.046 47.0597 247.202 47.1513 247.241 47.3038C247.279 47.454 247.188 47.6123 247.035 47.6514C245.534 48.0388 243.839 49.6952 243.822 49.7119C243.71 49.8224 243.529 49.8213 243.418 49.7091C243.38 49.6699 243.354 49.6216 243.344 49.5709Z" fill="#8F2D00"/>
<path d="M241.685 47.5393C241.666 47.4541 241.686 47.3609 241.748 47.2901C241.809 47.2205 243.268 45.5744 245.659 45.0287C245.813 44.9936 245.966 45.0897 246.001 45.2434L246.002 45.2451C246.036 45.3982 245.94 45.5502 245.787 45.5853C243.582 46.0883 242.192 47.6498 242.178 47.6659C242.075 47.7845 241.894 47.7966 241.775 47.693C241.727 47.651 241.697 47.5969 241.685 47.5393Z" fill="#8F2D00"/>
<path d="M240.685 45.0406C240.667 44.956 240.687 44.8645 240.747 44.7937C240.799 44.7321 242.059 43.284 244.306 42.7614C244.46 42.7257 244.614 42.8212 244.649 42.9749C244.689 43.1315 244.589 43.2817 244.436 43.3179C242.379 43.7962 241.193 45.1517 241.181 45.1655C241.078 45.2852 240.898 45.2985 240.779 45.196C240.73 45.1534 240.699 45.0987 240.685 45.0406Z" fill="#8F2D00"/>
<path d="M239.054 50.0818C239.029 49.9644 239.08 49.8383 239.189 49.7739C240.892 48.7781 241.16 46.6969 241.163 46.6756C241.182 46.5191 241.323 46.4074 241.48 46.4258C241.636 46.4442 241.748 46.5852 241.73 46.7424C241.718 46.8391 241.43 49.1246 239.477 50.2665C239.342 50.346 239.167 50.3005 239.087 50.1641C239.071 50.1382 239.061 50.1106 239.054 50.0818Z" fill="#8F2D00"/>
<path d="M240.736 45.464C240.573 44.7267 240.505 43.9399 240.578 43.1123C240.592 42.9551 240.73 42.8389 240.887 42.8527C241.044 42.8665 241.16 43.0052 241.146 43.1618C240.757 47.6218 244.897 50.9848 244.939 51.0182C245.063 51.1166 245.083 51.2962 244.984 51.4194C244.886 51.5425 244.707 51.5627 244.583 51.4648C244.434 51.3457 241.511 48.9755 240.736 45.464Z" fill="#8F2D00"/>
<path d="M190.302 38.9578C190.302 38.9578 185.183 35.8538 181.116 37.5039C177.049 39.154 174.15 45.4898 174.15 45.4898L185.043 47.8174L190.302 38.9578Z" fill="#5B413C"/>
<path d="M178.191 54.2164C178.191 54.2164 170.811 45.3613 166.611 52.9415C162.087 61.1082 165.666 67.4854 165.666 67.4854L172.932 63.076L178.191 54.2164Z" fill="#5B413C"/>
<path d="M200.774 40.0755C200.774 40.0755 189.38 30.0515 175.03 44.5775C160.681 59.1036 162.191 80.9249 170.146 88.2041C178.1 95.4826 190.101 91.464 190.101 91.464L200.774 40.0755Z" fill="#36251F"/>
<path d="M206.742 193.072L207.54 199.059H214.969L214.171 193.072H206.742Z" fill="#B5591D"/>
<path d="M232.773 210.796H205.726C205.525 210.431 205.416 209.912 205.371 209.294C205.202 207.007 205.931 203.355 206.288 201.053C206.332 200.785 206.369 200.533 206.398 200.306C206.447 199.922 206.478 199.601 206.478 199.366C206.478 197.488 208.141 197.809 208.141 197.809C210.878 200.493 213.977 196.468 215.787 197.789C215.787 197.789 216.566 198.348 218.713 200.279C220.86 202.211 224.513 203.486 227.621 204.787C231.635 206.465 232.773 208.141 232.995 209.295C233.171 210.209 232.773 210.796 232.773 210.796Z" fill="#D65900"/>
<path d="M232.774 210.795H205.727C205.525 210.43 205.416 209.911 205.371 209.293H232.996C233.171 210.208 232.774 210.795 232.774 210.795Z" fill="#AA3714"/>
<path d="M208.486 210.789H207.682C208.484 209.873 209.234 208.467 209.136 206.458C209.005 203.786 207.402 201.985 206.288 201.046C206.332 200.777 206.369 200.526 206.397 200.299C207.599 201.216 209.622 203.226 209.78 206.426C209.873 208.345 209.244 209.776 208.486 210.789Z" fill="#AA3714"/>
<path d="M218.146 201.681C217.945 201.681 217.763 201.546 217.713 201.343C217.654 201.104 217.8 200.862 218.039 200.803L219.728 200.384C219.967 200.324 220.209 200.47 220.268 200.709C220.328 200.948 220.182 201.189 219.943 201.249L218.253 201.668C218.217 201.677 218.181 201.681 218.146 201.681Z" fill="#F4ECE1"/>
<path d="M216.502 200.373C216.302 200.373 216.12 200.237 216.07 200.034C216.011 199.796 216.156 199.554 216.395 199.495L218.085 199.075C218.323 199.015 218.566 199.161 218.625 199.4C218.684 199.639 218.538 199.881 218.3 199.94L216.61 200.36C216.574 200.369 216.538 200.373 216.502 200.373Z" fill="#F4ECE1"/>
<path d="M219.945 202.856C219.746 202.856 219.564 202.72 219.513 202.518C219.454 202.279 219.6 202.037 219.838 201.978L221.528 201.558C221.767 201.498 222.009 201.645 222.068 201.884C222.127 202.122 221.982 202.364 221.743 202.423L220.053 202.843C220.017 202.852 219.981 202.856 219.945 202.856Z" fill="#F4ECE1"/>
<path d="M221.634 203.801C221.434 203.801 221.252 203.665 221.202 203.462C221.142 203.223 221.288 202.982 221.527 202.922L223.216 202.503C223.455 202.443 223.697 202.589 223.756 202.828C223.815 203.067 223.67 203.308 223.431 203.368L221.742 203.787C221.705 203.796 221.67 203.801 221.634 203.801Z" fill="#F4ECE1"/>
<path d="M223.478 204.662C223.277 204.662 223.096 204.526 223.045 204.323C222.986 204.084 223.132 203.843 223.371 203.783L225.06 203.364C225.299 203.305 225.541 203.45 225.6 203.689C225.66 203.928 225.514 204.17 225.275 204.229L223.585 204.648C223.549 204.657 223.513 204.662 223.478 204.662Z" fill="#F4ECE1"/>
<path d="M225.475 205.411C225.275 205.411 225.093 205.275 225.043 205.072C224.983 204.834 225.129 204.592 225.368 204.533L227.058 204.113C227.296 204.053 227.538 204.199 227.597 204.438C227.657 204.677 227.511 204.919 227.272 204.978L225.582 205.398C225.546 205.406 225.51 205.411 225.475 205.411Z" fill="#F4ECE1"/>
<path d="M195.177 104.841C195.177 104.841 198.949 132.719 199.209 141.555C199.209 141.555 199.263 155.717 199.602 163.831C199.941 171.944 205.988 195.244 205.988 195.244L215.915 194.307L216.995 138.928L214.659 102.482L195.177 104.841Z" fill="#632627"/>
<path d="M207.333 190.961C207.14 190.961 206.967 190.826 206.925 190.629C206.889 190.462 203.387 173.85 202.204 166.165C201.044 158.624 202.136 141.958 202.198 141.035C201.482 134.837 198.531 110.962 198.501 110.721C198.473 110.492 198.636 110.283 198.865 110.255C199.097 110.227 199.302 110.39 199.331 110.619C199.361 110.861 202.325 134.837 203.033 140.978C203.036 141.003 203.037 141.029 203.035 141.054C203.023 141.227 201.858 158.411 203.031 166.038C204.21 173.699 207.707 190.289 207.743 190.456C207.791 190.682 207.646 190.904 207.42 190.952C207.391 190.957 207.362 190.961 207.333 190.961Z" fill="#915054"/>
<path d="M205.345 191.649C205.127 191.649 204.943 191.479 204.929 191.258C204.914 191.028 205.088 190.828 205.318 190.813L215.61 190.138C215.84 190.122 216.039 190.297 216.054 190.527C216.069 190.758 215.895 190.957 215.665 190.972L205.373 191.647C205.364 191.648 205.355 191.649 205.345 191.649Z" fill="#915054"/>
<path d="M178.261 94.03C178.261 94.03 176.474 103.659 177.867 109.57C177.867 109.57 205.178 112.032 215.03 108.271C215.03 108.271 214.903 98.6622 213.829 93.9961L178.261 94.03Z" fill="#632627"/>
<path d="M175.918 191.229L175.462 197.889L183.434 197.596L183.852 191.659L175.918 191.229Z" fill="#B5591D"/>
<path d="M185.982 208.876C185.982 208.946 185.98 209.015 185.979 209.081C185.972 209.393 185.958 209.674 185.945 209.914C185.914 210.442 185.875 210.768 185.875 210.768H168.327C168.327 210.768 168.24 210.089 168.306 209.081C168.422 207.288 169.017 204.456 171.44 202.584C174.758 200.019 173.477 200.554 174.158 199.385C174.234 199.255 174.832 197.269 174.895 197.132C175.465 195.918 175.991 195.344 179.135 195.344C183.305 195.344 183.672 197.367 184.117 198.433C184.301 198.875 184.552 199.804 184.811 200.91C184.916 201.354 185.021 201.827 185.124 202.309C185.382 203.518 185.622 204.781 185.785 205.788C185.959 206.868 185.995 207.978 185.982 208.876Z" fill="#D65900"/>
<path d="M185.982 208.876C185.982 208.946 185.98 209.015 185.978 209.082C185.971 209.393 185.958 209.674 185.945 209.914C185.089 209.313 184.479 208.521 184.122 207.551C183.036 204.593 184.706 201.044 184.776 200.894L184.811 200.91C184.916 201.354 185.021 201.828 185.124 202.309C184.729 203.517 184.273 205.547 184.906 207.265C185.136 207.891 185.496 208.429 185.982 208.876Z" fill="#AA3714"/>
<path d="M185.979 209.081C185.955 210.08 185.875 210.767 185.875 210.767H168.327C168.327 210.767 168.24 210.088 168.306 209.081H185.979Z" fill="#AA3714"/>
<path d="M179.714 200.814C179.673 200.814 179.63 200.809 179.588 200.798C177.356 200.22 175.538 200.709 175.52 200.715C175.253 200.788 174.978 200.632 174.904 200.366C174.83 200.099 174.987 199.824 175.253 199.75C175.337 199.726 177.351 199.185 179.838 199.829C180.106 199.898 180.266 200.172 180.197 200.439C180.14 200.665 179.937 200.814 179.714 200.814Z" fill="#F4ECE1"/>
<path d="M179.922 198.958C179.881 198.958 179.839 198.952 179.796 198.941C177.564 198.364 175.746 198.852 175.728 198.858C175.461 198.932 175.186 198.776 175.112 198.509C175.038 198.243 175.194 197.967 175.461 197.893C175.545 197.87 177.559 197.328 180.046 197.973C180.314 198.042 180.475 198.315 180.405 198.583C180.348 198.808 180.145 198.958 179.922 198.958Z" fill="#F4ECE1"/>
<path d="M178.964 202.4C178.922 202.4 178.88 202.395 178.838 202.384C176.62 201.81 174.787 202.296 174.768 202.301C174.502 202.373 174.227 202.217 174.154 201.95C174.081 201.684 174.236 201.409 174.503 201.335C174.587 201.312 176.601 200.771 179.089 201.415C179.356 201.485 179.517 201.757 179.448 202.024C179.39 202.251 179.187 202.4 178.964 202.4Z" fill="#F4ECE1"/>
<path d="M178.083 204.203C178.041 204.203 177.999 204.197 177.957 204.186C175.739 203.613 173.906 204.098 173.888 204.103C173.621 204.176 173.346 204.019 173.273 203.753C173.2 203.487 173.355 203.212 173.622 203.138C173.706 203.115 175.719 202.574 178.208 203.218C178.475 203.287 178.636 203.56 178.567 203.828C178.509 204.053 178.306 204.203 178.083 204.203Z" fill="#F4ECE1"/>
<path d="M196.123 108.787C196.123 108.787 192.476 150.662 191.16 159.643C189.529 170.772 184.87 193.072 184.87 193.072C184.87 193.072 178.755 193.493 174.887 192.59L177.575 106.535L196.123 108.787Z" fill="#632627"/>
<path d="M195.617 92.9004C195.612 93.004 195.608 93.1087 195.604 93.2158C195.485 96.0148 195.338 99.9775 195.261 104.021C195.255 104.245 195.252 104.469 195.247 104.692C195.225 105.982 195.211 107.275 195.207 108.534C195.206 108.712 195.35 108.857 195.528 108.859C195.529 108.859 195.529 108.859 195.53 108.859C195.709 108.86 195.855 108.715 195.855 108.536C195.859 107.319 195.873 106.073 195.894 104.828C195.897 104.609 195.901 104.39 195.906 104.171C195.982 100.102 196.13 96.104 196.249 93.2808C196.255 93.1519 196.26 93.0253 196.266 92.901H195.617V92.9004Z" fill="#915054"/>
<path d="M198.276 92.9004C198.268 93.0736 198.259 93.2503 198.251 93.4322C198.079 97.0939 197.813 102.277 197.638 103.501C197.599 103.784 197.483 103.969 197.274 104.086C196.938 104.272 196.422 104.261 195.905 104.17C195.686 104.132 195.466 104.079 195.26 104.021C194.883 103.914 194.554 103.789 194.355 103.703C194.191 103.631 194 103.706 193.928 103.87C193.856 104.034 193.931 104.226 194.095 104.297C194.198 104.342 194.662 104.539 195.246 104.692C195.45 104.746 195.669 104.793 195.893 104.828C196.097 104.859 196.305 104.88 196.51 104.881C196.902 104.885 197.279 104.824 197.588 104.653C197.973 104.439 198.213 104.072 198.28 103.593C198.461 102.33 198.727 97.1388 198.899 93.4679C198.909 93.2739 198.917 93.0863 198.926 92.901H198.276V92.9004Z" fill="#915054"/>
<path d="M183.758 190.96C183.734 190.96 183.71 190.958 183.686 190.954C183.458 190.915 183.306 190.698 183.345 190.471C183.404 190.131 189.244 156.327 190.106 146.383C190.969 136.427 192.573 110.594 192.589 110.335C192.603 110.104 192.8 109.928 193.032 109.943C193.263 109.958 193.438 110.156 193.424 110.387C193.408 110.646 191.803 136.489 190.939 146.456C190.073 156.434 184.227 190.273 184.169 190.614C184.134 190.816 183.957 190.96 183.758 190.96Z" fill="#915054"/>
<path d="M185.01 191.231C185.223 191.231 185.402 191.06 185.413 190.84C185.426 190.612 185.254 190.416 185.031 190.404L175.444 189.857C175.224 189.846 175.029 190.019 175.017 190.247C175.005 190.476 175.176 190.671 175.399 190.684L184.987 191.231C184.994 191.231 185.002 191.231 185.01 191.231Z" fill="#915054"/>
<path d="M216.258 68.1592C216.121 68.8096 215.982 69.6154 215.837 70.5478C215.787 70.8678 215.736 71.2016 215.684 71.5481C215.253 74.4501 214.761 78.2753 214.129 82.2311C214.072 82.5851 214.013 82.9431 213.953 83.2988C212.546 91.8114 215.25 91.9749 214.692 94.7324C212.545 105.345 180.94 101.819 177.868 97.9158C176.426 96.0849 177.685 78.7254 179.752 67.8841C179.821 67.5175 179.888 67.1566 179.956 66.8038C180.513 63.8534 180.948 61.4297 181.081 60.0029C181.697 53.3695 183.197 46.3736 184.461 43.4302C185.724 40.4867 196.999 39.0674 196.999 39.0674L208.772 41.0358C208.772 41.0358 214.558 43.5084 218.54 48.4681C222.521 53.4288 217.703 61.2657 216.258 68.1592Z" fill="#7F7134"/>
<path d="M212.66 43.2158C212.66 43.2158 214.001 51.4728 208.644 58.8832C203.288 66.2935 187.259 70.2724 179.811 67.5673C179.811 67.5673 178.297 69.9386 178.896 73.0368C178.896 73.0368 193.84 78.2601 207.056 67.8395C220.629 57.1375 216.702 46.4539 216.702 46.4539C216.039 45.1819 214.027 43.0022 212.66 43.2158Z" fill="#36251F"/>
<path d="M210.341 56.9884C211.282 57.3804 212.688 58.0745 213.861 59.0996C214.498 59.6556 214.553 60.6277 213.995 61.2626C212.753 62.6779 210.489 65.1747 208.778 66.5871C208.265 67.0101 207.518 66.9877 207.03 66.5359L204.325 64.0299C203.746 63.4929 203.759 62.5714 204.356 62.0528C205.581 60.9874 207.521 59.1819 208.749 57.4431C209.106 56.9366 209.769 56.7502 210.341 56.9884Z" fill="#5B413C"/>
<path d="M193.02 78.4396C193.048 78.447 193.077 78.4516 193.107 78.4534C199.831 78.7694 207.039 72.037 207.343 71.7504C207.502 71.5996 207.509 71.3492 207.359 71.1898C207.208 71.0303 206.958 71.0234 206.799 71.1737C206.727 71.2416 199.53 77.9613 193.144 77.6614C192.926 77.651 192.74 77.8202 192.73 78.039C192.72 78.2277 192.845 78.3918 193.02 78.4396Z" fill="#594E1E"/>
<path d="M204.174 47.6501C199.381 47.2225 195.386 41.232 195.218 40.977C195.102 40.8003 195.151 40.5632 195.328 40.4469C195.504 40.3307 195.742 40.3796 195.858 40.5557C195.897 40.615 199.819 46.4926 204.242 46.8875C204.244 46.8875 204.245 46.8875 204.247 46.8881C207.382 47.1649 208.9 44.0194 208.963 43.8853C209.053 43.6942 209.28 43.6119 209.472 43.7012C209.663 43.7909 209.746 44.0177 209.656 44.2094C209.584 44.3631 207.854 47.9747 204.18 47.6501C204.178 47.6507 204.175 47.6501 204.174 47.6501Z" fill="#594E1E"/>
<path d="M215.073 70.9908C215.054 70.9896 215.034 70.9862 215.014 70.981C214.847 70.9361 214.748 70.764 214.792 70.5965C215.793 66.8611 218.555 58.2898 218.582 58.2041C218.636 58.0389 218.814 57.9485 218.977 58.0015C219.143 58.0544 219.233 58.2317 219.18 58.3963C219.152 58.4821 216.395 67.0389 215.398 70.7588C215.359 70.9062 215.22 71.0011 215.073 70.9908Z" fill="#594E1E"/>
<path d="M213.93 24.9459C213.93 24.9459 218.587 26.1782 218.687 21.9472C218.687 21.9472 221.437 20.9595 220.93 17.9114C220.564 15.7116 218.27 16.0914 218.27 16.0914C218.27 16.0914 220.402 12.0665 217.101 10.9275C217.101 10.9275 218.602 7.7095 216.385 6.45881C214.168 5.20811 211.694 7.75785 211.694 7.75785C211.694 7.75785 211.718 4.96062 209.152 5.04177C206.585 5.12235 205.832 8.17571 205.832 8.17571C205.832 8.17571 204.075 5.51201 201.911 6.51233C199.747 7.51266 199.736 10.6316 199.736 10.6316C199.736 10.6316 196.594 9.70843 194.358 12.1091C192.122 14.5092 194.495 16.4546 194.495 16.4546C194.495 16.4546 191.58 17.0071 191.094 18.8501C190.608 20.6936 193.974 21.5086 193.974 21.5086C193.974 21.5086 192.473 24.379 194.781 25.5416C197.089 26.7036 199.652 25.6095 199.652 25.6095L213.93 24.9459Z" fill="#36251F"/>
<path d="M209.141 38.571L208.705 41.782C208.312 42.0381 207.92 42.2534 207.531 42.4336C201.851 45.0725 196.776 40.1624 196.776 40.1624L197.503 32.9609L207.847 37.4331L209.141 38.571Z" fill="#B5591D"/>
<path d="M209.14 38.5738L208.705 41.7849C208.311 42.041 207.919 42.2563 207.531 42.4364C203.337 39.9529 200.774 34.5322 200.774 34.5322L207.846 37.4359L209.14 38.5738Z" fill="#36251F"/>
<path d="M214.27 27.1039C214.27 27.1039 216.253 25.3168 216.945 27.4671C217.637 29.6174 216.339 33.6038 213.829 32.5821L214.27 27.1039Z" fill="#8F2D00"/>
<path d="M215.276 33.0413C215.276 33.0413 214.281 39.2931 207.811 38.4004C201.381 37.5152 197.698 33.2307 197.501 32.9659C197.498 32.9613 197.495 32.959 197.495 32.959L197.603 31.6421L198.159 24.805L198.456 21.1508C198.456 21.1508 198.521 14.507 204.891 14.1588C209.545 13.9038 213.695 15.2345 215.521 17.8925C215.579 17.9782 215.636 18.0657 215.689 18.1544C216.252 19.0776 216.544 20.1504 216.497 21.3626L215.813 27.9061L215.645 29.5097L215.276 33.0413Z" fill="#B5591D"/>
<path d="M206.438 29.1475C206.438 29.1475 206.62 31.9994 208.688 32.9514C211.041 34.0351 212.339 31.0773 212.339 31.0773L206.438 29.1475Z" fill="#F4ECE1"/>
<path d="M209.356 34.1218C209.447 34.1189 209.505 34.1103 209.515 34.1091C209.629 34.0913 209.706 33.9848 209.688 33.8714C209.67 33.758 209.565 33.6803 209.451 33.6987C209.417 33.7039 208.677 33.8064 208.229 33.1905C208.162 33.0973 208.032 33.0766 207.939 33.1445C207.847 33.2118 207.825 33.3419 207.893 33.4346C208.356 34.0723 209.047 34.1316 209.356 34.1218Z" fill="#8F2D00"/>
<path d="M207.54 24.9865C207.455 25.6087 207.105 26.0749 206.756 26.0271C206.408 25.9799 206.195 25.4372 206.279 24.815C206.364 24.1928 206.714 23.7266 207.063 23.7738C207.41 23.8216 207.624 24.3643 207.54 24.9865Z" fill="#36251F"/>
<path d="M213.696 25.8297C213.611 26.4519 213.261 26.9181 212.913 26.8709C212.564 26.8237 212.351 26.2809 212.435 25.6587C212.52 25.0366 212.871 24.5704 213.219 24.6175C213.566 24.6647 213.781 25.2075 213.696 25.8297Z" fill="#36251F"/>
<path d="M210.099 28.5927C211.616 28.7987 212.272 27.8088 212.299 27.7667C212.341 27.7011 212.351 27.6205 212.327 27.5463C211.578 25.2619 210.823 22.9159 210.815 22.8923C210.772 22.7565 210.627 22.6816 210.49 22.7254C210.354 22.7691 210.28 22.9147 210.323 23.0506C210.331 23.0736 211.057 25.3327 211.793 27.5762C211.617 27.7719 211.111 28.2088 210.168 28.081C210.026 28.0614 209.896 28.161 209.877 28.302C209.858 28.4436 209.958 28.5737 210.099 28.5927Z" fill="#36251F"/>
<path d="M206.626 17.0372C205.918 16.9699 205.231 17.3889 205.023 18.0698C204.875 18.5533 204.48 19.0983 203.554 19.5243C201.391 20.5183 201.512 22.3042 201.771 23.8076C202.03 25.3115 198.785 27.5827 197.508 23.7604C196.23 19.9381 198.881 12.6094 204.239 12.9709C209.596 13.3324 216.379 16.0081 216.64 18.4894C216.901 20.9706 216.258 22.9771 216.258 22.9771C216.258 22.9771 215.499 22.1281 215.772 20.6288C216.045 19.13 215.08 18.3933 213.357 17.9184C212.182 17.5961 208.714 17.2341 206.626 17.0372Z" fill="#36251F"/>
<g opacity="0.8">
<path d="M215.646 29.5072C215.483 29.5014 215.313 29.4865 215.14 29.4629C213.99 29.3069 213.107 28.8125 213.169 28.3595C213.231 27.9065 214.214 27.666 215.364 27.8219C215.52 27.8432 215.67 27.8709 215.814 27.9037L215.646 29.5072Z" fill="#8F2D00"/>
</g>
<path d="M207.263 27.5571C207.202 28.0101 206.219 28.2507 205.068 28.0947C203.917 27.9387 203.034 27.4443 203.096 26.9913C203.157 26.5384 204.14 26.2978 205.292 26.4538C206.442 26.6103 207.325 27.1042 207.263 27.5571Z" fill="#8F2D00"/>
<path d="M204.557 21.3822C204.786 22.1541 205.592 22.6007 206.367 22.3849C206.82 22.2588 207.35 22.1466 207.898 22.1028C208.675 22.0413 209.245 21.3454 209.142 20.5724C209.142 20.5724 206.166 19.8875 204.557 21.3822Z" fill="#36251F"/>
<path d="M216.259 22.9756C215.832 23.6582 214.937 23.8741 214.246 23.4591C213.844 23.2168 213.363 22.967 212.846 22.7793C212.113 22.5123 211.75 21.6904 212.056 20.9727C212.056 20.9727 215.106 21.1062 216.259 22.9756Z" fill="#36251F"/>
<path d="M199.871 30.709C199.833 30.774 198.756 32.5623 197.502 32.9589C197.499 32.9548 197.497 32.952 197.497 32.952L197.605 31.6345C197.605 31.6345 198.649 31.5988 199.871 30.709Z" fill="#36251F"/>
<path d="M199.316 26.244C199.316 26.244 197.282 22.5644 195.103 24.9432C193.308 26.903 195.381 32.928 198.617 31.3993L199.316 26.244Z" fill="#B5591D"/>
<path d="M198.415 30.3351C198.425 30.3362 198.434 30.3368 198.444 30.3374C198.586 30.3408 198.705 30.2286 198.708 30.0858C198.784 27.2017 196.525 25.8929 196.429 25.8382C196.305 25.768 196.147 25.8117 196.077 25.936C196.007 26.0604 196.051 26.2175 196.175 26.2877C196.26 26.3361 198.259 27.5056 198.192 30.072C198.189 30.2056 198.286 30.3178 198.415 30.3351Z" fill="#36251F"/>
<path d="M196.237 28.4629C196.294 28.4704 196.353 28.4595 196.406 28.4278C196.653 28.2776 197.388 27.9259 197.814 28.0992C197.947 28.1527 198.098 28.0888 198.151 27.957C198.205 27.8252 198.141 27.6744 198.009 27.6203C197.267 27.3193 196.251 27.9173 196.137 27.9869C196.016 28.0612 195.977 28.22 196.051 28.342C196.093 28.4105 196.163 28.4531 196.237 28.4629Z" fill="#36251F"/>
<path d="M200.884 108.51L172.752 117.587C172.443 117.688 172.111 117.518 172.011 117.208L165.639 97.4606C165.539 97.1509 165.709 96.8194 166.018 96.7192L194.15 87.642C194.459 87.5419 194.791 87.7117 194.891 88.0219L201.263 107.769C201.363 108.079 201.193 108.41 200.884 108.51Z" fill="#FF9918"/>
<path d="M191.309 104.986L188.088 95.0049C188.01 94.7625 188.143 94.5035 188.385 94.4253L190.789 93.6494C191.031 93.5711 191.29 93.7041 191.369 93.9464L194.589 103.927C194.668 104.169 194.535 104.429 194.292 104.507L191.888 105.283C191.647 105.36 191.387 105.227 191.309 104.986Z" fill="#F4ECE1"/>
<path d="M200.884 108.511L172.753 117.588C172.443 117.688 172.111 117.518 172.011 117.208L171.251 114.852L200.503 105.413L201.263 107.769C201.363 108.079 201.193 108.411 200.884 108.511Z" fill="#DD6A18"/>
<path d="M187.76 60.115L187.733 60.195L186.852 62.7148L186.259 64.4381L185.972 65.2726L185.649 66.2258L185.106 67.8333L184.264 70.3946C183.706 72.1011 183.18 73.8088 182.671 75.5044C182.421 76.3522 182.176 77.2 181.952 78.0409C181.719 78.883 181.501 79.7175 181.302 80.5429C181.1 81.3682 180.929 82.1775 180.785 82.9574L180.684 83.5076C180.653 83.663 180.629 83.823 180.605 83.983C180.556 84.3042 180.525 84.6363 180.503 84.9765C180.481 85.3166 180.472 85.6654 180.474 86.02C180.478 86.3745 180.492 86.7365 180.513 87.1043C180.558 87.8387 180.652 88.5944 180.784 89.3588C181.038 90.8921 181.453 92.4634 181.965 94.0289C182.226 94.8099 182.504 95.5944 182.813 96.3645C182.966 96.7513 183.123 97.1358 183.286 97.5122L183.529 98.0711L183.65 98.3387L183.708 98.4653L183.734 98.524C183.742 98.5419 183.751 98.5609 183.746 98.5574C184.889 100.351 184.361 102.731 182.569 103.874C180.775 105.018 178.395 104.49 177.253 102.696L176.988 102.325L176.757 101.998C176.608 101.782 176.462 101.569 176.321 101.354C176.039 100.922 175.768 100.491 175.504 100.056C174.984 99.179 174.486 98.2909 174.033 97.3735C173.116 95.5421 172.326 93.6157 171.71 91.5655C171.107 89.5153 170.663 87.3345 170.57 85.0064C170.546 84.4251 170.54 83.8363 170.564 83.2377C170.576 82.939 170.591 82.6397 170.616 82.3363L170.633 82.1107L170.655 81.911L170.699 81.5185C170.82 80.4721 170.966 79.466 171.136 78.4864C171.305 77.5051 171.486 76.5399 171.685 75.5896C171.885 74.6365 172.098 73.6995 172.318 72.7642C172.756 70.8976 173.24 69.0587 173.746 67.2353C173.996 66.3219 174.262 65.4165 174.528 64.5117C174.562 64.3995 174.595 64.2873 174.628 64.175C174.864 63.3836 175.103 62.594 175.351 61.8072C175.366 61.7582 175.381 61.7105 175.396 61.6616C175.664 60.8115 175.931 59.9625 176.214 59.117C176.363 58.6692 176.51 58.2214 176.664 57.7736L177.14 56.4101L177.142 56.4055C178.166 53.473 181.375 51.9276 184.308 52.9521C187.24 53.9749 188.786 57.1831 187.76 60.115Z" fill="#B5591D"/>
<path d="M186.259 64.4355L185.972 65.27L185.649 66.2232C183.857 66.4678 180.449 66.3429 174.628 64.1707C174.863 63.3793 175.102 62.5896 175.35 61.8028C175.366 61.7539 175.38 61.7061 175.396 61.6572L186.259 64.4355Z" fill="#8F2D00"/>
<path d="M180.821 81.2777C180.691 81.2097 178.778 80.2221 176.47 79.3271C176.259 79.2454 176.033 79.4082 176.045 79.6344C176.052 79.757 176.13 79.8641 176.245 79.9084C178.566 80.8103 180.504 81.8106 180.536 81.8267C180.687 81.9056 180.874 81.8463 180.953 81.6944C181.033 81.5436 180.973 81.3565 180.821 81.2777Z" fill="#8F2D00"/>
<path d="M179.646 81.238C179.625 81.2138 179.608 81.1862 179.595 81.1551C179.087 79.943 177.418 78.4603 177.402 78.4459C177.273 78.3325 177.261 78.1374 177.375 78.0091C177.487 77.8807 177.683 77.8686 177.811 77.982C177.885 78.0465 179.604 79.5746 180.165 80.9168C180.232 81.0745 180.157 81.2558 179.999 81.322C179.873 81.3744 179.731 81.337 179.646 81.238Z" fill="#8F2D00"/>
<path d="M183.126 97.1387C183.316 97.4535 184.022 99.1733 184.105 99.2821C185.55 101.169 188.369 100.798 189.296 102.019C189.296 102.019 196.36 107.972 194.619 108.668C193.659 109.051 192.243 108.261 191.165 107.475C191.203 107.578 191.241 107.67 191.279 107.758C192.072 109.601 194.965 111.706 193.874 112.942C192.785 114.181 191.051 112.274 191.051 112.274C191.051 112.274 190.339 113.75 188.095 112.773C188.095 112.773 187.185 113.935 185.749 113.291C185.749 113.291 184.402 114.503 183.06 113.512C181.921 112.67 179.762 108.701 177.147 102.002C178.388 99.8035 179.942 98.2846 183.126 97.1387Z" fill="#B5591D"/>
<path d="M185.822 42.0919C185.822 42.0919 178.756 45.1384 174.536 61.4378C174.536 61.4378 180.053 65.5743 187.134 65.3781C187.134 65.3781 191.618 56.1172 192.729 50.7438C193.841 45.3709 191.615 39.7621 185.822 42.0919Z" fill="#7F7134"/>
<path d="M188.358 64.4093C188.338 64.407 188.318 64.403 188.298 64.3972C188.132 64.346 188.04 64.1699 188.091 64.0047C189.235 60.3107 192.327 51.8528 192.358 51.7677C192.417 51.6048 192.599 51.5213 192.76 51.5806C192.923 51.6399 193.006 51.82 192.947 51.9829C192.916 52.0675 189.83 60.511 188.691 64.19C188.646 64.3362 188.504 64.4249 188.358 64.4093Z" fill="#594E1E"/>
</svg>
