<svg width="616" height="701" viewBox="0 0 616 701" fill="none" xmlns="http://www.w3.org/2000/svg">
<path d="M343.852 286.27C349.554 282.89 361.013 256.301 368.961 254.539C374.208 253.375 374.34 261.488 382.301 267.623C390.189 273.702 396.793 274.951 408.65 274.396C407.441 277.901 396.558 285.832 381.513 290.321C366.47 294.81 349.182 290.376 343.852 286.27Z" fill="#8FA1D7"/>
<path opacity="0.5" d="M343.852 286.27C349.554 282.89 361.013 256.301 368.961 254.539C374.208 253.375 374.34 261.488 382.301 267.623C390.189 273.702 396.793 274.951 408.65 274.396C407.441 277.901 396.558 285.832 381.513 290.321C366.47 294.81 349.182 290.376 343.852 286.27Z" fill="black"/>
<path opacity="0.15" d="M382.015 270.152C376.811 264.872 374.169 259.961 373.994 257.394C375.82 260.094 377.823 264.166 382.296 267.613C390.185 273.694 396.79 274.943 408.65 274.387C407.441 277.893 396.556 285.826 381.509 290.317C367.78 294.412 352.214 291.079 345.536 287.344L343.84 286.266C351.582 284.252 366.083 281.759 377.05 278.356C388.015 274.949 385.138 273.319 382.015 270.152Z" fill="black"/>
<path opacity="0.3" d="M345.115 285.638C351.177 279.711 361.742 256.289 369.226 254.632C371.548 254.118 372.879 255.401 374.317 257.525C371.071 254.631 368.174 255.768 364.04 260.604C359.908 265.44 353.092 279.938 345.115 285.638Z" fill="#8FA1D7"/>
<path d="M192.444 536.496C174.89 514.709 159.825 481.997 160.844 443.479L168.298 440.493L235.385 413.623C235.385 413.623 221.204 447.998 217.103 478.108C211.944 516.003 218.445 529.492 218.463 543.957C218.467 547.73 217.331 549.659 215.407 550.038C215.403 550.039 215.399 550.039 215.394 550.041C215.284 550.062 215.181 550.094 215.068 550.105C208.495 551.532 202.485 548.958 192.444 536.496Z" fill="#8FA1D7"/>
<path opacity="0.5" d="M192.444 536.496C174.89 514.709 159.825 481.997 160.844 443.479L168.298 440.493L235.385 413.623C235.385 413.623 221.204 447.998 217.103 478.108C211.944 516.003 218.445 529.492 218.463 543.957C218.467 547.73 217.331 549.659 215.407 550.038C215.403 550.039 215.399 550.039 215.394 550.041C215.284 550.062 215.181 550.094 215.068 550.105C208.495 551.532 202.485 548.958 192.444 536.496Z" fill="black"/>
<path d="M168.289 440.454C165.073 451.282 169.387 491.193 188.337 522.864C202.443 546.436 218.477 558.125 218.458 543.927C218.44 529.46 211.937 515.969 217.099 478.072C221.199 447.959 235.382 413.581 235.382 413.581L168.289 440.454Z" fill="#E0E0E0"/>
<path opacity="0.1" d="M180.62 474.327C175.054 482.296 174.829 490.942 176.662 497.338C167.849 472.525 166.081 448.473 168.467 440.439L235.542 413.573C235.542 413.573 221.363 447.942 217.264 478.046C214.008 501.961 215.396 516.15 216.867 527.003C210.712 503.466 210.571 487.483 209.419 471.78C208.264 456.077 186.2 466.338 180.62 474.327Z" fill="black"/>
<path opacity="0.3" d="M191.917 536.643C178.486 519.99 166.529 496.901 162.203 469.705C166.109 487.069 173.215 507.822 185.942 526.304C198.688 544.812 205.495 550.414 214.393 550.149C207.862 551.564 201.892 549.009 191.917 536.643Z" fill="#8FA1D7"/>
<path d="M169.191 325.702C160.056 294.679 177.535 262.432 190.41 252.345C201.822 243.405 199.717 267.123 217.918 280.51C237.208 294.697 249.506 297.358 267.245 300.348C267.245 300.348 207.232 332.616 169.191 325.702Z" fill="#8FA1D7"/>
<path opacity="0.5" d="M169.191 325.702C160.056 294.679 177.535 262.432 190.41 252.345C201.822 243.405 199.717 267.123 217.918 280.51C237.208 294.697 249.506 297.358 267.245 300.348C267.245 300.348 207.232 332.616 169.191 325.702Z" fill="black"/>
<path opacity="0.15" d="M215.226 307.203C231.12 301.207 241.181 296.554 223.374 284.198L223.374 284.179C239.631 295.011 251.236 297.47 267.243 300.169L267.246 300.168C267.243 300.17 237.494 316.165 206.573 323.253C205.885 323.411 205.198 323.564 204.51 323.713C202.445 324.158 200.38 324.561 198.32 324.915C197.632 325.033 196.947 325.146 196.261 325.252C192.835 325.786 189.435 326.175 186.098 326.386C185.43 326.429 184.765 326.463 184.103 326.492C182.78 326.547 181.467 326.573 180.168 326.567C179.519 326.563 178.874 326.553 178.231 326.534C176.948 326.496 175.678 326.425 174.427 326.318C172.551 326.159 170.714 325.919 168.927 325.594C178.352 319.077 198.532 313.501 215.226 307.203Z" fill="black"/>
<path opacity="0.3" d="M190.705 252.421C192.858 250.735 194.559 250.17 196.017 250.459C189.19 251.426 175.955 275.749 173.469 286.953C171.014 298.019 169.966 314.367 174.751 326.969C172.907 326.808 171.102 326.573 169.344 326.254C160.147 295.03 177.744 262.574 190.705 252.421Z" fill="#8FA1D7"/>
<path d="M104.924 446.637C95.1512 454.004 82.7547 453.514 68.6586 452.614C49.2038 451.37 17.1672 438.942 8.33521 427.014C0.604547 416.574 12.8951 409.839 33.8093 398.105C54.1624 386.686 78.0929 372.889 101.391 356.295C124.69 339.7 163.403 324.259 219.253 308.767C270.08 294.669 400.575 283.433 416.151 271.996C431.727 260.559 424.249 241.903 425.533 210.624C426.817 179.345 437.026 157.965 447.709 150.684C458.392 143.403 455.105 164.733 458.31 174.027C461.516 183.319 471.178 185.472 470.03 195.176C468.882 204.879 462.298 222.623 466.43 225.597C470.562 228.572 476.676 217.788 477.973 227.529C479.271 237.271 475.318 246.489 477.374 253.298C479.43 260.108 495.665 274.215 508.47 280.36C521.274 286.504 537.925 282.475 536.976 290.489C536.028 298.502 518.83 304.933 498.634 304.659C478.437 304.386 452.994 294.49 442.705 296.528C432.417 298.566 338.731 369.189 305.475 392.658C272.089 416.219 224.383 440.407 196.803 451.453C152.01 469.395 121.84 465.85 109.49 464.046C98.9611 462.51 99.8041 455.391 104.924 446.637Z" fill="#8FA1D7"/>
<path opacity="0.3" d="M104.924 446.637C95.1512 454.004 82.7547 453.514 68.6586 452.614C49.2038 451.37 17.1672 438.942 8.33521 427.014C0.604547 416.574 12.8951 409.839 33.8093 398.105C54.1624 386.686 78.0929 372.889 101.391 356.295C124.69 339.7 163.403 324.259 219.253 308.767C270.08 294.669 400.575 283.433 416.151 271.996C431.727 260.559 424.249 241.903 425.533 210.624C426.817 179.345 437.026 157.965 447.709 150.684C458.392 143.403 455.105 164.733 458.31 174.027C461.516 183.319 471.178 185.472 470.03 195.176C468.882 204.879 462.298 222.623 466.43 225.597C470.562 228.572 476.676 217.788 477.973 227.529C479.271 237.271 475.318 246.489 477.374 253.298C479.43 260.108 495.665 274.215 508.47 280.36C521.274 286.504 537.925 282.475 536.976 290.489C536.028 298.502 518.83 304.933 498.634 304.659C478.437 304.386 452.994 294.49 442.705 296.528C432.417 298.566 338.731 369.189 305.475 392.658C272.089 416.219 224.383 440.407 196.803 451.453C152.01 469.395 121.84 465.85 109.49 464.046C98.9611 462.51 99.8041 455.391 104.924 446.637Z" fill="black"/>
<path opacity="0.15" d="M328.784 318.235C365.956 304.293 418.198 285.536 434.92 281.446C451.643 277.355 458.433 285.596 467.276 278.369C476.119 271.141 454.936 271.163 469.658 245.479C474.398 237.21 476.721 230.624 477.706 225.485L477.706 225.489C479.001 235.214 475.055 244.415 477.108 251.212C479.16 258.009 495.366 272.092 508.148 278.225C520.93 284.359 537.551 280.338 536.604 288.337C535.658 296.336 518.491 302.755 498.33 302.482C478.171 302.21 452.771 292.331 442.5 294.365C436.687 295.517 404.204 318.603 371.084 342.67L328.784 318.235Z" fill="black"/>
<path opacity="0.5" d="M426.569 208.571C427.857 177.198 438.1 155.755 448.818 148.452C450.536 147.283 451.889 146.856 452.971 146.992C442.979 149.069 435.212 172.152 432.437 184.14C428.612 200.67 428.907 215.483 430.794 238.533C432.351 257.556 423.455 267.226 417.157 270.126C432.785 258.656 425.282 239.944 426.569 208.571Z" fill="#8FA1D7"/>
<path opacity="0.15" d="M478.176 224.811C479.462 234.458 475.543 243.586 477.582 250.328C479.62 257.071 495.716 271.041 508.411 277.126C521.107 283.21 537.615 279.221 536.674 287.157C534.17 280.699 523.867 288.366 504.624 281.055C485.423 273.759 471.793 258.918 471.997 252.425C472.133 248.2 478.446 237.392 478.176 224.811Z" fill="black"/>
<path opacity="0.3" d="M6.16252 424.184C4.6867 416.166 16.2069 409.818 33.8708 399.907C54.2481 388.475 78.207 374.663 101.533 358.05C124.859 341.437 163.618 325.978 219.535 310.469C245.105 303.376 290.814 297.007 331.947 290.973C272.039 300.753 224.486 311.285 156.77 336.55C113.419 352.725 81.3623 381.913 49.8831 396.472C18.4028 411.031 5.76643 418.361 6.16252 424.184Z" fill="#8FA1D7"/>
<path d="M196.632 452.316C151.839 470.258 121.668 466.713 109.317 464.91C98.7869 463.372 99.6311 456.254 104.751 447.5C94.9781 454.867 82.5803 454.378 68.4848 453.477C52.5438 452.458 28.1621 443.929 15.0136 434.32C10.8862 430.805 27.842 420.224 59.5014 416.412C91.2154 412.595 110.688 414.619 136.55 396.109C162.413 377.599 169.242 377.731 172.017 384.902C174.792 392.072 180.49 394.097 198.577 383.955C216.664 373.814 259.56 338.688 324.869 322.243C381.669 307.941 408.858 300.916 442.542 297.388C432.253 299.426 338.566 370.051 305.309 393.52C271.919 417.08 224.212 441.268 196.632 452.316Z" fill="#FAFAFA"/>
<path d="M304.844 392.35C271.343 415.984 223.475 440.247 195.801 451.327C194.936 451.674 194.087 451.998 193.232 452.329C208.246 444.666 285.543 404.17 307.522 371.837C331.893 335.984 298.731 328.606 253.359 348.649C272.891 338.241 296.645 327.858 324.471 320.854C381.463 306.508 408.744 299.461 442.542 295.922C432.219 297.967 338.215 368.809 304.844 392.35Z" fill="#F0F0F0"/>
<g opacity="0.4">
<path d="M184.249 346.326C186.455 347.638 188.533 349.135 190.45 350.81C192.364 352.486 194.158 354.304 195.698 356.318C197.27 358.297 198.638 360.456 199.688 362.749C200.213 363.896 200.66 365.077 201.011 366.287C201.363 367.497 201.621 368.735 201.771 369.996C201.776 368.729 201.628 367.461 201.355 366.21C201.083 364.961 200.688 363.729 200.199 362.538C199.221 360.151 197.839 357.933 196.265 355.88C194.645 353.862 192.822 352 190.8 350.387C188.782 348.778 186.592 347.374 184.249 346.326Z" fill="#8FA1D7"/>
<path d="M170.495 347.971C173.469 349.123 176.297 350.631 178.896 352.47C181.49 354.31 183.897 356.431 185.953 358.86C188.055 361.242 189.829 363.918 191.204 366.776C191.893 368.205 192.472 369.685 192.933 371.203C193.394 372.721 193.736 374.277 193.948 375.857C193.927 374.265 193.719 372.671 193.357 371.104C192.996 369.536 192.479 367.994 191.839 366.505C190.557 363.52 188.742 360.767 186.634 358.282C184.471 355.842 182.008 353.658 179.275 351.902C176.546 350.147 173.582 348.773 170.495 347.971Z" fill="#8FA1D7"/>
<path d="M156.74 349.61C160.483 350.605 164.061 352.123 167.34 354.126C170.615 356.131 173.638 358.555 176.206 361.399C178.838 364.186 181.017 367.38 182.716 370.801C183.566 372.513 184.282 374.291 184.851 376.117C185.422 377.942 185.849 379.816 186.123 381.717C186.075 379.799 185.809 377.879 185.358 375.994C184.905 374.108 184.268 372.253 183.477 370.467C181.893 366.886 179.641 363.596 177 360.678C174.295 357.817 171.19 355.309 167.747 353.411C164.309 351.511 160.57 350.166 156.74 349.61Z" fill="#8FA1D7"/>
</g>
<path d="M152.786 349.72C163.726 355.06 182.428 372.309 184.812 385.489C184.812 385.489 186.079 371.822 174.37 360.853C162.661 349.884 152.786 349.72 152.786 349.72Z" fill="#37474F"/>
<path d="M165.565 347.643C175.071 352.795 191.002 368.794 192.605 380.562C192.605 380.562 194.142 368.453 184.173 358.285C174.204 348.117 165.565 347.643 165.565 347.643Z" fill="#37474F"/>
<path d="M178.347 345.562C186.417 350.527 199.58 365.28 200.402 375.634C200.402 375.634 202.208 365.084 193.979 355.716C185.752 346.348 178.347 345.562 178.347 345.562Z" fill="#37474F"/>
<path d="M104.357 449.168C108.494 442.498 117.239 433.054 127.137 424.029C138.395 413.763 151.312 407.906 159.269 392.294C148.633 403.559 129.754 409.738 107.152 425.568C84.4665 441.455 80.3117 456.918 92.1532 454.578C99.2298 453.368 104.357 449.168 104.357 449.168Z" fill="#37474F"/>
<path d="M108.095 426.335C125.5 414.145 140.677 407.674 151.599 400.2C151.543 402.047 150.781 403.858 150.071 404.376C148.885 405.244 148.321 405.122 145.207 404.423C145.008 407.085 144.937 408.978 143.389 410.229C142.406 411.024 139.97 411.616 136.074 410.569C136.187 413.157 135.938 416.144 133.898 417.686C132.464 418.768 128.414 418.188 125.929 417.366C126.171 420.356 125.123 424.289 123.571 425.406C121.794 426.684 117.264 426.196 114.514 425.243C115.16 428.495 114.429 433.201 112.59 434.801C110.718 436.427 105.296 436.14 102.272 434.708C103.491 437.967 103.872 442.821 102.156 444.618C99.9048 446.971 94.9026 446.415 91.8496 445.053C92.6795 446.377 93.315 448.012 93.719 449.511C94.123 451.01 94.5704 452.949 93.6403 454.155C93.0446 454.926 92.0155 455.367 90.8736 455.569C81.9371 455.517 86.9921 441.114 108.095 426.335Z" fill="#E0E0E0"/>
<path d="M131.976 373.818C139.83 377.093 139.086 383.377 130.735 384.296C128.199 384.575 125.587 384.196 123.202 383.202C115.348 379.927 116.092 373.643 124.443 372.724C126.978 372.443 129.591 372.824 131.976 373.818Z" fill="#263238"/>
<path d="M120.587 379.305C121.406 379.935 122.563 379.8 123.173 379.002C123.783 378.205 123.614 377.047 122.796 376.417C121.978 375.786 120.82 375.921 120.21 376.719C119.6 377.517 119.769 378.674 120.587 379.305Z" fill="#455A64"/>
<path d="M232.862 370.072C242.47 360.979 292.14 330.397 330.169 335.251C363.41 339.495 390.711 354.269 396.776 362.933C400.025 367.575 396.451 366.115 387.376 362.43C354.844 350.619 323.887 350.12 298.25 356.738C281.802 360.983 254.783 373.166 237.031 381.63C235.535 382.306 235.199 382.624 234.31 382.95C234.301 382.955 234.105 383.03 234.095 383.036C234.097 383.033 234.101 383.031 234.101 383.031C225.957 386.001 224.625 377.868 232.862 370.072Z" fill="#E0E0E0"/>
<path opacity="0.1" d="M232.862 370.072C242.47 360.979 292.14 330.397 330.169 335.251C363.41 339.495 390.711 354.269 396.776 362.933C400.025 367.575 396.451 366.115 387.376 362.43C354.844 350.619 323.887 350.12 298.25 356.738C281.802 360.983 254.783 373.166 237.031 381.63C235.535 382.306 235.199 382.624 234.31 382.95C234.301 382.955 234.105 383.03 234.095 383.036C234.097 383.033 234.101 383.031 234.101 383.031C225.957 386.001 224.625 377.868 232.862 370.072Z" fill="black"/>
<path d="M238.709 380.584C250.761 372.438 260.121 365.597 283.365 355.946C306.608 346.296 327.453 344.002 351.186 350.076C351.527 350.164 351.87 350.252 352.213 350.343C385.151 359.009 402.84 371.598 396.776 362.933C390.712 354.269 363.41 339.495 330.169 335.251C292.141 330.396 242.47 360.979 232.862 370.072C223.255 379.163 226.655 388.729 238.709 380.584Z" fill="#8FA1D7"/>
<path opacity="0.4" d="M238.709 380.584C250.761 372.438 260.121 365.597 283.365 355.946C306.608 346.296 327.453 344.002 351.186 350.076C351.527 350.164 351.87 350.252 352.213 350.343C385.151 359.009 402.84 371.598 396.776 362.933C390.712 354.269 363.41 339.495 330.169 335.251C292.141 330.396 242.47 360.979 232.862 370.072C223.255 379.163 226.655 388.729 238.709 380.584Z" fill="black"/>
<path opacity="0.3" d="M330.328 335.103C358.995 338.762 383.223 350.259 393.203 358.901C393.45 359.116 393.695 359.333 393.924 359.542C378.827 349.317 360.98 342.506 332.943 338.623C303.645 334.567 271.049 347.784 251.257 357.416C271.523 345.635 303.763 331.713 330.328 335.103Z" fill="#8FA1D7"/>
<path d="M55.4323 415.866C53.2135 416.754 53.001 418.54 54.9599 419.855C56.9198 421.168 60.1725 421.567 62.2258 420.744C64.1451 419.974 64.376 418.057 62.7023 416.762C60.9112 415.376 57.6541 414.976 55.4323 415.866Z" fill="#455A64"/>
<path opacity="0.3" d="M52.9695 415.668C55.6755 413.338 61.1728 412.882 63.9968 415.96C63.9968 415.96 62.5187 412.378 58.2924 412.432C54.12 412.483 52.9695 415.668 52.9695 415.668Z" fill="#8FA1D7"/>
<path d="M274.059 398.156C280.922 397.252 301.388 387.713 310.679 382.316C313.221 384.723 320.097 388.203 326.257 388.954C329.43 389.339 332.383 390.408 332.141 392.277C332.071 392.826 332.152 394.629 330.62 396.751C329.59 398.179 326.588 401.022 320.064 403.258C308.86 407.094 301.479 406.763 293.653 405.601C287.008 404.613 278.606 400.87 274.059 398.156Z" fill="#8FA1D7"/>
<path opacity="0.5" d="M274.059 398.156C280.922 397.252 301.388 387.713 310.679 382.316C313.221 384.723 320.097 388.203 326.257 388.954C329.43 389.339 332.383 390.408 332.141 392.277C332.071 392.826 332.152 394.629 330.62 396.751C329.59 398.179 326.588 401.022 320.064 403.258C308.86 407.094 301.479 406.763 293.653 405.601C287.008 404.613 278.606 400.87 274.059 398.156Z" fill="black"/>
<path d="M310.687 382.321C301.395 387.719 280.924 397.26 274.06 398.164C274.06 398.164 297.869 408.677 320.483 399.81C337.786 393.026 332.429 389.71 326.269 388.96C320.107 388.209 313.23 384.729 310.687 382.321Z" fill="#8FA1D7"/>
<path opacity="0.3" d="M310.687 382.321C301.395 387.719 280.924 397.26 274.06 398.164C274.06 398.164 297.869 408.677 320.483 399.81C337.786 393.026 332.429 389.71 326.269 388.96C320.107 388.209 313.23 384.729 310.687 382.321Z" fill="black"/>
<path opacity="0.1" d="M310.651 382.374C308.377 385.106 299.226 390.107 292.679 394.304C286.133 398.502 290.681 400.739 298.522 401.473C306.358 402.208 318.238 400.685 328.425 396.086C327.534 396.626 326.456 397.201 325.182 397.808C325.124 397.834 325.07 397.861 325.011 397.889C324.41 398.172 323.76 398.464 323.068 398.762C322.952 398.813 322.831 398.863 322.713 398.912C321.999 399.216 321.252 399.524 320.439 399.842C317.615 400.95 314.772 401.753 311.959 402.315C305.63 403.576 299.454 403.6 293.986 403.054C291.556 402.812 289.266 402.455 287.165 402.044C286.114 401.839 285.111 401.62 284.161 401.396C283.211 401.171 282.313 400.938 281.476 400.708C280.219 400.362 279.097 400.018 278.129 399.7C277.483 399.488 276.905 399.289 276.402 399.109C276.151 399.018 275.919 398.933 275.705 398.854C275.279 398.694 274.93 398.557 274.666 398.451C274.268 398.29 274.06 398.199 274.06 398.199C280.916 397.296 301.368 387.766 310.651 382.374Z" fill="black"/>
<path d="M373.84 332.592C381.99 329.327 395.106 324.074 395.106 324.074C395.106 324.074 410.833 317.559 419.699 311.396C426.174 307.416 427.821 310.539 427.317 314.365C426.847 317.944 437.811 311.338 437.162 317.072C437.117 317.468 437.242 319.285 435.93 322C432.303 329.501 421.561 337.127 409.03 339.079C397.459 340.882 383.054 338.326 373.84 332.592Z" fill="#8FA1D7"/>
<path opacity="0.5" d="M373.84 332.592C381.99 329.327 395.106 324.074 395.106 324.074C395.106 324.074 410.833 317.559 419.699 311.396C426.174 307.416 427.821 310.539 427.317 314.365C426.847 317.944 437.811 311.338 437.162 317.072C437.117 317.468 437.242 319.285 435.93 322C432.303 329.501 421.561 337.127 409.03 339.079C397.459 340.882 383.054 338.326 373.84 332.592Z" fill="black"/>
<path d="M393.568 323.482C393.568 323.482 381.992 329.333 373.838 332.598C373.838 332.598 391.642 339.373 410.216 335.612C428.134 331.982 434.917 324.661 436.863 318.447C439.387 310.379 426.821 318.194 427.325 314.368C427.828 310.541 426.157 307.381 419.704 311.399C404.487 320.873 393.568 323.482 393.568 323.482Z" fill="#8FA1D7"/>
<path opacity="0.3" d="M393.568 323.482C393.568 323.482 381.992 329.333 373.838 332.598C373.838 332.598 391.642 339.373 410.216 335.612C428.134 331.982 434.917 324.661 436.863 318.447C439.387 310.379 426.821 318.194 427.325 314.368C427.828 310.541 426.157 307.381 419.704 311.399C404.487 320.873 393.568 323.482 393.568 323.482Z" fill="black"/>
<path opacity="0.1" d="M393.507 323.638C390.091 326.746 385.105 328.568 382.775 330.454C380.445 332.339 387.507 334.711 396.446 335.591C405.316 336.463 417.591 333.651 422.063 332.162C418.771 333.548 414.838 334.77 410.104 335.729C391.589 339.479 373.84 332.726 373.84 332.726C381.965 329.47 393.507 323.638 393.507 323.638Z" fill="black"/>
<path d="M327.506 436.437C329.208 423.889 337.112 412.248 342.398 407.806C348.45 402.72 347.483 409.143 351.481 415.789C357.011 424.984 364.876 427.216 374.551 428.846C374.551 428.846 348.256 440.208 327.506 436.437Z" fill="#8FA1D7"/>
<path opacity="0.35" d="M327.506 436.437C329.208 423.889 337.112 412.248 342.398 407.806C348.45 402.72 347.483 409.143 351.481 415.789C357.011 424.984 364.876 427.216 374.551 428.846C374.551 428.846 348.256 440.208 327.506 436.437Z" fill="black"/>
<path opacity="0.15" d="M331.849 436.957C331.963 436.044 332.819 435.233 334.704 434.588C347.008 430.383 359.097 427.836 356.201 425.28C353.853 423.206 351.024 418.125 350.509 413.989L350.512 413.987C350.792 414.555 351.092 415.129 351.441 415.708C356.979 424.917 364.854 427.152 374.543 428.784C374.543 428.784 351.756 438.624 331.849 436.957Z" fill="black"/>
<path opacity="0.3" d="M342.597 407.839C344.575 406.18 345.805 405.747 346.709 406.132C342.395 406.937 332.237 421.195 330.776 430.957C330.477 432.955 330.101 435.304 330.293 437.129C329.373 437.02 328.458 436.894 327.556 436.731C329.275 424.068 337.258 412.32 342.597 407.839Z" fill="#8FA1D7"/>
<path d="M408.298 424.462C411.671 423.137 414.092 415.376 416.636 412.747C420.332 408.925 420.958 413.379 425.541 416.282C430.123 419.185 437.934 419.891 441.774 419.264C445.615 418.639 439.429 422.553 432.171 425.201C432.171 425.201 419.049 429.91 408.298 424.462Z" fill="#8FA1D7"/>
<path opacity="0.35" d="M408.298 424.462C411.671 423.137 414.092 415.376 416.636 412.747C420.332 408.925 420.958 413.379 425.541 416.282C430.123 419.185 437.934 419.891 441.774 419.264C445.615 418.639 439.429 422.553 432.171 425.201C432.171 425.201 419.049 429.91 408.298 424.462Z" fill="black"/>
<path opacity="0.15" d="M414.785 426.571L413.159 423.891C413.493 424.022 431.484 420.905 428.084 419.111C425.468 417.731 422.57 414.526 421.515 412.685C422.525 413.711 423.717 415.097 425.531 416.247C430.116 419.151 437.931 419.857 441.773 419.23C445.616 418.604 439.427 422.521 432.165 425.171C432.165 425.171 423.693 428.201 414.785 426.571Z" fill="black"/>
<path opacity="0.3" d="M416.731 412.851C418.703 410.816 419.813 411.116 421.099 412.275C419.726 411.434 417.592 412.265 415.876 415.125C415.075 416.463 411.339 425.174 408.303 424.676C411.712 423.339 414.161 415.505 416.731 412.851Z" fill="#8FA1D7"/>
<path d="M338.025 561.351C337.906 561.337 337.786 561.313 337.66 561.275C329.189 559.934 323.887 546.43 322.039 537.941C319.243 525.106 318.192 510.308 320.711 501.286L327.158 499.125L366.899 483.228C366.899 483.228 356.555 495.639 349.247 514.686C341.799 534.097 340.909 543.479 339.823 559.003C339.699 560.773 339.022 561.477 338.025 561.351Z" fill="#8FA1D7"/>
<path opacity="0.3" d="M338.025 561.351C337.906 561.337 337.786 561.313 337.66 561.275C329.189 559.934 323.887 546.43 322.039 537.941C319.243 525.106 318.192 510.308 320.711 501.286L327.158 499.125L366.899 483.228C366.899 483.228 356.555 495.639 349.247 514.686C341.799 534.097 340.909 543.479 339.823 559.003C339.699 560.773 339.022 561.477 338.025 561.351Z" fill="black"/>
<path d="M327.128 499.092C325.804 501.984 320.741 513.607 325.537 539.682C328.23 554.327 339.26 566.724 339.8 558.996C340.886 543.464 341.777 534.081 349.229 514.66C356.541 495.603 366.889 483.188 366.889 483.188L327.128 499.092Z" fill="#E0E0E0"/>
<path opacity="0.05" d="M349.275 514.652C342.622 531.992 341.201 541.34 340.2 554.199C340.028 547.426 340.444 538.659 341.65 529.294C343.075 518.239 344.139 512.223 338.849 512.013C336.297 511.911 331.434 513.407 328.475 517.055C325.309 520.959 324.133 527.147 324.25 530.769C321.977 510.928 326.003 501.655 327.171 499.1C327.174 499.096 327.175 499.09 327.177 499.087L366.93 483.185C366.933 483.186 356.586 495.6 349.275 514.652Z" fill="black"/>
<path opacity="0.3" d="M319.407 516.124L319.408 516.123L319.408 516.144L319.407 516.124Z" fill="#8FA1D7"/>
<path opacity="0.45" d="M321.825 538.152C320.419 531.704 319.46 524.761 319.176 518.31C320.403 530.475 324.732 551.505 332.023 558.665C326.684 554.042 323.237 544.635 321.825 538.152Z" fill="#8FA1D7"/>
<path d="M292.597 502.535C287.268 506.551 280.51 506.284 272.824 505.793C262.217 505.115 244.749 498.339 239.935 491.836C235.719 486.144 242.816 480.597 253.316 473.277C263.738 466.011 274.968 457.543 289.588 449.88C303.43 442.624 326.525 434.588 351.478 430.892C376.431 427.194 437.569 424.212 446.061 417.977C454.553 411.742 449.658 398.721 450.357 381.668C451.056 364.614 456.623 352.958 462.448 348.988C468.272 345.017 466.321 359.854 468.069 364.922C469.816 369.989 477.573 369.88 478.506 375.17C479.51 380.867 477.428 384.161 477.019 391.324C476.664 397.557 475.973 401.126 478.623 404.934C480.853 408.139 487.031 412.332 497.264 417.235C504.248 420.581 511.636 420.842 511.118 425.211C510.602 429.579 501.225 433.086 490.215 432.937C479.204 432.788 465.33 427.393 459.721 428.505C454.111 429.616 420.07 460.31 401.938 473.105C383.736 485.95 357.725 499.138 342.689 505.161C318.268 514.942 301.819 513.011 295.084 512.027C289.347 511.188 289.807 507.308 292.597 502.535Z" fill="#8FA1D7"/>
<path opacity="0.2" d="M292.597 502.535C287.268 506.551 280.51 506.284 272.824 505.793C262.217 505.115 244.749 498.339 239.935 491.836C235.719 486.144 242.816 480.597 253.316 473.277C263.738 466.011 274.968 457.543 289.588 449.88C303.43 442.624 326.525 434.588 351.478 430.892C376.431 427.194 437.569 424.212 446.061 417.977C454.553 411.742 449.658 398.721 450.357 381.668C451.056 364.614 456.623 352.958 462.448 348.988C468.272 345.017 466.321 359.854 468.069 364.922C469.816 369.989 477.573 369.88 478.506 375.17C479.51 380.867 477.428 384.161 477.019 391.324C476.664 397.557 475.973 401.126 478.623 404.934C480.853 408.139 487.031 412.332 497.264 417.235C504.248 420.581 511.636 420.842 511.118 425.211C510.602 429.579 501.225 433.086 490.215 432.937C479.204 432.788 465.33 427.393 459.721 428.505C454.111 429.616 420.07 460.31 401.938 473.105C383.736 485.95 357.725 499.138 342.689 505.161C318.268 514.942 301.819 513.011 295.084 512.027C289.347 511.188 289.807 507.308 292.597 502.535Z" fill="black"/>
<path opacity="0.1" d="M401.878 442.896C418.599 437.633 434.008 434.625 446.385 427.445C458.762 420.266 464.466 415.58 471.394 417.994C478.321 420.408 481.756 418.958 477.245 412.777C469.368 401.988 472.76 396.558 477.678 384.113C477.345 385.881 477.019 387.842 476.882 390.243C476.527 396.47 475.837 400.036 478.485 403.841C480.712 407.043 486.884 411.234 497.108 416.131C504.085 419.473 511.467 419.734 510.949 424.099C510.433 428.464 501.065 431.966 490.065 431.818C479.065 431.669 465.205 426.279 459.601 427.39C455.834 428.136 439.235 442.233 423.254 455.28L401.878 442.896Z" fill="black"/>
<path opacity="0.6" d="M318.733 441.823C296.023 449.288 282.285 456.764 265.517 468.355C248.772 479.93 244.25 481.102 239.199 487.425C240.762 483.508 246.287 479.374 253.378 474.43C263.817 467.152 275.066 458.671 289.711 450.995C303.576 443.728 326.709 435.679 351.704 431.977C357.653 431.096 365.668 430.255 374.525 429.401C374.16 429.449 340.412 434.696 318.733 441.823Z" fill="#8FA1D7"/>
<path opacity="0.6" d="M445.011 417.938C445.011 417.938 445.006 417.925 445.004 417.923C445.627 417.644 446.178 417.361 446.578 417.067C455.097 410.813 450.187 397.755 450.888 380.652C451.589 363.549 457.174 351.858 463.017 347.877C464.022 347.192 464.792 347.076 465.395 347.361C462.119 346.714 454.019 360.875 452.879 373.633C451.74 386.391 453.928 394.212 453.713 403.17C453.5 412.128 449.721 416.405 445.011 417.938Z" fill="#8FA1D7"/>
<path opacity="0.15" d="M505.125 420.572C501.177 419.051 492.435 416.932 482.701 411.227C472.072 404.997 475.279 399.247 477.166 389.979C476.814 396.142 476.13 399.67 478.754 403.436C480.962 406.605 487.08 410.752 497.216 415.598C504.132 418.906 511.45 419.164 510.937 423.484C510.823 424.449 510.249 425.368 509.339 426.217C510.611 423.921 509.069 422.092 505.125 420.572Z" fill="black"/>
<path d="M338.56 469.171C356.147 462.213 367.23 451.958 405.861 443.626C438.633 436.559 447.39 434.769 456.841 430.359C446.818 436.56 418.012 462.188 401.843 473.599C383.643 486.442 357.635 499.628 342.602 505.65C318.183 515.431 301.736 513.499 295.003 512.516C289.263 511.678 289.724 507.797 292.513 503.024C287.185 507.04 280.428 506.774 272.743 506.282C265.05 505.791 253.768 502.086 246.302 497.609C243.036 495.341 240.028 488.402 253.283 486.928C266.763 485.429 273.922 486.283 293.876 478.531C313.83 470.779 320.225 460.205 326.391 462.232C332.558 464.264 320.973 476.129 338.56 469.171Z" fill="#FAFAFA"/>
<path d="M353.574 500.082C355.443 499.108 380.822 485.736 397.441 469.818C414.703 453.286 390.591 449.936 373.283 452.24C381.615 449.014 391.896 445.796 405.686 442.823C438.571 435.733 447.358 433.937 456.842 429.513C446.785 435.734 417.879 461.444 401.653 472.891C387.403 482.945 368.409 493.189 353.574 500.082Z" fill="#F0F0F0"/>
<path d="M292.304 503.792C294.559 500.155 299.83 494.799 305.957 490.417C312.721 485.579 323.333 477.087 321.958 468.573C317.802 479.056 303.603 480.916 291.832 490.267C280.5 499.27 279.196 508.017 285.651 506.74C289.509 506.082 292.304 503.792 292.304 503.792Z" fill="#455A64"/>
<path d="M295.133 488.764C302.85 483.387 315.216 479.545 320.793 472.339C320.758 473.458 320.125 475.503 319.808 475.931C319.228 476.716 318.071 476.842 317.001 476.878C316.88 478.492 316.494 479.523 316.083 479.935C315.542 480.477 314.771 480.674 312.368 480.21C312.096 482.112 311.924 483.576 311.134 484.102C310.226 484.706 307.504 484.415 305.997 483.917C306.144 485.73 305.508 488.116 304.565 488.793C303.488 489.568 300.74 489.272 299.072 488.694C299.466 490.666 299.02 493.522 297.906 494.49C296.77 495.476 293.481 495.302 291.647 494.434C292.387 496.41 292.617 499.354 291.577 500.443C290.211 501.87 287.178 501.533 285.326 500.706C285.83 501.509 286.215 502.501 286.46 503.41C286.704 504.32 286.977 505.495 286.412 506.226C286.051 506.693 285.427 506.962 284.734 507.084C279.319 507.058 283.545 496.839 295.133 488.764Z" fill="#E0E0E0"/>
<path d="M352.997 468.416C358.245 463.449 378.307 450.797 401.209 448.105C419.266 445.982 432.342 447.659 439.808 452.067C440.825 452.668 441.087 452.947 440.758 453.022C440.611 453.055 440.347 453.049 439.976 453.009C410.223 452.463 397.403 455.461 388.197 458.718C379.551 461.779 370.744 465.913 356.845 473.707C356.628 473.859 356.412 474.012 356.192 474.16C355.271 474.782 354.455 475.198 353.726 475.468C353.709 475.479 353.69 475.488 353.673 475.499C353.679 475.493 353.687 475.486 353.693 475.48C349.234 477.111 348.494 472.677 352.997 468.416Z" fill="#E0E0E0"/>
<path d="M356.19 474.159C362.775 469.709 368.041 464.234 381.46 458.58C394.129 453.243 403.019 451.53 417.981 450.912C431.93 450.335 444.786 455.007 439.807 452.068C432.342 447.659 419.264 445.981 401.208 448.105C378.306 450.797 358.245 463.449 352.996 468.416C347.748 473.383 349.607 478.608 356.19 474.159Z" fill="#8FA1D7"/>
<path opacity="0.3" d="M356.19 474.159C362.775 469.709 368.041 464.234 381.46 458.58C394.129 453.243 403.019 451.53 417.981 450.912C431.93 450.335 444.786 455.007 439.807 452.068C432.342 447.659 419.264 445.981 401.208 448.105C378.306 450.797 358.245 463.449 352.996 468.416C347.748 473.383 349.607 478.608 356.19 474.159Z" fill="black"/>
<path opacity="0.45" d="M429.69 448.414C424.283 447.993 408.848 447.41 397.23 449.866C385.593 452.324 371.322 456.588 361.513 462.335C370.651 456.742 385.283 449.977 401.314 448.092C412.872 446.733 422.38 446.939 429.69 448.414Z" fill="#8FA1D7"/>
<path d="M310.316 460.763C312.855 462.719 312.556 465.25 309.647 466.414C306.74 467.579 302.323 466.937 299.784 464.981C297.245 463.025 297.545 460.494 300.453 459.33C303.361 458.165 307.777 458.806 310.316 460.763Z" fill="#455A64"/>
<path d="M301.788 461.586C302.352 462.021 302.469 462.819 302.048 463.369C301.628 463.919 300.83 464.011 300.266 463.577C299.701 463.142 299.586 462.344 300.006 461.795C300.426 461.246 301.224 461.151 301.788 461.586Z" fill="#FAFAFA"/>
<path d="M265.615 485.636C264.405 486.121 264.289 487.095 265.358 487.811C266.426 488.527 268.199 488.746 269.318 488.297C270.437 487.849 270.553 486.876 269.575 486.122C268.597 485.369 266.825 485.152 265.615 485.636Z" fill="#455A64"/>
<path opacity="0.6" d="M265.017 485.407C266.082 484.668 268.36 484.569 269.721 485.667C269.721 485.667 269.287 484.574 267.4 484.425C265.513 484.276 265.017 485.407 265.017 485.407Z" fill="#8FA1D7"/>
<path d="M386.163 475.292C389.628 474.836 399.958 470.021 404.649 467.297C405.932 468.511 409.403 470.268 412.513 470.647C414.114 470.842 415.605 471.381 415.483 472.325C415.448 472.601 415.488 473.51 414.715 474.583C414.196 475.304 412.68 476.738 409.387 477.867C403.731 479.803 400.005 479.636 396.054 479.049C392.699 478.551 388.457 476.662 386.163 475.292Z" fill="#8FA1D7"/>
<path opacity="0.5" d="M386.163 475.292C389.628 474.836 399.958 470.021 404.649 467.297C405.932 468.511 409.403 470.268 412.513 470.647C414.114 470.842 415.605 471.381 415.483 472.325C415.448 472.601 415.488 473.51 414.715 474.583C414.196 475.304 412.68 476.738 409.387 477.867C403.731 479.803 400.005 479.636 396.054 479.049C392.699 478.551 388.457 476.662 386.163 475.292Z" fill="black"/>
<path d="M404.653 467.299C399.963 470.024 389.629 474.84 386.164 475.296C386.164 475.296 398.182 480.602 409.597 476.127C418.331 472.702 415.628 471.029 412.517 470.649C409.408 470.271 405.937 468.514 404.653 467.299Z" fill="#8FA1D7"/>
<path opacity="0.2" d="M404.653 467.299C399.963 470.024 389.629 474.84 386.164 475.296C386.164 475.296 398.182 480.602 409.597 476.127C418.331 472.702 415.628 471.029 412.517 470.649C409.408 470.271 405.937 468.514 404.653 467.299Z" fill="black"/>
<path opacity="0.1" d="M404.635 467.326C403.487 468.705 398.868 471.23 395.562 473.348C392.258 475.467 394.555 476.596 398.512 476.967C402.467 477.339 408.464 476.569 413.607 474.247C413.158 474.519 412.613 474.809 411.97 475.116C411.941 475.129 411.914 475.143 411.884 475.157C411.581 475.3 411.253 475.447 410.903 475.598C410.844 475.624 410.783 475.649 410.723 475.674C410.363 475.828 409.986 475.982 409.576 476.144C408.151 476.703 406.716 477.109 405.296 477.392C402.101 478.028 398.984 478.042 396.224 477.766C394.997 477.643 393.841 477.464 392.781 477.256C392.25 477.152 391.745 477.042 391.264 476.928C390.784 476.814 390.332 476.697 389.91 476.581C389.275 476.407 388.709 476.232 388.219 476.072C387.894 475.965 387.602 475.863 387.348 475.773C387.221 475.728 387.104 475.685 386.997 475.644C386.782 475.564 386.605 475.495 386.471 475.441C386.27 475.359 386.165 475.314 386.165 475.314C389.625 474.859 399.949 470.048 404.635 467.326Z" fill="black"/>
<path d="M429.938 444.317C433.548 442.871 439.358 440.544 439.358 440.544C439.358 440.544 446.324 437.658 450.251 434.928C453.119 433.165 453.849 434.548 453.627 436.243C453.418 437.828 458.274 434.901 457.987 437.442C457.967 437.618 458.024 438.423 457.441 439.625C455.835 442.947 451.077 446.326 445.527 447.191C440.399 447.989 434.019 446.859 429.938 444.317Z" fill="#8FA1D7"/>
<path opacity="0.5" d="M429.938 444.317C433.548 442.871 439.358 440.544 439.358 440.544C439.358 440.544 446.324 437.658 450.251 434.928C453.119 433.165 453.849 434.548 453.627 436.243C453.418 437.828 458.274 434.901 457.987 437.442C457.967 437.618 458.024 438.423 457.441 439.625C455.835 442.947 451.077 446.326 445.527 447.191C440.399 447.989 434.019 446.859 429.938 444.317Z" fill="black"/>
<path d="M438.676 440.282C438.676 440.282 433.548 442.873 429.938 444.32C429.938 444.32 437.824 447.321 446.052 445.654C453.988 444.045 456.993 440.803 457.854 438.051C458.973 434.478 453.407 437.939 453.63 436.245C453.853 434.55 453.113 433.149 450.254 434.929C443.514 439.127 438.676 440.282 438.676 440.282Z" fill="#8FA1D7"/>
<path opacity="0.2" d="M438.676 440.282C438.676 440.282 433.548 442.873 429.938 444.32C429.938 444.32 437.824 447.321 446.052 445.654C453.988 444.045 456.993 440.803 457.854 438.051C458.973 434.478 453.407 437.939 453.63 436.245C453.853 434.55 453.113 433.149 450.254 434.929C443.514 439.127 438.676 440.282 438.676 440.282Z" fill="black"/>
<path opacity="0.1" d="M438.649 440.351C437.136 441.727 434.928 442.536 433.896 443.37C432.863 444.206 435.992 445.256 439.952 445.645C443.881 446.032 449.318 444.785 451.298 444.126C449.84 444.739 448.097 445.281 446.002 445.706C437.801 447.367 429.938 444.376 429.938 444.376C433.538 442.936 438.649 440.351 438.649 440.351Z" fill="black"/>
<path d="M322.069 451.907C326.704 454.168 334.624 461.474 335.635 467.057C335.635 467.057 336.186 461.03 331.225 456.384C326.264 451.739 322.069 451.907 322.069 451.907Z" fill="#455A64"/>
<path d="M327.495 450.871C331.845 452.995 339.282 459.853 340.229 465.094C340.229 465.094 340.745 459.436 336.088 455.075C331.434 450.712 327.495 450.871 327.495 450.871Z" fill="#455A64"/>
<path d="M332.922 449.836C336.989 451.821 343.94 458.232 344.825 463.131C344.825 463.131 345.307 457.842 340.954 453.765C336.603 449.687 332.922 449.836 332.922 449.836Z" fill="#455A64"/>
<path d="M336.72 450.071C338.913 451.096 340.809 452.618 342.325 454.449C343.103 455.347 343.766 456.343 344.309 457.393C344.848 458.445 345.252 459.573 345.377 460.765C345.465 459.568 345.146 458.353 344.662 457.235C344.174 456.111 343.484 455.082 342.711 454.13C341.117 452.286 339.074 450.708 336.72 450.071Z" fill="#8FA1D7"/>
<path d="M330.158 450.804C332.913 451.843 335.4 453.476 337.308 455.654C338.288 456.716 339.098 457.926 339.72 459.222C340.34 460.517 340.742 461.922 340.796 463.38C341.002 461.936 340.709 460.427 340.155 459.043C339.599 457.652 338.746 456.388 337.766 455.252C335.746 453.041 333.065 451.357 330.158 450.804Z" fill="#8FA1D7"/>
<path d="M323.596 451.536C326.909 452.598 329.956 454.356 332.284 456.855C334.605 459.322 336.235 462.534 336.215 465.994C336.53 464.304 336.27 462.502 335.647 460.85C335.029 459.186 334.023 457.673 332.81 456.37C330.366 453.772 327.031 452.044 323.596 451.536Z" fill="#8FA1D7"/>
</svg>
