<svg width="172" height="187" viewBox="0 0 172 187" fill="none" xmlns="http://www.w3.org/2000/svg">
<path d="M170.664 60.0452L164.076 185.522L80.5879 181.135L81.2829 167.836L87.1759 55.6582L139.748 58.4182L170.664 60.0452Z" fill="white"/>
<mask id="mask0_1930_36897" style="mask-type:luminance" maskUnits="userSpaceOnUse" x="80" y="55" width="91" height="131">
<path d="M170.664 60.0452L164.076 185.522L80.5879 181.135L81.2829 167.836L87.1759 55.6582L139.748 58.4182L170.664 60.0452Z" fill="white"/>
</mask>
<g mask="url(#mask0_1930_36897)">
<path opacity="0.2" d="M144.608 133.558L125.798 135.109L131.285 158.799L81.2832 167.836L87.1762 55.6582L139.748 58.4182L144.608 133.558Z" fill="black" fill-opacity="0.7"/>
</g>
<path d="M170.664 60.0452L164.076 185.522L80.5879 181.135L81.2829 167.836L87.1759 55.6582L139.748 58.4182L170.664 60.0452Z" stroke="#263238" stroke-miterlimit="10" stroke-linecap="round" stroke-linejoin="round"/>
<path d="M93.0713 64.2422L114.796 65.3832" stroke="#263238" stroke-width="2" stroke-miterlimit="10" stroke-linecap="round" stroke-linejoin="round"/>
<path d="M92.8516 68.4131L107.625 69.1891" stroke="#263238" stroke-width="2" stroke-miterlimit="10" stroke-linecap="round" stroke-linejoin="round"/>
<path d="M97.6279 78.5371L160.122 81.8201" stroke="#263238" stroke-width="2" stroke-miterlimit="10" stroke-linecap="round" stroke-linejoin="round"/>
<path d="M97.4092 82.708L159.903 85.991" stroke="#263238" stroke-width="2" stroke-miterlimit="10" stroke-linecap="round" stroke-linejoin="round"/>
<path d="M97.1543 87.5742L150.454 90.3742" stroke="#263238" stroke-width="2" stroke-miterlimit="10" stroke-linecap="round" stroke-linejoin="round"/>
<path d="M102.263 92.2851L97.1748 92.0176L96.9074 97.1045L101.995 97.372L102.263 92.2851Z" stroke="#263238" stroke-miterlimit="10" stroke-linecap="round" stroke-linejoin="round"/>
<path d="M111.476 92.7694L106.388 92.502L106.12 97.5898L111.208 97.8573L111.476 92.7694Z" stroke="#263238" stroke-miterlimit="10" stroke-linecap="round" stroke-linejoin="round"/>
<path d="M120.71 93.2367L115.622 92.9697L115.355 98.0576L120.443 98.3246L120.71 93.2367Z" stroke="#263238" stroke-miterlimit="10" stroke-linecap="round" stroke-linejoin="round"/>
<path d="M129.923 93.7201L124.835 93.4531L124.568 98.541L129.656 98.808L129.923 93.7201Z" stroke="#263238" stroke-miterlimit="10" stroke-linecap="round" stroke-linejoin="round"/>
<path d="M94.3007 78.3633C94.2637 79.0663 93.6647 79.6053 92.9617 79.5683C92.2597 79.5313 91.7197 78.9323 91.7567 78.2293C91.7937 77.5273 92.3927 76.9873 93.0957 77.0243C93.7987 77.0613 94.3377 77.6603 94.3007 78.3633Z" fill="#263238"/>
<path d="M96.3496 102.867L158.844 106.15" stroke="#263238" stroke-width="2" stroke-miterlimit="10" stroke-linecap="round" stroke-linejoin="round"/>
<path d="M96.1309 107.038L158.625 110.321" stroke="#263238" stroke-width="2" stroke-miterlimit="10" stroke-linecap="round" stroke-linejoin="round"/>
<path d="M95.876 111.904L149.176 114.704" stroke="#263238" stroke-width="2" stroke-miterlimit="10" stroke-linecap="round" stroke-linejoin="round"/>
<path d="M101.008 116.599L95.9199 116.332L95.6529 121.42L100.741 121.687L101.008 116.599Z" stroke="#263238" stroke-miterlimit="10" stroke-linecap="round" stroke-linejoin="round"/>
<path d="M110.221 117.082L105.133 116.815L104.866 121.903L109.954 122.17L110.221 117.082Z" stroke="#263238" stroke-miterlimit="10" stroke-linecap="round" stroke-linejoin="round"/>
<path d="M119.433 117.566L114.345 117.299L114.078 122.387L119.166 122.654L119.433 117.566Z" stroke="#263238" stroke-miterlimit="10" stroke-linecap="round" stroke-linejoin="round"/>
<path d="M128.645 118.049L123.558 117.782L123.291 122.87L128.379 123.137L128.645 118.049Z" stroke="#263238" stroke-miterlimit="10" stroke-linecap="round" stroke-linejoin="round"/>
<path d="M93.0243 102.693C92.9873 103.395 92.3883 103.935 91.6853 103.898C90.9833 103.861 90.4433 103.262 90.4803 102.559C90.5173 101.857 91.1163 101.317 91.8193 101.354C92.5213 101.391 93.0613 101.99 93.0243 102.693Z" fill="#263238"/>
<path d="M95.0713 127.197L157.565 130.479" stroke="#263238" stroke-width="2" stroke-miterlimit="10" stroke-linecap="round" stroke-linejoin="round"/>
<path d="M94.8525 131.368L157.347 134.65" stroke="#263238" stroke-width="2" stroke-miterlimit="10" stroke-linecap="round" stroke-linejoin="round"/>
<path d="M94.5977 136.234L147.898 139.034" stroke="#263238" stroke-width="2" stroke-miterlimit="10" stroke-linecap="round" stroke-linejoin="round"/>
<path d="M99.706 140.943L94.6182 140.676L94.3507 145.764L99.4385 146.031L99.706 140.943Z" stroke="#263238" stroke-miterlimit="10" stroke-linecap="round" stroke-linejoin="round"/>
<path d="M108.919 141.428L103.831 141.16L103.564 146.248L108.651 146.516L108.919 141.428Z" stroke="#263238" stroke-miterlimit="10" stroke-linecap="round" stroke-linejoin="round"/>
<path d="M118.156 141.895L113.068 141.628L112.801 146.716L117.889 146.983L118.156 141.895Z" stroke="#263238" stroke-miterlimit="10" stroke-linecap="round" stroke-linejoin="round"/>
<path d="M127.343 142.396L122.255 142.129L121.987 147.216L127.075 147.483L127.343 142.396Z" stroke="#263238" stroke-miterlimit="10" stroke-linecap="round" stroke-linejoin="round"/>
<path d="M91.746 127.022C91.709 127.724 91.11 128.264 90.407 128.227C89.705 128.19 89.165 127.591 89.202 126.888C89.239 126.186 89.838 125.646 90.541 125.683C91.243 125.721 91.783 126.32 91.746 127.022Z" fill="#263238"/>
<path d="M93.7578 152.223L156.252 155.506" stroke="#263238" stroke-width="2" stroke-miterlimit="10" stroke-linecap="round" stroke-linejoin="round"/>
<path d="M93.5391 156.394L156.033 159.677" stroke="#263238" stroke-width="2" stroke-miterlimit="10" stroke-linecap="round" stroke-linejoin="round"/>
<path d="M93.2832 161.26L146.584 164.06" stroke="#263238" stroke-width="2" stroke-miterlimit="10" stroke-linecap="round" stroke-linejoin="round"/>
<path d="M98.4179 165.954L93.3301 165.687L93.0631 170.774L98.151 171.041L98.4179 165.954Z" stroke="#263238" stroke-miterlimit="10" stroke-linecap="round" stroke-linejoin="round"/>
<path d="M107.603 166.453L102.516 166.186L102.248 171.272L107.336 171.54L107.603 166.453Z" stroke="#263238" stroke-miterlimit="10" stroke-linecap="round" stroke-linejoin="round"/>
<path d="M116.815 166.936L111.728 166.669L111.46 171.756L116.548 172.023L116.815 166.936Z" stroke="#263238" stroke-miterlimit="10" stroke-linecap="round" stroke-linejoin="round"/>
<path d="M126.027 167.421L120.94 167.153L120.673 172.241L125.76 172.509L126.027 167.421Z" stroke="#263238" stroke-miterlimit="10" stroke-linecap="round" stroke-linejoin="round"/>
<path d="M90.4306 152.047C90.3936 152.749 89.7945 153.289 89.0915 153.252C88.3895 153.215 87.8496 152.616 87.8866 151.913C87.9236 151.211 88.5225 150.671 89.2255 150.708C89.9285 150.746 90.4676 151.345 90.4306 152.047Z" fill="#263238"/>
<path d="M98.9082 94.1392L99.5682 95.2772L102.276 92.2852" stroke="#263238" stroke-width="2" stroke-miterlimit="10" stroke-linecap="round" stroke-linejoin="round"/>
<path d="M116.071 119.132L116.731 120.27L119.439 117.278" stroke="#263238" stroke-width="2" stroke-miterlimit="10" stroke-linecap="round" stroke-linejoin="round"/>
<path d="M124.68 144.807L125.341 145.944L128.048 142.953" stroke="#263238" stroke-width="2" stroke-miterlimit="10" stroke-linecap="round" stroke-linejoin="round"/>
<path d="M104.281 167.726L104.941 168.864L107.649 165.873" stroke="#263238" stroke-width="2" stroke-miterlimit="10" stroke-linecap="round" stroke-linejoin="round"/>
<path d="M115.189 150.011L34.64 172.395L1 51.3272L34.35 42.0622L81.55 28.9502L112.071 138.794L115.189 150.011Z" fill="white"/>
<mask id="mask1_1930_36897" style="mask-type:luminance" maskUnits="userSpaceOnUse" x="1" y="28" width="115" height="145">
<path d="M115.189 150.011L34.64 172.395L1 51.3272L34.35 42.0622L81.55 28.9502L112.071 138.794L115.189 150.011Z" fill="white"/>
</mask>
<g mask="url(#mask1_1930_36897)">
<path opacity="0.2" d="M112.071 138.794L49.7886 142.822L34.3496 42.0622L81.5496 28.9502L112.071 138.794Z" fill="black" fill-opacity="0.7"/>
</g>
<path d="M115.189 150.011L34.64 172.395L1 51.3272L34.35 42.0622L81.55 28.9502L112.071 138.794L115.189 150.011Z" stroke="#263238" stroke-miterlimit="10" stroke-linecap="round" stroke-linejoin="round"/>
<path d="M9.31445 57.5945L30.2745 51.7695" stroke="#263238" stroke-width="2" stroke-miterlimit="10" stroke-linecap="round" stroke-linejoin="round"/>
<path d="M10.4316 61.6182L24.6856 57.6572" stroke="#263238" stroke-width="2" stroke-miterlimit="10" stroke-linecap="round" stroke-linejoin="round"/>
<path d="M18.1787 69.6993L78.4747 52.9443" stroke="#263238" stroke-width="2" stroke-miterlimit="10" stroke-linecap="round" stroke-linejoin="round"/>
<path d="M19.2969 73.7238L79.5929 56.9688" stroke="#263238" stroke-width="2" stroke-miterlimit="10" stroke-linecap="round" stroke-linejoin="round"/>
<path d="M20.6016 78.4169L72.0266 64.1279" stroke="#263238" stroke-width="2" stroke-miterlimit="10" stroke-linecap="round" stroke-linejoin="round"/>
<path d="M26.9471 81.262L22.0381 82.626L23.402 87.535L28.3111 86.1711L26.9471 81.262Z" stroke="#263238" stroke-miterlimit="10" stroke-linecap="round" stroke-linejoin="round"/>
<path d="M35.8407 78.7884L30.9316 80.1523L32.2956 85.0614L37.2046 83.6974L35.8407 78.7884Z" stroke="#263238" stroke-miterlimit="10" stroke-linecap="round" stroke-linejoin="round"/>
<path d="M44.7284 76.3187L39.8193 77.6826L41.1833 82.5917L46.0923 81.2277L44.7284 76.3187Z" stroke="#263238" stroke-miterlimit="10" stroke-linecap="round" stroke-linejoin="round"/>
<path d="M53.618 73.849L48.709 75.2129L50.0726 80.121L54.9817 78.757L53.618 73.849Z" stroke="#263238" stroke-miterlimit="10" stroke-linecap="round" stroke-linejoin="round"/>
<path d="M14.9695 70.5899C15.1575 71.2679 14.7615 71.9699 14.0835 72.1579C13.4055 72.3459 12.7035 71.9499 12.5155 71.2719C12.3275 70.5939 12.7235 69.8919 13.4015 69.7039C14.0795 69.5159 14.7815 69.9129 14.9695 70.5899Z" fill="#263238"/>
<path d="M24.7021 93.172L84.9972 76.418" stroke="#263238" stroke-width="2" stroke-miterlimit="10" stroke-linecap="round" stroke-linejoin="round"/>
<path d="M25.8203 97.1974L86.1153 80.4424" stroke="#263238" stroke-width="2" stroke-miterlimit="10" stroke-linecap="round" stroke-linejoin="round"/>
<path d="M27.125 101.891L78.55 87.6016" stroke="#263238" stroke-width="2" stroke-miterlimit="10" stroke-linecap="round" stroke-linejoin="round"/>
<path d="M33.4735 104.734L28.5645 106.098L29.9284 111.007L34.8374 109.643L33.4735 104.734Z" stroke="#263238" stroke-miterlimit="10" stroke-linecap="round" stroke-linejoin="round"/>
<path d="M42.3592 102.266L37.4502 103.63L38.8141 108.539L43.7232 107.175L42.3592 102.266Z" stroke="#263238" stroke-miterlimit="10" stroke-linecap="round" stroke-linejoin="round"/>
<path d="M51.2469 99.7972L46.3379 101.161L47.7018 106.07L52.6109 104.706L51.2469 99.7972Z" stroke="#263238" stroke-miterlimit="10" stroke-linecap="round" stroke-linejoin="round"/>
<path d="M60.1395 97.3236L55.2305 98.6875L56.5944 103.597L61.5034 102.233L60.1395 97.3236Z" stroke="#263238" stroke-miterlimit="10" stroke-linecap="round" stroke-linejoin="round"/>
<path d="M21.4919 94.0645C21.6799 94.7425 21.2839 95.4445 20.6059 95.6325C19.9279 95.8205 19.2259 95.4245 19.0379 94.7465C18.8499 94.0685 19.2469 93.3665 19.9239 93.1785C20.6019 92.9905 21.3039 93.3875 21.4919 94.0645Z" fill="#263238"/>
<path d="M31.2246 116.648L91.5196 99.8926" stroke="#263238" stroke-width="2" stroke-miterlimit="10" stroke-linecap="round" stroke-linejoin="round"/>
<path d="M32.3428 120.672L92.6378 103.917" stroke="#263238" stroke-width="2" stroke-miterlimit="10" stroke-linecap="round" stroke-linejoin="round"/>
<path d="M33.6465 125.366L85.0725 111.076" stroke="#263238" stroke-width="2" stroke-miterlimit="10" stroke-linecap="round" stroke-linejoin="round"/>
<path d="M39.992 128.21L35.083 129.574L36.4469 134.483L41.356 133.119L39.992 128.21Z" stroke="#263238" stroke-miterlimit="10" stroke-linecap="round" stroke-linejoin="round"/>
<path d="M48.8837 125.739L43.9746 127.103L45.3383 132.011L50.2473 130.647L48.8837 125.739Z" stroke="#263238" stroke-miterlimit="10" stroke-linecap="round" stroke-linejoin="round"/>
<path d="M57.7694 123.271L52.8604 124.635L54.2243 129.544L59.1333 128.18L57.7694 123.271Z" stroke="#263238" stroke-miterlimit="10" stroke-linecap="round" stroke-linejoin="round"/>
<path d="M66.6571 120.802L61.748 122.166L63.112 127.075L68.021 125.711L66.6571 120.802Z" stroke="#263238" stroke-miterlimit="10" stroke-linecap="round" stroke-linejoin="round"/>
<path d="M28.0154 117.538C28.2034 118.216 27.8074 118.918 27.1294 119.106C26.4514 119.294 25.7494 118.898 25.5614 118.22C25.3734 117.542 25.7694 116.84 26.4474 116.652C27.1244 116.464 27.8264 116.861 28.0154 117.538Z" fill="#263238"/>
<path d="M37.9336 140.791L98.2286 124.037" stroke="#263238" stroke-width="2" stroke-miterlimit="10" stroke-linecap="round" stroke-linejoin="round"/>
<path d="M39.0518 144.816L99.3468 128.062" stroke="#263238" stroke-width="2" stroke-miterlimit="10" stroke-linecap="round" stroke-linejoin="round"/>
<path d="M40.3555 149.51L91.7815 135.221" stroke="#263238" stroke-width="2" stroke-miterlimit="10" stroke-linecap="round" stroke-linejoin="round"/>
<path d="M46.703 152.353L41.7949 153.717L43.1589 158.626L48.0669 157.262L46.703 152.353Z" stroke="#263238" stroke-miterlimit="10" stroke-linecap="round" stroke-linejoin="round"/>
<path d="M55.5917 149.883L50.6826 151.247L52.0465 156.156L56.9556 154.792L55.5917 149.883Z" stroke="#263238" stroke-miterlimit="10" stroke-linecap="round" stroke-linejoin="round"/>
<path d="M64.4803 147.414L59.5723 148.777L60.9362 153.686L65.8443 152.323L64.4803 147.414Z" stroke="#263238" stroke-miterlimit="10" stroke-linecap="round" stroke-linejoin="round"/>
<path d="M73.369 144.944L68.46 146.308L69.8239 151.217L74.7329 149.853L73.369 144.944Z" stroke="#263238" stroke-miterlimit="10" stroke-linecap="round" stroke-linejoin="round"/>
<path d="M34.7244 141.683C34.9124 142.361 34.5154 143.063 33.8384 143.251C33.1604 143.439 32.4584 143.043 32.2704 142.365C32.0824 141.687 32.4784 140.985 33.1564 140.797C33.8344 140.609 34.5364 141.005 34.7244 141.683Z" fill="#263238"/>
<path d="M32.7207 81.746L33.7087 82.615L35.3247 78.918" stroke="#263238" stroke-width="2" stroke-miterlimit="10" stroke-linecap="round" stroke-linejoin="round"/>
<path d="M30.3066 107.939L31.2946 108.808L32.9106 105.111" stroke="#263238" stroke-width="2" stroke-miterlimit="10" stroke-linecap="round" stroke-linejoin="round"/>
<path d="M36.8242 131.17L37.8122 132.039L39.4292 128.341" stroke="#263238" stroke-width="2" stroke-miterlimit="10" stroke-linecap="round" stroke-linejoin="round"/>
<path d="M61.2988 150.2L62.2868 151.069L63.9028 147.372" stroke="#263238" stroke-width="2" stroke-miterlimit="10" stroke-linecap="round" stroke-linejoin="round"/>
<path d="M123.047 0.999932L39.8311 8.99219L51.8432 134.064L135.06 126.072L123.047 0.999932Z" fill="white" stroke="#263238" stroke-miterlimit="10" stroke-linecap="round" stroke-linejoin="round"/>
<path d="M46.9307 16.6103L68.5857 14.5303" stroke="#263238" stroke-width="2" stroke-miterlimit="10" stroke-linecap="round" stroke-linejoin="round"/>
<path d="M47.3291 20.7685L62.0551 19.3535" stroke="#263238" stroke-width="2" stroke-miterlimit="10" stroke-linecap="round" stroke-linejoin="round"/>
<path d="M53.5488 30.0768L115.842 24.0928" stroke="#263238" stroke-width="2" stroke-miterlimit="10" stroke-linecap="round" stroke-linejoin="round"/>
<path d="M53.9482 34.234L116.241 28.251" stroke="#263238" stroke-width="2" stroke-miterlimit="10" stroke-linecap="round" stroke-linejoin="round"/>
<path d="M54.4141 39.0845L107.544 33.9805" stroke="#263238" stroke-width="2" stroke-miterlimit="10" stroke-linecap="round" stroke-linejoin="round"/>
<path d="M60.1653 42.9876L55.0947 43.4746L55.5818 48.5462L60.6524 48.0592L60.1653 42.9876Z" stroke="#263238" stroke-miterlimit="10" stroke-linecap="round" stroke-linejoin="round"/>
<path d="M69.3538 42.1028L64.2822 42.5898L64.7693 47.6614L69.8409 47.1743L69.3538 42.1028Z" stroke="#263238" stroke-miterlimit="10" stroke-linecap="round" stroke-linejoin="round"/>
<path d="M78.5354 41.221L73.4648 41.708L73.9519 46.7796L79.0225 46.2926L78.5354 41.221Z" stroke="#263238" stroke-miterlimit="10" stroke-linecap="round" stroke-linejoin="round"/>
<path d="M87.719 40.3391L82.6475 40.8262L83.1344 45.8967L88.206 45.4097L87.719 40.3391Z" stroke="#263238" stroke-miterlimit="10" stroke-linecap="round" stroke-linejoin="round"/>
<path d="M50.2333 30.3942C50.3003 31.0942 49.7873 31.7162 49.0873 31.7842C48.3873 31.8512 47.7653 31.3382 47.6983 30.6382C47.6313 29.9382 48.1443 29.3162 48.8443 29.2492C49.5433 29.1812 50.1653 29.6942 50.2333 30.3942Z" fill="#263238"/>
<path d="M55.8779 54.3287L118.171 48.3447" stroke="#263238" stroke-width="2" stroke-miterlimit="10" stroke-linecap="round" stroke-linejoin="round"/>
<path d="M56.2773 58.4859L118.571 52.5029" stroke="#263238" stroke-width="2" stroke-miterlimit="10" stroke-linecap="round" stroke-linejoin="round"/>
<path d="M56.7432 63.3364L109.873 58.2324" stroke="#263238" stroke-width="2" stroke-miterlimit="10" stroke-linecap="round" stroke-linejoin="round"/>
<path d="M62.5003 67.2356L57.4287 67.7227L57.9158 72.7942L62.9874 72.3071L62.5003 67.2356Z" stroke="#263238" stroke-miterlimit="10" stroke-linecap="round" stroke-linejoin="round"/>
<path d="M71.6829 66.3537L66.6113 66.8408L67.0984 71.9124L72.17 71.4253L71.6829 66.3537Z" stroke="#263238" stroke-miterlimit="10" stroke-linecap="round" stroke-linejoin="round"/>
<path d="M80.8694 65.4681L75.7988 65.9551L76.2859 71.0266L81.3565 70.5397L80.8694 65.4681Z" stroke="#263238" stroke-miterlimit="10" stroke-linecap="round" stroke-linejoin="round"/>
<path d="M90.0432 64.594L84.9717 65.0811L85.4587 70.1516L90.5302 69.6645L90.0432 64.594Z" stroke="#263238" stroke-miterlimit="10" stroke-linecap="round" stroke-linejoin="round"/>
<path d="M52.5624 54.647C52.6294 55.347 52.1164 55.969 51.4164 56.037C50.7164 56.104 50.0944 55.591 50.0264 54.891C49.9594 54.191 50.4724 53.569 51.1724 53.501C51.8734 53.434 52.4954 53.947 52.5624 54.647Z" fill="#263238"/>
<path d="M58.208 78.5807L120.501 72.5967" stroke="#263238" stroke-width="2" stroke-miterlimit="10" stroke-linecap="round" stroke-linejoin="round"/>
<path d="M58.6074 82.7379L120.9 76.7539" stroke="#263238" stroke-width="2" stroke-miterlimit="10" stroke-linecap="round" stroke-linejoin="round"/>
<path d="M59.0732 87.5874L112.202 82.4844" stroke="#263238" stroke-width="2" stroke-miterlimit="10" stroke-linecap="round" stroke-linejoin="round"/>
<path d="M64.8274 91.4876L59.7568 91.9746L60.2439 97.0462L65.3145 96.5592L64.8274 91.4876Z" stroke="#263238" stroke-miterlimit="10" stroke-linecap="round" stroke-linejoin="round"/>
<path d="M74.0051 90.6087L68.9346 91.0957L69.4217 96.1673L74.4922 95.6803L74.0051 90.6087Z" stroke="#263238" stroke-miterlimit="10" stroke-linecap="round" stroke-linejoin="round"/>
<path d="M83.1995 89.7199L78.1279 90.207L78.615 95.2786L83.6866 94.7915L83.1995 89.7199Z" stroke="#263238" stroke-miterlimit="10" stroke-linecap="round" stroke-linejoin="round"/>
<path d="M92.3772 88.842L87.3057 89.3291L87.7927 94.4007L92.8643 93.9136L92.3772 88.842Z" stroke="#263238" stroke-miterlimit="10" stroke-linecap="round" stroke-linejoin="round"/>
<path d="M54.8925 78.8989C54.9595 79.5989 54.4465 80.221 53.7465 80.289C53.0465 80.356 52.4245 79.843 52.3565 79.143C52.2895 78.443 52.8025 77.821 53.5025 77.753C54.2025 77.686 54.8245 78.1989 54.8925 78.8989Z" fill="#263238"/>
<path d="M60.6045 103.525L122.897 97.542" stroke="#263238" stroke-width="2" stroke-miterlimit="10" stroke-linecap="round" stroke-linejoin="round"/>
<path d="M61.0039 107.683L123.297 101.699" stroke="#263238" stroke-width="2" stroke-miterlimit="10" stroke-linecap="round" stroke-linejoin="round"/>
<path d="M61.4697 112.533L114.599 107.43" stroke="#263238" stroke-width="2" stroke-miterlimit="10" stroke-linecap="round" stroke-linejoin="round"/>
<path d="M67.2249 116.432L62.1533 116.919L62.6403 121.99L67.7119 121.502L67.2249 116.432Z" stroke="#263238" stroke-miterlimit="10" stroke-linecap="round" stroke-linejoin="round"/>
<path d="M76.4075 115.55L71.3359 116.037L71.823 121.109L76.8946 120.622L76.4075 115.55Z" stroke="#263238" stroke-miterlimit="10" stroke-linecap="round" stroke-linejoin="round"/>
<path d="M85.5901 114.668L80.5186 115.155L81.0056 120.227L86.0772 119.74L85.5901 114.668Z" stroke="#263238" stroke-miterlimit="10" stroke-linecap="round" stroke-linejoin="round"/>
<path d="M94.7796 113.782L89.708 114.27L90.1951 119.341L95.2667 118.854L94.7796 113.782Z" stroke="#263238" stroke-miterlimit="10" stroke-linecap="round" stroke-linejoin="round"/>
<path d="M57.288 103.843C57.355 104.543 56.842 105.165 56.142 105.232C55.442 105.299 54.82 104.786 54.752 104.086C54.685 103.386 55.198 102.764 55.898 102.696C56.598 102.629 57.22 103.143 57.288 103.843Z" fill="#263238"/>
<path d="M57.1182 45.3173L57.9392 46.3453L60.1762 42.9873" stroke="#263238" stroke-width="2" stroke-miterlimit="10" stroke-linecap="round" stroke-linejoin="round"/>
<path d="M77.7842 67.5019L78.6062 68.5299L80.8422 65.1719" stroke="#263238" stroke-width="2" stroke-miterlimit="10" stroke-linecap="round" stroke-linejoin="round"/>
<path d="M70.9805 93.1415L71.8015 94.1696L74.0375 90.8105" stroke="#263238" stroke-width="2" stroke-miterlimit="10" stroke-linecap="round" stroke-linejoin="round"/>
<path d="M91.6084 116.132L92.4294 117.159L94.6654 113.801" stroke="#263238" stroke-width="2" stroke-miterlimit="10" stroke-linecap="round" stroke-linejoin="round"/>
</svg>
