<svg width="24" height="24" viewBox="0 0 24 24" fill="none" xmlns="http://www.w3.org/2000/svg">
<path d="M7.6 19.1C7.6 19.3387 7.50518 19.5676 7.3364 19.7364C7.16761 19.9052 6.93869 20 6.7 20H2.5C2.10218 20 1.72064 19.842 1.43934 19.5607C1.15804 19.2794 1 18.8978 1 18.5V6.5C1 6.10218 1.15804 5.72064 1.43934 5.43934C1.72064 5.15804 2.10218 5 2.5 5H6.7C6.93869 5 7.16761 5.09482 7.3364 5.2636C7.50518 5.43239 7.6 5.66131 7.6 5.9C7.6 6.13869 7.50518 6.36761 7.3364 6.5364C7.16761 6.70518 6.93869 6.8 6.7 6.8H2.8V18.2H6.7C6.93869 18.2 7.16761 18.2948 7.3364 18.4636C7.50518 18.6324 7.6 18.8613 7.6 19.1ZM15.7368 11.8633L12.7368 8.86325C12.5677 8.69417 12.3384 8.59919 12.0993 8.59919C11.8601 8.59919 11.6308 8.69417 11.4618 8.86325C11.2927 9.03233 11.1977 9.26164 11.1977 9.50075C11.1977 9.73986 11.2927 9.96917 11.4618 10.1383L12.925 11.6H6.7C6.46131 11.6 6.23239 11.6948 6.0636 11.8636C5.89482 12.0324 5.8 12.2613 5.8 12.5C5.8 12.7387 5.89482 12.9676 6.0636 13.1364C6.23239 13.3052 6.46131 13.4 6.7 13.4H12.925L11.461 14.8632C11.2919 15.0323 11.1969 15.2616 11.1969 15.5007C11.1969 15.7399 11.2919 15.9692 11.461 16.1383C11.6301 16.3073 11.8594 16.4023 12.0985 16.4023C12.3376 16.4023 12.5669 16.3073 12.736 16.1383L15.736 13.1383C15.82 13.0547 15.8866 12.9554 15.9321 12.846C15.9776 12.7366 16.001 12.6194 16.0011 12.5009C16.0012 12.3825 15.9778 12.2652 15.9325 12.1557C15.8871 12.0463 15.8206 11.9469 15.7368 11.8633Z" fill="black" fill-opacity="0.6"/>
</svg>
