<svg width="448" height="249" viewBox="0 0 448 249" fill="none" xmlns="http://www.w3.org/2000/svg">
<path d="M427.394 147.544L341.463 152.12C339.278 152.236 337.59 154.051 337.693 156.173C337.796 158.296 339.651 159.922 341.836 159.805L427.767 155.229C429.952 155.113 431.64 153.298 431.537 151.176C431.434 149.053 429.579 147.428 427.394 147.544Z" fill="#D18102"/>
<path d="M442.399 109.215C442.01 101.051 434.993 94.797 426.724 95.2448C418.455 95.6925 412.07 102.672 412.46 110.836C412.773 117.404 418.312 142.211 424.776 151.406C419.221 161.252 416.072 186.53 416.386 193.098C416.776 201.262 423.792 207.516 432.061 207.068C440.33 206.621 446.715 199.641 446.326 191.477C446.012 184.909 440.473 160.102 434.009 150.907C439.564 141.061 442.713 115.783 442.399 109.215Z" fill="#FFD806"/>
<path d="M399.808 133.874L391.387 134.331C389.971 134.408 388.877 135.607 388.943 137.008L390.485 169.395C390.552 170.797 391.754 171.871 393.171 171.794L401.592 171.337C403.008 171.26 404.102 170.062 404.035 168.66L402.493 136.273C402.426 134.871 401.224 133.797 399.808 133.874Z" fill="#FFD806"/>
<path d="M390.875 122.013L376.926 122.77C374.582 122.897 372.771 124.881 372.882 127.202L375.434 180.805C375.545 183.125 377.535 184.903 379.879 184.776L393.827 184.019C396.171 183.892 397.982 181.908 397.872 179.587L395.319 125.984C395.209 123.664 393.219 121.886 390.875 122.013Z" fill="#F9A510"/>
<path d="M203.545 83.0234L189.724 83.7754L187.998 47.4265C187.753 42.2598 183.314 38.2842 178.107 38.5675L163.745 39.349L163.094 25.6354L177.456 24.8539C190.289 24.1556 201.214 33.95 201.818 46.6745L203.545 83.0234Z" fill="#F9A510"/>
<path d="M162.644 15.7221C160.933 15.8144 159.611 17.2552 159.691 18.9387L160.949 45.2002C161.03 46.8836 162.483 48.1747 164.194 48.0824C165.905 47.99 167.228 46.5492 167.147 44.8657L165.89 18.6042C165.809 16.9208 164.355 15.6297 162.644 15.7221Z" fill="#FFD806"/>
<path d="M256.179 108.268L128.649 115.18L128.996 112.917L131.471 97.3599L131.961 94.2583L133.826 82.5158C134.637 77.4295 138.946 73.5765 144.14 73.2949L236.747 68.2753C241.96 67.9927 246.613 71.36 247.894 76.333L256.16 108.269L256.179 108.268Z" fill="#FFD806"/>
<path d="M330.884 92.0806L70.3127 106.214C33.8536 108.192 5.68812 139.033 7.4063 175.096C9.12447 211.159 40.076 238.794 76.535 236.816L337.107 222.683C361.731 221.347 380.75 200.522 379.589 176.165L377.569 133.771C376.409 109.415 355.509 90.7545 330.885 92.0901L330.884 92.0806Z" fill="#FFD806"/>
<g style="mix-blend-mode:screen" opacity="0.5">
<path d="M372.479 115.368C363.602 107.836 351.521 103.528 338.435 104.233L64.7324 118.978C43.6539 120.114 25.1964 129.801 13.1325 144.169C23.0481 122.852 44.6012 107.459 70.2632 106.076L330.61 92.0498C348.713 91.0745 364.805 100.706 372.488 115.367L372.479 115.368Z" fill="#FFD806"/>
</g>
<g style="mix-blend-mode:multiply">
<path d="M379.632 180.798C378.59 203.012 360.349 221.353 337.136 222.618L76.7238 236.813C58.5006 237.807 41.6602 231.505 29.175 220.524C19.1991 211.75 11.9974 199.982 9.07248 186.56C12.684 192.669 17.3173 198.13 22.7608 202.755C35.6504 213.715 53.0399 219.986 71.8699 218.959L340.999 204.289C357.874 203.369 372.215 194.013 379.632 180.798Z" fill="#FFD806"/>
</g>
<path d="M87.2136 97.1248L78.5822 97.5891C74.8931 97.7875 72.0435 100.882 72.2173 104.5L78.6115 237.59C78.7854 241.208 81.9168 243.981 85.6059 243.782L94.2374 243.318C97.9264 243.12 100.776 240.025 100.602 236.407L94.208 103.318C94.0342 99.6989 90.9027 96.9264 87.2136 97.1248Z" fill="#F9A510"/>
<path d="M308.206 85.8885L299.574 86.3527C295.885 86.5512 293.036 89.6455 293.209 93.264L299.604 226.353C299.778 229.972 302.909 232.744 306.598 232.546L315.23 232.082C318.919 231.883 321.768 228.789 321.594 225.171L315.2 92.0812C315.026 88.4626 311.895 85.69 308.206 85.8885Z" fill="#F9A510"/>
<path d="M194.791 204.128C217.64 202.847 235.319 183.476 234.276 160.861C233.234 138.247 213.866 120.953 191.017 122.234C168.168 123.515 150.49 142.886 151.532 165.501C152.574 188.115 171.942 205.409 194.791 204.128Z" fill="#D7E1F4"/>
<path d="M194.433 196.354C212.944 195.316 227.266 179.623 226.422 161.302C225.577 142.981 209.887 128.97 191.375 130.008C172.864 131.046 158.542 146.739 159.386 165.06C160.231 183.381 175.922 197.392 194.433 196.354Z" fill="#99B6FF"/>
<g style="mix-blend-mode:multiply">
<path d="M226.424 161.357C227.268 179.659 212.962 195.33 194.464 196.367C179.881 197.184 167.056 188.652 161.872 176.038C168.314 184.21 178.583 189.213 189.91 188.579C208.398 187.542 222.713 171.861 221.869 153.569C221.692 149.715 220.854 146.052 219.468 142.678C223.544 147.847 226.097 154.271 226.424 161.357Z" fill="#99B6FF"/>
</g>
<path d="M192.645 137.483C192.664 137.904 192.2 138.351 191.407 138.788C191.01 139.012 190.527 139.23 189.965 139.444C189.689 139.555 189.383 139.639 189.08 139.781C188.776 139.923 188.454 140.065 188.121 140.208C187.457 140.504 186.712 140.738 185.953 141.087C185.206 141.464 184.408 141.815 183.583 142.187C182.801 142.662 181.949 143.083 181.119 143.58C180.715 143.852 180.302 144.134 179.878 144.397C179.672 144.533 179.455 144.67 179.239 144.806L178.631 145.281C178.219 145.592 177.817 145.901 177.414 146.202C177.042 146.539 176.671 146.876 176.307 147.193C176.121 147.357 175.934 147.501 175.758 147.674C175.592 147.846 175.425 148.019 175.259 148.181C174.925 148.516 174.592 148.841 174.268 149.166C173.032 150.509 171.938 151.778 171.041 152.911C169.217 155.159 168.057 156.689 167.235 156.486C166.422 156.302 166.157 154.123 167.212 150.95C167.72 149.36 168.615 147.567 169.866 145.715C170.184 145.256 170.551 144.814 170.917 144.353C171.1 144.122 171.293 143.891 171.476 143.661C171.679 143.438 171.892 143.225 172.114 143.002C172.559 142.565 173.004 142.128 173.458 141.681C173.952 141.271 174.467 140.878 174.981 140.475C175.243 140.279 175.505 140.082 175.757 139.886C176.03 139.708 176.313 139.548 176.586 139.379C177.143 139.061 177.681 138.743 178.218 138.426C179.326 137.875 180.449 137.458 181.495 137.035C182.586 136.734 183.62 136.485 184.589 136.277C185.559 136.098 186.488 136.085 187.318 136.029C187.734 136.005 188.131 136.002 188.499 136.001C188.867 136.009 189.228 136.075 189.55 136.114C190.203 136.212 190.77 136.324 191.222 136.461C192.135 136.736 192.626 137.091 192.636 137.503L192.645 137.483Z" fill="#C7DAFF"/>
<path d="M190.9 123.496C189.689 123.566 188.745 124.588 188.799 125.792C188.853 126.996 189.884 127.905 191.095 127.835C192.305 127.765 193.25 126.743 193.196 125.539C193.142 124.335 192.12 123.426 190.9 123.496Z" fill="#ADC0E0"/>
<path d="M194.714 198.537C193.504 198.606 192.559 199.628 192.613 200.833C192.667 202.037 193.698 202.945 194.909 202.876C196.12 202.806 197.064 201.774 197.01 200.58C196.957 199.385 195.935 198.466 194.714 198.537Z" fill="#ADC0E0"/>
<path d="M155.289 162.919C154.078 162.989 153.134 164.021 153.187 165.215C153.241 166.41 154.273 167.328 155.483 167.258C156.694 167.189 157.638 166.157 157.584 164.962C157.531 163.768 156.499 162.85 155.289 162.919Z" fill="#ADC0E0"/>
<path d="M230.326 159.104C229.115 159.174 228.171 160.205 228.225 161.4C228.278 162.595 229.31 163.513 230.52 163.443C231.731 163.373 232.675 162.342 232.622 161.147C232.568 159.952 231.536 159.034 230.326 159.104Z" fill="#ADC0E0"/>
<path d="M163.412 136.558C162.588 137.459 162.649 138.825 163.549 139.626C164.449 140.427 165.834 140.347 166.658 139.447C167.482 138.547 167.421 137.18 166.521 136.379C165.62 135.578 164.235 135.658 163.412 136.558Z" fill="#ADC0E0"/>
<path d="M219.162 186.924C218.338 187.824 218.399 189.191 219.299 189.991C220.199 190.792 221.585 190.713 222.408 189.812C223.232 188.912 223.171 187.546 222.271 186.745C221.371 185.944 219.985 186.023 219.162 186.924Z" fill="#ADC0E0"/>
<path d="M166.109 189.621C165.285 190.521 165.346 191.888 166.247 192.689C167.147 193.49 168.532 193.41 169.356 192.51C170.179 191.61 170.118 190.243 169.218 189.442C168.318 188.641 166.933 188.721 166.109 189.621Z" fill="#ADC0E0"/>
<path d="M216.464 133.861C215.641 134.761 215.702 136.128 216.602 136.929C217.502 137.73 218.887 137.65 219.711 136.75C220.535 135.85 220.474 134.483 219.573 133.682C218.673 132.881 217.288 132.961 216.464 133.861Z" fill="#ADC0E0"/>
<path d="M86.1092 164.194C83.4704 164.34 81.4333 166.575 81.5558 169.191C81.6782 171.807 83.9135 173.807 86.5523 173.662C89.1911 173.516 91.2281 171.28 91.1057 168.664C90.9832 166.048 88.7479 164.048 86.1092 164.194Z" fill="#FFE471"/>
<path d="M84.4664 132.603C87.1052 132.458 89.1422 130.222 89.0198 127.606C88.8973 124.99 86.662 122.99 84.0232 123.136C81.3844 123.282 79.3474 125.517 79.4699 128.133C79.5923 130.749 81.8276 132.749 84.4664 132.603Z" fill="#FFE471"/>
<path d="M88.1637 204.598C85.525 204.743 83.4879 206.979 83.6104 209.595C83.7328 212.211 85.9681 214.211 88.6069 214.065C91.2457 213.92 93.2827 211.684 93.1603 209.068C93.0378 206.452 90.8025 204.452 88.1637 204.598Z" fill="#FFE471"/>
<path d="M307.103 152.957C304.464 153.103 302.427 155.339 302.55 157.955C302.672 160.571 304.908 162.57 307.546 162.425C310.185 162.279 312.222 160.043 312.1 157.427C311.977 154.811 309.742 152.812 307.103 152.957Z" fill="#FFE471"/>
<path d="M305.459 121.367C308.097 121.221 310.134 118.985 310.012 116.369C309.889 113.753 307.654 111.753 305.015 111.899C302.377 112.045 300.34 114.28 300.462 116.896C300.584 119.512 302.82 121.512 305.459 121.367Z" fill="#FFE471"/>
<path d="M309.156 193.361C306.517 193.506 304.48 195.742 304.603 198.358C304.725 200.974 306.96 202.974 309.599 202.828C312.238 202.683 314.275 200.447 314.152 197.831C314.03 195.215 311.795 193.215 309.156 193.361Z" fill="#FFE471"/>
</svg>
