<svg width="1440" height="453" viewBox="0 0 1440 453" fill="none" xmlns="http://www.w3.org/2000/svg">
<path opacity="0.05" d="M-215.338 10.2954C-192.072 5.59649 -168.56 2.5698 -144.911 1.28737L-136.033 0.908992C-133.074 0.797369 -130.121 0.630964 -127.152 0.648978L-118.255 0.60113C-115.29 0.599784 -112.329 0.543418 -109.355 0.671708L-100.444 0.954926C-97.4741 1.06385 -94.508 1.11771 -91.5335 1.3607L-82.6153 1.97929C-79.6458 2.19502 -76.6586 2.37372 -73.7384 2.70812L-64.9383 3.61714L-62.7398 3.85247L-60.5522 4.13609L-56.1801 4.70358L-51.8076 5.27501C-50.3502 5.46424 -48.8928 5.6534 -47.4493 5.89115L-38.7669 7.24864C-35.8657 7.67951 -32.997 8.21984 -30.124 8.73997L-21.512 10.3247L-12.9592 12.0882L-8.68539 12.9761L-4.44322 13.9457L4.03648 15.9011C6.8515 16.5802 9.64685 17.3083 12.4521 18.0119C18.0775 19.3863 23.6109 20.9699 29.1713 22.4879L31.2527 23.0649L33.319 23.6748L37.4518 24.8945L41.5816 26.1145C42.9591 26.5197 44.3366 26.925 45.6991 27.3631C51.1529 29.0916 56.6432 30.7617 62.0356 32.6019L70.15 35.3186L78.197 38.1476L82.2191 39.5622L86.21 41.0268L94.1837 43.9646C96.8355 44.9536 99.461 45.9803 102.1 46.9902C104.73 48.0086 107.383 49.0015 109.987 50.0537C115.211 52.1409 120.454 54.2029 125.617 56.3624L133.381 59.5783L141.089 62.8541L144.941 64.4962L148.764 66.1643L156.409 69.5046C166.545 74.0131 176.632 78.5691 186.577 83.2197C196.562 87.8474 206.401 92.5621 216.217 97.2747C225.988 102.003 235.725 106.75 245.345 111.498L302.345 139.723C311.733 144.364 321.025 148.898 330.306 153.401C339.554 157.852 348.789 162.284 357.944 166.541C367.12 170.843 376.223 174.962 385.31 179.018L392.106 181.997L395.504 183.486L398.89 184.929L405.662 187.819L412.409 190.616C448.373 205.49 483.689 217.535 518.295 225.157C526.932 226.985 535.551 228.704 544.09 229.943L547.296 230.435L548.901 230.684L550.496 230.881L556.881 231.688L558.476 231.893L560.065 232.048L563.243 232.357L566.421 232.671C567.482 232.777 568.542 232.888 569.593 232.945C573.803 233.209 578.038 233.59 582.22 233.683L585.366 233.805C586.412 233.834 587.471 233.918 588.511 233.904L594.77 233.945C595.814 233.943 596.864 233.988 597.899 233.954L601.012 233.873L607.242 233.716L613.436 233.351L616.537 233.181L619.617 232.889L625.784 232.329L631.915 231.555L634.983 231.173C635.495 231.12 636.005 231.038 636.511 230.949L638.034 230.698L644.135 229.709C652.215 228.269 660.322 226.447 668.519 224.266C676.714 222.058 684.982 219.436 693.314 216.524C695.399 215.768 697.48 215.064 699.575 214.276L705.865 211.895C710.074 210.223 714.285 208.573 718.527 206.759C735.469 199.66 752.707 191.307 770.243 182.304C787.804 173.244 805.664 163.508 823.987 153.504L837.801 145.976L851.813 138.409C861.223 133.369 870.722 128.325 880.419 123.38C890.107 118.432 899.938 113.567 909.923 108.856L917.452 105.389C919.963 104.246 922.462 103.054 924.989 101.969L932.552 98.6538L936.334 97L940.133 95.4161C980.616 78.4117 1021.88 64.9178 1063.65 55.1705C1105.41 45.3922 1147.63 39.1302 1190.04 36.6137C1232.44 34.062 1275.01 35.0553 1317.42 39.8132L1325.38 40.7165C1328.03 41.0374 1330.67 41.41 1333.32 41.7547C1335.97 42.1153 1338.62 42.4403 1341.27 42.8287L1349.2 44.0338C1354.5 44.7825 1359.76 45.7917 1365.03 46.709L1372.92 48.1112L1376.87 48.8164C1378.18 49.0369 1379.49 49.3454 1380.8 49.6019L1396.49 52.8572L1400.41 53.6751C1401.72 53.9478 1403.01 54.277 1404.31 54.5777L1412.11 56.4112L1419.9 58.2489L1423.79 59.1678L1427.66 60.1717L1443.14 64.2236L1447 65.2358L1450.85 66.3329L1458.53 68.5273L1466.21 70.7219L1470.05 71.8274L1473.87 72.9978L1489.13 77.692C1490.4 78.0864 1491.68 78.4643 1492.94 78.8749L1496.73 80.1148L1504.31 82.5946C1514.43 85.8346 1524.45 89.3648 1534.49 92.8137C1537 93.6636 1539.49 94.5752 1541.98 95.4702L1549.46 98.1637C1554.45 99.9622 1559.45 101.732 1564.39 103.605L1579.26 109.153C1584.22 111.01 1589.13 112.928 1594.07 114.814C1603.95 118.568 1613.72 122.466 1623.54 126.305C1643.09 134.064 1662.58 141.911 1681.93 149.758C1720.67 165.468 1759.02 180.973 1797.32 195.364L1811.67 200.643L1818.85 203.282L1826.01 205.819L1840.35 210.889L1854.69 215.726C1857.08 216.527 1859.47 217.356 1861.86 218.133L1869.02 220.417C1873.8 221.932 1878.58 223.49 1883.36 224.97L1897.69 229.245L1901.28 230.316C1902.47 230.673 1903.67 231.034 1904.86 231.355L1912.03 233.331C1931.15 238.773 1950.27 243.242 1969.41 247.314L1983.77 250.106L1987.36 250.805C1988.55 251.043 1989.75 251.206 1990.94 251.413L1998.12 252.585L2005.3 253.761L2008.89 254.349C2010.09 254.528 2011.28 254.664 2012.48 254.827L2026.83 256.697L2030.42 257.167L2034 257.506L2041.17 258.189L2048.34 258.875L2051.93 259.21L2055.52 259.423L2069.87 260.281L2071.66 260.387L2073.46 260.434L2077.05 260.524L2084.24 260.707L2091.42 260.894L2098.61 260.839L2105.8 260.785L2109.4 260.759L2111.2 260.747L2113 260.679L2127.38 260.099L2130.98 259.955L2134.57 259.7L2141.76 259.179L2148.96 258.662L2150.75 258.535C2151.35 258.485 2151.95 258.413 2152.55 258.356L2156.14 257.983L2170.52 256.499L2184.87 254.585L2188.46 254.105L2190.26 253.868C2190.85 253.787 2191.45 253.675 2192.05 253.583L2199.21 252.411L2206.38 251.24L2209.97 250.654C2211.16 250.441 2212.35 250.198 2213.54 249.974L2227.85 247.218C2230.24 246.789 2232.61 246.212 2234.99 245.701L2242.12 244.125L2249.26 242.548L2256.38 240.788C2282.61 234.419 2308.68 226.584 2334.57 217.582L2340.11 291.035C2317.26 300.73 2294.12 309.546 2270.68 317.272L2263.28 319.739L2255.84 322.024L2248.4 324.31C2245.91 325.059 2243.44 325.87 2240.94 326.533L2225.95 330.697L2222.2 331.728L2218.43 332.665L2210.89 334.535L2203.34 336.406C2202.71 336.556 2202.09 336.726 2201.45 336.865L2199.56 337.277L2195.76 338.106L2180.58 341.4L2165.31 344.25L2161.5 344.962C2160.86 345.077 2160.22 345.204 2159.59 345.312L2157.67 345.611L2149.99 346.8L2142.32 347.99L2138.48 348.577L2134.62 349.051L2119.19 350.941L2117.26 351.171L2115.32 351.345L2111.45 351.693L2103.7 352.387L2095.95 353.076L2088.18 353.514L2080.4 353.949L2076.51 354.165L2074.56 354.273L2072.61 354.317L2057 354.661L2053.09 354.744L2049.19 354.703L2041.38 354.599L2033.56 354.491L2029.65 354.436L2025.75 354.249L2010.14 353.49C2008.84 353.422 2007.53 353.375 2006.23 353.287L2002.34 352.973L1994.55 352.338L1986.75 351.698C1985.46 351.583 1984.15 351.508 1982.86 351.356L1978.97 350.919L1963.43 349.17C1942.75 346.477 1922.09 343.332 1901.62 339.214L1893.93 337.732C1892.64 337.497 1891.37 337.218 1890.09 336.943L1886.26 336.121L1870.94 332.823C1865.85 331.67 1860.78 330.445 1855.69 329.256L1848.06 327.46C1845.52 326.845 1843 326.186 1840.47 325.551L1825.28 321.7L1810.17 317.635L1802.61 315.596L1795.08 313.468L1780.03 309.203C1740.02 297.567 1700.4 284.929 1661.19 272.392C1641.56 266.11 1622.06 259.929 1602.59 253.863C1592.88 250.89 1583.15 247.846 1573.46 244.989C1568.62 243.551 1563.77 242.07 1558.93 240.666L1544.44 236.487C1539.6 235.064 1534.78 233.77 1529.96 232.436L1522.73 230.442C1520.32 229.781 1517.91 229.101 1515.5 228.491C1505.88 226 1496.26 223.411 1486.67 221.15L1479.48 219.399L1475.88 218.522C1474.68 218.233 1473.49 217.979 1472.29 217.709L1457.93 214.495L1454.34 213.689L1450.76 212.958L1443.61 211.507L1436.45 210.057L1432.87 209.329L1429.3 208.692L1415.03 206.139L1411.46 205.506L1407.9 204.963L1400.79 203.873L1393.67 202.782C1392.49 202.606 1391.3 202.403 1390.12 202.25L1386.57 201.809L1372.4 200.031C1371.22 199.894 1370.03 199.706 1368.86 199.609L1365.33 199.273L1358.26 198.601C1353.56 198.168 1348.85 197.64 1344.16 197.367L1337.12 196.871C1334.78 196.719 1332.43 196.627 1330.09 196.498C1327.74 196.386 1325.4 196.241 1323.05 196.152L1316.02 195.929C1278.51 194.779 1241.1 196.993 1204.1 202.286C1167.1 207.543 1130.52 216.084 1094.64 227.594C1058.76 239.074 1023.63 253.759 989.52 271.294L986.32 272.923L983.139 274.619L976.779 278.01C974.653 279.117 972.561 280.332 970.45 281.489L964.135 284.999C955.726 289.783 947.276 294.788 938.77 299.972C930.268 305.147 921.682 310.558 913.033 316.054L899.995 324.4L886.804 332.912C869.136 344.334 851.008 356.049 832.285 367.561C813.514 379.048 794.15 390.367 773.861 400.797C768.815 403.428 763.658 405.949 758.507 408.466L750.698 412.15C748.09 413.371 745.431 414.53 742.798 415.718C732.207 420.396 721.409 424.81 710.356 428.779C699.298 432.724 687.995 436.278 676.528 439.324L667.932 441.474L665.783 442.006C665.065 442.187 664.349 442.36 663.628 442.506L659.314 443.432C656.435 444.04 653.556 444.671 650.675 445.25L642.014 446.793L637.681 447.555L633.343 448.182L624.661 449.415C621.766 449.762 618.873 450.062 615.976 450.382L611.63 450.853C610.181 451.011 608.735 451.089 607.287 451.216L598.599 451.879C597.148 452.006 595.707 452.033 594.262 452.115L589.924 452.312C584.132 452.64 578.372 452.644 572.595 452.741C571.149 452.777 569.713 452.752 568.274 452.731L563.957 452.669L559.64 452.603L557.483 452.562L555.333 452.473L546.734 452.105L544.584 452.008L542.445 451.863L538.163 451.565C526.729 450.832 515.408 449.548 504.132 448.082L495.707 446.862C494.306 446.648 492.893 446.467 491.499 446.229L487.312 445.528L478.943 444.105L470.626 442.524L466.466 441.726L462.337 440.858L454.074 439.11L445.871 437.223L441.767 436.274C440.402 435.954 439.049 435.602 437.691 435.267L429.544 433.233C426.833 432.541 424.147 431.804 421.449 431.088C416.039 429.676 410.709 428.119 405.35 426.604C404.007 426.228 402.677 425.835 401.349 425.433L397.365 424.241C394.712 423.438 392.036 422.664 389.405 421.832C384.133 420.167 378.833 418.541 373.611 416.802L365.758 414.218L357.954 411.567L354.052 410.237L350.177 408.878L342.43 406.155C332.152 402.464 321.913 398.719 311.806 394.865C301.664 391.037 291.653 387.111 281.666 383.184C271.724 379.237 261.807 375.272 252.006 371.293L193.919 347.664C184.355 343.789 174.884 340.009 165.435 336.267C156.017 332.573 146.623 328.898 137.316 325.401C127.988 321.854 118.743 318.491 109.526 315.188L102.636 312.778L99.1921 311.573L95.7634 310.411L88.9091 308.089L82.0845 305.852C77.5303 304.339 73.0118 302.953 68.4907 301.532C66.2259 300.804 63.9824 300.165 61.7302 299.487C59.4817 298.821 57.2283 298.127 54.9845 297.485L48.27 295.587L44.9158 294.639L41.5748 293.75L34.8985 291.971L28.2577 290.316C23.8243 289.169 19.4355 288.227 15.0368 287.191C13.9351 286.925 12.8426 286.702 11.7494 286.472L8.46981 285.779L5.19023 285.087L3.55173 284.738L1.92177 284.425C-2.42211 283.614 -6.77808 282.721 -11.0829 282.041C-13.241 281.684 -15.4014 281.295 -17.5523 280.957L-23.9814 280.02L-27.1948 279.548L-30.3872 279.16L-36.7671 278.374L-43.1059 277.746C-45.2177 277.539 -47.3315 277.304 -49.4223 277.183L-55.7077 276.721C-56.7584 276.629 -57.7965 276.587 -58.8349 276.541L-61.9535 276.397L-65.0696 276.249L-66.6262 276.175L-68.1737 276.143L-74.3604 276.024C-76.4363 275.945 -78.4421 276.022 -80.4691 276.05L-86.5354 276.135C-88.5541 276.118 -90.5798 276.28 -92.6015 276.378L-98.6622 276.692C-100.681 276.75 -102.701 276.987 -104.72 277.164L-110.772 277.703C-112.788 277.836 -114.803 278.151 -116.816 278.399L-122.854 279.162C-138.941 281.411 -154.926 284.85 -170.708 289.434C-189.294 294.834 -207.598 301.819 -225.448 310.298L-247.508 17.8776C-236.84 14.9884 -226.111 12.4459 -215.325 10.2666L-215.338 10.2954Z" fill="white"/>
</svg>
