<svg width="1440" height="460" viewBox="0 0 1440 460" fill="none" xmlns="http://www.w3.org/2000/svg">
<path opacity="0.05" d="M2317.26 396.2C2294.29 402.283 2270.99 406.712 2247.45 409.408L2238.6 410.317C2235.66 410.606 2232.72 410.949 2229.75 411.108L2220.87 411.689C2217.91 411.868 2214.96 412.101 2211.98 412.151L2203.07 412.402C2200.1 412.471 2197.14 412.594 2194.15 412.53L2185.22 412.446C2182.24 412.408 2179.25 412.409 2176.31 412.25L2167.48 411.869L2165.27 411.766L2163.07 411.613L2158.67 411.309L2154.28 411C2152.81 410.898 2151.35 410.796 2149.89 410.646L2141.15 409.81C2138.23 409.553 2135.33 409.186 2132.44 408.838L2123.75 407.772L2115.12 406.523L2110.8 405.892L2106.51 405.178L2097.94 403.734C2095.09 403.224 2092.26 402.665 2089.42 402.13C2083.73 401.095 2078.12 399.845 2072.48 398.662L2070.37 398.211L2068.28 397.726L2064.08 396.755L2059.89 395.784C2058.49 395.462 2057.1 395.14 2055.71 394.784C2050.17 393.385 2044.6 392.046 2039.11 390.532L2030.86 388.305L2022.67 385.963L2018.58 384.791L2014.51 383.568L2006.39 381.112C2003.69 380.284 2001.01 379.416 1998.32 378.566C1995.64 377.706 1992.94 376.874 1990.28 375.979C1984.95 374.208 1979.6 372.463 1974.33 370.616L1966.4 367.871L1958.52 365.061L1954.58 363.653L1950.68 362.216L1942.86 359.339C1932.49 355.445 1922.17 351.5 1911.98 347.452C1901.76 343.43 1891.68 339.312 1881.62 335.195C1871.6 331.059 1861.62 326.903 1851.75 322.738L1793.29 297.971C1783.66 293.9 1774.13 289.93 1764.62 285.989C1755.14 282.1 1745.68 278.228 1736.3 274.526C1726.9 270.78 1717.59 267.213 1708.29 263.707L1701.34 261.14L1697.87 259.857L1694.41 258.619L1687.49 256.139L1680.6 253.75C1643.87 241.054 1607.95 231.143 1572.98 225.604C1564.26 224.296 1555.56 223.096 1546.96 222.371L1543.74 222.07L1542.12 221.919L1540.52 221.817L1534.1 221.394L1532.49 221.284L1530.9 221.225L1527.71 221.106L1524.52 220.984C1523.45 220.94 1522.39 220.893 1521.34 220.9C1517.12 220.888 1512.87 220.761 1508.69 220.918L1505.54 220.985C1504.5 221.018 1503.44 220.998 1502.4 221.075L1496.15 221.408C1495.11 221.473 1494.05 221.491 1493.02 221.586L1489.92 221.853L1483.71 222.384L1477.54 223.118L1474.46 223.474L1471.4 223.949L1465.27 224.878L1459.19 226.018L1456.15 226.582C1455.65 226.666 1455.14 226.778 1454.64 226.897L1453.13 227.239L1447.1 228.592C1439.11 230.513 1431.12 232.817 1423.05 235.485C1414.99 238.181 1406.88 241.293 1398.73 244.698C1396.69 245.578 1394.65 246.405 1392.6 247.317L1386.45 250.071C1382.34 251.993 1378.23 253.891 1374.1 255.956C1357.57 264.058 1340.82 273.429 1323.81 283.466C1306.78 293.562 1289.49 304.352 1271.75 315.436L1258.37 323.778L1244.8 332.172C1235.69 337.767 1226.48 343.37 1217.07 348.887C1207.67 354.407 1198.13 359.852 1188.42 365.154L1181.09 369.065C1178.65 370.356 1176.22 371.697 1173.76 372.931L1166.39 376.693L1162.71 378.571L1159 380.38C1119.52 399.779 1079.07 415.72 1037.91 427.951C996.76 440.213 954.949 448.992 912.752 454.043C870.561 459.128 828.01 460.684 785.401 458.473L777.413 458.047C774.749 457.885 772.087 457.672 769.422 457.486C766.758 457.285 764.097 457.119 761.432 456.89L753.443 456.161C748.112 455.731 742.808 455.038 737.499 454.438L729.539 453.51L725.561 453.042C724.234 452.901 722.916 452.671 721.593 452.494L705.748 450.183L701.788 449.601C700.469 449.407 699.16 449.156 697.843 448.934L689.96 447.57L682.08 446.201L678.142 445.517L674.221 444.746L658.549 441.627L654.633 440.848L650.735 439.983L642.942 438.252L635.152 436.521L631.259 435.647L627.384 434.707L611.89 430.934C610.601 430.616 609.306 430.315 608.021 429.981L604.169 428.97L596.467 426.948C586.177 424.319 575.986 421.394 565.774 418.552C563.216 417.854 560.684 417.093 558.142 416.349L550.526 414.107C545.451 412.61 540.362 411.143 535.321 409.569L520.17 404.92C515.122 403.363 510.11 401.741 505.079 400.154C495.007 396.997 485.031 393.692 475.021 390.447C455.072 383.871 435.179 377.203 415.434 370.526C375.887 357.161 336.742 343.978 297.713 331.903L283.097 327.492L275.788 325.287L268.492 323.183L253.894 318.979L239.318 315.008C236.888 314.351 234.458 313.667 232.028 313.035L224.747 311.183C219.895 309.956 215.035 308.687 210.185 307.496L195.639 304.085L192.001 303.231C190.787 302.946 189.576 302.657 188.364 302.408L181.097 300.865C161.707 296.576 142.371 293.259 123.037 290.339L108.554 288.411L104.932 287.929C103.725 287.762 102.522 287.671 101.316 287.536L94.0877 286.795L86.8559 286.051L83.2397 285.679C82.0347 285.572 80.8353 285.508 79.6321 285.417L65.2023 284.408L61.5928 284.154L57.9977 284.03L50.8009 283.778L43.6011 283.522L40.0006 283.402L36.4102 283.404L22.0336 283.407L20.2354 283.408L18.4393 283.469L14.8506 283.594L7.66676 283.841L0.479535 284.085L-6.6938 284.57L-13.87 285.054L-17.4613 285.295L-19.2555 285.416L-21.0452 285.591L-35.3739 287.031L-38.9584 287.39L-42.5316 287.859L-49.6816 288.81L-56.8351 289.757L-58.6231 289.991C-59.2191 290.076 -59.8123 290.185 -60.4074 290.277L-63.9707 290.864L-78.2394 293.207L-92.4641 295.976L-96.0223 296.67L-97.8015 297.015C-98.3934 297.131 -98.9842 297.279 -99.5745 297.407L-106.663 299.005L-113.755 300.604L-117.302 301.403C-118.482 301.687 -119.655 302.001 -120.834 302.296L-134.963 305.904C-137.326 306.475 -139.66 307.193 -142.007 307.846L-149.042 309.846L-156.084 311.848L-163.09 314.031C-188.928 321.96 -214.523 331.341 -239.875 341.878L-249.461 268.878C-227.18 257.832 -204.566 247.645 -181.591 238.529L-174.343 235.623L-167.041 232.897L-159.734 230.169C-157.294 229.273 -154.871 228.315 -152.411 227.503L-137.677 222.449L-133.989 221.196L-130.278 220.034L-122.853 217.716L-115.422 215.396C-114.802 215.209 -114.186 215.002 -113.561 214.825L-111.691 214.3L-107.948 213.246L-92.9729 209.049L-77.8895 205.289L-74.1174 204.35C-73.4892 204.197 -72.8596 204.032 -72.2304 203.887L-70.331 203.473L-62.7353 201.826L-55.137 200.179L-51.3337 199.363L-47.5102 198.659L-32.2115 195.848L-30.297 195.504L-28.3727 195.214L-24.5267 194.634L-16.8285 193.478L-9.12682 192.326L-1.38943 191.423L6.35403 190.523L10.2259 190.075L12.1621 189.851L14.1062 189.69L29.6708 188.412L33.5659 188.096L37.4655 187.903L45.2708 187.539L53.0792 187.179L56.9867 187L60.8908 186.954L76.5209 186.777C77.8247 186.766 79.1263 186.736 80.43 186.745L84.336 186.825L92.1496 186.994L99.9663 187.166C101.268 187.203 102.573 187.2 103.873 187.274L107.775 187.478L123.392 188.293C144.187 189.744 164.983 191.648 185.65 194.533L193.411 195.553C194.708 195.71 195.995 195.913 197.283 196.111L201.15 196.702L216.626 199.078C221.774 199.924 226.908 200.844 232.052 201.726L239.766 203.063C242.335 203.524 244.889 204.032 247.452 204.514L262.824 207.449L278.141 210.603L285.799 212.186L293.429 213.86L308.69 217.217C349.277 226.44 389.532 236.685 429.364 246.854C449.309 251.951 469.119 256.955 488.893 261.845C498.755 264.232 508.638 266.688 518.461 268.961C523.376 270.107 528.302 271.296 533.206 272.407L547.911 275.712C552.818 276.843 557.699 277.847 562.585 278.89L569.915 280.448C572.356 280.963 574.803 281.498 577.237 281.963C586.977 283.874 596.728 285.883 606.424 287.566L613.705 288.884L617.344 289.543C618.558 289.76 619.764 289.943 620.975 290.14L635.485 292.49L639.112 293.08L642.726 293.595L649.953 294.615L657.177 295.635L660.788 296.147L664.387 296.57L678.778 298.264L682.374 298.683L685.958 299.012L693.123 299.674L700.283 300.338C701.476 300.442 702.673 300.574 703.86 300.656L707.425 300.884L721.677 301.81C722.862 301.876 724.053 301.993 725.233 302.02L728.779 302.144L735.866 302.392C740.588 302.543 745.32 302.788 750.016 302.78L757.068 302.853C759.417 302.865 761.766 302.817 764.114 302.805C766.463 302.777 768.81 302.78 771.156 302.729L778.191 302.531C815.698 301.434 852.924 296.984 889.57 289.486C926.223 282.022 962.274 271.307 997.45 257.668C1032.64 244.06 1066.9 227.297 1099.99 207.749L1103.09 205.93L1106.18 204.047L1112.34 200.281C1114.4 199.049 1116.42 197.71 1118.46 196.429L1124.57 192.547C1132.71 187.267 1140.87 181.765 1149.07 176.081C1157.27 170.405 1165.55 164.488 1173.88 158.484L1186.43 149.372L1199.13 140.084C1216.14 127.624 1233.59 114.843 1251.65 102.229C1269.76 89.6372 1288.46 77.1782 1308.14 65.5515C1313.04 62.6228 1318.04 59.7969 1323.05 56.9758L1330.64 52.8311C1333.18 51.4554 1335.77 50.1396 1338.33 48.7959C1348.65 43.4916 1359.18 38.4384 1370 33.8148C1380.82 29.2143 1391.91 24.9895 1403.19 21.2627L1411.65 18.6014L1413.77 17.9419C1414.47 17.7179 1415.18 17.5022 1415.89 17.3133L1420.15 16.1303C1422.99 15.3518 1425.83 14.5496 1428.67 13.7985L1437.23 11.7397L1441.52 10.7198L1445.81 9.83357L1454.41 8.08368C1457.28 7.56342 1460.16 7.09084 1463.03 6.59792L1467.34 5.8683C1468.78 5.62379 1470.22 5.45862 1471.66 5.24577L1480.3 4.0636C1481.74 3.85033 1483.17 3.73717 1484.61 3.56809L1488.93 3.11205C1494.7 2.43842 1500.45 2.08892 1506.21 1.64632C1507.65 1.52452 1509.09 1.46335 1510.52 1.39786L1514.84 1.2014L1519.15 1.00885L1521.31 0.920601L1523.46 0.880855L1532.06 0.733554L1534.21 0.70162L1536.36 0.718591L1540.65 0.75993C1552.1 0.80743 1563.48 1.4117 1574.82 2.19992L1583.29 2.91421C1584.7 3.04356 1586.13 3.13962 1587.53 3.29365L1591.75 3.74317L1600.18 4.66255L1608.57 5.74327L1612.77 6.29144L1616.94 6.91093L1625.29 8.1612L1633.58 9.55411L1637.73 10.2562C1639.11 10.4932 1640.48 10.7636 1641.85 11.0175L1650.1 12.5604C1652.85 13.0885 1655.57 13.6638 1658.3 14.2174C1663.78 15.3031 1669.19 16.5382 1674.62 17.7297C1675.98 18.0251 1677.33 18.3382 1678.68 18.6595L1682.72 19.6113C1685.42 20.2543 1688.13 20.8663 1690.8 21.5399C1696.16 22.886 1701.54 24.1924 1706.85 25.6165L1714.83 27.726L1722.77 29.9058L1726.74 30.9996L1730.68 32.1249L1738.57 34.3796C1749.03 37.4486 1759.46 40.5745 1769.76 43.8178C1780.1 47.0322 1790.31 50.3523 1800.5 53.6756C1810.64 57.0212 1820.76 60.386 1830.76 63.7711L1890.06 83.8841C1899.82 87.1805 1909.49 90.3874 1919.12 93.558C1928.73 96.6816 1938.31 99.7889 1947.8 102.723C1957.31 105.705 1966.72 108.51 1976.11 111.255L1983.12 113.249L1986.62 114.246L1990.11 115.201L1997.08 117.109L2004.02 118.933C2008.65 120.172 2013.23 121.285 2017.83 122.433C2020.13 123.024 2022.4 123.528 2024.69 124.07C2026.97 124.6 2029.26 125.158 2031.53 125.665L2038.34 127.158L2041.74 127.903L2045.13 128.591L2051.89 129.967L2058.61 131.222C2063.1 132.102 2067.53 132.78 2071.98 133.551C2073.1 133.75 2074.2 133.907 2075.3 134.072L2078.62 134.567L2081.93 135.062L2083.58 135.312L2085.23 135.527C2089.61 136.077 2094.01 136.708 2098.34 137.129C2100.52 137.356 2102.7 137.615 2104.86 137.824L2111.33 138.374L2114.57 138.654L2117.78 138.849L2124.19 139.253L2130.55 139.5C2132.67 139.581 2134.79 139.688 2136.89 139.684L2143.19 139.77C2144.24 139.798 2145.28 139.778 2146.32 139.761L2149.44 139.718L2152.56 139.68L2154.12 139.661L2155.67 139.6L2161.85 139.348C2163.93 139.303 2165.92 139.106 2167.95 138.957L2174 138.509C2176.01 138.405 2178.03 138.122 2180.04 137.903L2186.07 137.227C2188.09 137.048 2190.09 136.691 2192.1 136.393L2198.11 135.493C2200.11 135.239 2202.11 134.804 2204.1 134.437L2210.09 133.314C2226.03 130.105 2241.79 125.715 2257.3 120.193C2275.55 113.69 2293.44 105.621 2310.79 96.0881L2348.96 386.704C2338.47 390.227 2327.9 393.408 2317.25 396.229L2317.26 396.2Z" fill="white"/>
</svg>
