<svg width="577" height="501" viewBox="0 0 577 501" fill="none" xmlns="http://www.w3.org/2000/svg">
<path d="M329.223 393.55C329.305 393.757 329.388 393.984 329.491 394.191C336.491 411.163 336.759 432.141 335.066 451.179C333.393 470.092 329.78 487.086 328.872 496.295C327.468 511.202 362.012 487.953 381.379 442.259C386.025 431.316 389.804 419.051 391.992 405.733C397.96 369.537 386.479 321.716 374.297 284.509C363.23 250.853 351.564 225.869 351.564 225.869C325.651 199.233 333.517 259.153 330.647 290.827C327.798 322.294 315.698 359.832 329.243 393.53L329.223 393.55Z" fill="#4E5E8F"/>
<path d="M328.872 496.295C327.468 511.203 362.012 487.953 381.379 442.259C386.025 431.316 389.804 419.051 391.992 405.733C397.96 369.537 386.479 321.717 374.297 284.509C368.908 288.246 361.929 296.939 369.775 314.841C381.379 341.353 382.474 370.549 370.663 382.587C358.832 394.645 357.366 393.489 355.053 413.724C354.723 416.635 354.186 419.629 353.443 422.623C350.573 434.537 344.585 446.162 335.087 451.159C333.414 470.072 329.801 487.065 328.892 496.274L328.872 496.295Z" fill="#E1E8FF"/>
<g style="mix-blend-mode:multiply" opacity="0.13">
<path d="M329.471 394.191C336.471 411.163 336.739 432.142 335.046 451.179C333.374 470.093 329.76 487.086 328.852 496.295C327.448 511.203 361.992 487.953 381.359 442.259C371.056 437.613 361.661 430.573 353.423 422.644C343.698 413.311 335.521 402.76 329.223 393.551C329.306 393.757 329.389 393.984 329.492 394.191H329.471Z" fill="#808080"/>
</g>
<path d="M-353.254 111.314C-343.508 124.261 -294.552 152.445 -274.461 154.076C-254.371 155.687 -221.066 143.546 -218.113 157.256H-218.092C-216.131 166.362 -185.737 229.008 -127.056 283.394C-102.856 305.797 -73.8873 326.796 -40.0866 342.076C-30.9189 346.226 -21.4002 349.942 -11.5098 353.164C103.396 390.578 210.745 391.507 291.168 369.992C310.33 364.85 327.984 358.449 343.82 350.975C435.25 307.738 524.242 246.558 572.145 115.816C576.316 104.418 577.534 93.1647 576.791 83.3363C575.779 69.7087 571.03 58.7446 565.187 53.6652C555.173 44.9518 523.086 51.2081 504.627 49.1846C406.322 38.2412 323.606 46.4384 255.158 71.4431C152.393 108.981 100.237 180.96 -22.2261 186.927C-154.951 193.39 -179.832 150.545 -192.241 120.771C-204.671 90.976 -191.725 56.2049 -208.636 23.2715C-225.567 -9.64134 -244.398 -1.17569 -239.938 9.9742C-235.437 21.1034 -241.528 39.5007 -244.439 54.0782C-247.371 68.6763 -242.395 90.4805 -242.395 90.4805C-242.395 90.4805 -243.262 90.0262 -244.77 89.2623C-252.533 85.525 -277.249 75.1184 -290.587 86.578C-306.507 100.288 -343.57 91.9052 -351.313 87.2388C-359.015 82.5723 -362.979 98.43 -353.254 111.335V111.314Z" fill="#4E5E8F"/>
<g style="mix-blend-mode:screen" opacity="0.55">
<path d="M576.792 91.7811C575.78 78.1534 571.031 67.1894 565.167 62.11C555.153 53.3966 523.066 59.6529 504.607 57.6294C406.302 46.686 323.586 54.8832 255.138 79.8878C152.374 117.426 100.217 189.404 -22.246 195.372C-154.971 201.835 -179.852 158.99 -192.261 129.216C-204.691 99.4208 -191.745 64.6497 -208.656 31.7162C-221.519 6.71157 -235.457 5.59659 -239.462 11.378C-239.607 10.9031 -239.751 10.4076 -239.937 9.93266C-244.418 -1.21722 -225.566 -9.70353 -208.635 23.2299C-191.724 56.184 -204.671 90.9345 -192.24 120.729C-179.831 150.504 -154.95 193.348 -22.2253 186.885C100.238 180.918 152.415 108.94 255.159 71.4016C323.607 46.3969 406.323 38.1997 504.627 49.1431C523.087 51.1872 555.174 44.9309 565.188 53.6237C571.031 58.7031 575.78 69.6878 576.813 83.2948C577.04 86.392 577.06 89.6543 576.875 92.9993C576.854 92.5863 576.854 92.1734 576.813 91.7604L576.792 91.7811Z" fill="#4E5E8F"/>
</g>
<path d="M-145.701 239.229C-115.369 266.855 -9.5896 304.868 3.52185 307.078C68.026 316.844 144.217 321.201 218.983 299.252C387.016 249.924 461.947 110.84 515.095 85.0091C551.084 67.5203 555.648 74.8297 576.791 83.316C577.534 93.165 576.316 104.398 572.145 115.795C524.242 246.538 435.25 307.738 343.82 350.954C261.456 389.876 130.775 399.498 -11.5098 353.164C-21.3796 349.943 -30.8983 346.205 -40.066 342.055C-40.066 342.055 -40.066 342.055 -40.0866 342.055C-40.4789 341.89 -40.83 341.684 -41.2222 341.518C-48.8207 338.05 -56.1714 334.271 -63.2949 330.265C-64.0795 329.832 -64.8435 329.398 -65.6281 328.944C-69.035 326.982 -72.4006 324.979 -75.6837 322.935C-76.1998 322.605 -76.6954 322.275 -77.2116 321.944C-80.1229 320.086 -82.993 318.207 -85.8218 316.287C-86.5445 315.791 -87.2672 315.316 -87.9692 314.821C-91.0664 312.673 -94.1016 310.505 -97.0749 308.296C-97.7769 307.78 -98.4377 307.263 -99.1397 306.747C-101.803 304.744 -104.405 302.721 -106.986 300.656C-107.461 300.284 -107.956 299.913 -108.411 299.521C-111.301 297.187 -114.109 294.833 -116.876 292.459C-117.537 291.901 -118.198 291.323 -118.838 290.745C-121.625 288.309 -124.392 285.852 -127.056 283.374C-185.737 228.987 -216.131 166.341 -218.092 157.256C-216.812 158.929 -175.785 211.829 -145.701 239.187V239.229Z" fill="#E1E8FF"/>
<g style="mix-blend-mode:multiply">
<g style="mix-blend-mode:multiply" opacity="0.13">
<path d="M211.035 323.45C211.2 323.45 211.365 323.45 211.551 323.45C351.193 305.321 514.725 116.062 516.356 114.142C517.244 113.11 517.12 111.582 516.087 110.694C515.055 109.806 513.527 109.93 512.639 110.962C511.008 112.862 348.695 300.717 210.911 318.598C209.569 318.763 208.619 320.002 208.805 321.344C208.949 322.5 209.899 323.368 211.035 323.471V323.45Z" fill="#808080"/>
</g>
</g>
<g style="mix-blend-mode:multiply" opacity="0.13">
<path d="M215.742 359.915C215.866 359.915 215.99 359.915 216.135 359.915C312.953 352.337 398.704 283.951 453.606 227.892C512.949 167.29 550.012 107.68 550.383 107.081C551.085 105.925 550.734 104.438 549.578 103.715C548.442 102.993 546.935 103.364 546.212 104.5C545.841 105.099 509.025 164.317 450.034 224.526C395.751 279.946 311.032 347.567 215.742 355.021C214.4 355.125 213.388 356.302 213.492 357.644C213.595 358.862 214.545 359.791 215.722 359.894L215.742 359.915Z" fill="#808080"/>
</g>
<g style="mix-blend-mode:multiply" opacity="0.13">
<path d="M315.038 348.93C315.306 348.951 315.574 348.93 315.843 348.868C450.426 314.737 538.077 164.048 538.944 162.541C539.605 161.364 539.212 159.877 538.035 159.196C536.858 158.515 535.372 158.928 534.69 160.105C533.823 161.612 447.184 310.525 314.625 344.119C313.324 344.449 312.519 345.771 312.849 347.092C313.117 348.125 314.005 348.847 315.017 348.93H315.038Z" fill="#808080"/>
</g>
<path d="M337.957 160.354C337.235 169.232 343.863 177.017 352.741 177.719C361.62 178.441 369.404 171.813 370.106 162.935C370.829 154.056 364.201 146.272 355.322 145.57C346.444 144.847 338.659 151.475 337.957 160.354Z" fill="white"/>
<path d="M344.564 160.891C344.151 166.115 348.033 170.698 353.257 171.111C358.481 171.524 363.065 167.642 363.478 162.419C363.891 157.195 360.009 152.611 354.785 152.198C349.561 151.785 344.977 155.667 344.564 160.891Z" fill="#1C2124"/>
<path d="M353.713 159.858C353.568 161.572 354.848 163.059 356.541 163.183C358.235 163.327 359.742 162.047 359.866 160.354C360.01 158.661 358.73 157.153 357.037 157.029C355.344 156.885 353.837 158.165 353.713 159.858Z" fill="white"/>
<g style="mix-blend-mode:multiply" opacity="0.13">
<path d="M-353.252 111.314C-343.506 124.261 -294.55 152.445 -274.46 154.076C-254.369 155.687 -221.064 143.546 -218.111 157.256H-218.091C-216.129 166.362 -185.735 229.008 -127.054 283.394C-102.855 305.797 -73.8856 326.796 -40.0849 342.076C-30.9172 346.226 -21.3985 349.943 -11.5081 353.164C103.398 390.578 210.746 391.507 291.17 369.992C160.84 362.889 -19.2511 291.881 -100.955 246.249C-167.937 208.814 -216.749 138.652 -244.768 89.2417C-252.531 85.5045 -277.247 75.0979 -290.586 86.5575C-306.505 100.268 -343.568 91.8847 -351.311 87.2182C-359.013 82.5518 -362.977 98.4094 -353.252 111.314Z" fill="#808080"/>
</g>
<path d="M170.874 455.33C178.803 450.147 186.67 444.118 194.248 437.139C224.724 409.058 247.767 358.512 262.799 316.865C276.344 279.224 283.344 248.851 283.344 248.851C278.78 207.101 244.133 265.927 219.541 292.108C204.737 307.904 185.348 323.307 169.842 341.808C159.601 353.99 151.052 367.494 146.613 383.372C141.038 403.339 126.667 422.211 111.924 437.986C97.2851 453.658 82.2327 466.273 75.0265 473.872C62.4932 487.107 118.016 489.936 170.854 455.33H170.874Z" fill="#4E5E8F"/>
<path d="M194.248 437.119C224.724 409.038 247.767 358.492 262.799 316.845C255.407 316.452 243.142 319.322 237.67 340.714C229.556 372.408 210.229 399.147 191.316 401.666C172.402 404.185 171.907 402.141 155.76 418.515C144.115 430.326 126.853 440.65 111.945 437.966C97.3057 453.637 82.2534 466.253 75.0472 473.852C60.6143 489.069 136.227 490.535 194.248 437.098V437.119Z" fill="#E1E8FF"/>
<g style="mix-blend-mode:multiply" opacity="0.13">
<path d="M170.875 455.33C166.229 451.2 162.45 445.336 160.179 437.221C153.345 412.692 160.964 373.378 169.842 341.807C159.601 353.99 151.053 367.493 146.613 383.372C141.039 403.338 126.668 422.21 111.925 437.985C97.2856 453.657 82.2332 466.273 75.0271 473.871C62.4938 487.107 118.016 489.936 170.854 455.33H170.875Z" fill="#808080"/>
</g>
</svg>
