<svg width="10" height="7" viewBox="0 0 10 7" fill="none" xmlns="http://www.w3.org/2000/svg">
<path d="M4.58366 0H4.63372C5.09613 0.00186849 7.43909 0.0205535 8.07081 0.208649C8.26179 0.266054 8.43581 0.377948 8.5755 0.533149C8.71518 0.688349 8.81563 0.881421 8.8668 1.09307C8.92362 1.32974 8.96356 1.64303 8.99056 1.96628L8.99618 2.03105L9.00856 2.19299L9.01306 2.25776C9.04963 2.82703 9.05412 3.36017 9.05469 3.47664V3.52336C9.05412 3.64419 9.04906 4.21345 9.00856 4.80639L9.00406 4.87179L8.999 4.93656C8.97087 5.29282 8.92924 5.64659 8.8668 5.90693C8.81578 6.11866 8.71539 6.31183 8.57568 6.46705C8.43598 6.62228 8.26187 6.73412 8.07081 6.79135C7.41827 6.98567 4.93806 6.99938 4.59435 7H4.51447C4.34064 7 3.62172 6.99626 2.86793 6.96761L2.77229 6.96388L2.72335 6.96138L2.62716 6.95702L2.53097 6.95266C1.90655 6.92215 1.31195 6.87294 1.038 6.79073C0.847013 6.73355 0.67295 6.62181 0.53325 6.46669C0.393549 6.31158 0.293116 6.11855 0.242012 5.90693C0.17957 5.64721 0.137943 5.29282 0.109816 4.93656L0.105316 4.87116L0.100815 4.80639C0.0730529 4.38436 0.0576689 3.96144 0.0546875 3.5383L0.0546875 3.4617C0.0558126 3.32779 0.0603129 2.86502 0.0906898 2.3543L0.0946275 2.29015L0.0963151 2.25776L0.100815 2.19299L0.113191 2.03105L0.118817 1.96628C0.145818 1.64303 0.185758 1.32912 0.242574 1.09307C0.293593 0.881336 0.393987 0.688173 0.533694 0.532946C0.6734 0.377718 0.847507 0.265882 1.03856 0.208649C1.31252 0.12768 1.90712 0.0778539 2.53153 0.0467123L2.62716 0.0423525L2.72392 0.0386156L2.77229 0.0367471L2.86849 0.0323873C3.40386 0.0133128 3.93945 0.00272356 4.47509 0.00062286H4.58366V0ZM3.65491 1.99929V5.00009L5.99337 3.50031L3.65491 1.99929Z" fill="white"/>
</svg>
