<svg width="393" height="203" viewBox="0 0 393 203" fill="none" xmlns="http://www.w3.org/2000/svg">
<path opacity="0.05" d="M-654.345 4.60177C-643.949 2.50209 -633.443 1.1496 -622.875 0.576569L-618.908 0.407492C-617.586 0.357599 -616.266 0.283255 -614.94 0.291303L-610.964 0.269939C-609.639 0.269314 -608.316 0.244131 -606.987 0.301462L-603.005 0.42802C-601.678 0.476678 -600.353 0.500748 -599.024 0.609323L-595.039 0.885752C-593.712 0.982139 -592.377 1.06199 -591.072 1.21142L-587.14 1.61763L-586.157 1.72278L-585.18 1.8495L-583.226 2.10309L-581.272 2.35845C-580.621 2.44297 -579.97 2.52751 -579.325 2.63374L-575.445 3.24037C-574.149 3.43288 -572.867 3.67431 -571.583 3.90673L-567.735 4.61486L-563.913 5.40289L-562.003 5.79966L-560.108 6.23292L-556.318 7.10666C-555.061 7.41011 -553.811 7.73549 -552.558 8.04991C-550.044 8.66405 -547.572 9.37163 -545.087 10.05L-544.157 10.3078L-543.234 10.5803L-541.387 11.1254L-539.541 11.6705C-538.926 11.8516 -538.31 12.0327 -537.702 12.2285C-535.265 13.0008 -532.811 13.7471 -530.402 14.5694L-526.776 15.7834L-523.18 17.0475L-521.383 17.6796L-519.599 18.3341L-516.036 19.6468C-514.851 20.0887 -513.678 20.5475 -512.499 20.9987C-511.324 21.4538 -510.138 21.8975 -508.975 22.3677C-506.64 23.3004 -504.298 24.2217 -501.991 25.1867L-498.521 26.6237L-495.077 28.0875L-493.355 28.8213L-491.647 29.5667L-488.231 31.0592C-483.702 33.0739 -479.195 35.1097 -474.75 37.1878C-470.289 39.2557 -465.892 41.3624 -461.506 43.4683C-457.14 45.581 -452.789 47.7021 -448.49 49.8239L-423.02 62.4362C-418.825 64.51 -414.673 66.536 -410.526 68.5483C-406.393 70.5371 -402.266 72.5175 -398.176 74.4196C-394.076 76.3421 -390.008 78.1824 -385.947 79.9951L-382.91 81.3262L-381.392 81.9917L-379.879 82.6365L-376.853 83.9278L-373.838 85.1776C-357.768 91.824 -341.987 97.2061 -326.523 100.612C-322.664 101.429 -318.812 102.197 -314.997 102.751L-313.564 102.971L-312.847 103.082L-312.134 103.17L-309.281 103.53L-308.568 103.622L-307.858 103.691L-306.438 103.83L-305.018 103.97C-304.544 104.017 -304.07 104.067 -303.601 104.092C-301.72 104.21 -299.827 104.381 -297.959 104.422L-296.553 104.477C-296.085 104.49 -295.612 104.527 -295.148 104.521L-292.351 104.539C-291.884 104.538 -291.415 104.558 -290.952 104.543L-289.561 104.507L-286.777 104.437L-284.01 104.274L-282.624 104.197L-281.248 104.067L-278.492 103.817L-275.752 103.471L-274.382 103.301C-274.153 103.277 -273.925 103.24 -273.699 103.2L-273.018 103.088L-270.292 102.646C-266.681 102.003 -263.059 101.189 -259.396 100.214C-255.734 99.2272 -252.039 98.0557 -248.317 96.7547C-247.385 96.4169 -246.455 96.1023 -245.519 95.7501L-242.708 94.6863C-240.827 93.9388 -238.946 93.2018 -237.05 92.3912C-229.48 89.2188 -221.777 85.4862 -213.941 81.4635C-206.094 77.4151 -198.113 73.0643 -189.925 68.5941L-183.753 65.2304L-177.492 61.8489C-173.287 59.5968 -169.042 57.3431 -164.709 55.1335C-160.38 52.9224 -155.987 50.7486 -151.525 48.6432L-148.161 47.0941C-147.039 46.5836 -145.922 46.0506 -144.793 45.5659L-141.413 44.0845L-139.723 43.3455L-138.026 42.6377C-119.936 35.0394 -101.498 29.0097 -82.8337 24.6541C-64.1735 20.2847 -45.3047 17.4866 -26.3553 16.362C-7.40842 15.2218 11.6124 15.6657 30.566 17.7917L34.119 18.1954C35.3036 18.3388 36.4861 18.5053 37.6701 18.6593C38.8534 18.8204 40.0368 18.9657 41.2198 19.1392L44.766 19.6777C47.1336 20.0123 49.4826 20.4632 51.8363 20.8731L55.3644 21.4997L57.1274 21.8148C57.7158 21.9133 58.2981 22.0512 58.8839 22.1658L65.8955 23.6204L67.6479 23.9859C68.2316 24.1077 68.8094 24.2548 69.3914 24.3892L72.8741 25.2085L76.3558 26.0297L78.0959 26.4403L79.826 26.8889L86.7407 28.6995L88.4684 29.1518L90.1859 29.642L93.6196 30.6226L97.0521 31.6032L98.7672 32.0972L100.473 32.6202L107.292 34.7178C107.859 34.894 108.429 35.0629 108.994 35.2464L110.688 35.8004L114.074 36.9085C118.599 38.3563 123.073 39.9337 127.559 41.4749C128.683 41.8546 129.794 42.262 130.909 42.6619L134.252 43.8655C136.479 44.6692 138.713 45.4599 140.923 46.2968L147.567 48.7761C149.781 49.6056 151.977 50.4631 154.182 51.3056C158.597 52.9833 162.966 54.7248 167.352 56.4402C176.089 59.9074 184.799 63.4139 193.443 66.9205C210.755 73.9405 227.893 80.8688 245.006 87.2991L251.418 89.658L254.624 90.8374L257.827 91.9711L264.236 94.2365L270.64 96.3981C271.708 96.756 272.776 97.1262 273.844 97.4734L277.046 98.4941C279.18 99.1711 281.317 99.8673 283.451 100.528L289.856 102.439L291.459 102.918C291.993 103.077 292.526 103.238 293.061 103.382L296.264 104.265C304.809 106.696 313.353 108.693 321.906 110.513L328.32 111.76L329.923 112.073C330.458 112.179 330.992 112.252 331.527 112.344L334.733 112.868L337.941 113.394L339.545 113.657C340.08 113.737 340.613 113.797 341.148 113.87L347.56 114.706L349.164 114.916L350.765 115.067L353.969 115.372L357.175 115.679L358.778 115.829L360.38 115.924L366.793 116.307L367.596 116.355L368.398 116.376L370.002 116.416L373.213 116.498L376.426 116.581L379.638 116.557L382.851 116.532L384.459 116.521L385.262 116.515L386.065 116.485L392.493 116.226L394.101 116.161L395.706 116.048L398.919 115.815L402.134 115.584L402.937 115.527C403.206 115.505 403.473 115.472 403.741 115.447L405.345 115.28L411.768 114.617L418.182 113.762L419.786 113.548L420.589 113.441C420.856 113.405 421.123 113.355 421.389 113.314L424.591 112.791L427.794 112.267L429.396 112.005C429.929 111.91 430.461 111.802 430.994 111.701L437.386 110.47C438.454 110.278 439.513 110.02 440.576 109.792L443.764 109.088L446.955 108.383L450.134 107.597C461.856 104.751 473.505 101.25 485.075 97.2274L487.551 130.05C477.339 134.382 466.999 138.321 456.525 141.773L453.22 142.876L449.896 143.897L446.569 144.918C445.458 145.253 444.353 145.616 443.236 145.912L436.538 147.773L434.862 148.233L433.178 148.652L429.808 149.488L426.436 150.323C426.155 150.391 425.875 150.467 425.592 150.529L424.745 150.713L423.049 151.083L416.265 152.555L409.443 153.829L407.737 154.147C407.453 154.198 407.168 154.255 406.884 154.303L406.027 154.437L402.598 154.968L399.167 155.5L397.45 155.762L395.727 155.974L388.833 156.819L387.971 156.921L387.105 156.999L385.375 157.155L381.912 157.464L378.448 157.773L374.974 157.968L371.497 158.163L369.759 158.259L368.89 158.307L368.019 158.327L361.044 158.481L359.298 158.518L357.554 158.5L354.063 158.453L350.57 158.405L348.823 158.38L347.08 158.296L340.103 157.957C339.521 157.927 338.94 157.906 338.358 157.867L336.618 157.727L333.136 157.442L329.653 157.157C329.074 157.105 328.491 157.072 327.913 157.004L326.177 156.809L319.231 156.027C309.99 154.824 300.759 153.418 291.611 151.578L288.174 150.916C287.599 150.811 287.03 150.686 286.46 150.563L284.749 150.196L277.904 148.723C275.629 148.207 273.361 147.66 271.088 147.128L267.679 146.326C266.545 146.051 265.418 145.757 264.287 145.473L257.501 143.752L250.746 141.936L247.369 141.025L244.006 140.074L237.281 138.168C219.402 132.968 201.697 127.321 184.178 121.719C175.406 118.912 166.692 116.15 157.991 113.439C153.651 112.111 149.303 110.751 144.976 109.474C142.812 108.831 140.644 108.169 138.484 107.542L132.005 105.675C129.844 105.039 127.691 104.461 125.537 103.865L122.306 102.974C121.229 102.678 120.151 102.374 119.077 102.102C114.779 100.989 110.478 99.8318 106.194 98.8218L102.979 98.039L101.371 97.6475C100.835 97.5182 100.302 97.4046 99.7664 97.2841L93.3515 95.8478L91.7481 95.4878L90.1484 95.1611L86.9495 94.5129L83.7519 93.8646L82.1537 93.5395L80.5584 93.2548L74.1802 92.1141L72.5864 91.8311L70.9958 91.5884L67.8155 91.1013L64.6379 90.6139C64.1083 90.5353 63.5777 90.4444 63.0502 90.3763L61.4654 90.1791L55.1303 89.3846C54.6033 89.3235 54.0746 89.2396 53.5489 89.196L51.9704 89.046L48.8147 88.7459C46.7118 88.5522 44.6069 88.3163 42.5121 88.1944L39.3675 87.9728C38.3202 87.9048 37.271 87.8634 36.2232 87.8061C35.1746 87.7558 34.1275 87.6913 33.0797 87.6516L29.9365 87.5518C13.1772 87.0378 -3.53906 88.0273 -20.0721 90.3923C-36.6076 92.7416 -52.9543 96.5577 -68.9833 101.701C-85.0159 106.831 -100.714 113.393 -115.957 121.228L-117.388 121.956L-118.809 122.714L-121.651 124.229C-122.601 124.724 -123.536 125.267 -124.479 125.784L-127.301 127.352C-131.058 129.49 -134.834 131.727 -138.635 134.043C-142.434 136.355 -146.271 138.774 -150.136 141.229L-155.961 144.959L-161.856 148.762C-169.751 153.866 -177.851 159.101 -186.218 164.245C-194.605 169.378 -203.258 174.436 -212.324 179.096C-214.579 180.272 -216.883 181.399 -219.185 182.523L-222.675 184.169C-223.84 184.715 -225.028 185.233 -226.205 185.764C-230.937 187.854 -235.762 189.827 -240.701 191.6C-245.643 193.363 -250.693 194.951 -255.817 196.312L-259.658 197.273L-260.619 197.51C-260.939 197.591 -261.259 197.669 -261.581 197.734L-263.509 198.148C-264.796 198.419 -266.082 198.701 -267.369 198.96L-271.24 199.65L-273.176 199.99L-275.114 200.271L-278.994 200.821C-280.288 200.976 -281.58 201.11 -282.875 201.254L-284.817 201.464C-285.464 201.534 -286.11 201.569 -286.758 201.626L-290.639 201.922C-291.288 201.979 -291.932 201.991 -292.578 202.028L-294.516 202.116C-297.104 202.262 -299.678 202.264 -302.259 202.308C-302.906 202.323 -303.547 202.312 -304.19 202.303L-306.119 202.275L-308.048 202.246L-309.012 202.228L-309.973 202.188L-313.815 202.023L-314.776 201.98L-315.732 201.915L-317.645 201.782C-322.755 201.454 -327.813 200.881 -332.852 200.226L-336.617 199.68C-337.243 199.585 -337.874 199.504 -338.497 199.398L-340.368 199.084L-344.108 198.449L-347.824 197.742L-349.683 197.385L-351.528 196.997L-355.22 196.216L-358.886 195.373L-360.72 194.949C-361.33 194.806 -361.934 194.649 -362.541 194.499L-366.182 193.59C-367.393 193.281 -368.593 192.952 -369.799 192.632C-372.216 192.001 -374.598 191.305 -376.992 190.628C-377.593 190.46 -378.187 190.284 -378.78 190.105L-380.561 189.572C-381.746 189.213 -382.942 188.868 -384.118 188.496C-386.473 187.752 -388.842 187.025 -391.175 186.248L-394.684 185.093L-398.171 183.909L-399.915 183.315L-401.646 182.707L-405.108 181.49C-409.701 179.841 -414.276 178.168 -418.792 176.446C-423.325 174.735 -427.798 172.981 -432.26 171.226C-436.703 169.462 -441.134 167.69 -445.514 165.913L-471.47 155.354C-475.743 153.623 -479.976 151.934 -484.198 150.261C-488.406 148.611 -492.604 146.968 -496.763 145.406C-500.931 143.821 -505.062 142.318 -509.181 140.842L-512.26 139.766L-513.798 139.227L-515.33 138.708L-518.393 137.67L-521.443 136.671C-523.478 135.994 -525.497 135.375 -527.517 134.74C-528.529 134.415 -529.532 134.129 -530.538 133.826C-531.543 133.529 -532.55 133.219 -533.552 132.932L-536.553 132.083L-538.052 131.66L-539.545 131.263L-542.528 130.468L-545.495 129.728C-547.476 129.216 -549.437 128.795 -551.403 128.332C-551.895 128.213 -552.383 128.114 -552.872 128.01L-554.337 127.701L-555.803 127.392L-556.535 127.236L-557.263 127.096C-559.204 126.733 -561.151 126.334 -563.074 126.031C-564.039 125.871 -565.004 125.697 -565.965 125.546L-568.838 125.128L-570.274 124.916L-571.701 124.743L-574.551 124.392L-577.384 124.111C-578.328 124.019 -579.272 123.914 -580.206 123.86L-583.015 123.653C-583.484 123.612 -583.948 123.593 -584.412 123.573L-585.806 123.509L-587.198 123.442L-587.894 123.409L-588.585 123.395L-591.35 123.342C-592.277 123.307 -593.174 123.341 -594.08 123.353L-596.79 123.391C-597.692 123.384 -598.597 123.456 -599.501 123.5L-602.209 123.64C-603.111 123.667 -604.014 123.772 -604.916 123.851L-607.62 124.092C-608.521 124.152 -609.421 124.292 -610.321 124.403L-613.019 124.744C-620.207 125.749 -627.35 127.286 -634.403 129.334C-642.708 131.747 -650.887 134.868 -658.863 138.657L-668.721 7.98988C-663.954 6.69881 -659.159 5.56275 -654.34 4.58893L-654.345 4.60177Z" fill="white"/>
</svg>
