<svg width="308" height="80" viewBox="0 0 308 80" fill="none" xmlns="http://www.w3.org/2000/svg">
<path d="M11.7125 36.5403C14.8693 36.5403 17.9315 36.7915 20.9372 36.486C26.5744 35.9158 31.5599 36.6896 34.8993 42.3854C35.3142 43.0937 36.0132 44.318 37.0956 43.1684C37.8803 42.3356 39.1249 41.6251 38.5049 40.0501C36.1372 34.0285 33.7696 28.0023 31.3411 22.0146C30.7301 20.5143 29.3118 21.0778 28.2114 21.071C21.7016 21.028 15.1895 21.0483 8.31445 21.0483C9.2164 18.1065 10.3258 16.5904 13.2481 16.6605C21.3656 16.8506 29.4651 16.7262 38.5815 16.7262C34.4686 19.7947 35.7562 22.6346 37.1068 25.7032C39.0528 30.1317 40.6041 34.7549 42.5411 39.197C43.4678 41.3174 43.3596 42.6593 41.7248 44.3859C36.2816 50.1246 35.9884 50.5388 31.2059 44.2727C27.4966 39.412 22.9778 41.0661 18.6936 41.0345C15.5368 41.0141 13.3157 40.0365 11.6584 37.2713C11.6156 37.1988 11.6719 37.0495 11.7125 36.5403Z" fill="#3664AF"/>
<path d="M0 78.9709C3.21093 75.744 6.47147 72.5623 9.61024 69.2629C10.7377 68.0862 11.4682 68.0862 12.5596 69.2629C13.5856 70.3695 13.9802 71.2702 12.5844 72.2749C11.4998 73.0556 10.3837 73.7888 9.28103 74.5378C9.54259 74.9587 9.80566 75.3781 10.0702 75.796C19.1055 75.796 28.143 75.7711 37.1805 75.8209C38.8085 75.8209 38.7589 74.8637 38.8874 73.644C39.494 67.7423 38.5582 62.7819 33.62 58.6906C28.9074 54.7961 24.9321 49.9353 20.26 45.113C23.4912 44.3776 25.7821 44.3844 28.0145 46.903C32.2987 51.7298 36.8941 56.2308 41.3542 60.8765C42.2878 61.8473 43.1581 62.757 43.1175 64.3954C42.998 68.8104 43.0431 73.2321 43.0995 77.6516C43.1198 79.1655 42.768 80.005 41.1062 80.0005C27.5454 79.9643 13.9862 79.9575 0.428424 79.9802L0 78.9709Z" fill="#3664AF"/>
<path d="M12.4609 22.9899C10.3526 26.21 8.59379 29.2175 6.51931 31.9602C4.97248 33.9968 4.94091 35.2323 6.8598 37.1943C15.4734 45.9744 23.8006 55.0714 32.4255 63.8334C34.7683 66.2185 35.5687 68.6172 34.8494 71.8283C33.6476 71.8419 33.2056 70.8055 32.5788 70.147C22.2064 59.2849 11.913 48.3415 1.46165 37.5609C-0.310676 35.7347 -0.360282 34.5308 1.09862 32.6209C2.86004 30.3733 4.44329 27.9907 5.83383 25.495C7.31077 22.7387 9.27025 21.8992 12.4609 22.9899Z" fill="#3664AF"/>
<path d="M39.304 0.802474C37.7617 4.45031 36.3028 7.76549 34.9612 11.1259C34.2148 13.0019 33.0874 13.7735 30.9791 13.7079C25.8357 13.545 20.6856 13.6604 15.5378 13.64C14.4374 13.64 13.1115 13.9523 12.4824 12.719C10.5928 9.02592 8.71002 5.32152 7.0324 1.52886C6.38074 0.0557007 7.48337 -0.378783 8.61081 0.338564C11.2445 2.0086 15.4904 2.28469 14.5817 7.19297C14.2367 9.05988 15.7542 9.08477 17.062 9.03499C18.2526 8.98973 19.8581 9.39479 19.725 7.38531C19.5717 5.0364 20.5639 4.23758 22.821 4.44351C24.7534 4.61549 27.0037 3.93436 26.8391 7.25181C26.7354 9.34501 28.4717 9.03044 29.8336 9.04176C31.1279 9.04176 31.8134 8.65029 32.0186 7.14092C32.6184 2.68749 34.0344 1.48361 39.304 0.802474Z" fill="#01D1FF"/>
<path d="M7.45175 46.1211C9.17221 47.9812 11.3279 49.2281 10.9355 52.4573C10.7574 53.935 11.8555 54.6546 12.6131 55.5236C15.7226 59.0967 18.8614 62.6404 21.9798 66.2068C24.7646 69.3907 24.7601 69.3975 24.3362 74.4099C21.9866 72.7874 20.424 70.3864 18.5773 68.3724C16.3427 65.9375 14.3945 63.1066 11.966 60.9704C7.684 57.2162 5.90491 52.6202 7.45175 46.1211Z" fill="#3664AF"/>
<path d="M31.8057 31.4971C29.6034 30.4562 28.4487 29.1066 27.8057 27.2192C31.5637 27.0075 31.5637 27.0075 31.8057 31.4971Z" fill="#01D1FF"/>
<path fill-rule="evenodd" clip-rule="evenodd" d="M170.951 15.905C170.951 15.905 170.916 15.4587 169.667 15.3138C169.667 15.3138 169.172 12.7216 165.67 13.4694C165.015 13.6291 164.374 13.8427 163.753 14.1079C163.735 14.1079 162.69 14.0902 162.378 14.1493C161.273 14.3591 160.039 14.9444 159.968 15.7366C159.936 16.1297 161.123 15.2695 161.332 16.4548C161.202 16.8331 160.705 17.7494 160.575 18.2105C159.965 20.4303 160.41 22.183 161.046 23.7732C161.197 24.1545 161.391 23.6668 161.391 23.5988C161.415 21.0096 162.864 17.9031 167.991 16.7208C169.44 16.3838 170.948 16.3838 170.951 15.905Z" fill="#01D1FF"/>
<path d="M156.618 24.9157C163.904 26.7454 170.837 23.7334 177.726 21.493C181.319 20.3284 184.88 19.5273 188.653 19.9707C192.273 20.3993 195.722 21.6762 199.238 22.6309C202.528 23.5192 205.922 23.9636 209.329 23.9522C212.215 23.9522 215.036 24.0585 217.911 23.5974C221.537 23.0063 225.044 21.824 228.64 21.0939C232.329 20.3236 236.145 20.4247 239.788 21.3895C247.39 23.3994 254.653 27.8922 262.714 25.6931C262.79 25.6724 262.758 25.563 262.687 25.5719C255.086 26.571 248.153 22.0693 241.122 19.8052C237.883 18.7589 234.593 18.2298 231.197 18.6229C227.845 19.0042 224.6 20.0121 221.324 20.8427C214.942 22.4625 207.885 22.6457 201.488 20.9461C198.031 20.0269 194.714 18.617 191.257 17.6948C188.029 16.7985 184.654 16.5643 181.334 17.0061C173.506 18.0554 165.763 23.1127 157.731 21.0585C155.351 20.4259 154.235 24.3157 156.618 24.9157Z" fill="#01D1FF"/>
<path d="M59.2274 21.0948C59.2274 21.6564 59.2274 22.5047 59.2687 23.6368C59.3099 24.7688 59.3129 25.6171 59.3129 26.1787C59.3129 26.2762 59.2893 26.3354 59.2481 26.359C59.1871 26.3736 59.125 26.3835 59.0625 26.3886C58.6497 26.4316 58.2347 26.4503 57.8196 26.4447C57.3761 26.4584 56.9321 26.4397 56.4913 26.3886C56.3529 26.359 56.2852 26.2851 56.2852 26.1669C56.2852 26.2408 56.3058 25.8211 56.35 24.9048C56.4363 22.9717 56.4786 21.7017 56.4766 21.0948C56.4766 20.5834 56.4619 19.8149 56.4265 18.7922C56.3912 17.7695 56.3794 17.0188 56.3794 16.4927C56.3794 16.3893 56.4324 16.3361 56.5414 16.3361C56.6504 16.3361 56.9125 16.336 57.21 16.3567C57.5074 16.3774 57.7283 16.3804 57.8785 16.3804C58.0287 16.3804 58.2437 16.3803 58.5294 16.3567C58.8151 16.3331 59.036 16.3361 59.1833 16.3361C59.3305 16.3361 59.3894 16.3893 59.3894 16.4927C59.3894 17.0041 59.3629 17.7725 59.307 18.7922C59.251 19.812 59.2274 20.5834 59.2274 21.0948Z" fill="#01D1FF"/>
<path d="M64.1835 21.0948C64.1835 21.6564 64.1835 22.5047 64.2247 23.6368C64.266 24.7688 64.2689 25.6171 64.2689 26.1787C64.2689 26.2762 64.2453 26.3354 64.2041 26.359C64.1431 26.3736 64.0811 26.3835 64.0186 26.3886C63.6057 26.4316 63.1907 26.4503 62.7757 26.4447C62.3321 26.4584 61.8882 26.4397 61.4474 26.3886C61.309 26.359 61.2412 26.2851 61.2412 26.1669C61.2412 26.2408 61.2618 25.8211 61.306 24.9048C61.3904 22.9717 61.4326 21.7017 61.4326 21.0948C61.4326 20.5844 61.4169 19.8169 61.3855 18.7922C61.3502 17.7725 61.3355 17.0188 61.3355 16.4927C61.3355 16.3893 61.3885 16.3361 61.4974 16.3361C61.6064 16.3361 61.8685 16.336 62.166 16.3567C62.4635 16.3774 62.6844 16.3804 62.8346 16.3804C62.9848 16.3804 63.1998 16.3803 63.4855 16.3567C63.7712 16.3331 63.9921 16.3361 64.1393 16.3361C64.2866 16.3361 64.3455 16.3893 64.3455 16.4927C64.3455 17.0041 64.319 17.7725 64.266 18.7922C64.213 19.812 64.1835 20.5834 64.1835 21.0948Z" fill="#01D1FF"/>
<path d="M73.1862 18.5232C73.1862 18.6177 73.1362 18.665 73.0301 18.665C72.8505 18.665 72.1466 18.6296 70.8831 18.5587C70.8536 19.7685 70.8389 20.6119 70.8389 21.0887C70.8389 21.6503 70.8615 22.4977 70.9066 23.6307C70.9518 24.7637 70.9744 25.611 70.9744 26.1726C70.9744 26.2642 70.9537 26.3234 70.9096 26.347C70.8443 26.3662 70.7771 26.3781 70.7093 26.3825C70.2926 26.427 69.8736 26.4457 69.4546 26.4387C69.0229 26.4484 68.591 26.4297 68.1617 26.3825C68.1339 26.3814 68.1067 26.3747 68.0816 26.3629C68.0564 26.3511 68.0339 26.3344 68.0152 26.3138C67.9966 26.2931 67.9822 26.269 67.973 26.2428C67.9637 26.2165 67.9598 26.1887 67.9614 26.1609C67.9614 25.5953 67.9849 24.7499 68.0321 23.6248C68.0792 22.4996 68.1037 21.6543 68.1057 21.0887C68.1057 20.7163 68.0851 19.8828 68.0468 18.5941C67.0955 18.6887 66.3356 18.7389 65.7701 18.7389C65.6936 18.7389 65.6553 18.7123 65.6553 18.665C65.6774 18.4799 65.7108 18.2963 65.7554 18.1153C65.832 17.7813 65.8762 17.5773 65.885 17.5064C65.8997 17.2818 65.9145 17.0571 65.9351 16.8325C65.9675 16.4748 66.0234 16.2945 66.1059 16.2945H66.206C67.3418 16.4128 68.4837 16.4631 69.6254 16.4452C70.0525 16.4452 70.8448 16.4009 71.9964 16.3093L72.93 16.2384C72.9856 16.2327 73.0418 16.2388 73.0949 16.2561C73.1097 16.2561 73.1185 16.3152 73.1244 16.395C73.1244 16.5251 73.1244 16.6906 73.1097 16.933C73.0949 17.1754 73.0949 17.3645 73.0949 17.4709C73.0992 17.6471 73.115 17.8229 73.1421 17.997C73.167 18.1714 73.1818 18.3471 73.1862 18.5232Z" fill="#01D1FF"/>
<path d="M87.3184 26.3152C87.3184 26.3477 87.2713 26.3713 87.1741 26.3861C86.7206 26.4237 86.2654 26.4375 85.8104 26.4274C85.189 26.4274 84.7649 26.4127 84.541 26.3861C84.48 26.3811 84.4197 26.3691 84.3614 26.3506C84.3161 26.3124 84.2824 26.2622 84.2642 26.2058C84.1906 26.0195 84.0875 25.7417 83.949 25.3752C83.7645 24.8963 83.47 24.1919 83.0655 23.2618C83.0045 23.1624 82.917 23.082 82.8129 23.0298C82.7089 22.9775 82.5923 22.9555 82.4764 22.9663C82.6178 22.9663 82.3733 22.9811 81.7401 22.9811C81.6694 22.9811 81.6341 23.1022 81.6341 23.3446C81.6341 23.6697 81.6635 24.1545 81.7224 24.7988C81.7814 25.4432 81.8137 25.9279 81.8137 26.253C81.8137 26.3358 81.7902 26.3831 81.749 26.3978H81.5487C81.2689 26.4156 80.83 26.4245 80.2351 26.4245C79.8253 26.4358 79.4151 26.4221 79.0069 26.3831C78.8685 26.3536 78.8008 26.2797 78.8008 26.1614C78.8008 25.6353 78.8253 24.8422 78.8744 23.782C78.9235 22.7219 78.949 21.9268 78.951 21.3967C78.951 19.375 78.9058 17.7986 78.8155 16.6675V16.5671C78.8155 16.4873 78.8862 16.4311 79.0423 16.4015C79.1984 16.372 79.9259 16.3454 81.2218 16.3158C82.1034 16.2981 82.8053 16.2892 83.3276 16.2892C84.2662 16.2493 85.1936 16.5068 85.9783 17.0252C86.358 17.2945 86.6637 17.6557 86.8671 18.0753C87.0705 18.4949 87.1649 18.9593 87.1417 19.4253C87.1675 19.9969 87.0669 20.5672 86.8471 21.0952C86.5823 21.584 86.2021 22.0001 85.7397 22.3071C85.6308 22.384 85.5748 22.4549 85.5748 22.5199C85.5748 22.5199 85.8693 23.1111 86.4584 24.32C87.0474 25.5289 87.3184 26.191 87.3184 26.3152ZM84.3201 19.8864C84.3201 19.2952 84.1297 18.8922 83.7488 18.6775C83.3159 18.4774 82.8401 18.389 82.3645 18.4203C81.9109 18.4203 81.6724 18.4883 81.6429 18.6272C81.601 19.094 81.5862 19.5628 81.5988 20.0312C81.5988 20.1396 81.5988 20.3021 81.5988 20.5189C81.5988 20.7317 81.5988 20.8943 81.5988 20.9977C81.5988 21.0214 81.6753 21.045 81.8285 21.0687C82.1307 21.1134 82.436 21.1352 82.7415 21.1337C83.8136 21.1337 84.3201 20.7199 84.3201 19.8864Z" fill="#01D1FF"/>
<path d="M98.639 21.3717C98.6773 22.7601 98.167 24.1073 97.2194 25.1196C96.7392 25.606 96.1675 25.9919 95.5375 26.2547C94.9075 26.5176 94.2318 26.6523 93.5495 26.6509C92.8672 26.6495 92.192 26.5122 91.5631 26.2467C90.9341 25.9813 90.364 25.5932 89.8858 25.1048C88.97 24.0756 88.4639 22.7441 88.4639 21.3643C88.4639 19.9845 88.97 18.6529 89.8858 17.6237C90.3608 17.1317 90.9295 16.7404 91.5582 16.4733C92.1868 16.2061 92.8625 16.0684 93.5452 16.0684C94.2279 16.0684 94.9036 16.2061 95.5323 16.4733C96.1609 16.7404 96.7296 17.1317 97.2047 17.6237C98.1565 18.6344 98.672 19.9815 98.639 21.3717ZM95.9323 21.3717C95.9496 20.7032 95.7186 20.0521 95.2844 19.545C95.0705 19.2959 94.805 19.0965 94.5066 18.9608C94.2081 18.825 93.8837 18.7562 93.5561 18.759C93.2284 18.7618 92.9053 18.8362 92.6091 18.9771C92.313 19.1179 92.051 19.3218 91.8414 19.5746C91.4113 20.0803 91.1716 20.7215 91.164 21.3863C91.1565 22.0512 91.3816 22.6977 91.8002 23.2131C92.0166 23.4634 92.286 23.6619 92.5887 23.7944C92.8913 23.9268 93.2196 23.9898 93.5496 23.9786C93.8768 23.9808 94.2003 23.9096 94.4964 23.7699C94.7925 23.6303 95.0537 23.4259 95.2608 23.1717C95.7038 22.6729 95.9436 22.025 95.9323 21.3569V21.3717Z" fill="#01D1FF"/>
<path d="M110.216 21.3714C110.255 22.7598 109.744 24.107 108.797 25.1193C108.317 25.6056 107.745 25.9914 107.116 26.2542C106.486 26.5171 105.81 26.6518 105.128 26.6504C104.446 26.649 103.771 26.5116 103.143 26.2462C102.514 25.9808 101.944 25.5928 101.466 25.1045C100.547 24.0771 100.038 22.7449 100.038 21.364C100.038 19.9831 100.547 18.6509 101.466 17.6235C101.941 17.1315 102.509 16.7403 103.138 16.4731C103.766 16.206 104.442 16.0684 105.124 16.0684C105.806 16.0684 106.482 16.206 107.11 16.4731C107.739 16.7403 108.307 17.1315 108.782 17.6235C109.734 18.6341 110.249 19.9812 110.216 21.3714ZM107.513 21.3714C107.529 20.7026 107.297 20.0516 106.862 19.5447C106.648 19.2956 106.383 19.0963 106.085 18.9606C105.786 18.8249 105.462 18.756 105.135 18.7588C104.807 18.7617 104.485 18.836 104.189 18.9768C103.893 19.1177 103.631 19.3216 103.422 19.5743C102.992 20.0802 102.753 20.721 102.745 21.3855C102.737 22.0501 102.96 22.6966 103.377 23.2128C103.597 23.4573 103.866 23.6519 104.166 23.7839C104.466 23.9159 104.791 23.9822 105.119 23.9783C105.446 23.9743 105.77 23.9004 106.067 23.7613C106.364 23.6221 106.628 23.421 106.841 23.1714C107.284 22.6726 107.524 22.0247 107.513 21.3566V21.3714Z" fill="#01D1FF"/>
<path d="M120.39 26.3153C120.39 26.3488 120.343 26.3724 120.248 26.3862C119.795 26.4236 119.34 26.4374 118.885 26.4275C118.26 26.4275 117.836 26.4128 117.612 26.3862C117.552 26.3814 117.493 26.3694 117.436 26.3507C117.389 26.313 117.354 26.2628 117.335 26.2059C117.262 26.0197 117.159 25.7418 117.02 25.3753C116.836 24.8964 116.541 24.192 116.137 23.2619C116.076 23.1625 115.988 23.0821 115.884 23.0299C115.78 22.9776 115.664 22.9557 115.548 22.9664C115.692 22.9664 115.445 22.9812 114.814 22.9812C114.741 22.9812 114.705 23.1023 114.705 23.3447C114.705 23.6698 114.735 24.1546 114.794 24.7989C114.856 25.4433 114.885 25.928 114.885 26.2531C114.885 26.3359 114.861 26.3832 114.82 26.398H114.62C114.34 26.4157 113.901 26.4246 113.306 26.4246C112.897 26.436 112.486 26.4222 112.078 26.3832C111.94 26.3537 111.872 26.2798 111.872 26.1616C111.872 25.6354 111.897 24.8423 111.946 23.7822C111.995 22.722 112.02 21.9269 112.022 21.3968C112.022 19.3751 111.977 17.7987 111.887 16.6676V16.5672C111.887 16.4874 111.957 16.4312 112.114 16.4016C112.27 16.3721 112.997 16.3455 114.293 16.3159C115.175 16.2982 115.877 16.2893 116.399 16.2893C117.338 16.2488 118.265 16.5063 119.05 17.0253C119.429 17.2946 119.735 17.6559 119.938 18.0754C120.142 18.495 120.236 18.9594 120.213 19.4254C120.239 19.997 120.138 20.5673 119.918 21.0954C119.654 21.5841 119.273 22.0002 118.811 22.3072C118.702 22.3841 118.649 22.455 118.649 22.52C118.649 22.52 118.944 23.1112 119.533 24.3201C120.122 25.529 120.39 26.1911 120.39 26.3153ZM117.388 19.8865C117.388 19.2953 117.198 18.8924 116.817 18.6776C116.384 18.4776 115.908 18.3891 115.433 18.4204C114.979 18.4204 114.741 18.4884 114.711 18.6273C114.671 19.0942 114.657 19.5629 114.67 20.0313C114.67 20.1407 114.67 20.3032 114.67 20.519C114.67 20.7348 114.67 20.8944 114.67 20.9979C114.67 21.0215 114.747 21.0452 114.9 21.0688C115.202 21.1134 115.507 21.1352 115.813 21.1338C116.87 21.1338 117.388 20.72 117.388 19.8865Z" fill="#01D1FF"/>
<path d="M130.585 25.6723C130.594 25.7597 130.573 25.8474 130.524 25.9207C130.476 25.9939 130.404 26.0482 130.32 26.0743C129.949 26.14 129.572 26.1638 129.195 26.1452C128.765 26.155 128.335 26.1313 127.908 26.0743C127.82 26.0628 127.735 26.0368 127.655 25.9975C127.59 25.9407 127.538 25.8713 127.502 25.7935C127.154 25.155 126.81 24.5136 126.468 23.8752C126.172 23.2823 125.832 22.7123 125.452 22.1697C124.939 22.3569 124.683 22.4899 124.683 22.5688C124.683 22.9294 124.698 23.4703 124.724 24.1915C124.751 24.9127 124.769 25.4595 124.769 25.823C124.773 25.8524 124.771 25.8823 124.763 25.911C124.756 25.9397 124.742 25.9665 124.724 25.9899C124.706 26.0133 124.684 26.0329 124.658 26.0474C124.632 26.0619 124.604 26.071 124.574 26.0743C124.129 26.1219 123.682 26.1407 123.234 26.1305C122.824 26.1424 122.413 26.1237 122.006 26.0743C121.868 26.0448 121.797 25.9709 121.797 25.8526C121.797 25.3354 121.823 24.558 121.873 23.5146C121.924 22.4712 121.947 21.6939 121.947 21.1736C121.947 20.6534 121.924 19.7874 121.876 18.676C121.829 17.5647 121.806 16.7341 121.806 16.1784C121.802 16.1576 121.804 16.1363 121.81 16.1162C121.816 16.096 121.827 16.0776 121.842 16.0624C121.856 16.0472 121.874 16.0356 121.894 16.0286C121.914 16.0215 121.935 16.0192 121.956 16.0218C122.103 16.0218 122.324 16.0217 122.622 16.0424C122.919 16.0631 123.143 16.0661 123.29 16.0661C123.437 16.0661 123.667 16.0661 123.968 16.0424C124.268 16.0188 124.492 16.0218 124.639 16.0218C124.721 16.0218 124.76 16.0661 124.76 16.1518C124.76 16.5036 124.742 17.0385 124.707 17.7509C124.671 18.4632 124.654 19.0012 124.654 19.3529C124.654 19.7638 124.766 19.9706 124.99 19.9706C125.229 19.9853 125.47 19.9516 125.696 19.8713C125.923 19.7911 126.131 19.6661 126.309 19.5037C126.623 19.1359 126.863 18.7102 127.016 18.2504C127.169 17.7874 127.419 17.1045 127.767 16.202C127.794 16.1417 127.84 16.0918 127.898 16.0594C127.956 16.027 128.022 16.0139 128.088 16.0218C128.212 16.0218 128.397 16.0217 128.647 16.0424C128.898 16.0631 129.083 16.0661 129.207 16.0661C129.331 16.0661 129.528 16.0661 129.781 16.0513C130.035 16.0365 130.226 16.0513 130.35 16.0513C130.373 16.0474 130.396 16.0489 130.418 16.0558C130.44 16.0626 130.46 16.0745 130.477 16.0906C130.494 16.1067 130.506 16.1266 130.514 16.1485C130.521 16.1704 130.524 16.1938 130.521 16.2168C130.464 16.6106 130.365 16.9971 130.226 17.3696C129.637 19.1745 128.959 20.3017 128.191 20.751C128.032 20.8426 127.955 20.9165 127.955 20.9727C127.955 20.9727 128.394 21.689 129.272 23.1215C130.148 24.5521 130.585 25.4023 130.585 25.6723Z" fill="#01D1FF"/>
<path d="M139.311 24.1588C139.295 24.5383 139.254 24.9164 139.19 25.2908C139.159 25.6545 139.083 26.0129 138.964 26.3578C138.94 26.3997 138.906 26.4345 138.865 26.4584C138.823 26.4824 138.776 26.4946 138.728 26.4938C138.656 26.4917 138.584 26.4848 138.513 26.4731C138.165 26.4258 137.151 26.4021 135.471 26.4021H133.836H132.21C132.051 26.4021 131.975 26.3312 131.975 26.1923C131.975 25.6573 132.004 24.8563 132.063 23.7834C132.122 22.7104 132.151 21.9065 132.151 21.3715C132.151 20.8365 132.125 19.8138 132.066 18.3271C132.052 17.9468 132.027 17.3763 131.989 16.6157V16.5151C131.989 16.4058 132.039 16.3496 132.169 16.3496C132.519 16.3496 133.053 16.3496 133.756 16.3792C134.46 16.4088 134.993 16.4088 135.344 16.4088C135.694 16.4088 136.228 16.4088 136.917 16.3792C137.606 16.3496 138.139 16.3496 138.487 16.3496C138.734 16.3496 138.875 16.4442 138.914 16.6452C138.937 16.7545 138.975 17.0886 139.025 17.6443C139.076 18.1999 139.099 18.531 139.099 18.6581C139.099 18.7852 139.052 18.8088 138.958 18.8088H138.808C137.541 18.7044 136.403 18.6522 135.394 18.6522C135.144 18.6522 134.988 18.7113 134.932 18.8295C134.898 19.0117 134.886 19.1972 134.896 19.3822C134.87 19.6068 134.92 19.8337 135.038 20.0266C135.102 20.0799 135.176 20.1194 135.256 20.1427C135.336 20.1661 135.42 20.1729 135.503 20.1626H135.78C135.918 20.1626 136.033 20.1626 136.121 20.1626C136.722 20.1626 137.33 20.1459 137.945 20.1124L138.336 20.0768C138.464 20.0591 138.593 20.0492 138.722 20.0473C138.745 20.0433 138.768 20.0449 138.79 20.0517C138.813 20.0586 138.833 20.0705 138.849 20.0867C138.866 20.1028 138.879 20.1225 138.886 20.1445C138.894 20.1664 138.896 20.1898 138.893 20.2128C138.829 20.5756 138.786 20.9417 138.763 21.3094C138.726 21.6905 138.707 22.0733 138.707 22.4562C138.707 22.5508 138.637 22.5981 138.501 22.5981L137.856 22.5272C137.585 22.4976 136.967 22.4828 136.001 22.4828H135.235C135.041 22.4828 134.926 22.5331 134.893 22.6277C134.893 22.6513 134.893 22.7991 134.893 23.0711C134.878 23.3079 134.902 23.5456 134.964 23.7745C135.044 23.9548 135.35 24.0701 135.877 24.0967H136.92C137.173 24.0967 137.547 24.0731 138.045 24.0287C138.542 23.9844 138.914 23.9607 139.161 23.9607C139.261 23.9016 139.311 23.9873 139.311 24.1588Z" fill="#01D1FF"/>
<path d="M148.171 24.1588C148.153 24.5382 148.112 24.9161 148.05 25.2908C148.02 25.6549 147.942 26.0136 147.82 26.3578C147.797 26.3999 147.763 26.4349 147.721 26.4589C147.68 26.4828 147.632 26.4949 147.584 26.4938C147.513 26.4916 147.443 26.4846 147.372 26.4731C147.025 26.4258 146.011 26.4021 144.33 26.4021H142.695H141.07C140.911 26.4021 140.834 26.3312 140.834 26.1923C140.834 25.6573 140.863 24.8563 140.922 23.7834C140.981 22.7104 141.011 21.9065 141.011 21.3715C141.011 20.8365 140.981 19.8138 140.925 18.3271C140.912 17.9468 140.885 17.3763 140.846 16.6157V16.5151C140.846 16.4058 140.896 16.3496 141.025 16.3496C141.376 16.3496 141.909 16.3496 142.613 16.3792C143.317 16.4088 143.85 16.4088 144.2 16.4088C144.551 16.4088 145.084 16.4088 145.77 16.3792C146.456 16.3496 146.995 16.3496 147.343 16.3496C147.59 16.3496 147.732 16.4442 147.77 16.6452C147.794 16.7545 147.832 17.0886 147.882 17.6443C147.932 18.1999 147.956 18.531 147.956 18.6581C147.956 18.7852 147.908 18.8088 147.814 18.8088H147.664C146.398 18.7044 145.26 18.6522 144.25 18.6522C143.997 18.6522 143.844 18.7113 143.788 18.8295C143.751 19.0112 143.738 19.1971 143.75 19.3822C143.725 19.6072 143.775 19.8341 143.894 20.0266C143.958 20.0798 144.032 20.1193 144.111 20.1427C144.191 20.166 144.274 20.1728 144.356 20.1626H144.651C144.789 20.1626 144.904 20.1626 144.993 20.1626C145.593 20.1626 146.2 20.1459 146.813 20.1124L147.207 20.0768C147.335 20.0591 147.464 20.0492 147.593 20.0473C147.616 20.044 147.639 20.046 147.661 20.053C147.683 20.0601 147.703 20.0721 147.719 20.088C147.736 20.104 147.748 20.1236 147.756 20.1452C147.764 20.1668 147.767 20.1899 147.764 20.2128C147.701 20.5756 147.657 20.9417 147.635 21.3094C147.597 21.6905 147.578 22.0733 147.579 22.4562C147.579 22.5508 147.508 22.5981 147.369 22.5981L146.727 22.5272C146.456 22.4976 145.838 22.4828 144.872 22.4828H144.115C143.921 22.4828 143.82 22.5331 143.773 22.6277C143.773 22.6513 143.773 22.7991 143.773 23.0711C143.757 23.3081 143.782 23.5461 143.847 23.7745C143.926 23.9548 144.233 24.0701 144.76 24.0967H145.803C146.053 24.0967 146.43 24.0731 146.928 24.0287C147.425 23.9844 147.797 23.9607 148.044 23.9607C148.118 23.9016 148.171 23.9873 148.171 24.1588Z" fill="#01D1FF"/>
<path d="M83.2467 62.6774C83.2762 63.0765 83.07 63.2686 82.6282 63.2686C81.8102 63.1672 81.0009 63.0042 80.2073 62.7809C78.8741 62.4518 78.0523 62.2292 77.7421 62.1129C74.9274 63.2737 71.9198 63.8913 68.877 63.9336C64.3197 63.9336 60.5832 62.4105 57.6674 59.3641C54.7771 56.361 53.333 52.5668 53.335 47.9814C53.335 43.2936 54.7349 39.4038 57.5349 36.3121C60.4251 33.1179 64.1764 31.5199 68.7886 31.5179C70.9625 31.5041 73.1157 31.9429 75.112 32.8066C77.123 33.652 78.8655 35.0328 80.1513 36.7999C80.338 37.0154 80.4676 37.2745 80.5283 37.5535C80.5283 38.0264 79.8686 39.0876 78.5491 40.7369C77.2296 42.3862 76.3785 43.2109 75.9956 43.2109C75.9072 43.2109 75.5675 42.9074 74.9765 42.3005C74.3279 41.6316 73.5834 41.0638 72.7676 40.6157C71.6254 40.0042 70.3482 39.6911 69.0537 39.7053C66.8428 39.7053 65.0884 40.534 63.7905 42.1912C62.583 43.7124 61.9792 45.6129 61.9792 47.8928C61.9792 50.3047 62.6056 52.2121 63.8583 53.6151C65.1542 55.0654 66.9891 55.7906 69.3629 55.7906C70.865 55.7906 72.5447 55.4132 74.4022 54.6585C74.357 54.1698 74.2245 52.9274 74.0046 50.9313C73.8328 49.6958 73.7344 48.4513 73.7101 47.2041C73.7101 46.9085 73.8043 46.7548 74.0046 46.6928C74.1189 46.6575 74.2385 46.6424 74.358 46.6484C74.7861 46.6484 75.4311 46.6898 76.293 46.7726C77.155 46.8553 77.8069 46.8957 78.2487 46.8937C78.7199 46.8937 79.4268 46.8612 80.3722 46.7932C81.3176 46.7252 82.0215 46.6928 82.4957 46.6928C82.8639 46.6928 83.0465 46.9381 83.0465 47.4258C83.0465 48.1352 83.0062 49.2081 82.9257 50.6446C82.8432 52.0781 82.8049 53.1511 82.8049 53.8605C82.8049 55.7699 82.9444 58.6271 83.2232 62.4322L83.2467 62.6774Z" fill="#3664AF"/>
<path d="M117.36 62.833C117.36 63.102 117.175 63.2853 116.807 63.3888C116.365 63.507 114.99 63.5661 112.683 63.5661C110.574 63.5661 109.219 63.507 108.616 63.3888C108.373 63.3434 108.15 63.2225 107.98 63.0432C107.809 62.864 107.699 62.6353 107.665 62.3897C107.164 60.2615 106.771 59.1226 106.486 58.9729C106.251 58.8684 104.276 58.8172 100.561 58.8192C98.0572 58.8192 96.724 58.8852 96.5611 59.0172C96.3107 59.2566 96.0309 60.0458 95.7217 61.3818C95.4409 62.6173 95.1041 63.2823 94.7114 63.3769C94.2108 63.4951 92.531 63.5543 89.6722 63.5543C87.4161 63.5543 86.2881 63.3404 86.2881 62.9128C86.2881 62.5187 87.9571 57.7895 91.295 48.7252C94.9058 38.918 96.8693 33.5267 97.1854 32.5513C97.3622 31.9897 97.5683 31.709 97.8039 31.709C98.1966 31.709 98.8112 31.7454 99.6477 31.8183C100.484 31.8912 101.108 31.9287 101.518 31.9307C101.911 31.9307 102.5 31.905 103.285 31.8538C104.07 31.8026 104.65 31.776 105.023 31.774C105.303 31.774 105.559 32.0193 105.794 32.507C106.519 34.0598 108.627 39.3801 112.118 48.4681C115.613 57.6467 117.36 62.435 117.36 62.833ZM101.686 42.6216C101.377 43.2738 100.854 44.6867 100.116 46.8602C99.3207 49.1696 98.9231 50.5234 98.9231 50.9214C98.9231 51.1874 99.3649 51.3352 100.248 51.3648C100.704 51.3943 101.456 51.4091 102.505 51.4091C103.476 51.4091 104.013 51.2909 104.116 51.0544C104.147 50.9592 104.162 50.8592 104.16 50.7588C104.16 50.2682 103.821 48.9213 103.144 46.7182C102.482 44.5803 101.996 43.2147 101.686 42.6216Z" fill="#3664AF"/>
<path d="M154.43 62.6962C154.43 63.1573 154.218 63.3849 153.791 63.3849H145.957C145.527 63.3849 145.315 63.1277 145.315 62.6075C145.315 61.1159 145.37 58.8754 145.48 55.8861C145.59 52.8969 145.645 50.6564 145.645 49.1648C145.645 48.7362 145.58 48.5057 145.447 48.4761C145.286 48.5648 144.299 50.8496 142.484 55.3305C141.424 57.9631 140.363 60.5888 139.301 63.2076C139.259 63.3411 139.187 63.4636 139.092 63.5659C138.997 63.6682 138.88 63.7477 138.75 63.7987C138.673 63.8135 138.379 63.8194 137.866 63.8194C137.101 63.8194 136.644 63.6716 136.497 63.3761C135.711 61.7504 134.665 59.3858 133.357 56.2822C131.983 52.9974 130.944 50.6239 130.241 49.1618C130.194 49.0657 130.125 48.9818 130.041 48.9165C129.921 49.109 129.867 49.3348 129.885 49.5609C129.885 51.0092 129.922 53.1836 129.997 56.0842C130.071 58.9848 130.109 61.1582 130.109 62.6046C130.109 63.1248 129.899 63.382 129.487 63.382H122.1C121.806 63.382 121.626 63.3347 121.559 63.2371C121.48 63.083 121.447 62.91 121.461 62.7376C121.461 61.1258 121.538 58.704 121.691 55.4724C121.844 52.2407 121.922 49.819 121.924 48.2071C121.924 46.4888 121.85 43.272 121.703 38.5566C121.689 37.327 121.623 35.5003 121.506 33.0766L121.482 32.6982C121.468 32.4027 121.777 32.2549 122.41 32.2549C123.223 32.2549 124.436 32.2283 126.059 32.178C127.682 32.1278 128.895 32.0982 129.705 32.0982C129.867 32.0982 130.097 32.4086 130.391 33.0323L136.847 47.2524C137.303 48.214 137.686 48.6948 137.996 48.6948C138.159 48.6948 138.505 48.1401 139.036 47.0307C140.524 43.9252 142.727 39.2443 145.645 32.9879C145.895 32.3968 146.169 32.1219 146.463 32.1219C146.891 32.1219 147.536 32.1436 148.398 32.1869C149.26 32.2303 149.912 32.2529 150.354 32.2549C150.723 32.2549 151.288 32.2175 152.048 32.1426C152.804 32.0687 153.37 32.0332 153.738 32.0332C154.18 32.0332 154.401 32.2106 154.401 32.5653C154.401 34.3091 154.338 36.9161 154.212 40.3862C154.087 43.8562 154.024 46.4632 154.024 48.2071C154.024 49.819 154.091 52.2368 154.224 55.4605C154.358 58.6843 154.426 61.0962 154.43 62.6962Z" fill="#3664AF"/>
<path d="M186.529 53.8041C186.529 56.5273 185.682 58.7835 183.987 60.5727C182.055 62.626 178.665 63.6536 173.817 63.6556C173.449 63.6556 172.919 63.6556 172.227 63.6349H170.657C165.216 63.6349 161.977 63.5236 160.938 63.3009C160.508 63.2122 160.296 62.9846 160.296 62.6122C160.296 61.0358 160.388 58.6397 160.573 55.4238C160.757 52.208 160.849 49.8049 160.847 48.2147C160.847 46.4964 160.758 43.2717 160.582 38.5405C160.536 37.3287 160.456 35.5099 160.34 33.0842L160.317 32.7739C160.317 32.4931 160.534 32.3216 161.015 32.2625C161.495 32.2034 163.2 32.1738 166.13 32.1738C170.843 32.1738 173.592 32.1887 174.377 32.2182C178.004 32.3522 180.679 32.9434 182.403 33.9917C184.688 35.3986 185.831 37.773 185.831 41.115C185.801 42.0917 185.527 43.0452 185.033 43.8875C184.611 44.6372 184.108 45.3372 183.531 45.9743C182.987 46.5812 182.714 46.862 182.712 46.8167C182.712 46.9211 182.903 47.0837 183.286 47.3044C184.376 47.9594 185.228 48.9462 185.719 50.1212C186.254 51.2746 186.531 52.5318 186.529 53.8041ZM177.025 41.3131C177.025 40.0421 176.391 39.1997 175.122 38.7859C174.415 38.5652 173.251 38.4538 171.629 38.4518C170.039 38.4518 169.241 38.5701 169.241 38.8066C169.241 39.1022 169.217 39.513 169.164 40.0834C169.111 40.6539 169.087 41.0766 169.087 41.3574C169.087 42.8392 169.212 43.6678 169.461 43.8431C169.624 43.9771 170.561 44.0442 172.271 44.0442C175.44 44.0442 177.025 43.1338 177.025 41.3131ZM177.687 53.7272C177.687 52.3972 177.135 51.4956 176.029 51.0227C175.322 50.7271 174.173 50.5793 172.58 50.5793C170.678 50.5793 169.635 50.6473 169.485 50.7892C169.335 50.931 169.241 51.8356 169.241 53.5056C169.241 55.2524 169.338 56.2159 169.535 56.4021C169.732 56.5884 170.787 56.68 172.719 56.68C174.309 56.68 175.429 56.5539 176.079 56.3017C177.15 55.8662 177.686 55.0041 177.687 53.7154V53.7272Z" fill="#3664AF"/>
<path d="M198.813 47.3749C198.813 48.7476 198.832 50.7954 198.87 53.5183C198.909 56.2412 198.929 58.2802 198.93 59.6354C198.93 60.0344 198.767 60.2679 198.442 60.3432C197.451 60.4945 196.454 60.5511 195.458 60.5125C194.454 60.5514 193.451 60.4949 192.453 60.3432C192.164 60.2679 191.99 60.1474 191.933 59.9667C191.894 59.6869 191.881 59.4008 191.894 59.116C191.894 57.8185 191.913 55.8648 191.951 53.2548C191.989 50.6448 192.009 48.6811 192.011 47.3636C192.011 42.0132 191.868 37.7556 191.582 34.591C191.556 34.2899 191.543 34.0904 191.543 33.9963C191.543 33.6199 191.717 33.4316 192.063 33.4316C192.409 33.4316 192.983 33.4881 193.732 33.601C194.48 33.714 195.031 33.7704 195.421 33.7704C195.811 33.7704 196.362 33.7253 197.119 33.6312C197.875 33.5371 198.436 33.4881 198.816 33.4881C199.128 33.4881 199.284 33.6763 199.284 34.0527C199.284 34.128 199.284 34.3087 199.245 34.591C198.938 38.8374 198.794 43.1054 198.813 47.3749Z" fill="#3664AF"/>
<path d="M227.029 39.0527C227.029 39.3483 226.867 39.4961 226.543 39.4961C225.984 39.4961 223.766 39.3848 219.89 39.1621C219.802 42.9061 219.758 45.517 219.758 46.9949C219.758 48.7407 219.827 51.3664 219.967 54.8719C220.106 58.3775 220.176 61.0022 220.176 62.7461C220.176 63.0417 220.111 63.2072 219.979 63.281C219.777 63.3415 219.57 63.3783 219.36 63.3904C218.067 63.5292 216.767 63.5884 215.466 63.5677C214.131 63.5967 212.795 63.5375 211.467 63.3904C211.381 63.3867 211.297 63.3658 211.219 63.329C211.141 63.2922 211.071 63.2402 211.014 63.1761C210.956 63.112 210.912 63.037 210.884 62.9556C210.855 62.8741 210.843 62.7879 210.848 62.7017C210.848 60.9578 210.922 58.34 211.069 54.8483C211.216 51.3565 211.29 48.7388 211.29 46.9949C211.29 45.8421 211.231 43.2686 211.113 39.2744C208.168 39.57 205.812 39.7178 204.045 39.7178C203.809 39.7178 203.691 39.6439 203.691 39.4961C203.751 38.9207 203.85 38.3499 203.986 37.7877C204.222 36.7531 204.354 36.1246 204.384 35.9019C204.427 35.2083 204.479 34.5127 204.54 33.8151C204.644 32.7077 204.82 32.153 205.07 32.1511L205.379 32.1747C207.769 32.486 211.303 32.6417 215.982 32.6417C217.307 32.6417 219.754 32.5008 223.321 32.2191L226.217 31.9974C226.388 31.9783 226.562 31.9975 226.726 32.0535C226.77 32.089 226.8 32.2338 226.814 32.485C226.814 32.8841 226.8 33.4398 226.77 34.1492C226.741 34.9324 226.726 35.4881 226.726 35.8132C226.74 36.3594 226.788 36.9043 226.867 37.4448C226.955 37.9769 227.009 38.5139 227.029 39.0527Z" fill="#3664AF"/>
<path d="M261.959 47.8615C261.959 52.4744 260.493 56.3425 257.559 59.4658C254.567 62.6186 250.779 64.2009 246.196 64.2127C241.614 64.2246 237.833 62.6265 234.854 59.4185C231.909 56.3012 230.437 52.4488 230.437 47.8615C230.437 43.2741 231.909 39.406 234.854 36.2572C237.862 33.0571 241.643 31.457 246.196 31.457C250.712 31.457 254.485 33.062 257.515 36.272C260.478 39.4267 261.959 43.2899 261.959 47.8615ZM253.58 47.8172C253.633 45.7461 252.916 43.7294 251.569 42.1598C250.914 41.3728 250.091 40.7444 249.161 40.3216C248.231 39.8988 247.217 39.6926 246.196 39.7184C244.117 39.7184 242.356 40.5617 240.913 42.2485C239.542 43.7935 238.793 45.7956 238.813 47.8644C238.813 50.1266 239.469 52.0123 240.78 53.5217C242.155 55.0981 243.96 55.8863 246.196 55.8863C248.272 55.8863 250.039 55.0508 251.498 53.3798C252.859 51.8511 253.602 49.8671 253.58 47.8172Z" fill="#3664AF"/>
<path d="M307.651 63.0591C307.651 63.2128 307.43 63.3251 306.988 63.3901C306.146 63.5222 304.034 63.5891 300.653 63.5911C297.759 63.5911 295.795 63.5241 294.763 63.3901C294.481 63.3706 294.203 63.315 293.935 63.2246C293.722 63.0503 293.561 62.8201 293.47 62.5596C293.138 61.6945 292.652 60.4078 292.012 58.6993C291.15 56.4786 289.801 53.2056 287.965 48.8803C287.572 48.0153 286.654 47.5385 285.211 47.4498C285.877 47.4931 284.739 47.5148 281.798 47.5148C281.466 47.5148 281.3 48.0813 281.3 49.2144C281.3 50.7218 281.438 52.973 281.715 55.9682C281.992 58.9634 282.13 61.2157 282.128 62.7251C282.128 63.1034 282.027 63.3163 281.833 63.3901L280.905 63.4581C279.602 63.5468 277.567 63.5911 274.803 63.5911C271.64 63.5911 269.738 63.5241 269.098 63.3901C268.458 63.2562 268.138 62.9123 268.138 62.3586C268.138 59.9171 268.254 56.2342 268.485 51.3099C268.717 46.3857 268.833 42.6919 268.833 40.2288C268.833 30.8453 268.623 23.5229 268.202 18.2617L268.17 17.7976C268.15 17.4193 268.499 17.1641 269.216 17.0321C269.932 16.9 273.309 16.7671 279.344 16.6331C283.434 16.5444 286.696 16.5 289.128 16.5C294.169 16.5 298.28 17.6419 301.463 19.9257C305.068 22.5012 306.87 26.2176 306.87 31.0748C306.87 34.3144 306.406 36.8997 305.477 38.8307C304.549 40.7618 302.835 42.6338 300.338 44.4467C299.828 44.8014 299.575 45.1325 299.575 45.4428C299.575 45.4231 300.923 48.2074 303.619 53.7958C306.315 59.3841 307.659 62.4719 307.651 63.0591ZM293.723 33.2059C293.723 30.4985 292.839 28.6265 291.072 27.59C289.698 26.8018 287.554 26.4077 284.64 26.4077C282.539 26.4077 281.423 26.7289 281.291 27.3713C281.158 28.128 281.091 30.3024 281.091 33.8947C281.091 34.407 281.102 35.1617 281.123 36.1587C281.145 37.1558 281.157 37.8987 281.159 38.3874C281.159 38.4997 281.512 38.6091 282.219 38.7214C283.625 38.923 285.043 39.0218 286.463 39.017C291.307 39.0032 293.729 37.0662 293.729 33.2059H293.723Z" fill="#3664AF"/>
<path fill-rule="evenodd" clip-rule="evenodd" d="M199.287 61.6174C202.054 60.3506 202.45 59.8049 204.005 58.7853C205.882 57.5545 207.002 59.9201 205.083 61.073C202.682 62.5162 199.287 61.6174 199.287 61.6174Z" fill="#01D1FF"/>
<path fill-rule="evenodd" clip-rule="evenodd" d="M204.672 61.0222C204.034 61.3737 202.442 61.8673 200.933 61.7182C202.947 61.3916 203.745 60.7935 204.378 60.4413C204.866 60.1598 205.09 59.8529 205.313 60.1742C205.648 60.5308 205.073 60.7815 204.672 61.0222Z" fill="#3664AF"/>
<path fill-rule="evenodd" clip-rule="evenodd" d="M200.898 63.2082C194.415 62.6526 193.34 59.2343 190.592 55.6627C187.828 52.0692 185.889 55.065 187.16 56.8554C188.431 58.6458 186.423 59.8043 183.332 55.9943C181.667 53.9413 181.187 53.5312 180.131 53.9766C178.373 54.7178 179.164 56.6776 181.289 58.4991C185.137 61.7957 194.565 64.0642 200.898 63.2082Z" fill="#01D1FF"/>
<path fill-rule="evenodd" clip-rule="evenodd" d="M188.729 57.2835C189.726 58.2168 190.362 58.2935 192.853 60.6465C192.845 60.6337 191.37 58.4174 189.361 56.6375C188.831 56.1097 188.411 55.3477 187.988 55.7467C187.391 56.1296 188.298 56.8416 188.729 57.2835Z" fill="#3664AF"/>
</svg>
